%TF.GenerationSoftware,KiCad,Pcbnew,(5.1.8)-1*%
%TF.CreationDate,2021-11-03T02:00:03+01:00*%
%TF.ProjectId,Base,42617365-2e6b-4696-9361-645f70636258,rev?*%
%TF.SameCoordinates,Original*%
%TF.FileFunction,Soldermask,Bot*%
%TF.FilePolarity,Negative*%
%FSLAX46Y46*%
G04 Gerber Fmt 4.6, Leading zero omitted, Abs format (unit mm)*
G04 Created by KiCad (PCBNEW (5.1.8)-1) date 2021-11-03 02:00:03*
%MOMM*%
%LPD*%
G01*
G04 APERTURE LIST*
%ADD10R,12.000000X8.000000*%
%ADD11R,1.500000X2.000000*%
%ADD12O,1.500000X2.000000*%
%ADD13O,0.900000X2.000000*%
%ADD14R,1.800000X3.500000*%
%ADD15C,2.000000*%
%ADD16R,0.900000X2.600000*%
%ADD17C,0.100000*%
%ADD18O,4.000000X6.500000*%
%ADD19O,6.500000X4.000000*%
%ADD20C,3.200000*%
G04 APERTURE END LIST*
D10*
%TO.C,BT3*%
X128695000Y-124720000D03*
X143845000Y-124720000D03*
%TD*%
%TO.C,R6*%
G36*
G01*
X166595999Y-105662400D02*
X167846001Y-105662400D01*
G75*
G02*
X168096000Y-105912399I0J-249999D01*
G01*
X168096000Y-106712401D01*
G75*
G02*
X167846001Y-106962400I-249999J0D01*
G01*
X166595999Y-106962400D01*
G75*
G02*
X166346000Y-106712401I0J249999D01*
G01*
X166346000Y-105912399D01*
G75*
G02*
X166595999Y-105662400I249999J0D01*
G01*
G37*
G36*
G01*
X166595999Y-102562400D02*
X167846001Y-102562400D01*
G75*
G02*
X168096000Y-102812399I0J-249999D01*
G01*
X168096000Y-103612401D01*
G75*
G02*
X167846001Y-103862400I-249999J0D01*
G01*
X166595999Y-103862400D01*
G75*
G02*
X166346000Y-103612401I0J249999D01*
G01*
X166346000Y-102812399D01*
G75*
G02*
X166595999Y-102562400I249999J0D01*
G01*
G37*
%TD*%
%TO.C,R5*%
G36*
G01*
X168171200Y-100282001D02*
X168171200Y-99031999D01*
G75*
G02*
X168421199Y-98782000I249999J0D01*
G01*
X169221201Y-98782000D01*
G75*
G02*
X169471200Y-99031999I0J-249999D01*
G01*
X169471200Y-100282001D01*
G75*
G02*
X169221201Y-100532000I-249999J0D01*
G01*
X168421199Y-100532000D01*
G75*
G02*
X168171200Y-100282001I0J249999D01*
G01*
G37*
G36*
G01*
X165071200Y-100282001D02*
X165071200Y-99031999D01*
G75*
G02*
X165321199Y-98782000I249999J0D01*
G01*
X166121201Y-98782000D01*
G75*
G02*
X166371200Y-99031999I0J-249999D01*
G01*
X166371200Y-100282001D01*
G75*
G02*
X166121201Y-100532000I-249999J0D01*
G01*
X165321199Y-100532000D01*
G75*
G02*
X165071200Y-100282001I0J249999D01*
G01*
G37*
%TD*%
%TO.C,R8*%
G36*
G01*
X161194001Y-84652000D02*
X160293999Y-84652000D01*
G75*
G02*
X160044000Y-84402001I0J249999D01*
G01*
X160044000Y-83701999D01*
G75*
G02*
X160293999Y-83452000I249999J0D01*
G01*
X161194001Y-83452000D01*
G75*
G02*
X161444000Y-83701999I0J-249999D01*
G01*
X161444000Y-84402001D01*
G75*
G02*
X161194001Y-84652000I-249999J0D01*
G01*
G37*
G36*
G01*
X161194001Y-86652000D02*
X160293999Y-86652000D01*
G75*
G02*
X160044000Y-86402001I0J249999D01*
G01*
X160044000Y-85701999D01*
G75*
G02*
X160293999Y-85452000I249999J0D01*
G01*
X161194001Y-85452000D01*
G75*
G02*
X161444000Y-85701999I0J-249999D01*
G01*
X161444000Y-86402001D01*
G75*
G02*
X161194001Y-86652000I-249999J0D01*
G01*
G37*
%TD*%
%TO.C,R7*%
G36*
G01*
X157804000Y-80537999D02*
X157804000Y-81438001D01*
G75*
G02*
X157554001Y-81688000I-249999J0D01*
G01*
X156853999Y-81688000D01*
G75*
G02*
X156604000Y-81438001I0J249999D01*
G01*
X156604000Y-80537999D01*
G75*
G02*
X156853999Y-80288000I249999J0D01*
G01*
X157554001Y-80288000D01*
G75*
G02*
X157804000Y-80537999I0J-249999D01*
G01*
G37*
G36*
G01*
X159804000Y-80537999D02*
X159804000Y-81438001D01*
G75*
G02*
X159554001Y-81688000I-249999J0D01*
G01*
X158853999Y-81688000D01*
G75*
G02*
X158604000Y-81438001I0J249999D01*
G01*
X158604000Y-80537999D01*
G75*
G02*
X158853999Y-80288000I249999J0D01*
G01*
X159554001Y-80288000D01*
G75*
G02*
X159804000Y-80537999I0J-249999D01*
G01*
G37*
%TD*%
%TO.C,R4*%
G36*
G01*
X171431200Y-84106599D02*
X171431200Y-85006601D01*
G75*
G02*
X171181201Y-85256600I-249999J0D01*
G01*
X170481199Y-85256600D01*
G75*
G02*
X170231200Y-85006601I0J249999D01*
G01*
X170231200Y-84106599D01*
G75*
G02*
X170481199Y-83856600I249999J0D01*
G01*
X171181201Y-83856600D01*
G75*
G02*
X171431200Y-84106599I0J-249999D01*
G01*
G37*
G36*
G01*
X173431200Y-84106599D02*
X173431200Y-85006601D01*
G75*
G02*
X173181201Y-85256600I-249999J0D01*
G01*
X172481199Y-85256600D01*
G75*
G02*
X172231200Y-85006601I0J249999D01*
G01*
X172231200Y-84106599D01*
G75*
G02*
X172481199Y-83856600I249999J0D01*
G01*
X173181201Y-83856600D01*
G75*
G02*
X173431200Y-84106599I0J-249999D01*
G01*
G37*
%TD*%
%TO.C,R3*%
G36*
G01*
X171405200Y-86646599D02*
X171405200Y-87546601D01*
G75*
G02*
X171155201Y-87796600I-249999J0D01*
G01*
X170455199Y-87796600D01*
G75*
G02*
X170205200Y-87546601I0J249999D01*
G01*
X170205200Y-86646599D01*
G75*
G02*
X170455199Y-86396600I249999J0D01*
G01*
X171155201Y-86396600D01*
G75*
G02*
X171405200Y-86646599I0J-249999D01*
G01*
G37*
G36*
G01*
X173405200Y-86646599D02*
X173405200Y-87546601D01*
G75*
G02*
X173155201Y-87796600I-249999J0D01*
G01*
X172455199Y-87796600D01*
G75*
G02*
X172205200Y-87546601I0J249999D01*
G01*
X172205200Y-86646599D01*
G75*
G02*
X172455199Y-86396600I249999J0D01*
G01*
X173155201Y-86396600D01*
G75*
G02*
X173405200Y-86646599I0J-249999D01*
G01*
G37*
%TD*%
%TO.C,R2*%
G36*
G01*
X164611000Y-119906401D02*
X164611000Y-119006399D01*
G75*
G02*
X164860999Y-118756400I249999J0D01*
G01*
X165561001Y-118756400D01*
G75*
G02*
X165811000Y-119006399I0J-249999D01*
G01*
X165811000Y-119906401D01*
G75*
G02*
X165561001Y-120156400I-249999J0D01*
G01*
X164860999Y-120156400D01*
G75*
G02*
X164611000Y-119906401I0J249999D01*
G01*
G37*
G36*
G01*
X162611000Y-119906401D02*
X162611000Y-119006399D01*
G75*
G02*
X162860999Y-118756400I249999J0D01*
G01*
X163561001Y-118756400D01*
G75*
G02*
X163811000Y-119006399I0J-249999D01*
G01*
X163811000Y-119906401D01*
G75*
G02*
X163561001Y-120156400I-249999J0D01*
G01*
X162860999Y-120156400D01*
G75*
G02*
X162611000Y-119906401I0J249999D01*
G01*
G37*
%TD*%
%TO.C,R1*%
G36*
G01*
X164611000Y-117366401D02*
X164611000Y-116466399D01*
G75*
G02*
X164860999Y-116216400I249999J0D01*
G01*
X165561001Y-116216400D01*
G75*
G02*
X165811000Y-116466399I0J-249999D01*
G01*
X165811000Y-117366401D01*
G75*
G02*
X165561001Y-117616400I-249999J0D01*
G01*
X164860999Y-117616400D01*
G75*
G02*
X164611000Y-117366401I0J249999D01*
G01*
G37*
G36*
G01*
X162611000Y-117366401D02*
X162611000Y-116466399D01*
G75*
G02*
X162860999Y-116216400I249999J0D01*
G01*
X163561001Y-116216400D01*
G75*
G02*
X163811000Y-116466399I0J-249999D01*
G01*
X163811000Y-117366401D01*
G75*
G02*
X163561001Y-117616400I-249999J0D01*
G01*
X162860999Y-117616400D01*
G75*
G02*
X162611000Y-117366401I0J249999D01*
G01*
G37*
%TD*%
%TO.C,C10*%
G36*
G01*
X164104000Y-126995000D02*
X164104000Y-127945000D01*
G75*
G02*
X163854000Y-128195000I-250000J0D01*
G01*
X163179000Y-128195000D01*
G75*
G02*
X162929000Y-127945000I0J250000D01*
G01*
X162929000Y-126995000D01*
G75*
G02*
X163179000Y-126745000I250000J0D01*
G01*
X163854000Y-126745000D01*
G75*
G02*
X164104000Y-126995000I0J-250000D01*
G01*
G37*
G36*
G01*
X166179000Y-126995000D02*
X166179000Y-127945000D01*
G75*
G02*
X165929000Y-128195000I-250000J0D01*
G01*
X165254000Y-128195000D01*
G75*
G02*
X165004000Y-127945000I0J250000D01*
G01*
X165004000Y-126995000D01*
G75*
G02*
X165254000Y-126745000I250000J0D01*
G01*
X165929000Y-126745000D01*
G75*
G02*
X166179000Y-126995000I0J-250000D01*
G01*
G37*
%TD*%
%TO.C,C9*%
G36*
G01*
X159416000Y-127945000D02*
X159416000Y-126995000D01*
G75*
G02*
X159666000Y-126745000I250000J0D01*
G01*
X160341000Y-126745000D01*
G75*
G02*
X160591000Y-126995000I0J-250000D01*
G01*
X160591000Y-127945000D01*
G75*
G02*
X160341000Y-128195000I-250000J0D01*
G01*
X159666000Y-128195000D01*
G75*
G02*
X159416000Y-127945000I0J250000D01*
G01*
G37*
G36*
G01*
X157341000Y-127945000D02*
X157341000Y-126995000D01*
G75*
G02*
X157591000Y-126745000I250000J0D01*
G01*
X158266000Y-126745000D01*
G75*
G02*
X158516000Y-126995000I0J-250000D01*
G01*
X158516000Y-127945000D01*
G75*
G02*
X158266000Y-128195000I-250000J0D01*
G01*
X157591000Y-128195000D01*
G75*
G02*
X157341000Y-127945000I0J250000D01*
G01*
G37*
%TD*%
%TO.C,C8*%
G36*
G01*
X164079000Y-73818000D02*
X165029000Y-73818000D01*
G75*
G02*
X165279000Y-74068000I0J-250000D01*
G01*
X165279000Y-74743000D01*
G75*
G02*
X165029000Y-74993000I-250000J0D01*
G01*
X164079000Y-74993000D01*
G75*
G02*
X163829000Y-74743000I0J250000D01*
G01*
X163829000Y-74068000D01*
G75*
G02*
X164079000Y-73818000I250000J0D01*
G01*
G37*
G36*
G01*
X164079000Y-71743000D02*
X165029000Y-71743000D01*
G75*
G02*
X165279000Y-71993000I0J-250000D01*
G01*
X165279000Y-72668000D01*
G75*
G02*
X165029000Y-72918000I-250000J0D01*
G01*
X164079000Y-72918000D01*
G75*
G02*
X163829000Y-72668000I0J250000D01*
G01*
X163829000Y-71993000D01*
G75*
G02*
X164079000Y-71743000I250000J0D01*
G01*
G37*
%TD*%
%TO.C,C6*%
G36*
G01*
X162654000Y-110624400D02*
X161704000Y-110624400D01*
G75*
G02*
X161454000Y-110374400I0J250000D01*
G01*
X161454000Y-109699400D01*
G75*
G02*
X161704000Y-109449400I250000J0D01*
G01*
X162654000Y-109449400D01*
G75*
G02*
X162904000Y-109699400I0J-250000D01*
G01*
X162904000Y-110374400D01*
G75*
G02*
X162654000Y-110624400I-250000J0D01*
G01*
G37*
G36*
G01*
X162654000Y-112699400D02*
X161704000Y-112699400D01*
G75*
G02*
X161454000Y-112449400I0J250000D01*
G01*
X161454000Y-111774400D01*
G75*
G02*
X161704000Y-111524400I250000J0D01*
G01*
X162654000Y-111524400D01*
G75*
G02*
X162904000Y-111774400I0J-250000D01*
G01*
X162904000Y-112449400D01*
G75*
G02*
X162654000Y-112699400I-250000J0D01*
G01*
G37*
%TD*%
%TO.C,C5*%
G36*
G01*
X173388200Y-92880600D02*
X174338200Y-92880600D01*
G75*
G02*
X174588200Y-93130600I0J-250000D01*
G01*
X174588200Y-93805600D01*
G75*
G02*
X174338200Y-94055600I-250000J0D01*
G01*
X173388200Y-94055600D01*
G75*
G02*
X173138200Y-93805600I0J250000D01*
G01*
X173138200Y-93130600D01*
G75*
G02*
X173388200Y-92880600I250000J0D01*
G01*
G37*
G36*
G01*
X173388200Y-90805600D02*
X174338200Y-90805600D01*
G75*
G02*
X174588200Y-91055600I0J-250000D01*
G01*
X174588200Y-91730600D01*
G75*
G02*
X174338200Y-91980600I-250000J0D01*
G01*
X173388200Y-91980600D01*
G75*
G02*
X173138200Y-91730600I0J250000D01*
G01*
X173138200Y-91055600D01*
G75*
G02*
X173388200Y-90805600I250000J0D01*
G01*
G37*
%TD*%
%TO.C,C4*%
G36*
G01*
X165285200Y-84081600D02*
X165285200Y-85031600D01*
G75*
G02*
X165035200Y-85281600I-250000J0D01*
G01*
X164360200Y-85281600D01*
G75*
G02*
X164110200Y-85031600I0J250000D01*
G01*
X164110200Y-84081600D01*
G75*
G02*
X164360200Y-83831600I250000J0D01*
G01*
X165035200Y-83831600D01*
G75*
G02*
X165285200Y-84081600I0J-250000D01*
G01*
G37*
G36*
G01*
X167360200Y-84081600D02*
X167360200Y-85031600D01*
G75*
G02*
X167110200Y-85281600I-250000J0D01*
G01*
X166435200Y-85281600D01*
G75*
G02*
X166185200Y-85031600I0J250000D01*
G01*
X166185200Y-84081600D01*
G75*
G02*
X166435200Y-83831600I250000J0D01*
G01*
X167110200Y-83831600D01*
G75*
G02*
X167360200Y-84081600I0J-250000D01*
G01*
G37*
%TD*%
%TO.C,C3*%
G36*
G01*
X171074600Y-118572400D02*
X171074600Y-117622400D01*
G75*
G02*
X171324600Y-117372400I250000J0D01*
G01*
X171999600Y-117372400D01*
G75*
G02*
X172249600Y-117622400I0J-250000D01*
G01*
X172249600Y-118572400D01*
G75*
G02*
X171999600Y-118822400I-250000J0D01*
G01*
X171324600Y-118822400D01*
G75*
G02*
X171074600Y-118572400I0J250000D01*
G01*
G37*
G36*
G01*
X168999600Y-118572400D02*
X168999600Y-117622400D01*
G75*
G02*
X169249600Y-117372400I250000J0D01*
G01*
X169924600Y-117372400D01*
G75*
G02*
X170174600Y-117622400I0J-250000D01*
G01*
X170174600Y-118572400D01*
G75*
G02*
X169924600Y-118822400I-250000J0D01*
G01*
X169249600Y-118822400D01*
G75*
G02*
X168999600Y-118572400I0J250000D01*
G01*
G37*
%TD*%
%TO.C,C2*%
G36*
G01*
X164942600Y-91394800D02*
X165892600Y-91394800D01*
G75*
G02*
X166142600Y-91644800I0J-250000D01*
G01*
X166142600Y-92319800D01*
G75*
G02*
X165892600Y-92569800I-250000J0D01*
G01*
X164942600Y-92569800D01*
G75*
G02*
X164692600Y-92319800I0J250000D01*
G01*
X164692600Y-91644800D01*
G75*
G02*
X164942600Y-91394800I250000J0D01*
G01*
G37*
G36*
G01*
X164942600Y-89319800D02*
X165892600Y-89319800D01*
G75*
G02*
X166142600Y-89569800I0J-250000D01*
G01*
X166142600Y-90244800D01*
G75*
G02*
X165892600Y-90494800I-250000J0D01*
G01*
X164942600Y-90494800D01*
G75*
G02*
X164692600Y-90244800I0J250000D01*
G01*
X164692600Y-89569800D01*
G75*
G02*
X164942600Y-89319800I250000J0D01*
G01*
G37*
%TD*%
%TO.C,C1*%
G36*
G01*
X171074200Y-112364200D02*
X170124200Y-112364200D01*
G75*
G02*
X169874200Y-112114200I0J250000D01*
G01*
X169874200Y-111439200D01*
G75*
G02*
X170124200Y-111189200I250000J0D01*
G01*
X171074200Y-111189200D01*
G75*
G02*
X171324200Y-111439200I0J-250000D01*
G01*
X171324200Y-112114200D01*
G75*
G02*
X171074200Y-112364200I-250000J0D01*
G01*
G37*
G36*
G01*
X171074200Y-114439200D02*
X170124200Y-114439200D01*
G75*
G02*
X169874200Y-114189200I0J250000D01*
G01*
X169874200Y-113514200D01*
G75*
G02*
X170124200Y-113264200I250000J0D01*
G01*
X171074200Y-113264200D01*
G75*
G02*
X171324200Y-113514200I0J-250000D01*
G01*
X171324200Y-114189200D01*
G75*
G02*
X171074200Y-114439200I-250000J0D01*
G01*
G37*
%TD*%
D11*
%TO.C,U4*%
X163230000Y-123914000D03*
D12*
X160290000Y-123914000D03*
D13*
X161760000Y-123914000D03*
%TD*%
D14*
%TO.C,D4*%
X116802000Y-113968000D03*
X116802000Y-108968000D03*
%TD*%
%TO.C,D3*%
X116802000Y-104316000D03*
X116802000Y-99316000D03*
%TD*%
%TO.C,D2*%
X116802000Y-94664000D03*
X116802000Y-89664000D03*
%TD*%
%TO.C,D1*%
X116802000Y-85012000D03*
X116802000Y-80012000D03*
%TD*%
D15*
%TO.C,SW1*%
X155408000Y-114516000D03*
X155408000Y-119216000D03*
X155408000Y-123916000D03*
%TD*%
D16*
%TO.C,Q1*%
X158434000Y-107418000D03*
X155434000Y-107418000D03*
D17*
G36*
X157800500Y-102818000D02*
G01*
X157800500Y-105943000D01*
X157384000Y-105943000D01*
X157384000Y-107418000D01*
X156484000Y-107418000D01*
X156484000Y-105943000D01*
X156067500Y-105943000D01*
X156067500Y-102818000D01*
X157800500Y-102818000D01*
G37*
%TD*%
D18*
%TO.C,C7*%
X137122000Y-104668000D03*
X137122000Y-96668000D03*
X137122000Y-80168000D03*
X137122000Y-88168000D03*
D19*
X124872000Y-92418000D03*
X132872000Y-92418000D03*
X149372000Y-92418000D03*
X141372000Y-92418000D03*
%TD*%
D20*
%TO.C,H4*%
X116294000Y-124676000D03*
%TD*%
%TO.C,H3*%
X116294000Y-71590000D03*
%TD*%
%TO.C,H2*%
X172174000Y-124676000D03*
%TD*%
%TO.C,H1*%
X172174000Y-71590000D03*
%TD*%
%TO.C,U3*%
G36*
G01*
X162418000Y-79297000D02*
X162118000Y-79297000D01*
G75*
G02*
X161968000Y-79147000I0J150000D01*
G01*
X161968000Y-77397000D01*
G75*
G02*
X162118000Y-77247000I150000J0D01*
G01*
X162418000Y-77247000D01*
G75*
G02*
X162568000Y-77397000I0J-150000D01*
G01*
X162568000Y-79147000D01*
G75*
G02*
X162418000Y-79297000I-150000J0D01*
G01*
G37*
G36*
G01*
X161148000Y-79297000D02*
X160848000Y-79297000D01*
G75*
G02*
X160698000Y-79147000I0J150000D01*
G01*
X160698000Y-77397000D01*
G75*
G02*
X160848000Y-77247000I150000J0D01*
G01*
X161148000Y-77247000D01*
G75*
G02*
X161298000Y-77397000I0J-150000D01*
G01*
X161298000Y-79147000D01*
G75*
G02*
X161148000Y-79297000I-150000J0D01*
G01*
G37*
G36*
G01*
X159878000Y-79297000D02*
X159578000Y-79297000D01*
G75*
G02*
X159428000Y-79147000I0J150000D01*
G01*
X159428000Y-77397000D01*
G75*
G02*
X159578000Y-77247000I150000J0D01*
G01*
X159878000Y-77247000D01*
G75*
G02*
X160028000Y-77397000I0J-150000D01*
G01*
X160028000Y-79147000D01*
G75*
G02*
X159878000Y-79297000I-150000J0D01*
G01*
G37*
G36*
G01*
X158608000Y-79297000D02*
X158308000Y-79297000D01*
G75*
G02*
X158158000Y-79147000I0J150000D01*
G01*
X158158000Y-77397000D01*
G75*
G02*
X158308000Y-77247000I150000J0D01*
G01*
X158608000Y-77247000D01*
G75*
G02*
X158758000Y-77397000I0J-150000D01*
G01*
X158758000Y-79147000D01*
G75*
G02*
X158608000Y-79297000I-150000J0D01*
G01*
G37*
G36*
G01*
X157338000Y-79297000D02*
X157038000Y-79297000D01*
G75*
G02*
X156888000Y-79147000I0J150000D01*
G01*
X156888000Y-77397000D01*
G75*
G02*
X157038000Y-77247000I150000J0D01*
G01*
X157338000Y-77247000D01*
G75*
G02*
X157488000Y-77397000I0J-150000D01*
G01*
X157488000Y-79147000D01*
G75*
G02*
X157338000Y-79297000I-150000J0D01*
G01*
G37*
G36*
G01*
X156068000Y-79297000D02*
X155768000Y-79297000D01*
G75*
G02*
X155618000Y-79147000I0J150000D01*
G01*
X155618000Y-77397000D01*
G75*
G02*
X155768000Y-77247000I150000J0D01*
G01*
X156068000Y-77247000D01*
G75*
G02*
X156218000Y-77397000I0J-150000D01*
G01*
X156218000Y-79147000D01*
G75*
G02*
X156068000Y-79297000I-150000J0D01*
G01*
G37*
G36*
G01*
X154798000Y-79297000D02*
X154498000Y-79297000D01*
G75*
G02*
X154348000Y-79147000I0J150000D01*
G01*
X154348000Y-77397000D01*
G75*
G02*
X154498000Y-77247000I150000J0D01*
G01*
X154798000Y-77247000D01*
G75*
G02*
X154948000Y-77397000I0J-150000D01*
G01*
X154948000Y-79147000D01*
G75*
G02*
X154798000Y-79297000I-150000J0D01*
G01*
G37*
G36*
G01*
X154798000Y-69997000D02*
X154498000Y-69997000D01*
G75*
G02*
X154348000Y-69847000I0J150000D01*
G01*
X154348000Y-68097000D01*
G75*
G02*
X154498000Y-67947000I150000J0D01*
G01*
X154798000Y-67947000D01*
G75*
G02*
X154948000Y-68097000I0J-150000D01*
G01*
X154948000Y-69847000D01*
G75*
G02*
X154798000Y-69997000I-150000J0D01*
G01*
G37*
G36*
G01*
X156068000Y-69997000D02*
X155768000Y-69997000D01*
G75*
G02*
X155618000Y-69847000I0J150000D01*
G01*
X155618000Y-68097000D01*
G75*
G02*
X155768000Y-67947000I150000J0D01*
G01*
X156068000Y-67947000D01*
G75*
G02*
X156218000Y-68097000I0J-150000D01*
G01*
X156218000Y-69847000D01*
G75*
G02*
X156068000Y-69997000I-150000J0D01*
G01*
G37*
G36*
G01*
X157338000Y-69997000D02*
X157038000Y-69997000D01*
G75*
G02*
X156888000Y-69847000I0J150000D01*
G01*
X156888000Y-68097000D01*
G75*
G02*
X157038000Y-67947000I150000J0D01*
G01*
X157338000Y-67947000D01*
G75*
G02*
X157488000Y-68097000I0J-150000D01*
G01*
X157488000Y-69847000D01*
G75*
G02*
X157338000Y-69997000I-150000J0D01*
G01*
G37*
G36*
G01*
X158608000Y-69997000D02*
X158308000Y-69997000D01*
G75*
G02*
X158158000Y-69847000I0J150000D01*
G01*
X158158000Y-68097000D01*
G75*
G02*
X158308000Y-67947000I150000J0D01*
G01*
X158608000Y-67947000D01*
G75*
G02*
X158758000Y-68097000I0J-150000D01*
G01*
X158758000Y-69847000D01*
G75*
G02*
X158608000Y-69997000I-150000J0D01*
G01*
G37*
G36*
G01*
X159878000Y-69997000D02*
X159578000Y-69997000D01*
G75*
G02*
X159428000Y-69847000I0J150000D01*
G01*
X159428000Y-68097000D01*
G75*
G02*
X159578000Y-67947000I150000J0D01*
G01*
X159878000Y-67947000D01*
G75*
G02*
X160028000Y-68097000I0J-150000D01*
G01*
X160028000Y-69847000D01*
G75*
G02*
X159878000Y-69997000I-150000J0D01*
G01*
G37*
G36*
G01*
X161148000Y-69997000D02*
X160848000Y-69997000D01*
G75*
G02*
X160698000Y-69847000I0J150000D01*
G01*
X160698000Y-68097000D01*
G75*
G02*
X160848000Y-67947000I150000J0D01*
G01*
X161148000Y-67947000D01*
G75*
G02*
X161298000Y-68097000I0J-150000D01*
G01*
X161298000Y-69847000D01*
G75*
G02*
X161148000Y-69997000I-150000J0D01*
G01*
G37*
G36*
G01*
X162418000Y-69997000D02*
X162118000Y-69997000D01*
G75*
G02*
X161968000Y-69847000I0J150000D01*
G01*
X161968000Y-68097000D01*
G75*
G02*
X162118000Y-67947000I150000J0D01*
G01*
X162418000Y-67947000D01*
G75*
G02*
X162568000Y-68097000I0J-150000D01*
G01*
X162568000Y-69847000D01*
G75*
G02*
X162418000Y-69997000I-150000J0D01*
G01*
G37*
%TD*%
%TO.C,U2*%
G36*
G01*
X171600200Y-95626600D02*
X171300200Y-95626600D01*
G75*
G02*
X171150200Y-95476600I0J150000D01*
G01*
X171150200Y-93826600D01*
G75*
G02*
X171300200Y-93676600I150000J0D01*
G01*
X171600200Y-93676600D01*
G75*
G02*
X171750200Y-93826600I0J-150000D01*
G01*
X171750200Y-95476600D01*
G75*
G02*
X171600200Y-95626600I-150000J0D01*
G01*
G37*
G36*
G01*
X170330200Y-95626600D02*
X170030200Y-95626600D01*
G75*
G02*
X169880200Y-95476600I0J150000D01*
G01*
X169880200Y-93826600D01*
G75*
G02*
X170030200Y-93676600I150000J0D01*
G01*
X170330200Y-93676600D01*
G75*
G02*
X170480200Y-93826600I0J-150000D01*
G01*
X170480200Y-95476600D01*
G75*
G02*
X170330200Y-95626600I-150000J0D01*
G01*
G37*
G36*
G01*
X169060200Y-95626600D02*
X168760200Y-95626600D01*
G75*
G02*
X168610200Y-95476600I0J150000D01*
G01*
X168610200Y-93826600D01*
G75*
G02*
X168760200Y-93676600I150000J0D01*
G01*
X169060200Y-93676600D01*
G75*
G02*
X169210200Y-93826600I0J-150000D01*
G01*
X169210200Y-95476600D01*
G75*
G02*
X169060200Y-95626600I-150000J0D01*
G01*
G37*
G36*
G01*
X167790200Y-95626600D02*
X167490200Y-95626600D01*
G75*
G02*
X167340200Y-95476600I0J150000D01*
G01*
X167340200Y-93826600D01*
G75*
G02*
X167490200Y-93676600I150000J0D01*
G01*
X167790200Y-93676600D01*
G75*
G02*
X167940200Y-93826600I0J-150000D01*
G01*
X167940200Y-95476600D01*
G75*
G02*
X167790200Y-95626600I-150000J0D01*
G01*
G37*
G36*
G01*
X167790200Y-90676600D02*
X167490200Y-90676600D01*
G75*
G02*
X167340200Y-90526600I0J150000D01*
G01*
X167340200Y-88876600D01*
G75*
G02*
X167490200Y-88726600I150000J0D01*
G01*
X167790200Y-88726600D01*
G75*
G02*
X167940200Y-88876600I0J-150000D01*
G01*
X167940200Y-90526600D01*
G75*
G02*
X167790200Y-90676600I-150000J0D01*
G01*
G37*
G36*
G01*
X169060200Y-90676600D02*
X168760200Y-90676600D01*
G75*
G02*
X168610200Y-90526600I0J150000D01*
G01*
X168610200Y-88876600D01*
G75*
G02*
X168760200Y-88726600I150000J0D01*
G01*
X169060200Y-88726600D01*
G75*
G02*
X169210200Y-88876600I0J-150000D01*
G01*
X169210200Y-90526600D01*
G75*
G02*
X169060200Y-90676600I-150000J0D01*
G01*
G37*
G36*
G01*
X170330200Y-90676600D02*
X170030200Y-90676600D01*
G75*
G02*
X169880200Y-90526600I0J150000D01*
G01*
X169880200Y-88876600D01*
G75*
G02*
X170030200Y-88726600I150000J0D01*
G01*
X170330200Y-88726600D01*
G75*
G02*
X170480200Y-88876600I0J-150000D01*
G01*
X170480200Y-90526600D01*
G75*
G02*
X170330200Y-90676600I-150000J0D01*
G01*
G37*
G36*
G01*
X171600200Y-90676600D02*
X171300200Y-90676600D01*
G75*
G02*
X171150200Y-90526600I0J150000D01*
G01*
X171150200Y-88876600D01*
G75*
G02*
X171300200Y-88726600I150000J0D01*
G01*
X171600200Y-88726600D01*
G75*
G02*
X171750200Y-88876600I0J-150000D01*
G01*
X171750200Y-90526600D01*
G75*
G02*
X171600200Y-90676600I-150000J0D01*
G01*
G37*
%TD*%
%TO.C,U1*%
G36*
G01*
X164442000Y-108132400D02*
X164742000Y-108132400D01*
G75*
G02*
X164892000Y-108282400I0J-150000D01*
G01*
X164892000Y-109932400D01*
G75*
G02*
X164742000Y-110082400I-150000J0D01*
G01*
X164442000Y-110082400D01*
G75*
G02*
X164292000Y-109932400I0J150000D01*
G01*
X164292000Y-108282400D01*
G75*
G02*
X164442000Y-108132400I150000J0D01*
G01*
G37*
G36*
G01*
X165712000Y-108132400D02*
X166012000Y-108132400D01*
G75*
G02*
X166162000Y-108282400I0J-150000D01*
G01*
X166162000Y-109932400D01*
G75*
G02*
X166012000Y-110082400I-150000J0D01*
G01*
X165712000Y-110082400D01*
G75*
G02*
X165562000Y-109932400I0J150000D01*
G01*
X165562000Y-108282400D01*
G75*
G02*
X165712000Y-108132400I150000J0D01*
G01*
G37*
G36*
G01*
X166982000Y-108132400D02*
X167282000Y-108132400D01*
G75*
G02*
X167432000Y-108282400I0J-150000D01*
G01*
X167432000Y-109932400D01*
G75*
G02*
X167282000Y-110082400I-150000J0D01*
G01*
X166982000Y-110082400D01*
G75*
G02*
X166832000Y-109932400I0J150000D01*
G01*
X166832000Y-108282400D01*
G75*
G02*
X166982000Y-108132400I150000J0D01*
G01*
G37*
G36*
G01*
X168252000Y-108132400D02*
X168552000Y-108132400D01*
G75*
G02*
X168702000Y-108282400I0J-150000D01*
G01*
X168702000Y-109932400D01*
G75*
G02*
X168552000Y-110082400I-150000J0D01*
G01*
X168252000Y-110082400D01*
G75*
G02*
X168102000Y-109932400I0J150000D01*
G01*
X168102000Y-108282400D01*
G75*
G02*
X168252000Y-108132400I150000J0D01*
G01*
G37*
G36*
G01*
X168252000Y-113082400D02*
X168552000Y-113082400D01*
G75*
G02*
X168702000Y-113232400I0J-150000D01*
G01*
X168702000Y-114882400D01*
G75*
G02*
X168552000Y-115032400I-150000J0D01*
G01*
X168252000Y-115032400D01*
G75*
G02*
X168102000Y-114882400I0J150000D01*
G01*
X168102000Y-113232400D01*
G75*
G02*
X168252000Y-113082400I150000J0D01*
G01*
G37*
G36*
G01*
X166982000Y-113082400D02*
X167282000Y-113082400D01*
G75*
G02*
X167432000Y-113232400I0J-150000D01*
G01*
X167432000Y-114882400D01*
G75*
G02*
X167282000Y-115032400I-150000J0D01*
G01*
X166982000Y-115032400D01*
G75*
G02*
X166832000Y-114882400I0J150000D01*
G01*
X166832000Y-113232400D01*
G75*
G02*
X166982000Y-113082400I150000J0D01*
G01*
G37*
G36*
G01*
X165712000Y-113082400D02*
X166012000Y-113082400D01*
G75*
G02*
X166162000Y-113232400I0J-150000D01*
G01*
X166162000Y-114882400D01*
G75*
G02*
X166012000Y-115032400I-150000J0D01*
G01*
X165712000Y-115032400D01*
G75*
G02*
X165562000Y-114882400I0J150000D01*
G01*
X165562000Y-113232400D01*
G75*
G02*
X165712000Y-113082400I150000J0D01*
G01*
G37*
G36*
G01*
X164442000Y-113082400D02*
X164742000Y-113082400D01*
G75*
G02*
X164892000Y-113232400I0J-150000D01*
G01*
X164892000Y-114882400D01*
G75*
G02*
X164742000Y-115032400I-150000J0D01*
G01*
X164442000Y-115032400D01*
G75*
G02*
X164292000Y-114882400I0J150000D01*
G01*
X164292000Y-113232400D01*
G75*
G02*
X164442000Y-113082400I150000J0D01*
G01*
G37*
%TD*%
D16*
%TO.C,Q4*%
X158434000Y-88368000D03*
X155434000Y-88368000D03*
D17*
G36*
X157800500Y-83768000D02*
G01*
X157800500Y-86893000D01*
X157384000Y-86893000D01*
X157384000Y-88368000D01*
X156484000Y-88368000D01*
X156484000Y-86893000D01*
X156067500Y-86893000D01*
X156067500Y-83768000D01*
X157800500Y-83768000D01*
G37*
%TD*%
D16*
%TO.C,Q3*%
X158434000Y-94718000D03*
X155434000Y-94718000D03*
D17*
G36*
X157800500Y-90118000D02*
G01*
X157800500Y-93243000D01*
X157384000Y-93243000D01*
X157384000Y-94718000D01*
X156484000Y-94718000D01*
X156484000Y-93243000D01*
X156067500Y-93243000D01*
X156067500Y-90118000D01*
X157800500Y-90118000D01*
G37*
%TD*%
D16*
%TO.C,Q2*%
X158434000Y-101068000D03*
X155434000Y-101068000D03*
D17*
G36*
X157800500Y-96468000D02*
G01*
X157800500Y-99593000D01*
X157384000Y-99593000D01*
X157384000Y-101068000D01*
X156484000Y-101068000D01*
X156484000Y-99593000D01*
X156067500Y-99593000D01*
X156067500Y-96468000D01*
X157800500Y-96468000D01*
G37*
%TD*%
M02*
