%TF.GenerationSoftware,KiCad,Pcbnew,(5.1.10)-1*%
%TF.CreationDate,2021-10-20T14:08:43+02:00*%
%TF.ProjectId,Base,42617365-2e6b-4696-9361-645f70636258,rev?*%
%TF.SameCoordinates,Original*%
%TF.FileFunction,Legend,Top*%
%TF.FilePolarity,Positive*%
%FSLAX46Y46*%
G04 Gerber Fmt 4.6, Leading zero omitted, Abs format (unit mm)*
G04 Created by KiCad (PCBNEW (5.1.10)-1) date 2021-10-20 14:08:43*
%MOMM*%
%LPD*%
G01*
G04 APERTURE LIST*
%ADD10C,1.000000*%
%ADD11C,0.120000*%
%ADD12C,0.150000*%
G04 APERTURE END LIST*
D10*
X165538285Y-124863238D02*
X165538285Y-126196571D01*
X167633523Y-126196571D02*
X163633523Y-126196571D01*
X163633523Y-124291809D01*
X167633523Y-122768000D02*
X164966857Y-122768000D01*
X165728761Y-122768000D02*
X165347809Y-122577523D01*
X165157333Y-122387047D01*
X164966857Y-122006095D01*
X164966857Y-121625142D01*
X167633523Y-119720380D02*
X167443047Y-120101333D01*
X167252571Y-120291809D01*
X166871619Y-120482285D01*
X165728761Y-120482285D01*
X165347809Y-120291809D01*
X165157333Y-120101333D01*
X164966857Y-119720380D01*
X164966857Y-119148952D01*
X165157333Y-118768000D01*
X165347809Y-118577523D01*
X165728761Y-118387047D01*
X166871619Y-118387047D01*
X167252571Y-118577523D01*
X167443047Y-118768000D01*
X167633523Y-119148952D01*
X167633523Y-119720380D01*
X167633523Y-116672761D02*
X163633523Y-116672761D01*
X167633523Y-114958476D02*
X165538285Y-114958476D01*
X165157333Y-115148952D01*
X164966857Y-115529904D01*
X164966857Y-116101333D01*
X165157333Y-116482285D01*
X165347809Y-116672761D01*
X167443047Y-111529904D02*
X167633523Y-111910857D01*
X167633523Y-112672761D01*
X167443047Y-113053714D01*
X167062095Y-113244190D01*
X165538285Y-113244190D01*
X165157333Y-113053714D01*
X164966857Y-112672761D01*
X164966857Y-111910857D01*
X165157333Y-111529904D01*
X165538285Y-111339428D01*
X165919238Y-111339428D01*
X166300190Y-113244190D01*
X163633523Y-106958476D02*
X167633523Y-106006095D01*
X164776380Y-105244190D01*
X167633523Y-104482285D01*
X163633523Y-103529904D01*
X167443047Y-100482285D02*
X167633523Y-100863238D01*
X167633523Y-101625142D01*
X167443047Y-102006095D01*
X167062095Y-102196571D01*
X165538285Y-102196571D01*
X165157333Y-102006095D01*
X164966857Y-101625142D01*
X164966857Y-100863238D01*
X165157333Y-100482285D01*
X165538285Y-100291809D01*
X165919238Y-100291809D01*
X166300190Y-102196571D01*
X167633523Y-98577523D02*
X164966857Y-98577523D01*
X163633523Y-98577523D02*
X163824000Y-98768000D01*
X164014476Y-98577523D01*
X163824000Y-98387047D01*
X163633523Y-98577523D01*
X164014476Y-98577523D01*
X167633523Y-96672761D02*
X163633523Y-96672761D01*
X167633523Y-94958476D02*
X165538285Y-94958476D01*
X165157333Y-95148952D01*
X164966857Y-95529904D01*
X164966857Y-96101333D01*
X165157333Y-96482285D01*
X165347809Y-96672761D01*
X164966857Y-93053714D02*
X167633523Y-93053714D01*
X165347809Y-93053714D02*
X165157333Y-92863238D01*
X164966857Y-92482285D01*
X164966857Y-91910857D01*
X165157333Y-91529904D01*
X165538285Y-91339428D01*
X167633523Y-91339428D01*
X167633523Y-87720380D02*
X165538285Y-87720380D01*
X165157333Y-87910857D01*
X164966857Y-88291809D01*
X164966857Y-89053714D01*
X165157333Y-89434666D01*
X167443047Y-87720380D02*
X167633523Y-88101333D01*
X167633523Y-89053714D01*
X167443047Y-89434666D01*
X167062095Y-89625142D01*
X166681142Y-89625142D01*
X166300190Y-89434666D01*
X166109714Y-89053714D01*
X166109714Y-88101333D01*
X165919238Y-87720380D01*
X167443047Y-84101333D02*
X167633523Y-84482285D01*
X167633523Y-85244190D01*
X167443047Y-85625142D01*
X167252571Y-85815619D01*
X166871619Y-86006095D01*
X165728761Y-86006095D01*
X165347809Y-85815619D01*
X165157333Y-85625142D01*
X164966857Y-85244190D01*
X164966857Y-84482285D01*
X165157333Y-84101333D01*
X167633523Y-82387047D02*
X163633523Y-82387047D01*
X167633523Y-80672761D02*
X165538285Y-80672761D01*
X165157333Y-80863238D01*
X164966857Y-81244190D01*
X164966857Y-81815619D01*
X165157333Y-82196571D01*
X165347809Y-82387047D01*
X164966857Y-79339428D02*
X164966857Y-77815619D01*
X163633523Y-78768000D02*
X167062095Y-78768000D01*
X167443047Y-78577523D01*
X167633523Y-78196571D01*
X167633523Y-77815619D01*
X167443047Y-74958476D02*
X167633523Y-75339428D01*
X167633523Y-76101333D01*
X167443047Y-76482285D01*
X167062095Y-76672761D01*
X165538285Y-76672761D01*
X165157333Y-76482285D01*
X164966857Y-76101333D01*
X164966857Y-75339428D01*
X165157333Y-74958476D01*
X165538285Y-74768000D01*
X165919238Y-74768000D01*
X166300190Y-76672761D01*
X164966857Y-73053714D02*
X167633523Y-73053714D01*
X165347809Y-73053714D02*
X165157333Y-72863238D01*
X164966857Y-72482285D01*
X164966857Y-71910857D01*
X165157333Y-71529904D01*
X165538285Y-71339428D01*
X167633523Y-71339428D01*
D11*
%TO.C,SW1*%
X158458000Y-109436000D02*
X158458000Y-128996000D01*
X152358000Y-109436000D02*
X152358000Y-128996000D01*
X158458000Y-109436000D02*
X152358000Y-109436000D01*
X152358000Y-128996000D02*
X158458000Y-128996000D01*
X158458000Y-128996000D02*
X158458000Y-128986000D01*
D12*
X153975066Y-117384561D02*
X154117923Y-117432180D01*
X154356019Y-117432180D01*
X154451257Y-117384561D01*
X154498876Y-117336942D01*
X154546495Y-117241704D01*
X154546495Y-117146466D01*
X154498876Y-117051228D01*
X154451257Y-117003609D01*
X154356019Y-116955990D01*
X154165542Y-116908371D01*
X154070304Y-116860752D01*
X154022685Y-116813133D01*
X153975066Y-116717895D01*
X153975066Y-116622657D01*
X154022685Y-116527419D01*
X154070304Y-116479800D01*
X154165542Y-116432180D01*
X154403638Y-116432180D01*
X154546495Y-116479800D01*
X154879828Y-116432180D02*
X155117923Y-117432180D01*
X155308400Y-116717895D01*
X155498876Y-117432180D01*
X155736971Y-116432180D01*
X156641733Y-117432180D02*
X156070304Y-117432180D01*
X156356019Y-117432180D02*
X156356019Y-116432180D01*
X156260780Y-116575038D01*
X156165542Y-116670276D01*
X156070304Y-116717895D01*
%TO.C,C7*%
X136955333Y-93275142D02*
X136907714Y-93322761D01*
X136764857Y-93370380D01*
X136669619Y-93370380D01*
X136526761Y-93322761D01*
X136431523Y-93227523D01*
X136383904Y-93132285D01*
X136336285Y-92941809D01*
X136336285Y-92798952D01*
X136383904Y-92608476D01*
X136431523Y-92513238D01*
X136526761Y-92418000D01*
X136669619Y-92370380D01*
X136764857Y-92370380D01*
X136907714Y-92418000D01*
X136955333Y-92465619D01*
X137288666Y-92370380D02*
X137955333Y-92370380D01*
X137526761Y-93370380D01*
%TD*%
M02*
