%TF.GenerationSoftware,KiCad,Pcbnew,(5.1.8)-1*%
%TF.CreationDate,2021-11-19T10:16:48+01:00*%
%TF.ProjectId,Base,42617365-2e6b-4696-9361-645f70636258,rev?*%
%TF.SameCoordinates,Original*%
%TF.FileFunction,Copper,L1,Top*%
%TF.FilePolarity,Positive*%
%FSLAX46Y46*%
G04 Gerber Fmt 4.6, Leading zero omitted, Abs format (unit mm)*
G04 Created by KiCad (PCBNEW (5.1.8)-1) date 2021-11-19 10:16:48*
%MOMM*%
%LPD*%
G01*
G04 APERTURE LIST*
%TA.AperFunction,ComponentPad*%
%ADD10O,4.200000X3.200000*%
%TD*%
%TA.AperFunction,ComponentPad*%
%ADD11R,1.500000X2.000000*%
%TD*%
%TA.AperFunction,ComponentPad*%
%ADD12O,1.500000X2.000000*%
%TD*%
%TA.AperFunction,ComponentPad*%
%ADD13O,0.900000X2.000000*%
%TD*%
%TA.AperFunction,ComponentPad*%
%ADD14O,4.000000X6.500000*%
%TD*%
%TA.AperFunction,ComponentPad*%
%ADD15O,6.500000X4.000000*%
%TD*%
%TA.AperFunction,ViaPad*%
%ADD16C,1.500000*%
%TD*%
%TA.AperFunction,ViaPad*%
%ADD17C,0.800000*%
%TD*%
%TA.AperFunction,ViaPad*%
%ADD18C,1.000000*%
%TD*%
%TA.AperFunction,Conductor*%
%ADD19C,1.000000*%
%TD*%
%TA.AperFunction,Conductor*%
%ADD20C,0.254000*%
%TD*%
%TA.AperFunction,Conductor*%
%ADD21C,0.100000*%
%TD*%
G04 APERTURE END LIST*
D10*
%TO.P,SW1,3*%
%TO.N,GND2*%
X155408000Y-114579500D03*
%TO.P,SW1,2*%
%TO.N,Net-(BT3-Pad2)*%
X155408000Y-119279500D03*
%TO.P,SW1,1*%
%TO.N,GND*%
X155408000Y-123979500D03*
%TD*%
D11*
%TO.P,U4,1*%
%TO.N,+5V*%
X163230000Y-123914000D03*
D12*
%TO.P,U4,3*%
%TO.N,VCC*%
X160290000Y-123914000D03*
D13*
%TO.P,U4,2*%
%TO.N,GND*%
X161760000Y-123914000D03*
%TD*%
D14*
%TO.P,C7,6*%
%TO.N,/LED_MATRIX_2*%
X137122000Y-104668000D03*
%TO.P,C7,5*%
%TO.N,VCC*%
X137122000Y-96668000D03*
%TO.P,C7,2*%
%TO.N,/LED_MATRIX_4*%
X137122000Y-80168000D03*
%TO.P,C7,1*%
%TO.N,VCC*%
X137122000Y-88168000D03*
D15*
%TO.P,C7,8*%
%TO.N,/LED_MATRIX_1*%
X124872000Y-92418000D03*
%TO.P,C7,7*%
%TO.N,VCC*%
X132872000Y-92418000D03*
%TO.P,C7,4*%
%TO.N,/LED_MATRIX_3*%
X149372000Y-92418000D03*
%TO.P,C7,3*%
%TO.N,VCC*%
X141372000Y-92418000D03*
%TD*%
D16*
%TO.N,GND*%
X145504000Y-106388000D03*
X146393000Y-85687000D03*
D17*
X171691400Y-119926200D03*
X173825000Y-96355000D03*
D16*
X144361000Y-98387000D03*
X140932000Y-77686000D03*
D18*
%TO.N,VCC*%
X142710000Y-118326000D03*
X143980000Y-118326000D03*
X145250000Y-118326000D03*
X141440000Y-118326000D03*
%TD*%
D19*
%TO.N,VCC*%
X141372000Y-92418000D02*
X132677000Y-92418000D01*
X141254000Y-96668000D02*
X141440000Y-96482000D01*
X137122000Y-96668000D02*
X141254000Y-96668000D01*
X141440000Y-96482000D02*
X141440000Y-92418000D01*
X141440000Y-114125101D02*
X141440000Y-96482000D01*
X141440000Y-114125101D02*
X141440000Y-118326000D01*
X141440000Y-118326000D02*
X142710000Y-118326000D01*
X142710000Y-118326000D02*
X143980000Y-118326000D01*
X143980000Y-118326000D02*
X145250000Y-118326000D01*
%TD*%
D20*
%TO.N,GND*%
X176086000Y-128588000D02*
X112382000Y-128588000D01*
X112382000Y-124455872D01*
X114059000Y-124455872D01*
X114059000Y-124896128D01*
X114144890Y-125327925D01*
X114313369Y-125734669D01*
X114557962Y-126100729D01*
X114869271Y-126412038D01*
X115235331Y-126656631D01*
X115642075Y-126825110D01*
X116073872Y-126911000D01*
X116514128Y-126911000D01*
X116945925Y-126825110D01*
X117352669Y-126656631D01*
X117718729Y-126412038D01*
X118030038Y-126100729D01*
X118274631Y-125734669D01*
X118443110Y-125327925D01*
X118529000Y-124896128D01*
X118529000Y-124455872D01*
X118528629Y-124454003D01*
X152723950Y-124454003D01*
X152794527Y-124717465D01*
X152979107Y-125115603D01*
X153237813Y-125470081D01*
X153560703Y-125767277D01*
X153935369Y-125995770D01*
X154347413Y-126146779D01*
X154781000Y-126214500D01*
X155281000Y-126214500D01*
X155281000Y-124106500D01*
X155535000Y-124106500D01*
X155535000Y-126214500D01*
X156035000Y-126214500D01*
X156468587Y-126146779D01*
X156880631Y-125995770D01*
X157255297Y-125767277D01*
X157578187Y-125470081D01*
X157836893Y-125115603D01*
X158021473Y-124717465D01*
X158092050Y-124454003D01*
X157980362Y-124106500D01*
X155535000Y-124106500D01*
X155281000Y-124106500D01*
X152835638Y-124106500D01*
X152723950Y-124454003D01*
X118528629Y-124454003D01*
X118443110Y-124024075D01*
X118274631Y-123617331D01*
X118199572Y-123504997D01*
X152723950Y-123504997D01*
X152835638Y-123852500D01*
X155281000Y-123852500D01*
X155281000Y-121744500D01*
X155535000Y-121744500D01*
X155535000Y-123852500D01*
X157980362Y-123852500D01*
X158062813Y-123595963D01*
X158905000Y-123595963D01*
X158905000Y-124232036D01*
X158925040Y-124435506D01*
X159004236Y-124696580D01*
X159132843Y-124937187D01*
X159305919Y-125148080D01*
X159516812Y-125321157D01*
X159757419Y-125449764D01*
X160018493Y-125528960D01*
X160290000Y-125555701D01*
X160561506Y-125528960D01*
X160822580Y-125449764D01*
X161063187Y-125321157D01*
X161073749Y-125312489D01*
X161082592Y-125321014D01*
X161262803Y-125436702D01*
X161465999Y-125508408D01*
X161633000Y-125381502D01*
X161633000Y-124507899D01*
X161654960Y-124435507D01*
X161675000Y-124232037D01*
X161675000Y-123595964D01*
X161654960Y-123392494D01*
X161633000Y-123320102D01*
X161633000Y-122914000D01*
X161841928Y-122914000D01*
X161841928Y-124914000D01*
X161854188Y-125038482D01*
X161887000Y-125146649D01*
X161887000Y-125381502D01*
X162054001Y-125508408D01*
X162169046Y-125467810D01*
X162235820Y-125503502D01*
X162355518Y-125539812D01*
X162480000Y-125552072D01*
X163980000Y-125552072D01*
X164104482Y-125539812D01*
X164224180Y-125503502D01*
X164334494Y-125444537D01*
X164431185Y-125365185D01*
X164510537Y-125268494D01*
X164569502Y-125158180D01*
X164605812Y-125038482D01*
X164618072Y-124914000D01*
X164618072Y-124455872D01*
X169939000Y-124455872D01*
X169939000Y-124896128D01*
X170024890Y-125327925D01*
X170193369Y-125734669D01*
X170437962Y-126100729D01*
X170749271Y-126412038D01*
X171115331Y-126656631D01*
X171522075Y-126825110D01*
X171953872Y-126911000D01*
X172394128Y-126911000D01*
X172825925Y-126825110D01*
X173232669Y-126656631D01*
X173598729Y-126412038D01*
X173910038Y-126100729D01*
X174154631Y-125734669D01*
X174323110Y-125327925D01*
X174409000Y-124896128D01*
X174409000Y-124455872D01*
X174323110Y-124024075D01*
X174154631Y-123617331D01*
X173910038Y-123251271D01*
X173598729Y-122939962D01*
X173232669Y-122695369D01*
X172825925Y-122526890D01*
X172394128Y-122441000D01*
X171953872Y-122441000D01*
X171522075Y-122526890D01*
X171115331Y-122695369D01*
X170749271Y-122939962D01*
X170437962Y-123251271D01*
X170193369Y-123617331D01*
X170024890Y-124024075D01*
X169939000Y-124455872D01*
X164618072Y-124455872D01*
X164618072Y-122914000D01*
X164605812Y-122789518D01*
X164569502Y-122669820D01*
X164510537Y-122559506D01*
X164431185Y-122462815D01*
X164334494Y-122383463D01*
X164224180Y-122324498D01*
X164104482Y-122288188D01*
X163980000Y-122275928D01*
X162480000Y-122275928D01*
X162355518Y-122288188D01*
X162235820Y-122324498D01*
X162169046Y-122360190D01*
X162054001Y-122319592D01*
X161887000Y-122446498D01*
X161887000Y-122681351D01*
X161854188Y-122789518D01*
X161841928Y-122914000D01*
X161633000Y-122914000D01*
X161633000Y-122446498D01*
X161465999Y-122319592D01*
X161262803Y-122391298D01*
X161082592Y-122506986D01*
X161073749Y-122515510D01*
X161063188Y-122506843D01*
X160822581Y-122378236D01*
X160561507Y-122299040D01*
X160290000Y-122272299D01*
X160018494Y-122299040D01*
X159757420Y-122378236D01*
X159516813Y-122506843D01*
X159305920Y-122679919D01*
X159132843Y-122890812D01*
X159004236Y-123131419D01*
X158925040Y-123392493D01*
X158905000Y-123595963D01*
X158062813Y-123595963D01*
X158092050Y-123504997D01*
X158021473Y-123241535D01*
X157836893Y-122843397D01*
X157578187Y-122488919D01*
X157255297Y-122191723D01*
X156880631Y-121963230D01*
X156468587Y-121812221D01*
X156035000Y-121744500D01*
X155535000Y-121744500D01*
X155281000Y-121744500D01*
X154781000Y-121744500D01*
X154347413Y-121812221D01*
X153935369Y-121963230D01*
X153560703Y-122191723D01*
X153237813Y-122488919D01*
X152979107Y-122843397D01*
X152794527Y-123241535D01*
X152723950Y-123504997D01*
X118199572Y-123504997D01*
X118030038Y-123251271D01*
X117718729Y-122939962D01*
X117352669Y-122695369D01*
X116945925Y-122526890D01*
X116514128Y-122441000D01*
X116073872Y-122441000D01*
X115642075Y-122526890D01*
X115235331Y-122695369D01*
X114869271Y-122939962D01*
X114557962Y-123251271D01*
X114313369Y-123617331D01*
X114144890Y-124024075D01*
X114059000Y-124455872D01*
X112382000Y-124455872D01*
X112382000Y-103288559D01*
X134487000Y-103288559D01*
X134487000Y-106047442D01*
X134525127Y-106434550D01*
X134675799Y-106931250D01*
X134920478Y-107389011D01*
X135249760Y-107790241D01*
X135650990Y-108119523D01*
X136108751Y-108364201D01*
X136605451Y-108514873D01*
X137122000Y-108565749D01*
X137638550Y-108514873D01*
X138135250Y-108364201D01*
X138593011Y-108119523D01*
X138994241Y-107790241D01*
X139323523Y-107389011D01*
X139568201Y-106931250D01*
X139718873Y-106434550D01*
X139757000Y-106047442D01*
X139757000Y-103288558D01*
X139718873Y-102901450D01*
X139568201Y-102404750D01*
X139323523Y-101946989D01*
X138994241Y-101545759D01*
X138593010Y-101216477D01*
X138135249Y-100971799D01*
X137638549Y-100821127D01*
X137122000Y-100770251D01*
X136605450Y-100821127D01*
X136108750Y-100971799D01*
X135650989Y-101216477D01*
X135249759Y-101545759D01*
X134920477Y-101946990D01*
X134675799Y-102404751D01*
X134525127Y-102901451D01*
X134487000Y-103288559D01*
X112382000Y-103288559D01*
X112382000Y-92418000D01*
X120974251Y-92418000D01*
X121025127Y-92934550D01*
X121175799Y-93431250D01*
X121420477Y-93889011D01*
X121749759Y-94290241D01*
X122150989Y-94619523D01*
X122608750Y-94864201D01*
X123105450Y-95014873D01*
X123492558Y-95053000D01*
X126251442Y-95053000D01*
X126638550Y-95014873D01*
X127135250Y-94864201D01*
X127593011Y-94619523D01*
X127994241Y-94290241D01*
X128323523Y-93889011D01*
X128568201Y-93431250D01*
X128718873Y-92934550D01*
X128769749Y-92418000D01*
X128974251Y-92418000D01*
X129025127Y-92934550D01*
X129175799Y-93431250D01*
X129420477Y-93889011D01*
X129749759Y-94290241D01*
X130150989Y-94619523D01*
X130608750Y-94864201D01*
X131105450Y-95014873D01*
X131492558Y-95053000D01*
X134251442Y-95053000D01*
X134512735Y-95027265D01*
X134487000Y-95288559D01*
X134487000Y-98047442D01*
X134525127Y-98434550D01*
X134675799Y-98931250D01*
X134920478Y-99389011D01*
X135249760Y-99790241D01*
X135650990Y-100119523D01*
X136108751Y-100364201D01*
X136605451Y-100514873D01*
X137122000Y-100565749D01*
X137638550Y-100514873D01*
X138135250Y-100364201D01*
X138593011Y-100119523D01*
X138994241Y-99790241D01*
X139323523Y-99389011D01*
X139568201Y-98931250D01*
X139718873Y-98434550D01*
X139757000Y-98047442D01*
X139757000Y-97803000D01*
X140305001Y-97803000D01*
X140305000Y-114069349D01*
X140305000Y-114069350D01*
X140305001Y-118214207D01*
X140305000Y-118214212D01*
X140305000Y-118270248D01*
X140299509Y-118326000D01*
X140305000Y-118381752D01*
X140305000Y-118437788D01*
X140315932Y-118492747D01*
X140321423Y-118548499D01*
X140337685Y-118602106D01*
X140348617Y-118657067D01*
X140370063Y-118708842D01*
X140386324Y-118762447D01*
X140412731Y-118811851D01*
X140434176Y-118863624D01*
X140465307Y-118910214D01*
X140491716Y-118959623D01*
X140527259Y-119002932D01*
X140558388Y-119049520D01*
X140598009Y-119089141D01*
X140633551Y-119132449D01*
X140676859Y-119167991D01*
X140716480Y-119207612D01*
X140763068Y-119238741D01*
X140806377Y-119274284D01*
X140855786Y-119300693D01*
X140902376Y-119331824D01*
X140954149Y-119353269D01*
X141003553Y-119379676D01*
X141057158Y-119395937D01*
X141108933Y-119417383D01*
X141163894Y-119428315D01*
X141217501Y-119444577D01*
X141273253Y-119450068D01*
X141328212Y-119461000D01*
X141384249Y-119461000D01*
X141440000Y-119466491D01*
X141495752Y-119461000D01*
X145361788Y-119461000D01*
X145416747Y-119450068D01*
X145472499Y-119444577D01*
X145526106Y-119428315D01*
X145581067Y-119417383D01*
X145632842Y-119395937D01*
X145686447Y-119379676D01*
X145735851Y-119353269D01*
X145787624Y-119331824D01*
X145834214Y-119300693D01*
X145873864Y-119279500D01*
X152662186Y-119279500D01*
X152705339Y-119717637D01*
X152833138Y-120138936D01*
X153040674Y-120527207D01*
X153319970Y-120867530D01*
X153660293Y-121146826D01*
X154048564Y-121354362D01*
X154469863Y-121482161D01*
X154798204Y-121514500D01*
X156017796Y-121514500D01*
X156346137Y-121482161D01*
X156767436Y-121354362D01*
X157155707Y-121146826D01*
X157496030Y-120867530D01*
X157775326Y-120527207D01*
X157982862Y-120138936D01*
X158110661Y-119717637D01*
X158153814Y-119279500D01*
X158110661Y-118841363D01*
X157982862Y-118420064D01*
X157775326Y-118031793D01*
X157496030Y-117691470D01*
X157155707Y-117412174D01*
X156767436Y-117204638D01*
X156346137Y-117076839D01*
X156017796Y-117044500D01*
X154798204Y-117044500D01*
X154469863Y-117076839D01*
X154048564Y-117204638D01*
X153660293Y-117412174D01*
X153319970Y-117691470D01*
X153040674Y-118031793D01*
X152833138Y-118420064D01*
X152705339Y-118841363D01*
X152662186Y-119279500D01*
X145873864Y-119279500D01*
X145883623Y-119274284D01*
X145926932Y-119238741D01*
X145973520Y-119207612D01*
X146013141Y-119167991D01*
X146056449Y-119132449D01*
X146091991Y-119089141D01*
X146131612Y-119049520D01*
X146162741Y-119002932D01*
X146198284Y-118959623D01*
X146224693Y-118910214D01*
X146255824Y-118863624D01*
X146277269Y-118811851D01*
X146303676Y-118762447D01*
X146319937Y-118708842D01*
X146341383Y-118657067D01*
X146352315Y-118602106D01*
X146368577Y-118548499D01*
X146374068Y-118492747D01*
X146385000Y-118437788D01*
X146385000Y-118381752D01*
X146390491Y-118326000D01*
X146385000Y-118270248D01*
X146385000Y-118214212D01*
X146374068Y-118159253D01*
X146368577Y-118103501D01*
X146352315Y-118049894D01*
X146341383Y-117994933D01*
X146319937Y-117943158D01*
X146303676Y-117889553D01*
X146277269Y-117840149D01*
X146255824Y-117788376D01*
X146224693Y-117741786D01*
X146198284Y-117692377D01*
X146162741Y-117649068D01*
X146131612Y-117602480D01*
X146091991Y-117562859D01*
X146056449Y-117519551D01*
X146013141Y-117484009D01*
X145973520Y-117444388D01*
X145926932Y-117413259D01*
X145883623Y-117377716D01*
X145834214Y-117351307D01*
X145787624Y-117320176D01*
X145735851Y-117298731D01*
X145686447Y-117272324D01*
X145632842Y-117256063D01*
X145581067Y-117234617D01*
X145526106Y-117223685D01*
X145472499Y-117207423D01*
X145416747Y-117201932D01*
X145361788Y-117191000D01*
X142575000Y-117191000D01*
X142575000Y-114579500D01*
X152662186Y-114579500D01*
X152705339Y-115017637D01*
X152833138Y-115438936D01*
X153040674Y-115827207D01*
X153319970Y-116167530D01*
X153660293Y-116446826D01*
X154048564Y-116654362D01*
X154469863Y-116782161D01*
X154798204Y-116814500D01*
X156017796Y-116814500D01*
X156346137Y-116782161D01*
X156767436Y-116654362D01*
X157155707Y-116446826D01*
X157496030Y-116167530D01*
X157775326Y-115827207D01*
X157982862Y-115438936D01*
X158110661Y-115017637D01*
X158153814Y-114579500D01*
X158110661Y-114141363D01*
X157982862Y-113720064D01*
X157775326Y-113331793D01*
X157496030Y-112991470D01*
X157155707Y-112712174D01*
X156767436Y-112504638D01*
X156346137Y-112376839D01*
X156017796Y-112344500D01*
X154798204Y-112344500D01*
X154469863Y-112376839D01*
X154048564Y-112504638D01*
X153660293Y-112712174D01*
X153319970Y-112991470D01*
X153040674Y-113331793D01*
X152833138Y-113720064D01*
X152705339Y-114141363D01*
X152662186Y-114579500D01*
X142575000Y-114579500D01*
X142575000Y-96537751D01*
X142580491Y-96482000D01*
X142575000Y-96426248D01*
X142575000Y-95053000D01*
X142751442Y-95053000D01*
X143138550Y-95014873D01*
X143635250Y-94864201D01*
X144093011Y-94619523D01*
X144494241Y-94290241D01*
X144823523Y-93889011D01*
X145068201Y-93431250D01*
X145218873Y-92934550D01*
X145269749Y-92418000D01*
X145474251Y-92418000D01*
X145525127Y-92934550D01*
X145675799Y-93431250D01*
X145920477Y-93889011D01*
X146249759Y-94290241D01*
X146650989Y-94619523D01*
X147108750Y-94864201D01*
X147605450Y-95014873D01*
X147992558Y-95053000D01*
X150751442Y-95053000D01*
X151138550Y-95014873D01*
X151635250Y-94864201D01*
X152093011Y-94619523D01*
X152494241Y-94290241D01*
X152823523Y-93889011D01*
X153068201Y-93431250D01*
X153218873Y-92934550D01*
X153269749Y-92418000D01*
X153218873Y-91901450D01*
X153068201Y-91404750D01*
X152823523Y-90946989D01*
X152494241Y-90545759D01*
X152093011Y-90216477D01*
X151635250Y-89971799D01*
X151138550Y-89821127D01*
X150751442Y-89783000D01*
X147992558Y-89783000D01*
X147605450Y-89821127D01*
X147108750Y-89971799D01*
X146650989Y-90216477D01*
X146249759Y-90545759D01*
X145920477Y-90946989D01*
X145675799Y-91404750D01*
X145525127Y-91901450D01*
X145474251Y-92418000D01*
X145269749Y-92418000D01*
X145218873Y-91901450D01*
X145068201Y-91404750D01*
X144823523Y-90946989D01*
X144494241Y-90545759D01*
X144093011Y-90216477D01*
X143635250Y-89971799D01*
X143138550Y-89821127D01*
X142751442Y-89783000D01*
X139992558Y-89783000D01*
X139731265Y-89808735D01*
X139757000Y-89547442D01*
X139757000Y-86788558D01*
X139718873Y-86401450D01*
X139568201Y-85904750D01*
X139323523Y-85446989D01*
X138994241Y-85045759D01*
X138593010Y-84716477D01*
X138135249Y-84471799D01*
X137638549Y-84321127D01*
X137122000Y-84270251D01*
X136605450Y-84321127D01*
X136108750Y-84471799D01*
X135650989Y-84716477D01*
X135249759Y-85045759D01*
X134920477Y-85446990D01*
X134675799Y-85904751D01*
X134525127Y-86401451D01*
X134487000Y-86788559D01*
X134487000Y-89547442D01*
X134512735Y-89808735D01*
X134251442Y-89783000D01*
X131492558Y-89783000D01*
X131105450Y-89821127D01*
X130608750Y-89971799D01*
X130150989Y-90216477D01*
X129749759Y-90545759D01*
X129420477Y-90946989D01*
X129175799Y-91404750D01*
X129025127Y-91901450D01*
X128974251Y-92418000D01*
X128769749Y-92418000D01*
X128718873Y-91901450D01*
X128568201Y-91404750D01*
X128323523Y-90946989D01*
X127994241Y-90545759D01*
X127593011Y-90216477D01*
X127135250Y-89971799D01*
X126638550Y-89821127D01*
X126251442Y-89783000D01*
X123492558Y-89783000D01*
X123105450Y-89821127D01*
X122608750Y-89971799D01*
X122150989Y-90216477D01*
X121749759Y-90545759D01*
X121420477Y-90946989D01*
X121175799Y-91404750D01*
X121025127Y-91901450D01*
X120974251Y-92418000D01*
X112382000Y-92418000D01*
X112382000Y-78788559D01*
X134487000Y-78788559D01*
X134487000Y-81547442D01*
X134525127Y-81934550D01*
X134675799Y-82431250D01*
X134920478Y-82889011D01*
X135249760Y-83290241D01*
X135650990Y-83619523D01*
X136108751Y-83864201D01*
X136605451Y-84014873D01*
X137122000Y-84065749D01*
X137638550Y-84014873D01*
X138135250Y-83864201D01*
X138593011Y-83619523D01*
X138994241Y-83290241D01*
X139323523Y-82889011D01*
X139568201Y-82431250D01*
X139718873Y-81934550D01*
X139757000Y-81547442D01*
X139757000Y-78788558D01*
X139718873Y-78401450D01*
X139568201Y-77904750D01*
X139323523Y-77446989D01*
X138994241Y-77045759D01*
X138593010Y-76716477D01*
X138135249Y-76471799D01*
X137638549Y-76321127D01*
X137122000Y-76270251D01*
X136605450Y-76321127D01*
X136108750Y-76471799D01*
X135650989Y-76716477D01*
X135249759Y-77045759D01*
X134920477Y-77446990D01*
X134675799Y-77904751D01*
X134525127Y-78401451D01*
X134487000Y-78788559D01*
X112382000Y-78788559D01*
X112382000Y-71369872D01*
X114059000Y-71369872D01*
X114059000Y-71810128D01*
X114144890Y-72241925D01*
X114313369Y-72648669D01*
X114557962Y-73014729D01*
X114869271Y-73326038D01*
X115235331Y-73570631D01*
X115642075Y-73739110D01*
X116073872Y-73825000D01*
X116514128Y-73825000D01*
X116945925Y-73739110D01*
X117352669Y-73570631D01*
X117718729Y-73326038D01*
X118030038Y-73014729D01*
X118274631Y-72648669D01*
X118443110Y-72241925D01*
X118529000Y-71810128D01*
X118529000Y-71369872D01*
X169939000Y-71369872D01*
X169939000Y-71810128D01*
X170024890Y-72241925D01*
X170193369Y-72648669D01*
X170437962Y-73014729D01*
X170749271Y-73326038D01*
X171115331Y-73570631D01*
X171522075Y-73739110D01*
X171953872Y-73825000D01*
X172394128Y-73825000D01*
X172825925Y-73739110D01*
X173232669Y-73570631D01*
X173598729Y-73326038D01*
X173910038Y-73014729D01*
X174154631Y-72648669D01*
X174323110Y-72241925D01*
X174409000Y-71810128D01*
X174409000Y-71369872D01*
X174323110Y-70938075D01*
X174154631Y-70531331D01*
X173910038Y-70165271D01*
X173598729Y-69853962D01*
X173232669Y-69609369D01*
X172825925Y-69440890D01*
X172394128Y-69355000D01*
X171953872Y-69355000D01*
X171522075Y-69440890D01*
X171115331Y-69609369D01*
X170749271Y-69853962D01*
X170437962Y-70165271D01*
X170193369Y-70531331D01*
X170024890Y-70938075D01*
X169939000Y-71369872D01*
X118529000Y-71369872D01*
X118443110Y-70938075D01*
X118274631Y-70531331D01*
X118030038Y-70165271D01*
X117718729Y-69853962D01*
X117352669Y-69609369D01*
X116945925Y-69440890D01*
X116514128Y-69355000D01*
X116073872Y-69355000D01*
X115642075Y-69440890D01*
X115235331Y-69609369D01*
X114869271Y-69853962D01*
X114557962Y-70165271D01*
X114313369Y-70531331D01*
X114144890Y-70938075D01*
X114059000Y-71369872D01*
X112382000Y-71369872D01*
X112382000Y-67678000D01*
X176086001Y-67678000D01*
X176086000Y-128588000D01*
%TA.AperFunction,Conductor*%
D21*
G36*
X176086000Y-128588000D02*
G01*
X112382000Y-128588000D01*
X112382000Y-124455872D01*
X114059000Y-124455872D01*
X114059000Y-124896128D01*
X114144890Y-125327925D01*
X114313369Y-125734669D01*
X114557962Y-126100729D01*
X114869271Y-126412038D01*
X115235331Y-126656631D01*
X115642075Y-126825110D01*
X116073872Y-126911000D01*
X116514128Y-126911000D01*
X116945925Y-126825110D01*
X117352669Y-126656631D01*
X117718729Y-126412038D01*
X118030038Y-126100729D01*
X118274631Y-125734669D01*
X118443110Y-125327925D01*
X118529000Y-124896128D01*
X118529000Y-124455872D01*
X118528629Y-124454003D01*
X152723950Y-124454003D01*
X152794527Y-124717465D01*
X152979107Y-125115603D01*
X153237813Y-125470081D01*
X153560703Y-125767277D01*
X153935369Y-125995770D01*
X154347413Y-126146779D01*
X154781000Y-126214500D01*
X155281000Y-126214500D01*
X155281000Y-124106500D01*
X155535000Y-124106500D01*
X155535000Y-126214500D01*
X156035000Y-126214500D01*
X156468587Y-126146779D01*
X156880631Y-125995770D01*
X157255297Y-125767277D01*
X157578187Y-125470081D01*
X157836893Y-125115603D01*
X158021473Y-124717465D01*
X158092050Y-124454003D01*
X157980362Y-124106500D01*
X155535000Y-124106500D01*
X155281000Y-124106500D01*
X152835638Y-124106500D01*
X152723950Y-124454003D01*
X118528629Y-124454003D01*
X118443110Y-124024075D01*
X118274631Y-123617331D01*
X118199572Y-123504997D01*
X152723950Y-123504997D01*
X152835638Y-123852500D01*
X155281000Y-123852500D01*
X155281000Y-121744500D01*
X155535000Y-121744500D01*
X155535000Y-123852500D01*
X157980362Y-123852500D01*
X158062813Y-123595963D01*
X158905000Y-123595963D01*
X158905000Y-124232036D01*
X158925040Y-124435506D01*
X159004236Y-124696580D01*
X159132843Y-124937187D01*
X159305919Y-125148080D01*
X159516812Y-125321157D01*
X159757419Y-125449764D01*
X160018493Y-125528960D01*
X160290000Y-125555701D01*
X160561506Y-125528960D01*
X160822580Y-125449764D01*
X161063187Y-125321157D01*
X161073749Y-125312489D01*
X161082592Y-125321014D01*
X161262803Y-125436702D01*
X161465999Y-125508408D01*
X161633000Y-125381502D01*
X161633000Y-124507899D01*
X161654960Y-124435507D01*
X161675000Y-124232037D01*
X161675000Y-123595964D01*
X161654960Y-123392494D01*
X161633000Y-123320102D01*
X161633000Y-122914000D01*
X161841928Y-122914000D01*
X161841928Y-124914000D01*
X161854188Y-125038482D01*
X161887000Y-125146649D01*
X161887000Y-125381502D01*
X162054001Y-125508408D01*
X162169046Y-125467810D01*
X162235820Y-125503502D01*
X162355518Y-125539812D01*
X162480000Y-125552072D01*
X163980000Y-125552072D01*
X164104482Y-125539812D01*
X164224180Y-125503502D01*
X164334494Y-125444537D01*
X164431185Y-125365185D01*
X164510537Y-125268494D01*
X164569502Y-125158180D01*
X164605812Y-125038482D01*
X164618072Y-124914000D01*
X164618072Y-124455872D01*
X169939000Y-124455872D01*
X169939000Y-124896128D01*
X170024890Y-125327925D01*
X170193369Y-125734669D01*
X170437962Y-126100729D01*
X170749271Y-126412038D01*
X171115331Y-126656631D01*
X171522075Y-126825110D01*
X171953872Y-126911000D01*
X172394128Y-126911000D01*
X172825925Y-126825110D01*
X173232669Y-126656631D01*
X173598729Y-126412038D01*
X173910038Y-126100729D01*
X174154631Y-125734669D01*
X174323110Y-125327925D01*
X174409000Y-124896128D01*
X174409000Y-124455872D01*
X174323110Y-124024075D01*
X174154631Y-123617331D01*
X173910038Y-123251271D01*
X173598729Y-122939962D01*
X173232669Y-122695369D01*
X172825925Y-122526890D01*
X172394128Y-122441000D01*
X171953872Y-122441000D01*
X171522075Y-122526890D01*
X171115331Y-122695369D01*
X170749271Y-122939962D01*
X170437962Y-123251271D01*
X170193369Y-123617331D01*
X170024890Y-124024075D01*
X169939000Y-124455872D01*
X164618072Y-124455872D01*
X164618072Y-122914000D01*
X164605812Y-122789518D01*
X164569502Y-122669820D01*
X164510537Y-122559506D01*
X164431185Y-122462815D01*
X164334494Y-122383463D01*
X164224180Y-122324498D01*
X164104482Y-122288188D01*
X163980000Y-122275928D01*
X162480000Y-122275928D01*
X162355518Y-122288188D01*
X162235820Y-122324498D01*
X162169046Y-122360190D01*
X162054001Y-122319592D01*
X161887000Y-122446498D01*
X161887000Y-122681351D01*
X161854188Y-122789518D01*
X161841928Y-122914000D01*
X161633000Y-122914000D01*
X161633000Y-122446498D01*
X161465999Y-122319592D01*
X161262803Y-122391298D01*
X161082592Y-122506986D01*
X161073749Y-122515510D01*
X161063188Y-122506843D01*
X160822581Y-122378236D01*
X160561507Y-122299040D01*
X160290000Y-122272299D01*
X160018494Y-122299040D01*
X159757420Y-122378236D01*
X159516813Y-122506843D01*
X159305920Y-122679919D01*
X159132843Y-122890812D01*
X159004236Y-123131419D01*
X158925040Y-123392493D01*
X158905000Y-123595963D01*
X158062813Y-123595963D01*
X158092050Y-123504997D01*
X158021473Y-123241535D01*
X157836893Y-122843397D01*
X157578187Y-122488919D01*
X157255297Y-122191723D01*
X156880631Y-121963230D01*
X156468587Y-121812221D01*
X156035000Y-121744500D01*
X155535000Y-121744500D01*
X155281000Y-121744500D01*
X154781000Y-121744500D01*
X154347413Y-121812221D01*
X153935369Y-121963230D01*
X153560703Y-122191723D01*
X153237813Y-122488919D01*
X152979107Y-122843397D01*
X152794527Y-123241535D01*
X152723950Y-123504997D01*
X118199572Y-123504997D01*
X118030038Y-123251271D01*
X117718729Y-122939962D01*
X117352669Y-122695369D01*
X116945925Y-122526890D01*
X116514128Y-122441000D01*
X116073872Y-122441000D01*
X115642075Y-122526890D01*
X115235331Y-122695369D01*
X114869271Y-122939962D01*
X114557962Y-123251271D01*
X114313369Y-123617331D01*
X114144890Y-124024075D01*
X114059000Y-124455872D01*
X112382000Y-124455872D01*
X112382000Y-103288559D01*
X134487000Y-103288559D01*
X134487000Y-106047442D01*
X134525127Y-106434550D01*
X134675799Y-106931250D01*
X134920478Y-107389011D01*
X135249760Y-107790241D01*
X135650990Y-108119523D01*
X136108751Y-108364201D01*
X136605451Y-108514873D01*
X137122000Y-108565749D01*
X137638550Y-108514873D01*
X138135250Y-108364201D01*
X138593011Y-108119523D01*
X138994241Y-107790241D01*
X139323523Y-107389011D01*
X139568201Y-106931250D01*
X139718873Y-106434550D01*
X139757000Y-106047442D01*
X139757000Y-103288558D01*
X139718873Y-102901450D01*
X139568201Y-102404750D01*
X139323523Y-101946989D01*
X138994241Y-101545759D01*
X138593010Y-101216477D01*
X138135249Y-100971799D01*
X137638549Y-100821127D01*
X137122000Y-100770251D01*
X136605450Y-100821127D01*
X136108750Y-100971799D01*
X135650989Y-101216477D01*
X135249759Y-101545759D01*
X134920477Y-101946990D01*
X134675799Y-102404751D01*
X134525127Y-102901451D01*
X134487000Y-103288559D01*
X112382000Y-103288559D01*
X112382000Y-92418000D01*
X120974251Y-92418000D01*
X121025127Y-92934550D01*
X121175799Y-93431250D01*
X121420477Y-93889011D01*
X121749759Y-94290241D01*
X122150989Y-94619523D01*
X122608750Y-94864201D01*
X123105450Y-95014873D01*
X123492558Y-95053000D01*
X126251442Y-95053000D01*
X126638550Y-95014873D01*
X127135250Y-94864201D01*
X127593011Y-94619523D01*
X127994241Y-94290241D01*
X128323523Y-93889011D01*
X128568201Y-93431250D01*
X128718873Y-92934550D01*
X128769749Y-92418000D01*
X128974251Y-92418000D01*
X129025127Y-92934550D01*
X129175799Y-93431250D01*
X129420477Y-93889011D01*
X129749759Y-94290241D01*
X130150989Y-94619523D01*
X130608750Y-94864201D01*
X131105450Y-95014873D01*
X131492558Y-95053000D01*
X134251442Y-95053000D01*
X134512735Y-95027265D01*
X134487000Y-95288559D01*
X134487000Y-98047442D01*
X134525127Y-98434550D01*
X134675799Y-98931250D01*
X134920478Y-99389011D01*
X135249760Y-99790241D01*
X135650990Y-100119523D01*
X136108751Y-100364201D01*
X136605451Y-100514873D01*
X137122000Y-100565749D01*
X137638550Y-100514873D01*
X138135250Y-100364201D01*
X138593011Y-100119523D01*
X138994241Y-99790241D01*
X139323523Y-99389011D01*
X139568201Y-98931250D01*
X139718873Y-98434550D01*
X139757000Y-98047442D01*
X139757000Y-97803000D01*
X140305001Y-97803000D01*
X140305000Y-114069349D01*
X140305000Y-114069350D01*
X140305001Y-118214207D01*
X140305000Y-118214212D01*
X140305000Y-118270248D01*
X140299509Y-118326000D01*
X140305000Y-118381752D01*
X140305000Y-118437788D01*
X140315932Y-118492747D01*
X140321423Y-118548499D01*
X140337685Y-118602106D01*
X140348617Y-118657067D01*
X140370063Y-118708842D01*
X140386324Y-118762447D01*
X140412731Y-118811851D01*
X140434176Y-118863624D01*
X140465307Y-118910214D01*
X140491716Y-118959623D01*
X140527259Y-119002932D01*
X140558388Y-119049520D01*
X140598009Y-119089141D01*
X140633551Y-119132449D01*
X140676859Y-119167991D01*
X140716480Y-119207612D01*
X140763068Y-119238741D01*
X140806377Y-119274284D01*
X140855786Y-119300693D01*
X140902376Y-119331824D01*
X140954149Y-119353269D01*
X141003553Y-119379676D01*
X141057158Y-119395937D01*
X141108933Y-119417383D01*
X141163894Y-119428315D01*
X141217501Y-119444577D01*
X141273253Y-119450068D01*
X141328212Y-119461000D01*
X141384249Y-119461000D01*
X141440000Y-119466491D01*
X141495752Y-119461000D01*
X145361788Y-119461000D01*
X145416747Y-119450068D01*
X145472499Y-119444577D01*
X145526106Y-119428315D01*
X145581067Y-119417383D01*
X145632842Y-119395937D01*
X145686447Y-119379676D01*
X145735851Y-119353269D01*
X145787624Y-119331824D01*
X145834214Y-119300693D01*
X145873864Y-119279500D01*
X152662186Y-119279500D01*
X152705339Y-119717637D01*
X152833138Y-120138936D01*
X153040674Y-120527207D01*
X153319970Y-120867530D01*
X153660293Y-121146826D01*
X154048564Y-121354362D01*
X154469863Y-121482161D01*
X154798204Y-121514500D01*
X156017796Y-121514500D01*
X156346137Y-121482161D01*
X156767436Y-121354362D01*
X157155707Y-121146826D01*
X157496030Y-120867530D01*
X157775326Y-120527207D01*
X157982862Y-120138936D01*
X158110661Y-119717637D01*
X158153814Y-119279500D01*
X158110661Y-118841363D01*
X157982862Y-118420064D01*
X157775326Y-118031793D01*
X157496030Y-117691470D01*
X157155707Y-117412174D01*
X156767436Y-117204638D01*
X156346137Y-117076839D01*
X156017796Y-117044500D01*
X154798204Y-117044500D01*
X154469863Y-117076839D01*
X154048564Y-117204638D01*
X153660293Y-117412174D01*
X153319970Y-117691470D01*
X153040674Y-118031793D01*
X152833138Y-118420064D01*
X152705339Y-118841363D01*
X152662186Y-119279500D01*
X145873864Y-119279500D01*
X145883623Y-119274284D01*
X145926932Y-119238741D01*
X145973520Y-119207612D01*
X146013141Y-119167991D01*
X146056449Y-119132449D01*
X146091991Y-119089141D01*
X146131612Y-119049520D01*
X146162741Y-119002932D01*
X146198284Y-118959623D01*
X146224693Y-118910214D01*
X146255824Y-118863624D01*
X146277269Y-118811851D01*
X146303676Y-118762447D01*
X146319937Y-118708842D01*
X146341383Y-118657067D01*
X146352315Y-118602106D01*
X146368577Y-118548499D01*
X146374068Y-118492747D01*
X146385000Y-118437788D01*
X146385000Y-118381752D01*
X146390491Y-118326000D01*
X146385000Y-118270248D01*
X146385000Y-118214212D01*
X146374068Y-118159253D01*
X146368577Y-118103501D01*
X146352315Y-118049894D01*
X146341383Y-117994933D01*
X146319937Y-117943158D01*
X146303676Y-117889553D01*
X146277269Y-117840149D01*
X146255824Y-117788376D01*
X146224693Y-117741786D01*
X146198284Y-117692377D01*
X146162741Y-117649068D01*
X146131612Y-117602480D01*
X146091991Y-117562859D01*
X146056449Y-117519551D01*
X146013141Y-117484009D01*
X145973520Y-117444388D01*
X145926932Y-117413259D01*
X145883623Y-117377716D01*
X145834214Y-117351307D01*
X145787624Y-117320176D01*
X145735851Y-117298731D01*
X145686447Y-117272324D01*
X145632842Y-117256063D01*
X145581067Y-117234617D01*
X145526106Y-117223685D01*
X145472499Y-117207423D01*
X145416747Y-117201932D01*
X145361788Y-117191000D01*
X142575000Y-117191000D01*
X142575000Y-114579500D01*
X152662186Y-114579500D01*
X152705339Y-115017637D01*
X152833138Y-115438936D01*
X153040674Y-115827207D01*
X153319970Y-116167530D01*
X153660293Y-116446826D01*
X154048564Y-116654362D01*
X154469863Y-116782161D01*
X154798204Y-116814500D01*
X156017796Y-116814500D01*
X156346137Y-116782161D01*
X156767436Y-116654362D01*
X157155707Y-116446826D01*
X157496030Y-116167530D01*
X157775326Y-115827207D01*
X157982862Y-115438936D01*
X158110661Y-115017637D01*
X158153814Y-114579500D01*
X158110661Y-114141363D01*
X157982862Y-113720064D01*
X157775326Y-113331793D01*
X157496030Y-112991470D01*
X157155707Y-112712174D01*
X156767436Y-112504638D01*
X156346137Y-112376839D01*
X156017796Y-112344500D01*
X154798204Y-112344500D01*
X154469863Y-112376839D01*
X154048564Y-112504638D01*
X153660293Y-112712174D01*
X153319970Y-112991470D01*
X153040674Y-113331793D01*
X152833138Y-113720064D01*
X152705339Y-114141363D01*
X152662186Y-114579500D01*
X142575000Y-114579500D01*
X142575000Y-96537751D01*
X142580491Y-96482000D01*
X142575000Y-96426248D01*
X142575000Y-95053000D01*
X142751442Y-95053000D01*
X143138550Y-95014873D01*
X143635250Y-94864201D01*
X144093011Y-94619523D01*
X144494241Y-94290241D01*
X144823523Y-93889011D01*
X145068201Y-93431250D01*
X145218873Y-92934550D01*
X145269749Y-92418000D01*
X145474251Y-92418000D01*
X145525127Y-92934550D01*
X145675799Y-93431250D01*
X145920477Y-93889011D01*
X146249759Y-94290241D01*
X146650989Y-94619523D01*
X147108750Y-94864201D01*
X147605450Y-95014873D01*
X147992558Y-95053000D01*
X150751442Y-95053000D01*
X151138550Y-95014873D01*
X151635250Y-94864201D01*
X152093011Y-94619523D01*
X152494241Y-94290241D01*
X152823523Y-93889011D01*
X153068201Y-93431250D01*
X153218873Y-92934550D01*
X153269749Y-92418000D01*
X153218873Y-91901450D01*
X153068201Y-91404750D01*
X152823523Y-90946989D01*
X152494241Y-90545759D01*
X152093011Y-90216477D01*
X151635250Y-89971799D01*
X151138550Y-89821127D01*
X150751442Y-89783000D01*
X147992558Y-89783000D01*
X147605450Y-89821127D01*
X147108750Y-89971799D01*
X146650989Y-90216477D01*
X146249759Y-90545759D01*
X145920477Y-90946989D01*
X145675799Y-91404750D01*
X145525127Y-91901450D01*
X145474251Y-92418000D01*
X145269749Y-92418000D01*
X145218873Y-91901450D01*
X145068201Y-91404750D01*
X144823523Y-90946989D01*
X144494241Y-90545759D01*
X144093011Y-90216477D01*
X143635250Y-89971799D01*
X143138550Y-89821127D01*
X142751442Y-89783000D01*
X139992558Y-89783000D01*
X139731265Y-89808735D01*
X139757000Y-89547442D01*
X139757000Y-86788558D01*
X139718873Y-86401450D01*
X139568201Y-85904750D01*
X139323523Y-85446989D01*
X138994241Y-85045759D01*
X138593010Y-84716477D01*
X138135249Y-84471799D01*
X137638549Y-84321127D01*
X137122000Y-84270251D01*
X136605450Y-84321127D01*
X136108750Y-84471799D01*
X135650989Y-84716477D01*
X135249759Y-85045759D01*
X134920477Y-85446990D01*
X134675799Y-85904751D01*
X134525127Y-86401451D01*
X134487000Y-86788559D01*
X134487000Y-89547442D01*
X134512735Y-89808735D01*
X134251442Y-89783000D01*
X131492558Y-89783000D01*
X131105450Y-89821127D01*
X130608750Y-89971799D01*
X130150989Y-90216477D01*
X129749759Y-90545759D01*
X129420477Y-90946989D01*
X129175799Y-91404750D01*
X129025127Y-91901450D01*
X128974251Y-92418000D01*
X128769749Y-92418000D01*
X128718873Y-91901450D01*
X128568201Y-91404750D01*
X128323523Y-90946989D01*
X127994241Y-90545759D01*
X127593011Y-90216477D01*
X127135250Y-89971799D01*
X126638550Y-89821127D01*
X126251442Y-89783000D01*
X123492558Y-89783000D01*
X123105450Y-89821127D01*
X122608750Y-89971799D01*
X122150989Y-90216477D01*
X121749759Y-90545759D01*
X121420477Y-90946989D01*
X121175799Y-91404750D01*
X121025127Y-91901450D01*
X120974251Y-92418000D01*
X112382000Y-92418000D01*
X112382000Y-78788559D01*
X134487000Y-78788559D01*
X134487000Y-81547442D01*
X134525127Y-81934550D01*
X134675799Y-82431250D01*
X134920478Y-82889011D01*
X135249760Y-83290241D01*
X135650990Y-83619523D01*
X136108751Y-83864201D01*
X136605451Y-84014873D01*
X137122000Y-84065749D01*
X137638550Y-84014873D01*
X138135250Y-83864201D01*
X138593011Y-83619523D01*
X138994241Y-83290241D01*
X139323523Y-82889011D01*
X139568201Y-82431250D01*
X139718873Y-81934550D01*
X139757000Y-81547442D01*
X139757000Y-78788558D01*
X139718873Y-78401450D01*
X139568201Y-77904750D01*
X139323523Y-77446989D01*
X138994241Y-77045759D01*
X138593010Y-76716477D01*
X138135249Y-76471799D01*
X137638549Y-76321127D01*
X137122000Y-76270251D01*
X136605450Y-76321127D01*
X136108750Y-76471799D01*
X135650989Y-76716477D01*
X135249759Y-77045759D01*
X134920477Y-77446990D01*
X134675799Y-77904751D01*
X134525127Y-78401451D01*
X134487000Y-78788559D01*
X112382000Y-78788559D01*
X112382000Y-71369872D01*
X114059000Y-71369872D01*
X114059000Y-71810128D01*
X114144890Y-72241925D01*
X114313369Y-72648669D01*
X114557962Y-73014729D01*
X114869271Y-73326038D01*
X115235331Y-73570631D01*
X115642075Y-73739110D01*
X116073872Y-73825000D01*
X116514128Y-73825000D01*
X116945925Y-73739110D01*
X117352669Y-73570631D01*
X117718729Y-73326038D01*
X118030038Y-73014729D01*
X118274631Y-72648669D01*
X118443110Y-72241925D01*
X118529000Y-71810128D01*
X118529000Y-71369872D01*
X169939000Y-71369872D01*
X169939000Y-71810128D01*
X170024890Y-72241925D01*
X170193369Y-72648669D01*
X170437962Y-73014729D01*
X170749271Y-73326038D01*
X171115331Y-73570631D01*
X171522075Y-73739110D01*
X171953872Y-73825000D01*
X172394128Y-73825000D01*
X172825925Y-73739110D01*
X173232669Y-73570631D01*
X173598729Y-73326038D01*
X173910038Y-73014729D01*
X174154631Y-72648669D01*
X174323110Y-72241925D01*
X174409000Y-71810128D01*
X174409000Y-71369872D01*
X174323110Y-70938075D01*
X174154631Y-70531331D01*
X173910038Y-70165271D01*
X173598729Y-69853962D01*
X173232669Y-69609369D01*
X172825925Y-69440890D01*
X172394128Y-69355000D01*
X171953872Y-69355000D01*
X171522075Y-69440890D01*
X171115331Y-69609369D01*
X170749271Y-69853962D01*
X170437962Y-70165271D01*
X170193369Y-70531331D01*
X170024890Y-70938075D01*
X169939000Y-71369872D01*
X118529000Y-71369872D01*
X118443110Y-70938075D01*
X118274631Y-70531331D01*
X118030038Y-70165271D01*
X117718729Y-69853962D01*
X117352669Y-69609369D01*
X116945925Y-69440890D01*
X116514128Y-69355000D01*
X116073872Y-69355000D01*
X115642075Y-69440890D01*
X115235331Y-69609369D01*
X114869271Y-69853962D01*
X114557962Y-70165271D01*
X114313369Y-70531331D01*
X114144890Y-70938075D01*
X114059000Y-71369872D01*
X112382000Y-71369872D01*
X112382000Y-67678000D01*
X176086001Y-67678000D01*
X176086000Y-128588000D01*
G37*
%TD.AperFunction*%
%TD*%
M02*
