%TF.GenerationSoftware,KiCad,Pcbnew,(5.1.8)-1*%
%TF.CreationDate,2021-11-03T02:00:03+01:00*%
%TF.ProjectId,Base,42617365-2e6b-4696-9361-645f70636258,rev?*%
%TF.SameCoordinates,Original*%
%TF.FileFunction,Legend,Bot*%
%TF.FilePolarity,Positive*%
%FSLAX46Y46*%
G04 Gerber Fmt 4.6, Leading zero omitted, Abs format (unit mm)*
G04 Created by KiCad (PCBNEW (5.1.8)-1) date 2021-11-03 02:00:03*
%MOMM*%
%LPD*%
G01*
G04 APERTURE LIST*
%ADD10C,0.150000*%
%ADD11C,0.120000*%
%ADD12C,1.000000*%
G04 APERTURE END LIST*
D10*
X150931428Y-68994380D02*
X150931428Y-67994380D01*
X150693333Y-67994380D01*
X150550476Y-68042000D01*
X150455238Y-68137238D01*
X150407619Y-68232476D01*
X150360000Y-68422952D01*
X150360000Y-68565809D01*
X150407619Y-68756285D01*
X150455238Y-68851523D01*
X150550476Y-68946761D01*
X150693333Y-68994380D01*
X150931428Y-68994380D01*
X149550476Y-68946761D02*
X149645714Y-68994380D01*
X149836190Y-68994380D01*
X149931428Y-68946761D01*
X149979047Y-68851523D01*
X149979047Y-68470571D01*
X149931428Y-68375333D01*
X149836190Y-68327714D01*
X149645714Y-68327714D01*
X149550476Y-68375333D01*
X149502857Y-68470571D01*
X149502857Y-68565809D01*
X149979047Y-68661047D01*
X149121904Y-68946761D02*
X149026666Y-68994380D01*
X148836190Y-68994380D01*
X148740952Y-68946761D01*
X148693333Y-68851523D01*
X148693333Y-68803904D01*
X148740952Y-68708666D01*
X148836190Y-68661047D01*
X148979047Y-68661047D01*
X149074285Y-68613428D01*
X149121904Y-68518190D01*
X149121904Y-68470571D01*
X149074285Y-68375333D01*
X148979047Y-68327714D01*
X148836190Y-68327714D01*
X148740952Y-68375333D01*
X148264761Y-68994380D02*
X148264761Y-68327714D01*
X148264761Y-67994380D02*
X148312380Y-68042000D01*
X148264761Y-68089619D01*
X148217142Y-68042000D01*
X148264761Y-67994380D01*
X148264761Y-68089619D01*
X147360000Y-68327714D02*
X147360000Y-69137238D01*
X147407619Y-69232476D01*
X147455238Y-69280095D01*
X147550476Y-69327714D01*
X147693333Y-69327714D01*
X147788571Y-69280095D01*
X147360000Y-68946761D02*
X147455238Y-68994380D01*
X147645714Y-68994380D01*
X147740952Y-68946761D01*
X147788571Y-68899142D01*
X147836190Y-68803904D01*
X147836190Y-68518190D01*
X147788571Y-68422952D01*
X147740952Y-68375333D01*
X147645714Y-68327714D01*
X147455238Y-68327714D01*
X147360000Y-68375333D01*
X146883809Y-68327714D02*
X146883809Y-68994380D01*
X146883809Y-68422952D02*
X146836190Y-68375333D01*
X146740952Y-68327714D01*
X146598095Y-68327714D01*
X146502857Y-68375333D01*
X146455238Y-68470571D01*
X146455238Y-68994380D01*
X145598095Y-68946761D02*
X145693333Y-68994380D01*
X145883809Y-68994380D01*
X145979047Y-68946761D01*
X146026666Y-68851523D01*
X146026666Y-68470571D01*
X145979047Y-68375333D01*
X145883809Y-68327714D01*
X145693333Y-68327714D01*
X145598095Y-68375333D01*
X145550476Y-68470571D01*
X145550476Y-68565809D01*
X146026666Y-68661047D01*
X144693333Y-68994380D02*
X144693333Y-67994380D01*
X144693333Y-68946761D02*
X144788571Y-68994380D01*
X144979047Y-68994380D01*
X145074285Y-68946761D01*
X145121904Y-68899142D01*
X145169523Y-68803904D01*
X145169523Y-68518190D01*
X145121904Y-68422952D01*
X145074285Y-68375333D01*
X144979047Y-68327714D01*
X144788571Y-68327714D01*
X144693333Y-68375333D01*
X143455238Y-68994380D02*
X143455238Y-67994380D01*
X143455238Y-68375333D02*
X143360000Y-68327714D01*
X143169523Y-68327714D01*
X143074285Y-68375333D01*
X143026666Y-68422952D01*
X142979047Y-68518190D01*
X142979047Y-68803904D01*
X143026666Y-68899142D01*
X143074285Y-68946761D01*
X143169523Y-68994380D01*
X143360000Y-68994380D01*
X143455238Y-68946761D01*
X142645714Y-68327714D02*
X142407619Y-68994380D01*
X142169523Y-68327714D02*
X142407619Y-68994380D01*
X142502857Y-69232476D01*
X142550476Y-69280095D01*
X142645714Y-69327714D01*
X141169523Y-67994380D02*
X140598095Y-67994380D01*
X140883809Y-68994380D02*
X140883809Y-67994380D01*
X140121904Y-68994380D02*
X140217142Y-68946761D01*
X140264761Y-68899142D01*
X140312380Y-68803904D01*
X140312380Y-68518190D01*
X140264761Y-68422952D01*
X140217142Y-68375333D01*
X140121904Y-68327714D01*
X139979047Y-68327714D01*
X139883809Y-68375333D01*
X139836190Y-68422952D01*
X139788571Y-68518190D01*
X139788571Y-68803904D01*
X139836190Y-68899142D01*
X139883809Y-68946761D01*
X139979047Y-68994380D01*
X140121904Y-68994380D01*
X139360000Y-68994380D02*
X139360000Y-67994380D01*
X139360000Y-68375333D02*
X139264761Y-68327714D01*
X139074285Y-68327714D01*
X138979047Y-68375333D01*
X138931428Y-68422952D01*
X138883809Y-68518190D01*
X138883809Y-68803904D01*
X138931428Y-68899142D01*
X138979047Y-68946761D01*
X139074285Y-68994380D01*
X139264761Y-68994380D01*
X139360000Y-68946761D01*
X138455238Y-68994380D02*
X138455238Y-68327714D01*
X138455238Y-67994380D02*
X138502857Y-68042000D01*
X138455238Y-68089619D01*
X138407619Y-68042000D01*
X138455238Y-67994380D01*
X138455238Y-68089619D01*
X136788571Y-68994380D02*
X136788571Y-68470571D01*
X136836190Y-68375333D01*
X136931428Y-68327714D01*
X137121904Y-68327714D01*
X137217142Y-68375333D01*
X136788571Y-68946761D02*
X136883809Y-68994380D01*
X137121904Y-68994380D01*
X137217142Y-68946761D01*
X137264761Y-68851523D01*
X137264761Y-68756285D01*
X137217142Y-68661047D01*
X137121904Y-68613428D01*
X136883809Y-68613428D01*
X136788571Y-68565809D01*
X136312380Y-68327714D02*
X136312380Y-68994380D01*
X136312380Y-68422952D02*
X136264761Y-68375333D01*
X136169523Y-68327714D01*
X136026666Y-68327714D01*
X135931428Y-68375333D01*
X135883809Y-68470571D01*
X135883809Y-68994380D01*
X134979047Y-68994380D02*
X134979047Y-67994380D01*
X134979047Y-68946761D02*
X135074285Y-68994380D01*
X135264761Y-68994380D01*
X135360000Y-68946761D01*
X135407619Y-68899142D01*
X135455238Y-68803904D01*
X135455238Y-68518190D01*
X135407619Y-68422952D01*
X135360000Y-68375333D01*
X135264761Y-68327714D01*
X135074285Y-68327714D01*
X134979047Y-68375333D01*
X133740952Y-68994380D02*
X133740952Y-67994380D01*
X133169523Y-68994380D02*
X133598095Y-68422952D01*
X133169523Y-67994380D02*
X133740952Y-68565809D01*
X132312380Y-68994380D02*
X132312380Y-68470571D01*
X132360000Y-68375333D01*
X132455238Y-68327714D01*
X132645714Y-68327714D01*
X132740952Y-68375333D01*
X132312380Y-68946761D02*
X132407619Y-68994380D01*
X132645714Y-68994380D01*
X132740952Y-68946761D01*
X132788571Y-68851523D01*
X132788571Y-68756285D01*
X132740952Y-68661047D01*
X132645714Y-68613428D01*
X132407619Y-68613428D01*
X132312380Y-68565809D01*
X131836190Y-68994380D02*
X131836190Y-68327714D01*
X131836190Y-67994380D02*
X131883809Y-68042000D01*
X131836190Y-68089619D01*
X131788571Y-68042000D01*
X131836190Y-67994380D01*
X131836190Y-68089619D01*
X130598095Y-68994380D02*
X130598095Y-68327714D01*
X130598095Y-67994380D02*
X130645714Y-68042000D01*
X130598095Y-68089619D01*
X130550476Y-68042000D01*
X130598095Y-67994380D01*
X130598095Y-68089619D01*
X130121904Y-68327714D02*
X130121904Y-68994380D01*
X130121904Y-68422952D02*
X130074285Y-68375333D01*
X129979047Y-68327714D01*
X129836190Y-68327714D01*
X129740952Y-68375333D01*
X129693333Y-68470571D01*
X129693333Y-68994380D01*
X128455238Y-68994380D02*
X128455238Y-67994380D01*
X127883809Y-68994380D02*
X128312380Y-68422952D01*
X127883809Y-67994380D02*
X128455238Y-68565809D01*
X127026666Y-68994380D02*
X127026666Y-68470571D01*
X127074285Y-68375333D01*
X127169523Y-68327714D01*
X127360000Y-68327714D01*
X127455238Y-68375333D01*
X127026666Y-68946761D02*
X127121904Y-68994380D01*
X127360000Y-68994380D01*
X127455238Y-68946761D01*
X127502857Y-68851523D01*
X127502857Y-68756285D01*
X127455238Y-68661047D01*
X127360000Y-68613428D01*
X127121904Y-68613428D01*
X127026666Y-68565809D01*
X126550476Y-68994380D02*
X126550476Y-68327714D01*
X126550476Y-68518190D02*
X126502857Y-68422952D01*
X126455238Y-68375333D01*
X126360000Y-68327714D01*
X126264761Y-68327714D01*
X125788571Y-68994380D02*
X125883809Y-68946761D01*
X125931428Y-68851523D01*
X125931428Y-67994380D01*
X125455238Y-68946761D02*
X125360000Y-68994380D01*
X125169523Y-68994380D01*
X125074285Y-68946761D01*
X125026666Y-68851523D01*
X125026666Y-68803904D01*
X125074285Y-68708666D01*
X125169523Y-68661047D01*
X125312380Y-68661047D01*
X125407619Y-68613428D01*
X125455238Y-68518190D01*
X125455238Y-68470571D01*
X125407619Y-68375333D01*
X125312380Y-68327714D01*
X125169523Y-68327714D01*
X125074285Y-68375333D01*
X124598095Y-68994380D02*
X124598095Y-68327714D01*
X124598095Y-68518190D02*
X124550476Y-68422952D01*
X124502857Y-68375333D01*
X124407619Y-68327714D01*
X124312380Y-68327714D01*
X123550476Y-68327714D02*
X123550476Y-68994380D01*
X123979047Y-68327714D02*
X123979047Y-68851523D01*
X123931428Y-68946761D01*
X123836190Y-68994380D01*
X123693333Y-68994380D01*
X123598095Y-68946761D01*
X123550476Y-68899142D01*
X123074285Y-68994380D02*
X123074285Y-67994380D01*
X122645714Y-68994380D02*
X122645714Y-68470571D01*
X122693333Y-68375333D01*
X122788571Y-68327714D01*
X122931428Y-68327714D01*
X123026666Y-68375333D01*
X123074285Y-68422952D01*
X121788571Y-68946761D02*
X121883809Y-68994380D01*
X122074285Y-68994380D01*
X122169523Y-68946761D01*
X122217142Y-68851523D01*
X122217142Y-68470571D01*
X122169523Y-68375333D01*
X122074285Y-68327714D01*
X121883809Y-68327714D01*
X121788571Y-68375333D01*
X121740952Y-68470571D01*
X121740952Y-68565809D01*
X122217142Y-68661047D01*
D11*
%TO.C,BT3*%
X151420000Y-70320000D02*
X151420000Y-124720000D01*
X121120000Y-70320000D02*
X121120000Y-124720000D01*
X151420000Y-124720000D02*
X121120000Y-124720000D01*
X151420000Y-70320000D02*
X121120000Y-70320000D01*
%TO.C,R6*%
X166311000Y-104035336D02*
X166311000Y-105489464D01*
X168131000Y-104035336D02*
X168131000Y-105489464D01*
%TO.C,R5*%
X166544136Y-100567000D02*
X167998264Y-100567000D01*
X166544136Y-98747000D02*
X167998264Y-98747000D01*
%TO.C,R8*%
X161479000Y-85279064D02*
X161479000Y-84824936D01*
X160009000Y-85279064D02*
X160009000Y-84824936D01*
%TO.C,R7*%
X158431064Y-80253000D02*
X157976936Y-80253000D01*
X158431064Y-81723000D02*
X157976936Y-81723000D01*
%TO.C,R4*%
X172058264Y-83821600D02*
X171604136Y-83821600D01*
X172058264Y-85291600D02*
X171604136Y-85291600D01*
%TO.C,R3*%
X172032264Y-86361600D02*
X171578136Y-86361600D01*
X172032264Y-87831600D02*
X171578136Y-87831600D01*
%TO.C,R2*%
X163983936Y-120191400D02*
X164438064Y-120191400D01*
X163983936Y-118721400D02*
X164438064Y-118721400D01*
%TO.C,R1*%
X163983936Y-117651400D02*
X164438064Y-117651400D01*
X163983936Y-116181400D02*
X164438064Y-116181400D01*
%TO.C,C10*%
X164815252Y-126735000D02*
X164292748Y-126735000D01*
X164815252Y-128205000D02*
X164292748Y-128205000D01*
%TO.C,C9*%
X158704748Y-128205000D02*
X159227252Y-128205000D01*
X158704748Y-126735000D02*
X159227252Y-126735000D01*
%TO.C,C8*%
X163819000Y-73106748D02*
X163819000Y-73629252D01*
X165289000Y-73106748D02*
X165289000Y-73629252D01*
%TO.C,C6*%
X162914000Y-111335652D02*
X162914000Y-110813148D01*
X161444000Y-111335652D02*
X161444000Y-110813148D01*
%TO.C,C5*%
X173128200Y-92169348D02*
X173128200Y-92691852D01*
X174598200Y-92169348D02*
X174598200Y-92691852D01*
%TO.C,C4*%
X165996452Y-83821600D02*
X165473948Y-83821600D01*
X165996452Y-85291600D02*
X165473948Y-85291600D01*
%TO.C,C3*%
X170363348Y-118832400D02*
X170885852Y-118832400D01*
X170363348Y-117362400D02*
X170885852Y-117362400D01*
%TO.C,C2*%
X164682600Y-90683548D02*
X164682600Y-91206052D01*
X166152600Y-90683548D02*
X166152600Y-91206052D01*
%TO.C,C1*%
X171334200Y-113075452D02*
X171334200Y-112552948D01*
X169864200Y-113075452D02*
X169864200Y-112552948D01*
%TO.C,U4*%
X163560000Y-125764000D02*
X159960000Y-125764000D01*
X159921522Y-125752478D02*
G75*
G02*
X161760000Y-121314000I1838478J1838478D01*
G01*
X163598478Y-125752478D02*
G75*
G03*
X161760000Y-121314000I-1838478J1838478D01*
G01*
%TO.C,D4*%
X115152000Y-107068000D02*
X118452000Y-107068000D01*
X118452000Y-107068000D02*
X118452000Y-113968000D01*
X115152000Y-107068000D02*
X115152000Y-113968000D01*
%TO.C,D3*%
X115152000Y-97416000D02*
X118452000Y-97416000D01*
X118452000Y-97416000D02*
X118452000Y-104316000D01*
X115152000Y-97416000D02*
X115152000Y-104316000D01*
%TO.C,D2*%
X115152000Y-87764000D02*
X118452000Y-87764000D01*
X118452000Y-87764000D02*
X118452000Y-94664000D01*
X115152000Y-87764000D02*
X115152000Y-94664000D01*
%TO.C,D1*%
X115152000Y-78112000D02*
X118452000Y-78112000D01*
X118452000Y-78112000D02*
X118452000Y-85012000D01*
X115152000Y-78112000D02*
X115152000Y-85012000D01*
%TO.C,Q1*%
X155884000Y-103458000D02*
X154574000Y-103458000D01*
X154574000Y-103458000D02*
X154574000Y-106178000D01*
X159064000Y-107318000D02*
X159064000Y-106178000D01*
X159294000Y-103458000D02*
X157984000Y-103458000D01*
X159294000Y-106178000D02*
X159294000Y-103458000D01*
X159294000Y-106178000D02*
X159064000Y-106178000D01*
X154574000Y-106178000D02*
X154804000Y-106178000D01*
%TO.C,U3*%
X162828000Y-77482000D02*
X162828000Y-79297000D01*
X163068000Y-77482000D02*
X162828000Y-77482000D01*
X163068000Y-73622000D02*
X163068000Y-77482000D01*
X163068000Y-69762000D02*
X162828000Y-69762000D01*
X163068000Y-73622000D02*
X163068000Y-69762000D01*
X153848000Y-77482000D02*
X154088000Y-77482000D01*
X153848000Y-73622000D02*
X153848000Y-77482000D01*
X153848000Y-69762000D02*
X154088000Y-69762000D01*
X153848000Y-73622000D02*
X153848000Y-69762000D01*
%TO.C,U2*%
X166985200Y-92176600D02*
X166985200Y-90226600D01*
X166985200Y-92176600D02*
X166985200Y-94126600D01*
X172105200Y-92176600D02*
X172105200Y-90226600D01*
X172105200Y-92176600D02*
X172105200Y-95626600D01*
%TO.C,U1*%
X169057000Y-111582400D02*
X169057000Y-113532400D01*
X169057000Y-111582400D02*
X169057000Y-109632400D01*
X163937000Y-111582400D02*
X163937000Y-113532400D01*
X163937000Y-111582400D02*
X163937000Y-108132400D01*
%TO.C,Q4*%
X155884000Y-84408000D02*
X154574000Y-84408000D01*
X154574000Y-84408000D02*
X154574000Y-87128000D01*
X159064000Y-88268000D02*
X159064000Y-87128000D01*
X159294000Y-84408000D02*
X157984000Y-84408000D01*
X159294000Y-87128000D02*
X159294000Y-84408000D01*
X159294000Y-87128000D02*
X159064000Y-87128000D01*
X154574000Y-87128000D02*
X154804000Y-87128000D01*
%TO.C,Q3*%
X155884000Y-90758000D02*
X154574000Y-90758000D01*
X154574000Y-90758000D02*
X154574000Y-93478000D01*
X159064000Y-94618000D02*
X159064000Y-93478000D01*
X159294000Y-90758000D02*
X157984000Y-90758000D01*
X159294000Y-93478000D02*
X159294000Y-90758000D01*
X159294000Y-93478000D02*
X159064000Y-93478000D01*
X154574000Y-93478000D02*
X154804000Y-93478000D01*
%TO.C,Q2*%
X155884000Y-97108000D02*
X154574000Y-97108000D01*
X154574000Y-97108000D02*
X154574000Y-99828000D01*
X159064000Y-100968000D02*
X159064000Y-99828000D01*
X159294000Y-97108000D02*
X157984000Y-97108000D01*
X159294000Y-99828000D02*
X159294000Y-97108000D01*
X159294000Y-99828000D02*
X159064000Y-99828000D01*
X154574000Y-99828000D02*
X154804000Y-99828000D01*
%TO.C,BT3*%
D10*
X121548571Y-69534285D02*
X121596190Y-69677142D01*
X121643809Y-69724761D01*
X121739047Y-69772380D01*
X121881904Y-69772380D01*
X121977142Y-69724761D01*
X122024761Y-69677142D01*
X122072380Y-69581904D01*
X122072380Y-69200952D01*
X121072380Y-69200952D01*
X121072380Y-69534285D01*
X121120000Y-69629523D01*
X121167619Y-69677142D01*
X121262857Y-69724761D01*
X121358095Y-69724761D01*
X121453333Y-69677142D01*
X121500952Y-69629523D01*
X121548571Y-69534285D01*
X121548571Y-69200952D01*
X121072380Y-70058095D02*
X121072380Y-70629523D01*
X122072380Y-70343809D02*
X121072380Y-70343809D01*
X121072380Y-70867619D02*
X121072380Y-71486666D01*
X121453333Y-71153333D01*
X121453333Y-71296190D01*
X121500952Y-71391428D01*
X121548571Y-71439047D01*
X121643809Y-71486666D01*
X121881904Y-71486666D01*
X121977142Y-71439047D01*
X122024761Y-71391428D01*
X122072380Y-71296190D01*
X122072380Y-71010476D01*
X122024761Y-70915238D01*
X121977142Y-70867619D01*
D12*
X129052142Y-112815238D02*
X129052142Y-116624761D01*
D10*
X123022380Y-96386666D02*
X122546190Y-96053333D01*
X123022380Y-95815238D02*
X122022380Y-95815238D01*
X122022380Y-96196190D01*
X122070000Y-96291428D01*
X122117619Y-96339047D01*
X122212857Y-96386666D01*
X122355714Y-96386666D01*
X122450952Y-96339047D01*
X122498571Y-96291428D01*
X122546190Y-96196190D01*
X122546190Y-95815238D01*
X122498571Y-96815238D02*
X122498571Y-97148571D01*
X123022380Y-97291428D02*
X123022380Y-96815238D01*
X122022380Y-96815238D01*
X122022380Y-97291428D01*
X122498571Y-98053333D02*
X122498571Y-97720000D01*
X123022380Y-97720000D02*
X122022380Y-97720000D01*
X122022380Y-98196190D01*
X122022380Y-98720000D02*
X122260476Y-98720000D01*
X122165238Y-98481904D02*
X122260476Y-98720000D01*
X122165238Y-98958095D01*
X122450952Y-98577142D02*
X122260476Y-98720000D01*
X122450952Y-98862857D01*
X122022380Y-99481904D02*
X122260476Y-99481904D01*
X122165238Y-99243809D02*
X122260476Y-99481904D01*
X122165238Y-99720000D01*
X122450952Y-99339047D02*
X122260476Y-99481904D01*
X122450952Y-99624761D01*
D12*
X144202142Y-112815238D02*
X144202142Y-116624761D01*
X146106904Y-114720000D02*
X142297380Y-114720000D01*
%TO.C,R6*%
D10*
X165853380Y-104595733D02*
X165377190Y-104262400D01*
X165853380Y-104024304D02*
X164853380Y-104024304D01*
X164853380Y-104405257D01*
X164901000Y-104500495D01*
X164948619Y-104548114D01*
X165043857Y-104595733D01*
X165186714Y-104595733D01*
X165281952Y-104548114D01*
X165329571Y-104500495D01*
X165377190Y-104405257D01*
X165377190Y-104024304D01*
X164853380Y-105452876D02*
X164853380Y-105262400D01*
X164901000Y-105167161D01*
X164948619Y-105119542D01*
X165091476Y-105024304D01*
X165281952Y-104976685D01*
X165662904Y-104976685D01*
X165758142Y-105024304D01*
X165805761Y-105071923D01*
X165853380Y-105167161D01*
X165853380Y-105357638D01*
X165805761Y-105452876D01*
X165758142Y-105500495D01*
X165662904Y-105548114D01*
X165424809Y-105548114D01*
X165329571Y-105500495D01*
X165281952Y-105452876D01*
X165234333Y-105357638D01*
X165234333Y-105167161D01*
X165281952Y-105071923D01*
X165329571Y-105024304D01*
X165424809Y-104976685D01*
%TO.C,R5*%
X167437866Y-101929380D02*
X167771200Y-101453190D01*
X168009295Y-101929380D02*
X168009295Y-100929380D01*
X167628342Y-100929380D01*
X167533104Y-100977000D01*
X167485485Y-101024619D01*
X167437866Y-101119857D01*
X167437866Y-101262714D01*
X167485485Y-101357952D01*
X167533104Y-101405571D01*
X167628342Y-101453190D01*
X168009295Y-101453190D01*
X166533104Y-100929380D02*
X167009295Y-100929380D01*
X167056914Y-101405571D01*
X167009295Y-101357952D01*
X166914057Y-101310333D01*
X166675961Y-101310333D01*
X166580723Y-101357952D01*
X166533104Y-101405571D01*
X166485485Y-101500809D01*
X166485485Y-101738904D01*
X166533104Y-101834142D01*
X166580723Y-101881761D01*
X166675961Y-101929380D01*
X166914057Y-101929380D01*
X167009295Y-101881761D01*
X167056914Y-101834142D01*
%TO.C,R8*%
X162846380Y-84885333D02*
X162370190Y-84552000D01*
X162846380Y-84313904D02*
X161846380Y-84313904D01*
X161846380Y-84694857D01*
X161894000Y-84790095D01*
X161941619Y-84837714D01*
X162036857Y-84885333D01*
X162179714Y-84885333D01*
X162274952Y-84837714D01*
X162322571Y-84790095D01*
X162370190Y-84694857D01*
X162370190Y-84313904D01*
X162274952Y-85456761D02*
X162227333Y-85361523D01*
X162179714Y-85313904D01*
X162084476Y-85266285D01*
X162036857Y-85266285D01*
X161941619Y-85313904D01*
X161894000Y-85361523D01*
X161846380Y-85456761D01*
X161846380Y-85647238D01*
X161894000Y-85742476D01*
X161941619Y-85790095D01*
X162036857Y-85837714D01*
X162084476Y-85837714D01*
X162179714Y-85790095D01*
X162227333Y-85742476D01*
X162274952Y-85647238D01*
X162274952Y-85456761D01*
X162322571Y-85361523D01*
X162370190Y-85313904D01*
X162465428Y-85266285D01*
X162655904Y-85266285D01*
X162751142Y-85313904D01*
X162798761Y-85361523D01*
X162846380Y-85456761D01*
X162846380Y-85647238D01*
X162798761Y-85742476D01*
X162751142Y-85790095D01*
X162655904Y-85837714D01*
X162465428Y-85837714D01*
X162370190Y-85790095D01*
X162322571Y-85742476D01*
X162274952Y-85647238D01*
%TO.C,R7*%
X158370666Y-79790380D02*
X158704000Y-79314190D01*
X158942095Y-79790380D02*
X158942095Y-78790380D01*
X158561142Y-78790380D01*
X158465904Y-78838000D01*
X158418285Y-78885619D01*
X158370666Y-78980857D01*
X158370666Y-79123714D01*
X158418285Y-79218952D01*
X158465904Y-79266571D01*
X158561142Y-79314190D01*
X158942095Y-79314190D01*
X158037333Y-78790380D02*
X157370666Y-78790380D01*
X157799238Y-79790380D01*
%TO.C,R4*%
X171997866Y-83358980D02*
X172331200Y-82882790D01*
X172569295Y-83358980D02*
X172569295Y-82358980D01*
X172188342Y-82358980D01*
X172093104Y-82406600D01*
X172045485Y-82454219D01*
X171997866Y-82549457D01*
X171997866Y-82692314D01*
X172045485Y-82787552D01*
X172093104Y-82835171D01*
X172188342Y-82882790D01*
X172569295Y-82882790D01*
X171140723Y-82692314D02*
X171140723Y-83358980D01*
X171378819Y-82311361D02*
X171616914Y-83025647D01*
X170997866Y-83025647D01*
%TO.C,R3*%
X171971866Y-85898980D02*
X172305200Y-85422790D01*
X172543295Y-85898980D02*
X172543295Y-84898980D01*
X172162342Y-84898980D01*
X172067104Y-84946600D01*
X172019485Y-84994219D01*
X171971866Y-85089457D01*
X171971866Y-85232314D01*
X172019485Y-85327552D01*
X172067104Y-85375171D01*
X172162342Y-85422790D01*
X172543295Y-85422790D01*
X171638533Y-84898980D02*
X171019485Y-84898980D01*
X171352819Y-85279933D01*
X171209961Y-85279933D01*
X171114723Y-85327552D01*
X171067104Y-85375171D01*
X171019485Y-85470409D01*
X171019485Y-85708504D01*
X171067104Y-85803742D01*
X171114723Y-85851361D01*
X171209961Y-85898980D01*
X171495676Y-85898980D01*
X171590914Y-85851361D01*
X171638533Y-85803742D01*
%TO.C,R2*%
X164377666Y-121558780D02*
X164711000Y-121082590D01*
X164949095Y-121558780D02*
X164949095Y-120558780D01*
X164568142Y-120558780D01*
X164472904Y-120606400D01*
X164425285Y-120654019D01*
X164377666Y-120749257D01*
X164377666Y-120892114D01*
X164425285Y-120987352D01*
X164472904Y-121034971D01*
X164568142Y-121082590D01*
X164949095Y-121082590D01*
X163996714Y-120654019D02*
X163949095Y-120606400D01*
X163853857Y-120558780D01*
X163615761Y-120558780D01*
X163520523Y-120606400D01*
X163472904Y-120654019D01*
X163425285Y-120749257D01*
X163425285Y-120844495D01*
X163472904Y-120987352D01*
X164044333Y-121558780D01*
X163425285Y-121558780D01*
%TO.C,R1*%
X164377666Y-119018780D02*
X164711000Y-118542590D01*
X164949095Y-119018780D02*
X164949095Y-118018780D01*
X164568142Y-118018780D01*
X164472904Y-118066400D01*
X164425285Y-118114019D01*
X164377666Y-118209257D01*
X164377666Y-118352114D01*
X164425285Y-118447352D01*
X164472904Y-118494971D01*
X164568142Y-118542590D01*
X164949095Y-118542590D01*
X163425285Y-119018780D02*
X163996714Y-119018780D01*
X163711000Y-119018780D02*
X163711000Y-118018780D01*
X163806238Y-118161638D01*
X163901476Y-118256876D01*
X163996714Y-118304495D01*
%TO.C,C10*%
X165196857Y-126147142D02*
X165244476Y-126194761D01*
X165387333Y-126242380D01*
X165482571Y-126242380D01*
X165625428Y-126194761D01*
X165720666Y-126099523D01*
X165768285Y-126004285D01*
X165815904Y-125813809D01*
X165815904Y-125670952D01*
X165768285Y-125480476D01*
X165720666Y-125385238D01*
X165625428Y-125290000D01*
X165482571Y-125242380D01*
X165387333Y-125242380D01*
X165244476Y-125290000D01*
X165196857Y-125337619D01*
X164244476Y-126242380D02*
X164815904Y-126242380D01*
X164530190Y-126242380D02*
X164530190Y-125242380D01*
X164625428Y-125385238D01*
X164720666Y-125480476D01*
X164815904Y-125528095D01*
X163625428Y-125242380D02*
X163530190Y-125242380D01*
X163434952Y-125290000D01*
X163387333Y-125337619D01*
X163339714Y-125432857D01*
X163292095Y-125623333D01*
X163292095Y-125861428D01*
X163339714Y-126051904D01*
X163387333Y-126147142D01*
X163434952Y-126194761D01*
X163530190Y-126242380D01*
X163625428Y-126242380D01*
X163720666Y-126194761D01*
X163768285Y-126147142D01*
X163815904Y-126051904D01*
X163863523Y-125861428D01*
X163863523Y-125623333D01*
X163815904Y-125432857D01*
X163768285Y-125337619D01*
X163720666Y-125290000D01*
X163625428Y-125242380D01*
%TO.C,C9*%
X159132666Y-129507142D02*
X159180285Y-129554761D01*
X159323142Y-129602380D01*
X159418380Y-129602380D01*
X159561238Y-129554761D01*
X159656476Y-129459523D01*
X159704095Y-129364285D01*
X159751714Y-129173809D01*
X159751714Y-129030952D01*
X159704095Y-128840476D01*
X159656476Y-128745238D01*
X159561238Y-128650000D01*
X159418380Y-128602380D01*
X159323142Y-128602380D01*
X159180285Y-128650000D01*
X159132666Y-128697619D01*
X158656476Y-129602380D02*
X158466000Y-129602380D01*
X158370761Y-129554761D01*
X158323142Y-129507142D01*
X158227904Y-129364285D01*
X158180285Y-129173809D01*
X158180285Y-128792857D01*
X158227904Y-128697619D01*
X158275523Y-128650000D01*
X158370761Y-128602380D01*
X158561238Y-128602380D01*
X158656476Y-128650000D01*
X158704095Y-128697619D01*
X158751714Y-128792857D01*
X158751714Y-129030952D01*
X158704095Y-129126190D01*
X158656476Y-129173809D01*
X158561238Y-129221428D01*
X158370761Y-129221428D01*
X158275523Y-129173809D01*
X158227904Y-129126190D01*
X158180285Y-129030952D01*
%TO.C,C8*%
X163231142Y-73201333D02*
X163278761Y-73153714D01*
X163326380Y-73010857D01*
X163326380Y-72915619D01*
X163278761Y-72772761D01*
X163183523Y-72677523D01*
X163088285Y-72629904D01*
X162897809Y-72582285D01*
X162754952Y-72582285D01*
X162564476Y-72629904D01*
X162469238Y-72677523D01*
X162374000Y-72772761D01*
X162326380Y-72915619D01*
X162326380Y-73010857D01*
X162374000Y-73153714D01*
X162421619Y-73201333D01*
X162754952Y-73772761D02*
X162707333Y-73677523D01*
X162659714Y-73629904D01*
X162564476Y-73582285D01*
X162516857Y-73582285D01*
X162421619Y-73629904D01*
X162374000Y-73677523D01*
X162326380Y-73772761D01*
X162326380Y-73963238D01*
X162374000Y-74058476D01*
X162421619Y-74106095D01*
X162516857Y-74153714D01*
X162564476Y-74153714D01*
X162659714Y-74106095D01*
X162707333Y-74058476D01*
X162754952Y-73963238D01*
X162754952Y-73772761D01*
X162802571Y-73677523D01*
X162850190Y-73629904D01*
X162945428Y-73582285D01*
X163135904Y-73582285D01*
X163231142Y-73629904D01*
X163278761Y-73677523D01*
X163326380Y-73772761D01*
X163326380Y-73963238D01*
X163278761Y-74058476D01*
X163231142Y-74106095D01*
X163135904Y-74153714D01*
X162945428Y-74153714D01*
X162850190Y-74106095D01*
X162802571Y-74058476D01*
X162754952Y-73963238D01*
%TO.C,C6*%
X164216142Y-110907733D02*
X164263761Y-110860114D01*
X164311380Y-110717257D01*
X164311380Y-110622019D01*
X164263761Y-110479161D01*
X164168523Y-110383923D01*
X164073285Y-110336304D01*
X163882809Y-110288685D01*
X163739952Y-110288685D01*
X163549476Y-110336304D01*
X163454238Y-110383923D01*
X163359000Y-110479161D01*
X163311380Y-110622019D01*
X163311380Y-110717257D01*
X163359000Y-110860114D01*
X163406619Y-110907733D01*
X163311380Y-111764876D02*
X163311380Y-111574400D01*
X163359000Y-111479161D01*
X163406619Y-111431542D01*
X163549476Y-111336304D01*
X163739952Y-111288685D01*
X164120904Y-111288685D01*
X164216142Y-111336304D01*
X164263761Y-111383923D01*
X164311380Y-111479161D01*
X164311380Y-111669638D01*
X164263761Y-111764876D01*
X164216142Y-111812495D01*
X164120904Y-111860114D01*
X163882809Y-111860114D01*
X163787571Y-111812495D01*
X163739952Y-111764876D01*
X163692333Y-111669638D01*
X163692333Y-111479161D01*
X163739952Y-111383923D01*
X163787571Y-111336304D01*
X163882809Y-111288685D01*
%TO.C,C5*%
X172540342Y-92263933D02*
X172587961Y-92216314D01*
X172635580Y-92073457D01*
X172635580Y-91978219D01*
X172587961Y-91835361D01*
X172492723Y-91740123D01*
X172397485Y-91692504D01*
X172207009Y-91644885D01*
X172064152Y-91644885D01*
X171873676Y-91692504D01*
X171778438Y-91740123D01*
X171683200Y-91835361D01*
X171635580Y-91978219D01*
X171635580Y-92073457D01*
X171683200Y-92216314D01*
X171730819Y-92263933D01*
X171635580Y-93168695D02*
X171635580Y-92692504D01*
X172111771Y-92644885D01*
X172064152Y-92692504D01*
X172016533Y-92787742D01*
X172016533Y-93025838D01*
X172064152Y-93121076D01*
X172111771Y-93168695D01*
X172207009Y-93216314D01*
X172445104Y-93216314D01*
X172540342Y-93168695D01*
X172587961Y-93121076D01*
X172635580Y-93025838D01*
X172635580Y-92787742D01*
X172587961Y-92692504D01*
X172540342Y-92644885D01*
%TO.C,C4*%
X165901866Y-83233742D02*
X165949485Y-83281361D01*
X166092342Y-83328980D01*
X166187580Y-83328980D01*
X166330438Y-83281361D01*
X166425676Y-83186123D01*
X166473295Y-83090885D01*
X166520914Y-82900409D01*
X166520914Y-82757552D01*
X166473295Y-82567076D01*
X166425676Y-82471838D01*
X166330438Y-82376600D01*
X166187580Y-82328980D01*
X166092342Y-82328980D01*
X165949485Y-82376600D01*
X165901866Y-82424219D01*
X165044723Y-82662314D02*
X165044723Y-83328980D01*
X165282819Y-82281361D02*
X165520914Y-82995647D01*
X164901866Y-82995647D01*
%TO.C,C3*%
X170791266Y-120134542D02*
X170838885Y-120182161D01*
X170981742Y-120229780D01*
X171076980Y-120229780D01*
X171219838Y-120182161D01*
X171315076Y-120086923D01*
X171362695Y-119991685D01*
X171410314Y-119801209D01*
X171410314Y-119658352D01*
X171362695Y-119467876D01*
X171315076Y-119372638D01*
X171219838Y-119277400D01*
X171076980Y-119229780D01*
X170981742Y-119229780D01*
X170838885Y-119277400D01*
X170791266Y-119325019D01*
X170457933Y-119229780D02*
X169838885Y-119229780D01*
X170172219Y-119610733D01*
X170029361Y-119610733D01*
X169934123Y-119658352D01*
X169886504Y-119705971D01*
X169838885Y-119801209D01*
X169838885Y-120039304D01*
X169886504Y-120134542D01*
X169934123Y-120182161D01*
X170029361Y-120229780D01*
X170315076Y-120229780D01*
X170410314Y-120182161D01*
X170457933Y-120134542D01*
%TO.C,C2*%
X164094742Y-90778133D02*
X164142361Y-90730514D01*
X164189980Y-90587657D01*
X164189980Y-90492419D01*
X164142361Y-90349561D01*
X164047123Y-90254323D01*
X163951885Y-90206704D01*
X163761409Y-90159085D01*
X163618552Y-90159085D01*
X163428076Y-90206704D01*
X163332838Y-90254323D01*
X163237600Y-90349561D01*
X163189980Y-90492419D01*
X163189980Y-90587657D01*
X163237600Y-90730514D01*
X163285219Y-90778133D01*
X163285219Y-91159085D02*
X163237600Y-91206704D01*
X163189980Y-91301942D01*
X163189980Y-91540038D01*
X163237600Y-91635276D01*
X163285219Y-91682895D01*
X163380457Y-91730514D01*
X163475695Y-91730514D01*
X163618552Y-91682895D01*
X164189980Y-91111466D01*
X164189980Y-91730514D01*
%TO.C,C1*%
X172636342Y-112647533D02*
X172683961Y-112599914D01*
X172731580Y-112457057D01*
X172731580Y-112361819D01*
X172683961Y-112218961D01*
X172588723Y-112123723D01*
X172493485Y-112076104D01*
X172303009Y-112028485D01*
X172160152Y-112028485D01*
X171969676Y-112076104D01*
X171874438Y-112123723D01*
X171779200Y-112218961D01*
X171731580Y-112361819D01*
X171731580Y-112457057D01*
X171779200Y-112599914D01*
X171826819Y-112647533D01*
X172731580Y-113599914D02*
X172731580Y-113028485D01*
X172731580Y-113314200D02*
X171731580Y-113314200D01*
X171874438Y-113218961D01*
X171969676Y-113123723D01*
X172017295Y-113028485D01*
%TO.C,U4*%
X162521904Y-119806380D02*
X162521904Y-120615904D01*
X162474285Y-120711142D01*
X162426666Y-120758761D01*
X162331428Y-120806380D01*
X162140952Y-120806380D01*
X162045714Y-120758761D01*
X161998095Y-120711142D01*
X161950476Y-120615904D01*
X161950476Y-119806380D01*
X161045714Y-120139714D02*
X161045714Y-120806380D01*
X161283809Y-119758761D02*
X161521904Y-120473047D01*
X160902857Y-120473047D01*
%TO.C,D4*%
X114754380Y-110729904D02*
X113754380Y-110729904D01*
X113754380Y-110968000D01*
X113802000Y-111110857D01*
X113897238Y-111206095D01*
X113992476Y-111253714D01*
X114182952Y-111301333D01*
X114325809Y-111301333D01*
X114516285Y-111253714D01*
X114611523Y-111206095D01*
X114706761Y-111110857D01*
X114754380Y-110968000D01*
X114754380Y-110729904D01*
X114087714Y-112158476D02*
X114754380Y-112158476D01*
X113706761Y-111920380D02*
X114421047Y-111682285D01*
X114421047Y-112301333D01*
%TO.C,D3*%
X114754380Y-101077904D02*
X113754380Y-101077904D01*
X113754380Y-101316000D01*
X113802000Y-101458857D01*
X113897238Y-101554095D01*
X113992476Y-101601714D01*
X114182952Y-101649333D01*
X114325809Y-101649333D01*
X114516285Y-101601714D01*
X114611523Y-101554095D01*
X114706761Y-101458857D01*
X114754380Y-101316000D01*
X114754380Y-101077904D01*
X113754380Y-101982666D02*
X113754380Y-102601714D01*
X114135333Y-102268380D01*
X114135333Y-102411238D01*
X114182952Y-102506476D01*
X114230571Y-102554095D01*
X114325809Y-102601714D01*
X114563904Y-102601714D01*
X114659142Y-102554095D01*
X114706761Y-102506476D01*
X114754380Y-102411238D01*
X114754380Y-102125523D01*
X114706761Y-102030285D01*
X114659142Y-101982666D01*
%TO.C,D2*%
X114754380Y-91425904D02*
X113754380Y-91425904D01*
X113754380Y-91664000D01*
X113802000Y-91806857D01*
X113897238Y-91902095D01*
X113992476Y-91949714D01*
X114182952Y-91997333D01*
X114325809Y-91997333D01*
X114516285Y-91949714D01*
X114611523Y-91902095D01*
X114706761Y-91806857D01*
X114754380Y-91664000D01*
X114754380Y-91425904D01*
X113849619Y-92378285D02*
X113802000Y-92425904D01*
X113754380Y-92521142D01*
X113754380Y-92759238D01*
X113802000Y-92854476D01*
X113849619Y-92902095D01*
X113944857Y-92949714D01*
X114040095Y-92949714D01*
X114182952Y-92902095D01*
X114754380Y-92330666D01*
X114754380Y-92949714D01*
%TO.C,D1*%
X114754380Y-81773904D02*
X113754380Y-81773904D01*
X113754380Y-82012000D01*
X113802000Y-82154857D01*
X113897238Y-82250095D01*
X113992476Y-82297714D01*
X114182952Y-82345333D01*
X114325809Y-82345333D01*
X114516285Y-82297714D01*
X114611523Y-82250095D01*
X114706761Y-82154857D01*
X114754380Y-82012000D01*
X114754380Y-81773904D01*
X114754380Y-83297714D02*
X114754380Y-82726285D01*
X114754380Y-83012000D02*
X113754380Y-83012000D01*
X113897238Y-82916761D01*
X113992476Y-82821523D01*
X114040095Y-82726285D01*
%TO.C,Q1*%
X160981619Y-104722761D02*
X160934000Y-104627523D01*
X160838761Y-104532285D01*
X160695904Y-104389428D01*
X160648285Y-104294190D01*
X160648285Y-104198952D01*
X160886380Y-104246571D02*
X160838761Y-104151333D01*
X160743523Y-104056095D01*
X160553047Y-104008476D01*
X160219714Y-104008476D01*
X160029238Y-104056095D01*
X159934000Y-104151333D01*
X159886380Y-104246571D01*
X159886380Y-104437047D01*
X159934000Y-104532285D01*
X160029238Y-104627523D01*
X160219714Y-104675142D01*
X160553047Y-104675142D01*
X160743523Y-104627523D01*
X160838761Y-104532285D01*
X160886380Y-104437047D01*
X160886380Y-104246571D01*
X160886380Y-105627523D02*
X160886380Y-105056095D01*
X160886380Y-105341809D02*
X159886380Y-105341809D01*
X160029238Y-105246571D01*
X160124476Y-105151333D01*
X160172095Y-105056095D01*
%TO.C,H4*%
X120865904Y-128684380D02*
X120865904Y-127684380D01*
X120865904Y-128160571D02*
X120294476Y-128160571D01*
X120294476Y-128684380D02*
X120294476Y-127684380D01*
X119389714Y-128017714D02*
X119389714Y-128684380D01*
X119627809Y-127636761D02*
X119865904Y-128351047D01*
X119246857Y-128351047D01*
%TO.C,H3*%
X115785904Y-68232380D02*
X115785904Y-67232380D01*
X115785904Y-67708571D02*
X115214476Y-67708571D01*
X115214476Y-68232380D02*
X115214476Y-67232380D01*
X114833523Y-67232380D02*
X114214476Y-67232380D01*
X114547809Y-67613333D01*
X114404952Y-67613333D01*
X114309714Y-67660952D01*
X114262095Y-67708571D01*
X114214476Y-67803809D01*
X114214476Y-68041904D01*
X114262095Y-68137142D01*
X114309714Y-68184761D01*
X114404952Y-68232380D01*
X114690666Y-68232380D01*
X114785904Y-68184761D01*
X114833523Y-68137142D01*
%TO.C,H2*%
X175729904Y-128684380D02*
X175729904Y-127684380D01*
X175729904Y-128160571D02*
X175158476Y-128160571D01*
X175158476Y-128684380D02*
X175158476Y-127684380D01*
X174729904Y-127779619D02*
X174682285Y-127732000D01*
X174587047Y-127684380D01*
X174348952Y-127684380D01*
X174253714Y-127732000D01*
X174206095Y-127779619D01*
X174158476Y-127874857D01*
X174158476Y-127970095D01*
X174206095Y-128112952D01*
X174777523Y-128684380D01*
X174158476Y-128684380D01*
%TO.C,H1*%
X174967904Y-76106380D02*
X174967904Y-75106380D01*
X174967904Y-75582571D02*
X174396476Y-75582571D01*
X174396476Y-76106380D02*
X174396476Y-75106380D01*
X173396476Y-76106380D02*
X173967904Y-76106380D01*
X173682190Y-76106380D02*
X173682190Y-75106380D01*
X173777428Y-75249238D01*
X173872666Y-75344476D01*
X173967904Y-75392095D01*
%TO.C,U3*%
X163360380Y-72860095D02*
X164169904Y-72860095D01*
X164265142Y-72907714D01*
X164312761Y-72955333D01*
X164360380Y-73050571D01*
X164360380Y-73241047D01*
X164312761Y-73336285D01*
X164265142Y-73383904D01*
X164169904Y-73431523D01*
X163360380Y-73431523D01*
X163360380Y-73812476D02*
X163360380Y-74431523D01*
X163741333Y-74098190D01*
X163741333Y-74241047D01*
X163788952Y-74336285D01*
X163836571Y-74383904D01*
X163931809Y-74431523D01*
X164169904Y-74431523D01*
X164265142Y-74383904D01*
X164312761Y-74336285D01*
X164360380Y-74241047D01*
X164360380Y-73955333D01*
X164312761Y-73860095D01*
X164265142Y-73812476D01*
%TO.C,U2*%
X170280180Y-91414795D02*
X171089704Y-91414795D01*
X171184942Y-91462414D01*
X171232561Y-91510033D01*
X171280180Y-91605271D01*
X171280180Y-91795747D01*
X171232561Y-91890985D01*
X171184942Y-91938604D01*
X171089704Y-91986223D01*
X170280180Y-91986223D01*
X170375419Y-92414795D02*
X170327800Y-92462414D01*
X170280180Y-92557652D01*
X170280180Y-92795747D01*
X170327800Y-92890985D01*
X170375419Y-92938604D01*
X170470657Y-92986223D01*
X170565895Y-92986223D01*
X170708752Y-92938604D01*
X171280180Y-92367176D01*
X171280180Y-92986223D01*
%TO.C,U1*%
X167308380Y-110883895D02*
X168117904Y-110883895D01*
X168213142Y-110931514D01*
X168260761Y-110979133D01*
X168308380Y-111074371D01*
X168308380Y-111264847D01*
X168260761Y-111360085D01*
X168213142Y-111407704D01*
X168117904Y-111455323D01*
X167308380Y-111455323D01*
X168308380Y-112455323D02*
X168308380Y-111883895D01*
X168308380Y-112169609D02*
X167308380Y-112169609D01*
X167451238Y-112074371D01*
X167546476Y-111979133D01*
X167594095Y-111883895D01*
%TO.C,Q4*%
X160981619Y-85672761D02*
X160934000Y-85577523D01*
X160838761Y-85482285D01*
X160695904Y-85339428D01*
X160648285Y-85244190D01*
X160648285Y-85148952D01*
X160886380Y-85196571D02*
X160838761Y-85101333D01*
X160743523Y-85006095D01*
X160553047Y-84958476D01*
X160219714Y-84958476D01*
X160029238Y-85006095D01*
X159934000Y-85101333D01*
X159886380Y-85196571D01*
X159886380Y-85387047D01*
X159934000Y-85482285D01*
X160029238Y-85577523D01*
X160219714Y-85625142D01*
X160553047Y-85625142D01*
X160743523Y-85577523D01*
X160838761Y-85482285D01*
X160886380Y-85387047D01*
X160886380Y-85196571D01*
X160219714Y-86482285D02*
X160886380Y-86482285D01*
X159838761Y-86244190D02*
X160553047Y-86006095D01*
X160553047Y-86625142D01*
%TO.C,Q3*%
X160981619Y-92022761D02*
X160934000Y-91927523D01*
X160838761Y-91832285D01*
X160695904Y-91689428D01*
X160648285Y-91594190D01*
X160648285Y-91498952D01*
X160886380Y-91546571D02*
X160838761Y-91451333D01*
X160743523Y-91356095D01*
X160553047Y-91308476D01*
X160219714Y-91308476D01*
X160029238Y-91356095D01*
X159934000Y-91451333D01*
X159886380Y-91546571D01*
X159886380Y-91737047D01*
X159934000Y-91832285D01*
X160029238Y-91927523D01*
X160219714Y-91975142D01*
X160553047Y-91975142D01*
X160743523Y-91927523D01*
X160838761Y-91832285D01*
X160886380Y-91737047D01*
X160886380Y-91546571D01*
X159886380Y-92308476D02*
X159886380Y-92927523D01*
X160267333Y-92594190D01*
X160267333Y-92737047D01*
X160314952Y-92832285D01*
X160362571Y-92879904D01*
X160457809Y-92927523D01*
X160695904Y-92927523D01*
X160791142Y-92879904D01*
X160838761Y-92832285D01*
X160886380Y-92737047D01*
X160886380Y-92451333D01*
X160838761Y-92356095D01*
X160791142Y-92308476D01*
%TO.C,Q2*%
X160981619Y-98372761D02*
X160934000Y-98277523D01*
X160838761Y-98182285D01*
X160695904Y-98039428D01*
X160648285Y-97944190D01*
X160648285Y-97848952D01*
X160886380Y-97896571D02*
X160838761Y-97801333D01*
X160743523Y-97706095D01*
X160553047Y-97658476D01*
X160219714Y-97658476D01*
X160029238Y-97706095D01*
X159934000Y-97801333D01*
X159886380Y-97896571D01*
X159886380Y-98087047D01*
X159934000Y-98182285D01*
X160029238Y-98277523D01*
X160219714Y-98325142D01*
X160553047Y-98325142D01*
X160743523Y-98277523D01*
X160838761Y-98182285D01*
X160886380Y-98087047D01*
X160886380Y-97896571D01*
X159981619Y-98706095D02*
X159934000Y-98753714D01*
X159886380Y-98848952D01*
X159886380Y-99087047D01*
X159934000Y-99182285D01*
X159981619Y-99229904D01*
X160076857Y-99277523D01*
X160172095Y-99277523D01*
X160314952Y-99229904D01*
X160886380Y-98658476D01*
X160886380Y-99277523D01*
%TD*%
M02*
