M48
; DRILL file {KiCad (5.1.8)-1} date 11/03/21 02:00:26
; FORMAT={-:-/ absolute / inch / decimal}
; #@! TF.CreationDate,2021-11-03T02:00:26+01:00
; #@! TF.GenerationSoftware,Kicad,Pcbnew,(5.1.8)-1
FMAT,2
INCH
T1C0.0157
T2C0.0197
T3C0.0295
T4C0.0315
T5C0.0787
T6C0.1260
%
G90
G05
T1
X6.7595Y-4.7215
T2
X5.0785Y-4.6485
X5.1285Y-4.6485
X5.1785Y-4.6485
X5.2285Y-4.6485
T3
X6.3185Y-4.8785
X6.3685Y-4.8785
X6.4185Y-4.8785
T4
X6.1184Y-4.5085
X6.1184Y-4.6935
X6.1184Y-4.8786
T6
X6.7785Y-2.8185
X6.7785Y-4.9085
X4.5785Y-2.8185
X4.5785Y-4.9085
T5
G00X4.867Y-3.6385
M15
G01X4.9654Y-3.6385
M16
G05
G00X5.182Y-3.6385
M15
G01X5.2804Y-3.6385
M16
G05
G00X5.3985Y-3.107
M15
G01X5.3985Y-3.2054
M16
G05
G00X5.3985Y-3.422
M15
G01X5.3985Y-3.5204
M16
G05
G00X5.3985Y-3.7566
M15
G01X5.3985Y-3.855
M16
G05
G00X5.3985Y-4.0716
M15
G01X5.3985Y-4.17
M16
G05
G00X5.5166Y-3.6385
M15
G01X5.615Y-3.6385
M16
G05
G00X5.8316Y-3.6385
M15
G01X5.93Y-3.6385
M16
G05
T0
M30
