%TF.GenerationSoftware,KiCad,Pcbnew,(5.1.10)-1*%
%TF.CreationDate,2021-10-19T12:48:05+02:00*%
%TF.ProjectId,Base,42617365-2e6b-4696-9361-645f70636258,rev?*%
%TF.SameCoordinates,Original*%
%TF.FileFunction,Legend,Bot*%
%TF.FilePolarity,Positive*%
%FSLAX46Y46*%
G04 Gerber Fmt 4.6, Leading zero omitted, Abs format (unit mm)*
G04 Created by KiCad (PCBNEW (5.1.10)-1) date 2021-10-19 12:48:05*
%MOMM*%
%LPD*%
G01*
G04 APERTURE LIST*
%ADD10C,0.150000*%
%ADD11C,0.120000*%
%ADD12C,1.000000*%
G04 APERTURE END LIST*
D10*
X113749180Y-98928571D02*
X112749180Y-98928571D01*
X112749180Y-99166666D01*
X112796800Y-99309523D01*
X112892038Y-99404761D01*
X112987276Y-99452380D01*
X113177752Y-99500000D01*
X113320609Y-99500000D01*
X113511085Y-99452380D01*
X113606323Y-99404761D01*
X113701561Y-99309523D01*
X113749180Y-99166666D01*
X113749180Y-98928571D01*
X113701561Y-100309523D02*
X113749180Y-100214285D01*
X113749180Y-100023809D01*
X113701561Y-99928571D01*
X113606323Y-99880952D01*
X113225371Y-99880952D01*
X113130133Y-99928571D01*
X113082514Y-100023809D01*
X113082514Y-100214285D01*
X113130133Y-100309523D01*
X113225371Y-100357142D01*
X113320609Y-100357142D01*
X113415847Y-99880952D01*
X113701561Y-100738095D02*
X113749180Y-100833333D01*
X113749180Y-101023809D01*
X113701561Y-101119047D01*
X113606323Y-101166666D01*
X113558704Y-101166666D01*
X113463466Y-101119047D01*
X113415847Y-101023809D01*
X113415847Y-100880952D01*
X113368228Y-100785714D01*
X113272990Y-100738095D01*
X113225371Y-100738095D01*
X113130133Y-100785714D01*
X113082514Y-100880952D01*
X113082514Y-101023809D01*
X113130133Y-101119047D01*
X113749180Y-101595238D02*
X113082514Y-101595238D01*
X112749180Y-101595238D02*
X112796800Y-101547619D01*
X112844419Y-101595238D01*
X112796800Y-101642857D01*
X112749180Y-101595238D01*
X112844419Y-101595238D01*
X113082514Y-102500000D02*
X113892038Y-102500000D01*
X113987276Y-102452380D01*
X114034895Y-102404761D01*
X114082514Y-102309523D01*
X114082514Y-102166666D01*
X114034895Y-102071428D01*
X113701561Y-102500000D02*
X113749180Y-102404761D01*
X113749180Y-102214285D01*
X113701561Y-102119047D01*
X113653942Y-102071428D01*
X113558704Y-102023809D01*
X113272990Y-102023809D01*
X113177752Y-102071428D01*
X113130133Y-102119047D01*
X113082514Y-102214285D01*
X113082514Y-102404761D01*
X113130133Y-102500000D01*
X113082514Y-102976190D02*
X113749180Y-102976190D01*
X113177752Y-102976190D02*
X113130133Y-103023809D01*
X113082514Y-103119047D01*
X113082514Y-103261904D01*
X113130133Y-103357142D01*
X113225371Y-103404761D01*
X113749180Y-103404761D01*
X113701561Y-104261904D02*
X113749180Y-104166666D01*
X113749180Y-103976190D01*
X113701561Y-103880952D01*
X113606323Y-103833333D01*
X113225371Y-103833333D01*
X113130133Y-103880952D01*
X113082514Y-103976190D01*
X113082514Y-104166666D01*
X113130133Y-104261904D01*
X113225371Y-104309523D01*
X113320609Y-104309523D01*
X113415847Y-103833333D01*
X113749180Y-105166666D02*
X112749180Y-105166666D01*
X113701561Y-105166666D02*
X113749180Y-105071428D01*
X113749180Y-104880952D01*
X113701561Y-104785714D01*
X113653942Y-104738095D01*
X113558704Y-104690476D01*
X113272990Y-104690476D01*
X113177752Y-104738095D01*
X113130133Y-104785714D01*
X113082514Y-104880952D01*
X113082514Y-105071428D01*
X113130133Y-105166666D01*
X113749180Y-106404761D02*
X112749180Y-106404761D01*
X113130133Y-106404761D02*
X113082514Y-106499999D01*
X113082514Y-106690476D01*
X113130133Y-106785714D01*
X113177752Y-106833333D01*
X113272990Y-106880952D01*
X113558704Y-106880952D01*
X113653942Y-106833333D01*
X113701561Y-106785714D01*
X113749180Y-106690476D01*
X113749180Y-106499999D01*
X113701561Y-106404761D01*
X113082514Y-107214285D02*
X113749180Y-107452380D01*
X113082514Y-107690476D02*
X113749180Y-107452380D01*
X113987276Y-107357142D01*
X114034895Y-107309523D01*
X114082514Y-107214285D01*
X113749180Y-108833333D02*
X112749180Y-108833333D01*
X113749180Y-109404761D02*
X113177752Y-108976190D01*
X112749180Y-109404761D02*
X113320609Y-108833333D01*
X113749180Y-110261904D02*
X113225371Y-110261904D01*
X113130133Y-110214285D01*
X113082514Y-110119047D01*
X113082514Y-109928571D01*
X113130133Y-109833333D01*
X113701561Y-110261904D02*
X113749180Y-110166666D01*
X113749180Y-109928571D01*
X113701561Y-109833333D01*
X113606323Y-109785714D01*
X113511085Y-109785714D01*
X113415847Y-109833333D01*
X113368228Y-109928571D01*
X113368228Y-110166666D01*
X113320609Y-110261904D01*
X113749180Y-110738095D02*
X113082514Y-110738095D01*
X112749180Y-110738095D02*
X112796800Y-110690476D01*
X112844419Y-110738095D01*
X112796800Y-110785714D01*
X112749180Y-110738095D01*
X112844419Y-110738095D01*
X113749180Y-112404761D02*
X113225371Y-112404761D01*
X113130133Y-112357142D01*
X113082514Y-112261904D01*
X113082514Y-112071428D01*
X113130133Y-111976190D01*
X113701561Y-112404761D02*
X113749180Y-112309523D01*
X113749180Y-112071428D01*
X113701561Y-111976190D01*
X113606323Y-111928571D01*
X113511085Y-111928571D01*
X113415847Y-111976190D01*
X113368228Y-112071428D01*
X113368228Y-112309523D01*
X113320609Y-112404761D01*
X113082514Y-112880952D02*
X113749180Y-112880952D01*
X113177752Y-112880952D02*
X113130133Y-112928571D01*
X113082514Y-113023809D01*
X113082514Y-113166666D01*
X113130133Y-113261904D01*
X113225371Y-113309523D01*
X113749180Y-113309523D01*
X113749180Y-114214285D02*
X112749180Y-114214285D01*
X113701561Y-114214285D02*
X113749180Y-114119047D01*
X113749180Y-113928571D01*
X113701561Y-113833333D01*
X113653942Y-113785714D01*
X113558704Y-113738095D01*
X113272990Y-113738095D01*
X113177752Y-113785714D01*
X113130133Y-113833333D01*
X113082514Y-113928571D01*
X113082514Y-114119047D01*
X113130133Y-114214285D01*
X112749180Y-115309523D02*
X112749180Y-115880952D01*
X113749180Y-115595238D02*
X112749180Y-115595238D01*
X113749180Y-116357142D02*
X113701561Y-116261904D01*
X113653942Y-116214285D01*
X113558704Y-116166666D01*
X113272990Y-116166666D01*
X113177752Y-116214285D01*
X113130133Y-116261904D01*
X113082514Y-116357142D01*
X113082514Y-116499999D01*
X113130133Y-116595238D01*
X113177752Y-116642857D01*
X113272990Y-116690476D01*
X113558704Y-116690476D01*
X113653942Y-116642857D01*
X113701561Y-116595238D01*
X113749180Y-116499999D01*
X113749180Y-116357142D01*
X113749180Y-117119047D02*
X112749180Y-117119047D01*
X113130133Y-117119047D02*
X113082514Y-117214285D01*
X113082514Y-117404761D01*
X113130133Y-117499999D01*
X113177752Y-117547619D01*
X113272990Y-117595238D01*
X113558704Y-117595238D01*
X113653942Y-117547619D01*
X113701561Y-117499999D01*
X113749180Y-117404761D01*
X113749180Y-117214285D01*
X113701561Y-117119047D01*
X113749180Y-118023809D02*
X113082514Y-118023809D01*
X112749180Y-118023809D02*
X112796800Y-117976190D01*
X112844419Y-118023809D01*
X112796800Y-118071428D01*
X112749180Y-118023809D01*
X112844419Y-118023809D01*
X113749180Y-119261904D02*
X113082514Y-119261904D01*
X112749180Y-119261904D02*
X112796800Y-119214285D01*
X112844419Y-119261904D01*
X112796800Y-119309523D01*
X112749180Y-119261904D01*
X112844419Y-119261904D01*
X113082514Y-119738095D02*
X113749180Y-119738095D01*
X113177752Y-119738095D02*
X113130133Y-119785714D01*
X113082514Y-119880952D01*
X113082514Y-120023809D01*
X113130133Y-120119047D01*
X113225371Y-120166666D01*
X113749180Y-120166666D01*
X113749180Y-121404761D02*
X112749180Y-121404761D01*
X113749180Y-121976190D02*
X113177752Y-121547619D01*
X112749180Y-121976190D02*
X113320609Y-121404761D01*
X113749180Y-122833333D02*
X113225371Y-122833333D01*
X113130133Y-122785714D01*
X113082514Y-122690476D01*
X113082514Y-122499999D01*
X113130133Y-122404761D01*
X113701561Y-122833333D02*
X113749180Y-122738095D01*
X113749180Y-122499999D01*
X113701561Y-122404761D01*
X113606323Y-122357142D01*
X113511085Y-122357142D01*
X113415847Y-122404761D01*
X113368228Y-122499999D01*
X113368228Y-122738095D01*
X113320609Y-122833333D01*
X113749180Y-123309523D02*
X113082514Y-123309523D01*
X113272990Y-123309523D02*
X113177752Y-123357142D01*
X113130133Y-123404761D01*
X113082514Y-123499999D01*
X113082514Y-123595238D01*
X113749180Y-124071428D02*
X113701561Y-123976190D01*
X113606323Y-123928571D01*
X112749180Y-123928571D01*
X113701561Y-124404761D02*
X113749180Y-124499999D01*
X113749180Y-124690476D01*
X113701561Y-124785714D01*
X113606323Y-124833333D01*
X113558704Y-124833333D01*
X113463466Y-124785714D01*
X113415847Y-124690476D01*
X113415847Y-124547619D01*
X113368228Y-124452380D01*
X113272990Y-124404761D01*
X113225371Y-124404761D01*
X113130133Y-124452380D01*
X113082514Y-124547619D01*
X113082514Y-124690476D01*
X113130133Y-124785714D01*
X113749180Y-125261904D02*
X113082514Y-125261904D01*
X113272990Y-125261904D02*
X113177752Y-125309523D01*
X113130133Y-125357142D01*
X113082514Y-125452380D01*
X113082514Y-125547619D01*
X113082514Y-126309523D02*
X113749180Y-126309523D01*
X113082514Y-125880952D02*
X113606323Y-125880952D01*
X113701561Y-125928571D01*
X113749180Y-126023809D01*
X113749180Y-126166666D01*
X113701561Y-126261904D01*
X113653942Y-126309523D01*
X113749180Y-126785714D02*
X112749180Y-126785714D01*
X113749180Y-127214285D02*
X113225371Y-127214285D01*
X113130133Y-127166666D01*
X113082514Y-127071428D01*
X113082514Y-126928571D01*
X113130133Y-126833333D01*
X113177752Y-126785714D01*
X113701561Y-128071428D02*
X113749180Y-127976190D01*
X113749180Y-127785714D01*
X113701561Y-127690476D01*
X113606323Y-127642857D01*
X113225371Y-127642857D01*
X113130133Y-127690476D01*
X113082514Y-127785714D01*
X113082514Y-127976190D01*
X113130133Y-128071428D01*
X113225371Y-128119047D01*
X113320609Y-128119047D01*
X113415847Y-127642857D01*
D11*
%TO.C,U3*%
X153848000Y-76416000D02*
X153848000Y-72556000D01*
X153848000Y-72556000D02*
X154088000Y-72556000D01*
X153848000Y-76416000D02*
X153848000Y-80276000D01*
X153848000Y-80276000D02*
X154088000Y-80276000D01*
X163068000Y-76416000D02*
X163068000Y-72556000D01*
X163068000Y-72556000D02*
X162828000Y-72556000D01*
X163068000Y-76416000D02*
X163068000Y-80276000D01*
X163068000Y-80276000D02*
X162828000Y-80276000D01*
X162828000Y-80276000D02*
X162828000Y-82091000D01*
%TO.C,BT3*%
X151420000Y-70320000D02*
X121120000Y-70320000D01*
X151420000Y-124720000D02*
X121120000Y-124720000D01*
X151420000Y-70320000D02*
X151420000Y-124720000D01*
X121120000Y-70320000D02*
X121120000Y-124720000D01*
%TO.C,C6*%
X161565000Y-113563652D02*
X161565000Y-112141148D01*
X159745000Y-113563652D02*
X159745000Y-112141148D01*
%TO.C,C5*%
X172953200Y-91719348D02*
X172953200Y-93141852D01*
X174773200Y-91719348D02*
X174773200Y-93141852D01*
%TO.C,R6*%
X164787000Y-105813336D02*
X164787000Y-107267464D01*
X166607000Y-105813336D02*
X166607000Y-107267464D01*
%TO.C,R5*%
X166544136Y-100567000D02*
X167998264Y-100567000D01*
X166544136Y-98747000D02*
X167998264Y-98747000D01*
%TO.C,R4*%
X172558264Y-83646600D02*
X171104136Y-83646600D01*
X172558264Y-85466600D02*
X171104136Y-85466600D01*
%TO.C,R3*%
X172532264Y-86186600D02*
X171078136Y-86186600D01*
X172532264Y-88006600D02*
X171078136Y-88006600D01*
%TO.C,R2*%
X161959936Y-122144400D02*
X163414064Y-122144400D01*
X161959936Y-120324400D02*
X163414064Y-120324400D01*
%TO.C,R1*%
X161959936Y-119604400D02*
X163414064Y-119604400D01*
X161959936Y-117784400D02*
X163414064Y-117784400D01*
%TO.C,C4*%
X166446452Y-83646600D02*
X165023948Y-83646600D01*
X166446452Y-85466600D02*
X165023948Y-85466600D01*
%TO.C,C3*%
X167817748Y-122144400D02*
X169240252Y-122144400D01*
X167817748Y-120324400D02*
X169240252Y-120324400D01*
%TO.C,C2*%
X166446452Y-86186600D02*
X165023948Y-86186600D01*
X166446452Y-88006600D02*
X165023948Y-88006600D01*
%TO.C,C1*%
X167817748Y-119604400D02*
X169240252Y-119604400D01*
X167817748Y-117784400D02*
X169240252Y-117784400D01*
%TO.C,U2*%
X172105200Y-92176600D02*
X172105200Y-95626600D01*
X172105200Y-92176600D02*
X172105200Y-90226600D01*
X166985200Y-92176600D02*
X166985200Y-94126600D01*
X166985200Y-92176600D02*
X166985200Y-90226600D01*
%TO.C,U1*%
X162413000Y-113360400D02*
X162413000Y-109910400D01*
X162413000Y-113360400D02*
X162413000Y-115310400D01*
X167533000Y-113360400D02*
X167533000Y-111410400D01*
X167533000Y-113360400D02*
X167533000Y-115310400D01*
%TO.C,Q4*%
X154574000Y-87128000D02*
X154804000Y-87128000D01*
X159294000Y-87128000D02*
X159064000Y-87128000D01*
X159294000Y-87128000D02*
X159294000Y-84408000D01*
X159294000Y-84408000D02*
X157984000Y-84408000D01*
X159064000Y-88268000D02*
X159064000Y-87128000D01*
X154574000Y-84408000D02*
X154574000Y-87128000D01*
X155884000Y-84408000D02*
X154574000Y-84408000D01*
%TO.C,Q3*%
X154574000Y-93478000D02*
X154804000Y-93478000D01*
X159294000Y-93478000D02*
X159064000Y-93478000D01*
X159294000Y-93478000D02*
X159294000Y-90758000D01*
X159294000Y-90758000D02*
X157984000Y-90758000D01*
X159064000Y-94618000D02*
X159064000Y-93478000D01*
X154574000Y-90758000D02*
X154574000Y-93478000D01*
X155884000Y-90758000D02*
X154574000Y-90758000D01*
%TO.C,Q2*%
X154574000Y-99828000D02*
X154804000Y-99828000D01*
X159294000Y-99828000D02*
X159064000Y-99828000D01*
X159294000Y-99828000D02*
X159294000Y-97108000D01*
X159294000Y-97108000D02*
X157984000Y-97108000D01*
X159064000Y-100968000D02*
X159064000Y-99828000D01*
X154574000Y-97108000D02*
X154574000Y-99828000D01*
X155884000Y-97108000D02*
X154574000Y-97108000D01*
%TO.C,Q1*%
X154574000Y-106178000D02*
X154804000Y-106178000D01*
X159294000Y-106178000D02*
X159064000Y-106178000D01*
X159294000Y-106178000D02*
X159294000Y-103458000D01*
X159294000Y-103458000D02*
X157984000Y-103458000D01*
X159064000Y-107318000D02*
X159064000Y-106178000D01*
X154574000Y-103458000D02*
X154574000Y-106178000D01*
X155884000Y-103458000D02*
X154574000Y-103458000D01*
%TO.C,REF\u002A\u002A*%
D10*
X138379133Y-94267380D02*
X138712466Y-93791190D01*
X138950561Y-94267380D02*
X138950561Y-93267380D01*
X138569609Y-93267380D01*
X138474371Y-93315000D01*
X138426752Y-93362619D01*
X138379133Y-93457857D01*
X138379133Y-93600714D01*
X138426752Y-93695952D01*
X138474371Y-93743571D01*
X138569609Y-93791190D01*
X138950561Y-93791190D01*
X137950561Y-93743571D02*
X137617228Y-93743571D01*
X137474371Y-94267380D02*
X137950561Y-94267380D01*
X137950561Y-93267380D01*
X137474371Y-93267380D01*
X136712466Y-93743571D02*
X137045800Y-93743571D01*
X137045800Y-94267380D02*
X137045800Y-93267380D01*
X136569609Y-93267380D01*
X136045800Y-93267380D02*
X136045800Y-93505476D01*
X136283895Y-93410238D02*
X136045800Y-93505476D01*
X135807704Y-93410238D01*
X136188657Y-93695952D02*
X136045800Y-93505476D01*
X135902942Y-93695952D01*
X135283895Y-93267380D02*
X135283895Y-93505476D01*
X135521990Y-93410238D02*
X135283895Y-93505476D01*
X135045800Y-93410238D01*
X135426752Y-93695952D02*
X135283895Y-93505476D01*
X135141038Y-93695952D01*
%TO.C,U3*%
X163360380Y-75654095D02*
X164169904Y-75654095D01*
X164265142Y-75701714D01*
X164312761Y-75749333D01*
X164360380Y-75844571D01*
X164360380Y-76035047D01*
X164312761Y-76130285D01*
X164265142Y-76177904D01*
X164169904Y-76225523D01*
X163360380Y-76225523D01*
X163360380Y-76606476D02*
X163360380Y-77225523D01*
X163741333Y-76892190D01*
X163741333Y-77035047D01*
X163788952Y-77130285D01*
X163836571Y-77177904D01*
X163931809Y-77225523D01*
X164169904Y-77225523D01*
X164265142Y-77177904D01*
X164312761Y-77130285D01*
X164360380Y-77035047D01*
X164360380Y-76749333D01*
X164312761Y-76654095D01*
X164265142Y-76606476D01*
%TO.C,BT3*%
X122498571Y-96934285D02*
X122546190Y-97077142D01*
X122593809Y-97124761D01*
X122689047Y-97172380D01*
X122831904Y-97172380D01*
X122927142Y-97124761D01*
X122974761Y-97077142D01*
X123022380Y-96981904D01*
X123022380Y-96600952D01*
X122022380Y-96600952D01*
X122022380Y-96934285D01*
X122070000Y-97029523D01*
X122117619Y-97077142D01*
X122212857Y-97124761D01*
X122308095Y-97124761D01*
X122403333Y-97077142D01*
X122450952Y-97029523D01*
X122498571Y-96934285D01*
X122498571Y-96600952D01*
X122022380Y-97458095D02*
X122022380Y-98029523D01*
X123022380Y-97743809D02*
X122022380Y-97743809D01*
X122022380Y-98267619D02*
X122022380Y-98886666D01*
X122403333Y-98553333D01*
X122403333Y-98696190D01*
X122450952Y-98791428D01*
X122498571Y-98839047D01*
X122593809Y-98886666D01*
X122831904Y-98886666D01*
X122927142Y-98839047D01*
X122974761Y-98791428D01*
X123022380Y-98696190D01*
X123022380Y-98410476D01*
X122974761Y-98315238D01*
X122927142Y-98267619D01*
D12*
X144202142Y-112815238D02*
X144202142Y-116624761D01*
X146106904Y-114720000D02*
X142297380Y-114720000D01*
X129052142Y-112815238D02*
X129052142Y-116624761D01*
%TO.C,C6*%
D10*
X159742242Y-109205833D02*
X159789861Y-109158214D01*
X159837480Y-109015357D01*
X159837480Y-108920119D01*
X159789861Y-108777261D01*
X159694623Y-108682023D01*
X159599385Y-108634404D01*
X159408909Y-108586785D01*
X159266052Y-108586785D01*
X159075576Y-108634404D01*
X158980338Y-108682023D01*
X158885100Y-108777261D01*
X158837480Y-108920119D01*
X158837480Y-109015357D01*
X158885100Y-109158214D01*
X158932719Y-109205833D01*
X158837480Y-110062976D02*
X158837480Y-109872500D01*
X158885100Y-109777261D01*
X158932719Y-109729642D01*
X159075576Y-109634404D01*
X159266052Y-109586785D01*
X159647004Y-109586785D01*
X159742242Y-109634404D01*
X159789861Y-109682023D01*
X159837480Y-109777261D01*
X159837480Y-109967738D01*
X159789861Y-110062976D01*
X159742242Y-110110595D01*
X159647004Y-110158214D01*
X159408909Y-110158214D01*
X159313671Y-110110595D01*
X159266052Y-110062976D01*
X159218433Y-109967738D01*
X159218433Y-109777261D01*
X159266052Y-109682023D01*
X159313671Y-109634404D01*
X159408909Y-109586785D01*
%TO.C,C5*%
X174283742Y-95858133D02*
X174331361Y-95810514D01*
X174378980Y-95667657D01*
X174378980Y-95572419D01*
X174331361Y-95429561D01*
X174236123Y-95334323D01*
X174140885Y-95286704D01*
X173950409Y-95239085D01*
X173807552Y-95239085D01*
X173617076Y-95286704D01*
X173521838Y-95334323D01*
X173426600Y-95429561D01*
X173378980Y-95572419D01*
X173378980Y-95667657D01*
X173426600Y-95810514D01*
X173474219Y-95858133D01*
X173378980Y-96762895D02*
X173378980Y-96286704D01*
X173855171Y-96239085D01*
X173807552Y-96286704D01*
X173759933Y-96381942D01*
X173759933Y-96620038D01*
X173807552Y-96715276D01*
X173855171Y-96762895D01*
X173950409Y-96810514D01*
X174188504Y-96810514D01*
X174283742Y-96762895D01*
X174331361Y-96715276D01*
X174378980Y-96620038D01*
X174378980Y-96381942D01*
X174331361Y-96286704D01*
X174283742Y-96239085D01*
%TO.C,R6*%
X164329380Y-106373733D02*
X163853190Y-106040400D01*
X164329380Y-105802304D02*
X163329380Y-105802304D01*
X163329380Y-106183257D01*
X163377000Y-106278495D01*
X163424619Y-106326114D01*
X163519857Y-106373733D01*
X163662714Y-106373733D01*
X163757952Y-106326114D01*
X163805571Y-106278495D01*
X163853190Y-106183257D01*
X163853190Y-105802304D01*
X163329380Y-107230876D02*
X163329380Y-107040400D01*
X163377000Y-106945161D01*
X163424619Y-106897542D01*
X163567476Y-106802304D01*
X163757952Y-106754685D01*
X164138904Y-106754685D01*
X164234142Y-106802304D01*
X164281761Y-106849923D01*
X164329380Y-106945161D01*
X164329380Y-107135638D01*
X164281761Y-107230876D01*
X164234142Y-107278495D01*
X164138904Y-107326114D01*
X163900809Y-107326114D01*
X163805571Y-107278495D01*
X163757952Y-107230876D01*
X163710333Y-107135638D01*
X163710333Y-106945161D01*
X163757952Y-106849923D01*
X163805571Y-106802304D01*
X163900809Y-106754685D01*
%TO.C,R5*%
X167437866Y-101929380D02*
X167771200Y-101453190D01*
X168009295Y-101929380D02*
X168009295Y-100929380D01*
X167628342Y-100929380D01*
X167533104Y-100977000D01*
X167485485Y-101024619D01*
X167437866Y-101119857D01*
X167437866Y-101262714D01*
X167485485Y-101357952D01*
X167533104Y-101405571D01*
X167628342Y-101453190D01*
X168009295Y-101453190D01*
X166533104Y-100929380D02*
X167009295Y-100929380D01*
X167056914Y-101405571D01*
X167009295Y-101357952D01*
X166914057Y-101310333D01*
X166675961Y-101310333D01*
X166580723Y-101357952D01*
X166533104Y-101405571D01*
X166485485Y-101500809D01*
X166485485Y-101738904D01*
X166533104Y-101834142D01*
X166580723Y-101881761D01*
X166675961Y-101929380D01*
X166914057Y-101929380D01*
X167009295Y-101881761D01*
X167056914Y-101834142D01*
%TO.C,R4*%
X175655366Y-85034480D02*
X175988700Y-84558290D01*
X176226795Y-85034480D02*
X176226795Y-84034480D01*
X175845842Y-84034480D01*
X175750604Y-84082100D01*
X175702985Y-84129719D01*
X175655366Y-84224957D01*
X175655366Y-84367814D01*
X175702985Y-84463052D01*
X175750604Y-84510671D01*
X175845842Y-84558290D01*
X176226795Y-84558290D01*
X174798223Y-84367814D02*
X174798223Y-85034480D01*
X175036319Y-83986861D02*
X175274414Y-84701147D01*
X174655366Y-84701147D01*
%TO.C,R3*%
X175541066Y-87523680D02*
X175874400Y-87047490D01*
X176112495Y-87523680D02*
X176112495Y-86523680D01*
X175731542Y-86523680D01*
X175636304Y-86571300D01*
X175588685Y-86618919D01*
X175541066Y-86714157D01*
X175541066Y-86857014D01*
X175588685Y-86952252D01*
X175636304Y-86999871D01*
X175731542Y-87047490D01*
X176112495Y-87047490D01*
X175207733Y-86523680D02*
X174588685Y-86523680D01*
X174922019Y-86904633D01*
X174779161Y-86904633D01*
X174683923Y-86952252D01*
X174636304Y-86999871D01*
X174588685Y-87095109D01*
X174588685Y-87333204D01*
X174636304Y-87428442D01*
X174683923Y-87476061D01*
X174779161Y-87523680D01*
X175064876Y-87523680D01*
X175160114Y-87476061D01*
X175207733Y-87428442D01*
%TO.C,R2*%
X159513666Y-121724780D02*
X159847000Y-121248590D01*
X160085095Y-121724780D02*
X160085095Y-120724780D01*
X159704142Y-120724780D01*
X159608904Y-120772400D01*
X159561285Y-120820019D01*
X159513666Y-120915257D01*
X159513666Y-121058114D01*
X159561285Y-121153352D01*
X159608904Y-121200971D01*
X159704142Y-121248590D01*
X160085095Y-121248590D01*
X159132714Y-120820019D02*
X159085095Y-120772400D01*
X158989857Y-120724780D01*
X158751761Y-120724780D01*
X158656523Y-120772400D01*
X158608904Y-120820019D01*
X158561285Y-120915257D01*
X158561285Y-121010495D01*
X158608904Y-121153352D01*
X159180333Y-121724780D01*
X158561285Y-121724780D01*
%TO.C,R1*%
X159589866Y-119146680D02*
X159923200Y-118670490D01*
X160161295Y-119146680D02*
X160161295Y-118146680D01*
X159780342Y-118146680D01*
X159685104Y-118194300D01*
X159637485Y-118241919D01*
X159589866Y-118337157D01*
X159589866Y-118480014D01*
X159637485Y-118575252D01*
X159685104Y-118622871D01*
X159780342Y-118670490D01*
X160161295Y-118670490D01*
X158637485Y-119146680D02*
X159208914Y-119146680D01*
X158923200Y-119146680D02*
X158923200Y-118146680D01*
X159018438Y-118289538D01*
X159113676Y-118384776D01*
X159208914Y-118432395D01*
%TO.C,C4*%
X165901866Y-83063742D02*
X165949485Y-83111361D01*
X166092342Y-83158980D01*
X166187580Y-83158980D01*
X166330438Y-83111361D01*
X166425676Y-83016123D01*
X166473295Y-82920885D01*
X166520914Y-82730409D01*
X166520914Y-82587552D01*
X166473295Y-82397076D01*
X166425676Y-82301838D01*
X166330438Y-82206600D01*
X166187580Y-82158980D01*
X166092342Y-82158980D01*
X165949485Y-82206600D01*
X165901866Y-82254219D01*
X165044723Y-82492314D02*
X165044723Y-83158980D01*
X165282819Y-82111361D02*
X165520914Y-82825647D01*
X164901866Y-82825647D01*
%TO.C,C3*%
X172404166Y-121629542D02*
X172451785Y-121677161D01*
X172594642Y-121724780D01*
X172689880Y-121724780D01*
X172832738Y-121677161D01*
X172927976Y-121581923D01*
X172975595Y-121486685D01*
X173023214Y-121296209D01*
X173023214Y-121153352D01*
X172975595Y-120962876D01*
X172927976Y-120867638D01*
X172832738Y-120772400D01*
X172689880Y-120724780D01*
X172594642Y-120724780D01*
X172451785Y-120772400D01*
X172404166Y-120820019D01*
X172070833Y-120724780D02*
X171451785Y-120724780D01*
X171785119Y-121105733D01*
X171642261Y-121105733D01*
X171547023Y-121153352D01*
X171499404Y-121200971D01*
X171451785Y-121296209D01*
X171451785Y-121534304D01*
X171499404Y-121629542D01*
X171547023Y-121677161D01*
X171642261Y-121724780D01*
X171927976Y-121724780D01*
X172023214Y-121677161D01*
X172070833Y-121629542D01*
%TO.C,C2*%
X165901866Y-87504642D02*
X165949485Y-87552261D01*
X166092342Y-87599880D01*
X166187580Y-87599880D01*
X166330438Y-87552261D01*
X166425676Y-87457023D01*
X166473295Y-87361785D01*
X166520914Y-87171309D01*
X166520914Y-87028452D01*
X166473295Y-86837976D01*
X166425676Y-86742738D01*
X166330438Y-86647500D01*
X166187580Y-86599880D01*
X166092342Y-86599880D01*
X165949485Y-86647500D01*
X165901866Y-86695119D01*
X165520914Y-86695119D02*
X165473295Y-86647500D01*
X165378057Y-86599880D01*
X165139961Y-86599880D01*
X165044723Y-86647500D01*
X164997104Y-86695119D01*
X164949485Y-86790357D01*
X164949485Y-86885595D01*
X164997104Y-87028452D01*
X165568533Y-87599880D01*
X164949485Y-87599880D01*
%TO.C,C1*%
X172213666Y-119191142D02*
X172261285Y-119238761D01*
X172404142Y-119286380D01*
X172499380Y-119286380D01*
X172642238Y-119238761D01*
X172737476Y-119143523D01*
X172785095Y-119048285D01*
X172832714Y-118857809D01*
X172832714Y-118714952D01*
X172785095Y-118524476D01*
X172737476Y-118429238D01*
X172642238Y-118334000D01*
X172499380Y-118286380D01*
X172404142Y-118286380D01*
X172261285Y-118334000D01*
X172213666Y-118381619D01*
X171261285Y-119286380D02*
X171832714Y-119286380D01*
X171547000Y-119286380D02*
X171547000Y-118286380D01*
X171642238Y-118429238D01*
X171737476Y-118524476D01*
X171832714Y-118572095D01*
%TO.C,U2*%
X170280180Y-91414795D02*
X171089704Y-91414795D01*
X171184942Y-91462414D01*
X171232561Y-91510033D01*
X171280180Y-91605271D01*
X171280180Y-91795747D01*
X171232561Y-91890985D01*
X171184942Y-91938604D01*
X171089704Y-91986223D01*
X170280180Y-91986223D01*
X170375419Y-92414795D02*
X170327800Y-92462414D01*
X170280180Y-92557652D01*
X170280180Y-92795747D01*
X170327800Y-92890985D01*
X170375419Y-92938604D01*
X170470657Y-92986223D01*
X170565895Y-92986223D01*
X170708752Y-92938604D01*
X171280180Y-92367176D01*
X171280180Y-92986223D01*
%TO.C,U1*%
X165784380Y-112661895D02*
X166593904Y-112661895D01*
X166689142Y-112709514D01*
X166736761Y-112757133D01*
X166784380Y-112852371D01*
X166784380Y-113042847D01*
X166736761Y-113138085D01*
X166689142Y-113185704D01*
X166593904Y-113233323D01*
X165784380Y-113233323D01*
X166784380Y-114233323D02*
X166784380Y-113661895D01*
X166784380Y-113947609D02*
X165784380Y-113947609D01*
X165927238Y-113852371D01*
X166022476Y-113757133D01*
X166070095Y-113661895D01*
%TO.C,Q4*%
X160981619Y-85672761D02*
X160934000Y-85577523D01*
X160838761Y-85482285D01*
X160695904Y-85339428D01*
X160648285Y-85244190D01*
X160648285Y-85148952D01*
X160886380Y-85196571D02*
X160838761Y-85101333D01*
X160743523Y-85006095D01*
X160553047Y-84958476D01*
X160219714Y-84958476D01*
X160029238Y-85006095D01*
X159934000Y-85101333D01*
X159886380Y-85196571D01*
X159886380Y-85387047D01*
X159934000Y-85482285D01*
X160029238Y-85577523D01*
X160219714Y-85625142D01*
X160553047Y-85625142D01*
X160743523Y-85577523D01*
X160838761Y-85482285D01*
X160886380Y-85387047D01*
X160886380Y-85196571D01*
X160219714Y-86482285D02*
X160886380Y-86482285D01*
X159838761Y-86244190D02*
X160553047Y-86006095D01*
X160553047Y-86625142D01*
%TO.C,Q3*%
X160981619Y-92022761D02*
X160934000Y-91927523D01*
X160838761Y-91832285D01*
X160695904Y-91689428D01*
X160648285Y-91594190D01*
X160648285Y-91498952D01*
X160886380Y-91546571D02*
X160838761Y-91451333D01*
X160743523Y-91356095D01*
X160553047Y-91308476D01*
X160219714Y-91308476D01*
X160029238Y-91356095D01*
X159934000Y-91451333D01*
X159886380Y-91546571D01*
X159886380Y-91737047D01*
X159934000Y-91832285D01*
X160029238Y-91927523D01*
X160219714Y-91975142D01*
X160553047Y-91975142D01*
X160743523Y-91927523D01*
X160838761Y-91832285D01*
X160886380Y-91737047D01*
X160886380Y-91546571D01*
X159886380Y-92308476D02*
X159886380Y-92927523D01*
X160267333Y-92594190D01*
X160267333Y-92737047D01*
X160314952Y-92832285D01*
X160362571Y-92879904D01*
X160457809Y-92927523D01*
X160695904Y-92927523D01*
X160791142Y-92879904D01*
X160838761Y-92832285D01*
X160886380Y-92737047D01*
X160886380Y-92451333D01*
X160838761Y-92356095D01*
X160791142Y-92308476D01*
%TO.C,Q2*%
X160981619Y-98372761D02*
X160934000Y-98277523D01*
X160838761Y-98182285D01*
X160695904Y-98039428D01*
X160648285Y-97944190D01*
X160648285Y-97848952D01*
X160886380Y-97896571D02*
X160838761Y-97801333D01*
X160743523Y-97706095D01*
X160553047Y-97658476D01*
X160219714Y-97658476D01*
X160029238Y-97706095D01*
X159934000Y-97801333D01*
X159886380Y-97896571D01*
X159886380Y-98087047D01*
X159934000Y-98182285D01*
X160029238Y-98277523D01*
X160219714Y-98325142D01*
X160553047Y-98325142D01*
X160743523Y-98277523D01*
X160838761Y-98182285D01*
X160886380Y-98087047D01*
X160886380Y-97896571D01*
X159981619Y-98706095D02*
X159934000Y-98753714D01*
X159886380Y-98848952D01*
X159886380Y-99087047D01*
X159934000Y-99182285D01*
X159981619Y-99229904D01*
X160076857Y-99277523D01*
X160172095Y-99277523D01*
X160314952Y-99229904D01*
X160886380Y-98658476D01*
X160886380Y-99277523D01*
%TO.C,Q1*%
X160981619Y-104722761D02*
X160934000Y-104627523D01*
X160838761Y-104532285D01*
X160695904Y-104389428D01*
X160648285Y-104294190D01*
X160648285Y-104198952D01*
X160886380Y-104246571D02*
X160838761Y-104151333D01*
X160743523Y-104056095D01*
X160553047Y-104008476D01*
X160219714Y-104008476D01*
X160029238Y-104056095D01*
X159934000Y-104151333D01*
X159886380Y-104246571D01*
X159886380Y-104437047D01*
X159934000Y-104532285D01*
X160029238Y-104627523D01*
X160219714Y-104675142D01*
X160553047Y-104675142D01*
X160743523Y-104627523D01*
X160838761Y-104532285D01*
X160886380Y-104437047D01*
X160886380Y-104246571D01*
X160886380Y-105627523D02*
X160886380Y-105056095D01*
X160886380Y-105341809D02*
X159886380Y-105341809D01*
X160029238Y-105246571D01*
X160124476Y-105151333D01*
X160172095Y-105056095D01*
%TD*%
M02*
