%TF.GenerationSoftware,KiCad,Pcbnew,(5.1.10)-1*%
%TF.CreationDate,2021-11-18T19:01:21+01:00*%
%TF.ProjectId,Base,42617365-2e6b-4696-9361-645f70636258,rev?*%
%TF.SameCoordinates,Original*%
%TF.FileFunction,Legend,Bot*%
%TF.FilePolarity,Positive*%
%FSLAX46Y46*%
G04 Gerber Fmt 4.6, Leading zero omitted, Abs format (unit mm)*
G04 Created by KiCad (PCBNEW (5.1.10)-1) date 2021-11-18 19:01:21*
%MOMM*%
%LPD*%
G01*
G04 APERTURE LIST*
%ADD10C,0.150000*%
%ADD11C,0.120000*%
%ADD12C,1.000000*%
G04 APERTURE END LIST*
D10*
X153312380Y-68994380D02*
X153312380Y-67994380D01*
X153074285Y-67994380D01*
X152931428Y-68042000D01*
X152836190Y-68137238D01*
X152788571Y-68232476D01*
X152740952Y-68422952D01*
X152740952Y-68565809D01*
X152788571Y-68756285D01*
X152836190Y-68851523D01*
X152931428Y-68946761D01*
X153074285Y-68994380D01*
X153312380Y-68994380D01*
X151931428Y-68946761D02*
X152026666Y-68994380D01*
X152217142Y-68994380D01*
X152312380Y-68946761D01*
X152360000Y-68851523D01*
X152360000Y-68470571D01*
X152312380Y-68375333D01*
X152217142Y-68327714D01*
X152026666Y-68327714D01*
X151931428Y-68375333D01*
X151883809Y-68470571D01*
X151883809Y-68565809D01*
X152360000Y-68661047D01*
X151502857Y-68946761D02*
X151407619Y-68994380D01*
X151217142Y-68994380D01*
X151121904Y-68946761D01*
X151074285Y-68851523D01*
X151074285Y-68803904D01*
X151121904Y-68708666D01*
X151217142Y-68661047D01*
X151360000Y-68661047D01*
X151455238Y-68613428D01*
X151502857Y-68518190D01*
X151502857Y-68470571D01*
X151455238Y-68375333D01*
X151360000Y-68327714D01*
X151217142Y-68327714D01*
X151121904Y-68375333D01*
X150645714Y-68994380D02*
X150645714Y-68327714D01*
X150645714Y-67994380D02*
X150693333Y-68042000D01*
X150645714Y-68089619D01*
X150598095Y-68042000D01*
X150645714Y-67994380D01*
X150645714Y-68089619D01*
X149740952Y-68327714D02*
X149740952Y-69137238D01*
X149788571Y-69232476D01*
X149836190Y-69280095D01*
X149931428Y-69327714D01*
X150074285Y-69327714D01*
X150169523Y-69280095D01*
X149740952Y-68946761D02*
X149836190Y-68994380D01*
X150026666Y-68994380D01*
X150121904Y-68946761D01*
X150169523Y-68899142D01*
X150217142Y-68803904D01*
X150217142Y-68518190D01*
X150169523Y-68422952D01*
X150121904Y-68375333D01*
X150026666Y-68327714D01*
X149836190Y-68327714D01*
X149740952Y-68375333D01*
X149264761Y-68327714D02*
X149264761Y-68994380D01*
X149264761Y-68422952D02*
X149217142Y-68375333D01*
X149121904Y-68327714D01*
X148979047Y-68327714D01*
X148883809Y-68375333D01*
X148836190Y-68470571D01*
X148836190Y-68994380D01*
X147979047Y-68946761D02*
X148074285Y-68994380D01*
X148264761Y-68994380D01*
X148360000Y-68946761D01*
X148407619Y-68851523D01*
X148407619Y-68470571D01*
X148360000Y-68375333D01*
X148264761Y-68327714D01*
X148074285Y-68327714D01*
X147979047Y-68375333D01*
X147931428Y-68470571D01*
X147931428Y-68565809D01*
X148407619Y-68661047D01*
X147074285Y-68994380D02*
X147074285Y-67994380D01*
X147074285Y-68946761D02*
X147169523Y-68994380D01*
X147360000Y-68994380D01*
X147455238Y-68946761D01*
X147502857Y-68899142D01*
X147550476Y-68803904D01*
X147550476Y-68518190D01*
X147502857Y-68422952D01*
X147455238Y-68375333D01*
X147360000Y-68327714D01*
X147169523Y-68327714D01*
X147074285Y-68375333D01*
X145836190Y-68994380D02*
X145836190Y-67994380D01*
X145836190Y-68375333D02*
X145740952Y-68327714D01*
X145550476Y-68327714D01*
X145455238Y-68375333D01*
X145407619Y-68422952D01*
X145360000Y-68518190D01*
X145360000Y-68803904D01*
X145407619Y-68899142D01*
X145455238Y-68946761D01*
X145550476Y-68994380D01*
X145740952Y-68994380D01*
X145836190Y-68946761D01*
X145026666Y-68327714D02*
X144788571Y-68994380D01*
X144550476Y-68327714D02*
X144788571Y-68994380D01*
X144883809Y-69232476D01*
X144931428Y-69280095D01*
X145026666Y-69327714D01*
X143550476Y-67994380D02*
X142979047Y-67994380D01*
X143264761Y-68994380D02*
X143264761Y-67994380D01*
X142502857Y-68994380D02*
X142598095Y-68946761D01*
X142645714Y-68899142D01*
X142693333Y-68803904D01*
X142693333Y-68518190D01*
X142645714Y-68422952D01*
X142598095Y-68375333D01*
X142502857Y-68327714D01*
X142360000Y-68327714D01*
X142264761Y-68375333D01*
X142217142Y-68422952D01*
X142169523Y-68518190D01*
X142169523Y-68803904D01*
X142217142Y-68899142D01*
X142264761Y-68946761D01*
X142360000Y-68994380D01*
X142502857Y-68994380D01*
X141740952Y-68994380D02*
X141740952Y-67994380D01*
X141740952Y-68375333D02*
X141645714Y-68327714D01*
X141455238Y-68327714D01*
X141360000Y-68375333D01*
X141312380Y-68422952D01*
X141264761Y-68518190D01*
X141264761Y-68803904D01*
X141312380Y-68899142D01*
X141360000Y-68946761D01*
X141455238Y-68994380D01*
X141645714Y-68994380D01*
X141740952Y-68946761D01*
X140836190Y-68994380D02*
X140836190Y-68327714D01*
X140836190Y-67994380D02*
X140883809Y-68042000D01*
X140836190Y-68089619D01*
X140788571Y-68042000D01*
X140836190Y-67994380D01*
X140836190Y-68089619D01*
X139169523Y-68994380D02*
X139169523Y-68470571D01*
X139217142Y-68375333D01*
X139312380Y-68327714D01*
X139502857Y-68327714D01*
X139598095Y-68375333D01*
X139169523Y-68946761D02*
X139264761Y-68994380D01*
X139502857Y-68994380D01*
X139598095Y-68946761D01*
X139645714Y-68851523D01*
X139645714Y-68756285D01*
X139598095Y-68661047D01*
X139502857Y-68613428D01*
X139264761Y-68613428D01*
X139169523Y-68565809D01*
X138693333Y-68327714D02*
X138693333Y-68994380D01*
X138693333Y-68422952D02*
X138645714Y-68375333D01*
X138550476Y-68327714D01*
X138407619Y-68327714D01*
X138312380Y-68375333D01*
X138264761Y-68470571D01*
X138264761Y-68994380D01*
X137360000Y-68994380D02*
X137360000Y-67994380D01*
X137360000Y-68946761D02*
X137455238Y-68994380D01*
X137645714Y-68994380D01*
X137740952Y-68946761D01*
X137788571Y-68899142D01*
X137836190Y-68803904D01*
X137836190Y-68518190D01*
X137788571Y-68422952D01*
X137740952Y-68375333D01*
X137645714Y-68327714D01*
X137455238Y-68327714D01*
X137360000Y-68375333D01*
X136121904Y-68994380D02*
X136121904Y-67994380D01*
X135550476Y-68994380D02*
X135979047Y-68422952D01*
X135550476Y-67994380D02*
X136121904Y-68565809D01*
X134693333Y-68994380D02*
X134693333Y-68470571D01*
X134740952Y-68375333D01*
X134836190Y-68327714D01*
X135026666Y-68327714D01*
X135121904Y-68375333D01*
X134693333Y-68946761D02*
X134788571Y-68994380D01*
X135026666Y-68994380D01*
X135121904Y-68946761D01*
X135169523Y-68851523D01*
X135169523Y-68756285D01*
X135121904Y-68661047D01*
X135026666Y-68613428D01*
X134788571Y-68613428D01*
X134693333Y-68565809D01*
X134217142Y-68994380D02*
X134217142Y-68327714D01*
X134217142Y-67994380D02*
X134264761Y-68042000D01*
X134217142Y-68089619D01*
X134169523Y-68042000D01*
X134217142Y-67994380D01*
X134217142Y-68089619D01*
X132979047Y-68994380D02*
X132979047Y-68327714D01*
X132979047Y-67994380D02*
X133026666Y-68042000D01*
X132979047Y-68089619D01*
X132931428Y-68042000D01*
X132979047Y-67994380D01*
X132979047Y-68089619D01*
X132502857Y-68327714D02*
X132502857Y-68994380D01*
X132502857Y-68422952D02*
X132455238Y-68375333D01*
X132360000Y-68327714D01*
X132217142Y-68327714D01*
X132121904Y-68375333D01*
X132074285Y-68470571D01*
X132074285Y-68994380D01*
X130836190Y-68994380D02*
X130836190Y-67994380D01*
X130264761Y-68994380D02*
X130693333Y-68422952D01*
X130264761Y-67994380D02*
X130836190Y-68565809D01*
X129407619Y-68994380D02*
X129407619Y-68470571D01*
X129455238Y-68375333D01*
X129550476Y-68327714D01*
X129740952Y-68327714D01*
X129836190Y-68375333D01*
X129407619Y-68946761D02*
X129502857Y-68994380D01*
X129740952Y-68994380D01*
X129836190Y-68946761D01*
X129883809Y-68851523D01*
X129883809Y-68756285D01*
X129836190Y-68661047D01*
X129740952Y-68613428D01*
X129502857Y-68613428D01*
X129407619Y-68565809D01*
X128931428Y-68994380D02*
X128931428Y-68327714D01*
X128931428Y-68518190D02*
X128883809Y-68422952D01*
X128836190Y-68375333D01*
X128740952Y-68327714D01*
X128645714Y-68327714D01*
X128169523Y-68994380D02*
X128264761Y-68946761D01*
X128312380Y-68851523D01*
X128312380Y-67994380D01*
X127836190Y-68946761D02*
X127740952Y-68994380D01*
X127550476Y-68994380D01*
X127455238Y-68946761D01*
X127407619Y-68851523D01*
X127407619Y-68803904D01*
X127455238Y-68708666D01*
X127550476Y-68661047D01*
X127693333Y-68661047D01*
X127788571Y-68613428D01*
X127836190Y-68518190D01*
X127836190Y-68470571D01*
X127788571Y-68375333D01*
X127693333Y-68327714D01*
X127550476Y-68327714D01*
X127455238Y-68375333D01*
X126979047Y-68994380D02*
X126979047Y-68327714D01*
X126979047Y-68518190D02*
X126931428Y-68422952D01*
X126883809Y-68375333D01*
X126788571Y-68327714D01*
X126693333Y-68327714D01*
X125931428Y-68327714D02*
X125931428Y-68994380D01*
X126360000Y-68327714D02*
X126360000Y-68851523D01*
X126312380Y-68946761D01*
X126217142Y-68994380D01*
X126074285Y-68994380D01*
X125979047Y-68946761D01*
X125931428Y-68899142D01*
X125455238Y-68994380D02*
X125455238Y-67994380D01*
X125026666Y-68994380D02*
X125026666Y-68470571D01*
X125074285Y-68375333D01*
X125169523Y-68327714D01*
X125312380Y-68327714D01*
X125407619Y-68375333D01*
X125455238Y-68422952D01*
X124169523Y-68946761D02*
X124264761Y-68994380D01*
X124455238Y-68994380D01*
X124550476Y-68946761D01*
X124598095Y-68851523D01*
X124598095Y-68470571D01*
X124550476Y-68375333D01*
X124455238Y-68327714D01*
X124264761Y-68327714D01*
X124169523Y-68375333D01*
X124121904Y-68470571D01*
X124121904Y-68565809D01*
X124598095Y-68661047D01*
X123074285Y-67994380D02*
X122740952Y-68994380D01*
X122407619Y-67994380D01*
X121360000Y-68089619D02*
X121312380Y-68042000D01*
X121217142Y-67994380D01*
X120979047Y-67994380D01*
X120883809Y-68042000D01*
X120836190Y-68089619D01*
X120788571Y-68184857D01*
X120788571Y-68280095D01*
X120836190Y-68422952D01*
X121407619Y-68994380D01*
X120788571Y-68994380D01*
X120360000Y-68899142D02*
X120312380Y-68946761D01*
X120360000Y-68994380D01*
X120407619Y-68946761D01*
X120360000Y-68899142D01*
X120360000Y-68994380D01*
X119693333Y-67994380D02*
X119598095Y-67994380D01*
X119502857Y-68042000D01*
X119455238Y-68089619D01*
X119407619Y-68184857D01*
X119360000Y-68375333D01*
X119360000Y-68613428D01*
X119407619Y-68803904D01*
X119455238Y-68899142D01*
X119502857Y-68946761D01*
X119598095Y-68994380D01*
X119693333Y-68994380D01*
X119788571Y-68946761D01*
X119836190Y-68899142D01*
X119883809Y-68803904D01*
X119931428Y-68613428D01*
X119931428Y-68375333D01*
X119883809Y-68184857D01*
X119836190Y-68089619D01*
X119788571Y-68042000D01*
X119693333Y-67994380D01*
D11*
%TO.C,BT3*%
X151420000Y-70320000D02*
X121120000Y-70320000D01*
X151420000Y-124720000D02*
X121120000Y-124720000D01*
X121120000Y-70320000D02*
X121120000Y-124720000D01*
X151420000Y-70320000D02*
X151420000Y-124720000D01*
%TO.C,U3*%
X153845200Y-71691600D02*
X153845200Y-69741600D01*
X153845200Y-71691600D02*
X153845200Y-73641600D01*
X162715200Y-71691600D02*
X162715200Y-69741600D01*
X162715200Y-71691600D02*
X162715200Y-75141600D01*
%TO.C,R6*%
X168131000Y-104035336D02*
X168131000Y-105489464D01*
X166311000Y-104035336D02*
X166311000Y-105489464D01*
%TO.C,R5*%
X166544136Y-98747000D02*
X167998264Y-98747000D01*
X166544136Y-100567000D02*
X167998264Y-100567000D01*
%TO.C,R8*%
X163495064Y-78421000D02*
X163040936Y-78421000D01*
X163495064Y-76951000D02*
X163040936Y-76951000D01*
%TO.C,R7*%
X158431064Y-78421000D02*
X157976936Y-78421000D01*
X158431064Y-76951000D02*
X157976936Y-76951000D01*
%TO.C,R4*%
X172058264Y-84517000D02*
X171604136Y-84517000D01*
X172058264Y-83047000D02*
X171604136Y-83047000D01*
%TO.C,R3*%
X172032264Y-87311000D02*
X171578136Y-87311000D01*
X172032264Y-85841000D02*
X171578136Y-85841000D01*
%TO.C,R2*%
X163983936Y-118721400D02*
X164438064Y-118721400D01*
X163983936Y-120191400D02*
X164438064Y-120191400D01*
%TO.C,R1*%
X163983936Y-116181400D02*
X164438064Y-116181400D01*
X163983936Y-117651400D02*
X164438064Y-117651400D01*
%TO.C,C10*%
X164815252Y-128205000D02*
X164292748Y-128205000D01*
X164815252Y-126735000D02*
X164292748Y-126735000D01*
%TO.C,C9*%
X158704748Y-126735000D02*
X159227252Y-126735000D01*
X158704748Y-128205000D02*
X159227252Y-128205000D01*
%TO.C,C8*%
X165441400Y-69804748D02*
X165441400Y-70327252D01*
X163971400Y-69804748D02*
X163971400Y-70327252D01*
%TO.C,C6*%
X161444000Y-111335652D02*
X161444000Y-110813148D01*
X162914000Y-111335652D02*
X162914000Y-110813148D01*
%TO.C,C5*%
X174598200Y-92169348D02*
X174598200Y-92691852D01*
X173128200Y-92169348D02*
X173128200Y-92691852D01*
%TO.C,C4*%
X165996452Y-83047000D02*
X165473948Y-83047000D01*
X165996452Y-84517000D02*
X165473948Y-84517000D01*
%TO.C,C3*%
X170363348Y-117362400D02*
X170885852Y-117362400D01*
X170363348Y-118832400D02*
X170885852Y-118832400D01*
%TO.C,C2*%
X166152600Y-90683548D02*
X166152600Y-91206052D01*
X164682600Y-90683548D02*
X164682600Y-91206052D01*
%TO.C,C1*%
X169864200Y-113075452D02*
X169864200Y-112552948D01*
X171334200Y-113075452D02*
X171334200Y-112552948D01*
%TO.C,U4*%
X163560000Y-125764000D02*
X159960000Y-125764000D01*
X159921522Y-125752478D02*
G75*
G02*
X161760000Y-121314000I1838478J1838478D01*
G01*
X163598478Y-125752478D02*
G75*
G03*
X161760000Y-121314000I-1838478J1838478D01*
G01*
%TO.C,D4*%
X118452000Y-115868000D02*
X118452000Y-108968000D01*
X115152000Y-115868000D02*
X115152000Y-108968000D01*
X118452000Y-115868000D02*
X115152000Y-115868000D01*
%TO.C,D3*%
X118452000Y-106216000D02*
X118452000Y-99316000D01*
X115152000Y-106216000D02*
X115152000Y-99316000D01*
X118452000Y-106216000D02*
X115152000Y-106216000D01*
%TO.C,D2*%
X118452000Y-96564000D02*
X118452000Y-89664000D01*
X115152000Y-96564000D02*
X115152000Y-89664000D01*
X118452000Y-96564000D02*
X115152000Y-96564000D01*
%TO.C,D1*%
X118452000Y-86912000D02*
X118452000Y-80012000D01*
X115152000Y-86912000D02*
X115152000Y-80012000D01*
X118452000Y-86912000D02*
X115152000Y-86912000D01*
%TO.C,Q1*%
X157740000Y-110780000D02*
X157740000Y-110550000D01*
X157740000Y-106060000D02*
X157740000Y-106290000D01*
X157740000Y-106060000D02*
X155020000Y-106060000D01*
X155020000Y-106060000D02*
X155020000Y-107370000D01*
X158880000Y-106290000D02*
X157740000Y-106290000D01*
X155020000Y-110780000D02*
X157740000Y-110780000D01*
X155020000Y-109470000D02*
X155020000Y-110780000D01*
%TO.C,U2*%
X172105200Y-92176600D02*
X172105200Y-95626600D01*
X172105200Y-92176600D02*
X172105200Y-90226600D01*
X166985200Y-92176600D02*
X166985200Y-94126600D01*
X166985200Y-92176600D02*
X166985200Y-90226600D01*
%TO.C,U1*%
X163937000Y-111582400D02*
X163937000Y-108132400D01*
X163937000Y-111582400D02*
X163937000Y-113532400D01*
X169057000Y-111582400D02*
X169057000Y-109632400D01*
X169057000Y-111582400D02*
X169057000Y-113532400D01*
%TO.C,Q4*%
X157486000Y-84618000D02*
X157486000Y-84388000D01*
X157486000Y-79898000D02*
X157486000Y-80128000D01*
X157486000Y-79898000D02*
X154766000Y-79898000D01*
X154766000Y-79898000D02*
X154766000Y-81208000D01*
X158626000Y-80128000D02*
X157486000Y-80128000D01*
X154766000Y-84618000D02*
X157486000Y-84618000D01*
X154766000Y-83308000D02*
X154766000Y-84618000D01*
%TO.C,Q3*%
X157486000Y-93762000D02*
X157486000Y-93532000D01*
X157486000Y-89042000D02*
X157486000Y-89272000D01*
X157486000Y-89042000D02*
X154766000Y-89042000D01*
X154766000Y-89042000D02*
X154766000Y-90352000D01*
X158626000Y-89272000D02*
X157486000Y-89272000D01*
X154766000Y-93762000D02*
X157486000Y-93762000D01*
X154766000Y-92452000D02*
X154766000Y-93762000D01*
%TO.C,Q2*%
X157486000Y-102144000D02*
X157486000Y-101914000D01*
X157486000Y-97424000D02*
X157486000Y-97654000D01*
X157486000Y-97424000D02*
X154766000Y-97424000D01*
X154766000Y-97424000D02*
X154766000Y-98734000D01*
X158626000Y-97654000D02*
X157486000Y-97654000D01*
X154766000Y-102144000D02*
X157486000Y-102144000D01*
X154766000Y-100834000D02*
X154766000Y-102144000D01*
%TO.C,SW1*%
D10*
X159624761Y-115468666D02*
X159672380Y-115611523D01*
X159672380Y-115849619D01*
X159624761Y-115944857D01*
X159577142Y-115992476D01*
X159481904Y-116040095D01*
X159386666Y-116040095D01*
X159291428Y-115992476D01*
X159243809Y-115944857D01*
X159196190Y-115849619D01*
X159148571Y-115659142D01*
X159100952Y-115563904D01*
X159053333Y-115516285D01*
X158958095Y-115468666D01*
X158862857Y-115468666D01*
X158767619Y-115516285D01*
X158720000Y-115563904D01*
X158672380Y-115659142D01*
X158672380Y-115897238D01*
X158720000Y-116040095D01*
X158672380Y-116373428D02*
X159672380Y-116611523D01*
X158958095Y-116802000D01*
X159672380Y-116992476D01*
X158672380Y-117230571D01*
X159672380Y-118135333D02*
X159672380Y-117563904D01*
X159672380Y-117849619D02*
X158672380Y-117849619D01*
X158815238Y-117754380D01*
X158910476Y-117659142D01*
X158958095Y-117563904D01*
%TO.C,BT3*%
X122318571Y-71312285D02*
X122366190Y-71455142D01*
X122413809Y-71502761D01*
X122509047Y-71550380D01*
X122651904Y-71550380D01*
X122747142Y-71502761D01*
X122794761Y-71455142D01*
X122842380Y-71359904D01*
X122842380Y-70978952D01*
X121842380Y-70978952D01*
X121842380Y-71312285D01*
X121890000Y-71407523D01*
X121937619Y-71455142D01*
X122032857Y-71502761D01*
X122128095Y-71502761D01*
X122223333Y-71455142D01*
X122270952Y-71407523D01*
X122318571Y-71312285D01*
X122318571Y-70978952D01*
X121842380Y-71836095D02*
X121842380Y-72407523D01*
X122842380Y-72121809D02*
X121842380Y-72121809D01*
X121842380Y-72645619D02*
X121842380Y-73264666D01*
X122223333Y-72931333D01*
X122223333Y-73074190D01*
X122270952Y-73169428D01*
X122318571Y-73217047D01*
X122413809Y-73264666D01*
X122651904Y-73264666D01*
X122747142Y-73217047D01*
X122794761Y-73169428D01*
X122842380Y-73074190D01*
X122842380Y-72788476D01*
X122794761Y-72693238D01*
X122747142Y-72645619D01*
D12*
X129052142Y-112815238D02*
X129052142Y-116624761D01*
D10*
X123022380Y-96386666D02*
X122546190Y-96053333D01*
X123022380Y-95815238D02*
X122022380Y-95815238D01*
X122022380Y-96196190D01*
X122070000Y-96291428D01*
X122117619Y-96339047D01*
X122212857Y-96386666D01*
X122355714Y-96386666D01*
X122450952Y-96339047D01*
X122498571Y-96291428D01*
X122546190Y-96196190D01*
X122546190Y-95815238D01*
X122498571Y-96815238D02*
X122498571Y-97148571D01*
X123022380Y-97291428D02*
X123022380Y-96815238D01*
X122022380Y-96815238D01*
X122022380Y-97291428D01*
X122498571Y-98053333D02*
X122498571Y-97720000D01*
X123022380Y-97720000D02*
X122022380Y-97720000D01*
X122022380Y-98196190D01*
X122022380Y-98720000D02*
X122260476Y-98720000D01*
X122165238Y-98481904D02*
X122260476Y-98720000D01*
X122165238Y-98958095D01*
X122450952Y-98577142D02*
X122260476Y-98720000D01*
X122450952Y-98862857D01*
X122022380Y-99481904D02*
X122260476Y-99481904D01*
X122165238Y-99243809D02*
X122260476Y-99481904D01*
X122165238Y-99720000D01*
X122450952Y-99339047D02*
X122260476Y-99481904D01*
X122450952Y-99624761D01*
D12*
X144202142Y-112815238D02*
X144202142Y-116624761D01*
X146106904Y-114720000D02*
X142297380Y-114720000D01*
%TO.C,U3*%
D10*
X163012580Y-70929695D02*
X163822104Y-70929695D01*
X163917342Y-70977314D01*
X163964961Y-71024933D01*
X164012580Y-71120171D01*
X164012580Y-71310647D01*
X163964961Y-71405885D01*
X163917342Y-71453504D01*
X163822104Y-71501123D01*
X163012580Y-71501123D01*
X163012580Y-71882076D02*
X163012580Y-72501123D01*
X163393533Y-72167790D01*
X163393533Y-72310647D01*
X163441152Y-72405885D01*
X163488771Y-72453504D01*
X163584009Y-72501123D01*
X163822104Y-72501123D01*
X163917342Y-72453504D01*
X163964961Y-72405885D01*
X164012580Y-72310647D01*
X164012580Y-72024933D01*
X163964961Y-71929695D01*
X163917342Y-71882076D01*
%TO.C,R6*%
X165853380Y-104595733D02*
X165377190Y-104262400D01*
X165853380Y-104024304D02*
X164853380Y-104024304D01*
X164853380Y-104405257D01*
X164901000Y-104500495D01*
X164948619Y-104548114D01*
X165043857Y-104595733D01*
X165186714Y-104595733D01*
X165281952Y-104548114D01*
X165329571Y-104500495D01*
X165377190Y-104405257D01*
X165377190Y-104024304D01*
X164853380Y-105452876D02*
X164853380Y-105262400D01*
X164901000Y-105167161D01*
X164948619Y-105119542D01*
X165091476Y-105024304D01*
X165281952Y-104976685D01*
X165662904Y-104976685D01*
X165758142Y-105024304D01*
X165805761Y-105071923D01*
X165853380Y-105167161D01*
X165853380Y-105357638D01*
X165805761Y-105452876D01*
X165758142Y-105500495D01*
X165662904Y-105548114D01*
X165424809Y-105548114D01*
X165329571Y-105500495D01*
X165281952Y-105452876D01*
X165234333Y-105357638D01*
X165234333Y-105167161D01*
X165281952Y-105071923D01*
X165329571Y-105024304D01*
X165424809Y-104976685D01*
%TO.C,R5*%
X167437866Y-101929380D02*
X167771200Y-101453190D01*
X168009295Y-101929380D02*
X168009295Y-100929380D01*
X167628342Y-100929380D01*
X167533104Y-100977000D01*
X167485485Y-101024619D01*
X167437866Y-101119857D01*
X167437866Y-101262714D01*
X167485485Y-101357952D01*
X167533104Y-101405571D01*
X167628342Y-101453190D01*
X168009295Y-101453190D01*
X166533104Y-100929380D02*
X167009295Y-100929380D01*
X167056914Y-101405571D01*
X167009295Y-101357952D01*
X166914057Y-101310333D01*
X166675961Y-101310333D01*
X166580723Y-101357952D01*
X166533104Y-101405571D01*
X166485485Y-101500809D01*
X166485485Y-101738904D01*
X166533104Y-101834142D01*
X166580723Y-101881761D01*
X166675961Y-101929380D01*
X166914057Y-101929380D01*
X167009295Y-101881761D01*
X167056914Y-101834142D01*
%TO.C,R8*%
X163434666Y-76488380D02*
X163768000Y-76012190D01*
X164006095Y-76488380D02*
X164006095Y-75488380D01*
X163625142Y-75488380D01*
X163529904Y-75536000D01*
X163482285Y-75583619D01*
X163434666Y-75678857D01*
X163434666Y-75821714D01*
X163482285Y-75916952D01*
X163529904Y-75964571D01*
X163625142Y-76012190D01*
X164006095Y-76012190D01*
X162863238Y-75916952D02*
X162958476Y-75869333D01*
X163006095Y-75821714D01*
X163053714Y-75726476D01*
X163053714Y-75678857D01*
X163006095Y-75583619D01*
X162958476Y-75536000D01*
X162863238Y-75488380D01*
X162672761Y-75488380D01*
X162577523Y-75536000D01*
X162529904Y-75583619D01*
X162482285Y-75678857D01*
X162482285Y-75726476D01*
X162529904Y-75821714D01*
X162577523Y-75869333D01*
X162672761Y-75916952D01*
X162863238Y-75916952D01*
X162958476Y-75964571D01*
X163006095Y-76012190D01*
X163053714Y-76107428D01*
X163053714Y-76297904D01*
X163006095Y-76393142D01*
X162958476Y-76440761D01*
X162863238Y-76488380D01*
X162672761Y-76488380D01*
X162577523Y-76440761D01*
X162529904Y-76393142D01*
X162482285Y-76297904D01*
X162482285Y-76107428D01*
X162529904Y-76012190D01*
X162577523Y-75964571D01*
X162672761Y-75916952D01*
%TO.C,R7*%
X158370666Y-76488380D02*
X158704000Y-76012190D01*
X158942095Y-76488380D02*
X158942095Y-75488380D01*
X158561142Y-75488380D01*
X158465904Y-75536000D01*
X158418285Y-75583619D01*
X158370666Y-75678857D01*
X158370666Y-75821714D01*
X158418285Y-75916952D01*
X158465904Y-75964571D01*
X158561142Y-76012190D01*
X158942095Y-76012190D01*
X158037333Y-75488380D02*
X157370666Y-75488380D01*
X157799238Y-76488380D01*
%TO.C,R4*%
X171997866Y-82584380D02*
X172331200Y-82108190D01*
X172569295Y-82584380D02*
X172569295Y-81584380D01*
X172188342Y-81584380D01*
X172093104Y-81632000D01*
X172045485Y-81679619D01*
X171997866Y-81774857D01*
X171997866Y-81917714D01*
X172045485Y-82012952D01*
X172093104Y-82060571D01*
X172188342Y-82108190D01*
X172569295Y-82108190D01*
X171140723Y-81917714D02*
X171140723Y-82584380D01*
X171378819Y-81536761D02*
X171616914Y-82251047D01*
X170997866Y-82251047D01*
%TO.C,R3*%
X171971866Y-85378380D02*
X172305200Y-84902190D01*
X172543295Y-85378380D02*
X172543295Y-84378380D01*
X172162342Y-84378380D01*
X172067104Y-84426000D01*
X172019485Y-84473619D01*
X171971866Y-84568857D01*
X171971866Y-84711714D01*
X172019485Y-84806952D01*
X172067104Y-84854571D01*
X172162342Y-84902190D01*
X172543295Y-84902190D01*
X171638533Y-84378380D02*
X171019485Y-84378380D01*
X171352819Y-84759333D01*
X171209961Y-84759333D01*
X171114723Y-84806952D01*
X171067104Y-84854571D01*
X171019485Y-84949809D01*
X171019485Y-85187904D01*
X171067104Y-85283142D01*
X171114723Y-85330761D01*
X171209961Y-85378380D01*
X171495676Y-85378380D01*
X171590914Y-85330761D01*
X171638533Y-85283142D01*
%TO.C,R2*%
X164377666Y-121558780D02*
X164711000Y-121082590D01*
X164949095Y-121558780D02*
X164949095Y-120558780D01*
X164568142Y-120558780D01*
X164472904Y-120606400D01*
X164425285Y-120654019D01*
X164377666Y-120749257D01*
X164377666Y-120892114D01*
X164425285Y-120987352D01*
X164472904Y-121034971D01*
X164568142Y-121082590D01*
X164949095Y-121082590D01*
X163996714Y-120654019D02*
X163949095Y-120606400D01*
X163853857Y-120558780D01*
X163615761Y-120558780D01*
X163520523Y-120606400D01*
X163472904Y-120654019D01*
X163425285Y-120749257D01*
X163425285Y-120844495D01*
X163472904Y-120987352D01*
X164044333Y-121558780D01*
X163425285Y-121558780D01*
%TO.C,R1*%
X164377666Y-119018780D02*
X164711000Y-118542590D01*
X164949095Y-119018780D02*
X164949095Y-118018780D01*
X164568142Y-118018780D01*
X164472904Y-118066400D01*
X164425285Y-118114019D01*
X164377666Y-118209257D01*
X164377666Y-118352114D01*
X164425285Y-118447352D01*
X164472904Y-118494971D01*
X164568142Y-118542590D01*
X164949095Y-118542590D01*
X163425285Y-119018780D02*
X163996714Y-119018780D01*
X163711000Y-119018780D02*
X163711000Y-118018780D01*
X163806238Y-118161638D01*
X163901476Y-118256876D01*
X163996714Y-118304495D01*
%TO.C,C10*%
X168498857Y-128081142D02*
X168546476Y-128128761D01*
X168689333Y-128176380D01*
X168784571Y-128176380D01*
X168927428Y-128128761D01*
X169022666Y-128033523D01*
X169070285Y-127938285D01*
X169117904Y-127747809D01*
X169117904Y-127604952D01*
X169070285Y-127414476D01*
X169022666Y-127319238D01*
X168927428Y-127224000D01*
X168784571Y-127176380D01*
X168689333Y-127176380D01*
X168546476Y-127224000D01*
X168498857Y-127271619D01*
X167546476Y-128176380D02*
X168117904Y-128176380D01*
X167832190Y-128176380D02*
X167832190Y-127176380D01*
X167927428Y-127319238D01*
X168022666Y-127414476D01*
X168117904Y-127462095D01*
X166927428Y-127176380D02*
X166832190Y-127176380D01*
X166736952Y-127224000D01*
X166689333Y-127271619D01*
X166641714Y-127366857D01*
X166594095Y-127557333D01*
X166594095Y-127795428D01*
X166641714Y-127985904D01*
X166689333Y-128081142D01*
X166736952Y-128128761D01*
X166832190Y-128176380D01*
X166927428Y-128176380D01*
X167022666Y-128128761D01*
X167070285Y-128081142D01*
X167117904Y-127985904D01*
X167165523Y-127795428D01*
X167165523Y-127557333D01*
X167117904Y-127366857D01*
X167070285Y-127271619D01*
X167022666Y-127224000D01*
X166927428Y-127176380D01*
%TO.C,C9*%
X156338666Y-127827142D02*
X156386285Y-127874761D01*
X156529142Y-127922380D01*
X156624380Y-127922380D01*
X156767238Y-127874761D01*
X156862476Y-127779523D01*
X156910095Y-127684285D01*
X156957714Y-127493809D01*
X156957714Y-127350952D01*
X156910095Y-127160476D01*
X156862476Y-127065238D01*
X156767238Y-126970000D01*
X156624380Y-126922380D01*
X156529142Y-126922380D01*
X156386285Y-126970000D01*
X156338666Y-127017619D01*
X155862476Y-127922380D02*
X155672000Y-127922380D01*
X155576761Y-127874761D01*
X155529142Y-127827142D01*
X155433904Y-127684285D01*
X155386285Y-127493809D01*
X155386285Y-127112857D01*
X155433904Y-127017619D01*
X155481523Y-126970000D01*
X155576761Y-126922380D01*
X155767238Y-126922380D01*
X155862476Y-126970000D01*
X155910095Y-127017619D01*
X155957714Y-127112857D01*
X155957714Y-127350952D01*
X155910095Y-127446190D01*
X155862476Y-127493809D01*
X155767238Y-127541428D01*
X155576761Y-127541428D01*
X155481523Y-127493809D01*
X155433904Y-127446190D01*
X155386285Y-127350952D01*
%TO.C,C8*%
X163383542Y-69899333D02*
X163431161Y-69851714D01*
X163478780Y-69708857D01*
X163478780Y-69613619D01*
X163431161Y-69470761D01*
X163335923Y-69375523D01*
X163240685Y-69327904D01*
X163050209Y-69280285D01*
X162907352Y-69280285D01*
X162716876Y-69327904D01*
X162621638Y-69375523D01*
X162526400Y-69470761D01*
X162478780Y-69613619D01*
X162478780Y-69708857D01*
X162526400Y-69851714D01*
X162574019Y-69899333D01*
X162907352Y-70470761D02*
X162859733Y-70375523D01*
X162812114Y-70327904D01*
X162716876Y-70280285D01*
X162669257Y-70280285D01*
X162574019Y-70327904D01*
X162526400Y-70375523D01*
X162478780Y-70470761D01*
X162478780Y-70661238D01*
X162526400Y-70756476D01*
X162574019Y-70804095D01*
X162669257Y-70851714D01*
X162716876Y-70851714D01*
X162812114Y-70804095D01*
X162859733Y-70756476D01*
X162907352Y-70661238D01*
X162907352Y-70470761D01*
X162954971Y-70375523D01*
X163002590Y-70327904D01*
X163097828Y-70280285D01*
X163288304Y-70280285D01*
X163383542Y-70327904D01*
X163431161Y-70375523D01*
X163478780Y-70470761D01*
X163478780Y-70661238D01*
X163431161Y-70756476D01*
X163383542Y-70804095D01*
X163288304Y-70851714D01*
X163097828Y-70851714D01*
X163002590Y-70804095D01*
X162954971Y-70756476D01*
X162907352Y-70661238D01*
%TO.C,C6*%
X164216142Y-110907733D02*
X164263761Y-110860114D01*
X164311380Y-110717257D01*
X164311380Y-110622019D01*
X164263761Y-110479161D01*
X164168523Y-110383923D01*
X164073285Y-110336304D01*
X163882809Y-110288685D01*
X163739952Y-110288685D01*
X163549476Y-110336304D01*
X163454238Y-110383923D01*
X163359000Y-110479161D01*
X163311380Y-110622019D01*
X163311380Y-110717257D01*
X163359000Y-110860114D01*
X163406619Y-110907733D01*
X163311380Y-111764876D02*
X163311380Y-111574400D01*
X163359000Y-111479161D01*
X163406619Y-111431542D01*
X163549476Y-111336304D01*
X163739952Y-111288685D01*
X164120904Y-111288685D01*
X164216142Y-111336304D01*
X164263761Y-111383923D01*
X164311380Y-111479161D01*
X164311380Y-111669638D01*
X164263761Y-111764876D01*
X164216142Y-111812495D01*
X164120904Y-111860114D01*
X163882809Y-111860114D01*
X163787571Y-111812495D01*
X163739952Y-111764876D01*
X163692333Y-111669638D01*
X163692333Y-111479161D01*
X163739952Y-111383923D01*
X163787571Y-111336304D01*
X163882809Y-111288685D01*
%TO.C,C5*%
X172540342Y-92263933D02*
X172587961Y-92216314D01*
X172635580Y-92073457D01*
X172635580Y-91978219D01*
X172587961Y-91835361D01*
X172492723Y-91740123D01*
X172397485Y-91692504D01*
X172207009Y-91644885D01*
X172064152Y-91644885D01*
X171873676Y-91692504D01*
X171778438Y-91740123D01*
X171683200Y-91835361D01*
X171635580Y-91978219D01*
X171635580Y-92073457D01*
X171683200Y-92216314D01*
X171730819Y-92263933D01*
X171635580Y-93168695D02*
X171635580Y-92692504D01*
X172111771Y-92644885D01*
X172064152Y-92692504D01*
X172016533Y-92787742D01*
X172016533Y-93025838D01*
X172064152Y-93121076D01*
X172111771Y-93168695D01*
X172207009Y-93216314D01*
X172445104Y-93216314D01*
X172540342Y-93168695D01*
X172587961Y-93121076D01*
X172635580Y-93025838D01*
X172635580Y-92787742D01*
X172587961Y-92692504D01*
X172540342Y-92644885D01*
%TO.C,C4*%
X165901866Y-82459142D02*
X165949485Y-82506761D01*
X166092342Y-82554380D01*
X166187580Y-82554380D01*
X166330438Y-82506761D01*
X166425676Y-82411523D01*
X166473295Y-82316285D01*
X166520914Y-82125809D01*
X166520914Y-81982952D01*
X166473295Y-81792476D01*
X166425676Y-81697238D01*
X166330438Y-81602000D01*
X166187580Y-81554380D01*
X166092342Y-81554380D01*
X165949485Y-81602000D01*
X165901866Y-81649619D01*
X165044723Y-81887714D02*
X165044723Y-82554380D01*
X165282819Y-81506761D02*
X165520914Y-82221047D01*
X164901866Y-82221047D01*
%TO.C,C3*%
X170791266Y-120134542D02*
X170838885Y-120182161D01*
X170981742Y-120229780D01*
X171076980Y-120229780D01*
X171219838Y-120182161D01*
X171315076Y-120086923D01*
X171362695Y-119991685D01*
X171410314Y-119801209D01*
X171410314Y-119658352D01*
X171362695Y-119467876D01*
X171315076Y-119372638D01*
X171219838Y-119277400D01*
X171076980Y-119229780D01*
X170981742Y-119229780D01*
X170838885Y-119277400D01*
X170791266Y-119325019D01*
X170457933Y-119229780D02*
X169838885Y-119229780D01*
X170172219Y-119610733D01*
X170029361Y-119610733D01*
X169934123Y-119658352D01*
X169886504Y-119705971D01*
X169838885Y-119801209D01*
X169838885Y-120039304D01*
X169886504Y-120134542D01*
X169934123Y-120182161D01*
X170029361Y-120229780D01*
X170315076Y-120229780D01*
X170410314Y-120182161D01*
X170457933Y-120134542D01*
%TO.C,C2*%
X164094742Y-90778133D02*
X164142361Y-90730514D01*
X164189980Y-90587657D01*
X164189980Y-90492419D01*
X164142361Y-90349561D01*
X164047123Y-90254323D01*
X163951885Y-90206704D01*
X163761409Y-90159085D01*
X163618552Y-90159085D01*
X163428076Y-90206704D01*
X163332838Y-90254323D01*
X163237600Y-90349561D01*
X163189980Y-90492419D01*
X163189980Y-90587657D01*
X163237600Y-90730514D01*
X163285219Y-90778133D01*
X163285219Y-91159085D02*
X163237600Y-91206704D01*
X163189980Y-91301942D01*
X163189980Y-91540038D01*
X163237600Y-91635276D01*
X163285219Y-91682895D01*
X163380457Y-91730514D01*
X163475695Y-91730514D01*
X163618552Y-91682895D01*
X164189980Y-91111466D01*
X164189980Y-91730514D01*
%TO.C,C1*%
X172636342Y-112647533D02*
X172683961Y-112599914D01*
X172731580Y-112457057D01*
X172731580Y-112361819D01*
X172683961Y-112218961D01*
X172588723Y-112123723D01*
X172493485Y-112076104D01*
X172303009Y-112028485D01*
X172160152Y-112028485D01*
X171969676Y-112076104D01*
X171874438Y-112123723D01*
X171779200Y-112218961D01*
X171731580Y-112361819D01*
X171731580Y-112457057D01*
X171779200Y-112599914D01*
X171826819Y-112647533D01*
X172731580Y-113599914D02*
X172731580Y-113028485D01*
X172731580Y-113314200D02*
X171731580Y-113314200D01*
X171874438Y-113218961D01*
X171969676Y-113123723D01*
X172017295Y-113028485D01*
%TO.C,U4*%
X162521904Y-119806380D02*
X162521904Y-120615904D01*
X162474285Y-120711142D01*
X162426666Y-120758761D01*
X162331428Y-120806380D01*
X162140952Y-120806380D01*
X162045714Y-120758761D01*
X161998095Y-120711142D01*
X161950476Y-120615904D01*
X161950476Y-119806380D01*
X161045714Y-120139714D02*
X161045714Y-120806380D01*
X161283809Y-119758761D02*
X161521904Y-120473047D01*
X160902857Y-120473047D01*
%TO.C,D4*%
X119754380Y-110729904D02*
X118754380Y-110729904D01*
X118754380Y-110968000D01*
X118802000Y-111110857D01*
X118897238Y-111206095D01*
X118992476Y-111253714D01*
X119182952Y-111301333D01*
X119325809Y-111301333D01*
X119516285Y-111253714D01*
X119611523Y-111206095D01*
X119706761Y-111110857D01*
X119754380Y-110968000D01*
X119754380Y-110729904D01*
X119087714Y-112158476D02*
X119754380Y-112158476D01*
X118706761Y-111920380D02*
X119421047Y-111682285D01*
X119421047Y-112301333D01*
%TO.C,D3*%
X119754380Y-101077904D02*
X118754380Y-101077904D01*
X118754380Y-101316000D01*
X118802000Y-101458857D01*
X118897238Y-101554095D01*
X118992476Y-101601714D01*
X119182952Y-101649333D01*
X119325809Y-101649333D01*
X119516285Y-101601714D01*
X119611523Y-101554095D01*
X119706761Y-101458857D01*
X119754380Y-101316000D01*
X119754380Y-101077904D01*
X118754380Y-101982666D02*
X118754380Y-102601714D01*
X119135333Y-102268380D01*
X119135333Y-102411238D01*
X119182952Y-102506476D01*
X119230571Y-102554095D01*
X119325809Y-102601714D01*
X119563904Y-102601714D01*
X119659142Y-102554095D01*
X119706761Y-102506476D01*
X119754380Y-102411238D01*
X119754380Y-102125523D01*
X119706761Y-102030285D01*
X119659142Y-101982666D01*
%TO.C,D2*%
X119754380Y-91425904D02*
X118754380Y-91425904D01*
X118754380Y-91664000D01*
X118802000Y-91806857D01*
X118897238Y-91902095D01*
X118992476Y-91949714D01*
X119182952Y-91997333D01*
X119325809Y-91997333D01*
X119516285Y-91949714D01*
X119611523Y-91902095D01*
X119706761Y-91806857D01*
X119754380Y-91664000D01*
X119754380Y-91425904D01*
X118849619Y-92378285D02*
X118802000Y-92425904D01*
X118754380Y-92521142D01*
X118754380Y-92759238D01*
X118802000Y-92854476D01*
X118849619Y-92902095D01*
X118944857Y-92949714D01*
X119040095Y-92949714D01*
X119182952Y-92902095D01*
X119754380Y-92330666D01*
X119754380Y-92949714D01*
%TO.C,D1*%
X119754380Y-81773904D02*
X118754380Y-81773904D01*
X118754380Y-82012000D01*
X118802000Y-82154857D01*
X118897238Y-82250095D01*
X118992476Y-82297714D01*
X119182952Y-82345333D01*
X119325809Y-82345333D01*
X119516285Y-82297714D01*
X119611523Y-82250095D01*
X119706761Y-82154857D01*
X119754380Y-82012000D01*
X119754380Y-81773904D01*
X119754380Y-83297714D02*
X119754380Y-82726285D01*
X119754380Y-83012000D02*
X118754380Y-83012000D01*
X118897238Y-82916761D01*
X118992476Y-82821523D01*
X119040095Y-82726285D01*
%TO.C,Q1*%
X156475238Y-105467619D02*
X156570476Y-105420000D01*
X156665714Y-105324761D01*
X156808571Y-105181904D01*
X156903809Y-105134285D01*
X156999047Y-105134285D01*
X156951428Y-105372380D02*
X157046666Y-105324761D01*
X157141904Y-105229523D01*
X157189523Y-105039047D01*
X157189523Y-104705714D01*
X157141904Y-104515238D01*
X157046666Y-104420000D01*
X156951428Y-104372380D01*
X156760952Y-104372380D01*
X156665714Y-104420000D01*
X156570476Y-104515238D01*
X156522857Y-104705714D01*
X156522857Y-105039047D01*
X156570476Y-105229523D01*
X156665714Y-105324761D01*
X156760952Y-105372380D01*
X156951428Y-105372380D01*
X155570476Y-105372380D02*
X156141904Y-105372380D01*
X155856190Y-105372380D02*
X155856190Y-104372380D01*
X155951428Y-104515238D01*
X156046666Y-104610476D01*
X156141904Y-104658095D01*
%TO.C,H4*%
X120865904Y-128684380D02*
X120865904Y-127684380D01*
X120865904Y-128160571D02*
X120294476Y-128160571D01*
X120294476Y-128684380D02*
X120294476Y-127684380D01*
X119389714Y-128017714D02*
X119389714Y-128684380D01*
X119627809Y-127636761D02*
X119865904Y-128351047D01*
X119246857Y-128351047D01*
%TO.C,H3*%
X114515904Y-70010380D02*
X114515904Y-69010380D01*
X114515904Y-69486571D02*
X113944476Y-69486571D01*
X113944476Y-70010380D02*
X113944476Y-69010380D01*
X113563523Y-69010380D02*
X112944476Y-69010380D01*
X113277809Y-69391333D01*
X113134952Y-69391333D01*
X113039714Y-69438952D01*
X112992095Y-69486571D01*
X112944476Y-69581809D01*
X112944476Y-69819904D01*
X112992095Y-69915142D01*
X113039714Y-69962761D01*
X113134952Y-70010380D01*
X113420666Y-70010380D01*
X113515904Y-69962761D01*
X113563523Y-69915142D01*
%TO.C,H2*%
X175729904Y-128684380D02*
X175729904Y-127684380D01*
X175729904Y-128160571D02*
X175158476Y-128160571D01*
X175158476Y-128684380D02*
X175158476Y-127684380D01*
X174729904Y-127779619D02*
X174682285Y-127732000D01*
X174587047Y-127684380D01*
X174348952Y-127684380D01*
X174253714Y-127732000D01*
X174206095Y-127779619D01*
X174158476Y-127874857D01*
X174158476Y-127970095D01*
X174206095Y-128112952D01*
X174777523Y-128684380D01*
X174158476Y-128684380D01*
%TO.C,H1*%
X174967904Y-76106380D02*
X174967904Y-75106380D01*
X174967904Y-75582571D02*
X174396476Y-75582571D01*
X174396476Y-76106380D02*
X174396476Y-75106380D01*
X173396476Y-76106380D02*
X173967904Y-76106380D01*
X173682190Y-76106380D02*
X173682190Y-75106380D01*
X173777428Y-75249238D01*
X173872666Y-75344476D01*
X173967904Y-75392095D01*
%TO.C,U2*%
X170280180Y-91414795D02*
X171089704Y-91414795D01*
X171184942Y-91462414D01*
X171232561Y-91510033D01*
X171280180Y-91605271D01*
X171280180Y-91795747D01*
X171232561Y-91890985D01*
X171184942Y-91938604D01*
X171089704Y-91986223D01*
X170280180Y-91986223D01*
X170375419Y-92414795D02*
X170327800Y-92462414D01*
X170280180Y-92557652D01*
X170280180Y-92795747D01*
X170327800Y-92890985D01*
X170375419Y-92938604D01*
X170470657Y-92986223D01*
X170565895Y-92986223D01*
X170708752Y-92938604D01*
X171280180Y-92367176D01*
X171280180Y-92986223D01*
%TO.C,U1*%
X167308380Y-110883895D02*
X168117904Y-110883895D01*
X168213142Y-110931514D01*
X168260761Y-110979133D01*
X168308380Y-111074371D01*
X168308380Y-111264847D01*
X168260761Y-111360085D01*
X168213142Y-111407704D01*
X168117904Y-111455323D01*
X167308380Y-111455323D01*
X168308380Y-112455323D02*
X168308380Y-111883895D01*
X168308380Y-112169609D02*
X167308380Y-112169609D01*
X167451238Y-112074371D01*
X167546476Y-111979133D01*
X167594095Y-111883895D01*
%TO.C,Q4*%
X156221238Y-79305619D02*
X156316476Y-79258000D01*
X156411714Y-79162761D01*
X156554571Y-79019904D01*
X156649809Y-78972285D01*
X156745047Y-78972285D01*
X156697428Y-79210380D02*
X156792666Y-79162761D01*
X156887904Y-79067523D01*
X156935523Y-78877047D01*
X156935523Y-78543714D01*
X156887904Y-78353238D01*
X156792666Y-78258000D01*
X156697428Y-78210380D01*
X156506952Y-78210380D01*
X156411714Y-78258000D01*
X156316476Y-78353238D01*
X156268857Y-78543714D01*
X156268857Y-78877047D01*
X156316476Y-79067523D01*
X156411714Y-79162761D01*
X156506952Y-79210380D01*
X156697428Y-79210380D01*
X155411714Y-78543714D02*
X155411714Y-79210380D01*
X155649809Y-78162761D02*
X155887904Y-78877047D01*
X155268857Y-78877047D01*
%TO.C,Q3*%
X156221238Y-88449619D02*
X156316476Y-88402000D01*
X156411714Y-88306761D01*
X156554571Y-88163904D01*
X156649809Y-88116285D01*
X156745047Y-88116285D01*
X156697428Y-88354380D02*
X156792666Y-88306761D01*
X156887904Y-88211523D01*
X156935523Y-88021047D01*
X156935523Y-87687714D01*
X156887904Y-87497238D01*
X156792666Y-87402000D01*
X156697428Y-87354380D01*
X156506952Y-87354380D01*
X156411714Y-87402000D01*
X156316476Y-87497238D01*
X156268857Y-87687714D01*
X156268857Y-88021047D01*
X156316476Y-88211523D01*
X156411714Y-88306761D01*
X156506952Y-88354380D01*
X156697428Y-88354380D01*
X155935523Y-87354380D02*
X155316476Y-87354380D01*
X155649809Y-87735333D01*
X155506952Y-87735333D01*
X155411714Y-87782952D01*
X155364095Y-87830571D01*
X155316476Y-87925809D01*
X155316476Y-88163904D01*
X155364095Y-88259142D01*
X155411714Y-88306761D01*
X155506952Y-88354380D01*
X155792666Y-88354380D01*
X155887904Y-88306761D01*
X155935523Y-88259142D01*
%TO.C,Q2*%
X156221238Y-96831619D02*
X156316476Y-96784000D01*
X156411714Y-96688761D01*
X156554571Y-96545904D01*
X156649809Y-96498285D01*
X156745047Y-96498285D01*
X156697428Y-96736380D02*
X156792666Y-96688761D01*
X156887904Y-96593523D01*
X156935523Y-96403047D01*
X156935523Y-96069714D01*
X156887904Y-95879238D01*
X156792666Y-95784000D01*
X156697428Y-95736380D01*
X156506952Y-95736380D01*
X156411714Y-95784000D01*
X156316476Y-95879238D01*
X156268857Y-96069714D01*
X156268857Y-96403047D01*
X156316476Y-96593523D01*
X156411714Y-96688761D01*
X156506952Y-96736380D01*
X156697428Y-96736380D01*
X155887904Y-95831619D02*
X155840285Y-95784000D01*
X155745047Y-95736380D01*
X155506952Y-95736380D01*
X155411714Y-95784000D01*
X155364095Y-95831619D01*
X155316476Y-95926857D01*
X155316476Y-96022095D01*
X155364095Y-96164952D01*
X155935523Y-96736380D01*
X155316476Y-96736380D01*
%TD*%
M02*
