M48
; DRILL file {KiCad (5.1.8)-1} date 11/19/21 10:43:17
; FORMAT={-:-/ absolute / metric / decimal}
; #@! TF.CreationDate,2021-11-19T10:43:17+01:00
; #@! TF.GenerationSoftware,Kicad,Pcbnew,(5.1.8)-1
; #@! TF.FileFunction,Plated,1,2,PTH
FMAT,2
METRIC
T1C0.400
T2C0.600
T3C0.750
T4C2.000
T5C2.200
%
G90
G05
T1
X171.691Y-119.926
X173.825Y-96.355
T2
X140.932Y-77.686
X141.44Y-118.326
X142.71Y-118.326
X143.98Y-118.326
X144.361Y-98.387
X145.25Y-118.326
X145.504Y-106.388
X146.393Y-85.687
T3
X160.49Y-123.914
X161.76Y-123.914
X163.03Y-123.914
T4
X123.622Y-92.418G85X126.122Y-92.418
G05
X131.622Y-92.418G85X134.122Y-92.418
G05
X137.122Y-78.918G85X137.122Y-81.418
G05
X137.122Y-86.918G85X137.122Y-89.418
G05
X137.122Y-95.418G85X137.122Y-97.918
G05
X137.122Y-103.418G85X137.122Y-105.918
G05
X140.122Y-92.418G85X142.622Y-92.418
G05
X148.122Y-92.418G85X150.622Y-92.418
G05
T5
X155.908Y-114.579G85X154.908Y-114.579
G05
X155.908Y-119.279G85X154.908Y-119.279
G05
X155.908Y-123.979G85X154.908Y-123.979
G05
T0
M30
