%TF.GenerationSoftware,KiCad,Pcbnew,(5.1.8)-1*%
%TF.CreationDate,2021-11-19T10:40:59+01:00*%
%TF.ProjectId,Base,42617365-2e6b-4696-9361-645f70636258,rev?*%
%TF.SameCoordinates,Original*%
%TF.FileFunction,Paste,Bot*%
%TF.FilePolarity,Positive*%
%FSLAX46Y46*%
G04 Gerber Fmt 4.6, Leading zero omitted, Abs format (unit mm)*
G04 Created by KiCad (PCBNEW (5.1.8)-1) date 2021-11-19 10:40:59*
%MOMM*%
%LPD*%
G01*
G04 APERTURE LIST*
%ADD10R,12.000000X8.000000*%
%ADD11R,1.800000X3.500000*%
%ADD12R,2.600000X0.900000*%
%ADD13C,0.100000*%
G04 APERTURE END LIST*
D10*
%TO.C,BT3*%
X128695000Y-124720000D03*
X143845000Y-124720000D03*
%TD*%
%TO.C,U3*%
G36*
G01*
X162290200Y-70216600D02*
X161890200Y-70216600D01*
G75*
G02*
X161690200Y-70016600I0J200000D01*
G01*
X161690200Y-67416600D01*
G75*
G02*
X161890200Y-67216600I200000J0D01*
G01*
X162290200Y-67216600D01*
G75*
G02*
X162490200Y-67416600I0J-200000D01*
G01*
X162490200Y-70016600D01*
G75*
G02*
X162290200Y-70216600I-200000J0D01*
G01*
G37*
G36*
G01*
X160970200Y-70216600D02*
X160670200Y-70216600D01*
G75*
G02*
X160520200Y-70066600I0J150000D01*
G01*
X160520200Y-67366600D01*
G75*
G02*
X160670200Y-67216600I150000J0D01*
G01*
X160970200Y-67216600D01*
G75*
G02*
X161120200Y-67366600I0J-150000D01*
G01*
X161120200Y-70066600D01*
G75*
G02*
X160970200Y-70216600I-150000J0D01*
G01*
G37*
G36*
G01*
X159700200Y-70216600D02*
X159400200Y-70216600D01*
G75*
G02*
X159250200Y-70066600I0J150000D01*
G01*
X159250200Y-67366600D01*
G75*
G02*
X159400200Y-67216600I150000J0D01*
G01*
X159700200Y-67216600D01*
G75*
G02*
X159850200Y-67366600I0J-150000D01*
G01*
X159850200Y-70066600D01*
G75*
G02*
X159700200Y-70216600I-150000J0D01*
G01*
G37*
G36*
G01*
X158430200Y-70216600D02*
X158130200Y-70216600D01*
G75*
G02*
X157980200Y-70066600I0J150000D01*
G01*
X157980200Y-67366600D01*
G75*
G02*
X158130200Y-67216600I150000J0D01*
G01*
X158430200Y-67216600D01*
G75*
G02*
X158580200Y-67366600I0J-150000D01*
G01*
X158580200Y-70066600D01*
G75*
G02*
X158430200Y-70216600I-150000J0D01*
G01*
G37*
G36*
G01*
X157160200Y-70216600D02*
X156860200Y-70216600D01*
G75*
G02*
X156710200Y-70066600I0J150000D01*
G01*
X156710200Y-67366600D01*
G75*
G02*
X156860200Y-67216600I150000J0D01*
G01*
X157160200Y-67216600D01*
G75*
G02*
X157310200Y-67366600I0J-150000D01*
G01*
X157310200Y-70066600D01*
G75*
G02*
X157160200Y-70216600I-150000J0D01*
G01*
G37*
G36*
G01*
X155890200Y-70216600D02*
X155590200Y-70216600D01*
G75*
G02*
X155440200Y-70066600I0J150000D01*
G01*
X155440200Y-67366600D01*
G75*
G02*
X155590200Y-67216600I150000J0D01*
G01*
X155890200Y-67216600D01*
G75*
G02*
X156040200Y-67366600I0J-150000D01*
G01*
X156040200Y-70066600D01*
G75*
G02*
X155890200Y-70216600I-150000J0D01*
G01*
G37*
G36*
G01*
X154620200Y-70216600D02*
X154320200Y-70216600D01*
G75*
G02*
X154170200Y-70066600I0J150000D01*
G01*
X154170200Y-67366600D01*
G75*
G02*
X154320200Y-67216600I150000J0D01*
G01*
X154620200Y-67216600D01*
G75*
G02*
X154770200Y-67366600I0J-150000D01*
G01*
X154770200Y-70066600D01*
G75*
G02*
X154620200Y-70216600I-150000J0D01*
G01*
G37*
G36*
G01*
X154620200Y-76166600D02*
X154320200Y-76166600D01*
G75*
G02*
X154170200Y-76016600I0J150000D01*
G01*
X154170200Y-73316600D01*
G75*
G02*
X154320200Y-73166600I150000J0D01*
G01*
X154620200Y-73166600D01*
G75*
G02*
X154770200Y-73316600I0J-150000D01*
G01*
X154770200Y-76016600D01*
G75*
G02*
X154620200Y-76166600I-150000J0D01*
G01*
G37*
G36*
G01*
X155890200Y-76166600D02*
X155590200Y-76166600D01*
G75*
G02*
X155440200Y-76016600I0J150000D01*
G01*
X155440200Y-73316600D01*
G75*
G02*
X155590200Y-73166600I150000J0D01*
G01*
X155890200Y-73166600D01*
G75*
G02*
X156040200Y-73316600I0J-150000D01*
G01*
X156040200Y-76016600D01*
G75*
G02*
X155890200Y-76166600I-150000J0D01*
G01*
G37*
G36*
G01*
X157160200Y-76166600D02*
X156860200Y-76166600D01*
G75*
G02*
X156710200Y-76016600I0J150000D01*
G01*
X156710200Y-73316600D01*
G75*
G02*
X156860200Y-73166600I150000J0D01*
G01*
X157160200Y-73166600D01*
G75*
G02*
X157310200Y-73316600I0J-150000D01*
G01*
X157310200Y-76016600D01*
G75*
G02*
X157160200Y-76166600I-150000J0D01*
G01*
G37*
G36*
G01*
X158430200Y-76166600D02*
X158130200Y-76166600D01*
G75*
G02*
X157980200Y-76016600I0J150000D01*
G01*
X157980200Y-73316600D01*
G75*
G02*
X158130200Y-73166600I150000J0D01*
G01*
X158430200Y-73166600D01*
G75*
G02*
X158580200Y-73316600I0J-150000D01*
G01*
X158580200Y-76016600D01*
G75*
G02*
X158430200Y-76166600I-150000J0D01*
G01*
G37*
G36*
G01*
X159700200Y-76166600D02*
X159400200Y-76166600D01*
G75*
G02*
X159250200Y-76016600I0J150000D01*
G01*
X159250200Y-73316600D01*
G75*
G02*
X159400200Y-73166600I150000J0D01*
G01*
X159700200Y-73166600D01*
G75*
G02*
X159850200Y-73316600I0J-150000D01*
G01*
X159850200Y-76016600D01*
G75*
G02*
X159700200Y-76166600I-150000J0D01*
G01*
G37*
G36*
G01*
X160970200Y-76166600D02*
X160670200Y-76166600D01*
G75*
G02*
X160520200Y-76016600I0J150000D01*
G01*
X160520200Y-73316600D01*
G75*
G02*
X160670200Y-73166600I150000J0D01*
G01*
X160970200Y-73166600D01*
G75*
G02*
X161120200Y-73316600I0J-150000D01*
G01*
X161120200Y-76016600D01*
G75*
G02*
X160970200Y-76166600I-150000J0D01*
G01*
G37*
G36*
G01*
X162240200Y-76166600D02*
X161940200Y-76166600D01*
G75*
G02*
X161790200Y-76016600I0J150000D01*
G01*
X161790200Y-73316600D01*
G75*
G02*
X161940200Y-73166600I150000J0D01*
G01*
X162240200Y-73166600D01*
G75*
G02*
X162390200Y-73316600I0J-150000D01*
G01*
X162390200Y-76016600D01*
G75*
G02*
X162240200Y-76166600I-150000J0D01*
G01*
G37*
%TD*%
%TO.C,R6*%
G36*
G01*
X166595999Y-105662400D02*
X167846001Y-105662400D01*
G75*
G02*
X168096000Y-105912399I0J-249999D01*
G01*
X168096000Y-106712401D01*
G75*
G02*
X167846001Y-106962400I-249999J0D01*
G01*
X166595999Y-106962400D01*
G75*
G02*
X166346000Y-106712401I0J249999D01*
G01*
X166346000Y-105912399D01*
G75*
G02*
X166595999Y-105662400I249999J0D01*
G01*
G37*
G36*
G01*
X166595999Y-102562400D02*
X167846001Y-102562400D01*
G75*
G02*
X168096000Y-102812399I0J-249999D01*
G01*
X168096000Y-103612401D01*
G75*
G02*
X167846001Y-103862400I-249999J0D01*
G01*
X166595999Y-103862400D01*
G75*
G02*
X166346000Y-103612401I0J249999D01*
G01*
X166346000Y-102812399D01*
G75*
G02*
X166595999Y-102562400I249999J0D01*
G01*
G37*
%TD*%
%TO.C,R5*%
G36*
G01*
X168171200Y-100282001D02*
X168171200Y-99031999D01*
G75*
G02*
X168421199Y-98782000I249999J0D01*
G01*
X169221201Y-98782000D01*
G75*
G02*
X169471200Y-99031999I0J-249999D01*
G01*
X169471200Y-100282001D01*
G75*
G02*
X169221201Y-100532000I-249999J0D01*
G01*
X168421199Y-100532000D01*
G75*
G02*
X168171200Y-100282001I0J249999D01*
G01*
G37*
G36*
G01*
X165071200Y-100282001D02*
X165071200Y-99031999D01*
G75*
G02*
X165321199Y-98782000I249999J0D01*
G01*
X166121201Y-98782000D01*
G75*
G02*
X166371200Y-99031999I0J-249999D01*
G01*
X166371200Y-100282001D01*
G75*
G02*
X166121201Y-100532000I-249999J0D01*
G01*
X165321199Y-100532000D01*
G75*
G02*
X165071200Y-100282001I0J249999D01*
G01*
G37*
%TD*%
%TO.C,R8*%
G36*
G01*
X162868000Y-77235999D02*
X162868000Y-78136001D01*
G75*
G02*
X162618001Y-78386000I-249999J0D01*
G01*
X161917999Y-78386000D01*
G75*
G02*
X161668000Y-78136001I0J249999D01*
G01*
X161668000Y-77235999D01*
G75*
G02*
X161917999Y-76986000I249999J0D01*
G01*
X162618001Y-76986000D01*
G75*
G02*
X162868000Y-77235999I0J-249999D01*
G01*
G37*
G36*
G01*
X164868000Y-77235999D02*
X164868000Y-78136001D01*
G75*
G02*
X164618001Y-78386000I-249999J0D01*
G01*
X163917999Y-78386000D01*
G75*
G02*
X163668000Y-78136001I0J249999D01*
G01*
X163668000Y-77235999D01*
G75*
G02*
X163917999Y-76986000I249999J0D01*
G01*
X164618001Y-76986000D01*
G75*
G02*
X164868000Y-77235999I0J-249999D01*
G01*
G37*
%TD*%
%TO.C,R7*%
G36*
G01*
X157804000Y-77235999D02*
X157804000Y-78136001D01*
G75*
G02*
X157554001Y-78386000I-249999J0D01*
G01*
X156853999Y-78386000D01*
G75*
G02*
X156604000Y-78136001I0J249999D01*
G01*
X156604000Y-77235999D01*
G75*
G02*
X156853999Y-76986000I249999J0D01*
G01*
X157554001Y-76986000D01*
G75*
G02*
X157804000Y-77235999I0J-249999D01*
G01*
G37*
G36*
G01*
X159804000Y-77235999D02*
X159804000Y-78136001D01*
G75*
G02*
X159554001Y-78386000I-249999J0D01*
G01*
X158853999Y-78386000D01*
G75*
G02*
X158604000Y-78136001I0J249999D01*
G01*
X158604000Y-77235999D01*
G75*
G02*
X158853999Y-76986000I249999J0D01*
G01*
X159554001Y-76986000D01*
G75*
G02*
X159804000Y-77235999I0J-249999D01*
G01*
G37*
%TD*%
%TO.C,R4*%
G36*
G01*
X171431200Y-83331999D02*
X171431200Y-84232001D01*
G75*
G02*
X171181201Y-84482000I-249999J0D01*
G01*
X170481199Y-84482000D01*
G75*
G02*
X170231200Y-84232001I0J249999D01*
G01*
X170231200Y-83331999D01*
G75*
G02*
X170481199Y-83082000I249999J0D01*
G01*
X171181201Y-83082000D01*
G75*
G02*
X171431200Y-83331999I0J-249999D01*
G01*
G37*
G36*
G01*
X173431200Y-83331999D02*
X173431200Y-84232001D01*
G75*
G02*
X173181201Y-84482000I-249999J0D01*
G01*
X172481199Y-84482000D01*
G75*
G02*
X172231200Y-84232001I0J249999D01*
G01*
X172231200Y-83331999D01*
G75*
G02*
X172481199Y-83082000I249999J0D01*
G01*
X173181201Y-83082000D01*
G75*
G02*
X173431200Y-83331999I0J-249999D01*
G01*
G37*
%TD*%
%TO.C,R3*%
G36*
G01*
X171405200Y-86125999D02*
X171405200Y-87026001D01*
G75*
G02*
X171155201Y-87276000I-249999J0D01*
G01*
X170455199Y-87276000D01*
G75*
G02*
X170205200Y-87026001I0J249999D01*
G01*
X170205200Y-86125999D01*
G75*
G02*
X170455199Y-85876000I249999J0D01*
G01*
X171155201Y-85876000D01*
G75*
G02*
X171405200Y-86125999I0J-249999D01*
G01*
G37*
G36*
G01*
X173405200Y-86125999D02*
X173405200Y-87026001D01*
G75*
G02*
X173155201Y-87276000I-249999J0D01*
G01*
X172455199Y-87276000D01*
G75*
G02*
X172205200Y-87026001I0J249999D01*
G01*
X172205200Y-86125999D01*
G75*
G02*
X172455199Y-85876000I249999J0D01*
G01*
X173155201Y-85876000D01*
G75*
G02*
X173405200Y-86125999I0J-249999D01*
G01*
G37*
%TD*%
%TO.C,R2*%
G36*
G01*
X164611000Y-119906401D02*
X164611000Y-119006399D01*
G75*
G02*
X164860999Y-118756400I249999J0D01*
G01*
X165561001Y-118756400D01*
G75*
G02*
X165811000Y-119006399I0J-249999D01*
G01*
X165811000Y-119906401D01*
G75*
G02*
X165561001Y-120156400I-249999J0D01*
G01*
X164860999Y-120156400D01*
G75*
G02*
X164611000Y-119906401I0J249999D01*
G01*
G37*
G36*
G01*
X162611000Y-119906401D02*
X162611000Y-119006399D01*
G75*
G02*
X162860999Y-118756400I249999J0D01*
G01*
X163561001Y-118756400D01*
G75*
G02*
X163811000Y-119006399I0J-249999D01*
G01*
X163811000Y-119906401D01*
G75*
G02*
X163561001Y-120156400I-249999J0D01*
G01*
X162860999Y-120156400D01*
G75*
G02*
X162611000Y-119906401I0J249999D01*
G01*
G37*
%TD*%
%TO.C,R1*%
G36*
G01*
X164611000Y-117366401D02*
X164611000Y-116466399D01*
G75*
G02*
X164860999Y-116216400I249999J0D01*
G01*
X165561001Y-116216400D01*
G75*
G02*
X165811000Y-116466399I0J-249999D01*
G01*
X165811000Y-117366401D01*
G75*
G02*
X165561001Y-117616400I-249999J0D01*
G01*
X164860999Y-117616400D01*
G75*
G02*
X164611000Y-117366401I0J249999D01*
G01*
G37*
G36*
G01*
X162611000Y-117366401D02*
X162611000Y-116466399D01*
G75*
G02*
X162860999Y-116216400I249999J0D01*
G01*
X163561001Y-116216400D01*
G75*
G02*
X163811000Y-116466399I0J-249999D01*
G01*
X163811000Y-117366401D01*
G75*
G02*
X163561001Y-117616400I-249999J0D01*
G01*
X162860999Y-117616400D01*
G75*
G02*
X162611000Y-117366401I0J249999D01*
G01*
G37*
%TD*%
%TO.C,C10*%
G36*
G01*
X164104000Y-126995000D02*
X164104000Y-127945000D01*
G75*
G02*
X163854000Y-128195000I-250000J0D01*
G01*
X163179000Y-128195000D01*
G75*
G02*
X162929000Y-127945000I0J250000D01*
G01*
X162929000Y-126995000D01*
G75*
G02*
X163179000Y-126745000I250000J0D01*
G01*
X163854000Y-126745000D01*
G75*
G02*
X164104000Y-126995000I0J-250000D01*
G01*
G37*
G36*
G01*
X166179000Y-126995000D02*
X166179000Y-127945000D01*
G75*
G02*
X165929000Y-128195000I-250000J0D01*
G01*
X165254000Y-128195000D01*
G75*
G02*
X165004000Y-127945000I0J250000D01*
G01*
X165004000Y-126995000D01*
G75*
G02*
X165254000Y-126745000I250000J0D01*
G01*
X165929000Y-126745000D01*
G75*
G02*
X166179000Y-126995000I0J-250000D01*
G01*
G37*
%TD*%
%TO.C,C9*%
G36*
G01*
X159416000Y-127945000D02*
X159416000Y-126995000D01*
G75*
G02*
X159666000Y-126745000I250000J0D01*
G01*
X160341000Y-126745000D01*
G75*
G02*
X160591000Y-126995000I0J-250000D01*
G01*
X160591000Y-127945000D01*
G75*
G02*
X160341000Y-128195000I-250000J0D01*
G01*
X159666000Y-128195000D01*
G75*
G02*
X159416000Y-127945000I0J250000D01*
G01*
G37*
G36*
G01*
X157341000Y-127945000D02*
X157341000Y-126995000D01*
G75*
G02*
X157591000Y-126745000I250000J0D01*
G01*
X158266000Y-126745000D01*
G75*
G02*
X158516000Y-126995000I0J-250000D01*
G01*
X158516000Y-127945000D01*
G75*
G02*
X158266000Y-128195000I-250000J0D01*
G01*
X157591000Y-128195000D01*
G75*
G02*
X157341000Y-127945000I0J250000D01*
G01*
G37*
%TD*%
%TO.C,C8*%
G36*
G01*
X164231400Y-70516000D02*
X165181400Y-70516000D01*
G75*
G02*
X165431400Y-70766000I0J-250000D01*
G01*
X165431400Y-71441000D01*
G75*
G02*
X165181400Y-71691000I-250000J0D01*
G01*
X164231400Y-71691000D01*
G75*
G02*
X163981400Y-71441000I0J250000D01*
G01*
X163981400Y-70766000D01*
G75*
G02*
X164231400Y-70516000I250000J0D01*
G01*
G37*
G36*
G01*
X164231400Y-68441000D02*
X165181400Y-68441000D01*
G75*
G02*
X165431400Y-68691000I0J-250000D01*
G01*
X165431400Y-69366000D01*
G75*
G02*
X165181400Y-69616000I-250000J0D01*
G01*
X164231400Y-69616000D01*
G75*
G02*
X163981400Y-69366000I0J250000D01*
G01*
X163981400Y-68691000D01*
G75*
G02*
X164231400Y-68441000I250000J0D01*
G01*
G37*
%TD*%
%TO.C,C6*%
G36*
G01*
X162654000Y-110624400D02*
X161704000Y-110624400D01*
G75*
G02*
X161454000Y-110374400I0J250000D01*
G01*
X161454000Y-109699400D01*
G75*
G02*
X161704000Y-109449400I250000J0D01*
G01*
X162654000Y-109449400D01*
G75*
G02*
X162904000Y-109699400I0J-250000D01*
G01*
X162904000Y-110374400D01*
G75*
G02*
X162654000Y-110624400I-250000J0D01*
G01*
G37*
G36*
G01*
X162654000Y-112699400D02*
X161704000Y-112699400D01*
G75*
G02*
X161454000Y-112449400I0J250000D01*
G01*
X161454000Y-111774400D01*
G75*
G02*
X161704000Y-111524400I250000J0D01*
G01*
X162654000Y-111524400D01*
G75*
G02*
X162904000Y-111774400I0J-250000D01*
G01*
X162904000Y-112449400D01*
G75*
G02*
X162654000Y-112699400I-250000J0D01*
G01*
G37*
%TD*%
%TO.C,C5*%
G36*
G01*
X173388200Y-92880600D02*
X174338200Y-92880600D01*
G75*
G02*
X174588200Y-93130600I0J-250000D01*
G01*
X174588200Y-93805600D01*
G75*
G02*
X174338200Y-94055600I-250000J0D01*
G01*
X173388200Y-94055600D01*
G75*
G02*
X173138200Y-93805600I0J250000D01*
G01*
X173138200Y-93130600D01*
G75*
G02*
X173388200Y-92880600I250000J0D01*
G01*
G37*
G36*
G01*
X173388200Y-90805600D02*
X174338200Y-90805600D01*
G75*
G02*
X174588200Y-91055600I0J-250000D01*
G01*
X174588200Y-91730600D01*
G75*
G02*
X174338200Y-91980600I-250000J0D01*
G01*
X173388200Y-91980600D01*
G75*
G02*
X173138200Y-91730600I0J250000D01*
G01*
X173138200Y-91055600D01*
G75*
G02*
X173388200Y-90805600I250000J0D01*
G01*
G37*
%TD*%
%TO.C,C4*%
G36*
G01*
X167360200Y-83307000D02*
X167360200Y-84257000D01*
G75*
G02*
X167110200Y-84507000I-250000J0D01*
G01*
X166435200Y-84507000D01*
G75*
G02*
X166185200Y-84257000I0J250000D01*
G01*
X166185200Y-83307000D01*
G75*
G02*
X166435200Y-83057000I250000J0D01*
G01*
X167110200Y-83057000D01*
G75*
G02*
X167360200Y-83307000I0J-250000D01*
G01*
G37*
G36*
G01*
X165285200Y-83307000D02*
X165285200Y-84257000D01*
G75*
G02*
X165035200Y-84507000I-250000J0D01*
G01*
X164360200Y-84507000D01*
G75*
G02*
X164110200Y-84257000I0J250000D01*
G01*
X164110200Y-83307000D01*
G75*
G02*
X164360200Y-83057000I250000J0D01*
G01*
X165035200Y-83057000D01*
G75*
G02*
X165285200Y-83307000I0J-250000D01*
G01*
G37*
%TD*%
%TO.C,C3*%
G36*
G01*
X171074600Y-118572400D02*
X171074600Y-117622400D01*
G75*
G02*
X171324600Y-117372400I250000J0D01*
G01*
X171999600Y-117372400D01*
G75*
G02*
X172249600Y-117622400I0J-250000D01*
G01*
X172249600Y-118572400D01*
G75*
G02*
X171999600Y-118822400I-250000J0D01*
G01*
X171324600Y-118822400D01*
G75*
G02*
X171074600Y-118572400I0J250000D01*
G01*
G37*
G36*
G01*
X168999600Y-118572400D02*
X168999600Y-117622400D01*
G75*
G02*
X169249600Y-117372400I250000J0D01*
G01*
X169924600Y-117372400D01*
G75*
G02*
X170174600Y-117622400I0J-250000D01*
G01*
X170174600Y-118572400D01*
G75*
G02*
X169924600Y-118822400I-250000J0D01*
G01*
X169249600Y-118822400D01*
G75*
G02*
X168999600Y-118572400I0J250000D01*
G01*
G37*
%TD*%
%TO.C,C2*%
G36*
G01*
X164942600Y-91394800D02*
X165892600Y-91394800D01*
G75*
G02*
X166142600Y-91644800I0J-250000D01*
G01*
X166142600Y-92319800D01*
G75*
G02*
X165892600Y-92569800I-250000J0D01*
G01*
X164942600Y-92569800D01*
G75*
G02*
X164692600Y-92319800I0J250000D01*
G01*
X164692600Y-91644800D01*
G75*
G02*
X164942600Y-91394800I250000J0D01*
G01*
G37*
G36*
G01*
X164942600Y-89319800D02*
X165892600Y-89319800D01*
G75*
G02*
X166142600Y-89569800I0J-250000D01*
G01*
X166142600Y-90244800D01*
G75*
G02*
X165892600Y-90494800I-250000J0D01*
G01*
X164942600Y-90494800D01*
G75*
G02*
X164692600Y-90244800I0J250000D01*
G01*
X164692600Y-89569800D01*
G75*
G02*
X164942600Y-89319800I250000J0D01*
G01*
G37*
%TD*%
%TO.C,C1*%
G36*
G01*
X171074200Y-112364200D02*
X170124200Y-112364200D01*
G75*
G02*
X169874200Y-112114200I0J250000D01*
G01*
X169874200Y-111439200D01*
G75*
G02*
X170124200Y-111189200I250000J0D01*
G01*
X171074200Y-111189200D01*
G75*
G02*
X171324200Y-111439200I0J-250000D01*
G01*
X171324200Y-112114200D01*
G75*
G02*
X171074200Y-112364200I-250000J0D01*
G01*
G37*
G36*
G01*
X171074200Y-114439200D02*
X170124200Y-114439200D01*
G75*
G02*
X169874200Y-114189200I0J250000D01*
G01*
X169874200Y-113514200D01*
G75*
G02*
X170124200Y-113264200I250000J0D01*
G01*
X171074200Y-113264200D01*
G75*
G02*
X171324200Y-113514200I0J-250000D01*
G01*
X171324200Y-114189200D01*
G75*
G02*
X171074200Y-114439200I-250000J0D01*
G01*
G37*
%TD*%
D11*
%TO.C,D4*%
X116802000Y-108968000D03*
X116802000Y-113968000D03*
%TD*%
%TO.C,D3*%
X116802000Y-99316000D03*
X116802000Y-104316000D03*
%TD*%
%TO.C,D2*%
X116802000Y-89664000D03*
X116802000Y-94664000D03*
%TD*%
%TO.C,D1*%
X116802000Y-80012000D03*
X116802000Y-85012000D03*
%TD*%
D12*
%TO.C,Q1*%
X158980000Y-106920000D03*
X158980000Y-109920000D03*
D13*
G36*
X154380000Y-107553500D02*
G01*
X157505000Y-107553500D01*
X157505000Y-107970000D01*
X159742500Y-107970000D01*
X159742500Y-108870000D01*
X157505000Y-108870000D01*
X157505000Y-109286500D01*
X154380000Y-109286500D01*
X154380000Y-107553500D01*
G37*
%TD*%
%TO.C,U2*%
G36*
G01*
X171650200Y-95901600D02*
X171250200Y-95901600D01*
G75*
G02*
X171050200Y-95701600I0J200000D01*
G01*
X171050200Y-93601600D01*
G75*
G02*
X171250200Y-93401600I200000J0D01*
G01*
X171650200Y-93401600D01*
G75*
G02*
X171850200Y-93601600I0J-200000D01*
G01*
X171850200Y-95701600D01*
G75*
G02*
X171650200Y-95901600I-200000J0D01*
G01*
G37*
G36*
G01*
X170380200Y-95901600D02*
X169980200Y-95901600D01*
G75*
G02*
X169780200Y-95701600I0J200000D01*
G01*
X169780200Y-93601600D01*
G75*
G02*
X169980200Y-93401600I200000J0D01*
G01*
X170380200Y-93401600D01*
G75*
G02*
X170580200Y-93601600I0J-200000D01*
G01*
X170580200Y-95701600D01*
G75*
G02*
X170380200Y-95901600I-200000J0D01*
G01*
G37*
G36*
G01*
X169110200Y-95901600D02*
X168710200Y-95901600D01*
G75*
G02*
X168510200Y-95701600I0J200000D01*
G01*
X168510200Y-93601600D01*
G75*
G02*
X168710200Y-93401600I200000J0D01*
G01*
X169110200Y-93401600D01*
G75*
G02*
X169310200Y-93601600I0J-200000D01*
G01*
X169310200Y-95701600D01*
G75*
G02*
X169110200Y-95901600I-200000J0D01*
G01*
G37*
G36*
G01*
X167840200Y-95901600D02*
X167440200Y-95901600D01*
G75*
G02*
X167240200Y-95701600I0J200000D01*
G01*
X167240200Y-93601600D01*
G75*
G02*
X167440200Y-93401600I200000J0D01*
G01*
X167840200Y-93401600D01*
G75*
G02*
X168040200Y-93601600I0J-200000D01*
G01*
X168040200Y-95701600D01*
G75*
G02*
X167840200Y-95901600I-200000J0D01*
G01*
G37*
G36*
G01*
X167840200Y-90951600D02*
X167440200Y-90951600D01*
G75*
G02*
X167240200Y-90751600I0J200000D01*
G01*
X167240200Y-88651600D01*
G75*
G02*
X167440200Y-88451600I200000J0D01*
G01*
X167840200Y-88451600D01*
G75*
G02*
X168040200Y-88651600I0J-200000D01*
G01*
X168040200Y-90751600D01*
G75*
G02*
X167840200Y-90951600I-200000J0D01*
G01*
G37*
G36*
G01*
X169110200Y-90951600D02*
X168710200Y-90951600D01*
G75*
G02*
X168510200Y-90751600I0J200000D01*
G01*
X168510200Y-88651600D01*
G75*
G02*
X168710200Y-88451600I200000J0D01*
G01*
X169110200Y-88451600D01*
G75*
G02*
X169310200Y-88651600I0J-200000D01*
G01*
X169310200Y-90751600D01*
G75*
G02*
X169110200Y-90951600I-200000J0D01*
G01*
G37*
G36*
G01*
X170380200Y-90951600D02*
X169980200Y-90951600D01*
G75*
G02*
X169780200Y-90751600I0J200000D01*
G01*
X169780200Y-88651600D01*
G75*
G02*
X169980200Y-88451600I200000J0D01*
G01*
X170380200Y-88451600D01*
G75*
G02*
X170580200Y-88651600I0J-200000D01*
G01*
X170580200Y-90751600D01*
G75*
G02*
X170380200Y-90951600I-200000J0D01*
G01*
G37*
G36*
G01*
X171650200Y-90951600D02*
X171250200Y-90951600D01*
G75*
G02*
X171050200Y-90751600I0J200000D01*
G01*
X171050200Y-88651600D01*
G75*
G02*
X171250200Y-88451600I200000J0D01*
G01*
X171650200Y-88451600D01*
G75*
G02*
X171850200Y-88651600I0J-200000D01*
G01*
X171850200Y-90751600D01*
G75*
G02*
X171650200Y-90951600I-200000J0D01*
G01*
G37*
%TD*%
%TO.C,U1*%
G36*
G01*
X164392000Y-107857400D02*
X164792000Y-107857400D01*
G75*
G02*
X164992000Y-108057400I0J-200000D01*
G01*
X164992000Y-110157400D01*
G75*
G02*
X164792000Y-110357400I-200000J0D01*
G01*
X164392000Y-110357400D01*
G75*
G02*
X164192000Y-110157400I0J200000D01*
G01*
X164192000Y-108057400D01*
G75*
G02*
X164392000Y-107857400I200000J0D01*
G01*
G37*
G36*
G01*
X165662000Y-107857400D02*
X166062000Y-107857400D01*
G75*
G02*
X166262000Y-108057400I0J-200000D01*
G01*
X166262000Y-110157400D01*
G75*
G02*
X166062000Y-110357400I-200000J0D01*
G01*
X165662000Y-110357400D01*
G75*
G02*
X165462000Y-110157400I0J200000D01*
G01*
X165462000Y-108057400D01*
G75*
G02*
X165662000Y-107857400I200000J0D01*
G01*
G37*
G36*
G01*
X166932000Y-107857400D02*
X167332000Y-107857400D01*
G75*
G02*
X167532000Y-108057400I0J-200000D01*
G01*
X167532000Y-110157400D01*
G75*
G02*
X167332000Y-110357400I-200000J0D01*
G01*
X166932000Y-110357400D01*
G75*
G02*
X166732000Y-110157400I0J200000D01*
G01*
X166732000Y-108057400D01*
G75*
G02*
X166932000Y-107857400I200000J0D01*
G01*
G37*
G36*
G01*
X168202000Y-107857400D02*
X168602000Y-107857400D01*
G75*
G02*
X168802000Y-108057400I0J-200000D01*
G01*
X168802000Y-110157400D01*
G75*
G02*
X168602000Y-110357400I-200000J0D01*
G01*
X168202000Y-110357400D01*
G75*
G02*
X168002000Y-110157400I0J200000D01*
G01*
X168002000Y-108057400D01*
G75*
G02*
X168202000Y-107857400I200000J0D01*
G01*
G37*
G36*
G01*
X168202000Y-112807400D02*
X168602000Y-112807400D01*
G75*
G02*
X168802000Y-113007400I0J-200000D01*
G01*
X168802000Y-115107400D01*
G75*
G02*
X168602000Y-115307400I-200000J0D01*
G01*
X168202000Y-115307400D01*
G75*
G02*
X168002000Y-115107400I0J200000D01*
G01*
X168002000Y-113007400D01*
G75*
G02*
X168202000Y-112807400I200000J0D01*
G01*
G37*
G36*
G01*
X166932000Y-112807400D02*
X167332000Y-112807400D01*
G75*
G02*
X167532000Y-113007400I0J-200000D01*
G01*
X167532000Y-115107400D01*
G75*
G02*
X167332000Y-115307400I-200000J0D01*
G01*
X166932000Y-115307400D01*
G75*
G02*
X166732000Y-115107400I0J200000D01*
G01*
X166732000Y-113007400D01*
G75*
G02*
X166932000Y-112807400I200000J0D01*
G01*
G37*
G36*
G01*
X165662000Y-112807400D02*
X166062000Y-112807400D01*
G75*
G02*
X166262000Y-113007400I0J-200000D01*
G01*
X166262000Y-115107400D01*
G75*
G02*
X166062000Y-115307400I-200000J0D01*
G01*
X165662000Y-115307400D01*
G75*
G02*
X165462000Y-115107400I0J200000D01*
G01*
X165462000Y-113007400D01*
G75*
G02*
X165662000Y-112807400I200000J0D01*
G01*
G37*
G36*
G01*
X164392000Y-112807400D02*
X164792000Y-112807400D01*
G75*
G02*
X164992000Y-113007400I0J-200000D01*
G01*
X164992000Y-115107400D01*
G75*
G02*
X164792000Y-115307400I-200000J0D01*
G01*
X164392000Y-115307400D01*
G75*
G02*
X164192000Y-115107400I0J200000D01*
G01*
X164192000Y-113007400D01*
G75*
G02*
X164392000Y-112807400I200000J0D01*
G01*
G37*
%TD*%
D12*
%TO.C,Q4*%
X158726000Y-80758000D03*
X158726000Y-83758000D03*
D13*
G36*
X154126000Y-81391500D02*
G01*
X157251000Y-81391500D01*
X157251000Y-81808000D01*
X159488500Y-81808000D01*
X159488500Y-82708000D01*
X157251000Y-82708000D01*
X157251000Y-83124500D01*
X154126000Y-83124500D01*
X154126000Y-81391500D01*
G37*
%TD*%
D12*
%TO.C,Q3*%
X158726000Y-89902000D03*
X158726000Y-92902000D03*
D13*
G36*
X154126000Y-90535500D02*
G01*
X157251000Y-90535500D01*
X157251000Y-90952000D01*
X159488500Y-90952000D01*
X159488500Y-91852000D01*
X157251000Y-91852000D01*
X157251000Y-92268500D01*
X154126000Y-92268500D01*
X154126000Y-90535500D01*
G37*
%TD*%
D12*
%TO.C,Q2*%
X158726000Y-98284000D03*
X158726000Y-101284000D03*
D13*
G36*
X154126000Y-98917500D02*
G01*
X157251000Y-98917500D01*
X157251000Y-99334000D01*
X159488500Y-99334000D01*
X159488500Y-100234000D01*
X157251000Y-100234000D01*
X157251000Y-100650500D01*
X154126000Y-100650500D01*
X154126000Y-98917500D01*
G37*
%TD*%
M02*
