%TF.GenerationSoftware,KiCad,Pcbnew,(5.1.10)-1*%
%TF.CreationDate,2021-10-20T14:08:43+02:00*%
%TF.ProjectId,Base,42617365-2e6b-4696-9361-645f70636258,rev?*%
%TF.SameCoordinates,Original*%
%TF.FileFunction,Copper,L2,Bot*%
%TF.FilePolarity,Positive*%
%FSLAX46Y46*%
G04 Gerber Fmt 4.6, Leading zero omitted, Abs format (unit mm)*
G04 Created by KiCad (PCBNEW (5.1.10)-1) date 2021-10-20 14:08:43*
%MOMM*%
%LPD*%
G01*
G04 APERTURE LIST*
%TA.AperFunction,SMDPad,CuDef*%
%ADD10R,1.800000X3.500000*%
%TD*%
%TA.AperFunction,ComponentPad*%
%ADD11C,2.000000*%
%TD*%
%TA.AperFunction,SMDPad,CuDef*%
%ADD12R,0.900000X2.600000*%
%TD*%
%TA.AperFunction,SMDPad,CuDef*%
%ADD13C,0.100000*%
%TD*%
%TA.AperFunction,ComponentPad*%
%ADD14O,4.000000X6.500000*%
%TD*%
%TA.AperFunction,ComponentPad*%
%ADD15O,6.500000X4.000000*%
%TD*%
%TA.AperFunction,ComponentPad*%
%ADD16C,6.000000*%
%TD*%
%TA.AperFunction,ComponentPad*%
%ADD17C,4.000000*%
%TD*%
%TA.AperFunction,SMDPad,CuDef*%
%ADD18R,12.000000X8.000000*%
%TD*%
%TA.AperFunction,ViaPad*%
%ADD19C,1.000000*%
%TD*%
%TA.AperFunction,ViaPad*%
%ADD20C,0.800000*%
%TD*%
%TA.AperFunction,Conductor*%
%ADD21C,0.600000*%
%TD*%
%TA.AperFunction,Conductor*%
%ADD22C,1.000000*%
%TD*%
%TA.AperFunction,Conductor*%
%ADD23C,0.250000*%
%TD*%
%TA.AperFunction,Conductor*%
%ADD24C,0.254000*%
%TD*%
%TA.AperFunction,Conductor*%
%ADD25C,0.100000*%
%TD*%
G04 APERTURE END LIST*
D10*
%TO.P,D4,2*%
%TO.N,+9V*%
X116802000Y-114984000D03*
%TO.P,D4,1*%
%TO.N,/LED_MATRIX_1*%
X116802000Y-109984000D03*
%TD*%
%TO.P,D3,2*%
%TO.N,+9V*%
X116802000Y-94410000D03*
%TO.P,D3,1*%
%TO.N,/LED_MATRIX_2*%
X116802000Y-89410000D03*
%TD*%
%TO.P,D2,2*%
%TO.N,+9V*%
X116802000Y-104316000D03*
%TO.P,D2,1*%
%TO.N,/LED_MATRIX_3*%
X116802000Y-99316000D03*
%TD*%
%TO.P,D1,2*%
%TO.N,+9V*%
X116802000Y-85012000D03*
%TO.P,D1,1*%
%TO.N,/LED_MATRIX_4*%
X116802000Y-80012000D03*
%TD*%
%TO.P,C8,2*%
%TO.N,GND*%
%TA.AperFunction,SMDPad,CuDef*%
G36*
G01*
X159844000Y-68145999D02*
X159844000Y-69446001D01*
G75*
G02*
X159594001Y-69696000I-249999J0D01*
G01*
X158768999Y-69696000D01*
G75*
G02*
X158519000Y-69446001I0J249999D01*
G01*
X158519000Y-68145999D01*
G75*
G02*
X158768999Y-67896000I249999J0D01*
G01*
X159594001Y-67896000D01*
G75*
G02*
X159844000Y-68145999I0J-249999D01*
G01*
G37*
%TD.AperFunction*%
%TO.P,C8,1*%
%TO.N,VCC*%
%TA.AperFunction,SMDPad,CuDef*%
G36*
G01*
X162969000Y-68145999D02*
X162969000Y-69446001D01*
G75*
G02*
X162719001Y-69696000I-249999J0D01*
G01*
X161893999Y-69696000D01*
G75*
G02*
X161644000Y-69446001I0J249999D01*
G01*
X161644000Y-68145999D01*
G75*
G02*
X161893999Y-67896000I249999J0D01*
G01*
X162719001Y-67896000D01*
G75*
G02*
X162969000Y-68145999I0J-249999D01*
G01*
G37*
%TD.AperFunction*%
%TD*%
D11*
%TO.P,SW1,3*%
%TO.N,+9V*%
X155408000Y-114516000D03*
%TO.P,SW1,2*%
%TO.N,Net-(BT3-Pad1)*%
X155408000Y-119216000D03*
%TO.P,SW1,1*%
%TO.N,VCC*%
X155408000Y-123916000D03*
%TD*%
D12*
%TO.P,Q1,1*%
%TO.N,Net-(Q1-Pad1)*%
X158434000Y-107418000D03*
%TO.P,Q1,3*%
%TO.N,/LED_MATRIX_1*%
X155434000Y-107418000D03*
%TA.AperFunction,SMDPad,CuDef*%
D13*
%TO.P,Q1,2*%
%TO.N,VCC*%
G36*
X157800500Y-102818000D02*
G01*
X157800500Y-105943000D01*
X157384000Y-105943000D01*
X157384000Y-107418000D01*
X156484000Y-107418000D01*
X156484000Y-105943000D01*
X156067500Y-105943000D01*
X156067500Y-102818000D01*
X157800500Y-102818000D01*
G37*
%TD.AperFunction*%
%TD*%
D14*
%TO.P,C7,6*%
%TO.N,/LED_MATRIX_2*%
X137122000Y-104668000D03*
%TO.P,C7,5*%
%TO.N,GND*%
X137122000Y-96668000D03*
%TO.P,C7,2*%
%TO.N,/LED_MATRIX_4*%
X137122000Y-80168000D03*
%TO.P,C7,1*%
%TO.N,GND*%
X137122000Y-88168000D03*
D15*
%TO.P,C7,8*%
%TO.N,/LED_MATRIX_1*%
X124872000Y-92418000D03*
%TO.P,C7,7*%
%TO.N,GND*%
X132872000Y-92418000D03*
%TO.P,C7,4*%
%TO.N,/LED_MATRIX_3*%
X149372000Y-92418000D03*
%TO.P,C7,3*%
%TO.N,GND*%
X141372000Y-92418000D03*
%TD*%
%TO.P,U3,1*%
%TO.N,Net-(Q1-Pad1)*%
%TA.AperFunction,SMDPad,CuDef*%
G36*
G01*
X162418000Y-82091000D02*
X162118000Y-82091000D01*
G75*
G02*
X161968000Y-81941000I0J150000D01*
G01*
X161968000Y-80191000D01*
G75*
G02*
X162118000Y-80041000I150000J0D01*
G01*
X162418000Y-80041000D01*
G75*
G02*
X162568000Y-80191000I0J-150000D01*
G01*
X162568000Y-81941000D01*
G75*
G02*
X162418000Y-82091000I-150000J0D01*
G01*
G37*
%TD.AperFunction*%
%TO.P,U3,2*%
%TO.N,Net-(Q3-Pad1)*%
%TA.AperFunction,SMDPad,CuDef*%
G36*
G01*
X161148000Y-82091000D02*
X160848000Y-82091000D01*
G75*
G02*
X160698000Y-81941000I0J150000D01*
G01*
X160698000Y-80191000D01*
G75*
G02*
X160848000Y-80041000I150000J0D01*
G01*
X161148000Y-80041000D01*
G75*
G02*
X161298000Y-80191000I0J-150000D01*
G01*
X161298000Y-81941000D01*
G75*
G02*
X161148000Y-82091000I-150000J0D01*
G01*
G37*
%TD.AperFunction*%
%TO.P,U3,3*%
%TO.N,Net-(Q2-Pad1)*%
%TA.AperFunction,SMDPad,CuDef*%
G36*
G01*
X159878000Y-82091000D02*
X159578000Y-82091000D01*
G75*
G02*
X159428000Y-81941000I0J150000D01*
G01*
X159428000Y-80191000D01*
G75*
G02*
X159578000Y-80041000I150000J0D01*
G01*
X159878000Y-80041000D01*
G75*
G02*
X160028000Y-80191000I0J-150000D01*
G01*
X160028000Y-81941000D01*
G75*
G02*
X159878000Y-82091000I-150000J0D01*
G01*
G37*
%TD.AperFunction*%
%TO.P,U3,4*%
%TO.N,Net-(Q4-Pad1)*%
%TA.AperFunction,SMDPad,CuDef*%
G36*
G01*
X158608000Y-82091000D02*
X158308000Y-82091000D01*
G75*
G02*
X158158000Y-81941000I0J150000D01*
G01*
X158158000Y-80191000D01*
G75*
G02*
X158308000Y-80041000I150000J0D01*
G01*
X158608000Y-80041000D01*
G75*
G02*
X158758000Y-80191000I0J-150000D01*
G01*
X158758000Y-81941000D01*
G75*
G02*
X158608000Y-82091000I-150000J0D01*
G01*
G37*
%TD.AperFunction*%
%TO.P,U3,5*%
%TO.N,N/C*%
%TA.AperFunction,SMDPad,CuDef*%
G36*
G01*
X157338000Y-82091000D02*
X157038000Y-82091000D01*
G75*
G02*
X156888000Y-81941000I0J150000D01*
G01*
X156888000Y-80191000D01*
G75*
G02*
X157038000Y-80041000I150000J0D01*
G01*
X157338000Y-80041000D01*
G75*
G02*
X157488000Y-80191000I0J-150000D01*
G01*
X157488000Y-81941000D01*
G75*
G02*
X157338000Y-82091000I-150000J0D01*
G01*
G37*
%TD.AperFunction*%
%TO.P,U3,6*%
%TA.AperFunction,SMDPad,CuDef*%
G36*
G01*
X156068000Y-82091000D02*
X155768000Y-82091000D01*
G75*
G02*
X155618000Y-81941000I0J150000D01*
G01*
X155618000Y-80191000D01*
G75*
G02*
X155768000Y-80041000I150000J0D01*
G01*
X156068000Y-80041000D01*
G75*
G02*
X156218000Y-80191000I0J-150000D01*
G01*
X156218000Y-81941000D01*
G75*
G02*
X156068000Y-82091000I-150000J0D01*
G01*
G37*
%TD.AperFunction*%
%TO.P,U3,7*%
%TO.N,GND*%
%TA.AperFunction,SMDPad,CuDef*%
G36*
G01*
X154798000Y-82091000D02*
X154498000Y-82091000D01*
G75*
G02*
X154348000Y-81941000I0J150000D01*
G01*
X154348000Y-80191000D01*
G75*
G02*
X154498000Y-80041000I150000J0D01*
G01*
X154798000Y-80041000D01*
G75*
G02*
X154948000Y-80191000I0J-150000D01*
G01*
X154948000Y-81941000D01*
G75*
G02*
X154798000Y-82091000I-150000J0D01*
G01*
G37*
%TD.AperFunction*%
%TO.P,U3,8*%
%TO.N,N/C*%
%TA.AperFunction,SMDPad,CuDef*%
G36*
G01*
X154798000Y-72791000D02*
X154498000Y-72791000D01*
G75*
G02*
X154348000Y-72641000I0J150000D01*
G01*
X154348000Y-70891000D01*
G75*
G02*
X154498000Y-70741000I150000J0D01*
G01*
X154798000Y-70741000D01*
G75*
G02*
X154948000Y-70891000I0J-150000D01*
G01*
X154948000Y-72641000D01*
G75*
G02*
X154798000Y-72791000I-150000J0D01*
G01*
G37*
%TD.AperFunction*%
%TO.P,U3,9*%
%TA.AperFunction,SMDPad,CuDef*%
G36*
G01*
X156068000Y-72791000D02*
X155768000Y-72791000D01*
G75*
G02*
X155618000Y-72641000I0J150000D01*
G01*
X155618000Y-70891000D01*
G75*
G02*
X155768000Y-70741000I150000J0D01*
G01*
X156068000Y-70741000D01*
G75*
G02*
X156218000Y-70891000I0J-150000D01*
G01*
X156218000Y-72641000D01*
G75*
G02*
X156068000Y-72791000I-150000J0D01*
G01*
G37*
%TD.AperFunction*%
%TO.P,U3,10*%
%TA.AperFunction,SMDPad,CuDef*%
G36*
G01*
X157338000Y-72791000D02*
X157038000Y-72791000D01*
G75*
G02*
X156888000Y-72641000I0J150000D01*
G01*
X156888000Y-70891000D01*
G75*
G02*
X157038000Y-70741000I150000J0D01*
G01*
X157338000Y-70741000D01*
G75*
G02*
X157488000Y-70891000I0J-150000D01*
G01*
X157488000Y-72641000D01*
G75*
G02*
X157338000Y-72791000I-150000J0D01*
G01*
G37*
%TD.AperFunction*%
%TO.P,U3,11*%
%TA.AperFunction,SMDPad,CuDef*%
G36*
G01*
X158608000Y-72791000D02*
X158308000Y-72791000D01*
G75*
G02*
X158158000Y-72641000I0J150000D01*
G01*
X158158000Y-70891000D01*
G75*
G02*
X158308000Y-70741000I150000J0D01*
G01*
X158608000Y-70741000D01*
G75*
G02*
X158758000Y-70891000I0J-150000D01*
G01*
X158758000Y-72641000D01*
G75*
G02*
X158608000Y-72791000I-150000J0D01*
G01*
G37*
%TD.AperFunction*%
%TO.P,U3,12*%
%TA.AperFunction,SMDPad,CuDef*%
G36*
G01*
X159878000Y-72791000D02*
X159578000Y-72791000D01*
G75*
G02*
X159428000Y-72641000I0J150000D01*
G01*
X159428000Y-70891000D01*
G75*
G02*
X159578000Y-70741000I150000J0D01*
G01*
X159878000Y-70741000D01*
G75*
G02*
X160028000Y-70891000I0J-150000D01*
G01*
X160028000Y-72641000D01*
G75*
G02*
X159878000Y-72791000I-150000J0D01*
G01*
G37*
%TD.AperFunction*%
%TO.P,U3,13*%
%TA.AperFunction,SMDPad,CuDef*%
G36*
G01*
X161148000Y-72791000D02*
X160848000Y-72791000D01*
G75*
G02*
X160698000Y-72641000I0J150000D01*
G01*
X160698000Y-70891000D01*
G75*
G02*
X160848000Y-70741000I150000J0D01*
G01*
X161148000Y-70741000D01*
G75*
G02*
X161298000Y-70891000I0J-150000D01*
G01*
X161298000Y-72641000D01*
G75*
G02*
X161148000Y-72791000I-150000J0D01*
G01*
G37*
%TD.AperFunction*%
%TO.P,U3,14*%
%TO.N,VCC*%
%TA.AperFunction,SMDPad,CuDef*%
G36*
G01*
X162418000Y-72791000D02*
X162118000Y-72791000D01*
G75*
G02*
X161968000Y-72641000I0J150000D01*
G01*
X161968000Y-70891000D01*
G75*
G02*
X162118000Y-70741000I150000J0D01*
G01*
X162418000Y-70741000D01*
G75*
G02*
X162568000Y-70891000I0J-150000D01*
G01*
X162568000Y-72641000D01*
G75*
G02*
X162418000Y-72791000I-150000J0D01*
G01*
G37*
%TD.AperFunction*%
%TD*%
D16*
%TO.P,BT3,3*%
%TO.N,N/C*%
X125270000Y-111670000D03*
D17*
%TO.P,BT3,4*%
X147270000Y-97520000D03*
D16*
%TO.P,BT3,5*%
X125270000Y-83370000D03*
D18*
%TO.P,BT3,2*%
%TO.N,GND*%
X128695000Y-124720000D03*
%TO.P,BT3,1*%
%TO.N,Net-(BT3-Pad1)*%
X143845000Y-124720000D03*
%TD*%
%TO.P,C6,1*%
%TO.N,VCC*%
%TA.AperFunction,SMDPad,CuDef*%
G36*
G01*
X162829002Y-113299400D02*
X161528998Y-113299400D01*
G75*
G02*
X161279000Y-113049402I0J249998D01*
G01*
X161279000Y-112224398D01*
G75*
G02*
X161528998Y-111974400I249998J0D01*
G01*
X162829002Y-111974400D01*
G75*
G02*
X163079000Y-112224398I0J-249998D01*
G01*
X163079000Y-113049402D01*
G75*
G02*
X162829002Y-113299400I-249998J0D01*
G01*
G37*
%TD.AperFunction*%
%TO.P,C6,2*%
%TO.N,GND*%
%TA.AperFunction,SMDPad,CuDef*%
G36*
G01*
X162829002Y-110174400D02*
X161528998Y-110174400D01*
G75*
G02*
X161279000Y-109924402I0J249998D01*
G01*
X161279000Y-109099398D01*
G75*
G02*
X161528998Y-108849400I249998J0D01*
G01*
X162829002Y-108849400D01*
G75*
G02*
X163079000Y-109099398I0J-249998D01*
G01*
X163079000Y-109924402D01*
G75*
G02*
X162829002Y-110174400I-249998J0D01*
G01*
G37*
%TD.AperFunction*%
%TD*%
%TO.P,C5,1*%
%TO.N,VCC*%
%TA.AperFunction,SMDPad,CuDef*%
G36*
G01*
X173213198Y-90205600D02*
X174513202Y-90205600D01*
G75*
G02*
X174763200Y-90455598I0J-249998D01*
G01*
X174763200Y-91280602D01*
G75*
G02*
X174513202Y-91530600I-249998J0D01*
G01*
X173213198Y-91530600D01*
G75*
G02*
X172963200Y-91280602I0J249998D01*
G01*
X172963200Y-90455598D01*
G75*
G02*
X173213198Y-90205600I249998J0D01*
G01*
G37*
%TD.AperFunction*%
%TO.P,C5,2*%
%TO.N,GND*%
%TA.AperFunction,SMDPad,CuDef*%
G36*
G01*
X173213198Y-93330600D02*
X174513202Y-93330600D01*
G75*
G02*
X174763200Y-93580598I0J-249998D01*
G01*
X174763200Y-94405602D01*
G75*
G02*
X174513202Y-94655600I-249998J0D01*
G01*
X173213198Y-94655600D01*
G75*
G02*
X172963200Y-94405602I0J249998D01*
G01*
X172963200Y-93580598D01*
G75*
G02*
X173213198Y-93330600I249998J0D01*
G01*
G37*
%TD.AperFunction*%
%TD*%
%TO.P,R6,1*%
%TO.N,Net-(Q1-Pad1)*%
%TA.AperFunction,SMDPad,CuDef*%
G36*
G01*
X166595999Y-102562400D02*
X167846001Y-102562400D01*
G75*
G02*
X168096000Y-102812399I0J-249999D01*
G01*
X168096000Y-103612401D01*
G75*
G02*
X167846001Y-103862400I-249999J0D01*
G01*
X166595999Y-103862400D01*
G75*
G02*
X166346000Y-103612401I0J249999D01*
G01*
X166346000Y-102812399D01*
G75*
G02*
X166595999Y-102562400I249999J0D01*
G01*
G37*
%TD.AperFunction*%
%TO.P,R6,2*%
%TO.N,Net-(R6-Pad2)*%
%TA.AperFunction,SMDPad,CuDef*%
G36*
G01*
X166595999Y-105662400D02*
X167846001Y-105662400D01*
G75*
G02*
X168096000Y-105912399I0J-249999D01*
G01*
X168096000Y-106712401D01*
G75*
G02*
X167846001Y-106962400I-249999J0D01*
G01*
X166595999Y-106962400D01*
G75*
G02*
X166346000Y-106712401I0J249999D01*
G01*
X166346000Y-105912399D01*
G75*
G02*
X166595999Y-105662400I249999J0D01*
G01*
G37*
%TD.AperFunction*%
%TD*%
%TO.P,R5,1*%
%TO.N,Net-(Q2-Pad1)*%
%TA.AperFunction,SMDPad,CuDef*%
G36*
G01*
X165071200Y-100282001D02*
X165071200Y-99031999D01*
G75*
G02*
X165321199Y-98782000I249999J0D01*
G01*
X166121201Y-98782000D01*
G75*
G02*
X166371200Y-99031999I0J-249999D01*
G01*
X166371200Y-100282001D01*
G75*
G02*
X166121201Y-100532000I-249999J0D01*
G01*
X165321199Y-100532000D01*
G75*
G02*
X165071200Y-100282001I0J249999D01*
G01*
G37*
%TD.AperFunction*%
%TO.P,R5,2*%
%TO.N,Net-(R5-Pad2)*%
%TA.AperFunction,SMDPad,CuDef*%
G36*
G01*
X168171200Y-100282001D02*
X168171200Y-99031999D01*
G75*
G02*
X168421199Y-98782000I249999J0D01*
G01*
X169221201Y-98782000D01*
G75*
G02*
X169471200Y-99031999I0J-249999D01*
G01*
X169471200Y-100282001D01*
G75*
G02*
X169221201Y-100532000I-249999J0D01*
G01*
X168421199Y-100532000D01*
G75*
G02*
X168171200Y-100282001I0J249999D01*
G01*
G37*
%TD.AperFunction*%
%TD*%
%TO.P,R4,1*%
%TO.N,Net-(R3-Pad2)*%
%TA.AperFunction,SMDPad,CuDef*%
G36*
G01*
X174031200Y-83931599D02*
X174031200Y-85181601D01*
G75*
G02*
X173781201Y-85431600I-249999J0D01*
G01*
X172981199Y-85431600D01*
G75*
G02*
X172731200Y-85181601I0J249999D01*
G01*
X172731200Y-83931599D01*
G75*
G02*
X172981199Y-83681600I249999J0D01*
G01*
X173781201Y-83681600D01*
G75*
G02*
X174031200Y-83931599I0J-249999D01*
G01*
G37*
%TD.AperFunction*%
%TO.P,R4,2*%
%TO.N,Net-(C4-Pad1)*%
%TA.AperFunction,SMDPad,CuDef*%
G36*
G01*
X170931200Y-83931599D02*
X170931200Y-85181601D01*
G75*
G02*
X170681201Y-85431600I-249999J0D01*
G01*
X169881199Y-85431600D01*
G75*
G02*
X169631200Y-85181601I0J249999D01*
G01*
X169631200Y-83931599D01*
G75*
G02*
X169881199Y-83681600I249999J0D01*
G01*
X170681201Y-83681600D01*
G75*
G02*
X170931200Y-83931599I0J-249999D01*
G01*
G37*
%TD.AperFunction*%
%TD*%
%TO.P,R3,1*%
%TO.N,VCC*%
%TA.AperFunction,SMDPad,CuDef*%
G36*
G01*
X174005200Y-86471599D02*
X174005200Y-87721601D01*
G75*
G02*
X173755201Y-87971600I-249999J0D01*
G01*
X172955199Y-87971600D01*
G75*
G02*
X172705200Y-87721601I0J249999D01*
G01*
X172705200Y-86471599D01*
G75*
G02*
X172955199Y-86221600I249999J0D01*
G01*
X173755201Y-86221600D01*
G75*
G02*
X174005200Y-86471599I0J-249999D01*
G01*
G37*
%TD.AperFunction*%
%TO.P,R3,2*%
%TO.N,Net-(R3-Pad2)*%
%TA.AperFunction,SMDPad,CuDef*%
G36*
G01*
X170905200Y-86471599D02*
X170905200Y-87721601D01*
G75*
G02*
X170655201Y-87971600I-249999J0D01*
G01*
X169855199Y-87971600D01*
G75*
G02*
X169605200Y-87721601I0J249999D01*
G01*
X169605200Y-86471599D01*
G75*
G02*
X169855199Y-86221600I249999J0D01*
G01*
X170655201Y-86221600D01*
G75*
G02*
X170905200Y-86471599I0J-249999D01*
G01*
G37*
%TD.AperFunction*%
%TD*%
%TO.P,R2,1*%
%TO.N,Net-(R1-Pad2)*%
%TA.AperFunction,SMDPad,CuDef*%
G36*
G01*
X162011000Y-120081401D02*
X162011000Y-118831399D01*
G75*
G02*
X162260999Y-118581400I249999J0D01*
G01*
X163061001Y-118581400D01*
G75*
G02*
X163311000Y-118831399I0J-249999D01*
G01*
X163311000Y-120081401D01*
G75*
G02*
X163061001Y-120331400I-249999J0D01*
G01*
X162260999Y-120331400D01*
G75*
G02*
X162011000Y-120081401I0J249999D01*
G01*
G37*
%TD.AperFunction*%
%TO.P,R2,2*%
%TO.N,Net-(C3-Pad1)*%
%TA.AperFunction,SMDPad,CuDef*%
G36*
G01*
X165111000Y-120081401D02*
X165111000Y-118831399D01*
G75*
G02*
X165360999Y-118581400I249999J0D01*
G01*
X166161001Y-118581400D01*
G75*
G02*
X166411000Y-118831399I0J-249999D01*
G01*
X166411000Y-120081401D01*
G75*
G02*
X166161001Y-120331400I-249999J0D01*
G01*
X165360999Y-120331400D01*
G75*
G02*
X165111000Y-120081401I0J249999D01*
G01*
G37*
%TD.AperFunction*%
%TD*%
%TO.P,R1,1*%
%TO.N,VCC*%
%TA.AperFunction,SMDPad,CuDef*%
G36*
G01*
X162011000Y-117541401D02*
X162011000Y-116291399D01*
G75*
G02*
X162260999Y-116041400I249999J0D01*
G01*
X163061001Y-116041400D01*
G75*
G02*
X163311000Y-116291399I0J-249999D01*
G01*
X163311000Y-117541401D01*
G75*
G02*
X163061001Y-117791400I-249999J0D01*
G01*
X162260999Y-117791400D01*
G75*
G02*
X162011000Y-117541401I0J249999D01*
G01*
G37*
%TD.AperFunction*%
%TO.P,R1,2*%
%TO.N,Net-(R1-Pad2)*%
%TA.AperFunction,SMDPad,CuDef*%
G36*
G01*
X165111000Y-117541401D02*
X165111000Y-116291399D01*
G75*
G02*
X165360999Y-116041400I249999J0D01*
G01*
X166161001Y-116041400D01*
G75*
G02*
X166411000Y-116291399I0J-249999D01*
G01*
X166411000Y-117541401D01*
G75*
G02*
X166161001Y-117791400I-249999J0D01*
G01*
X165360999Y-117791400D01*
G75*
G02*
X165111000Y-117541401I0J249999D01*
G01*
G37*
%TD.AperFunction*%
%TD*%
%TO.P,C4,1*%
%TO.N,Net-(C4-Pad1)*%
%TA.AperFunction,SMDPad,CuDef*%
G36*
G01*
X167960200Y-83906598D02*
X167960200Y-85206602D01*
G75*
G02*
X167710202Y-85456600I-249998J0D01*
G01*
X166885198Y-85456600D01*
G75*
G02*
X166635200Y-85206602I0J249998D01*
G01*
X166635200Y-83906598D01*
G75*
G02*
X166885198Y-83656600I249998J0D01*
G01*
X167710202Y-83656600D01*
G75*
G02*
X167960200Y-83906598I0J-249998D01*
G01*
G37*
%TD.AperFunction*%
%TO.P,C4,2*%
%TO.N,GND*%
%TA.AperFunction,SMDPad,CuDef*%
G36*
G01*
X164835200Y-83906598D02*
X164835200Y-85206602D01*
G75*
G02*
X164585202Y-85456600I-249998J0D01*
G01*
X163760198Y-85456600D01*
G75*
G02*
X163510200Y-85206602I0J249998D01*
G01*
X163510200Y-83906598D01*
G75*
G02*
X163760198Y-83656600I249998J0D01*
G01*
X164585202Y-83656600D01*
G75*
G02*
X164835200Y-83906598I0J-249998D01*
G01*
G37*
%TD.AperFunction*%
%TD*%
%TO.P,C3,1*%
%TO.N,Net-(C3-Pad1)*%
%TA.AperFunction,SMDPad,CuDef*%
G36*
G01*
X167828000Y-120106402D02*
X167828000Y-118806398D01*
G75*
G02*
X168077998Y-118556400I249998J0D01*
G01*
X168903002Y-118556400D01*
G75*
G02*
X169153000Y-118806398I0J-249998D01*
G01*
X169153000Y-120106402D01*
G75*
G02*
X168903002Y-120356400I-249998J0D01*
G01*
X168077998Y-120356400D01*
G75*
G02*
X167828000Y-120106402I0J249998D01*
G01*
G37*
%TD.AperFunction*%
%TO.P,C3,2*%
%TO.N,GND*%
%TA.AperFunction,SMDPad,CuDef*%
G36*
G01*
X170953000Y-120106402D02*
X170953000Y-118806398D01*
G75*
G02*
X171202998Y-118556400I249998J0D01*
G01*
X172028002Y-118556400D01*
G75*
G02*
X172278000Y-118806398I0J-249998D01*
G01*
X172278000Y-120106402D01*
G75*
G02*
X172028002Y-120356400I-249998J0D01*
G01*
X171202998Y-120356400D01*
G75*
G02*
X170953000Y-120106402I0J249998D01*
G01*
G37*
%TD.AperFunction*%
%TD*%
%TO.P,C2,1*%
%TO.N,Net-(C2-Pad1)*%
%TA.AperFunction,SMDPad,CuDef*%
G36*
G01*
X167960200Y-86446598D02*
X167960200Y-87746602D01*
G75*
G02*
X167710202Y-87996600I-249998J0D01*
G01*
X166885198Y-87996600D01*
G75*
G02*
X166635200Y-87746602I0J249998D01*
G01*
X166635200Y-86446598D01*
G75*
G02*
X166885198Y-86196600I249998J0D01*
G01*
X167710202Y-86196600D01*
G75*
G02*
X167960200Y-86446598I0J-249998D01*
G01*
G37*
%TD.AperFunction*%
%TO.P,C2,2*%
%TO.N,GND*%
%TA.AperFunction,SMDPad,CuDef*%
G36*
G01*
X164835200Y-86446598D02*
X164835200Y-87746602D01*
G75*
G02*
X164585202Y-87996600I-249998J0D01*
G01*
X163760198Y-87996600D01*
G75*
G02*
X163510200Y-87746602I0J249998D01*
G01*
X163510200Y-86446598D01*
G75*
G02*
X163760198Y-86196600I249998J0D01*
G01*
X164585202Y-86196600D01*
G75*
G02*
X164835200Y-86446598I0J-249998D01*
G01*
G37*
%TD.AperFunction*%
%TD*%
%TO.P,C1,1*%
%TO.N,Net-(C1-Pad1)*%
%TA.AperFunction,SMDPad,CuDef*%
G36*
G01*
X167828000Y-117566402D02*
X167828000Y-116266398D01*
G75*
G02*
X168077998Y-116016400I249998J0D01*
G01*
X168903002Y-116016400D01*
G75*
G02*
X169153000Y-116266398I0J-249998D01*
G01*
X169153000Y-117566402D01*
G75*
G02*
X168903002Y-117816400I-249998J0D01*
G01*
X168077998Y-117816400D01*
G75*
G02*
X167828000Y-117566402I0J249998D01*
G01*
G37*
%TD.AperFunction*%
%TO.P,C1,2*%
%TO.N,GND*%
%TA.AperFunction,SMDPad,CuDef*%
G36*
G01*
X170953000Y-117566402D02*
X170953000Y-116266398D01*
G75*
G02*
X171202998Y-116016400I249998J0D01*
G01*
X172028002Y-116016400D01*
G75*
G02*
X172278000Y-116266398I0J-249998D01*
G01*
X172278000Y-117566402D01*
G75*
G02*
X172028002Y-117816400I-249998J0D01*
G01*
X171202998Y-117816400D01*
G75*
G02*
X170953000Y-117566402I0J249998D01*
G01*
G37*
%TD.AperFunction*%
%TD*%
%TO.P,U2,1*%
%TO.N,GND*%
%TA.AperFunction,SMDPad,CuDef*%
G36*
G01*
X171600200Y-95626600D02*
X171300200Y-95626600D01*
G75*
G02*
X171150200Y-95476600I0J150000D01*
G01*
X171150200Y-93826600D01*
G75*
G02*
X171300200Y-93676600I150000J0D01*
G01*
X171600200Y-93676600D01*
G75*
G02*
X171750200Y-93826600I0J-150000D01*
G01*
X171750200Y-95476600D01*
G75*
G02*
X171600200Y-95626600I-150000J0D01*
G01*
G37*
%TD.AperFunction*%
%TO.P,U2,2*%
%TO.N,Net-(C4-Pad1)*%
%TA.AperFunction,SMDPad,CuDef*%
G36*
G01*
X170330200Y-95626600D02*
X170030200Y-95626600D01*
G75*
G02*
X169880200Y-95476600I0J150000D01*
G01*
X169880200Y-93826600D01*
G75*
G02*
X170030200Y-93676600I150000J0D01*
G01*
X170330200Y-93676600D01*
G75*
G02*
X170480200Y-93826600I0J-150000D01*
G01*
X170480200Y-95476600D01*
G75*
G02*
X170330200Y-95626600I-150000J0D01*
G01*
G37*
%TD.AperFunction*%
%TO.P,U2,3*%
%TO.N,Net-(R5-Pad2)*%
%TA.AperFunction,SMDPad,CuDef*%
G36*
G01*
X169060200Y-95626600D02*
X168760200Y-95626600D01*
G75*
G02*
X168610200Y-95476600I0J150000D01*
G01*
X168610200Y-93826600D01*
G75*
G02*
X168760200Y-93676600I150000J0D01*
G01*
X169060200Y-93676600D01*
G75*
G02*
X169210200Y-93826600I0J-150000D01*
G01*
X169210200Y-95476600D01*
G75*
G02*
X169060200Y-95626600I-150000J0D01*
G01*
G37*
%TD.AperFunction*%
%TO.P,U2,4*%
%TO.N,VCC*%
%TA.AperFunction,SMDPad,CuDef*%
G36*
G01*
X167790200Y-95626600D02*
X167490200Y-95626600D01*
G75*
G02*
X167340200Y-95476600I0J150000D01*
G01*
X167340200Y-93826600D01*
G75*
G02*
X167490200Y-93676600I150000J0D01*
G01*
X167790200Y-93676600D01*
G75*
G02*
X167940200Y-93826600I0J-150000D01*
G01*
X167940200Y-95476600D01*
G75*
G02*
X167790200Y-95626600I-150000J0D01*
G01*
G37*
%TD.AperFunction*%
%TO.P,U2,5*%
%TO.N,Net-(C2-Pad1)*%
%TA.AperFunction,SMDPad,CuDef*%
G36*
G01*
X167790200Y-90676600D02*
X167490200Y-90676600D01*
G75*
G02*
X167340200Y-90526600I0J150000D01*
G01*
X167340200Y-88876600D01*
G75*
G02*
X167490200Y-88726600I150000J0D01*
G01*
X167790200Y-88726600D01*
G75*
G02*
X167940200Y-88876600I0J-150000D01*
G01*
X167940200Y-90526600D01*
G75*
G02*
X167790200Y-90676600I-150000J0D01*
G01*
G37*
%TD.AperFunction*%
%TO.P,U2,6*%
%TO.N,Net-(C4-Pad1)*%
%TA.AperFunction,SMDPad,CuDef*%
G36*
G01*
X169060200Y-90676600D02*
X168760200Y-90676600D01*
G75*
G02*
X168610200Y-90526600I0J150000D01*
G01*
X168610200Y-88876600D01*
G75*
G02*
X168760200Y-88726600I150000J0D01*
G01*
X169060200Y-88726600D01*
G75*
G02*
X169210200Y-88876600I0J-150000D01*
G01*
X169210200Y-90526600D01*
G75*
G02*
X169060200Y-90676600I-150000J0D01*
G01*
G37*
%TD.AperFunction*%
%TO.P,U2,7*%
%TO.N,Net-(R3-Pad2)*%
%TA.AperFunction,SMDPad,CuDef*%
G36*
G01*
X170330200Y-90676600D02*
X170030200Y-90676600D01*
G75*
G02*
X169880200Y-90526600I0J150000D01*
G01*
X169880200Y-88876600D01*
G75*
G02*
X170030200Y-88726600I150000J0D01*
G01*
X170330200Y-88726600D01*
G75*
G02*
X170480200Y-88876600I0J-150000D01*
G01*
X170480200Y-90526600D01*
G75*
G02*
X170330200Y-90676600I-150000J0D01*
G01*
G37*
%TD.AperFunction*%
%TO.P,U2,8*%
%TO.N,VCC*%
%TA.AperFunction,SMDPad,CuDef*%
G36*
G01*
X171600200Y-90676600D02*
X171300200Y-90676600D01*
G75*
G02*
X171150200Y-90526600I0J150000D01*
G01*
X171150200Y-88876600D01*
G75*
G02*
X171300200Y-88726600I150000J0D01*
G01*
X171600200Y-88726600D01*
G75*
G02*
X171750200Y-88876600I0J-150000D01*
G01*
X171750200Y-90526600D01*
G75*
G02*
X171600200Y-90676600I-150000J0D01*
G01*
G37*
%TD.AperFunction*%
%TD*%
%TO.P,U1,1*%
%TO.N,GND*%
%TA.AperFunction,SMDPad,CuDef*%
G36*
G01*
X164442000Y-108132400D02*
X164742000Y-108132400D01*
G75*
G02*
X164892000Y-108282400I0J-150000D01*
G01*
X164892000Y-109932400D01*
G75*
G02*
X164742000Y-110082400I-150000J0D01*
G01*
X164442000Y-110082400D01*
G75*
G02*
X164292000Y-109932400I0J150000D01*
G01*
X164292000Y-108282400D01*
G75*
G02*
X164442000Y-108132400I150000J0D01*
G01*
G37*
%TD.AperFunction*%
%TO.P,U1,2*%
%TO.N,Net-(C3-Pad1)*%
%TA.AperFunction,SMDPad,CuDef*%
G36*
G01*
X165712000Y-108132400D02*
X166012000Y-108132400D01*
G75*
G02*
X166162000Y-108282400I0J-150000D01*
G01*
X166162000Y-109932400D01*
G75*
G02*
X166012000Y-110082400I-150000J0D01*
G01*
X165712000Y-110082400D01*
G75*
G02*
X165562000Y-109932400I0J150000D01*
G01*
X165562000Y-108282400D01*
G75*
G02*
X165712000Y-108132400I150000J0D01*
G01*
G37*
%TD.AperFunction*%
%TO.P,U1,3*%
%TO.N,Net-(R6-Pad2)*%
%TA.AperFunction,SMDPad,CuDef*%
G36*
G01*
X166982000Y-108132400D02*
X167282000Y-108132400D01*
G75*
G02*
X167432000Y-108282400I0J-150000D01*
G01*
X167432000Y-109932400D01*
G75*
G02*
X167282000Y-110082400I-150000J0D01*
G01*
X166982000Y-110082400D01*
G75*
G02*
X166832000Y-109932400I0J150000D01*
G01*
X166832000Y-108282400D01*
G75*
G02*
X166982000Y-108132400I150000J0D01*
G01*
G37*
%TD.AperFunction*%
%TO.P,U1,4*%
%TO.N,VCC*%
%TA.AperFunction,SMDPad,CuDef*%
G36*
G01*
X168252000Y-108132400D02*
X168552000Y-108132400D01*
G75*
G02*
X168702000Y-108282400I0J-150000D01*
G01*
X168702000Y-109932400D01*
G75*
G02*
X168552000Y-110082400I-150000J0D01*
G01*
X168252000Y-110082400D01*
G75*
G02*
X168102000Y-109932400I0J150000D01*
G01*
X168102000Y-108282400D01*
G75*
G02*
X168252000Y-108132400I150000J0D01*
G01*
G37*
%TD.AperFunction*%
%TO.P,U1,5*%
%TO.N,Net-(C1-Pad1)*%
%TA.AperFunction,SMDPad,CuDef*%
G36*
G01*
X168252000Y-113082400D02*
X168552000Y-113082400D01*
G75*
G02*
X168702000Y-113232400I0J-150000D01*
G01*
X168702000Y-114882400D01*
G75*
G02*
X168552000Y-115032400I-150000J0D01*
G01*
X168252000Y-115032400D01*
G75*
G02*
X168102000Y-114882400I0J150000D01*
G01*
X168102000Y-113232400D01*
G75*
G02*
X168252000Y-113082400I150000J0D01*
G01*
G37*
%TD.AperFunction*%
%TO.P,U1,6*%
%TO.N,Net-(C3-Pad1)*%
%TA.AperFunction,SMDPad,CuDef*%
G36*
G01*
X166982000Y-113082400D02*
X167282000Y-113082400D01*
G75*
G02*
X167432000Y-113232400I0J-150000D01*
G01*
X167432000Y-114882400D01*
G75*
G02*
X167282000Y-115032400I-150000J0D01*
G01*
X166982000Y-115032400D01*
G75*
G02*
X166832000Y-114882400I0J150000D01*
G01*
X166832000Y-113232400D01*
G75*
G02*
X166982000Y-113082400I150000J0D01*
G01*
G37*
%TD.AperFunction*%
%TO.P,U1,7*%
%TO.N,Net-(R1-Pad2)*%
%TA.AperFunction,SMDPad,CuDef*%
G36*
G01*
X165712000Y-113082400D02*
X166012000Y-113082400D01*
G75*
G02*
X166162000Y-113232400I0J-150000D01*
G01*
X166162000Y-114882400D01*
G75*
G02*
X166012000Y-115032400I-150000J0D01*
G01*
X165712000Y-115032400D01*
G75*
G02*
X165562000Y-114882400I0J150000D01*
G01*
X165562000Y-113232400D01*
G75*
G02*
X165712000Y-113082400I150000J0D01*
G01*
G37*
%TD.AperFunction*%
%TO.P,U1,8*%
%TO.N,VCC*%
%TA.AperFunction,SMDPad,CuDef*%
G36*
G01*
X164442000Y-113082400D02*
X164742000Y-113082400D01*
G75*
G02*
X164892000Y-113232400I0J-150000D01*
G01*
X164892000Y-114882400D01*
G75*
G02*
X164742000Y-115032400I-150000J0D01*
G01*
X164442000Y-115032400D01*
G75*
G02*
X164292000Y-114882400I0J150000D01*
G01*
X164292000Y-113232400D01*
G75*
G02*
X164442000Y-113082400I150000J0D01*
G01*
G37*
%TD.AperFunction*%
%TD*%
D12*
%TO.P,Q4,1*%
%TO.N,Net-(Q4-Pad1)*%
X158434000Y-88368000D03*
%TO.P,Q4,3*%
%TO.N,/LED_MATRIX_4*%
X155434000Y-88368000D03*
%TA.AperFunction,SMDPad,CuDef*%
D13*
%TO.P,Q4,2*%
%TO.N,VCC*%
G36*
X157800500Y-83768000D02*
G01*
X157800500Y-86893000D01*
X157384000Y-86893000D01*
X157384000Y-88368000D01*
X156484000Y-88368000D01*
X156484000Y-86893000D01*
X156067500Y-86893000D01*
X156067500Y-83768000D01*
X157800500Y-83768000D01*
G37*
%TD.AperFunction*%
%TD*%
D12*
%TO.P,Q3,1*%
%TO.N,Net-(Q3-Pad1)*%
X158434000Y-94718000D03*
%TO.P,Q3,3*%
%TO.N,/LED_MATRIX_2*%
X155434000Y-94718000D03*
%TA.AperFunction,SMDPad,CuDef*%
D13*
%TO.P,Q3,2*%
%TO.N,VCC*%
G36*
X157800500Y-90118000D02*
G01*
X157800500Y-93243000D01*
X157384000Y-93243000D01*
X157384000Y-94718000D01*
X156484000Y-94718000D01*
X156484000Y-93243000D01*
X156067500Y-93243000D01*
X156067500Y-90118000D01*
X157800500Y-90118000D01*
G37*
%TD.AperFunction*%
%TD*%
D12*
%TO.P,Q2,1*%
%TO.N,Net-(Q2-Pad1)*%
X158434000Y-101068000D03*
%TO.P,Q2,3*%
%TO.N,/LED_MATRIX_3*%
X155434000Y-101068000D03*
%TA.AperFunction,SMDPad,CuDef*%
D13*
%TO.P,Q2,2*%
%TO.N,VCC*%
G36*
X157800500Y-96468000D02*
G01*
X157800500Y-99593000D01*
X157384000Y-99593000D01*
X157384000Y-101068000D01*
X156484000Y-101068000D01*
X156484000Y-99593000D01*
X156067500Y-99593000D01*
X156067500Y-96468000D01*
X157800500Y-96468000D01*
G37*
%TD.AperFunction*%
%TD*%
D19*
%TO.N,GND*%
X130264000Y-118072000D03*
X131534000Y-118072000D03*
X132804000Y-118072000D03*
X128994000Y-118072000D03*
D20*
X173698000Y-117056000D03*
X171412000Y-96736000D03*
X164300000Y-90640000D03*
%TD*%
D21*
%TO.N,Net-(BT3-Pad1)*%
X155412000Y-119214000D02*
X144717600Y-119214000D01*
X144717600Y-119214000D02*
X143827600Y-120104000D01*
X143827600Y-120104000D02*
X143827600Y-124701400D01*
D22*
%TO.N,GND*%
X137122000Y-96668000D02*
X132872000Y-92418000D01*
X137122000Y-88168000D02*
X132872000Y-92418000D01*
X171615500Y-119456400D02*
X171615500Y-116916400D01*
D21*
X164592000Y-109107400D02*
X163892000Y-109107400D01*
X163487500Y-109511900D02*
X162179000Y-109511900D01*
X163892000Y-109107400D02*
X163487500Y-109511900D01*
X164172700Y-84556600D02*
X164172700Y-87096600D01*
X171450200Y-94651600D02*
X171896200Y-94651600D01*
X172554700Y-93993100D02*
X173863200Y-93993100D01*
X171896200Y-94651600D02*
X172554700Y-93993100D01*
D22*
X164046000Y-87592000D02*
X164300000Y-87338000D01*
X128695000Y-124720000D02*
X128950000Y-124720000D01*
X128950000Y-124720000D02*
X131280000Y-122390000D01*
X173952000Y-100292000D02*
X173952000Y-93942000D01*
X173952000Y-102070000D02*
X173952000Y-100292000D01*
X171412000Y-104610000D02*
X173952000Y-102070000D01*
X163538000Y-104610000D02*
X171412000Y-104610000D01*
X162179000Y-105969000D02*
X163538000Y-104610000D01*
X162179000Y-109511900D02*
X162179000Y-105969000D01*
D23*
%TO.N,Net-(C1-Pad1)*%
X168402000Y-116827900D02*
X168490500Y-116916400D01*
X168402000Y-114057400D02*
X168402000Y-116827900D01*
D21*
%TO.N,Net-(C2-Pad1)*%
X167640200Y-89701600D02*
X167640200Y-87630200D01*
X167640200Y-87630200D02*
X167348000Y-87338000D01*
X167348000Y-87338000D02*
X167094000Y-87084000D01*
D23*
%TO.N,Net-(C3-Pad1)*%
X167132000Y-114057400D02*
X167132000Y-118821400D01*
X166497000Y-119456400D02*
X165761000Y-119456400D01*
X167132000Y-118821400D02*
X166497000Y-119456400D01*
X167767000Y-119456400D02*
X168490500Y-119456400D01*
X167132000Y-118821400D02*
X167767000Y-119456400D01*
X167132000Y-114057400D02*
X167132000Y-112471400D01*
X165862000Y-111201400D02*
X165862000Y-109107400D01*
X167132000Y-112471400D02*
X165862000Y-111201400D01*
%TO.N,Net-(C4-Pad1)*%
X168910200Y-89701600D02*
X168910200Y-85191600D01*
X168275200Y-84556600D02*
X168910200Y-85191600D01*
X167297700Y-84556600D02*
X168275200Y-84556600D01*
X169545200Y-84556600D02*
X168910200Y-85191600D01*
X170281200Y-84556600D02*
X169545200Y-84556600D01*
X168910200Y-89701600D02*
X168910200Y-91033600D01*
X170180200Y-92303600D02*
X170180200Y-94651600D01*
X168910200Y-91033600D02*
X170180200Y-92303600D01*
D21*
%TO.N,VCC*%
X172696700Y-89701600D02*
X172782200Y-89701600D01*
X172696700Y-89701600D02*
X173863200Y-90868100D01*
X171450200Y-89701600D02*
X172696700Y-89701600D01*
X172782200Y-89701600D02*
X173355200Y-89128600D01*
X173355200Y-89128600D02*
X173355200Y-87096600D01*
X162661000Y-114910400D02*
X162661000Y-116916400D01*
X163514000Y-114057400D02*
X163514000Y-113971900D01*
X163514000Y-114057400D02*
X162661000Y-114910400D01*
X164592000Y-114057400D02*
X163514000Y-114057400D01*
X163514000Y-113971900D02*
X162179000Y-112636900D01*
D22*
X156934000Y-104902500D02*
X156934000Y-106896000D01*
X156934000Y-91148000D02*
X156934000Y-85814000D01*
X156934000Y-104902500D02*
X156934000Y-100800000D01*
D21*
X175704100Y-90868100D02*
X175730000Y-90894000D01*
X173863200Y-90868100D02*
X175704100Y-90868100D01*
D22*
X175730000Y-90894000D02*
X175730000Y-83528000D01*
X175730000Y-91656000D02*
X175730000Y-90894000D01*
D21*
X162268000Y-71766000D02*
X162268000Y-76416000D01*
D22*
X175730000Y-83528000D02*
X170396000Y-78194000D01*
D21*
X164046000Y-78194000D02*
X162268000Y-76416000D01*
D22*
X170396000Y-78194000D02*
X164046000Y-78194000D01*
D21*
X163538000Y-78702000D02*
X164046000Y-78194000D01*
X163538000Y-82512000D02*
X163538000Y-78702000D01*
X162960190Y-83089810D02*
X163538000Y-82512000D01*
X162960190Y-91840190D02*
X162960190Y-83089810D01*
X165771600Y-94651600D02*
X162960190Y-91840190D01*
X167640200Y-94651600D02*
X165771600Y-94651600D01*
D22*
X156934000Y-96482000D02*
X156934000Y-91148000D01*
X156934000Y-100800000D02*
X156934000Y-96482000D01*
D21*
X175655400Y-109107400D02*
X175730000Y-109182000D01*
X168402000Y-109107400D02*
X175655400Y-109107400D01*
D22*
X175730000Y-109182000D02*
X175730000Y-91656000D01*
X175730000Y-119088000D02*
X175730000Y-109182000D01*
X172682000Y-122136000D02*
X175730000Y-119088000D01*
X155408000Y-123916000D02*
X157188000Y-122136000D01*
X156934000Y-110960000D02*
X160236000Y-114262000D01*
X156934000Y-96482000D02*
X156934000Y-110960000D01*
X160236000Y-122136000D02*
X172682000Y-122136000D01*
X157188000Y-122136000D02*
X160236000Y-122136000D01*
X160375600Y-116916400D02*
X160236000Y-117056000D01*
X160236000Y-117056000D02*
X160236000Y-122136000D01*
X162661000Y-116916400D02*
X160375600Y-116916400D01*
X160236000Y-114262000D02*
X160236000Y-117056000D01*
%TO.N,GND*%
X173698000Y-117056000D02*
X171412000Y-117056000D01*
X171412000Y-96736000D02*
X171412000Y-94704000D01*
X164172700Y-90512700D02*
X164300000Y-90640000D01*
X164172700Y-87096600D02*
X164172700Y-90512700D01*
D23*
X154022990Y-70694242D02*
X154022990Y-78330990D01*
X155921232Y-68796000D02*
X154022990Y-70694242D01*
X159181500Y-68796000D02*
X155921232Y-68796000D01*
X154022990Y-78330990D02*
X154648000Y-78956000D01*
X154648000Y-78956000D02*
X154648000Y-80988000D01*
D22*
X137122000Y-96668000D02*
X137190000Y-96668000D01*
X137190000Y-96668000D02*
X141440000Y-92418000D01*
X137122000Y-88168000D02*
X137122000Y-88354000D01*
X137122000Y-88354000D02*
X141440000Y-92672000D01*
X128994000Y-118072000D02*
X128994000Y-124168000D01*
X130264000Y-118072000D02*
X130264000Y-123406000D01*
X131534000Y-118072000D02*
X131534000Y-121882000D01*
X132804000Y-118072000D02*
X132804000Y-121120000D01*
X128695000Y-124720000D02*
X120656000Y-124720000D01*
X120656000Y-124720000D02*
X113246000Y-117310000D01*
X113246000Y-117310000D02*
X113246000Y-78194000D01*
X113246000Y-78194000D02*
X116548000Y-74892000D01*
X116548000Y-74892000D02*
X144488000Y-74892000D01*
X144488000Y-74892000D02*
X150584000Y-80988000D01*
X150584000Y-80988000D02*
X154648000Y-80988000D01*
D21*
%TO.N,VCC*%
X162268000Y-71766000D02*
X162268000Y-68796000D01*
D22*
%TO.N,/LED_MATRIX_1*%
X124872000Y-102520000D02*
X124872000Y-92418000D01*
X133820000Y-111468000D02*
X124872000Y-102520000D01*
X155434000Y-106768000D02*
X147918000Y-106768000D01*
X143218000Y-111468000D02*
X133820000Y-111468000D01*
X147918000Y-106768000D02*
X143218000Y-111468000D01*
X124716000Y-92204000D02*
X124930000Y-92418000D01*
X124872000Y-102520000D02*
X124872000Y-102636000D01*
X124872000Y-102636000D02*
X121374000Y-106134000D01*
X121374000Y-106134000D02*
X121374000Y-107658000D01*
X121374000Y-107658000D02*
X119088000Y-109944000D01*
X119088000Y-109944000D02*
X116548000Y-109944000D01*
D23*
%TO.N,Net-(Q1-Pad1)*%
X167246400Y-98082200D02*
X167246400Y-101562000D01*
X162268000Y-93103800D02*
X167246400Y-98082200D01*
X162268000Y-81066000D02*
X162268000Y-93103800D01*
X158434000Y-106768000D02*
X158434000Y-105904000D01*
X158434000Y-105904000D02*
X159474000Y-104864000D01*
X167094000Y-103086000D02*
X167348000Y-103086000D01*
X167246400Y-101562000D02*
X167246400Y-103238400D01*
X167246400Y-103238400D02*
X167348000Y-103340000D01*
X159474000Y-104864000D02*
X160744000Y-103594000D01*
X160744000Y-103594000D02*
X161252000Y-103086000D01*
X161252000Y-103086000D02*
X166840000Y-103086000D01*
X166840000Y-103086000D02*
X167094000Y-103340000D01*
D22*
%TO.N,/LED_MATRIX_3*%
X149372000Y-92418000D02*
X149372000Y-92476000D01*
X155434000Y-100418000D02*
X153758000Y-100418000D01*
D23*
%TO.N,Net-(Q2-Pad1)*%
X159728000Y-81066000D02*
X159728000Y-79718000D01*
X159728000Y-79718000D02*
X160236000Y-79210000D01*
X160236000Y-79210000D02*
X160744000Y-79210000D01*
X160744000Y-79210000D02*
X160998000Y-79210000D01*
X160998000Y-79210000D02*
X161642990Y-79854990D01*
X161642990Y-79854990D02*
X161642990Y-94059010D01*
X161642990Y-94059010D02*
X158458000Y-97244000D01*
X158458000Y-97244000D02*
X158458000Y-99784000D01*
D21*
X158434000Y-100418000D02*
X161634000Y-100418000D01*
X161634000Y-100418000D02*
X162268000Y-99784000D01*
X162268000Y-99784000D02*
X165824000Y-99784000D01*
D22*
%TO.N,/LED_MATRIX_2*%
X145322010Y-95471988D02*
X143726000Y-97067998D01*
X143726000Y-97067998D02*
X143726000Y-101562000D01*
X147536000Y-89116000D02*
X145322010Y-91329990D01*
X152362000Y-89116000D02*
X147536000Y-89116000D01*
X139350000Y-104668000D02*
X137122000Y-104668000D01*
X140620000Y-104668000D02*
X139350000Y-104668000D01*
X153378000Y-90132000D02*
X152362000Y-89116000D01*
X143726000Y-101562000D02*
X140620000Y-104668000D01*
X145322010Y-91329990D02*
X145322010Y-95471988D01*
X153378000Y-92926000D02*
X153378000Y-90132000D01*
X154520000Y-94068000D02*
X153378000Y-92926000D01*
X155434000Y-94068000D02*
X154520000Y-94068000D01*
D23*
%TO.N,Net-(Q3-Pad1)*%
X158434000Y-94068000D02*
X158434000Y-92188000D01*
X158434000Y-92188000D02*
X159220000Y-91402000D01*
X160998000Y-89624000D02*
X159220000Y-91402000D01*
X160998000Y-81066000D02*
X160998000Y-89624000D01*
X159220000Y-91402000D02*
X159474000Y-91148000D01*
D22*
%TO.N,/LED_MATRIX_4*%
X143218000Y-80226000D02*
X137122000Y-80226000D01*
X144742000Y-80226000D02*
X143218000Y-80226000D01*
X144742000Y-80226000D02*
X145758000Y-80226000D01*
X145758000Y-80226000D02*
X153378000Y-87846000D01*
X153378000Y-87846000D02*
X154394000Y-87846000D01*
X154394000Y-87846000D02*
X155410000Y-87846000D01*
D23*
%TO.N,Net-(Q4-Pad1)*%
X158458000Y-80050000D02*
X158458000Y-87846000D01*
%TO.N,Net-(R1-Pad2)*%
X165761000Y-116916400D02*
X164973000Y-116916400D01*
X164973000Y-116916400D02*
X163957000Y-117932400D01*
X163957000Y-117932400D02*
X163957000Y-118948400D01*
X163449000Y-119456400D02*
X162661000Y-119456400D01*
X163957000Y-118948400D02*
X163449000Y-119456400D01*
X165862000Y-116815400D02*
X165761000Y-116916400D01*
X165862000Y-114057400D02*
X165862000Y-116815400D01*
%TO.N,Net-(R3-Pad2)*%
X170180200Y-87171600D02*
X170255200Y-87096600D01*
X170180200Y-89701600D02*
X170180200Y-87171600D01*
X173381200Y-84556600D02*
X172593200Y-84556600D01*
X172593200Y-84556600D02*
X171831200Y-85318600D01*
X171831200Y-85318600D02*
X171831200Y-86842600D01*
X171577200Y-87096600D02*
X170255200Y-87096600D01*
X171831200Y-86842600D02*
X171577200Y-87096600D01*
D21*
%TO.N,Net-(R5-Pad2)*%
X168910200Y-94651600D02*
X168910200Y-99695000D01*
D23*
%TO.N,Net-(R6-Pad2)*%
X167132000Y-109107400D02*
X167132000Y-106375400D01*
D22*
%TO.N,+9V*%
X155408000Y-114516000D02*
X133566000Y-114516000D01*
%TO.N,/LED_MATRIX_4*%
X137122000Y-80168000D02*
X136164000Y-80168000D01*
X137082000Y-80266000D02*
X137122000Y-80226000D01*
%TO.N,/LED_MATRIX_3*%
X153758000Y-100418000D02*
X151472000Y-100418000D01*
X151472000Y-100418000D02*
X150330000Y-99276000D01*
X150330000Y-99276000D02*
X150330000Y-93434000D01*
X150330000Y-93434000D02*
X149314000Y-92418000D01*
X134328000Y-109944000D02*
X139662000Y-109944000D01*
X128921990Y-104537990D02*
X134328000Y-109944000D01*
X128921990Y-91329990D02*
X128921990Y-104537990D01*
X127309990Y-89717990D02*
X128921990Y-91329990D01*
X122503620Y-89717990D02*
X127309990Y-89717990D01*
X119850000Y-98006000D02*
X119850000Y-92371610D01*
X139662000Y-109944000D02*
X150330000Y-99276000D01*
X118540000Y-99316000D02*
X119850000Y-98006000D01*
X119850000Y-92371610D02*
X122503620Y-89717990D01*
X116802000Y-99316000D02*
X118540000Y-99316000D01*
%TO.N,/LED_MATRIX_2*%
X137202000Y-104784000D02*
X137282000Y-104864000D01*
X116802000Y-89410000D02*
X118540000Y-89410000D01*
X118540000Y-89410000D02*
X120866000Y-87084000D01*
X142637990Y-84217990D02*
X147536000Y-89116000D01*
X136003620Y-84217990D02*
X142637990Y-84217990D01*
X133137610Y-87084000D02*
X136003620Y-84217990D01*
X120866000Y-87084000D02*
X133137610Y-87084000D01*
%TO.N,/LED_MATRIX_4*%
X116802000Y-80012000D02*
X120826000Y-80012000D01*
X120826000Y-80012000D02*
X122644000Y-78194000D01*
X122644000Y-78194000D02*
X129756000Y-78194000D01*
X129756000Y-78194000D02*
X131534000Y-79972000D01*
X131534000Y-79972000D02*
X137376000Y-79972000D01*
%TO.N,+9V*%
X133566000Y-114516000D02*
X129248000Y-114516000D01*
X129248000Y-114516000D02*
X126708000Y-117056000D01*
X126708000Y-117056000D02*
X122390000Y-117056000D01*
X122390000Y-117056000D02*
X120358000Y-115024000D01*
X120358000Y-115024000D02*
X114770000Y-115024000D01*
X114770000Y-87084000D02*
X116548000Y-85306000D01*
X116548000Y-85306000D02*
X116802000Y-85052000D01*
X116802000Y-94410000D02*
X114810000Y-94410000D01*
X114810000Y-94410000D02*
X114770000Y-94450000D01*
X114770000Y-94450000D02*
X114770000Y-87084000D01*
X114770000Y-97437998D02*
X114770000Y-94450000D01*
X114984000Y-104316000D02*
X114770000Y-104102000D01*
X116802000Y-104316000D02*
X114984000Y-104316000D01*
X114770000Y-104102000D02*
X114770000Y-97437998D01*
X114770000Y-115024000D02*
X114770000Y-104102000D01*
%TD*%
D24*
%TO.N,GND*%
X157893188Y-67771518D02*
X157880928Y-67896000D01*
X157884000Y-68510250D01*
X158042750Y-68669000D01*
X159054500Y-68669000D01*
X159054500Y-68649000D01*
X159308500Y-68649000D01*
X159308500Y-68669000D01*
X160320250Y-68669000D01*
X160479000Y-68510250D01*
X160482072Y-67896000D01*
X160469812Y-67771518D01*
X160441444Y-67678000D01*
X161142025Y-67678000D01*
X161073528Y-67806149D01*
X161022992Y-67972745D01*
X161005928Y-68145999D01*
X161005928Y-69446001D01*
X161022992Y-69619255D01*
X161073528Y-69785851D01*
X161155595Y-69939387D01*
X161266038Y-70073962D01*
X161330363Y-70126752D01*
X161301745Y-70118071D01*
X161148000Y-70102928D01*
X160848000Y-70102928D01*
X160694255Y-70118071D01*
X160546418Y-70162916D01*
X160410171Y-70235742D01*
X160363000Y-70274454D01*
X160315829Y-70235742D01*
X160237981Y-70194131D01*
X160295185Y-70147185D01*
X160374537Y-70050494D01*
X160433502Y-69940180D01*
X160469812Y-69820482D01*
X160482072Y-69696000D01*
X160479000Y-69081750D01*
X160320250Y-68923000D01*
X159308500Y-68923000D01*
X159308500Y-68943000D01*
X159054500Y-68943000D01*
X159054500Y-68923000D01*
X158042750Y-68923000D01*
X157884000Y-69081750D01*
X157880928Y-69696000D01*
X157893188Y-69820482D01*
X157929498Y-69940180D01*
X157988463Y-70050494D01*
X158065914Y-70144868D01*
X158006418Y-70162916D01*
X157870171Y-70235742D01*
X157823000Y-70274454D01*
X157775829Y-70235742D01*
X157639582Y-70162916D01*
X157491745Y-70118071D01*
X157338000Y-70102928D01*
X157038000Y-70102928D01*
X156884255Y-70118071D01*
X156736418Y-70162916D01*
X156600171Y-70235742D01*
X156553000Y-70274454D01*
X156505829Y-70235742D01*
X156369582Y-70162916D01*
X156221745Y-70118071D01*
X156068000Y-70102928D01*
X155768000Y-70102928D01*
X155614255Y-70118071D01*
X155466418Y-70162916D01*
X155330171Y-70235742D01*
X155283000Y-70274454D01*
X155235829Y-70235742D01*
X155099582Y-70162916D01*
X154951745Y-70118071D01*
X154798000Y-70102928D01*
X154498000Y-70102928D01*
X154344255Y-70118071D01*
X154196418Y-70162916D01*
X154060171Y-70235742D01*
X153940749Y-70333749D01*
X153842742Y-70453171D01*
X153769916Y-70589418D01*
X153725071Y-70737255D01*
X153709928Y-70891000D01*
X153709928Y-72641000D01*
X153725071Y-72794745D01*
X153769916Y-72942582D01*
X153842742Y-73078829D01*
X153940749Y-73198251D01*
X154060171Y-73296258D01*
X154196418Y-73369084D01*
X154344255Y-73413929D01*
X154498000Y-73429072D01*
X154798000Y-73429072D01*
X154951745Y-73413929D01*
X155099582Y-73369084D01*
X155235829Y-73296258D01*
X155283000Y-73257546D01*
X155330171Y-73296258D01*
X155466418Y-73369084D01*
X155614255Y-73413929D01*
X155768000Y-73429072D01*
X156068000Y-73429072D01*
X156221745Y-73413929D01*
X156369582Y-73369084D01*
X156505829Y-73296258D01*
X156553000Y-73257546D01*
X156600171Y-73296258D01*
X156736418Y-73369084D01*
X156884255Y-73413929D01*
X157038000Y-73429072D01*
X157338000Y-73429072D01*
X157491745Y-73413929D01*
X157639582Y-73369084D01*
X157775829Y-73296258D01*
X157823000Y-73257546D01*
X157870171Y-73296258D01*
X158006418Y-73369084D01*
X158154255Y-73413929D01*
X158308000Y-73429072D01*
X158608000Y-73429072D01*
X158761745Y-73413929D01*
X158909582Y-73369084D01*
X159045829Y-73296258D01*
X159093000Y-73257546D01*
X159140171Y-73296258D01*
X159276418Y-73369084D01*
X159424255Y-73413929D01*
X159578000Y-73429072D01*
X159878000Y-73429072D01*
X160031745Y-73413929D01*
X160179582Y-73369084D01*
X160315829Y-73296258D01*
X160363000Y-73257546D01*
X160410171Y-73296258D01*
X160546418Y-73369084D01*
X160694255Y-73413929D01*
X160848000Y-73429072D01*
X161148000Y-73429072D01*
X161301745Y-73413929D01*
X161333000Y-73404448D01*
X161333001Y-76370058D01*
X161328476Y-76416000D01*
X161346529Y-76599291D01*
X161399994Y-76775540D01*
X161486815Y-76937972D01*
X161603657Y-77080344D01*
X161639336Y-77109625D01*
X162740417Y-78210706D01*
X162669994Y-78342460D01*
X162616529Y-78518709D01*
X162598476Y-78702000D01*
X162603001Y-78747942D01*
X162603001Y-79427552D01*
X162571745Y-79418071D01*
X162418000Y-79402928D01*
X162255161Y-79402928D01*
X162206789Y-79343987D01*
X162182991Y-79314989D01*
X162153994Y-79291192D01*
X161561803Y-78699002D01*
X161538001Y-78669999D01*
X161422276Y-78575026D01*
X161290247Y-78504454D01*
X161146986Y-78460997D01*
X161035333Y-78450000D01*
X161035322Y-78450000D01*
X160998000Y-78446324D01*
X160960678Y-78450000D01*
X160273322Y-78450000D01*
X160235999Y-78446324D01*
X160198676Y-78450000D01*
X160198667Y-78450000D01*
X160087014Y-78460997D01*
X159943753Y-78504454D01*
X159811724Y-78575026D01*
X159695999Y-78669999D01*
X159672200Y-78698998D01*
X159216998Y-79154201D01*
X159188000Y-79177999D01*
X159164202Y-79206997D01*
X159164201Y-79206998D01*
X159093026Y-79293724D01*
X159022454Y-79425754D01*
X158999251Y-79502247D01*
X158997119Y-79509275D01*
X158882275Y-79415026D01*
X158750246Y-79344454D01*
X158606985Y-79300997D01*
X158458000Y-79286323D01*
X158309014Y-79300997D01*
X158165753Y-79344454D01*
X158033724Y-79415026D01*
X157917999Y-79509999D01*
X157917738Y-79510317D01*
X157870171Y-79535742D01*
X157823000Y-79574454D01*
X157775829Y-79535742D01*
X157639582Y-79462916D01*
X157491745Y-79418071D01*
X157338000Y-79402928D01*
X157038000Y-79402928D01*
X156884255Y-79418071D01*
X156736418Y-79462916D01*
X156600171Y-79535742D01*
X156553000Y-79574454D01*
X156505829Y-79535742D01*
X156369582Y-79462916D01*
X156221745Y-79418071D01*
X156068000Y-79402928D01*
X155768000Y-79402928D01*
X155614255Y-79418071D01*
X155466418Y-79462916D01*
X155332064Y-79534730D01*
X155302494Y-79510463D01*
X155192180Y-79451498D01*
X155072482Y-79415188D01*
X154948000Y-79402928D01*
X154933750Y-79406000D01*
X154775000Y-79564750D01*
X154775000Y-80939000D01*
X154795000Y-80939000D01*
X154795000Y-81193000D01*
X154775000Y-81193000D01*
X154775000Y-82567250D01*
X154933750Y-82726000D01*
X154948000Y-82729072D01*
X155072482Y-82716812D01*
X155192180Y-82680502D01*
X155284108Y-82631365D01*
X155320285Y-86429928D01*
X154984000Y-86429928D01*
X154859518Y-86442188D01*
X154739820Y-86478498D01*
X154629506Y-86537463D01*
X154532815Y-86616815D01*
X154455520Y-86711000D01*
X153848132Y-86711000D01*
X149228132Y-82091000D01*
X153709928Y-82091000D01*
X153722188Y-82215482D01*
X153758498Y-82335180D01*
X153817463Y-82445494D01*
X153896815Y-82542185D01*
X153993506Y-82621537D01*
X154103820Y-82680502D01*
X154223518Y-82716812D01*
X154348000Y-82729072D01*
X154362250Y-82726000D01*
X154521000Y-82567250D01*
X154521000Y-81193000D01*
X153871750Y-81193000D01*
X153713000Y-81351750D01*
X153709928Y-82091000D01*
X149228132Y-82091000D01*
X147178132Y-80041000D01*
X153709928Y-80041000D01*
X153713000Y-80780250D01*
X153871750Y-80939000D01*
X154521000Y-80939000D01*
X154521000Y-79564750D01*
X154362250Y-79406000D01*
X154348000Y-79402928D01*
X154223518Y-79415188D01*
X154103820Y-79451498D01*
X153993506Y-79510463D01*
X153896815Y-79589815D01*
X153817463Y-79686506D01*
X153758498Y-79796820D01*
X153722188Y-79916518D01*
X153709928Y-80041000D01*
X147178132Y-80041000D01*
X146599996Y-79462865D01*
X146564449Y-79419551D01*
X146391623Y-79277716D01*
X146194447Y-79172324D01*
X145980499Y-79107423D01*
X145813752Y-79091000D01*
X145813751Y-79091000D01*
X145758000Y-79085509D01*
X145702249Y-79091000D01*
X139757000Y-79091000D01*
X139757000Y-78788558D01*
X139718873Y-78401450D01*
X139568201Y-77904750D01*
X139323523Y-77446989D01*
X138994241Y-77045759D01*
X138593010Y-76716477D01*
X138135249Y-76471799D01*
X137638549Y-76321127D01*
X137122000Y-76270251D01*
X136605450Y-76321127D01*
X136108750Y-76471799D01*
X135650989Y-76716477D01*
X135249759Y-77045759D01*
X134920477Y-77446990D01*
X134675799Y-77904751D01*
X134525127Y-78401451D01*
X134487000Y-78788559D01*
X134487000Y-78837000D01*
X132004133Y-78837000D01*
X130597995Y-77430864D01*
X130562449Y-77387551D01*
X130389623Y-77245716D01*
X130192447Y-77140324D01*
X129978499Y-77075423D01*
X129811752Y-77059000D01*
X129811751Y-77059000D01*
X129756000Y-77053509D01*
X129700249Y-77059000D01*
X122699741Y-77059000D01*
X122643999Y-77053510D01*
X122588257Y-77059000D01*
X122588248Y-77059000D01*
X122421501Y-77075423D01*
X122207553Y-77140324D01*
X122010377Y-77245716D01*
X121837551Y-77387551D01*
X121802009Y-77430860D01*
X120355869Y-78877000D01*
X118340072Y-78877000D01*
X118340072Y-78262000D01*
X118327812Y-78137518D01*
X118291502Y-78017820D01*
X118232537Y-77907506D01*
X118153185Y-77810815D01*
X118056494Y-77731463D01*
X117946180Y-77672498D01*
X117826482Y-77636188D01*
X117702000Y-77623928D01*
X115902000Y-77623928D01*
X115777518Y-77636188D01*
X115657820Y-77672498D01*
X115547506Y-77731463D01*
X115450815Y-77810815D01*
X115371463Y-77907506D01*
X115312498Y-78017820D01*
X115276188Y-78137518D01*
X115263928Y-78262000D01*
X115263928Y-81762000D01*
X115276188Y-81886482D01*
X115312498Y-82006180D01*
X115371463Y-82116494D01*
X115450815Y-82213185D01*
X115547506Y-82292537D01*
X115657820Y-82351502D01*
X115777518Y-82387812D01*
X115902000Y-82400072D01*
X117702000Y-82400072D01*
X117826482Y-82387812D01*
X117946180Y-82351502D01*
X118056494Y-82292537D01*
X118153185Y-82213185D01*
X118232537Y-82116494D01*
X118291502Y-82006180D01*
X118327812Y-81886482D01*
X118340072Y-81762000D01*
X118340072Y-81147000D01*
X120770249Y-81147000D01*
X120826000Y-81152491D01*
X120881751Y-81147000D01*
X120881752Y-81147000D01*
X121048499Y-81130577D01*
X121262447Y-81065676D01*
X121459623Y-80960284D01*
X121632449Y-80818449D01*
X121667996Y-80775135D01*
X123114132Y-79329000D01*
X129285869Y-79329000D01*
X130692013Y-80735146D01*
X130727551Y-80778449D01*
X130770854Y-80813987D01*
X130770856Y-80813989D01*
X130900377Y-80920284D01*
X131097553Y-81025676D01*
X131311501Y-81090577D01*
X131534000Y-81112491D01*
X131589752Y-81107000D01*
X134487000Y-81107000D01*
X134487000Y-81547442D01*
X134525127Y-81934550D01*
X134675799Y-82431250D01*
X134920478Y-82889011D01*
X135249760Y-83290241D01*
X135297368Y-83329312D01*
X135197171Y-83411541D01*
X135161629Y-83454849D01*
X132667479Y-85949000D01*
X127831666Y-85949000D01*
X128093489Y-85687177D01*
X128491295Y-85091818D01*
X128765309Y-84430290D01*
X128905000Y-83728016D01*
X128905000Y-83011984D01*
X128765309Y-82309710D01*
X128491295Y-81648182D01*
X128093489Y-81052823D01*
X127587177Y-80546511D01*
X126991818Y-80148705D01*
X126330290Y-79874691D01*
X125628016Y-79735000D01*
X124911984Y-79735000D01*
X124209710Y-79874691D01*
X123548182Y-80148705D01*
X122952823Y-80546511D01*
X122446511Y-81052823D01*
X122048705Y-81648182D01*
X121774691Y-82309710D01*
X121635000Y-83011984D01*
X121635000Y-83728016D01*
X121774691Y-84430290D01*
X122048705Y-85091818D01*
X122446511Y-85687177D01*
X122708334Y-85949000D01*
X120921752Y-85949000D01*
X120866000Y-85943509D01*
X120810248Y-85949000D01*
X120643501Y-85965423D01*
X120429553Y-86030324D01*
X120232377Y-86135716D01*
X120059551Y-86277551D01*
X120024011Y-86320857D01*
X118340072Y-88004797D01*
X118340072Y-87660000D01*
X118327812Y-87535518D01*
X118291502Y-87415820D01*
X118232537Y-87305506D01*
X118154978Y-87211000D01*
X118232537Y-87116494D01*
X118291502Y-87006180D01*
X118327812Y-86886482D01*
X118340072Y-86762000D01*
X118340072Y-83262000D01*
X118327812Y-83137518D01*
X118291502Y-83017820D01*
X118232537Y-82907506D01*
X118153185Y-82810815D01*
X118056494Y-82731463D01*
X117946180Y-82672498D01*
X117826482Y-82636188D01*
X117702000Y-82623928D01*
X115902000Y-82623928D01*
X115777518Y-82636188D01*
X115657820Y-82672498D01*
X115547506Y-82731463D01*
X115450815Y-82810815D01*
X115371463Y-82907506D01*
X115312498Y-83017820D01*
X115276188Y-83137518D01*
X115263928Y-83262000D01*
X115263928Y-84984940D01*
X114006860Y-86242009D01*
X113963552Y-86277551D01*
X113821717Y-86450377D01*
X113777661Y-86532801D01*
X113716324Y-86647554D01*
X113651423Y-86861502D01*
X113629509Y-87084000D01*
X113635001Y-87139761D01*
X113635000Y-94394248D01*
X113629509Y-94450000D01*
X113635000Y-94505751D01*
X113635001Y-94505761D01*
X113635000Y-97493749D01*
X113635001Y-97493759D01*
X113635000Y-104046248D01*
X113629509Y-104102000D01*
X113635000Y-104157751D01*
X113635001Y-104157761D01*
X113635000Y-114968248D01*
X113629509Y-115024000D01*
X113651423Y-115246499D01*
X113716324Y-115460447D01*
X113818176Y-115651000D01*
X113821716Y-115657623D01*
X113963551Y-115830449D01*
X114136377Y-115972284D01*
X114333553Y-116077676D01*
X114547501Y-116142577D01*
X114770000Y-116164491D01*
X114825751Y-116159000D01*
X115263928Y-116159000D01*
X115263928Y-116734000D01*
X115276188Y-116858482D01*
X115312498Y-116978180D01*
X115371463Y-117088494D01*
X115450815Y-117185185D01*
X115547506Y-117264537D01*
X115657820Y-117323502D01*
X115777518Y-117359812D01*
X115902000Y-117372072D01*
X117702000Y-117372072D01*
X117826482Y-117359812D01*
X117946180Y-117323502D01*
X118056494Y-117264537D01*
X118153185Y-117185185D01*
X118232537Y-117088494D01*
X118291502Y-116978180D01*
X118327812Y-116858482D01*
X118340072Y-116734000D01*
X118340072Y-116159000D01*
X119887869Y-116159000D01*
X121548009Y-117819141D01*
X121583551Y-117862449D01*
X121756377Y-118004284D01*
X121900624Y-118081385D01*
X121953553Y-118109676D01*
X122167501Y-118174577D01*
X122390000Y-118196491D01*
X122445751Y-118191000D01*
X126652249Y-118191000D01*
X126708000Y-118196491D01*
X126763751Y-118191000D01*
X126763752Y-118191000D01*
X126930499Y-118174577D01*
X127144447Y-118109676D01*
X127341623Y-118004284D01*
X127514449Y-117862449D01*
X127549996Y-117819135D01*
X129718132Y-115651000D01*
X137249000Y-115651000D01*
X137249000Y-120497241D01*
X137219188Y-120595518D01*
X137206928Y-120720000D01*
X137206928Y-128588000D01*
X135332963Y-128588000D01*
X135330000Y-125005750D01*
X135171250Y-124847000D01*
X128822000Y-124847000D01*
X128822000Y-124867000D01*
X128568000Y-124867000D01*
X128568000Y-124847000D01*
X122218750Y-124847000D01*
X122060000Y-125005750D01*
X122057037Y-128588000D01*
X112382000Y-128588000D01*
X112382000Y-124455872D01*
X114059000Y-124455872D01*
X114059000Y-124896128D01*
X114144890Y-125327925D01*
X114313369Y-125734669D01*
X114557962Y-126100729D01*
X114869271Y-126412038D01*
X115235331Y-126656631D01*
X115642075Y-126825110D01*
X116073872Y-126911000D01*
X116514128Y-126911000D01*
X116945925Y-126825110D01*
X117352669Y-126656631D01*
X117718729Y-126412038D01*
X118030038Y-126100729D01*
X118274631Y-125734669D01*
X118443110Y-125327925D01*
X118529000Y-124896128D01*
X118529000Y-124455872D01*
X118443110Y-124024075D01*
X118274631Y-123617331D01*
X118030038Y-123251271D01*
X117718729Y-122939962D01*
X117352669Y-122695369D01*
X116945925Y-122526890D01*
X116514128Y-122441000D01*
X116073872Y-122441000D01*
X115642075Y-122526890D01*
X115235331Y-122695369D01*
X114869271Y-122939962D01*
X114557962Y-123251271D01*
X114313369Y-123617331D01*
X114144890Y-124024075D01*
X114059000Y-124455872D01*
X112382000Y-124455872D01*
X112382000Y-120720000D01*
X122056928Y-120720000D01*
X122060000Y-124434250D01*
X122218750Y-124593000D01*
X128568000Y-124593000D01*
X128568000Y-120243750D01*
X128822000Y-120243750D01*
X128822000Y-124593000D01*
X135171250Y-124593000D01*
X135330000Y-124434250D01*
X135333072Y-120720000D01*
X135320812Y-120595518D01*
X135284502Y-120475820D01*
X135225537Y-120365506D01*
X135146185Y-120268815D01*
X135049494Y-120189463D01*
X134939180Y-120130498D01*
X134819482Y-120094188D01*
X134695000Y-120081928D01*
X128980750Y-120085000D01*
X128822000Y-120243750D01*
X128568000Y-120243750D01*
X128409250Y-120085000D01*
X122695000Y-120081928D01*
X122570518Y-120094188D01*
X122450820Y-120130498D01*
X122340506Y-120189463D01*
X122243815Y-120268815D01*
X122164463Y-120365506D01*
X122105498Y-120475820D01*
X122069188Y-120595518D01*
X122056928Y-120720000D01*
X112382000Y-120720000D01*
X112382000Y-71369872D01*
X114059000Y-71369872D01*
X114059000Y-71810128D01*
X114144890Y-72241925D01*
X114313369Y-72648669D01*
X114557962Y-73014729D01*
X114869271Y-73326038D01*
X115235331Y-73570631D01*
X115642075Y-73739110D01*
X116073872Y-73825000D01*
X116514128Y-73825000D01*
X116945925Y-73739110D01*
X117352669Y-73570631D01*
X117718729Y-73326038D01*
X118030038Y-73014729D01*
X118274631Y-72648669D01*
X118443110Y-72241925D01*
X118529000Y-71810128D01*
X118529000Y-71369872D01*
X118443110Y-70938075D01*
X118274631Y-70531331D01*
X118030038Y-70165271D01*
X117718729Y-69853962D01*
X117352669Y-69609369D01*
X116945925Y-69440890D01*
X116514128Y-69355000D01*
X116073872Y-69355000D01*
X115642075Y-69440890D01*
X115235331Y-69609369D01*
X114869271Y-69853962D01*
X114557962Y-70165271D01*
X114313369Y-70531331D01*
X114144890Y-70938075D01*
X114059000Y-71369872D01*
X112382000Y-71369872D01*
X112382000Y-67678000D01*
X157921556Y-67678000D01*
X157893188Y-67771518D01*
%TA.AperFunction,Conductor*%
D25*
G36*
X157893188Y-67771518D02*
G01*
X157880928Y-67896000D01*
X157884000Y-68510250D01*
X158042750Y-68669000D01*
X159054500Y-68669000D01*
X159054500Y-68649000D01*
X159308500Y-68649000D01*
X159308500Y-68669000D01*
X160320250Y-68669000D01*
X160479000Y-68510250D01*
X160482072Y-67896000D01*
X160469812Y-67771518D01*
X160441444Y-67678000D01*
X161142025Y-67678000D01*
X161073528Y-67806149D01*
X161022992Y-67972745D01*
X161005928Y-68145999D01*
X161005928Y-69446001D01*
X161022992Y-69619255D01*
X161073528Y-69785851D01*
X161155595Y-69939387D01*
X161266038Y-70073962D01*
X161330363Y-70126752D01*
X161301745Y-70118071D01*
X161148000Y-70102928D01*
X160848000Y-70102928D01*
X160694255Y-70118071D01*
X160546418Y-70162916D01*
X160410171Y-70235742D01*
X160363000Y-70274454D01*
X160315829Y-70235742D01*
X160237981Y-70194131D01*
X160295185Y-70147185D01*
X160374537Y-70050494D01*
X160433502Y-69940180D01*
X160469812Y-69820482D01*
X160482072Y-69696000D01*
X160479000Y-69081750D01*
X160320250Y-68923000D01*
X159308500Y-68923000D01*
X159308500Y-68943000D01*
X159054500Y-68943000D01*
X159054500Y-68923000D01*
X158042750Y-68923000D01*
X157884000Y-69081750D01*
X157880928Y-69696000D01*
X157893188Y-69820482D01*
X157929498Y-69940180D01*
X157988463Y-70050494D01*
X158065914Y-70144868D01*
X158006418Y-70162916D01*
X157870171Y-70235742D01*
X157823000Y-70274454D01*
X157775829Y-70235742D01*
X157639582Y-70162916D01*
X157491745Y-70118071D01*
X157338000Y-70102928D01*
X157038000Y-70102928D01*
X156884255Y-70118071D01*
X156736418Y-70162916D01*
X156600171Y-70235742D01*
X156553000Y-70274454D01*
X156505829Y-70235742D01*
X156369582Y-70162916D01*
X156221745Y-70118071D01*
X156068000Y-70102928D01*
X155768000Y-70102928D01*
X155614255Y-70118071D01*
X155466418Y-70162916D01*
X155330171Y-70235742D01*
X155283000Y-70274454D01*
X155235829Y-70235742D01*
X155099582Y-70162916D01*
X154951745Y-70118071D01*
X154798000Y-70102928D01*
X154498000Y-70102928D01*
X154344255Y-70118071D01*
X154196418Y-70162916D01*
X154060171Y-70235742D01*
X153940749Y-70333749D01*
X153842742Y-70453171D01*
X153769916Y-70589418D01*
X153725071Y-70737255D01*
X153709928Y-70891000D01*
X153709928Y-72641000D01*
X153725071Y-72794745D01*
X153769916Y-72942582D01*
X153842742Y-73078829D01*
X153940749Y-73198251D01*
X154060171Y-73296258D01*
X154196418Y-73369084D01*
X154344255Y-73413929D01*
X154498000Y-73429072D01*
X154798000Y-73429072D01*
X154951745Y-73413929D01*
X155099582Y-73369084D01*
X155235829Y-73296258D01*
X155283000Y-73257546D01*
X155330171Y-73296258D01*
X155466418Y-73369084D01*
X155614255Y-73413929D01*
X155768000Y-73429072D01*
X156068000Y-73429072D01*
X156221745Y-73413929D01*
X156369582Y-73369084D01*
X156505829Y-73296258D01*
X156553000Y-73257546D01*
X156600171Y-73296258D01*
X156736418Y-73369084D01*
X156884255Y-73413929D01*
X157038000Y-73429072D01*
X157338000Y-73429072D01*
X157491745Y-73413929D01*
X157639582Y-73369084D01*
X157775829Y-73296258D01*
X157823000Y-73257546D01*
X157870171Y-73296258D01*
X158006418Y-73369084D01*
X158154255Y-73413929D01*
X158308000Y-73429072D01*
X158608000Y-73429072D01*
X158761745Y-73413929D01*
X158909582Y-73369084D01*
X159045829Y-73296258D01*
X159093000Y-73257546D01*
X159140171Y-73296258D01*
X159276418Y-73369084D01*
X159424255Y-73413929D01*
X159578000Y-73429072D01*
X159878000Y-73429072D01*
X160031745Y-73413929D01*
X160179582Y-73369084D01*
X160315829Y-73296258D01*
X160363000Y-73257546D01*
X160410171Y-73296258D01*
X160546418Y-73369084D01*
X160694255Y-73413929D01*
X160848000Y-73429072D01*
X161148000Y-73429072D01*
X161301745Y-73413929D01*
X161333000Y-73404448D01*
X161333001Y-76370058D01*
X161328476Y-76416000D01*
X161346529Y-76599291D01*
X161399994Y-76775540D01*
X161486815Y-76937972D01*
X161603657Y-77080344D01*
X161639336Y-77109625D01*
X162740417Y-78210706D01*
X162669994Y-78342460D01*
X162616529Y-78518709D01*
X162598476Y-78702000D01*
X162603001Y-78747942D01*
X162603001Y-79427552D01*
X162571745Y-79418071D01*
X162418000Y-79402928D01*
X162255161Y-79402928D01*
X162206789Y-79343987D01*
X162182991Y-79314989D01*
X162153994Y-79291192D01*
X161561803Y-78699002D01*
X161538001Y-78669999D01*
X161422276Y-78575026D01*
X161290247Y-78504454D01*
X161146986Y-78460997D01*
X161035333Y-78450000D01*
X161035322Y-78450000D01*
X160998000Y-78446324D01*
X160960678Y-78450000D01*
X160273322Y-78450000D01*
X160235999Y-78446324D01*
X160198676Y-78450000D01*
X160198667Y-78450000D01*
X160087014Y-78460997D01*
X159943753Y-78504454D01*
X159811724Y-78575026D01*
X159695999Y-78669999D01*
X159672200Y-78698998D01*
X159216998Y-79154201D01*
X159188000Y-79177999D01*
X159164202Y-79206997D01*
X159164201Y-79206998D01*
X159093026Y-79293724D01*
X159022454Y-79425754D01*
X158999251Y-79502247D01*
X158997119Y-79509275D01*
X158882275Y-79415026D01*
X158750246Y-79344454D01*
X158606985Y-79300997D01*
X158458000Y-79286323D01*
X158309014Y-79300997D01*
X158165753Y-79344454D01*
X158033724Y-79415026D01*
X157917999Y-79509999D01*
X157917738Y-79510317D01*
X157870171Y-79535742D01*
X157823000Y-79574454D01*
X157775829Y-79535742D01*
X157639582Y-79462916D01*
X157491745Y-79418071D01*
X157338000Y-79402928D01*
X157038000Y-79402928D01*
X156884255Y-79418071D01*
X156736418Y-79462916D01*
X156600171Y-79535742D01*
X156553000Y-79574454D01*
X156505829Y-79535742D01*
X156369582Y-79462916D01*
X156221745Y-79418071D01*
X156068000Y-79402928D01*
X155768000Y-79402928D01*
X155614255Y-79418071D01*
X155466418Y-79462916D01*
X155332064Y-79534730D01*
X155302494Y-79510463D01*
X155192180Y-79451498D01*
X155072482Y-79415188D01*
X154948000Y-79402928D01*
X154933750Y-79406000D01*
X154775000Y-79564750D01*
X154775000Y-80939000D01*
X154795000Y-80939000D01*
X154795000Y-81193000D01*
X154775000Y-81193000D01*
X154775000Y-82567250D01*
X154933750Y-82726000D01*
X154948000Y-82729072D01*
X155072482Y-82716812D01*
X155192180Y-82680502D01*
X155284108Y-82631365D01*
X155320285Y-86429928D01*
X154984000Y-86429928D01*
X154859518Y-86442188D01*
X154739820Y-86478498D01*
X154629506Y-86537463D01*
X154532815Y-86616815D01*
X154455520Y-86711000D01*
X153848132Y-86711000D01*
X149228132Y-82091000D01*
X153709928Y-82091000D01*
X153722188Y-82215482D01*
X153758498Y-82335180D01*
X153817463Y-82445494D01*
X153896815Y-82542185D01*
X153993506Y-82621537D01*
X154103820Y-82680502D01*
X154223518Y-82716812D01*
X154348000Y-82729072D01*
X154362250Y-82726000D01*
X154521000Y-82567250D01*
X154521000Y-81193000D01*
X153871750Y-81193000D01*
X153713000Y-81351750D01*
X153709928Y-82091000D01*
X149228132Y-82091000D01*
X147178132Y-80041000D01*
X153709928Y-80041000D01*
X153713000Y-80780250D01*
X153871750Y-80939000D01*
X154521000Y-80939000D01*
X154521000Y-79564750D01*
X154362250Y-79406000D01*
X154348000Y-79402928D01*
X154223518Y-79415188D01*
X154103820Y-79451498D01*
X153993506Y-79510463D01*
X153896815Y-79589815D01*
X153817463Y-79686506D01*
X153758498Y-79796820D01*
X153722188Y-79916518D01*
X153709928Y-80041000D01*
X147178132Y-80041000D01*
X146599996Y-79462865D01*
X146564449Y-79419551D01*
X146391623Y-79277716D01*
X146194447Y-79172324D01*
X145980499Y-79107423D01*
X145813752Y-79091000D01*
X145813751Y-79091000D01*
X145758000Y-79085509D01*
X145702249Y-79091000D01*
X139757000Y-79091000D01*
X139757000Y-78788558D01*
X139718873Y-78401450D01*
X139568201Y-77904750D01*
X139323523Y-77446989D01*
X138994241Y-77045759D01*
X138593010Y-76716477D01*
X138135249Y-76471799D01*
X137638549Y-76321127D01*
X137122000Y-76270251D01*
X136605450Y-76321127D01*
X136108750Y-76471799D01*
X135650989Y-76716477D01*
X135249759Y-77045759D01*
X134920477Y-77446990D01*
X134675799Y-77904751D01*
X134525127Y-78401451D01*
X134487000Y-78788559D01*
X134487000Y-78837000D01*
X132004133Y-78837000D01*
X130597995Y-77430864D01*
X130562449Y-77387551D01*
X130389623Y-77245716D01*
X130192447Y-77140324D01*
X129978499Y-77075423D01*
X129811752Y-77059000D01*
X129811751Y-77059000D01*
X129756000Y-77053509D01*
X129700249Y-77059000D01*
X122699741Y-77059000D01*
X122643999Y-77053510D01*
X122588257Y-77059000D01*
X122588248Y-77059000D01*
X122421501Y-77075423D01*
X122207553Y-77140324D01*
X122010377Y-77245716D01*
X121837551Y-77387551D01*
X121802009Y-77430860D01*
X120355869Y-78877000D01*
X118340072Y-78877000D01*
X118340072Y-78262000D01*
X118327812Y-78137518D01*
X118291502Y-78017820D01*
X118232537Y-77907506D01*
X118153185Y-77810815D01*
X118056494Y-77731463D01*
X117946180Y-77672498D01*
X117826482Y-77636188D01*
X117702000Y-77623928D01*
X115902000Y-77623928D01*
X115777518Y-77636188D01*
X115657820Y-77672498D01*
X115547506Y-77731463D01*
X115450815Y-77810815D01*
X115371463Y-77907506D01*
X115312498Y-78017820D01*
X115276188Y-78137518D01*
X115263928Y-78262000D01*
X115263928Y-81762000D01*
X115276188Y-81886482D01*
X115312498Y-82006180D01*
X115371463Y-82116494D01*
X115450815Y-82213185D01*
X115547506Y-82292537D01*
X115657820Y-82351502D01*
X115777518Y-82387812D01*
X115902000Y-82400072D01*
X117702000Y-82400072D01*
X117826482Y-82387812D01*
X117946180Y-82351502D01*
X118056494Y-82292537D01*
X118153185Y-82213185D01*
X118232537Y-82116494D01*
X118291502Y-82006180D01*
X118327812Y-81886482D01*
X118340072Y-81762000D01*
X118340072Y-81147000D01*
X120770249Y-81147000D01*
X120826000Y-81152491D01*
X120881751Y-81147000D01*
X120881752Y-81147000D01*
X121048499Y-81130577D01*
X121262447Y-81065676D01*
X121459623Y-80960284D01*
X121632449Y-80818449D01*
X121667996Y-80775135D01*
X123114132Y-79329000D01*
X129285869Y-79329000D01*
X130692013Y-80735146D01*
X130727551Y-80778449D01*
X130770854Y-80813987D01*
X130770856Y-80813989D01*
X130900377Y-80920284D01*
X131097553Y-81025676D01*
X131311501Y-81090577D01*
X131534000Y-81112491D01*
X131589752Y-81107000D01*
X134487000Y-81107000D01*
X134487000Y-81547442D01*
X134525127Y-81934550D01*
X134675799Y-82431250D01*
X134920478Y-82889011D01*
X135249760Y-83290241D01*
X135297368Y-83329312D01*
X135197171Y-83411541D01*
X135161629Y-83454849D01*
X132667479Y-85949000D01*
X127831666Y-85949000D01*
X128093489Y-85687177D01*
X128491295Y-85091818D01*
X128765309Y-84430290D01*
X128905000Y-83728016D01*
X128905000Y-83011984D01*
X128765309Y-82309710D01*
X128491295Y-81648182D01*
X128093489Y-81052823D01*
X127587177Y-80546511D01*
X126991818Y-80148705D01*
X126330290Y-79874691D01*
X125628016Y-79735000D01*
X124911984Y-79735000D01*
X124209710Y-79874691D01*
X123548182Y-80148705D01*
X122952823Y-80546511D01*
X122446511Y-81052823D01*
X122048705Y-81648182D01*
X121774691Y-82309710D01*
X121635000Y-83011984D01*
X121635000Y-83728016D01*
X121774691Y-84430290D01*
X122048705Y-85091818D01*
X122446511Y-85687177D01*
X122708334Y-85949000D01*
X120921752Y-85949000D01*
X120866000Y-85943509D01*
X120810248Y-85949000D01*
X120643501Y-85965423D01*
X120429553Y-86030324D01*
X120232377Y-86135716D01*
X120059551Y-86277551D01*
X120024011Y-86320857D01*
X118340072Y-88004797D01*
X118340072Y-87660000D01*
X118327812Y-87535518D01*
X118291502Y-87415820D01*
X118232537Y-87305506D01*
X118154978Y-87211000D01*
X118232537Y-87116494D01*
X118291502Y-87006180D01*
X118327812Y-86886482D01*
X118340072Y-86762000D01*
X118340072Y-83262000D01*
X118327812Y-83137518D01*
X118291502Y-83017820D01*
X118232537Y-82907506D01*
X118153185Y-82810815D01*
X118056494Y-82731463D01*
X117946180Y-82672498D01*
X117826482Y-82636188D01*
X117702000Y-82623928D01*
X115902000Y-82623928D01*
X115777518Y-82636188D01*
X115657820Y-82672498D01*
X115547506Y-82731463D01*
X115450815Y-82810815D01*
X115371463Y-82907506D01*
X115312498Y-83017820D01*
X115276188Y-83137518D01*
X115263928Y-83262000D01*
X115263928Y-84984940D01*
X114006860Y-86242009D01*
X113963552Y-86277551D01*
X113821717Y-86450377D01*
X113777661Y-86532801D01*
X113716324Y-86647554D01*
X113651423Y-86861502D01*
X113629509Y-87084000D01*
X113635001Y-87139761D01*
X113635000Y-94394248D01*
X113629509Y-94450000D01*
X113635000Y-94505751D01*
X113635001Y-94505761D01*
X113635000Y-97493749D01*
X113635001Y-97493759D01*
X113635000Y-104046248D01*
X113629509Y-104102000D01*
X113635000Y-104157751D01*
X113635001Y-104157761D01*
X113635000Y-114968248D01*
X113629509Y-115024000D01*
X113651423Y-115246499D01*
X113716324Y-115460447D01*
X113818176Y-115651000D01*
X113821716Y-115657623D01*
X113963551Y-115830449D01*
X114136377Y-115972284D01*
X114333553Y-116077676D01*
X114547501Y-116142577D01*
X114770000Y-116164491D01*
X114825751Y-116159000D01*
X115263928Y-116159000D01*
X115263928Y-116734000D01*
X115276188Y-116858482D01*
X115312498Y-116978180D01*
X115371463Y-117088494D01*
X115450815Y-117185185D01*
X115547506Y-117264537D01*
X115657820Y-117323502D01*
X115777518Y-117359812D01*
X115902000Y-117372072D01*
X117702000Y-117372072D01*
X117826482Y-117359812D01*
X117946180Y-117323502D01*
X118056494Y-117264537D01*
X118153185Y-117185185D01*
X118232537Y-117088494D01*
X118291502Y-116978180D01*
X118327812Y-116858482D01*
X118340072Y-116734000D01*
X118340072Y-116159000D01*
X119887869Y-116159000D01*
X121548009Y-117819141D01*
X121583551Y-117862449D01*
X121756377Y-118004284D01*
X121900624Y-118081385D01*
X121953553Y-118109676D01*
X122167501Y-118174577D01*
X122390000Y-118196491D01*
X122445751Y-118191000D01*
X126652249Y-118191000D01*
X126708000Y-118196491D01*
X126763751Y-118191000D01*
X126763752Y-118191000D01*
X126930499Y-118174577D01*
X127144447Y-118109676D01*
X127341623Y-118004284D01*
X127514449Y-117862449D01*
X127549996Y-117819135D01*
X129718132Y-115651000D01*
X137249000Y-115651000D01*
X137249000Y-120497241D01*
X137219188Y-120595518D01*
X137206928Y-120720000D01*
X137206928Y-128588000D01*
X135332963Y-128588000D01*
X135330000Y-125005750D01*
X135171250Y-124847000D01*
X128822000Y-124847000D01*
X128822000Y-124867000D01*
X128568000Y-124867000D01*
X128568000Y-124847000D01*
X122218750Y-124847000D01*
X122060000Y-125005750D01*
X122057037Y-128588000D01*
X112382000Y-128588000D01*
X112382000Y-124455872D01*
X114059000Y-124455872D01*
X114059000Y-124896128D01*
X114144890Y-125327925D01*
X114313369Y-125734669D01*
X114557962Y-126100729D01*
X114869271Y-126412038D01*
X115235331Y-126656631D01*
X115642075Y-126825110D01*
X116073872Y-126911000D01*
X116514128Y-126911000D01*
X116945925Y-126825110D01*
X117352669Y-126656631D01*
X117718729Y-126412038D01*
X118030038Y-126100729D01*
X118274631Y-125734669D01*
X118443110Y-125327925D01*
X118529000Y-124896128D01*
X118529000Y-124455872D01*
X118443110Y-124024075D01*
X118274631Y-123617331D01*
X118030038Y-123251271D01*
X117718729Y-122939962D01*
X117352669Y-122695369D01*
X116945925Y-122526890D01*
X116514128Y-122441000D01*
X116073872Y-122441000D01*
X115642075Y-122526890D01*
X115235331Y-122695369D01*
X114869271Y-122939962D01*
X114557962Y-123251271D01*
X114313369Y-123617331D01*
X114144890Y-124024075D01*
X114059000Y-124455872D01*
X112382000Y-124455872D01*
X112382000Y-120720000D01*
X122056928Y-120720000D01*
X122060000Y-124434250D01*
X122218750Y-124593000D01*
X128568000Y-124593000D01*
X128568000Y-120243750D01*
X128822000Y-120243750D01*
X128822000Y-124593000D01*
X135171250Y-124593000D01*
X135330000Y-124434250D01*
X135333072Y-120720000D01*
X135320812Y-120595518D01*
X135284502Y-120475820D01*
X135225537Y-120365506D01*
X135146185Y-120268815D01*
X135049494Y-120189463D01*
X134939180Y-120130498D01*
X134819482Y-120094188D01*
X134695000Y-120081928D01*
X128980750Y-120085000D01*
X128822000Y-120243750D01*
X128568000Y-120243750D01*
X128409250Y-120085000D01*
X122695000Y-120081928D01*
X122570518Y-120094188D01*
X122450820Y-120130498D01*
X122340506Y-120189463D01*
X122243815Y-120268815D01*
X122164463Y-120365506D01*
X122105498Y-120475820D01*
X122069188Y-120595518D01*
X122056928Y-120720000D01*
X112382000Y-120720000D01*
X112382000Y-71369872D01*
X114059000Y-71369872D01*
X114059000Y-71810128D01*
X114144890Y-72241925D01*
X114313369Y-72648669D01*
X114557962Y-73014729D01*
X114869271Y-73326038D01*
X115235331Y-73570631D01*
X115642075Y-73739110D01*
X116073872Y-73825000D01*
X116514128Y-73825000D01*
X116945925Y-73739110D01*
X117352669Y-73570631D01*
X117718729Y-73326038D01*
X118030038Y-73014729D01*
X118274631Y-72648669D01*
X118443110Y-72241925D01*
X118529000Y-71810128D01*
X118529000Y-71369872D01*
X118443110Y-70938075D01*
X118274631Y-70531331D01*
X118030038Y-70165271D01*
X117718729Y-69853962D01*
X117352669Y-69609369D01*
X116945925Y-69440890D01*
X116514128Y-69355000D01*
X116073872Y-69355000D01*
X115642075Y-69440890D01*
X115235331Y-69609369D01*
X114869271Y-69853962D01*
X114557962Y-70165271D01*
X114313369Y-70531331D01*
X114144890Y-70938075D01*
X114059000Y-71369872D01*
X112382000Y-71369872D01*
X112382000Y-67678000D01*
X157921556Y-67678000D01*
X157893188Y-67771518D01*
G37*
%TD.AperFunction*%
D24*
X145930868Y-89116000D02*
X144558874Y-90487994D01*
X144515561Y-90523541D01*
X144483893Y-90562128D01*
X144191525Y-90297635D01*
X143747704Y-90032178D01*
X143260623Y-89858407D01*
X142749000Y-89783000D01*
X141499000Y-89783000D01*
X141499000Y-92291000D01*
X141519000Y-92291000D01*
X141519000Y-92545000D01*
X141499000Y-92545000D01*
X141499000Y-95053000D01*
X142749000Y-95053000D01*
X143260623Y-94977593D01*
X143747704Y-94803822D01*
X144187011Y-94541065D01*
X144187011Y-95001855D01*
X142962865Y-96226002D01*
X142919551Y-96261549D01*
X142777716Y-96434375D01*
X142694232Y-96590565D01*
X142672324Y-96631552D01*
X142607423Y-96845500D01*
X142585509Y-97067998D01*
X142591000Y-97123750D01*
X142591001Y-101091867D01*
X140149869Y-103533000D01*
X139757000Y-103533000D01*
X139757000Y-103288558D01*
X139718873Y-102901450D01*
X139568201Y-102404750D01*
X139323523Y-101946989D01*
X138994241Y-101545759D01*
X138593010Y-101216477D01*
X138135249Y-100971799D01*
X137638549Y-100821127D01*
X137122000Y-100770251D01*
X136605450Y-100821127D01*
X136108750Y-100971799D01*
X135650989Y-101216477D01*
X135249759Y-101545759D01*
X134920477Y-101946990D01*
X134675799Y-102404751D01*
X134525127Y-102901451D01*
X134487000Y-103288559D01*
X134487000Y-106047442D01*
X134525127Y-106434550D01*
X134675799Y-106931250D01*
X134920478Y-107389011D01*
X135249760Y-107790241D01*
X135650990Y-108119523D01*
X136108751Y-108364201D01*
X136605451Y-108514873D01*
X137122000Y-108565749D01*
X137638550Y-108514873D01*
X138135250Y-108364201D01*
X138593011Y-108119523D01*
X138994241Y-107790241D01*
X139323523Y-107389011D01*
X139568201Y-106931250D01*
X139718873Y-106434550D01*
X139757000Y-106047442D01*
X139757000Y-105803000D01*
X140564249Y-105803000D01*
X140620000Y-105808491D01*
X140675751Y-105803000D01*
X140675752Y-105803000D01*
X140842499Y-105786577D01*
X141056447Y-105721676D01*
X141253623Y-105616284D01*
X141426449Y-105474449D01*
X141461996Y-105431135D01*
X144489141Y-102403991D01*
X144532449Y-102368449D01*
X144674284Y-102195623D01*
X144779676Y-101998447D01*
X144844577Y-101784499D01*
X144861000Y-101617752D01*
X144861000Y-101617743D01*
X144866490Y-101562001D01*
X144861000Y-101506259D01*
X144861000Y-98589748D01*
X144934893Y-98768141D01*
X145223262Y-99199715D01*
X145590285Y-99566738D01*
X146021859Y-99855107D01*
X146501399Y-100053739D01*
X147010475Y-100155000D01*
X147529525Y-100155000D01*
X147924417Y-100076452D01*
X139191869Y-108809000D01*
X134798133Y-108809000D01*
X130056990Y-104067859D01*
X130056990Y-96795000D01*
X134487000Y-96795000D01*
X134487000Y-98045000D01*
X134562407Y-98556623D01*
X134736178Y-99043704D01*
X135001635Y-99487525D01*
X135348576Y-99871030D01*
X135763669Y-100179481D01*
X136230962Y-100401025D01*
X136584838Y-100497667D01*
X136995000Y-100390991D01*
X136995000Y-96795000D01*
X137249000Y-96795000D01*
X137249000Y-100390991D01*
X137659162Y-100497667D01*
X138013038Y-100401025D01*
X138480331Y-100179481D01*
X138895424Y-99871030D01*
X139242365Y-99487525D01*
X139507822Y-99043704D01*
X139681593Y-98556623D01*
X139757000Y-98045000D01*
X139757000Y-96795000D01*
X137249000Y-96795000D01*
X136995000Y-96795000D01*
X134487000Y-96795000D01*
X130056990Y-96795000D01*
X130056990Y-94541065D01*
X130496296Y-94803822D01*
X130983377Y-94977593D01*
X131495000Y-95053000D01*
X132745000Y-95053000D01*
X132745000Y-92545000D01*
X132999000Y-92545000D01*
X132999000Y-95053000D01*
X134249000Y-95053000D01*
X134528142Y-95011858D01*
X134487000Y-95291000D01*
X134487000Y-96541000D01*
X136995000Y-96541000D01*
X136995000Y-92945009D01*
X137249000Y-92945009D01*
X137249000Y-96541000D01*
X139757000Y-96541000D01*
X139757000Y-95291000D01*
X139715858Y-95011858D01*
X139995000Y-95053000D01*
X141245000Y-95053000D01*
X141245000Y-92545000D01*
X137649009Y-92545000D01*
X137566447Y-92862447D01*
X137249000Y-92945009D01*
X136995000Y-92945009D01*
X136677553Y-92862447D01*
X136594991Y-92545000D01*
X132999000Y-92545000D01*
X132745000Y-92545000D01*
X132725000Y-92545000D01*
X132725000Y-92291000D01*
X132745000Y-92291000D01*
X132745000Y-89783000D01*
X132999000Y-89783000D01*
X132999000Y-92291000D01*
X136594991Y-92291000D01*
X136677553Y-91973553D01*
X136995000Y-91890991D01*
X136995000Y-88295000D01*
X137249000Y-88295000D01*
X137249000Y-91890991D01*
X137566447Y-91973553D01*
X137649009Y-92291000D01*
X141245000Y-92291000D01*
X141245000Y-89783000D01*
X139995000Y-89783000D01*
X139715858Y-89824142D01*
X139757000Y-89545000D01*
X139757000Y-88295000D01*
X137249000Y-88295000D01*
X136995000Y-88295000D01*
X134487000Y-88295000D01*
X134487000Y-89545000D01*
X134528142Y-89824142D01*
X134249000Y-89783000D01*
X132999000Y-89783000D01*
X132745000Y-89783000D01*
X131495000Y-89783000D01*
X130983377Y-89858407D01*
X130496296Y-90032178D01*
X130052475Y-90297635D01*
X129760107Y-90562128D01*
X129728439Y-90523541D01*
X129685130Y-90487999D01*
X128151986Y-88954855D01*
X128116439Y-88911541D01*
X127943613Y-88769706D01*
X127746437Y-88664314D01*
X127532489Y-88599413D01*
X127365742Y-88582990D01*
X127365741Y-88582990D01*
X127309990Y-88577499D01*
X127254239Y-88582990D01*
X122559361Y-88582990D01*
X122503619Y-88577500D01*
X122447877Y-88582990D01*
X122447868Y-88582990D01*
X122281121Y-88599413D01*
X122067173Y-88664314D01*
X121869997Y-88769706D01*
X121697171Y-88911541D01*
X121661629Y-88954849D01*
X119086860Y-91529619D01*
X119043552Y-91565161D01*
X118901717Y-91737987D01*
X118845384Y-91843380D01*
X118796324Y-91935164D01*
X118731423Y-92149112D01*
X118709509Y-92371610D01*
X118715001Y-92427371D01*
X118715000Y-97535868D01*
X118340072Y-97910797D01*
X118340072Y-97566000D01*
X118327812Y-97441518D01*
X118291502Y-97321820D01*
X118232537Y-97211506D01*
X118153185Y-97114815D01*
X118056494Y-97035463D01*
X117946180Y-96976498D01*
X117826482Y-96940188D01*
X117702000Y-96927928D01*
X115905000Y-96927928D01*
X115905000Y-96798072D01*
X117702000Y-96798072D01*
X117826482Y-96785812D01*
X117946180Y-96749502D01*
X118056494Y-96690537D01*
X118153185Y-96611185D01*
X118232537Y-96514494D01*
X118291502Y-96404180D01*
X118327812Y-96284482D01*
X118340072Y-96160000D01*
X118340072Y-92660000D01*
X118327812Y-92535518D01*
X118291502Y-92415820D01*
X118232537Y-92305506D01*
X118153185Y-92208815D01*
X118056494Y-92129463D01*
X117946180Y-92070498D01*
X117826482Y-92034188D01*
X117702000Y-92021928D01*
X115905000Y-92021928D01*
X115905000Y-91798072D01*
X117702000Y-91798072D01*
X117826482Y-91785812D01*
X117946180Y-91749502D01*
X118056494Y-91690537D01*
X118153185Y-91611185D01*
X118232537Y-91514494D01*
X118291502Y-91404180D01*
X118327812Y-91284482D01*
X118340072Y-91160000D01*
X118340072Y-90545000D01*
X118484249Y-90545000D01*
X118540000Y-90550491D01*
X118595751Y-90545000D01*
X118595752Y-90545000D01*
X118762499Y-90528577D01*
X118976447Y-90463676D01*
X119173623Y-90358284D01*
X119346449Y-90216449D01*
X119381996Y-90173135D01*
X121336132Y-88219000D01*
X133081859Y-88219000D01*
X133137610Y-88224491D01*
X133193361Y-88219000D01*
X133193362Y-88219000D01*
X133360109Y-88202577D01*
X133574057Y-88137676D01*
X133771233Y-88032284D01*
X133944059Y-87890449D01*
X133979606Y-87847135D01*
X134487000Y-87339741D01*
X134487000Y-88041000D01*
X136995000Y-88041000D01*
X136995000Y-88021000D01*
X137249000Y-88021000D01*
X137249000Y-88041000D01*
X139757000Y-88041000D01*
X139757000Y-86791000D01*
X139681593Y-86279377D01*
X139507822Y-85792296D01*
X139245065Y-85352990D01*
X142167859Y-85352990D01*
X145930868Y-89116000D01*
%TA.AperFunction,Conductor*%
D25*
G36*
X145930868Y-89116000D02*
G01*
X144558874Y-90487994D01*
X144515561Y-90523541D01*
X144483893Y-90562128D01*
X144191525Y-90297635D01*
X143747704Y-90032178D01*
X143260623Y-89858407D01*
X142749000Y-89783000D01*
X141499000Y-89783000D01*
X141499000Y-92291000D01*
X141519000Y-92291000D01*
X141519000Y-92545000D01*
X141499000Y-92545000D01*
X141499000Y-95053000D01*
X142749000Y-95053000D01*
X143260623Y-94977593D01*
X143747704Y-94803822D01*
X144187011Y-94541065D01*
X144187011Y-95001855D01*
X142962865Y-96226002D01*
X142919551Y-96261549D01*
X142777716Y-96434375D01*
X142694232Y-96590565D01*
X142672324Y-96631552D01*
X142607423Y-96845500D01*
X142585509Y-97067998D01*
X142591000Y-97123750D01*
X142591001Y-101091867D01*
X140149869Y-103533000D01*
X139757000Y-103533000D01*
X139757000Y-103288558D01*
X139718873Y-102901450D01*
X139568201Y-102404750D01*
X139323523Y-101946989D01*
X138994241Y-101545759D01*
X138593010Y-101216477D01*
X138135249Y-100971799D01*
X137638549Y-100821127D01*
X137122000Y-100770251D01*
X136605450Y-100821127D01*
X136108750Y-100971799D01*
X135650989Y-101216477D01*
X135249759Y-101545759D01*
X134920477Y-101946990D01*
X134675799Y-102404751D01*
X134525127Y-102901451D01*
X134487000Y-103288559D01*
X134487000Y-106047442D01*
X134525127Y-106434550D01*
X134675799Y-106931250D01*
X134920478Y-107389011D01*
X135249760Y-107790241D01*
X135650990Y-108119523D01*
X136108751Y-108364201D01*
X136605451Y-108514873D01*
X137122000Y-108565749D01*
X137638550Y-108514873D01*
X138135250Y-108364201D01*
X138593011Y-108119523D01*
X138994241Y-107790241D01*
X139323523Y-107389011D01*
X139568201Y-106931250D01*
X139718873Y-106434550D01*
X139757000Y-106047442D01*
X139757000Y-105803000D01*
X140564249Y-105803000D01*
X140620000Y-105808491D01*
X140675751Y-105803000D01*
X140675752Y-105803000D01*
X140842499Y-105786577D01*
X141056447Y-105721676D01*
X141253623Y-105616284D01*
X141426449Y-105474449D01*
X141461996Y-105431135D01*
X144489141Y-102403991D01*
X144532449Y-102368449D01*
X144674284Y-102195623D01*
X144779676Y-101998447D01*
X144844577Y-101784499D01*
X144861000Y-101617752D01*
X144861000Y-101617743D01*
X144866490Y-101562001D01*
X144861000Y-101506259D01*
X144861000Y-98589748D01*
X144934893Y-98768141D01*
X145223262Y-99199715D01*
X145590285Y-99566738D01*
X146021859Y-99855107D01*
X146501399Y-100053739D01*
X147010475Y-100155000D01*
X147529525Y-100155000D01*
X147924417Y-100076452D01*
X139191869Y-108809000D01*
X134798133Y-108809000D01*
X130056990Y-104067859D01*
X130056990Y-96795000D01*
X134487000Y-96795000D01*
X134487000Y-98045000D01*
X134562407Y-98556623D01*
X134736178Y-99043704D01*
X135001635Y-99487525D01*
X135348576Y-99871030D01*
X135763669Y-100179481D01*
X136230962Y-100401025D01*
X136584838Y-100497667D01*
X136995000Y-100390991D01*
X136995000Y-96795000D01*
X137249000Y-96795000D01*
X137249000Y-100390991D01*
X137659162Y-100497667D01*
X138013038Y-100401025D01*
X138480331Y-100179481D01*
X138895424Y-99871030D01*
X139242365Y-99487525D01*
X139507822Y-99043704D01*
X139681593Y-98556623D01*
X139757000Y-98045000D01*
X139757000Y-96795000D01*
X137249000Y-96795000D01*
X136995000Y-96795000D01*
X134487000Y-96795000D01*
X130056990Y-96795000D01*
X130056990Y-94541065D01*
X130496296Y-94803822D01*
X130983377Y-94977593D01*
X131495000Y-95053000D01*
X132745000Y-95053000D01*
X132745000Y-92545000D01*
X132999000Y-92545000D01*
X132999000Y-95053000D01*
X134249000Y-95053000D01*
X134528142Y-95011858D01*
X134487000Y-95291000D01*
X134487000Y-96541000D01*
X136995000Y-96541000D01*
X136995000Y-92945009D01*
X137249000Y-92945009D01*
X137249000Y-96541000D01*
X139757000Y-96541000D01*
X139757000Y-95291000D01*
X139715858Y-95011858D01*
X139995000Y-95053000D01*
X141245000Y-95053000D01*
X141245000Y-92545000D01*
X137649009Y-92545000D01*
X137566447Y-92862447D01*
X137249000Y-92945009D01*
X136995000Y-92945009D01*
X136677553Y-92862447D01*
X136594991Y-92545000D01*
X132999000Y-92545000D01*
X132745000Y-92545000D01*
X132725000Y-92545000D01*
X132725000Y-92291000D01*
X132745000Y-92291000D01*
X132745000Y-89783000D01*
X132999000Y-89783000D01*
X132999000Y-92291000D01*
X136594991Y-92291000D01*
X136677553Y-91973553D01*
X136995000Y-91890991D01*
X136995000Y-88295000D01*
X137249000Y-88295000D01*
X137249000Y-91890991D01*
X137566447Y-91973553D01*
X137649009Y-92291000D01*
X141245000Y-92291000D01*
X141245000Y-89783000D01*
X139995000Y-89783000D01*
X139715858Y-89824142D01*
X139757000Y-89545000D01*
X139757000Y-88295000D01*
X137249000Y-88295000D01*
X136995000Y-88295000D01*
X134487000Y-88295000D01*
X134487000Y-89545000D01*
X134528142Y-89824142D01*
X134249000Y-89783000D01*
X132999000Y-89783000D01*
X132745000Y-89783000D01*
X131495000Y-89783000D01*
X130983377Y-89858407D01*
X130496296Y-90032178D01*
X130052475Y-90297635D01*
X129760107Y-90562128D01*
X129728439Y-90523541D01*
X129685130Y-90487999D01*
X128151986Y-88954855D01*
X128116439Y-88911541D01*
X127943613Y-88769706D01*
X127746437Y-88664314D01*
X127532489Y-88599413D01*
X127365742Y-88582990D01*
X127365741Y-88582990D01*
X127309990Y-88577499D01*
X127254239Y-88582990D01*
X122559361Y-88582990D01*
X122503619Y-88577500D01*
X122447877Y-88582990D01*
X122447868Y-88582990D01*
X122281121Y-88599413D01*
X122067173Y-88664314D01*
X121869997Y-88769706D01*
X121697171Y-88911541D01*
X121661629Y-88954849D01*
X119086860Y-91529619D01*
X119043552Y-91565161D01*
X118901717Y-91737987D01*
X118845384Y-91843380D01*
X118796324Y-91935164D01*
X118731423Y-92149112D01*
X118709509Y-92371610D01*
X118715001Y-92427371D01*
X118715000Y-97535868D01*
X118340072Y-97910797D01*
X118340072Y-97566000D01*
X118327812Y-97441518D01*
X118291502Y-97321820D01*
X118232537Y-97211506D01*
X118153185Y-97114815D01*
X118056494Y-97035463D01*
X117946180Y-96976498D01*
X117826482Y-96940188D01*
X117702000Y-96927928D01*
X115905000Y-96927928D01*
X115905000Y-96798072D01*
X117702000Y-96798072D01*
X117826482Y-96785812D01*
X117946180Y-96749502D01*
X118056494Y-96690537D01*
X118153185Y-96611185D01*
X118232537Y-96514494D01*
X118291502Y-96404180D01*
X118327812Y-96284482D01*
X118340072Y-96160000D01*
X118340072Y-92660000D01*
X118327812Y-92535518D01*
X118291502Y-92415820D01*
X118232537Y-92305506D01*
X118153185Y-92208815D01*
X118056494Y-92129463D01*
X117946180Y-92070498D01*
X117826482Y-92034188D01*
X117702000Y-92021928D01*
X115905000Y-92021928D01*
X115905000Y-91798072D01*
X117702000Y-91798072D01*
X117826482Y-91785812D01*
X117946180Y-91749502D01*
X118056494Y-91690537D01*
X118153185Y-91611185D01*
X118232537Y-91514494D01*
X118291502Y-91404180D01*
X118327812Y-91284482D01*
X118340072Y-91160000D01*
X118340072Y-90545000D01*
X118484249Y-90545000D01*
X118540000Y-90550491D01*
X118595751Y-90545000D01*
X118595752Y-90545000D01*
X118762499Y-90528577D01*
X118976447Y-90463676D01*
X119173623Y-90358284D01*
X119346449Y-90216449D01*
X119381996Y-90173135D01*
X121336132Y-88219000D01*
X133081859Y-88219000D01*
X133137610Y-88224491D01*
X133193361Y-88219000D01*
X133193362Y-88219000D01*
X133360109Y-88202577D01*
X133574057Y-88137676D01*
X133771233Y-88032284D01*
X133944059Y-87890449D01*
X133979606Y-87847135D01*
X134487000Y-87339741D01*
X134487000Y-88041000D01*
X136995000Y-88041000D01*
X136995000Y-88021000D01*
X137249000Y-88021000D01*
X137249000Y-88041000D01*
X139757000Y-88041000D01*
X139757000Y-86791000D01*
X139681593Y-86279377D01*
X139507822Y-85792296D01*
X139245065Y-85352990D01*
X142167859Y-85352990D01*
X145930868Y-89116000D01*
G37*
%TD.AperFunction*%
D24*
X172325128Y-91280602D02*
X172342192Y-91453856D01*
X172392728Y-91620452D01*
X172474795Y-91773987D01*
X172585238Y-91908562D01*
X172719813Y-92019005D01*
X172873348Y-92101072D01*
X173039944Y-92151608D01*
X173213198Y-92168672D01*
X174513202Y-92168672D01*
X174595001Y-92160616D01*
X174595001Y-92693369D01*
X174148950Y-92695600D01*
X173990200Y-92854350D01*
X173990200Y-93866100D01*
X174010200Y-93866100D01*
X174010200Y-94120100D01*
X173990200Y-94120100D01*
X173990200Y-95131850D01*
X174148950Y-95290600D01*
X174595001Y-95292831D01*
X174595000Y-108172400D01*
X169329238Y-108172400D01*
X169324929Y-108128655D01*
X169280084Y-107980818D01*
X169207258Y-107844571D01*
X169109251Y-107725149D01*
X168989829Y-107627142D01*
X168853582Y-107554316D01*
X168705745Y-107509471D01*
X168552000Y-107494328D01*
X168257961Y-107494328D01*
X168339387Y-107450805D01*
X168473962Y-107340362D01*
X168584405Y-107205787D01*
X168666472Y-107052251D01*
X168717008Y-106885655D01*
X168734072Y-106712401D01*
X168734072Y-105912399D01*
X168717008Y-105739145D01*
X168666472Y-105572549D01*
X168584405Y-105419013D01*
X168473962Y-105284438D01*
X168339387Y-105173995D01*
X168185851Y-105091928D01*
X168019255Y-105041392D01*
X167846001Y-105024328D01*
X166595999Y-105024328D01*
X166422745Y-105041392D01*
X166256149Y-105091928D01*
X166102613Y-105173995D01*
X165968038Y-105284438D01*
X165857595Y-105419013D01*
X165775528Y-105572549D01*
X165724992Y-105739145D01*
X165707928Y-105912399D01*
X165707928Y-106712401D01*
X165724992Y-106885655D01*
X165775528Y-107052251D01*
X165857595Y-107205787D01*
X165968038Y-107340362D01*
X166102613Y-107450805D01*
X166256149Y-107532872D01*
X166372001Y-107568015D01*
X166372001Y-107585542D01*
X166313582Y-107554316D01*
X166165745Y-107509471D01*
X166012000Y-107494328D01*
X165712000Y-107494328D01*
X165558255Y-107509471D01*
X165410418Y-107554316D01*
X165276064Y-107626130D01*
X165246494Y-107601863D01*
X165136180Y-107542898D01*
X165016482Y-107506588D01*
X164892000Y-107494328D01*
X164877750Y-107497400D01*
X164719000Y-107656150D01*
X164719000Y-108638415D01*
X164465000Y-108634983D01*
X164465000Y-107656150D01*
X164306250Y-107497400D01*
X164292000Y-107494328D01*
X164167518Y-107506588D01*
X164047820Y-107542898D01*
X163937506Y-107601863D01*
X163840815Y-107681215D01*
X163761463Y-107777906D01*
X163702498Y-107888220D01*
X163666188Y-108007918D01*
X163653928Y-108132400D01*
X163655931Y-108581701D01*
X163609537Y-108494906D01*
X163530185Y-108398215D01*
X163433494Y-108318863D01*
X163323180Y-108259898D01*
X163203482Y-108223588D01*
X163079000Y-108211328D01*
X162464750Y-108214400D01*
X162306000Y-108373150D01*
X162306000Y-108605807D01*
X162052000Y-108602374D01*
X162052000Y-108373150D01*
X161893250Y-108214400D01*
X161279000Y-108211328D01*
X161154518Y-108223588D01*
X161034820Y-108259898D01*
X160924506Y-108318863D01*
X160827815Y-108398215D01*
X160748463Y-108494906D01*
X160700779Y-108584115D01*
X159522072Y-108568186D01*
X159522072Y-106118000D01*
X159509812Y-105993518D01*
X159488742Y-105924060D01*
X160037799Y-105375003D01*
X160037803Y-105374998D01*
X161307799Y-104105003D01*
X161307803Y-104104998D01*
X161566802Y-103846000D01*
X165743297Y-103846000D01*
X165775528Y-103952251D01*
X165857595Y-104105787D01*
X165968038Y-104240362D01*
X166102613Y-104350805D01*
X166256149Y-104432872D01*
X166422745Y-104483408D01*
X166595999Y-104500472D01*
X167846001Y-104500472D01*
X168019255Y-104483408D01*
X168185851Y-104432872D01*
X168339387Y-104350805D01*
X168473962Y-104240362D01*
X168584405Y-104105787D01*
X168666472Y-103952251D01*
X168717008Y-103785655D01*
X168734072Y-103612401D01*
X168734072Y-102812399D01*
X168717008Y-102639145D01*
X168666472Y-102472549D01*
X168584405Y-102319013D01*
X168473962Y-102184438D01*
X168339387Y-102073995D01*
X168185851Y-101991928D01*
X168019255Y-101941392D01*
X168006400Y-101940126D01*
X168006400Y-101062411D01*
X168081349Y-101102472D01*
X168247945Y-101153008D01*
X168421199Y-101170072D01*
X169221201Y-101170072D01*
X169394455Y-101153008D01*
X169561051Y-101102472D01*
X169714587Y-101020405D01*
X169849162Y-100909962D01*
X169959605Y-100775387D01*
X170041672Y-100621851D01*
X170092208Y-100455255D01*
X170109272Y-100282001D01*
X170109272Y-99031999D01*
X170092208Y-98858745D01*
X170041672Y-98692149D01*
X169959605Y-98538613D01*
X169849162Y-98404038D01*
X169845200Y-98400786D01*
X169845200Y-96240048D01*
X169876455Y-96249529D01*
X170030200Y-96264672D01*
X170330200Y-96264672D01*
X170483945Y-96249529D01*
X170631782Y-96204684D01*
X170766136Y-96132870D01*
X170795706Y-96157137D01*
X170906020Y-96216102D01*
X171025718Y-96252412D01*
X171150200Y-96264672D01*
X171164450Y-96261600D01*
X171323200Y-96102850D01*
X171323200Y-94778600D01*
X171303200Y-94778600D01*
X171303200Y-94524600D01*
X171323200Y-94524600D01*
X171323200Y-93200350D01*
X171577200Y-93200350D01*
X171577200Y-94524600D01*
X171597200Y-94524600D01*
X171597200Y-94778600D01*
X171577200Y-94778600D01*
X171577200Y-96102850D01*
X171735950Y-96261600D01*
X171750200Y-96264672D01*
X171874682Y-96252412D01*
X171994380Y-96216102D01*
X172104694Y-96157137D01*
X172201385Y-96077785D01*
X172280737Y-95981094D01*
X172339702Y-95870780D01*
X172376012Y-95751082D01*
X172388272Y-95626600D01*
X172385200Y-94937350D01*
X172226452Y-94778602D01*
X172337242Y-94778602D01*
X172337388Y-94780082D01*
X172373698Y-94899780D01*
X172432663Y-95010094D01*
X172512015Y-95106785D01*
X172608706Y-95186137D01*
X172719020Y-95245102D01*
X172838718Y-95281412D01*
X172963200Y-95293672D01*
X173577450Y-95290600D01*
X173736200Y-95131850D01*
X173736200Y-94120100D01*
X173716200Y-94120100D01*
X173716200Y-93866100D01*
X173736200Y-93866100D01*
X173736200Y-92854350D01*
X173577450Y-92695600D01*
X172963200Y-92692528D01*
X172838718Y-92704788D01*
X172719020Y-92741098D01*
X172608706Y-92800063D01*
X172512015Y-92879415D01*
X172432663Y-92976106D01*
X172373698Y-93086420D01*
X172337388Y-93206118D01*
X172325128Y-93330600D01*
X172325745Y-93406309D01*
X172280737Y-93322106D01*
X172201385Y-93225415D01*
X172104694Y-93146063D01*
X171994380Y-93087098D01*
X171874682Y-93050788D01*
X171750200Y-93038528D01*
X171735950Y-93041600D01*
X171577200Y-93200350D01*
X171323200Y-93200350D01*
X171164450Y-93041600D01*
X171150200Y-93038528D01*
X171025718Y-93050788D01*
X170940200Y-93076730D01*
X170940200Y-92340922D01*
X170943876Y-92303599D01*
X170940200Y-92266276D01*
X170940200Y-92266267D01*
X170929203Y-92154614D01*
X170885746Y-92011353D01*
X170815174Y-91879324D01*
X170720201Y-91763599D01*
X170691204Y-91739802D01*
X170266074Y-91314672D01*
X170330200Y-91314672D01*
X170483945Y-91299529D01*
X170631782Y-91254684D01*
X170768029Y-91181858D01*
X170815200Y-91143146D01*
X170862371Y-91181858D01*
X170998618Y-91254684D01*
X171146455Y-91299529D01*
X171300200Y-91314672D01*
X171600200Y-91314672D01*
X171753945Y-91299529D01*
X171901782Y-91254684D01*
X172038029Y-91181858D01*
X172157451Y-91083851D01*
X172255458Y-90964429D01*
X172325128Y-90834086D01*
X172325128Y-91280602D01*
%TA.AperFunction,Conductor*%
D25*
G36*
X172325128Y-91280602D02*
G01*
X172342192Y-91453856D01*
X172392728Y-91620452D01*
X172474795Y-91773987D01*
X172585238Y-91908562D01*
X172719813Y-92019005D01*
X172873348Y-92101072D01*
X173039944Y-92151608D01*
X173213198Y-92168672D01*
X174513202Y-92168672D01*
X174595001Y-92160616D01*
X174595001Y-92693369D01*
X174148950Y-92695600D01*
X173990200Y-92854350D01*
X173990200Y-93866100D01*
X174010200Y-93866100D01*
X174010200Y-94120100D01*
X173990200Y-94120100D01*
X173990200Y-95131850D01*
X174148950Y-95290600D01*
X174595001Y-95292831D01*
X174595000Y-108172400D01*
X169329238Y-108172400D01*
X169324929Y-108128655D01*
X169280084Y-107980818D01*
X169207258Y-107844571D01*
X169109251Y-107725149D01*
X168989829Y-107627142D01*
X168853582Y-107554316D01*
X168705745Y-107509471D01*
X168552000Y-107494328D01*
X168257961Y-107494328D01*
X168339387Y-107450805D01*
X168473962Y-107340362D01*
X168584405Y-107205787D01*
X168666472Y-107052251D01*
X168717008Y-106885655D01*
X168734072Y-106712401D01*
X168734072Y-105912399D01*
X168717008Y-105739145D01*
X168666472Y-105572549D01*
X168584405Y-105419013D01*
X168473962Y-105284438D01*
X168339387Y-105173995D01*
X168185851Y-105091928D01*
X168019255Y-105041392D01*
X167846001Y-105024328D01*
X166595999Y-105024328D01*
X166422745Y-105041392D01*
X166256149Y-105091928D01*
X166102613Y-105173995D01*
X165968038Y-105284438D01*
X165857595Y-105419013D01*
X165775528Y-105572549D01*
X165724992Y-105739145D01*
X165707928Y-105912399D01*
X165707928Y-106712401D01*
X165724992Y-106885655D01*
X165775528Y-107052251D01*
X165857595Y-107205787D01*
X165968038Y-107340362D01*
X166102613Y-107450805D01*
X166256149Y-107532872D01*
X166372001Y-107568015D01*
X166372001Y-107585542D01*
X166313582Y-107554316D01*
X166165745Y-107509471D01*
X166012000Y-107494328D01*
X165712000Y-107494328D01*
X165558255Y-107509471D01*
X165410418Y-107554316D01*
X165276064Y-107626130D01*
X165246494Y-107601863D01*
X165136180Y-107542898D01*
X165016482Y-107506588D01*
X164892000Y-107494328D01*
X164877750Y-107497400D01*
X164719000Y-107656150D01*
X164719000Y-108638415D01*
X164465000Y-108634983D01*
X164465000Y-107656150D01*
X164306250Y-107497400D01*
X164292000Y-107494328D01*
X164167518Y-107506588D01*
X164047820Y-107542898D01*
X163937506Y-107601863D01*
X163840815Y-107681215D01*
X163761463Y-107777906D01*
X163702498Y-107888220D01*
X163666188Y-108007918D01*
X163653928Y-108132400D01*
X163655931Y-108581701D01*
X163609537Y-108494906D01*
X163530185Y-108398215D01*
X163433494Y-108318863D01*
X163323180Y-108259898D01*
X163203482Y-108223588D01*
X163079000Y-108211328D01*
X162464750Y-108214400D01*
X162306000Y-108373150D01*
X162306000Y-108605807D01*
X162052000Y-108602374D01*
X162052000Y-108373150D01*
X161893250Y-108214400D01*
X161279000Y-108211328D01*
X161154518Y-108223588D01*
X161034820Y-108259898D01*
X160924506Y-108318863D01*
X160827815Y-108398215D01*
X160748463Y-108494906D01*
X160700779Y-108584115D01*
X159522072Y-108568186D01*
X159522072Y-106118000D01*
X159509812Y-105993518D01*
X159488742Y-105924060D01*
X160037799Y-105375003D01*
X160037803Y-105374998D01*
X161307799Y-104105003D01*
X161307803Y-104104998D01*
X161566802Y-103846000D01*
X165743297Y-103846000D01*
X165775528Y-103952251D01*
X165857595Y-104105787D01*
X165968038Y-104240362D01*
X166102613Y-104350805D01*
X166256149Y-104432872D01*
X166422745Y-104483408D01*
X166595999Y-104500472D01*
X167846001Y-104500472D01*
X168019255Y-104483408D01*
X168185851Y-104432872D01*
X168339387Y-104350805D01*
X168473962Y-104240362D01*
X168584405Y-104105787D01*
X168666472Y-103952251D01*
X168717008Y-103785655D01*
X168734072Y-103612401D01*
X168734072Y-102812399D01*
X168717008Y-102639145D01*
X168666472Y-102472549D01*
X168584405Y-102319013D01*
X168473962Y-102184438D01*
X168339387Y-102073995D01*
X168185851Y-101991928D01*
X168019255Y-101941392D01*
X168006400Y-101940126D01*
X168006400Y-101062411D01*
X168081349Y-101102472D01*
X168247945Y-101153008D01*
X168421199Y-101170072D01*
X169221201Y-101170072D01*
X169394455Y-101153008D01*
X169561051Y-101102472D01*
X169714587Y-101020405D01*
X169849162Y-100909962D01*
X169959605Y-100775387D01*
X170041672Y-100621851D01*
X170092208Y-100455255D01*
X170109272Y-100282001D01*
X170109272Y-99031999D01*
X170092208Y-98858745D01*
X170041672Y-98692149D01*
X169959605Y-98538613D01*
X169849162Y-98404038D01*
X169845200Y-98400786D01*
X169845200Y-96240048D01*
X169876455Y-96249529D01*
X170030200Y-96264672D01*
X170330200Y-96264672D01*
X170483945Y-96249529D01*
X170631782Y-96204684D01*
X170766136Y-96132870D01*
X170795706Y-96157137D01*
X170906020Y-96216102D01*
X171025718Y-96252412D01*
X171150200Y-96264672D01*
X171164450Y-96261600D01*
X171323200Y-96102850D01*
X171323200Y-94778600D01*
X171303200Y-94778600D01*
X171303200Y-94524600D01*
X171323200Y-94524600D01*
X171323200Y-93200350D01*
X171577200Y-93200350D01*
X171577200Y-94524600D01*
X171597200Y-94524600D01*
X171597200Y-94778600D01*
X171577200Y-94778600D01*
X171577200Y-96102850D01*
X171735950Y-96261600D01*
X171750200Y-96264672D01*
X171874682Y-96252412D01*
X171994380Y-96216102D01*
X172104694Y-96157137D01*
X172201385Y-96077785D01*
X172280737Y-95981094D01*
X172339702Y-95870780D01*
X172376012Y-95751082D01*
X172388272Y-95626600D01*
X172385200Y-94937350D01*
X172226452Y-94778602D01*
X172337242Y-94778602D01*
X172337388Y-94780082D01*
X172373698Y-94899780D01*
X172432663Y-95010094D01*
X172512015Y-95106785D01*
X172608706Y-95186137D01*
X172719020Y-95245102D01*
X172838718Y-95281412D01*
X172963200Y-95293672D01*
X173577450Y-95290600D01*
X173736200Y-95131850D01*
X173736200Y-94120100D01*
X173716200Y-94120100D01*
X173716200Y-93866100D01*
X173736200Y-93866100D01*
X173736200Y-92854350D01*
X173577450Y-92695600D01*
X172963200Y-92692528D01*
X172838718Y-92704788D01*
X172719020Y-92741098D01*
X172608706Y-92800063D01*
X172512015Y-92879415D01*
X172432663Y-92976106D01*
X172373698Y-93086420D01*
X172337388Y-93206118D01*
X172325128Y-93330600D01*
X172325745Y-93406309D01*
X172280737Y-93322106D01*
X172201385Y-93225415D01*
X172104694Y-93146063D01*
X171994380Y-93087098D01*
X171874682Y-93050788D01*
X171750200Y-93038528D01*
X171735950Y-93041600D01*
X171577200Y-93200350D01*
X171323200Y-93200350D01*
X171164450Y-93041600D01*
X171150200Y-93038528D01*
X171025718Y-93050788D01*
X170940200Y-93076730D01*
X170940200Y-92340922D01*
X170943876Y-92303599D01*
X170940200Y-92266276D01*
X170940200Y-92266267D01*
X170929203Y-92154614D01*
X170885746Y-92011353D01*
X170815174Y-91879324D01*
X170720201Y-91763599D01*
X170691204Y-91739802D01*
X170266074Y-91314672D01*
X170330200Y-91314672D01*
X170483945Y-91299529D01*
X170631782Y-91254684D01*
X170768029Y-91181858D01*
X170815200Y-91143146D01*
X170862371Y-91181858D01*
X170998618Y-91254684D01*
X171146455Y-91299529D01*
X171300200Y-91314672D01*
X171600200Y-91314672D01*
X171753945Y-91299529D01*
X171901782Y-91254684D01*
X172038029Y-91181858D01*
X172157451Y-91083851D01*
X172255458Y-90964429D01*
X172325128Y-90834086D01*
X172325128Y-91280602D01*
G37*
%TD.AperFunction*%
D24*
X173640396Y-83043528D02*
X172981199Y-83043528D01*
X172807945Y-83060592D01*
X172641349Y-83111128D01*
X172487813Y-83193195D01*
X172353238Y-83303638D01*
X172242795Y-83438213D01*
X172160728Y-83591749D01*
X172110192Y-83758345D01*
X172093128Y-83931599D01*
X172093128Y-83983830D01*
X172053199Y-84016599D01*
X172029401Y-84045598D01*
X171569272Y-84505727D01*
X171569272Y-83931599D01*
X171552208Y-83758345D01*
X171501672Y-83591749D01*
X171419605Y-83438213D01*
X171309162Y-83303638D01*
X171174587Y-83193195D01*
X171021051Y-83111128D01*
X170854455Y-83060592D01*
X170681201Y-83043528D01*
X169881199Y-83043528D01*
X169707945Y-83060592D01*
X169541349Y-83111128D01*
X169387813Y-83193195D01*
X169253238Y-83303638D01*
X169142795Y-83438213D01*
X169060728Y-83591749D01*
X169010192Y-83758345D01*
X168993128Y-83931599D01*
X168993128Y-84031308D01*
X168981400Y-84045598D01*
X168910200Y-84116798D01*
X168839003Y-84045602D01*
X168815201Y-84016599D01*
X168699476Y-83921626D01*
X168594210Y-83865360D01*
X168581208Y-83733344D01*
X168530672Y-83566748D01*
X168448605Y-83413213D01*
X168338162Y-83278638D01*
X168203587Y-83168195D01*
X168050052Y-83086128D01*
X167883456Y-83035592D01*
X167710202Y-83018528D01*
X166885198Y-83018528D01*
X166711944Y-83035592D01*
X166545348Y-83086128D01*
X166391813Y-83168195D01*
X166257238Y-83278638D01*
X166146795Y-83413213D01*
X166064728Y-83566748D01*
X166014192Y-83733344D01*
X165997128Y-83906598D01*
X165997128Y-85206602D01*
X166014192Y-85379856D01*
X166064728Y-85546452D01*
X166146795Y-85699987D01*
X166250704Y-85826600D01*
X166146795Y-85953213D01*
X166064728Y-86106748D01*
X166014192Y-86273344D01*
X165997128Y-86446598D01*
X165997128Y-87746602D01*
X166014192Y-87919856D01*
X166064728Y-88086452D01*
X166146795Y-88239987D01*
X166257238Y-88374562D01*
X166391813Y-88485005D01*
X166545348Y-88567072D01*
X166705201Y-88615562D01*
X166705200Y-88845406D01*
X166702128Y-88876600D01*
X166702128Y-90526600D01*
X166717271Y-90680345D01*
X166762116Y-90828182D01*
X166834942Y-90964429D01*
X166932949Y-91083851D01*
X167052371Y-91181858D01*
X167188618Y-91254684D01*
X167336455Y-91299529D01*
X167490200Y-91314672D01*
X167790200Y-91314672D01*
X167943945Y-91299529D01*
X168091782Y-91254684D01*
X168170332Y-91212698D01*
X168204654Y-91325846D01*
X168275226Y-91457876D01*
X168336423Y-91532444D01*
X168370200Y-91573601D01*
X168399198Y-91597399D01*
X169420200Y-92618402D01*
X169420200Y-93129741D01*
X169361782Y-93098516D01*
X169213945Y-93053671D01*
X169060200Y-93038528D01*
X168760200Y-93038528D01*
X168606455Y-93053671D01*
X168458618Y-93098516D01*
X168322371Y-93171342D01*
X168275200Y-93210054D01*
X168228029Y-93171342D01*
X168091782Y-93098516D01*
X167943945Y-93053671D01*
X167790200Y-93038528D01*
X167490200Y-93038528D01*
X167336455Y-93053671D01*
X167188618Y-93098516D01*
X167052371Y-93171342D01*
X166932949Y-93269349D01*
X166834942Y-93388771D01*
X166762116Y-93525018D01*
X166717271Y-93672855D01*
X166712962Y-93716600D01*
X166158890Y-93716600D01*
X163895190Y-91452901D01*
X163895190Y-88623360D01*
X164045700Y-88472850D01*
X164045700Y-87223600D01*
X164299700Y-87223600D01*
X164299700Y-88472850D01*
X164458450Y-88631600D01*
X164835200Y-88634672D01*
X164959682Y-88622412D01*
X165079380Y-88586102D01*
X165189694Y-88527137D01*
X165286385Y-88447785D01*
X165365737Y-88351094D01*
X165424702Y-88240780D01*
X165461012Y-88121082D01*
X165473272Y-87996600D01*
X165470200Y-87382350D01*
X165311450Y-87223600D01*
X164299700Y-87223600D01*
X164045700Y-87223600D01*
X164025700Y-87223600D01*
X164025700Y-86969600D01*
X164045700Y-86969600D01*
X164045700Y-84683600D01*
X164299700Y-84683600D01*
X164299700Y-86969600D01*
X165311450Y-86969600D01*
X165470200Y-86810850D01*
X165473272Y-86196600D01*
X165461012Y-86072118D01*
X165424702Y-85952420D01*
X165365737Y-85842106D01*
X165353012Y-85826600D01*
X165365737Y-85811094D01*
X165424702Y-85700780D01*
X165461012Y-85581082D01*
X165473272Y-85456600D01*
X165470200Y-84842350D01*
X165311450Y-84683600D01*
X164299700Y-84683600D01*
X164045700Y-84683600D01*
X164025700Y-84683600D01*
X164025700Y-84429600D01*
X164045700Y-84429600D01*
X164045700Y-84409600D01*
X164299700Y-84409600D01*
X164299700Y-84429600D01*
X165311450Y-84429600D01*
X165470200Y-84270850D01*
X165473272Y-83656600D01*
X165461012Y-83532118D01*
X165424702Y-83412420D01*
X165365737Y-83302106D01*
X165286385Y-83205415D01*
X165189694Y-83126063D01*
X165079380Y-83067098D01*
X164959682Y-83030788D01*
X164835200Y-83018528D01*
X164458450Y-83021600D01*
X164299702Y-83180348D01*
X164299702Y-83057713D01*
X164319186Y-83033972D01*
X164406007Y-82871540D01*
X164448861Y-82730270D01*
X164459472Y-82695292D01*
X164477524Y-82512000D01*
X164473000Y-82466065D01*
X164473000Y-79329000D01*
X169925869Y-79329000D01*
X173640396Y-83043528D01*
%TA.AperFunction,Conductor*%
D25*
G36*
X173640396Y-83043528D02*
G01*
X172981199Y-83043528D01*
X172807945Y-83060592D01*
X172641349Y-83111128D01*
X172487813Y-83193195D01*
X172353238Y-83303638D01*
X172242795Y-83438213D01*
X172160728Y-83591749D01*
X172110192Y-83758345D01*
X172093128Y-83931599D01*
X172093128Y-83983830D01*
X172053199Y-84016599D01*
X172029401Y-84045598D01*
X171569272Y-84505727D01*
X171569272Y-83931599D01*
X171552208Y-83758345D01*
X171501672Y-83591749D01*
X171419605Y-83438213D01*
X171309162Y-83303638D01*
X171174587Y-83193195D01*
X171021051Y-83111128D01*
X170854455Y-83060592D01*
X170681201Y-83043528D01*
X169881199Y-83043528D01*
X169707945Y-83060592D01*
X169541349Y-83111128D01*
X169387813Y-83193195D01*
X169253238Y-83303638D01*
X169142795Y-83438213D01*
X169060728Y-83591749D01*
X169010192Y-83758345D01*
X168993128Y-83931599D01*
X168993128Y-84031308D01*
X168981400Y-84045598D01*
X168910200Y-84116798D01*
X168839003Y-84045602D01*
X168815201Y-84016599D01*
X168699476Y-83921626D01*
X168594210Y-83865360D01*
X168581208Y-83733344D01*
X168530672Y-83566748D01*
X168448605Y-83413213D01*
X168338162Y-83278638D01*
X168203587Y-83168195D01*
X168050052Y-83086128D01*
X167883456Y-83035592D01*
X167710202Y-83018528D01*
X166885198Y-83018528D01*
X166711944Y-83035592D01*
X166545348Y-83086128D01*
X166391813Y-83168195D01*
X166257238Y-83278638D01*
X166146795Y-83413213D01*
X166064728Y-83566748D01*
X166014192Y-83733344D01*
X165997128Y-83906598D01*
X165997128Y-85206602D01*
X166014192Y-85379856D01*
X166064728Y-85546452D01*
X166146795Y-85699987D01*
X166250704Y-85826600D01*
X166146795Y-85953213D01*
X166064728Y-86106748D01*
X166014192Y-86273344D01*
X165997128Y-86446598D01*
X165997128Y-87746602D01*
X166014192Y-87919856D01*
X166064728Y-88086452D01*
X166146795Y-88239987D01*
X166257238Y-88374562D01*
X166391813Y-88485005D01*
X166545348Y-88567072D01*
X166705201Y-88615562D01*
X166705200Y-88845406D01*
X166702128Y-88876600D01*
X166702128Y-90526600D01*
X166717271Y-90680345D01*
X166762116Y-90828182D01*
X166834942Y-90964429D01*
X166932949Y-91083851D01*
X167052371Y-91181858D01*
X167188618Y-91254684D01*
X167336455Y-91299529D01*
X167490200Y-91314672D01*
X167790200Y-91314672D01*
X167943945Y-91299529D01*
X168091782Y-91254684D01*
X168170332Y-91212698D01*
X168204654Y-91325846D01*
X168275226Y-91457876D01*
X168336423Y-91532444D01*
X168370200Y-91573601D01*
X168399198Y-91597399D01*
X169420200Y-92618402D01*
X169420200Y-93129741D01*
X169361782Y-93098516D01*
X169213945Y-93053671D01*
X169060200Y-93038528D01*
X168760200Y-93038528D01*
X168606455Y-93053671D01*
X168458618Y-93098516D01*
X168322371Y-93171342D01*
X168275200Y-93210054D01*
X168228029Y-93171342D01*
X168091782Y-93098516D01*
X167943945Y-93053671D01*
X167790200Y-93038528D01*
X167490200Y-93038528D01*
X167336455Y-93053671D01*
X167188618Y-93098516D01*
X167052371Y-93171342D01*
X166932949Y-93269349D01*
X166834942Y-93388771D01*
X166762116Y-93525018D01*
X166717271Y-93672855D01*
X166712962Y-93716600D01*
X166158890Y-93716600D01*
X163895190Y-91452901D01*
X163895190Y-88623360D01*
X164045700Y-88472850D01*
X164045700Y-87223600D01*
X164299700Y-87223600D01*
X164299700Y-88472850D01*
X164458450Y-88631600D01*
X164835200Y-88634672D01*
X164959682Y-88622412D01*
X165079380Y-88586102D01*
X165189694Y-88527137D01*
X165286385Y-88447785D01*
X165365737Y-88351094D01*
X165424702Y-88240780D01*
X165461012Y-88121082D01*
X165473272Y-87996600D01*
X165470200Y-87382350D01*
X165311450Y-87223600D01*
X164299700Y-87223600D01*
X164045700Y-87223600D01*
X164025700Y-87223600D01*
X164025700Y-86969600D01*
X164045700Y-86969600D01*
X164045700Y-84683600D01*
X164299700Y-84683600D01*
X164299700Y-86969600D01*
X165311450Y-86969600D01*
X165470200Y-86810850D01*
X165473272Y-86196600D01*
X165461012Y-86072118D01*
X165424702Y-85952420D01*
X165365737Y-85842106D01*
X165353012Y-85826600D01*
X165365737Y-85811094D01*
X165424702Y-85700780D01*
X165461012Y-85581082D01*
X165473272Y-85456600D01*
X165470200Y-84842350D01*
X165311450Y-84683600D01*
X164299700Y-84683600D01*
X164045700Y-84683600D01*
X164025700Y-84683600D01*
X164025700Y-84429600D01*
X164045700Y-84429600D01*
X164045700Y-84409600D01*
X164299700Y-84409600D01*
X164299700Y-84429600D01*
X165311450Y-84429600D01*
X165470200Y-84270850D01*
X165473272Y-83656600D01*
X165461012Y-83532118D01*
X165424702Y-83412420D01*
X165365737Y-83302106D01*
X165286385Y-83205415D01*
X165189694Y-83126063D01*
X165079380Y-83067098D01*
X164959682Y-83030788D01*
X164835200Y-83018528D01*
X164458450Y-83021600D01*
X164299702Y-83180348D01*
X164299702Y-83057713D01*
X164319186Y-83033972D01*
X164406007Y-82871540D01*
X164448861Y-82730270D01*
X164459472Y-82695292D01*
X164477524Y-82512000D01*
X164473000Y-82466065D01*
X164473000Y-79329000D01*
X169925869Y-79329000D01*
X173640396Y-83043528D01*
G37*
%TD.AperFunction*%
%TD*%
D24*
%TO.N,VCC*%
X156736418Y-82669084D02*
X156884255Y-82713929D01*
X157038000Y-82729072D01*
X157338000Y-82729072D01*
X157491745Y-82713929D01*
X157639582Y-82669084D01*
X157695865Y-82639000D01*
X157698000Y-82639000D01*
X157698001Y-86500851D01*
X157629506Y-86537463D01*
X157532815Y-86616815D01*
X157453463Y-86713506D01*
X157394498Y-86823820D01*
X157358188Y-86943518D01*
X157345928Y-87068000D01*
X157345928Y-89668000D01*
X157358188Y-89792482D01*
X157394498Y-89912180D01*
X157453463Y-90022494D01*
X157532815Y-90119185D01*
X157629506Y-90198537D01*
X157739820Y-90257502D01*
X157823000Y-90282734D01*
X157823000Y-91734512D01*
X157799026Y-91763724D01*
X157728454Y-91895754D01*
X157707207Y-91965799D01*
X157684998Y-92039014D01*
X157674001Y-92150667D01*
X157670324Y-92188000D01*
X157674001Y-92225332D01*
X157674001Y-92863680D01*
X157629506Y-92887463D01*
X157532815Y-92966815D01*
X157453463Y-93063506D01*
X157394498Y-93173820D01*
X157358188Y-93293518D01*
X157345928Y-93418000D01*
X157345928Y-96018000D01*
X157358188Y-96142482D01*
X157394498Y-96262180D01*
X157453463Y-96372494D01*
X157532815Y-96469185D01*
X157629506Y-96548537D01*
X157739820Y-96607502D01*
X157823000Y-96632734D01*
X157823000Y-96819773D01*
X157785196Y-96890498D01*
X157752454Y-96951754D01*
X157708997Y-97095015D01*
X157698000Y-97206668D01*
X157698000Y-97206678D01*
X157694324Y-97244000D01*
X157698000Y-97281323D01*
X157698001Y-99200851D01*
X157629506Y-99237463D01*
X157532815Y-99316815D01*
X157453463Y-99413506D01*
X157394498Y-99523820D01*
X157358188Y-99643518D01*
X157345928Y-99768000D01*
X157345928Y-102368000D01*
X157358188Y-102492482D01*
X157394498Y-102612180D01*
X157453463Y-102722494D01*
X157532815Y-102819185D01*
X157629506Y-102898537D01*
X157739820Y-102957502D01*
X157823000Y-102982734D01*
X157823000Y-105450512D01*
X157799026Y-105479724D01*
X157779368Y-105516501D01*
X157739820Y-105528498D01*
X157629506Y-105587463D01*
X157532815Y-105666815D01*
X157453463Y-105763506D01*
X157394498Y-105873820D01*
X157358188Y-105993518D01*
X157345928Y-106118000D01*
X157345928Y-108718000D01*
X157358188Y-108842482D01*
X157394498Y-108962180D01*
X157453463Y-109072494D01*
X157532815Y-109169185D01*
X157629506Y-109248537D01*
X157739820Y-109307502D01*
X157859518Y-109343812D01*
X157984000Y-109356072D01*
X158884000Y-109356072D01*
X159008482Y-109343812D01*
X159073170Y-109324189D01*
X160640928Y-109345375D01*
X160640928Y-109924402D01*
X160657992Y-110097656D01*
X160708528Y-110264252D01*
X160790595Y-110417787D01*
X160901038Y-110552362D01*
X161035613Y-110662805D01*
X161189148Y-110744872D01*
X161355744Y-110795408D01*
X161528998Y-110812472D01*
X162829002Y-110812472D01*
X163002256Y-110795408D01*
X163168852Y-110744872D01*
X163322387Y-110662805D01*
X163456962Y-110552362D01*
X163544399Y-110445820D01*
X163670792Y-110433371D01*
X163805120Y-110392623D01*
X163884749Y-110489651D01*
X164004171Y-110587658D01*
X164140418Y-110660484D01*
X164288255Y-110705329D01*
X164442000Y-110720472D01*
X164742000Y-110720472D01*
X164895745Y-110705329D01*
X165043582Y-110660484D01*
X165102000Y-110629259D01*
X165102000Y-111164077D01*
X165098324Y-111201400D01*
X165102000Y-111238722D01*
X165102000Y-111238732D01*
X165112997Y-111350385D01*
X165141353Y-111443863D01*
X165156454Y-111493646D01*
X165227026Y-111625676D01*
X165266871Y-111674226D01*
X165321999Y-111741401D01*
X165351003Y-111765204D01*
X166032107Y-112446308D01*
X166012000Y-112444328D01*
X165712000Y-112444328D01*
X165558255Y-112459471D01*
X165410418Y-112504316D01*
X165276064Y-112576130D01*
X165246494Y-112551863D01*
X165136180Y-112492898D01*
X165016482Y-112456588D01*
X164892000Y-112444328D01*
X164877750Y-112447400D01*
X164719000Y-112606150D01*
X164719000Y-113930400D01*
X164739000Y-113930400D01*
X164739000Y-114184400D01*
X164719000Y-114184400D01*
X164719000Y-115508650D01*
X164810344Y-115599994D01*
X164733038Y-115663438D01*
X164622595Y-115798013D01*
X164540528Y-115951549D01*
X164489992Y-116118145D01*
X164472928Y-116291399D01*
X164472928Y-116343630D01*
X164465083Y-116350068D01*
X164432999Y-116376399D01*
X164409201Y-116405397D01*
X163946000Y-116868599D01*
X163946000Y-116789398D01*
X163787252Y-116789398D01*
X163946000Y-116630650D01*
X163949072Y-116041400D01*
X163936812Y-115916918D01*
X163900502Y-115797220D01*
X163841537Y-115686906D01*
X163762185Y-115590215D01*
X163665494Y-115510863D01*
X163555180Y-115451898D01*
X163435482Y-115415588D01*
X163311000Y-115403328D01*
X162946750Y-115406400D01*
X162788000Y-115565150D01*
X162788000Y-116789400D01*
X162808000Y-116789400D01*
X162808000Y-117043400D01*
X162788000Y-117043400D01*
X162788000Y-117063400D01*
X162534000Y-117063400D01*
X162534000Y-117043400D01*
X161534750Y-117043400D01*
X161376000Y-117202150D01*
X161372928Y-117791400D01*
X161385188Y-117915882D01*
X161421498Y-118035580D01*
X161480463Y-118145894D01*
X161559815Y-118242585D01*
X161584372Y-118262738D01*
X161522595Y-118338013D01*
X161440528Y-118491549D01*
X161389992Y-118658145D01*
X161372928Y-118831399D01*
X161372928Y-120081401D01*
X161389992Y-120254655D01*
X161440528Y-120421251D01*
X161522595Y-120574787D01*
X161633038Y-120709362D01*
X161767613Y-120819805D01*
X161921149Y-120901872D01*
X162087745Y-120952408D01*
X162260999Y-120969472D01*
X163061001Y-120969472D01*
X163234255Y-120952408D01*
X163400851Y-120901872D01*
X163554387Y-120819805D01*
X163688962Y-120709362D01*
X163799405Y-120574787D01*
X163881472Y-120421251D01*
X163932008Y-120254655D01*
X163949072Y-120081401D01*
X163949072Y-120029170D01*
X163989001Y-119996401D01*
X164012803Y-119967398D01*
X164468002Y-119512200D01*
X164472928Y-119508157D01*
X164472928Y-120081401D01*
X164489992Y-120254655D01*
X164540528Y-120421251D01*
X164622595Y-120574787D01*
X164733038Y-120709362D01*
X164867613Y-120819805D01*
X165021149Y-120901872D01*
X165187745Y-120952408D01*
X165360999Y-120969472D01*
X166161001Y-120969472D01*
X166334255Y-120952408D01*
X166500851Y-120901872D01*
X166654387Y-120819805D01*
X166788962Y-120709362D01*
X166899405Y-120574787D01*
X166981472Y-120421251D01*
X167032008Y-120254655D01*
X167049072Y-120081401D01*
X167049072Y-119981692D01*
X167060803Y-119967398D01*
X167132000Y-119896202D01*
X167189928Y-119954130D01*
X167189928Y-120106402D01*
X167206992Y-120279656D01*
X167257528Y-120446252D01*
X167339595Y-120599787D01*
X167450038Y-120734362D01*
X167584613Y-120844805D01*
X167738148Y-120926872D01*
X167904744Y-120977408D01*
X168077998Y-120994472D01*
X168903002Y-120994472D01*
X169076256Y-120977408D01*
X169242852Y-120926872D01*
X169396387Y-120844805D01*
X169530962Y-120734362D01*
X169641405Y-120599787D01*
X169723472Y-120446252D01*
X169774008Y-120279656D01*
X169791072Y-120106402D01*
X169791072Y-118806398D01*
X169774008Y-118633144D01*
X169723472Y-118466548D01*
X169641405Y-118313013D01*
X169537496Y-118186400D01*
X169641405Y-118059787D01*
X169723472Y-117906252D01*
X169774008Y-117739656D01*
X169791072Y-117566402D01*
X169791072Y-117056000D01*
X170271509Y-117056000D01*
X170293423Y-117278499D01*
X170314928Y-117349391D01*
X170314928Y-117566402D01*
X170331992Y-117739656D01*
X170382528Y-117906252D01*
X170464595Y-118059787D01*
X170480501Y-118079168D01*
X170480500Y-118293632D01*
X170464595Y-118313013D01*
X170382528Y-118466548D01*
X170331992Y-118633144D01*
X170314928Y-118806398D01*
X170314928Y-120106402D01*
X170331992Y-120279656D01*
X170382528Y-120446252D01*
X170464595Y-120599787D01*
X170575038Y-120734362D01*
X170709613Y-120844805D01*
X170863148Y-120926872D01*
X171029744Y-120977408D01*
X171202998Y-120994472D01*
X172028002Y-120994472D01*
X172201256Y-120977408D01*
X172367852Y-120926872D01*
X172521387Y-120844805D01*
X172655962Y-120734362D01*
X172766405Y-120599787D01*
X172848472Y-120446252D01*
X172899008Y-120279656D01*
X172916072Y-120106402D01*
X172916072Y-118806398D01*
X172899008Y-118633144D01*
X172848472Y-118466548D01*
X172766405Y-118313013D01*
X172750500Y-118293633D01*
X172750500Y-118191000D01*
X173753752Y-118191000D01*
X173920499Y-118174577D01*
X174134447Y-118109676D01*
X174331623Y-118004284D01*
X174504449Y-117862449D01*
X174646284Y-117689623D01*
X174751676Y-117492447D01*
X174816577Y-117278499D01*
X174838491Y-117056000D01*
X174816577Y-116833501D01*
X174751676Y-116619553D01*
X174646284Y-116422377D01*
X174504449Y-116249551D01*
X174331623Y-116107716D01*
X174134447Y-116002324D01*
X173920499Y-115937423D01*
X173753752Y-115921000D01*
X172845507Y-115921000D01*
X172766405Y-115773013D01*
X172655962Y-115638438D01*
X172521387Y-115527995D01*
X172367852Y-115445928D01*
X172201256Y-115395392D01*
X172028002Y-115378328D01*
X171202998Y-115378328D01*
X171029744Y-115395392D01*
X170863148Y-115445928D01*
X170709613Y-115527995D01*
X170575038Y-115638438D01*
X170464595Y-115773013D01*
X170382528Y-115926548D01*
X170331992Y-116093144D01*
X170314928Y-116266398D01*
X170314928Y-116762609D01*
X170293423Y-116833501D01*
X170271509Y-117056000D01*
X169791072Y-117056000D01*
X169791072Y-116266398D01*
X169774008Y-116093144D01*
X169723472Y-115926548D01*
X169641405Y-115773013D01*
X169530962Y-115638438D01*
X169396387Y-115527995D01*
X169242852Y-115445928D01*
X169162000Y-115421402D01*
X169162000Y-115375376D01*
X169207258Y-115320229D01*
X169280084Y-115183982D01*
X169324929Y-115036145D01*
X169340072Y-114882400D01*
X169340072Y-113232400D01*
X169324929Y-113078655D01*
X169280084Y-112930818D01*
X169207258Y-112794571D01*
X169109251Y-112675149D01*
X168989829Y-112577142D01*
X168853582Y-112504316D01*
X168705745Y-112459471D01*
X168552000Y-112444328D01*
X168252000Y-112444328D01*
X168098255Y-112459471D01*
X167950418Y-112504316D01*
X167892000Y-112535541D01*
X167892000Y-112508722D01*
X167895676Y-112471399D01*
X167892000Y-112434076D01*
X167892000Y-112434067D01*
X167881003Y-112322414D01*
X167837546Y-112179153D01*
X167766974Y-112047124D01*
X167672001Y-111931399D01*
X167643003Y-111907601D01*
X166622000Y-110886599D01*
X166622000Y-110629259D01*
X166680418Y-110660484D01*
X166828255Y-110705329D01*
X166982000Y-110720472D01*
X167282000Y-110720472D01*
X167435745Y-110705329D01*
X167583582Y-110660484D01*
X167717936Y-110588670D01*
X167747506Y-110612937D01*
X167857820Y-110671902D01*
X167977518Y-110708212D01*
X168102000Y-110720472D01*
X168116250Y-110717400D01*
X168275000Y-110558650D01*
X168275000Y-109448538D01*
X168529000Y-109451971D01*
X168529000Y-110558650D01*
X168687750Y-110717400D01*
X168702000Y-110720472D01*
X168826482Y-110708212D01*
X168946180Y-110671902D01*
X169056494Y-110612937D01*
X169153185Y-110533585D01*
X169232537Y-110436894D01*
X169291502Y-110326580D01*
X169327812Y-110206882D01*
X169340072Y-110082400D01*
X169337311Y-109462894D01*
X176086000Y-109554092D01*
X176086000Y-128588000D01*
X150483072Y-128588000D01*
X150483072Y-125051413D01*
X154452192Y-125051413D01*
X154547956Y-125315814D01*
X154837571Y-125456704D01*
X155149108Y-125538384D01*
X155470595Y-125557718D01*
X155789675Y-125513961D01*
X156094088Y-125408795D01*
X156268044Y-125315814D01*
X156363808Y-125051413D01*
X155408000Y-124095605D01*
X154452192Y-125051413D01*
X150483072Y-125051413D01*
X150483072Y-123978595D01*
X153766282Y-123978595D01*
X153810039Y-124297675D01*
X153915205Y-124602088D01*
X154008186Y-124776044D01*
X154272587Y-124871808D01*
X155228395Y-123916000D01*
X155587605Y-123916000D01*
X156543413Y-124871808D01*
X156807814Y-124776044D01*
X156948704Y-124486429D01*
X156956715Y-124455872D01*
X169939000Y-124455872D01*
X169939000Y-124896128D01*
X170024890Y-125327925D01*
X170193369Y-125734669D01*
X170437962Y-126100729D01*
X170749271Y-126412038D01*
X171115331Y-126656631D01*
X171522075Y-126825110D01*
X171953872Y-126911000D01*
X172394128Y-126911000D01*
X172825925Y-126825110D01*
X173232669Y-126656631D01*
X173598729Y-126412038D01*
X173910038Y-126100729D01*
X174154631Y-125734669D01*
X174323110Y-125327925D01*
X174409000Y-124896128D01*
X174409000Y-124455872D01*
X174323110Y-124024075D01*
X174154631Y-123617331D01*
X173910038Y-123251271D01*
X173598729Y-122939962D01*
X173232669Y-122695369D01*
X172825925Y-122526890D01*
X172394128Y-122441000D01*
X171953872Y-122441000D01*
X171522075Y-122526890D01*
X171115331Y-122695369D01*
X170749271Y-122939962D01*
X170437962Y-123251271D01*
X170193369Y-123617331D01*
X170024890Y-124024075D01*
X169939000Y-124455872D01*
X156956715Y-124455872D01*
X157030384Y-124174892D01*
X157049718Y-123853405D01*
X157005961Y-123534325D01*
X156900795Y-123229912D01*
X156807814Y-123055956D01*
X156543413Y-122960192D01*
X155587605Y-123916000D01*
X155228395Y-123916000D01*
X154272587Y-122960192D01*
X154008186Y-123055956D01*
X153867296Y-123345571D01*
X153785616Y-123657108D01*
X153766282Y-123978595D01*
X150483072Y-123978595D01*
X150483072Y-122780587D01*
X154452192Y-122780587D01*
X155408000Y-123736395D01*
X156363808Y-122780587D01*
X156268044Y-122516186D01*
X155978429Y-122375296D01*
X155666892Y-122293616D01*
X155345405Y-122274282D01*
X155026325Y-122318039D01*
X154721912Y-122423205D01*
X154547956Y-122516186D01*
X154452192Y-122780587D01*
X150483072Y-122780587D01*
X150483072Y-120720000D01*
X150470812Y-120595518D01*
X150434502Y-120475820D01*
X150375537Y-120365506D01*
X150296185Y-120268815D01*
X150199494Y-120189463D01*
X150123794Y-120149000D01*
X153492213Y-120149000D01*
X153523077Y-120223512D01*
X153755851Y-120571884D01*
X154052116Y-120868149D01*
X154400488Y-121100923D01*
X154787577Y-121261261D01*
X155198509Y-121343000D01*
X155617491Y-121343000D01*
X156028423Y-121261261D01*
X156415512Y-121100923D01*
X156763884Y-120868149D01*
X157060149Y-120571884D01*
X157292923Y-120223512D01*
X157453261Y-119836423D01*
X157535000Y-119425491D01*
X157535000Y-119006509D01*
X157453261Y-118595577D01*
X157292923Y-118208488D01*
X157060149Y-117860116D01*
X156763884Y-117563851D01*
X156415512Y-117331077D01*
X156028423Y-117170739D01*
X155617491Y-117089000D01*
X155198509Y-117089000D01*
X154787577Y-117170739D01*
X154400488Y-117331077D01*
X154052116Y-117563851D01*
X153755851Y-117860116D01*
X153523077Y-118208488D01*
X153493870Y-118279000D01*
X144763531Y-118279000D01*
X144717599Y-118274476D01*
X144534307Y-118292529D01*
X144493839Y-118304805D01*
X144358060Y-118345993D01*
X144195628Y-118432814D01*
X144053256Y-118549656D01*
X144023974Y-118585336D01*
X143198941Y-119410370D01*
X143163256Y-119439656D01*
X143046414Y-119582029D01*
X142959593Y-119744461D01*
X142931697Y-119836423D01*
X142906129Y-119920709D01*
X142890250Y-120081928D01*
X138011000Y-120081928D01*
X138011000Y-115651000D01*
X154230761Y-115651000D01*
X154365748Y-115785987D01*
X154633537Y-115964918D01*
X154931088Y-116088168D01*
X155246967Y-116151000D01*
X155569033Y-116151000D01*
X155884912Y-116088168D01*
X155997819Y-116041400D01*
X161372928Y-116041400D01*
X161376000Y-116630650D01*
X161534750Y-116789400D01*
X162534000Y-116789400D01*
X162534000Y-115565150D01*
X162375250Y-115406400D01*
X162011000Y-115403328D01*
X161886518Y-115415588D01*
X161766820Y-115451898D01*
X161656506Y-115510863D01*
X161559815Y-115590215D01*
X161480463Y-115686906D01*
X161421498Y-115797220D01*
X161385188Y-115916918D01*
X161372928Y-116041400D01*
X155997819Y-116041400D01*
X156182463Y-115964918D01*
X156450252Y-115785987D01*
X156677987Y-115558252D01*
X156856918Y-115290463D01*
X156963811Y-115032400D01*
X163653928Y-115032400D01*
X163666188Y-115156882D01*
X163702498Y-115276580D01*
X163761463Y-115386894D01*
X163840815Y-115483585D01*
X163937506Y-115562937D01*
X164047820Y-115621902D01*
X164167518Y-115658212D01*
X164292000Y-115670472D01*
X164306250Y-115667400D01*
X164465000Y-115508650D01*
X164465000Y-114184400D01*
X163815750Y-114184400D01*
X163657000Y-114343150D01*
X163653928Y-115032400D01*
X156963811Y-115032400D01*
X156980168Y-114992912D01*
X157043000Y-114677033D01*
X157043000Y-114354967D01*
X156980168Y-114039088D01*
X156856918Y-113741537D01*
X156677987Y-113473748D01*
X156503639Y-113299400D01*
X160640928Y-113299400D01*
X160653188Y-113423882D01*
X160689498Y-113543580D01*
X160748463Y-113653894D01*
X160827815Y-113750585D01*
X160924506Y-113829937D01*
X161034820Y-113888902D01*
X161154518Y-113925212D01*
X161279000Y-113937472D01*
X161893250Y-113934400D01*
X162052000Y-113775650D01*
X162052000Y-112763900D01*
X162306000Y-112763900D01*
X162306000Y-113775650D01*
X162464750Y-113934400D01*
X163079000Y-113937472D01*
X163203482Y-113925212D01*
X163323180Y-113888902D01*
X163433494Y-113829937D01*
X163530185Y-113750585D01*
X163609537Y-113653894D01*
X163656087Y-113566806D01*
X163657000Y-113771650D01*
X163815750Y-113930400D01*
X164465000Y-113930400D01*
X164465000Y-112606150D01*
X164306250Y-112447400D01*
X164292000Y-112444328D01*
X164167518Y-112456588D01*
X164047820Y-112492898D01*
X163937506Y-112551863D01*
X163840815Y-112631215D01*
X163761463Y-112727906D01*
X163702498Y-112838220D01*
X163685524Y-112894174D01*
X163555250Y-112763900D01*
X162306000Y-112763900D01*
X162052000Y-112763900D01*
X160802750Y-112763900D01*
X160644000Y-112922650D01*
X160640928Y-113299400D01*
X156503639Y-113299400D01*
X156450252Y-113246013D01*
X156182463Y-113067082D01*
X155884912Y-112943832D01*
X155569033Y-112881000D01*
X155246967Y-112881000D01*
X154931088Y-112943832D01*
X154633537Y-113067082D01*
X154365748Y-113246013D01*
X154230761Y-113381000D01*
X138011000Y-113381000D01*
X138011000Y-112611000D01*
X143726000Y-112611000D01*
X143750776Y-112608560D01*
X143774601Y-112601333D01*
X143796557Y-112589597D01*
X143815803Y-112573803D01*
X144415206Y-111974400D01*
X160640928Y-111974400D01*
X160644000Y-112351150D01*
X160802750Y-112509900D01*
X162052000Y-112509900D01*
X162052000Y-111498150D01*
X162306000Y-111498150D01*
X162306000Y-112509900D01*
X163555250Y-112509900D01*
X163714000Y-112351150D01*
X163717072Y-111974400D01*
X163704812Y-111849918D01*
X163668502Y-111730220D01*
X163609537Y-111619906D01*
X163530185Y-111523215D01*
X163433494Y-111443863D01*
X163323180Y-111384898D01*
X163203482Y-111348588D01*
X163079000Y-111336328D01*
X162464750Y-111339400D01*
X162306000Y-111498150D01*
X162052000Y-111498150D01*
X161893250Y-111339400D01*
X161279000Y-111336328D01*
X161154518Y-111348588D01*
X161034820Y-111384898D01*
X160924506Y-111443863D01*
X160827815Y-111523215D01*
X160748463Y-111619906D01*
X160689498Y-111730220D01*
X160653188Y-111849918D01*
X160640928Y-111974400D01*
X144415206Y-111974400D01*
X148486606Y-107903000D01*
X154013000Y-107903000D01*
X154013000Y-109182000D01*
X154015440Y-109206776D01*
X154022667Y-109230601D01*
X154034403Y-109252557D01*
X154050197Y-109271803D01*
X154069443Y-109287597D01*
X154091399Y-109299333D01*
X154115224Y-109306560D01*
X154140000Y-109309000D01*
X154744758Y-109309000D01*
X154859518Y-109343812D01*
X154984000Y-109356072D01*
X155884000Y-109356072D01*
X156008482Y-109343812D01*
X156123242Y-109309000D01*
X156172000Y-109309000D01*
X156196776Y-109306560D01*
X156220601Y-109299333D01*
X156242557Y-109287597D01*
X156261803Y-109271803D01*
X156277597Y-109252557D01*
X156289333Y-109230601D01*
X156296560Y-109206776D01*
X156297158Y-109200393D01*
X156335185Y-109169185D01*
X156414537Y-109072494D01*
X156473502Y-108962180D01*
X156509812Y-108842482D01*
X156522072Y-108718000D01*
X156522072Y-107091060D01*
X156552577Y-106990499D01*
X156574491Y-106768000D01*
X156552577Y-106545501D01*
X156522072Y-106444940D01*
X156522072Y-106118000D01*
X156509812Y-105993518D01*
X156473502Y-105873820D01*
X156414537Y-105763506D01*
X156335185Y-105666815D01*
X156264979Y-105609198D01*
X156239158Y-102897992D01*
X156335185Y-102819185D01*
X156414537Y-102722494D01*
X156473502Y-102612180D01*
X156509812Y-102492482D01*
X156522072Y-102368000D01*
X156522072Y-100741060D01*
X156552577Y-100640499D01*
X156574491Y-100418000D01*
X156552577Y-100195501D01*
X156522072Y-100094940D01*
X156522072Y-99768000D01*
X156509812Y-99643518D01*
X156473502Y-99523820D01*
X156414537Y-99413506D01*
X156335185Y-99316815D01*
X156238494Y-99237463D01*
X156204121Y-99219090D01*
X156178990Y-96580343D01*
X156238494Y-96548537D01*
X156335185Y-96469185D01*
X156414537Y-96372494D01*
X156473502Y-96262180D01*
X156509812Y-96142482D01*
X156522072Y-96018000D01*
X156522072Y-94391060D01*
X156552577Y-94290499D01*
X156574491Y-94068000D01*
X156552577Y-93845501D01*
X156522072Y-93744940D01*
X156522072Y-93418000D01*
X156509812Y-93293518D01*
X156473502Y-93173820D01*
X156414537Y-93063506D01*
X156335185Y-92966815D01*
X156238494Y-92887463D01*
X156143335Y-92836599D01*
X156118799Y-90260348D01*
X156128180Y-90257502D01*
X156238494Y-90198537D01*
X156335185Y-90119185D01*
X156414537Y-90022494D01*
X156473502Y-89912180D01*
X156509812Y-89792482D01*
X156522072Y-89668000D01*
X156522072Y-88089943D01*
X156528577Y-88068499D01*
X156550491Y-87846000D01*
X156528577Y-87623501D01*
X156522072Y-87602057D01*
X156522072Y-87068000D01*
X156509812Y-86943518D01*
X156473502Y-86823820D01*
X156414537Y-86713506D01*
X156335185Y-86616815D01*
X156238494Y-86537463D01*
X156128180Y-86478498D01*
X156082650Y-86464687D01*
X156047073Y-82729072D01*
X156068000Y-82729072D01*
X156221745Y-82713929D01*
X156369582Y-82669084D01*
X156425865Y-82639000D01*
X156680135Y-82639000D01*
X156736418Y-82669084D01*
%TA.AperFunction,Conductor*%
D25*
G36*
X156736418Y-82669084D02*
G01*
X156884255Y-82713929D01*
X157038000Y-82729072D01*
X157338000Y-82729072D01*
X157491745Y-82713929D01*
X157639582Y-82669084D01*
X157695865Y-82639000D01*
X157698000Y-82639000D01*
X157698001Y-86500851D01*
X157629506Y-86537463D01*
X157532815Y-86616815D01*
X157453463Y-86713506D01*
X157394498Y-86823820D01*
X157358188Y-86943518D01*
X157345928Y-87068000D01*
X157345928Y-89668000D01*
X157358188Y-89792482D01*
X157394498Y-89912180D01*
X157453463Y-90022494D01*
X157532815Y-90119185D01*
X157629506Y-90198537D01*
X157739820Y-90257502D01*
X157823000Y-90282734D01*
X157823000Y-91734512D01*
X157799026Y-91763724D01*
X157728454Y-91895754D01*
X157707207Y-91965799D01*
X157684998Y-92039014D01*
X157674001Y-92150667D01*
X157670324Y-92188000D01*
X157674001Y-92225332D01*
X157674001Y-92863680D01*
X157629506Y-92887463D01*
X157532815Y-92966815D01*
X157453463Y-93063506D01*
X157394498Y-93173820D01*
X157358188Y-93293518D01*
X157345928Y-93418000D01*
X157345928Y-96018000D01*
X157358188Y-96142482D01*
X157394498Y-96262180D01*
X157453463Y-96372494D01*
X157532815Y-96469185D01*
X157629506Y-96548537D01*
X157739820Y-96607502D01*
X157823000Y-96632734D01*
X157823000Y-96819773D01*
X157785196Y-96890498D01*
X157752454Y-96951754D01*
X157708997Y-97095015D01*
X157698000Y-97206668D01*
X157698000Y-97206678D01*
X157694324Y-97244000D01*
X157698000Y-97281323D01*
X157698001Y-99200851D01*
X157629506Y-99237463D01*
X157532815Y-99316815D01*
X157453463Y-99413506D01*
X157394498Y-99523820D01*
X157358188Y-99643518D01*
X157345928Y-99768000D01*
X157345928Y-102368000D01*
X157358188Y-102492482D01*
X157394498Y-102612180D01*
X157453463Y-102722494D01*
X157532815Y-102819185D01*
X157629506Y-102898537D01*
X157739820Y-102957502D01*
X157823000Y-102982734D01*
X157823000Y-105450512D01*
X157799026Y-105479724D01*
X157779368Y-105516501D01*
X157739820Y-105528498D01*
X157629506Y-105587463D01*
X157532815Y-105666815D01*
X157453463Y-105763506D01*
X157394498Y-105873820D01*
X157358188Y-105993518D01*
X157345928Y-106118000D01*
X157345928Y-108718000D01*
X157358188Y-108842482D01*
X157394498Y-108962180D01*
X157453463Y-109072494D01*
X157532815Y-109169185D01*
X157629506Y-109248537D01*
X157739820Y-109307502D01*
X157859518Y-109343812D01*
X157984000Y-109356072D01*
X158884000Y-109356072D01*
X159008482Y-109343812D01*
X159073170Y-109324189D01*
X160640928Y-109345375D01*
X160640928Y-109924402D01*
X160657992Y-110097656D01*
X160708528Y-110264252D01*
X160790595Y-110417787D01*
X160901038Y-110552362D01*
X161035613Y-110662805D01*
X161189148Y-110744872D01*
X161355744Y-110795408D01*
X161528998Y-110812472D01*
X162829002Y-110812472D01*
X163002256Y-110795408D01*
X163168852Y-110744872D01*
X163322387Y-110662805D01*
X163456962Y-110552362D01*
X163544399Y-110445820D01*
X163670792Y-110433371D01*
X163805120Y-110392623D01*
X163884749Y-110489651D01*
X164004171Y-110587658D01*
X164140418Y-110660484D01*
X164288255Y-110705329D01*
X164442000Y-110720472D01*
X164742000Y-110720472D01*
X164895745Y-110705329D01*
X165043582Y-110660484D01*
X165102000Y-110629259D01*
X165102000Y-111164077D01*
X165098324Y-111201400D01*
X165102000Y-111238722D01*
X165102000Y-111238732D01*
X165112997Y-111350385D01*
X165141353Y-111443863D01*
X165156454Y-111493646D01*
X165227026Y-111625676D01*
X165266871Y-111674226D01*
X165321999Y-111741401D01*
X165351003Y-111765204D01*
X166032107Y-112446308D01*
X166012000Y-112444328D01*
X165712000Y-112444328D01*
X165558255Y-112459471D01*
X165410418Y-112504316D01*
X165276064Y-112576130D01*
X165246494Y-112551863D01*
X165136180Y-112492898D01*
X165016482Y-112456588D01*
X164892000Y-112444328D01*
X164877750Y-112447400D01*
X164719000Y-112606150D01*
X164719000Y-113930400D01*
X164739000Y-113930400D01*
X164739000Y-114184400D01*
X164719000Y-114184400D01*
X164719000Y-115508650D01*
X164810344Y-115599994D01*
X164733038Y-115663438D01*
X164622595Y-115798013D01*
X164540528Y-115951549D01*
X164489992Y-116118145D01*
X164472928Y-116291399D01*
X164472928Y-116343630D01*
X164465083Y-116350068D01*
X164432999Y-116376399D01*
X164409201Y-116405397D01*
X163946000Y-116868599D01*
X163946000Y-116789398D01*
X163787252Y-116789398D01*
X163946000Y-116630650D01*
X163949072Y-116041400D01*
X163936812Y-115916918D01*
X163900502Y-115797220D01*
X163841537Y-115686906D01*
X163762185Y-115590215D01*
X163665494Y-115510863D01*
X163555180Y-115451898D01*
X163435482Y-115415588D01*
X163311000Y-115403328D01*
X162946750Y-115406400D01*
X162788000Y-115565150D01*
X162788000Y-116789400D01*
X162808000Y-116789400D01*
X162808000Y-117043400D01*
X162788000Y-117043400D01*
X162788000Y-117063400D01*
X162534000Y-117063400D01*
X162534000Y-117043400D01*
X161534750Y-117043400D01*
X161376000Y-117202150D01*
X161372928Y-117791400D01*
X161385188Y-117915882D01*
X161421498Y-118035580D01*
X161480463Y-118145894D01*
X161559815Y-118242585D01*
X161584372Y-118262738D01*
X161522595Y-118338013D01*
X161440528Y-118491549D01*
X161389992Y-118658145D01*
X161372928Y-118831399D01*
X161372928Y-120081401D01*
X161389992Y-120254655D01*
X161440528Y-120421251D01*
X161522595Y-120574787D01*
X161633038Y-120709362D01*
X161767613Y-120819805D01*
X161921149Y-120901872D01*
X162087745Y-120952408D01*
X162260999Y-120969472D01*
X163061001Y-120969472D01*
X163234255Y-120952408D01*
X163400851Y-120901872D01*
X163554387Y-120819805D01*
X163688962Y-120709362D01*
X163799405Y-120574787D01*
X163881472Y-120421251D01*
X163932008Y-120254655D01*
X163949072Y-120081401D01*
X163949072Y-120029170D01*
X163989001Y-119996401D01*
X164012803Y-119967398D01*
X164468002Y-119512200D01*
X164472928Y-119508157D01*
X164472928Y-120081401D01*
X164489992Y-120254655D01*
X164540528Y-120421251D01*
X164622595Y-120574787D01*
X164733038Y-120709362D01*
X164867613Y-120819805D01*
X165021149Y-120901872D01*
X165187745Y-120952408D01*
X165360999Y-120969472D01*
X166161001Y-120969472D01*
X166334255Y-120952408D01*
X166500851Y-120901872D01*
X166654387Y-120819805D01*
X166788962Y-120709362D01*
X166899405Y-120574787D01*
X166981472Y-120421251D01*
X167032008Y-120254655D01*
X167049072Y-120081401D01*
X167049072Y-119981692D01*
X167060803Y-119967398D01*
X167132000Y-119896202D01*
X167189928Y-119954130D01*
X167189928Y-120106402D01*
X167206992Y-120279656D01*
X167257528Y-120446252D01*
X167339595Y-120599787D01*
X167450038Y-120734362D01*
X167584613Y-120844805D01*
X167738148Y-120926872D01*
X167904744Y-120977408D01*
X168077998Y-120994472D01*
X168903002Y-120994472D01*
X169076256Y-120977408D01*
X169242852Y-120926872D01*
X169396387Y-120844805D01*
X169530962Y-120734362D01*
X169641405Y-120599787D01*
X169723472Y-120446252D01*
X169774008Y-120279656D01*
X169791072Y-120106402D01*
X169791072Y-118806398D01*
X169774008Y-118633144D01*
X169723472Y-118466548D01*
X169641405Y-118313013D01*
X169537496Y-118186400D01*
X169641405Y-118059787D01*
X169723472Y-117906252D01*
X169774008Y-117739656D01*
X169791072Y-117566402D01*
X169791072Y-117056000D01*
X170271509Y-117056000D01*
X170293423Y-117278499D01*
X170314928Y-117349391D01*
X170314928Y-117566402D01*
X170331992Y-117739656D01*
X170382528Y-117906252D01*
X170464595Y-118059787D01*
X170480501Y-118079168D01*
X170480500Y-118293632D01*
X170464595Y-118313013D01*
X170382528Y-118466548D01*
X170331992Y-118633144D01*
X170314928Y-118806398D01*
X170314928Y-120106402D01*
X170331992Y-120279656D01*
X170382528Y-120446252D01*
X170464595Y-120599787D01*
X170575038Y-120734362D01*
X170709613Y-120844805D01*
X170863148Y-120926872D01*
X171029744Y-120977408D01*
X171202998Y-120994472D01*
X172028002Y-120994472D01*
X172201256Y-120977408D01*
X172367852Y-120926872D01*
X172521387Y-120844805D01*
X172655962Y-120734362D01*
X172766405Y-120599787D01*
X172848472Y-120446252D01*
X172899008Y-120279656D01*
X172916072Y-120106402D01*
X172916072Y-118806398D01*
X172899008Y-118633144D01*
X172848472Y-118466548D01*
X172766405Y-118313013D01*
X172750500Y-118293633D01*
X172750500Y-118191000D01*
X173753752Y-118191000D01*
X173920499Y-118174577D01*
X174134447Y-118109676D01*
X174331623Y-118004284D01*
X174504449Y-117862449D01*
X174646284Y-117689623D01*
X174751676Y-117492447D01*
X174816577Y-117278499D01*
X174838491Y-117056000D01*
X174816577Y-116833501D01*
X174751676Y-116619553D01*
X174646284Y-116422377D01*
X174504449Y-116249551D01*
X174331623Y-116107716D01*
X174134447Y-116002324D01*
X173920499Y-115937423D01*
X173753752Y-115921000D01*
X172845507Y-115921000D01*
X172766405Y-115773013D01*
X172655962Y-115638438D01*
X172521387Y-115527995D01*
X172367852Y-115445928D01*
X172201256Y-115395392D01*
X172028002Y-115378328D01*
X171202998Y-115378328D01*
X171029744Y-115395392D01*
X170863148Y-115445928D01*
X170709613Y-115527995D01*
X170575038Y-115638438D01*
X170464595Y-115773013D01*
X170382528Y-115926548D01*
X170331992Y-116093144D01*
X170314928Y-116266398D01*
X170314928Y-116762609D01*
X170293423Y-116833501D01*
X170271509Y-117056000D01*
X169791072Y-117056000D01*
X169791072Y-116266398D01*
X169774008Y-116093144D01*
X169723472Y-115926548D01*
X169641405Y-115773013D01*
X169530962Y-115638438D01*
X169396387Y-115527995D01*
X169242852Y-115445928D01*
X169162000Y-115421402D01*
X169162000Y-115375376D01*
X169207258Y-115320229D01*
X169280084Y-115183982D01*
X169324929Y-115036145D01*
X169340072Y-114882400D01*
X169340072Y-113232400D01*
X169324929Y-113078655D01*
X169280084Y-112930818D01*
X169207258Y-112794571D01*
X169109251Y-112675149D01*
X168989829Y-112577142D01*
X168853582Y-112504316D01*
X168705745Y-112459471D01*
X168552000Y-112444328D01*
X168252000Y-112444328D01*
X168098255Y-112459471D01*
X167950418Y-112504316D01*
X167892000Y-112535541D01*
X167892000Y-112508722D01*
X167895676Y-112471399D01*
X167892000Y-112434076D01*
X167892000Y-112434067D01*
X167881003Y-112322414D01*
X167837546Y-112179153D01*
X167766974Y-112047124D01*
X167672001Y-111931399D01*
X167643003Y-111907601D01*
X166622000Y-110886599D01*
X166622000Y-110629259D01*
X166680418Y-110660484D01*
X166828255Y-110705329D01*
X166982000Y-110720472D01*
X167282000Y-110720472D01*
X167435745Y-110705329D01*
X167583582Y-110660484D01*
X167717936Y-110588670D01*
X167747506Y-110612937D01*
X167857820Y-110671902D01*
X167977518Y-110708212D01*
X168102000Y-110720472D01*
X168116250Y-110717400D01*
X168275000Y-110558650D01*
X168275000Y-109448538D01*
X168529000Y-109451971D01*
X168529000Y-110558650D01*
X168687750Y-110717400D01*
X168702000Y-110720472D01*
X168826482Y-110708212D01*
X168946180Y-110671902D01*
X169056494Y-110612937D01*
X169153185Y-110533585D01*
X169232537Y-110436894D01*
X169291502Y-110326580D01*
X169327812Y-110206882D01*
X169340072Y-110082400D01*
X169337311Y-109462894D01*
X176086000Y-109554092D01*
X176086000Y-128588000D01*
X150483072Y-128588000D01*
X150483072Y-125051413D01*
X154452192Y-125051413D01*
X154547956Y-125315814D01*
X154837571Y-125456704D01*
X155149108Y-125538384D01*
X155470595Y-125557718D01*
X155789675Y-125513961D01*
X156094088Y-125408795D01*
X156268044Y-125315814D01*
X156363808Y-125051413D01*
X155408000Y-124095605D01*
X154452192Y-125051413D01*
X150483072Y-125051413D01*
X150483072Y-123978595D01*
X153766282Y-123978595D01*
X153810039Y-124297675D01*
X153915205Y-124602088D01*
X154008186Y-124776044D01*
X154272587Y-124871808D01*
X155228395Y-123916000D01*
X155587605Y-123916000D01*
X156543413Y-124871808D01*
X156807814Y-124776044D01*
X156948704Y-124486429D01*
X156956715Y-124455872D01*
X169939000Y-124455872D01*
X169939000Y-124896128D01*
X170024890Y-125327925D01*
X170193369Y-125734669D01*
X170437962Y-126100729D01*
X170749271Y-126412038D01*
X171115331Y-126656631D01*
X171522075Y-126825110D01*
X171953872Y-126911000D01*
X172394128Y-126911000D01*
X172825925Y-126825110D01*
X173232669Y-126656631D01*
X173598729Y-126412038D01*
X173910038Y-126100729D01*
X174154631Y-125734669D01*
X174323110Y-125327925D01*
X174409000Y-124896128D01*
X174409000Y-124455872D01*
X174323110Y-124024075D01*
X174154631Y-123617331D01*
X173910038Y-123251271D01*
X173598729Y-122939962D01*
X173232669Y-122695369D01*
X172825925Y-122526890D01*
X172394128Y-122441000D01*
X171953872Y-122441000D01*
X171522075Y-122526890D01*
X171115331Y-122695369D01*
X170749271Y-122939962D01*
X170437962Y-123251271D01*
X170193369Y-123617331D01*
X170024890Y-124024075D01*
X169939000Y-124455872D01*
X156956715Y-124455872D01*
X157030384Y-124174892D01*
X157049718Y-123853405D01*
X157005961Y-123534325D01*
X156900795Y-123229912D01*
X156807814Y-123055956D01*
X156543413Y-122960192D01*
X155587605Y-123916000D01*
X155228395Y-123916000D01*
X154272587Y-122960192D01*
X154008186Y-123055956D01*
X153867296Y-123345571D01*
X153785616Y-123657108D01*
X153766282Y-123978595D01*
X150483072Y-123978595D01*
X150483072Y-122780587D01*
X154452192Y-122780587D01*
X155408000Y-123736395D01*
X156363808Y-122780587D01*
X156268044Y-122516186D01*
X155978429Y-122375296D01*
X155666892Y-122293616D01*
X155345405Y-122274282D01*
X155026325Y-122318039D01*
X154721912Y-122423205D01*
X154547956Y-122516186D01*
X154452192Y-122780587D01*
X150483072Y-122780587D01*
X150483072Y-120720000D01*
X150470812Y-120595518D01*
X150434502Y-120475820D01*
X150375537Y-120365506D01*
X150296185Y-120268815D01*
X150199494Y-120189463D01*
X150123794Y-120149000D01*
X153492213Y-120149000D01*
X153523077Y-120223512D01*
X153755851Y-120571884D01*
X154052116Y-120868149D01*
X154400488Y-121100923D01*
X154787577Y-121261261D01*
X155198509Y-121343000D01*
X155617491Y-121343000D01*
X156028423Y-121261261D01*
X156415512Y-121100923D01*
X156763884Y-120868149D01*
X157060149Y-120571884D01*
X157292923Y-120223512D01*
X157453261Y-119836423D01*
X157535000Y-119425491D01*
X157535000Y-119006509D01*
X157453261Y-118595577D01*
X157292923Y-118208488D01*
X157060149Y-117860116D01*
X156763884Y-117563851D01*
X156415512Y-117331077D01*
X156028423Y-117170739D01*
X155617491Y-117089000D01*
X155198509Y-117089000D01*
X154787577Y-117170739D01*
X154400488Y-117331077D01*
X154052116Y-117563851D01*
X153755851Y-117860116D01*
X153523077Y-118208488D01*
X153493870Y-118279000D01*
X144763531Y-118279000D01*
X144717599Y-118274476D01*
X144534307Y-118292529D01*
X144493839Y-118304805D01*
X144358060Y-118345993D01*
X144195628Y-118432814D01*
X144053256Y-118549656D01*
X144023974Y-118585336D01*
X143198941Y-119410370D01*
X143163256Y-119439656D01*
X143046414Y-119582029D01*
X142959593Y-119744461D01*
X142931697Y-119836423D01*
X142906129Y-119920709D01*
X142890250Y-120081928D01*
X138011000Y-120081928D01*
X138011000Y-115651000D01*
X154230761Y-115651000D01*
X154365748Y-115785987D01*
X154633537Y-115964918D01*
X154931088Y-116088168D01*
X155246967Y-116151000D01*
X155569033Y-116151000D01*
X155884912Y-116088168D01*
X155997819Y-116041400D01*
X161372928Y-116041400D01*
X161376000Y-116630650D01*
X161534750Y-116789400D01*
X162534000Y-116789400D01*
X162534000Y-115565150D01*
X162375250Y-115406400D01*
X162011000Y-115403328D01*
X161886518Y-115415588D01*
X161766820Y-115451898D01*
X161656506Y-115510863D01*
X161559815Y-115590215D01*
X161480463Y-115686906D01*
X161421498Y-115797220D01*
X161385188Y-115916918D01*
X161372928Y-116041400D01*
X155997819Y-116041400D01*
X156182463Y-115964918D01*
X156450252Y-115785987D01*
X156677987Y-115558252D01*
X156856918Y-115290463D01*
X156963811Y-115032400D01*
X163653928Y-115032400D01*
X163666188Y-115156882D01*
X163702498Y-115276580D01*
X163761463Y-115386894D01*
X163840815Y-115483585D01*
X163937506Y-115562937D01*
X164047820Y-115621902D01*
X164167518Y-115658212D01*
X164292000Y-115670472D01*
X164306250Y-115667400D01*
X164465000Y-115508650D01*
X164465000Y-114184400D01*
X163815750Y-114184400D01*
X163657000Y-114343150D01*
X163653928Y-115032400D01*
X156963811Y-115032400D01*
X156980168Y-114992912D01*
X157043000Y-114677033D01*
X157043000Y-114354967D01*
X156980168Y-114039088D01*
X156856918Y-113741537D01*
X156677987Y-113473748D01*
X156503639Y-113299400D01*
X160640928Y-113299400D01*
X160653188Y-113423882D01*
X160689498Y-113543580D01*
X160748463Y-113653894D01*
X160827815Y-113750585D01*
X160924506Y-113829937D01*
X161034820Y-113888902D01*
X161154518Y-113925212D01*
X161279000Y-113937472D01*
X161893250Y-113934400D01*
X162052000Y-113775650D01*
X162052000Y-112763900D01*
X162306000Y-112763900D01*
X162306000Y-113775650D01*
X162464750Y-113934400D01*
X163079000Y-113937472D01*
X163203482Y-113925212D01*
X163323180Y-113888902D01*
X163433494Y-113829937D01*
X163530185Y-113750585D01*
X163609537Y-113653894D01*
X163656087Y-113566806D01*
X163657000Y-113771650D01*
X163815750Y-113930400D01*
X164465000Y-113930400D01*
X164465000Y-112606150D01*
X164306250Y-112447400D01*
X164292000Y-112444328D01*
X164167518Y-112456588D01*
X164047820Y-112492898D01*
X163937506Y-112551863D01*
X163840815Y-112631215D01*
X163761463Y-112727906D01*
X163702498Y-112838220D01*
X163685524Y-112894174D01*
X163555250Y-112763900D01*
X162306000Y-112763900D01*
X162052000Y-112763900D01*
X160802750Y-112763900D01*
X160644000Y-112922650D01*
X160640928Y-113299400D01*
X156503639Y-113299400D01*
X156450252Y-113246013D01*
X156182463Y-113067082D01*
X155884912Y-112943832D01*
X155569033Y-112881000D01*
X155246967Y-112881000D01*
X154931088Y-112943832D01*
X154633537Y-113067082D01*
X154365748Y-113246013D01*
X154230761Y-113381000D01*
X138011000Y-113381000D01*
X138011000Y-112611000D01*
X143726000Y-112611000D01*
X143750776Y-112608560D01*
X143774601Y-112601333D01*
X143796557Y-112589597D01*
X143815803Y-112573803D01*
X144415206Y-111974400D01*
X160640928Y-111974400D01*
X160644000Y-112351150D01*
X160802750Y-112509900D01*
X162052000Y-112509900D01*
X162052000Y-111498150D01*
X162306000Y-111498150D01*
X162306000Y-112509900D01*
X163555250Y-112509900D01*
X163714000Y-112351150D01*
X163717072Y-111974400D01*
X163704812Y-111849918D01*
X163668502Y-111730220D01*
X163609537Y-111619906D01*
X163530185Y-111523215D01*
X163433494Y-111443863D01*
X163323180Y-111384898D01*
X163203482Y-111348588D01*
X163079000Y-111336328D01*
X162464750Y-111339400D01*
X162306000Y-111498150D01*
X162052000Y-111498150D01*
X161893250Y-111339400D01*
X161279000Y-111336328D01*
X161154518Y-111348588D01*
X161034820Y-111384898D01*
X160924506Y-111443863D01*
X160827815Y-111523215D01*
X160748463Y-111619906D01*
X160689498Y-111730220D01*
X160653188Y-111849918D01*
X160640928Y-111974400D01*
X144415206Y-111974400D01*
X148486606Y-107903000D01*
X154013000Y-107903000D01*
X154013000Y-109182000D01*
X154015440Y-109206776D01*
X154022667Y-109230601D01*
X154034403Y-109252557D01*
X154050197Y-109271803D01*
X154069443Y-109287597D01*
X154091399Y-109299333D01*
X154115224Y-109306560D01*
X154140000Y-109309000D01*
X154744758Y-109309000D01*
X154859518Y-109343812D01*
X154984000Y-109356072D01*
X155884000Y-109356072D01*
X156008482Y-109343812D01*
X156123242Y-109309000D01*
X156172000Y-109309000D01*
X156196776Y-109306560D01*
X156220601Y-109299333D01*
X156242557Y-109287597D01*
X156261803Y-109271803D01*
X156277597Y-109252557D01*
X156289333Y-109230601D01*
X156296560Y-109206776D01*
X156297158Y-109200393D01*
X156335185Y-109169185D01*
X156414537Y-109072494D01*
X156473502Y-108962180D01*
X156509812Y-108842482D01*
X156522072Y-108718000D01*
X156522072Y-107091060D01*
X156552577Y-106990499D01*
X156574491Y-106768000D01*
X156552577Y-106545501D01*
X156522072Y-106444940D01*
X156522072Y-106118000D01*
X156509812Y-105993518D01*
X156473502Y-105873820D01*
X156414537Y-105763506D01*
X156335185Y-105666815D01*
X156264979Y-105609198D01*
X156239158Y-102897992D01*
X156335185Y-102819185D01*
X156414537Y-102722494D01*
X156473502Y-102612180D01*
X156509812Y-102492482D01*
X156522072Y-102368000D01*
X156522072Y-100741060D01*
X156552577Y-100640499D01*
X156574491Y-100418000D01*
X156552577Y-100195501D01*
X156522072Y-100094940D01*
X156522072Y-99768000D01*
X156509812Y-99643518D01*
X156473502Y-99523820D01*
X156414537Y-99413506D01*
X156335185Y-99316815D01*
X156238494Y-99237463D01*
X156204121Y-99219090D01*
X156178990Y-96580343D01*
X156238494Y-96548537D01*
X156335185Y-96469185D01*
X156414537Y-96372494D01*
X156473502Y-96262180D01*
X156509812Y-96142482D01*
X156522072Y-96018000D01*
X156522072Y-94391060D01*
X156552577Y-94290499D01*
X156574491Y-94068000D01*
X156552577Y-93845501D01*
X156522072Y-93744940D01*
X156522072Y-93418000D01*
X156509812Y-93293518D01*
X156473502Y-93173820D01*
X156414537Y-93063506D01*
X156335185Y-92966815D01*
X156238494Y-92887463D01*
X156143335Y-92836599D01*
X156118799Y-90260348D01*
X156128180Y-90257502D01*
X156238494Y-90198537D01*
X156335185Y-90119185D01*
X156414537Y-90022494D01*
X156473502Y-89912180D01*
X156509812Y-89792482D01*
X156522072Y-89668000D01*
X156522072Y-88089943D01*
X156528577Y-88068499D01*
X156550491Y-87846000D01*
X156528577Y-87623501D01*
X156522072Y-87602057D01*
X156522072Y-87068000D01*
X156509812Y-86943518D01*
X156473502Y-86823820D01*
X156414537Y-86713506D01*
X156335185Y-86616815D01*
X156238494Y-86537463D01*
X156128180Y-86478498D01*
X156082650Y-86464687D01*
X156047073Y-82729072D01*
X156068000Y-82729072D01*
X156221745Y-82713929D01*
X156369582Y-82669084D01*
X156425865Y-82639000D01*
X156680135Y-82639000D01*
X156736418Y-82669084D01*
G37*
%TD.AperFunction*%
%TD*%
M02*
