%TF.GenerationSoftware,KiCad,Pcbnew,(5.1.10)-1*%
%TF.CreationDate,2021-10-19T12:48:05+02:00*%
%TF.ProjectId,Base,42617365-2e6b-4696-9361-645f70636258,rev?*%
%TF.SameCoordinates,Original*%
%TF.FileFunction,Legend,Top*%
%TF.FilePolarity,Positive*%
%FSLAX46Y46*%
G04 Gerber Fmt 4.6, Leading zero omitted, Abs format (unit mm)*
G04 Created by KiCad (PCBNEW (5.1.10)-1) date 2021-10-19 12:48:05*
%MOMM*%
%LPD*%
G01*
G04 APERTURE LIST*
%ADD10C,1.000000*%
%ADD11C,0.120000*%
%ADD12C,0.150000*%
G04 APERTURE END LIST*
D10*
X169805485Y-123745638D02*
X169805485Y-125078971D01*
X171900723Y-125078971D02*
X167900723Y-125078971D01*
X167900723Y-123174209D01*
X171900723Y-121650400D02*
X169234057Y-121650400D01*
X169995961Y-121650400D02*
X169615009Y-121459923D01*
X169424533Y-121269447D01*
X169234057Y-120888495D01*
X169234057Y-120507542D01*
X171900723Y-118602780D02*
X171710247Y-118983733D01*
X171519771Y-119174209D01*
X171138819Y-119364685D01*
X169995961Y-119364685D01*
X169615009Y-119174209D01*
X169424533Y-118983733D01*
X169234057Y-118602780D01*
X169234057Y-118031352D01*
X169424533Y-117650400D01*
X169615009Y-117459923D01*
X169995961Y-117269447D01*
X171138819Y-117269447D01*
X171519771Y-117459923D01*
X171710247Y-117650400D01*
X171900723Y-118031352D01*
X171900723Y-118602780D01*
X171900723Y-115555161D02*
X167900723Y-115555161D01*
X171900723Y-113840876D02*
X169805485Y-113840876D01*
X169424533Y-114031352D01*
X169234057Y-114412304D01*
X169234057Y-114983733D01*
X169424533Y-115364685D01*
X169615009Y-115555161D01*
X171710247Y-110412304D02*
X171900723Y-110793257D01*
X171900723Y-111555161D01*
X171710247Y-111936114D01*
X171329295Y-112126590D01*
X169805485Y-112126590D01*
X169424533Y-111936114D01*
X169234057Y-111555161D01*
X169234057Y-110793257D01*
X169424533Y-110412304D01*
X169805485Y-110221828D01*
X170186438Y-110221828D01*
X170567390Y-112126590D01*
X167900723Y-105840876D02*
X171900723Y-104888495D01*
X169043580Y-104126590D01*
X171900723Y-103364685D01*
X167900723Y-102412304D01*
X171710247Y-99364685D02*
X171900723Y-99745638D01*
X171900723Y-100507542D01*
X171710247Y-100888495D01*
X171329295Y-101078971D01*
X169805485Y-101078971D01*
X169424533Y-100888495D01*
X169234057Y-100507542D01*
X169234057Y-99745638D01*
X169424533Y-99364685D01*
X169805485Y-99174209D01*
X170186438Y-99174209D01*
X170567390Y-101078971D01*
X171900723Y-97459923D02*
X169234057Y-97459923D01*
X167900723Y-97459923D02*
X168091200Y-97650400D01*
X168281676Y-97459923D01*
X168091200Y-97269447D01*
X167900723Y-97459923D01*
X168281676Y-97459923D01*
X171900723Y-95555161D02*
X167900723Y-95555161D01*
X171900723Y-93840876D02*
X169805485Y-93840876D01*
X169424533Y-94031352D01*
X169234057Y-94412304D01*
X169234057Y-94983733D01*
X169424533Y-95364685D01*
X169615009Y-95555161D01*
X169234057Y-91936114D02*
X171900723Y-91936114D01*
X169615009Y-91936114D02*
X169424533Y-91745638D01*
X169234057Y-91364685D01*
X169234057Y-90793257D01*
X169424533Y-90412304D01*
X169805485Y-90221828D01*
X171900723Y-90221828D01*
X171900723Y-86602780D02*
X169805485Y-86602780D01*
X169424533Y-86793257D01*
X169234057Y-87174209D01*
X169234057Y-87936114D01*
X169424533Y-88317066D01*
X171710247Y-86602780D02*
X171900723Y-86983733D01*
X171900723Y-87936114D01*
X171710247Y-88317066D01*
X171329295Y-88507542D01*
X170948342Y-88507542D01*
X170567390Y-88317066D01*
X170376914Y-87936114D01*
X170376914Y-86983733D01*
X170186438Y-86602780D01*
X171710247Y-82983733D02*
X171900723Y-83364685D01*
X171900723Y-84126590D01*
X171710247Y-84507542D01*
X171519771Y-84698019D01*
X171138819Y-84888495D01*
X169995961Y-84888495D01*
X169615009Y-84698019D01*
X169424533Y-84507542D01*
X169234057Y-84126590D01*
X169234057Y-83364685D01*
X169424533Y-82983733D01*
X171900723Y-81269447D02*
X167900723Y-81269447D01*
X171900723Y-79555161D02*
X169805485Y-79555161D01*
X169424533Y-79745638D01*
X169234057Y-80126590D01*
X169234057Y-80698019D01*
X169424533Y-81078971D01*
X169615009Y-81269447D01*
X169234057Y-78221828D02*
X169234057Y-76698019D01*
X167900723Y-77650400D02*
X171329295Y-77650400D01*
X171710247Y-77459923D01*
X171900723Y-77078971D01*
X171900723Y-76698019D01*
X171710247Y-73840876D02*
X171900723Y-74221828D01*
X171900723Y-74983733D01*
X171710247Y-75364685D01*
X171329295Y-75555161D01*
X169805485Y-75555161D01*
X169424533Y-75364685D01*
X169234057Y-74983733D01*
X169234057Y-74221828D01*
X169424533Y-73840876D01*
X169805485Y-73650400D01*
X170186438Y-73650400D01*
X170567390Y-75555161D01*
X169234057Y-71936114D02*
X171900723Y-71936114D01*
X169615009Y-71936114D02*
X169424533Y-71745638D01*
X169234057Y-71364685D01*
X169234057Y-70793257D01*
X169424533Y-70412304D01*
X169805485Y-70221828D01*
X171900723Y-70221828D01*
D11*
%TO.C,SW1*%
X152362000Y-109434000D02*
X152362000Y-109444000D01*
X158462000Y-109434000D02*
X152362000Y-109434000D01*
X152362000Y-128994000D02*
X158462000Y-128994000D01*
X158462000Y-128994000D02*
X158462000Y-109434000D01*
X152362000Y-128994000D02*
X152362000Y-109434000D01*
D12*
X154178266Y-121854961D02*
X154321123Y-121902580D01*
X154559219Y-121902580D01*
X154654457Y-121854961D01*
X154702076Y-121807342D01*
X154749695Y-121712104D01*
X154749695Y-121616866D01*
X154702076Y-121521628D01*
X154654457Y-121474009D01*
X154559219Y-121426390D01*
X154368742Y-121378771D01*
X154273504Y-121331152D01*
X154225885Y-121283533D01*
X154178266Y-121188295D01*
X154178266Y-121093057D01*
X154225885Y-120997819D01*
X154273504Y-120950200D01*
X154368742Y-120902580D01*
X154606838Y-120902580D01*
X154749695Y-120950200D01*
X155083028Y-120902580D02*
X155321123Y-121902580D01*
X155511600Y-121188295D01*
X155702076Y-121902580D01*
X155940171Y-120902580D01*
X156844933Y-121902580D02*
X156273504Y-121902580D01*
X156559219Y-121902580D02*
X156559219Y-120902580D01*
X156463980Y-121045438D01*
X156368742Y-121140676D01*
X156273504Y-121188295D01*
%TD*%
M02*
