%TF.GenerationSoftware,KiCad,Pcbnew,(5.1.10)-1*%
%TF.CreationDate,2021-10-19T12:48:05+02:00*%
%TF.ProjectId,Base,42617365-2e6b-4696-9361-645f70636258,rev?*%
%TF.SameCoordinates,Original*%
%TF.FileFunction,Copper,L2,Bot*%
%TF.FilePolarity,Positive*%
%FSLAX46Y46*%
G04 Gerber Fmt 4.6, Leading zero omitted, Abs format (unit mm)*
G04 Created by KiCad (PCBNEW (5.1.10)-1) date 2021-10-19 12:48:05*
%MOMM*%
%LPD*%
G01*
G04 APERTURE LIST*
%TA.AperFunction,ComponentPad*%
%ADD10O,4.000000X6.500000*%
%TD*%
%TA.AperFunction,ComponentPad*%
%ADD11O,6.500000X4.000000*%
%TD*%
%TA.AperFunction,ComponentPad*%
%ADD12C,6.000000*%
%TD*%
%TA.AperFunction,ComponentPad*%
%ADD13C,4.000000*%
%TD*%
%TA.AperFunction,SMDPad,CuDef*%
%ADD14R,12.000000X8.000000*%
%TD*%
%TA.AperFunction,ComponentPad*%
%ADD15C,2.000000*%
%TD*%
%TA.AperFunction,SMDPad,CuDef*%
%ADD16R,0.900000X2.600000*%
%TD*%
%TA.AperFunction,SMDPad,CuDef*%
%ADD17C,0.100000*%
%TD*%
%TA.AperFunction,ViaPad*%
%ADD18C,0.800000*%
%TD*%
%TA.AperFunction,Conductor*%
%ADD19C,0.600000*%
%TD*%
%TA.AperFunction,Conductor*%
%ADD20C,1.000000*%
%TD*%
%TA.AperFunction,Conductor*%
%ADD21C,0.250000*%
%TD*%
%TA.AperFunction,Conductor*%
%ADD22C,0.254000*%
%TD*%
%TA.AperFunction,Conductor*%
%ADD23C,0.100000*%
%TD*%
G04 APERTURE END LIST*
D10*
%TO.P,REF\u002A\u002A,6*%
%TO.N,/LED_MATRIX_2*%
X137122000Y-104668000D03*
%TO.P,REF\u002A\u002A,5*%
%TO.N,GND*%
X137122000Y-96668000D03*
%TO.P,REF\u002A\u002A,2*%
%TO.N,/LED_MATRIX_4*%
X137122000Y-80168000D03*
%TO.P,REF\u002A\u002A,1*%
%TO.N,GND*%
X137122000Y-88168000D03*
D11*
%TO.P,REF\u002A\u002A,8*%
%TO.N,/LED_MATRIX_1*%
X124872000Y-92418000D03*
%TO.P,REF\u002A\u002A,7*%
%TO.N,GND*%
X132872000Y-92418000D03*
%TO.P,REF\u002A\u002A,4*%
%TO.N,/LED_MATRIX_3*%
X149372000Y-92418000D03*
%TO.P,REF\u002A\u002A,3*%
%TO.N,GND*%
X141372000Y-92418000D03*
%TD*%
%TO.P,U3,1*%
%TO.N,Net-(Q1-Pad1)*%
%TA.AperFunction,SMDPad,CuDef*%
G36*
G01*
X162418000Y-82091000D02*
X162118000Y-82091000D01*
G75*
G02*
X161968000Y-81941000I0J150000D01*
G01*
X161968000Y-80191000D01*
G75*
G02*
X162118000Y-80041000I150000J0D01*
G01*
X162418000Y-80041000D01*
G75*
G02*
X162568000Y-80191000I0J-150000D01*
G01*
X162568000Y-81941000D01*
G75*
G02*
X162418000Y-82091000I-150000J0D01*
G01*
G37*
%TD.AperFunction*%
%TO.P,U3,2*%
%TO.N,Net-(Q3-Pad1)*%
%TA.AperFunction,SMDPad,CuDef*%
G36*
G01*
X161148000Y-82091000D02*
X160848000Y-82091000D01*
G75*
G02*
X160698000Y-81941000I0J150000D01*
G01*
X160698000Y-80191000D01*
G75*
G02*
X160848000Y-80041000I150000J0D01*
G01*
X161148000Y-80041000D01*
G75*
G02*
X161298000Y-80191000I0J-150000D01*
G01*
X161298000Y-81941000D01*
G75*
G02*
X161148000Y-82091000I-150000J0D01*
G01*
G37*
%TD.AperFunction*%
%TO.P,U3,3*%
%TO.N,Net-(Q2-Pad1)*%
%TA.AperFunction,SMDPad,CuDef*%
G36*
G01*
X159878000Y-82091000D02*
X159578000Y-82091000D01*
G75*
G02*
X159428000Y-81941000I0J150000D01*
G01*
X159428000Y-80191000D01*
G75*
G02*
X159578000Y-80041000I150000J0D01*
G01*
X159878000Y-80041000D01*
G75*
G02*
X160028000Y-80191000I0J-150000D01*
G01*
X160028000Y-81941000D01*
G75*
G02*
X159878000Y-82091000I-150000J0D01*
G01*
G37*
%TD.AperFunction*%
%TO.P,U3,4*%
%TO.N,Net-(Q4-Pad1)*%
%TA.AperFunction,SMDPad,CuDef*%
G36*
G01*
X158608000Y-82091000D02*
X158308000Y-82091000D01*
G75*
G02*
X158158000Y-81941000I0J150000D01*
G01*
X158158000Y-80191000D01*
G75*
G02*
X158308000Y-80041000I150000J0D01*
G01*
X158608000Y-80041000D01*
G75*
G02*
X158758000Y-80191000I0J-150000D01*
G01*
X158758000Y-81941000D01*
G75*
G02*
X158608000Y-82091000I-150000J0D01*
G01*
G37*
%TD.AperFunction*%
%TO.P,U3,5*%
%TO.N,N/C*%
%TA.AperFunction,SMDPad,CuDef*%
G36*
G01*
X157338000Y-82091000D02*
X157038000Y-82091000D01*
G75*
G02*
X156888000Y-81941000I0J150000D01*
G01*
X156888000Y-80191000D01*
G75*
G02*
X157038000Y-80041000I150000J0D01*
G01*
X157338000Y-80041000D01*
G75*
G02*
X157488000Y-80191000I0J-150000D01*
G01*
X157488000Y-81941000D01*
G75*
G02*
X157338000Y-82091000I-150000J0D01*
G01*
G37*
%TD.AperFunction*%
%TO.P,U3,6*%
%TA.AperFunction,SMDPad,CuDef*%
G36*
G01*
X156068000Y-82091000D02*
X155768000Y-82091000D01*
G75*
G02*
X155618000Y-81941000I0J150000D01*
G01*
X155618000Y-80191000D01*
G75*
G02*
X155768000Y-80041000I150000J0D01*
G01*
X156068000Y-80041000D01*
G75*
G02*
X156218000Y-80191000I0J-150000D01*
G01*
X156218000Y-81941000D01*
G75*
G02*
X156068000Y-82091000I-150000J0D01*
G01*
G37*
%TD.AperFunction*%
%TO.P,U3,7*%
%TO.N,GND*%
%TA.AperFunction,SMDPad,CuDef*%
G36*
G01*
X154798000Y-82091000D02*
X154498000Y-82091000D01*
G75*
G02*
X154348000Y-81941000I0J150000D01*
G01*
X154348000Y-80191000D01*
G75*
G02*
X154498000Y-80041000I150000J0D01*
G01*
X154798000Y-80041000D01*
G75*
G02*
X154948000Y-80191000I0J-150000D01*
G01*
X154948000Y-81941000D01*
G75*
G02*
X154798000Y-82091000I-150000J0D01*
G01*
G37*
%TD.AperFunction*%
%TO.P,U3,8*%
%TO.N,N/C*%
%TA.AperFunction,SMDPad,CuDef*%
G36*
G01*
X154798000Y-72791000D02*
X154498000Y-72791000D01*
G75*
G02*
X154348000Y-72641000I0J150000D01*
G01*
X154348000Y-70891000D01*
G75*
G02*
X154498000Y-70741000I150000J0D01*
G01*
X154798000Y-70741000D01*
G75*
G02*
X154948000Y-70891000I0J-150000D01*
G01*
X154948000Y-72641000D01*
G75*
G02*
X154798000Y-72791000I-150000J0D01*
G01*
G37*
%TD.AperFunction*%
%TO.P,U3,9*%
%TA.AperFunction,SMDPad,CuDef*%
G36*
G01*
X156068000Y-72791000D02*
X155768000Y-72791000D01*
G75*
G02*
X155618000Y-72641000I0J150000D01*
G01*
X155618000Y-70891000D01*
G75*
G02*
X155768000Y-70741000I150000J0D01*
G01*
X156068000Y-70741000D01*
G75*
G02*
X156218000Y-70891000I0J-150000D01*
G01*
X156218000Y-72641000D01*
G75*
G02*
X156068000Y-72791000I-150000J0D01*
G01*
G37*
%TD.AperFunction*%
%TO.P,U3,10*%
%TA.AperFunction,SMDPad,CuDef*%
G36*
G01*
X157338000Y-72791000D02*
X157038000Y-72791000D01*
G75*
G02*
X156888000Y-72641000I0J150000D01*
G01*
X156888000Y-70891000D01*
G75*
G02*
X157038000Y-70741000I150000J0D01*
G01*
X157338000Y-70741000D01*
G75*
G02*
X157488000Y-70891000I0J-150000D01*
G01*
X157488000Y-72641000D01*
G75*
G02*
X157338000Y-72791000I-150000J0D01*
G01*
G37*
%TD.AperFunction*%
%TO.P,U3,11*%
%TA.AperFunction,SMDPad,CuDef*%
G36*
G01*
X158608000Y-72791000D02*
X158308000Y-72791000D01*
G75*
G02*
X158158000Y-72641000I0J150000D01*
G01*
X158158000Y-70891000D01*
G75*
G02*
X158308000Y-70741000I150000J0D01*
G01*
X158608000Y-70741000D01*
G75*
G02*
X158758000Y-70891000I0J-150000D01*
G01*
X158758000Y-72641000D01*
G75*
G02*
X158608000Y-72791000I-150000J0D01*
G01*
G37*
%TD.AperFunction*%
%TO.P,U3,12*%
%TA.AperFunction,SMDPad,CuDef*%
G36*
G01*
X159878000Y-72791000D02*
X159578000Y-72791000D01*
G75*
G02*
X159428000Y-72641000I0J150000D01*
G01*
X159428000Y-70891000D01*
G75*
G02*
X159578000Y-70741000I150000J0D01*
G01*
X159878000Y-70741000D01*
G75*
G02*
X160028000Y-70891000I0J-150000D01*
G01*
X160028000Y-72641000D01*
G75*
G02*
X159878000Y-72791000I-150000J0D01*
G01*
G37*
%TD.AperFunction*%
%TO.P,U3,13*%
%TA.AperFunction,SMDPad,CuDef*%
G36*
G01*
X161148000Y-72791000D02*
X160848000Y-72791000D01*
G75*
G02*
X160698000Y-72641000I0J150000D01*
G01*
X160698000Y-70891000D01*
G75*
G02*
X160848000Y-70741000I150000J0D01*
G01*
X161148000Y-70741000D01*
G75*
G02*
X161298000Y-70891000I0J-150000D01*
G01*
X161298000Y-72641000D01*
G75*
G02*
X161148000Y-72791000I-150000J0D01*
G01*
G37*
%TD.AperFunction*%
%TO.P,U3,14*%
%TO.N,VCC*%
%TA.AperFunction,SMDPad,CuDef*%
G36*
G01*
X162418000Y-72791000D02*
X162118000Y-72791000D01*
G75*
G02*
X161968000Y-72641000I0J150000D01*
G01*
X161968000Y-70891000D01*
G75*
G02*
X162118000Y-70741000I150000J0D01*
G01*
X162418000Y-70741000D01*
G75*
G02*
X162568000Y-70891000I0J-150000D01*
G01*
X162568000Y-72641000D01*
G75*
G02*
X162418000Y-72791000I-150000J0D01*
G01*
G37*
%TD.AperFunction*%
%TD*%
D12*
%TO.P,BT3,3*%
%TO.N,N/C*%
X125270000Y-111670000D03*
D13*
%TO.P,BT3,4*%
X147270000Y-97520000D03*
D12*
%TO.P,BT3,5*%
X125270000Y-83370000D03*
D14*
%TO.P,BT3,2*%
%TO.N,GND*%
X128695000Y-124720000D03*
%TO.P,BT3,1*%
%TO.N,Net-(BT3-Pad1)*%
X143845000Y-124720000D03*
%TD*%
%TO.P,C6,1*%
%TO.N,VCC*%
%TA.AperFunction,SMDPad,CuDef*%
G36*
G01*
X161305002Y-115077400D02*
X160004998Y-115077400D01*
G75*
G02*
X159755000Y-114827402I0J249998D01*
G01*
X159755000Y-114002398D01*
G75*
G02*
X160004998Y-113752400I249998J0D01*
G01*
X161305002Y-113752400D01*
G75*
G02*
X161555000Y-114002398I0J-249998D01*
G01*
X161555000Y-114827402D01*
G75*
G02*
X161305002Y-115077400I-249998J0D01*
G01*
G37*
%TD.AperFunction*%
%TO.P,C6,2*%
%TO.N,GND*%
%TA.AperFunction,SMDPad,CuDef*%
G36*
G01*
X161305002Y-111952400D02*
X160004998Y-111952400D01*
G75*
G02*
X159755000Y-111702402I0J249998D01*
G01*
X159755000Y-110877398D01*
G75*
G02*
X160004998Y-110627400I249998J0D01*
G01*
X161305002Y-110627400D01*
G75*
G02*
X161555000Y-110877398I0J-249998D01*
G01*
X161555000Y-111702402D01*
G75*
G02*
X161305002Y-111952400I-249998J0D01*
G01*
G37*
%TD.AperFunction*%
%TD*%
%TO.P,C5,1*%
%TO.N,VCC*%
%TA.AperFunction,SMDPad,CuDef*%
G36*
G01*
X173213198Y-90205600D02*
X174513202Y-90205600D01*
G75*
G02*
X174763200Y-90455598I0J-249998D01*
G01*
X174763200Y-91280602D01*
G75*
G02*
X174513202Y-91530600I-249998J0D01*
G01*
X173213198Y-91530600D01*
G75*
G02*
X172963200Y-91280602I0J249998D01*
G01*
X172963200Y-90455598D01*
G75*
G02*
X173213198Y-90205600I249998J0D01*
G01*
G37*
%TD.AperFunction*%
%TO.P,C5,2*%
%TO.N,GND*%
%TA.AperFunction,SMDPad,CuDef*%
G36*
G01*
X173213198Y-93330600D02*
X174513202Y-93330600D01*
G75*
G02*
X174763200Y-93580598I0J-249998D01*
G01*
X174763200Y-94405602D01*
G75*
G02*
X174513202Y-94655600I-249998J0D01*
G01*
X173213198Y-94655600D01*
G75*
G02*
X172963200Y-94405602I0J249998D01*
G01*
X172963200Y-93580598D01*
G75*
G02*
X173213198Y-93330600I249998J0D01*
G01*
G37*
%TD.AperFunction*%
%TD*%
D15*
%TO.P,SW1,3*%
%TO.N,Net-(SW1-Pad3)*%
X155412000Y-123914000D03*
%TO.P,SW1,2*%
%TO.N,Net-(BT3-Pad1)*%
X155412000Y-119214000D03*
%TO.P,SW1,1*%
%TO.N,VCC*%
X155412000Y-114514000D03*
%TD*%
%TO.P,R6,1*%
%TO.N,Net-(Q1-Pad1)*%
%TA.AperFunction,SMDPad,CuDef*%
G36*
G01*
X165071999Y-104340400D02*
X166322001Y-104340400D01*
G75*
G02*
X166572000Y-104590399I0J-249999D01*
G01*
X166572000Y-105390401D01*
G75*
G02*
X166322001Y-105640400I-249999J0D01*
G01*
X165071999Y-105640400D01*
G75*
G02*
X164822000Y-105390401I0J249999D01*
G01*
X164822000Y-104590399D01*
G75*
G02*
X165071999Y-104340400I249999J0D01*
G01*
G37*
%TD.AperFunction*%
%TO.P,R6,2*%
%TO.N,Net-(R6-Pad2)*%
%TA.AperFunction,SMDPad,CuDef*%
G36*
G01*
X165071999Y-107440400D02*
X166322001Y-107440400D01*
G75*
G02*
X166572000Y-107690399I0J-249999D01*
G01*
X166572000Y-108490401D01*
G75*
G02*
X166322001Y-108740400I-249999J0D01*
G01*
X165071999Y-108740400D01*
G75*
G02*
X164822000Y-108490401I0J249999D01*
G01*
X164822000Y-107690399D01*
G75*
G02*
X165071999Y-107440400I249999J0D01*
G01*
G37*
%TD.AperFunction*%
%TD*%
%TO.P,R5,1*%
%TO.N,Net-(Q2-Pad1)*%
%TA.AperFunction,SMDPad,CuDef*%
G36*
G01*
X165071200Y-100282001D02*
X165071200Y-99031999D01*
G75*
G02*
X165321199Y-98782000I249999J0D01*
G01*
X166121201Y-98782000D01*
G75*
G02*
X166371200Y-99031999I0J-249999D01*
G01*
X166371200Y-100282001D01*
G75*
G02*
X166121201Y-100532000I-249999J0D01*
G01*
X165321199Y-100532000D01*
G75*
G02*
X165071200Y-100282001I0J249999D01*
G01*
G37*
%TD.AperFunction*%
%TO.P,R5,2*%
%TO.N,Net-(R5-Pad2)*%
%TA.AperFunction,SMDPad,CuDef*%
G36*
G01*
X168171200Y-100282001D02*
X168171200Y-99031999D01*
G75*
G02*
X168421199Y-98782000I249999J0D01*
G01*
X169221201Y-98782000D01*
G75*
G02*
X169471200Y-99031999I0J-249999D01*
G01*
X169471200Y-100282001D01*
G75*
G02*
X169221201Y-100532000I-249999J0D01*
G01*
X168421199Y-100532000D01*
G75*
G02*
X168171200Y-100282001I0J249999D01*
G01*
G37*
%TD.AperFunction*%
%TD*%
%TO.P,R4,1*%
%TO.N,Net-(R3-Pad2)*%
%TA.AperFunction,SMDPad,CuDef*%
G36*
G01*
X174031200Y-83931599D02*
X174031200Y-85181601D01*
G75*
G02*
X173781201Y-85431600I-249999J0D01*
G01*
X172981199Y-85431600D01*
G75*
G02*
X172731200Y-85181601I0J249999D01*
G01*
X172731200Y-83931599D01*
G75*
G02*
X172981199Y-83681600I249999J0D01*
G01*
X173781201Y-83681600D01*
G75*
G02*
X174031200Y-83931599I0J-249999D01*
G01*
G37*
%TD.AperFunction*%
%TO.P,R4,2*%
%TO.N,Net-(C4-Pad1)*%
%TA.AperFunction,SMDPad,CuDef*%
G36*
G01*
X170931200Y-83931599D02*
X170931200Y-85181601D01*
G75*
G02*
X170681201Y-85431600I-249999J0D01*
G01*
X169881199Y-85431600D01*
G75*
G02*
X169631200Y-85181601I0J249999D01*
G01*
X169631200Y-83931599D01*
G75*
G02*
X169881199Y-83681600I249999J0D01*
G01*
X170681201Y-83681600D01*
G75*
G02*
X170931200Y-83931599I0J-249999D01*
G01*
G37*
%TD.AperFunction*%
%TD*%
%TO.P,R3,1*%
%TO.N,VCC*%
%TA.AperFunction,SMDPad,CuDef*%
G36*
G01*
X174005200Y-86471599D02*
X174005200Y-87721601D01*
G75*
G02*
X173755201Y-87971600I-249999J0D01*
G01*
X172955199Y-87971600D01*
G75*
G02*
X172705200Y-87721601I0J249999D01*
G01*
X172705200Y-86471599D01*
G75*
G02*
X172955199Y-86221600I249999J0D01*
G01*
X173755201Y-86221600D01*
G75*
G02*
X174005200Y-86471599I0J-249999D01*
G01*
G37*
%TD.AperFunction*%
%TO.P,R3,2*%
%TO.N,Net-(R3-Pad2)*%
%TA.AperFunction,SMDPad,CuDef*%
G36*
G01*
X170905200Y-86471599D02*
X170905200Y-87721601D01*
G75*
G02*
X170655201Y-87971600I-249999J0D01*
G01*
X169855199Y-87971600D01*
G75*
G02*
X169605200Y-87721601I0J249999D01*
G01*
X169605200Y-86471599D01*
G75*
G02*
X169855199Y-86221600I249999J0D01*
G01*
X170655201Y-86221600D01*
G75*
G02*
X170905200Y-86471599I0J-249999D01*
G01*
G37*
%TD.AperFunction*%
%TD*%
%TO.P,R2,1*%
%TO.N,Net-(R1-Pad2)*%
%TA.AperFunction,SMDPad,CuDef*%
G36*
G01*
X160487000Y-121859401D02*
X160487000Y-120609399D01*
G75*
G02*
X160736999Y-120359400I249999J0D01*
G01*
X161537001Y-120359400D01*
G75*
G02*
X161787000Y-120609399I0J-249999D01*
G01*
X161787000Y-121859401D01*
G75*
G02*
X161537001Y-122109400I-249999J0D01*
G01*
X160736999Y-122109400D01*
G75*
G02*
X160487000Y-121859401I0J249999D01*
G01*
G37*
%TD.AperFunction*%
%TO.P,R2,2*%
%TO.N,Net-(C3-Pad1)*%
%TA.AperFunction,SMDPad,CuDef*%
G36*
G01*
X163587000Y-121859401D02*
X163587000Y-120609399D01*
G75*
G02*
X163836999Y-120359400I249999J0D01*
G01*
X164637001Y-120359400D01*
G75*
G02*
X164887000Y-120609399I0J-249999D01*
G01*
X164887000Y-121859401D01*
G75*
G02*
X164637001Y-122109400I-249999J0D01*
G01*
X163836999Y-122109400D01*
G75*
G02*
X163587000Y-121859401I0J249999D01*
G01*
G37*
%TD.AperFunction*%
%TD*%
%TO.P,R1,1*%
%TO.N,VCC*%
%TA.AperFunction,SMDPad,CuDef*%
G36*
G01*
X160487000Y-119319401D02*
X160487000Y-118069399D01*
G75*
G02*
X160736999Y-117819400I249999J0D01*
G01*
X161537001Y-117819400D01*
G75*
G02*
X161787000Y-118069399I0J-249999D01*
G01*
X161787000Y-119319401D01*
G75*
G02*
X161537001Y-119569400I-249999J0D01*
G01*
X160736999Y-119569400D01*
G75*
G02*
X160487000Y-119319401I0J249999D01*
G01*
G37*
%TD.AperFunction*%
%TO.P,R1,2*%
%TO.N,Net-(R1-Pad2)*%
%TA.AperFunction,SMDPad,CuDef*%
G36*
G01*
X163587000Y-119319401D02*
X163587000Y-118069399D01*
G75*
G02*
X163836999Y-117819400I249999J0D01*
G01*
X164637001Y-117819400D01*
G75*
G02*
X164887000Y-118069399I0J-249999D01*
G01*
X164887000Y-119319401D01*
G75*
G02*
X164637001Y-119569400I-249999J0D01*
G01*
X163836999Y-119569400D01*
G75*
G02*
X163587000Y-119319401I0J249999D01*
G01*
G37*
%TD.AperFunction*%
%TD*%
%TO.P,C4,1*%
%TO.N,Net-(C4-Pad1)*%
%TA.AperFunction,SMDPad,CuDef*%
G36*
G01*
X167960200Y-83906598D02*
X167960200Y-85206602D01*
G75*
G02*
X167710202Y-85456600I-249998J0D01*
G01*
X166885198Y-85456600D01*
G75*
G02*
X166635200Y-85206602I0J249998D01*
G01*
X166635200Y-83906598D01*
G75*
G02*
X166885198Y-83656600I249998J0D01*
G01*
X167710202Y-83656600D01*
G75*
G02*
X167960200Y-83906598I0J-249998D01*
G01*
G37*
%TD.AperFunction*%
%TO.P,C4,2*%
%TO.N,GND*%
%TA.AperFunction,SMDPad,CuDef*%
G36*
G01*
X164835200Y-83906598D02*
X164835200Y-85206602D01*
G75*
G02*
X164585202Y-85456600I-249998J0D01*
G01*
X163760198Y-85456600D01*
G75*
G02*
X163510200Y-85206602I0J249998D01*
G01*
X163510200Y-83906598D01*
G75*
G02*
X163760198Y-83656600I249998J0D01*
G01*
X164585202Y-83656600D01*
G75*
G02*
X164835200Y-83906598I0J-249998D01*
G01*
G37*
%TD.AperFunction*%
%TD*%
%TO.P,C3,1*%
%TO.N,Net-(C3-Pad1)*%
%TA.AperFunction,SMDPad,CuDef*%
G36*
G01*
X166304000Y-121884402D02*
X166304000Y-120584398D01*
G75*
G02*
X166553998Y-120334400I249998J0D01*
G01*
X167379002Y-120334400D01*
G75*
G02*
X167629000Y-120584398I0J-249998D01*
G01*
X167629000Y-121884402D01*
G75*
G02*
X167379002Y-122134400I-249998J0D01*
G01*
X166553998Y-122134400D01*
G75*
G02*
X166304000Y-121884402I0J249998D01*
G01*
G37*
%TD.AperFunction*%
%TO.P,C3,2*%
%TO.N,GND*%
%TA.AperFunction,SMDPad,CuDef*%
G36*
G01*
X169429000Y-121884402D02*
X169429000Y-120584398D01*
G75*
G02*
X169678998Y-120334400I249998J0D01*
G01*
X170504002Y-120334400D01*
G75*
G02*
X170754000Y-120584398I0J-249998D01*
G01*
X170754000Y-121884402D01*
G75*
G02*
X170504002Y-122134400I-249998J0D01*
G01*
X169678998Y-122134400D01*
G75*
G02*
X169429000Y-121884402I0J249998D01*
G01*
G37*
%TD.AperFunction*%
%TD*%
%TO.P,C2,1*%
%TO.N,Net-(C2-Pad1)*%
%TA.AperFunction,SMDPad,CuDef*%
G36*
G01*
X167960200Y-86446598D02*
X167960200Y-87746602D01*
G75*
G02*
X167710202Y-87996600I-249998J0D01*
G01*
X166885198Y-87996600D01*
G75*
G02*
X166635200Y-87746602I0J249998D01*
G01*
X166635200Y-86446598D01*
G75*
G02*
X166885198Y-86196600I249998J0D01*
G01*
X167710202Y-86196600D01*
G75*
G02*
X167960200Y-86446598I0J-249998D01*
G01*
G37*
%TD.AperFunction*%
%TO.P,C2,2*%
%TO.N,GND*%
%TA.AperFunction,SMDPad,CuDef*%
G36*
G01*
X164835200Y-86446598D02*
X164835200Y-87746602D01*
G75*
G02*
X164585202Y-87996600I-249998J0D01*
G01*
X163760198Y-87996600D01*
G75*
G02*
X163510200Y-87746602I0J249998D01*
G01*
X163510200Y-86446598D01*
G75*
G02*
X163760198Y-86196600I249998J0D01*
G01*
X164585202Y-86196600D01*
G75*
G02*
X164835200Y-86446598I0J-249998D01*
G01*
G37*
%TD.AperFunction*%
%TD*%
%TO.P,C1,1*%
%TO.N,Net-(C1-Pad1)*%
%TA.AperFunction,SMDPad,CuDef*%
G36*
G01*
X166304000Y-119344402D02*
X166304000Y-118044398D01*
G75*
G02*
X166553998Y-117794400I249998J0D01*
G01*
X167379002Y-117794400D01*
G75*
G02*
X167629000Y-118044398I0J-249998D01*
G01*
X167629000Y-119344402D01*
G75*
G02*
X167379002Y-119594400I-249998J0D01*
G01*
X166553998Y-119594400D01*
G75*
G02*
X166304000Y-119344402I0J249998D01*
G01*
G37*
%TD.AperFunction*%
%TO.P,C1,2*%
%TO.N,GND*%
%TA.AperFunction,SMDPad,CuDef*%
G36*
G01*
X169429000Y-119344402D02*
X169429000Y-118044398D01*
G75*
G02*
X169678998Y-117794400I249998J0D01*
G01*
X170504002Y-117794400D01*
G75*
G02*
X170754000Y-118044398I0J-249998D01*
G01*
X170754000Y-119344402D01*
G75*
G02*
X170504002Y-119594400I-249998J0D01*
G01*
X169678998Y-119594400D01*
G75*
G02*
X169429000Y-119344402I0J249998D01*
G01*
G37*
%TD.AperFunction*%
%TD*%
%TO.P,U2,1*%
%TO.N,GND*%
%TA.AperFunction,SMDPad,CuDef*%
G36*
G01*
X171600200Y-95626600D02*
X171300200Y-95626600D01*
G75*
G02*
X171150200Y-95476600I0J150000D01*
G01*
X171150200Y-93826600D01*
G75*
G02*
X171300200Y-93676600I150000J0D01*
G01*
X171600200Y-93676600D01*
G75*
G02*
X171750200Y-93826600I0J-150000D01*
G01*
X171750200Y-95476600D01*
G75*
G02*
X171600200Y-95626600I-150000J0D01*
G01*
G37*
%TD.AperFunction*%
%TO.P,U2,2*%
%TO.N,Net-(C4-Pad1)*%
%TA.AperFunction,SMDPad,CuDef*%
G36*
G01*
X170330200Y-95626600D02*
X170030200Y-95626600D01*
G75*
G02*
X169880200Y-95476600I0J150000D01*
G01*
X169880200Y-93826600D01*
G75*
G02*
X170030200Y-93676600I150000J0D01*
G01*
X170330200Y-93676600D01*
G75*
G02*
X170480200Y-93826600I0J-150000D01*
G01*
X170480200Y-95476600D01*
G75*
G02*
X170330200Y-95626600I-150000J0D01*
G01*
G37*
%TD.AperFunction*%
%TO.P,U2,3*%
%TO.N,Net-(R5-Pad2)*%
%TA.AperFunction,SMDPad,CuDef*%
G36*
G01*
X169060200Y-95626600D02*
X168760200Y-95626600D01*
G75*
G02*
X168610200Y-95476600I0J150000D01*
G01*
X168610200Y-93826600D01*
G75*
G02*
X168760200Y-93676600I150000J0D01*
G01*
X169060200Y-93676600D01*
G75*
G02*
X169210200Y-93826600I0J-150000D01*
G01*
X169210200Y-95476600D01*
G75*
G02*
X169060200Y-95626600I-150000J0D01*
G01*
G37*
%TD.AperFunction*%
%TO.P,U2,4*%
%TO.N,VCC*%
%TA.AperFunction,SMDPad,CuDef*%
G36*
G01*
X167790200Y-95626600D02*
X167490200Y-95626600D01*
G75*
G02*
X167340200Y-95476600I0J150000D01*
G01*
X167340200Y-93826600D01*
G75*
G02*
X167490200Y-93676600I150000J0D01*
G01*
X167790200Y-93676600D01*
G75*
G02*
X167940200Y-93826600I0J-150000D01*
G01*
X167940200Y-95476600D01*
G75*
G02*
X167790200Y-95626600I-150000J0D01*
G01*
G37*
%TD.AperFunction*%
%TO.P,U2,5*%
%TO.N,Net-(C2-Pad1)*%
%TA.AperFunction,SMDPad,CuDef*%
G36*
G01*
X167790200Y-90676600D02*
X167490200Y-90676600D01*
G75*
G02*
X167340200Y-90526600I0J150000D01*
G01*
X167340200Y-88876600D01*
G75*
G02*
X167490200Y-88726600I150000J0D01*
G01*
X167790200Y-88726600D01*
G75*
G02*
X167940200Y-88876600I0J-150000D01*
G01*
X167940200Y-90526600D01*
G75*
G02*
X167790200Y-90676600I-150000J0D01*
G01*
G37*
%TD.AperFunction*%
%TO.P,U2,6*%
%TO.N,Net-(C4-Pad1)*%
%TA.AperFunction,SMDPad,CuDef*%
G36*
G01*
X169060200Y-90676600D02*
X168760200Y-90676600D01*
G75*
G02*
X168610200Y-90526600I0J150000D01*
G01*
X168610200Y-88876600D01*
G75*
G02*
X168760200Y-88726600I150000J0D01*
G01*
X169060200Y-88726600D01*
G75*
G02*
X169210200Y-88876600I0J-150000D01*
G01*
X169210200Y-90526600D01*
G75*
G02*
X169060200Y-90676600I-150000J0D01*
G01*
G37*
%TD.AperFunction*%
%TO.P,U2,7*%
%TO.N,Net-(R3-Pad2)*%
%TA.AperFunction,SMDPad,CuDef*%
G36*
G01*
X170330200Y-90676600D02*
X170030200Y-90676600D01*
G75*
G02*
X169880200Y-90526600I0J150000D01*
G01*
X169880200Y-88876600D01*
G75*
G02*
X170030200Y-88726600I150000J0D01*
G01*
X170330200Y-88726600D01*
G75*
G02*
X170480200Y-88876600I0J-150000D01*
G01*
X170480200Y-90526600D01*
G75*
G02*
X170330200Y-90676600I-150000J0D01*
G01*
G37*
%TD.AperFunction*%
%TO.P,U2,8*%
%TO.N,VCC*%
%TA.AperFunction,SMDPad,CuDef*%
G36*
G01*
X171600200Y-90676600D02*
X171300200Y-90676600D01*
G75*
G02*
X171150200Y-90526600I0J150000D01*
G01*
X171150200Y-88876600D01*
G75*
G02*
X171300200Y-88726600I150000J0D01*
G01*
X171600200Y-88726600D01*
G75*
G02*
X171750200Y-88876600I0J-150000D01*
G01*
X171750200Y-90526600D01*
G75*
G02*
X171600200Y-90676600I-150000J0D01*
G01*
G37*
%TD.AperFunction*%
%TD*%
%TO.P,U1,1*%
%TO.N,GND*%
%TA.AperFunction,SMDPad,CuDef*%
G36*
G01*
X162918000Y-109910400D02*
X163218000Y-109910400D01*
G75*
G02*
X163368000Y-110060400I0J-150000D01*
G01*
X163368000Y-111710400D01*
G75*
G02*
X163218000Y-111860400I-150000J0D01*
G01*
X162918000Y-111860400D01*
G75*
G02*
X162768000Y-111710400I0J150000D01*
G01*
X162768000Y-110060400D01*
G75*
G02*
X162918000Y-109910400I150000J0D01*
G01*
G37*
%TD.AperFunction*%
%TO.P,U1,2*%
%TO.N,Net-(C3-Pad1)*%
%TA.AperFunction,SMDPad,CuDef*%
G36*
G01*
X164188000Y-109910400D02*
X164488000Y-109910400D01*
G75*
G02*
X164638000Y-110060400I0J-150000D01*
G01*
X164638000Y-111710400D01*
G75*
G02*
X164488000Y-111860400I-150000J0D01*
G01*
X164188000Y-111860400D01*
G75*
G02*
X164038000Y-111710400I0J150000D01*
G01*
X164038000Y-110060400D01*
G75*
G02*
X164188000Y-109910400I150000J0D01*
G01*
G37*
%TD.AperFunction*%
%TO.P,U1,3*%
%TO.N,Net-(R6-Pad2)*%
%TA.AperFunction,SMDPad,CuDef*%
G36*
G01*
X165458000Y-109910400D02*
X165758000Y-109910400D01*
G75*
G02*
X165908000Y-110060400I0J-150000D01*
G01*
X165908000Y-111710400D01*
G75*
G02*
X165758000Y-111860400I-150000J0D01*
G01*
X165458000Y-111860400D01*
G75*
G02*
X165308000Y-111710400I0J150000D01*
G01*
X165308000Y-110060400D01*
G75*
G02*
X165458000Y-109910400I150000J0D01*
G01*
G37*
%TD.AperFunction*%
%TO.P,U1,4*%
%TO.N,VCC*%
%TA.AperFunction,SMDPad,CuDef*%
G36*
G01*
X166728000Y-109910400D02*
X167028000Y-109910400D01*
G75*
G02*
X167178000Y-110060400I0J-150000D01*
G01*
X167178000Y-111710400D01*
G75*
G02*
X167028000Y-111860400I-150000J0D01*
G01*
X166728000Y-111860400D01*
G75*
G02*
X166578000Y-111710400I0J150000D01*
G01*
X166578000Y-110060400D01*
G75*
G02*
X166728000Y-109910400I150000J0D01*
G01*
G37*
%TD.AperFunction*%
%TO.P,U1,5*%
%TO.N,Net-(C1-Pad1)*%
%TA.AperFunction,SMDPad,CuDef*%
G36*
G01*
X166728000Y-114860400D02*
X167028000Y-114860400D01*
G75*
G02*
X167178000Y-115010400I0J-150000D01*
G01*
X167178000Y-116660400D01*
G75*
G02*
X167028000Y-116810400I-150000J0D01*
G01*
X166728000Y-116810400D01*
G75*
G02*
X166578000Y-116660400I0J150000D01*
G01*
X166578000Y-115010400D01*
G75*
G02*
X166728000Y-114860400I150000J0D01*
G01*
G37*
%TD.AperFunction*%
%TO.P,U1,6*%
%TO.N,Net-(C3-Pad1)*%
%TA.AperFunction,SMDPad,CuDef*%
G36*
G01*
X165458000Y-114860400D02*
X165758000Y-114860400D01*
G75*
G02*
X165908000Y-115010400I0J-150000D01*
G01*
X165908000Y-116660400D01*
G75*
G02*
X165758000Y-116810400I-150000J0D01*
G01*
X165458000Y-116810400D01*
G75*
G02*
X165308000Y-116660400I0J150000D01*
G01*
X165308000Y-115010400D01*
G75*
G02*
X165458000Y-114860400I150000J0D01*
G01*
G37*
%TD.AperFunction*%
%TO.P,U1,7*%
%TO.N,Net-(R1-Pad2)*%
%TA.AperFunction,SMDPad,CuDef*%
G36*
G01*
X164188000Y-114860400D02*
X164488000Y-114860400D01*
G75*
G02*
X164638000Y-115010400I0J-150000D01*
G01*
X164638000Y-116660400D01*
G75*
G02*
X164488000Y-116810400I-150000J0D01*
G01*
X164188000Y-116810400D01*
G75*
G02*
X164038000Y-116660400I0J150000D01*
G01*
X164038000Y-115010400D01*
G75*
G02*
X164188000Y-114860400I150000J0D01*
G01*
G37*
%TD.AperFunction*%
%TO.P,U1,8*%
%TO.N,VCC*%
%TA.AperFunction,SMDPad,CuDef*%
G36*
G01*
X162918000Y-114860400D02*
X163218000Y-114860400D01*
G75*
G02*
X163368000Y-115010400I0J-150000D01*
G01*
X163368000Y-116660400D01*
G75*
G02*
X163218000Y-116810400I-150000J0D01*
G01*
X162918000Y-116810400D01*
G75*
G02*
X162768000Y-116660400I0J150000D01*
G01*
X162768000Y-115010400D01*
G75*
G02*
X162918000Y-114860400I150000J0D01*
G01*
G37*
%TD.AperFunction*%
%TD*%
D16*
%TO.P,Q4,1*%
%TO.N,Net-(Q4-Pad1)*%
X158434000Y-88368000D03*
%TO.P,Q4,3*%
%TO.N,/LED_MATRIX_4*%
X155434000Y-88368000D03*
%TA.AperFunction,SMDPad,CuDef*%
D17*
%TO.P,Q4,2*%
%TO.N,VCC*%
G36*
X157800500Y-83768000D02*
G01*
X157800500Y-86893000D01*
X157384000Y-86893000D01*
X157384000Y-88368000D01*
X156484000Y-88368000D01*
X156484000Y-86893000D01*
X156067500Y-86893000D01*
X156067500Y-83768000D01*
X157800500Y-83768000D01*
G37*
%TD.AperFunction*%
%TD*%
D16*
%TO.P,Q3,1*%
%TO.N,Net-(Q3-Pad1)*%
X158434000Y-94718000D03*
%TO.P,Q3,3*%
%TO.N,/LED_MATRIX_2*%
X155434000Y-94718000D03*
%TA.AperFunction,SMDPad,CuDef*%
D17*
%TO.P,Q3,2*%
%TO.N,VCC*%
G36*
X157800500Y-90118000D02*
G01*
X157800500Y-93243000D01*
X157384000Y-93243000D01*
X157384000Y-94718000D01*
X156484000Y-94718000D01*
X156484000Y-93243000D01*
X156067500Y-93243000D01*
X156067500Y-90118000D01*
X157800500Y-90118000D01*
G37*
%TD.AperFunction*%
%TD*%
D16*
%TO.P,Q2,1*%
%TO.N,Net-(Q2-Pad1)*%
X158434000Y-101068000D03*
%TO.P,Q2,3*%
%TO.N,/LED_MATRIX_3*%
X155434000Y-101068000D03*
%TA.AperFunction,SMDPad,CuDef*%
D17*
%TO.P,Q2,2*%
%TO.N,VCC*%
G36*
X157800500Y-96468000D02*
G01*
X157800500Y-99593000D01*
X157384000Y-99593000D01*
X157384000Y-101068000D01*
X156484000Y-101068000D01*
X156484000Y-99593000D01*
X156067500Y-99593000D01*
X156067500Y-96468000D01*
X157800500Y-96468000D01*
G37*
%TD.AperFunction*%
%TD*%
D16*
%TO.P,Q1,1*%
%TO.N,Net-(Q1-Pad1)*%
X158434000Y-107418000D03*
%TO.P,Q1,3*%
%TO.N,/LED_MATRIX_1*%
X155434000Y-107418000D03*
%TA.AperFunction,SMDPad,CuDef*%
D17*
%TO.P,Q1,2*%
%TO.N,VCC*%
G36*
X157800500Y-102818000D02*
G01*
X157800500Y-105943000D01*
X157384000Y-105943000D01*
X157384000Y-107418000D01*
X156484000Y-107418000D01*
X156484000Y-105943000D01*
X156067500Y-105943000D01*
X156067500Y-102818000D01*
X157800500Y-102818000D01*
G37*
%TD.AperFunction*%
%TD*%
D18*
%TO.N,GND*%
X166586000Y-112992000D03*
X163284000Y-112992000D03*
X171412000Y-92418000D03*
X168110000Y-92418000D03*
X165570000Y-79464000D03*
X165570000Y-76924000D03*
%TD*%
D19*
%TO.N,Net-(BT3-Pad1)*%
X155412000Y-119214000D02*
X144717600Y-119214000D01*
X144717600Y-119214000D02*
X143827600Y-120104000D01*
X143827600Y-120104000D02*
X143827600Y-124701400D01*
D20*
%TO.N,GND*%
X137122000Y-96668000D02*
X132872000Y-92418000D01*
X137122000Y-88168000D02*
X132872000Y-92418000D01*
X137122000Y-88168000D02*
X141372000Y-92418000D01*
X137122000Y-96668000D02*
X141372000Y-92418000D01*
X170091500Y-121234400D02*
X170091500Y-118694400D01*
D19*
X163068000Y-110885400D02*
X162368000Y-110885400D01*
X161963500Y-111289900D02*
X160655000Y-111289900D01*
X162368000Y-110885400D02*
X161963500Y-111289900D01*
X164172700Y-84556600D02*
X164172700Y-87096600D01*
X171450200Y-94651600D02*
X171896200Y-94651600D01*
X172554700Y-93993100D02*
X173863200Y-93993100D01*
X171896200Y-94651600D02*
X172554700Y-93993100D01*
D20*
X170091500Y-118694400D02*
X170091500Y-114465500D01*
X168618000Y-112992000D02*
X166586000Y-112992000D01*
X170091500Y-114465500D02*
X168618000Y-112992000D01*
X163284000Y-112992000D02*
X162522000Y-112992000D01*
X162522000Y-112992000D02*
X160998000Y-111468000D01*
X160655000Y-107747000D02*
X162014000Y-106388000D01*
X160655000Y-111289900D02*
X160655000Y-107747000D01*
X173952000Y-100292000D02*
X173952000Y-93942000D01*
X171450200Y-92456200D02*
X171412000Y-92418000D01*
X171450200Y-94651600D02*
X171450200Y-92456200D01*
X168110000Y-92418000D02*
X164046000Y-88354000D01*
X164046000Y-87592000D02*
X164300000Y-87338000D01*
X164046000Y-88354000D02*
X164046000Y-87592000D01*
X165570000Y-83159300D02*
X165570000Y-79972000D01*
X164172700Y-84556600D02*
X165570000Y-83159300D01*
X154648000Y-81066000D02*
X154648000Y-79914315D01*
X154648000Y-79914315D02*
X154590315Y-79914315D01*
X154590315Y-79914315D02*
X149568000Y-74892000D01*
X149568000Y-74892000D02*
X137329610Y-74892000D01*
X137329610Y-74892000D02*
X134328000Y-74892000D01*
X134328000Y-74892000D02*
X130772000Y-78448000D01*
X130772000Y-78448000D02*
X130772000Y-82004000D01*
X130772000Y-82004000D02*
X137122000Y-88354000D01*
X128695000Y-124720000D02*
X128950000Y-124720000D01*
X128950000Y-124720000D02*
X131280000Y-122390000D01*
X131280000Y-112203998D02*
X123152000Y-104075998D01*
X131280000Y-122390000D02*
X131280000Y-112203998D01*
X120921990Y-91299620D02*
X123867610Y-88354000D01*
X120921990Y-101845988D02*
X120921990Y-91299620D01*
X123152000Y-104075998D02*
X120921990Y-101845988D01*
X123867610Y-88354000D02*
X136868000Y-88354000D01*
X167856000Y-106388000D02*
X173952000Y-100292000D01*
X162014000Y-106388000D02*
X167856000Y-106388000D01*
X165570000Y-79972000D02*
X165570000Y-79464000D01*
X149568000Y-74618902D02*
X149568000Y-74892000D01*
X154374902Y-69812000D02*
X149568000Y-74618902D01*
X164300000Y-69812000D02*
X154374902Y-69812000D01*
X165570000Y-71082000D02*
X164300000Y-69812000D01*
X165570000Y-76924000D02*
X165570000Y-71082000D01*
D21*
%TO.N,Net-(C1-Pad1)*%
X166878000Y-118605900D02*
X166966500Y-118694400D01*
X166878000Y-115835400D02*
X166878000Y-118605900D01*
D19*
%TO.N,Net-(C2-Pad1)*%
X167640200Y-89701600D02*
X167640200Y-87630200D01*
X167640200Y-87630200D02*
X167348000Y-87338000D01*
X167348000Y-87338000D02*
X167094000Y-87084000D01*
D21*
%TO.N,Net-(C3-Pad1)*%
X165608000Y-115835400D02*
X165608000Y-120599400D01*
X164973000Y-121234400D02*
X164237000Y-121234400D01*
X165608000Y-120599400D02*
X164973000Y-121234400D01*
X166243000Y-121234400D02*
X166966500Y-121234400D01*
X165608000Y-120599400D02*
X166243000Y-121234400D01*
X165608000Y-115835400D02*
X165608000Y-114249400D01*
X164338000Y-112979400D02*
X164338000Y-110885400D01*
X165608000Y-114249400D02*
X164338000Y-112979400D01*
%TO.N,Net-(C4-Pad1)*%
X168910200Y-89701600D02*
X168910200Y-85191600D01*
X168275200Y-84556600D02*
X168910200Y-85191600D01*
X167297700Y-84556600D02*
X168275200Y-84556600D01*
X169545200Y-84556600D02*
X168910200Y-85191600D01*
X170281200Y-84556600D02*
X169545200Y-84556600D01*
X168910200Y-89701600D02*
X168910200Y-91033600D01*
X170180200Y-92303600D02*
X170180200Y-94651600D01*
X168910200Y-91033600D02*
X170180200Y-92303600D01*
D20*
%TO.N,VCC*%
X173952000Y-124930000D02*
X160744000Y-124930000D01*
X175730000Y-123152000D02*
X173952000Y-124930000D01*
D19*
X172696700Y-89701600D02*
X172782200Y-89701600D01*
X172696700Y-89701600D02*
X173863200Y-90868100D01*
X171450200Y-89701600D02*
X172696700Y-89701600D01*
X172782200Y-89701600D02*
X173355200Y-89128600D01*
X173355200Y-89128600D02*
X173355200Y-87096600D01*
X161137000Y-116688400D02*
X161137000Y-118694400D01*
X161990000Y-115835400D02*
X161990000Y-115749900D01*
X161990000Y-115835400D02*
X161137000Y-116688400D01*
X163068000Y-115835400D02*
X161990000Y-115835400D01*
X161990000Y-115749900D02*
X160655000Y-114414900D01*
D20*
X156934000Y-104902500D02*
X156934000Y-106896000D01*
X160655000Y-114414900D02*
X155511100Y-114414900D01*
X155511100Y-114414900D02*
X155410000Y-114516000D01*
X156934000Y-91148000D02*
X156934000Y-85814000D01*
X156934000Y-104902500D02*
X156934000Y-100800000D01*
X158458000Y-119342000D02*
X158458000Y-122644000D01*
X155412000Y-116296000D02*
X158458000Y-119342000D01*
X155412000Y-114514000D02*
X155412000Y-116296000D01*
X160744000Y-124930000D02*
X158458000Y-122644000D01*
D19*
X166878000Y-110885400D02*
X175401400Y-110885400D01*
X175401400Y-110885400D02*
X175730000Y-111214000D01*
D20*
X175730000Y-111214000D02*
X175730000Y-123152000D01*
X175730000Y-91656000D02*
X175730000Y-111214000D01*
D19*
X175704100Y-90868100D02*
X175730000Y-90894000D01*
X173863200Y-90868100D02*
X175704100Y-90868100D01*
D20*
X175730000Y-90894000D02*
X175730000Y-83528000D01*
X175730000Y-91656000D02*
X175730000Y-90894000D01*
D19*
X162268000Y-71766000D02*
X162268000Y-76416000D01*
D20*
X175730000Y-83528000D02*
X170396000Y-78194000D01*
D19*
X164046000Y-78194000D02*
X162268000Y-76416000D01*
D20*
X170396000Y-78194000D02*
X164046000Y-78194000D01*
D19*
X163538000Y-78702000D02*
X164046000Y-78194000D01*
X163538000Y-82512000D02*
X163538000Y-78702000D01*
X162960190Y-83089810D02*
X163538000Y-82512000D01*
X162960190Y-91840190D02*
X162960190Y-83089810D01*
X165771600Y-94651600D02*
X162960190Y-91840190D01*
X167640200Y-94651600D02*
X165771600Y-94651600D01*
D20*
X156934000Y-100546000D02*
X156934000Y-96482000D01*
X156934000Y-110960000D02*
X156934000Y-100546000D01*
X155412000Y-112482000D02*
X156934000Y-110960000D01*
X155412000Y-114514000D02*
X155412000Y-112482000D01*
X156934000Y-96482000D02*
X156934000Y-91148000D01*
X156934000Y-100800000D02*
X156934000Y-96482000D01*
%TO.N,/LED_MATRIX_1*%
X124872000Y-102520000D02*
X124872000Y-92418000D01*
X133820000Y-111468000D02*
X124872000Y-102520000D01*
X155434000Y-106768000D02*
X147918000Y-106768000D01*
X143218000Y-111468000D02*
X133820000Y-111468000D01*
X147918000Y-106768000D02*
X143218000Y-111468000D01*
D21*
%TO.N,Net-(Q1-Pad1)*%
X165697000Y-103111400D02*
X165697000Y-104990400D01*
X167246400Y-101562000D02*
X165697000Y-103111400D01*
X167246400Y-98082200D02*
X167246400Y-101562000D01*
X162268000Y-93103800D02*
X167246400Y-98082200D01*
X162268000Y-81066000D02*
X162268000Y-93103800D01*
X158434000Y-106768000D02*
X158434000Y-105904000D01*
X158434000Y-105904000D02*
X159474000Y-104864000D01*
X159474000Y-104864000D02*
X165570000Y-104864000D01*
X165570000Y-104864000D02*
X165824000Y-104864000D01*
D20*
%TO.N,/LED_MATRIX_3*%
X149372000Y-92418000D02*
X149372000Y-92476000D01*
X149822000Y-94704000D02*
X149822000Y-92164000D01*
X149822000Y-96482000D02*
X149822000Y-94704000D01*
X153758000Y-100418000D02*
X149822000Y-96482000D01*
X155434000Y-100418000D02*
X153758000Y-100418000D01*
D21*
%TO.N,Net-(Q2-Pad1)*%
X159728000Y-81066000D02*
X159728000Y-79718000D01*
X159728000Y-79718000D02*
X160236000Y-79210000D01*
X160236000Y-79210000D02*
X160744000Y-79210000D01*
X160744000Y-79210000D02*
X160998000Y-79210000D01*
X160998000Y-79210000D02*
X161642990Y-79854990D01*
X161642990Y-79854990D02*
X161642990Y-94059010D01*
X161642990Y-94059010D02*
X158458000Y-97244000D01*
X158458000Y-97244000D02*
X158458000Y-99784000D01*
D19*
X158434000Y-100418000D02*
X161634000Y-100418000D01*
X161634000Y-100418000D02*
X162268000Y-99784000D01*
X162268000Y-99784000D02*
X165824000Y-99784000D01*
D20*
%TO.N,/LED_MATRIX_2*%
X145322010Y-95471988D02*
X143726000Y-97067998D01*
X143726000Y-97067998D02*
X143726000Y-101562000D01*
X147536000Y-89116000D02*
X145322010Y-91329990D01*
X152362000Y-89116000D02*
X147536000Y-89116000D01*
X139350000Y-104668000D02*
X137122000Y-104668000D01*
X140620000Y-104668000D02*
X139350000Y-104668000D01*
X153378000Y-90132000D02*
X152362000Y-89116000D01*
X143726000Y-101562000D02*
X140620000Y-104668000D01*
X145322010Y-91329990D02*
X145322010Y-95471988D01*
X153378000Y-92926000D02*
X153378000Y-90132000D01*
X154520000Y-94068000D02*
X153378000Y-92926000D01*
X155434000Y-94068000D02*
X154520000Y-94068000D01*
D21*
%TO.N,Net-(Q3-Pad1)*%
X158434000Y-94068000D02*
X158434000Y-92188000D01*
X158434000Y-92188000D02*
X159220000Y-91402000D01*
X160998000Y-89624000D02*
X159220000Y-91402000D01*
X160998000Y-81066000D02*
X160998000Y-89624000D01*
X159220000Y-91402000D02*
X159474000Y-91148000D01*
D20*
%TO.N,/LED_MATRIX_4*%
X143218000Y-80226000D02*
X137122000Y-80226000D01*
X144742000Y-80226000D02*
X143218000Y-80226000D01*
X144742000Y-80226000D02*
X145758000Y-80226000D01*
X145758000Y-80226000D02*
X153378000Y-87846000D01*
X153378000Y-87846000D02*
X154394000Y-87846000D01*
X154394000Y-87846000D02*
X155410000Y-87846000D01*
D21*
%TO.N,Net-(Q4-Pad1)*%
X158458000Y-80050000D02*
X158458000Y-87846000D01*
%TO.N,Net-(R1-Pad2)*%
X164237000Y-118694400D02*
X163449000Y-118694400D01*
X163449000Y-118694400D02*
X162433000Y-119710400D01*
X162433000Y-119710400D02*
X162433000Y-120726400D01*
X161925000Y-121234400D02*
X161137000Y-121234400D01*
X162433000Y-120726400D02*
X161925000Y-121234400D01*
X164338000Y-118593400D02*
X164237000Y-118694400D01*
X164338000Y-115835400D02*
X164338000Y-118593400D01*
%TO.N,Net-(R3-Pad2)*%
X170180200Y-87171600D02*
X170255200Y-87096600D01*
X170180200Y-89701600D02*
X170180200Y-87171600D01*
X173381200Y-84556600D02*
X172593200Y-84556600D01*
X172593200Y-84556600D02*
X171831200Y-85318600D01*
X171831200Y-85318600D02*
X171831200Y-86842600D01*
X171577200Y-87096600D02*
X170255200Y-87096600D01*
X171831200Y-86842600D02*
X171577200Y-87096600D01*
D19*
%TO.N,Net-(R5-Pad2)*%
X168910200Y-94651600D02*
X168910200Y-99695000D01*
D21*
%TO.N,Net-(R6-Pad2)*%
X165608000Y-110885400D02*
X165608000Y-108153400D01*
%TD*%
D22*
%TO.N,GND*%
X176086001Y-82278869D02*
X171237996Y-77430865D01*
X171202449Y-77387551D01*
X171029623Y-77245716D01*
X170832447Y-77140324D01*
X170618499Y-77075423D01*
X170451752Y-77059000D01*
X170451751Y-77059000D01*
X170396000Y-77053509D01*
X170340249Y-77059000D01*
X164233289Y-77059000D01*
X163203000Y-76028711D01*
X163203000Y-72672190D01*
X163206072Y-72641000D01*
X163206072Y-70891000D01*
X163190929Y-70737255D01*
X163146084Y-70589418D01*
X163073258Y-70453171D01*
X162975251Y-70333749D01*
X162855829Y-70235742D01*
X162719582Y-70162916D01*
X162571745Y-70118071D01*
X162418000Y-70102928D01*
X162118000Y-70102928D01*
X161964255Y-70118071D01*
X161816418Y-70162916D01*
X161680171Y-70235742D01*
X161633000Y-70274454D01*
X161585829Y-70235742D01*
X161449582Y-70162916D01*
X161301745Y-70118071D01*
X161148000Y-70102928D01*
X160848000Y-70102928D01*
X160694255Y-70118071D01*
X160546418Y-70162916D01*
X160410171Y-70235742D01*
X160363000Y-70274454D01*
X160315829Y-70235742D01*
X160179582Y-70162916D01*
X160031745Y-70118071D01*
X159878000Y-70102928D01*
X159578000Y-70102928D01*
X159424255Y-70118071D01*
X159276418Y-70162916D01*
X159140171Y-70235742D01*
X159093000Y-70274454D01*
X159045829Y-70235742D01*
X158909582Y-70162916D01*
X158761745Y-70118071D01*
X158608000Y-70102928D01*
X158308000Y-70102928D01*
X158154255Y-70118071D01*
X158006418Y-70162916D01*
X157870171Y-70235742D01*
X157823000Y-70274454D01*
X157775829Y-70235742D01*
X157639582Y-70162916D01*
X157491745Y-70118071D01*
X157338000Y-70102928D01*
X157038000Y-70102928D01*
X156884255Y-70118071D01*
X156736418Y-70162916D01*
X156600171Y-70235742D01*
X156553000Y-70274454D01*
X156505829Y-70235742D01*
X156369582Y-70162916D01*
X156221745Y-70118071D01*
X156068000Y-70102928D01*
X155768000Y-70102928D01*
X155614255Y-70118071D01*
X155466418Y-70162916D01*
X155330171Y-70235742D01*
X155283000Y-70274454D01*
X155235829Y-70235742D01*
X155099582Y-70162916D01*
X154951745Y-70118071D01*
X154798000Y-70102928D01*
X154498000Y-70102928D01*
X154344255Y-70118071D01*
X154196418Y-70162916D01*
X154060171Y-70235742D01*
X153940749Y-70333749D01*
X153842742Y-70453171D01*
X153769916Y-70589418D01*
X153725071Y-70737255D01*
X153709928Y-70891000D01*
X153709928Y-72641000D01*
X153725071Y-72794745D01*
X153769916Y-72942582D01*
X153842742Y-73078829D01*
X153940749Y-73198251D01*
X154060171Y-73296258D01*
X154196418Y-73369084D01*
X154344255Y-73413929D01*
X154498000Y-73429072D01*
X154798000Y-73429072D01*
X154951745Y-73413929D01*
X155099582Y-73369084D01*
X155235829Y-73296258D01*
X155283000Y-73257546D01*
X155330171Y-73296258D01*
X155466418Y-73369084D01*
X155614255Y-73413929D01*
X155768000Y-73429072D01*
X156068000Y-73429072D01*
X156221745Y-73413929D01*
X156369582Y-73369084D01*
X156505829Y-73296258D01*
X156553000Y-73257546D01*
X156600171Y-73296258D01*
X156736418Y-73369084D01*
X156884255Y-73413929D01*
X157038000Y-73429072D01*
X157338000Y-73429072D01*
X157491745Y-73413929D01*
X157639582Y-73369084D01*
X157775829Y-73296258D01*
X157823000Y-73257546D01*
X157870171Y-73296258D01*
X158006418Y-73369084D01*
X158154255Y-73413929D01*
X158308000Y-73429072D01*
X158608000Y-73429072D01*
X158761745Y-73413929D01*
X158909582Y-73369084D01*
X159045829Y-73296258D01*
X159093000Y-73257546D01*
X159140171Y-73296258D01*
X159276418Y-73369084D01*
X159424255Y-73413929D01*
X159578000Y-73429072D01*
X159878000Y-73429072D01*
X160031745Y-73413929D01*
X160179582Y-73369084D01*
X160315829Y-73296258D01*
X160363000Y-73257546D01*
X160410171Y-73296258D01*
X160546418Y-73369084D01*
X160694255Y-73413929D01*
X160848000Y-73429072D01*
X161148000Y-73429072D01*
X161301745Y-73413929D01*
X161333000Y-73404448D01*
X161333001Y-76370058D01*
X161328476Y-76416000D01*
X161346529Y-76599291D01*
X161399994Y-76775540D01*
X161486815Y-76937972D01*
X161603657Y-77080344D01*
X161639336Y-77109625D01*
X162740417Y-78210706D01*
X162669994Y-78342460D01*
X162616529Y-78518709D01*
X162598476Y-78702000D01*
X162603001Y-78747942D01*
X162603001Y-79427552D01*
X162571745Y-79418071D01*
X162418000Y-79402928D01*
X162255161Y-79402928D01*
X162206789Y-79343987D01*
X162182991Y-79314989D01*
X162153994Y-79291192D01*
X161561803Y-78699002D01*
X161538001Y-78669999D01*
X161422276Y-78575026D01*
X161290247Y-78504454D01*
X161146986Y-78460997D01*
X161035333Y-78450000D01*
X161035322Y-78450000D01*
X160998000Y-78446324D01*
X160960678Y-78450000D01*
X160273322Y-78450000D01*
X160235999Y-78446324D01*
X160198676Y-78450000D01*
X160198667Y-78450000D01*
X160087014Y-78460997D01*
X159943753Y-78504454D01*
X159811724Y-78575026D01*
X159695999Y-78669999D01*
X159672200Y-78698998D01*
X159216998Y-79154201D01*
X159188000Y-79177999D01*
X159164202Y-79206997D01*
X159164201Y-79206998D01*
X159093026Y-79293724D01*
X159022454Y-79425754D01*
X158999251Y-79502247D01*
X158997119Y-79509275D01*
X158882275Y-79415026D01*
X158750246Y-79344454D01*
X158606985Y-79300997D01*
X158458000Y-79286323D01*
X158309014Y-79300997D01*
X158165753Y-79344454D01*
X158033724Y-79415026D01*
X157917999Y-79509999D01*
X157917738Y-79510317D01*
X157870171Y-79535742D01*
X157823000Y-79574454D01*
X157775829Y-79535742D01*
X157639582Y-79462916D01*
X157491745Y-79418071D01*
X157338000Y-79402928D01*
X157038000Y-79402928D01*
X156884255Y-79418071D01*
X156736418Y-79462916D01*
X156600171Y-79535742D01*
X156553000Y-79574454D01*
X156505829Y-79535742D01*
X156369582Y-79462916D01*
X156221745Y-79418071D01*
X156068000Y-79402928D01*
X155768000Y-79402928D01*
X155614255Y-79418071D01*
X155466418Y-79462916D01*
X155332064Y-79534730D01*
X155302494Y-79510463D01*
X155192180Y-79451498D01*
X155072482Y-79415188D01*
X154948000Y-79402928D01*
X154933750Y-79406000D01*
X154775000Y-79564750D01*
X154775000Y-80939000D01*
X154795000Y-80939000D01*
X154795000Y-81193000D01*
X154775000Y-81193000D01*
X154775000Y-82567250D01*
X154933750Y-82726000D01*
X154948000Y-82729072D01*
X155072482Y-82716812D01*
X155192180Y-82680502D01*
X155284108Y-82631365D01*
X155320285Y-86429928D01*
X154984000Y-86429928D01*
X154859518Y-86442188D01*
X154739820Y-86478498D01*
X154629506Y-86537463D01*
X154532815Y-86616815D01*
X154455520Y-86711000D01*
X153848132Y-86711000D01*
X149228132Y-82091000D01*
X153709928Y-82091000D01*
X153722188Y-82215482D01*
X153758498Y-82335180D01*
X153817463Y-82445494D01*
X153896815Y-82542185D01*
X153993506Y-82621537D01*
X154103820Y-82680502D01*
X154223518Y-82716812D01*
X154348000Y-82729072D01*
X154362250Y-82726000D01*
X154521000Y-82567250D01*
X154521000Y-81193000D01*
X153871750Y-81193000D01*
X153713000Y-81351750D01*
X153709928Y-82091000D01*
X149228132Y-82091000D01*
X147178132Y-80041000D01*
X153709928Y-80041000D01*
X153713000Y-80780250D01*
X153871750Y-80939000D01*
X154521000Y-80939000D01*
X154521000Y-79564750D01*
X154362250Y-79406000D01*
X154348000Y-79402928D01*
X154223518Y-79415188D01*
X154103820Y-79451498D01*
X153993506Y-79510463D01*
X153896815Y-79589815D01*
X153817463Y-79686506D01*
X153758498Y-79796820D01*
X153722188Y-79916518D01*
X153709928Y-80041000D01*
X147178132Y-80041000D01*
X146599996Y-79462865D01*
X146564449Y-79419551D01*
X146391623Y-79277716D01*
X146194447Y-79172324D01*
X145980499Y-79107423D01*
X145813752Y-79091000D01*
X145813751Y-79091000D01*
X145758000Y-79085509D01*
X145702249Y-79091000D01*
X139757000Y-79091000D01*
X139757000Y-78788558D01*
X139718873Y-78401450D01*
X139568201Y-77904750D01*
X139323523Y-77446989D01*
X138994241Y-77045759D01*
X138593010Y-76716477D01*
X138135249Y-76471799D01*
X137638549Y-76321127D01*
X137122000Y-76270251D01*
X136605450Y-76321127D01*
X136108750Y-76471799D01*
X135650989Y-76716477D01*
X135249759Y-77045759D01*
X134920477Y-77446990D01*
X134675799Y-77904751D01*
X134525127Y-78401451D01*
X134487000Y-78788559D01*
X134487000Y-81547442D01*
X134525127Y-81934550D01*
X134675799Y-82431250D01*
X134920478Y-82889011D01*
X135249760Y-83290241D01*
X135650990Y-83619523D01*
X136108751Y-83864201D01*
X136605451Y-84014873D01*
X137122000Y-84065749D01*
X137638550Y-84014873D01*
X138135250Y-83864201D01*
X138593011Y-83619523D01*
X138994241Y-83290241D01*
X139323523Y-82889011D01*
X139568201Y-82431250D01*
X139718873Y-81934550D01*
X139757000Y-81547442D01*
X139757000Y-81361000D01*
X145287869Y-81361000D01*
X151907868Y-87981000D01*
X147591752Y-87981000D01*
X147536000Y-87975509D01*
X147480248Y-87981000D01*
X147321857Y-87996600D01*
X147313501Y-87997423D01*
X147099553Y-88062324D01*
X146902377Y-88167716D01*
X146772856Y-88274011D01*
X146772855Y-88274012D01*
X146729551Y-88309551D01*
X146694013Y-88352854D01*
X144558874Y-90487994D01*
X144515561Y-90523541D01*
X144483893Y-90562128D01*
X144191525Y-90297635D01*
X143747704Y-90032178D01*
X143260623Y-89858407D01*
X142749000Y-89783000D01*
X141499000Y-89783000D01*
X141499000Y-92291000D01*
X141519000Y-92291000D01*
X141519000Y-92545000D01*
X141499000Y-92545000D01*
X141499000Y-95053000D01*
X142749000Y-95053000D01*
X143260623Y-94977593D01*
X143747704Y-94803822D01*
X144187011Y-94541065D01*
X144187011Y-95001855D01*
X142962865Y-96226002D01*
X142919551Y-96261549D01*
X142777716Y-96434375D01*
X142694232Y-96590565D01*
X142672324Y-96631552D01*
X142607423Y-96845500D01*
X142585509Y-97067998D01*
X142591000Y-97123750D01*
X142591001Y-101091867D01*
X140149869Y-103533000D01*
X139757000Y-103533000D01*
X139757000Y-103288558D01*
X139718873Y-102901450D01*
X139568201Y-102404750D01*
X139323523Y-101946989D01*
X138994241Y-101545759D01*
X138593010Y-101216477D01*
X138135249Y-100971799D01*
X137638549Y-100821127D01*
X137122000Y-100770251D01*
X136605450Y-100821127D01*
X136108750Y-100971799D01*
X135650989Y-101216477D01*
X135249759Y-101545759D01*
X134920477Y-101946990D01*
X134675799Y-102404751D01*
X134525127Y-102901451D01*
X134487000Y-103288559D01*
X134487000Y-106047442D01*
X134525127Y-106434550D01*
X134675799Y-106931250D01*
X134920478Y-107389011D01*
X135249760Y-107790241D01*
X135650990Y-108119523D01*
X136108751Y-108364201D01*
X136605451Y-108514873D01*
X137122000Y-108565749D01*
X137638550Y-108514873D01*
X138135250Y-108364201D01*
X138593011Y-108119523D01*
X138994241Y-107790241D01*
X139323523Y-107389011D01*
X139568201Y-106931250D01*
X139718873Y-106434550D01*
X139757000Y-106047442D01*
X139757000Y-105803000D01*
X140564249Y-105803000D01*
X140620000Y-105808491D01*
X140675751Y-105803000D01*
X140675752Y-105803000D01*
X140842499Y-105786577D01*
X141056447Y-105721676D01*
X141253623Y-105616284D01*
X141426449Y-105474449D01*
X141461996Y-105431135D01*
X144489141Y-102403991D01*
X144532449Y-102368449D01*
X144674284Y-102195623D01*
X144779676Y-101998447D01*
X144844577Y-101784499D01*
X144861000Y-101617752D01*
X144861000Y-101617743D01*
X144866490Y-101562001D01*
X144861000Y-101506259D01*
X144861000Y-98589748D01*
X144934893Y-98768141D01*
X145223262Y-99199715D01*
X145590285Y-99566738D01*
X146021859Y-99855107D01*
X146501399Y-100053739D01*
X147010475Y-100155000D01*
X147529525Y-100155000D01*
X148038601Y-100053739D01*
X148518141Y-99855107D01*
X148949715Y-99566738D01*
X149316738Y-99199715D01*
X149605107Y-98768141D01*
X149803739Y-98288601D01*
X149840194Y-98105326D01*
X152916013Y-101181146D01*
X152951551Y-101224449D01*
X152994854Y-101259987D01*
X152994856Y-101259989D01*
X153124377Y-101366284D01*
X153321553Y-101471676D01*
X153535501Y-101536577D01*
X153758000Y-101558491D01*
X153813752Y-101553000D01*
X154345928Y-101553000D01*
X154345928Y-102368000D01*
X154358188Y-102492482D01*
X154394498Y-102612180D01*
X154453463Y-102722494D01*
X154532815Y-102819185D01*
X154629506Y-102898537D01*
X154739820Y-102957502D01*
X154859518Y-102993812D01*
X154984000Y-103006072D01*
X155429428Y-103006072D01*
X155429428Y-105479928D01*
X154984000Y-105479928D01*
X154859518Y-105492188D01*
X154739820Y-105528498D01*
X154629506Y-105587463D01*
X154574019Y-105633000D01*
X147973752Y-105633000D01*
X147918000Y-105627509D01*
X147862248Y-105633000D01*
X147695501Y-105649423D01*
X147481553Y-105714324D01*
X147284377Y-105819716D01*
X147111551Y-105961551D01*
X147076009Y-106004859D01*
X142747869Y-110333000D01*
X134290132Y-110333000D01*
X126007000Y-102049869D01*
X126007000Y-96795000D01*
X134487000Y-96795000D01*
X134487000Y-98045000D01*
X134562407Y-98556623D01*
X134736178Y-99043704D01*
X135001635Y-99487525D01*
X135348576Y-99871030D01*
X135763669Y-100179481D01*
X136230962Y-100401025D01*
X136584838Y-100497667D01*
X136995000Y-100390991D01*
X136995000Y-96795000D01*
X137249000Y-96795000D01*
X137249000Y-100390991D01*
X137659162Y-100497667D01*
X138013038Y-100401025D01*
X138480331Y-100179481D01*
X138895424Y-99871030D01*
X139242365Y-99487525D01*
X139507822Y-99043704D01*
X139681593Y-98556623D01*
X139757000Y-98045000D01*
X139757000Y-96795000D01*
X137249000Y-96795000D01*
X136995000Y-96795000D01*
X134487000Y-96795000D01*
X126007000Y-96795000D01*
X126007000Y-95053000D01*
X126251442Y-95053000D01*
X126638550Y-95014873D01*
X127135250Y-94864201D01*
X127593011Y-94619523D01*
X127994241Y-94290241D01*
X128323523Y-93889011D01*
X128568201Y-93431250D01*
X128712620Y-92955162D01*
X129042333Y-92955162D01*
X129138975Y-93309038D01*
X129360519Y-93776331D01*
X129668970Y-94191424D01*
X130052475Y-94538365D01*
X130496296Y-94803822D01*
X130983377Y-94977593D01*
X131495000Y-95053000D01*
X132745000Y-95053000D01*
X132745000Y-92545000D01*
X132999000Y-92545000D01*
X132999000Y-95053000D01*
X134249000Y-95053000D01*
X134528142Y-95011858D01*
X134487000Y-95291000D01*
X134487000Y-96541000D01*
X136995000Y-96541000D01*
X136995000Y-92945009D01*
X137249000Y-92945009D01*
X137249000Y-96541000D01*
X139757000Y-96541000D01*
X139757000Y-95291000D01*
X139715858Y-95011858D01*
X139995000Y-95053000D01*
X141245000Y-95053000D01*
X141245000Y-92545000D01*
X137649009Y-92545000D01*
X137566447Y-92862447D01*
X137249000Y-92945009D01*
X136995000Y-92945009D01*
X136677553Y-92862447D01*
X136594991Y-92545000D01*
X132999000Y-92545000D01*
X132745000Y-92545000D01*
X129149009Y-92545000D01*
X129042333Y-92955162D01*
X128712620Y-92955162D01*
X128718873Y-92934550D01*
X128769749Y-92418000D01*
X128718873Y-91901450D01*
X128712621Y-91880838D01*
X129042333Y-91880838D01*
X129149009Y-92291000D01*
X132745000Y-92291000D01*
X132745000Y-89783000D01*
X132999000Y-89783000D01*
X132999000Y-92291000D01*
X136594991Y-92291000D01*
X136677553Y-91973553D01*
X136995000Y-91890991D01*
X136995000Y-88295000D01*
X137249000Y-88295000D01*
X137249000Y-91890991D01*
X137566447Y-91973553D01*
X137649009Y-92291000D01*
X141245000Y-92291000D01*
X141245000Y-89783000D01*
X139995000Y-89783000D01*
X139715858Y-89824142D01*
X139757000Y-89545000D01*
X139757000Y-88295000D01*
X137249000Y-88295000D01*
X136995000Y-88295000D01*
X134487000Y-88295000D01*
X134487000Y-89545000D01*
X134528142Y-89824142D01*
X134249000Y-89783000D01*
X132999000Y-89783000D01*
X132745000Y-89783000D01*
X131495000Y-89783000D01*
X130983377Y-89858407D01*
X130496296Y-90032178D01*
X130052475Y-90297635D01*
X129668970Y-90644576D01*
X129360519Y-91059669D01*
X129138975Y-91526962D01*
X129042333Y-91880838D01*
X128712621Y-91880838D01*
X128568201Y-91404750D01*
X128323523Y-90946989D01*
X127994241Y-90545759D01*
X127593011Y-90216477D01*
X127135250Y-89971799D01*
X126638550Y-89821127D01*
X126251442Y-89783000D01*
X123492558Y-89783000D01*
X123105450Y-89821127D01*
X122608750Y-89971799D01*
X122150989Y-90216477D01*
X121749759Y-90545759D01*
X121420477Y-90946989D01*
X121175799Y-91404750D01*
X121025127Y-91901450D01*
X120974251Y-92418000D01*
X121025127Y-92934550D01*
X121175799Y-93431250D01*
X121420477Y-93889011D01*
X121749759Y-94290241D01*
X122150989Y-94619523D01*
X122608750Y-94864201D01*
X123105450Y-95014873D01*
X123492558Y-95053000D01*
X123737001Y-95053000D01*
X123737000Y-102464248D01*
X123731509Y-102520000D01*
X123737000Y-102575751D01*
X123753423Y-102742498D01*
X123818324Y-102956446D01*
X123923716Y-103153623D01*
X124065551Y-103326449D01*
X124108865Y-103361996D01*
X132978009Y-112231141D01*
X133013551Y-112274449D01*
X133186377Y-112416284D01*
X133334394Y-112495400D01*
X133383553Y-112521676D01*
X133597501Y-112586577D01*
X133820000Y-112608491D01*
X133875751Y-112603000D01*
X137249000Y-112603000D01*
X137249000Y-120497241D01*
X137219188Y-120595518D01*
X137206928Y-120720000D01*
X137206928Y-128588000D01*
X135332963Y-128588000D01*
X135330000Y-125005750D01*
X135171250Y-124847000D01*
X128822000Y-124847000D01*
X128822000Y-124867000D01*
X128568000Y-124867000D01*
X128568000Y-124847000D01*
X122218750Y-124847000D01*
X122060000Y-125005750D01*
X122057037Y-128588000D01*
X112382000Y-128588000D01*
X112382000Y-120720000D01*
X122056928Y-120720000D01*
X122060000Y-124434250D01*
X122218750Y-124593000D01*
X128568000Y-124593000D01*
X128568000Y-120243750D01*
X128822000Y-120243750D01*
X128822000Y-124593000D01*
X135171250Y-124593000D01*
X135330000Y-124434250D01*
X135333072Y-120720000D01*
X135320812Y-120595518D01*
X135284502Y-120475820D01*
X135225537Y-120365506D01*
X135146185Y-120268815D01*
X135049494Y-120189463D01*
X134939180Y-120130498D01*
X134819482Y-120094188D01*
X134695000Y-120081928D01*
X128980750Y-120085000D01*
X128822000Y-120243750D01*
X128568000Y-120243750D01*
X128409250Y-120085000D01*
X122695000Y-120081928D01*
X122570518Y-120094188D01*
X122450820Y-120130498D01*
X122340506Y-120189463D01*
X122243815Y-120268815D01*
X122164463Y-120365506D01*
X122105498Y-120475820D01*
X122069188Y-120595518D01*
X122056928Y-120720000D01*
X112382000Y-120720000D01*
X112382000Y-111311984D01*
X121635000Y-111311984D01*
X121635000Y-112028016D01*
X121774691Y-112730290D01*
X122048705Y-113391818D01*
X122446511Y-113987177D01*
X122952823Y-114493489D01*
X123548182Y-114891295D01*
X124209710Y-115165309D01*
X124911984Y-115305000D01*
X125628016Y-115305000D01*
X126330290Y-115165309D01*
X126991818Y-114891295D01*
X127587177Y-114493489D01*
X128093489Y-113987177D01*
X128491295Y-113391818D01*
X128765309Y-112730290D01*
X128905000Y-112028016D01*
X128905000Y-111311984D01*
X128765309Y-110609710D01*
X128491295Y-109948182D01*
X128093489Y-109352823D01*
X127587177Y-108846511D01*
X126991818Y-108448705D01*
X126330290Y-108174691D01*
X125628016Y-108035000D01*
X124911984Y-108035000D01*
X124209710Y-108174691D01*
X123548182Y-108448705D01*
X122952823Y-108846511D01*
X122446511Y-109352823D01*
X122048705Y-109948182D01*
X121774691Y-110609710D01*
X121635000Y-111311984D01*
X112382000Y-111311984D01*
X112382000Y-83011984D01*
X121635000Y-83011984D01*
X121635000Y-83728016D01*
X121774691Y-84430290D01*
X122048705Y-85091818D01*
X122446511Y-85687177D01*
X122952823Y-86193489D01*
X123548182Y-86591295D01*
X124209710Y-86865309D01*
X124911984Y-87005000D01*
X125628016Y-87005000D01*
X126330290Y-86865309D01*
X126509687Y-86791000D01*
X134487000Y-86791000D01*
X134487000Y-88041000D01*
X136995000Y-88041000D01*
X136995000Y-84445009D01*
X137249000Y-84445009D01*
X137249000Y-88041000D01*
X139757000Y-88041000D01*
X139757000Y-86791000D01*
X139681593Y-86279377D01*
X139507822Y-85792296D01*
X139242365Y-85348475D01*
X138895424Y-84964970D01*
X138480331Y-84656519D01*
X138013038Y-84434975D01*
X137659162Y-84338333D01*
X137249000Y-84445009D01*
X136995000Y-84445009D01*
X136584838Y-84338333D01*
X136230962Y-84434975D01*
X135763669Y-84656519D01*
X135348576Y-84964970D01*
X135001635Y-85348475D01*
X134736178Y-85792296D01*
X134562407Y-86279377D01*
X134487000Y-86791000D01*
X126509687Y-86791000D01*
X126991818Y-86591295D01*
X127587177Y-86193489D01*
X128093489Y-85687177D01*
X128491295Y-85091818D01*
X128765309Y-84430290D01*
X128905000Y-83728016D01*
X128905000Y-83011984D01*
X128765309Y-82309710D01*
X128491295Y-81648182D01*
X128093489Y-81052823D01*
X127587177Y-80546511D01*
X126991818Y-80148705D01*
X126330290Y-79874691D01*
X125628016Y-79735000D01*
X124911984Y-79735000D01*
X124209710Y-79874691D01*
X123548182Y-80148705D01*
X122952823Y-80546511D01*
X122446511Y-81052823D01*
X122048705Y-81648182D01*
X121774691Y-82309710D01*
X121635000Y-83011984D01*
X112382000Y-83011984D01*
X112382000Y-67678000D01*
X176086001Y-67678000D01*
X176086001Y-82278869D01*
%TA.AperFunction,Conductor*%
D23*
G36*
X176086001Y-82278869D02*
G01*
X171237996Y-77430865D01*
X171202449Y-77387551D01*
X171029623Y-77245716D01*
X170832447Y-77140324D01*
X170618499Y-77075423D01*
X170451752Y-77059000D01*
X170451751Y-77059000D01*
X170396000Y-77053509D01*
X170340249Y-77059000D01*
X164233289Y-77059000D01*
X163203000Y-76028711D01*
X163203000Y-72672190D01*
X163206072Y-72641000D01*
X163206072Y-70891000D01*
X163190929Y-70737255D01*
X163146084Y-70589418D01*
X163073258Y-70453171D01*
X162975251Y-70333749D01*
X162855829Y-70235742D01*
X162719582Y-70162916D01*
X162571745Y-70118071D01*
X162418000Y-70102928D01*
X162118000Y-70102928D01*
X161964255Y-70118071D01*
X161816418Y-70162916D01*
X161680171Y-70235742D01*
X161633000Y-70274454D01*
X161585829Y-70235742D01*
X161449582Y-70162916D01*
X161301745Y-70118071D01*
X161148000Y-70102928D01*
X160848000Y-70102928D01*
X160694255Y-70118071D01*
X160546418Y-70162916D01*
X160410171Y-70235742D01*
X160363000Y-70274454D01*
X160315829Y-70235742D01*
X160179582Y-70162916D01*
X160031745Y-70118071D01*
X159878000Y-70102928D01*
X159578000Y-70102928D01*
X159424255Y-70118071D01*
X159276418Y-70162916D01*
X159140171Y-70235742D01*
X159093000Y-70274454D01*
X159045829Y-70235742D01*
X158909582Y-70162916D01*
X158761745Y-70118071D01*
X158608000Y-70102928D01*
X158308000Y-70102928D01*
X158154255Y-70118071D01*
X158006418Y-70162916D01*
X157870171Y-70235742D01*
X157823000Y-70274454D01*
X157775829Y-70235742D01*
X157639582Y-70162916D01*
X157491745Y-70118071D01*
X157338000Y-70102928D01*
X157038000Y-70102928D01*
X156884255Y-70118071D01*
X156736418Y-70162916D01*
X156600171Y-70235742D01*
X156553000Y-70274454D01*
X156505829Y-70235742D01*
X156369582Y-70162916D01*
X156221745Y-70118071D01*
X156068000Y-70102928D01*
X155768000Y-70102928D01*
X155614255Y-70118071D01*
X155466418Y-70162916D01*
X155330171Y-70235742D01*
X155283000Y-70274454D01*
X155235829Y-70235742D01*
X155099582Y-70162916D01*
X154951745Y-70118071D01*
X154798000Y-70102928D01*
X154498000Y-70102928D01*
X154344255Y-70118071D01*
X154196418Y-70162916D01*
X154060171Y-70235742D01*
X153940749Y-70333749D01*
X153842742Y-70453171D01*
X153769916Y-70589418D01*
X153725071Y-70737255D01*
X153709928Y-70891000D01*
X153709928Y-72641000D01*
X153725071Y-72794745D01*
X153769916Y-72942582D01*
X153842742Y-73078829D01*
X153940749Y-73198251D01*
X154060171Y-73296258D01*
X154196418Y-73369084D01*
X154344255Y-73413929D01*
X154498000Y-73429072D01*
X154798000Y-73429072D01*
X154951745Y-73413929D01*
X155099582Y-73369084D01*
X155235829Y-73296258D01*
X155283000Y-73257546D01*
X155330171Y-73296258D01*
X155466418Y-73369084D01*
X155614255Y-73413929D01*
X155768000Y-73429072D01*
X156068000Y-73429072D01*
X156221745Y-73413929D01*
X156369582Y-73369084D01*
X156505829Y-73296258D01*
X156553000Y-73257546D01*
X156600171Y-73296258D01*
X156736418Y-73369084D01*
X156884255Y-73413929D01*
X157038000Y-73429072D01*
X157338000Y-73429072D01*
X157491745Y-73413929D01*
X157639582Y-73369084D01*
X157775829Y-73296258D01*
X157823000Y-73257546D01*
X157870171Y-73296258D01*
X158006418Y-73369084D01*
X158154255Y-73413929D01*
X158308000Y-73429072D01*
X158608000Y-73429072D01*
X158761745Y-73413929D01*
X158909582Y-73369084D01*
X159045829Y-73296258D01*
X159093000Y-73257546D01*
X159140171Y-73296258D01*
X159276418Y-73369084D01*
X159424255Y-73413929D01*
X159578000Y-73429072D01*
X159878000Y-73429072D01*
X160031745Y-73413929D01*
X160179582Y-73369084D01*
X160315829Y-73296258D01*
X160363000Y-73257546D01*
X160410171Y-73296258D01*
X160546418Y-73369084D01*
X160694255Y-73413929D01*
X160848000Y-73429072D01*
X161148000Y-73429072D01*
X161301745Y-73413929D01*
X161333000Y-73404448D01*
X161333001Y-76370058D01*
X161328476Y-76416000D01*
X161346529Y-76599291D01*
X161399994Y-76775540D01*
X161486815Y-76937972D01*
X161603657Y-77080344D01*
X161639336Y-77109625D01*
X162740417Y-78210706D01*
X162669994Y-78342460D01*
X162616529Y-78518709D01*
X162598476Y-78702000D01*
X162603001Y-78747942D01*
X162603001Y-79427552D01*
X162571745Y-79418071D01*
X162418000Y-79402928D01*
X162255161Y-79402928D01*
X162206789Y-79343987D01*
X162182991Y-79314989D01*
X162153994Y-79291192D01*
X161561803Y-78699002D01*
X161538001Y-78669999D01*
X161422276Y-78575026D01*
X161290247Y-78504454D01*
X161146986Y-78460997D01*
X161035333Y-78450000D01*
X161035322Y-78450000D01*
X160998000Y-78446324D01*
X160960678Y-78450000D01*
X160273322Y-78450000D01*
X160235999Y-78446324D01*
X160198676Y-78450000D01*
X160198667Y-78450000D01*
X160087014Y-78460997D01*
X159943753Y-78504454D01*
X159811724Y-78575026D01*
X159695999Y-78669999D01*
X159672200Y-78698998D01*
X159216998Y-79154201D01*
X159188000Y-79177999D01*
X159164202Y-79206997D01*
X159164201Y-79206998D01*
X159093026Y-79293724D01*
X159022454Y-79425754D01*
X158999251Y-79502247D01*
X158997119Y-79509275D01*
X158882275Y-79415026D01*
X158750246Y-79344454D01*
X158606985Y-79300997D01*
X158458000Y-79286323D01*
X158309014Y-79300997D01*
X158165753Y-79344454D01*
X158033724Y-79415026D01*
X157917999Y-79509999D01*
X157917738Y-79510317D01*
X157870171Y-79535742D01*
X157823000Y-79574454D01*
X157775829Y-79535742D01*
X157639582Y-79462916D01*
X157491745Y-79418071D01*
X157338000Y-79402928D01*
X157038000Y-79402928D01*
X156884255Y-79418071D01*
X156736418Y-79462916D01*
X156600171Y-79535742D01*
X156553000Y-79574454D01*
X156505829Y-79535742D01*
X156369582Y-79462916D01*
X156221745Y-79418071D01*
X156068000Y-79402928D01*
X155768000Y-79402928D01*
X155614255Y-79418071D01*
X155466418Y-79462916D01*
X155332064Y-79534730D01*
X155302494Y-79510463D01*
X155192180Y-79451498D01*
X155072482Y-79415188D01*
X154948000Y-79402928D01*
X154933750Y-79406000D01*
X154775000Y-79564750D01*
X154775000Y-80939000D01*
X154795000Y-80939000D01*
X154795000Y-81193000D01*
X154775000Y-81193000D01*
X154775000Y-82567250D01*
X154933750Y-82726000D01*
X154948000Y-82729072D01*
X155072482Y-82716812D01*
X155192180Y-82680502D01*
X155284108Y-82631365D01*
X155320285Y-86429928D01*
X154984000Y-86429928D01*
X154859518Y-86442188D01*
X154739820Y-86478498D01*
X154629506Y-86537463D01*
X154532815Y-86616815D01*
X154455520Y-86711000D01*
X153848132Y-86711000D01*
X149228132Y-82091000D01*
X153709928Y-82091000D01*
X153722188Y-82215482D01*
X153758498Y-82335180D01*
X153817463Y-82445494D01*
X153896815Y-82542185D01*
X153993506Y-82621537D01*
X154103820Y-82680502D01*
X154223518Y-82716812D01*
X154348000Y-82729072D01*
X154362250Y-82726000D01*
X154521000Y-82567250D01*
X154521000Y-81193000D01*
X153871750Y-81193000D01*
X153713000Y-81351750D01*
X153709928Y-82091000D01*
X149228132Y-82091000D01*
X147178132Y-80041000D01*
X153709928Y-80041000D01*
X153713000Y-80780250D01*
X153871750Y-80939000D01*
X154521000Y-80939000D01*
X154521000Y-79564750D01*
X154362250Y-79406000D01*
X154348000Y-79402928D01*
X154223518Y-79415188D01*
X154103820Y-79451498D01*
X153993506Y-79510463D01*
X153896815Y-79589815D01*
X153817463Y-79686506D01*
X153758498Y-79796820D01*
X153722188Y-79916518D01*
X153709928Y-80041000D01*
X147178132Y-80041000D01*
X146599996Y-79462865D01*
X146564449Y-79419551D01*
X146391623Y-79277716D01*
X146194447Y-79172324D01*
X145980499Y-79107423D01*
X145813752Y-79091000D01*
X145813751Y-79091000D01*
X145758000Y-79085509D01*
X145702249Y-79091000D01*
X139757000Y-79091000D01*
X139757000Y-78788558D01*
X139718873Y-78401450D01*
X139568201Y-77904750D01*
X139323523Y-77446989D01*
X138994241Y-77045759D01*
X138593010Y-76716477D01*
X138135249Y-76471799D01*
X137638549Y-76321127D01*
X137122000Y-76270251D01*
X136605450Y-76321127D01*
X136108750Y-76471799D01*
X135650989Y-76716477D01*
X135249759Y-77045759D01*
X134920477Y-77446990D01*
X134675799Y-77904751D01*
X134525127Y-78401451D01*
X134487000Y-78788559D01*
X134487000Y-81547442D01*
X134525127Y-81934550D01*
X134675799Y-82431250D01*
X134920478Y-82889011D01*
X135249760Y-83290241D01*
X135650990Y-83619523D01*
X136108751Y-83864201D01*
X136605451Y-84014873D01*
X137122000Y-84065749D01*
X137638550Y-84014873D01*
X138135250Y-83864201D01*
X138593011Y-83619523D01*
X138994241Y-83290241D01*
X139323523Y-82889011D01*
X139568201Y-82431250D01*
X139718873Y-81934550D01*
X139757000Y-81547442D01*
X139757000Y-81361000D01*
X145287869Y-81361000D01*
X151907868Y-87981000D01*
X147591752Y-87981000D01*
X147536000Y-87975509D01*
X147480248Y-87981000D01*
X147321857Y-87996600D01*
X147313501Y-87997423D01*
X147099553Y-88062324D01*
X146902377Y-88167716D01*
X146772856Y-88274011D01*
X146772855Y-88274012D01*
X146729551Y-88309551D01*
X146694013Y-88352854D01*
X144558874Y-90487994D01*
X144515561Y-90523541D01*
X144483893Y-90562128D01*
X144191525Y-90297635D01*
X143747704Y-90032178D01*
X143260623Y-89858407D01*
X142749000Y-89783000D01*
X141499000Y-89783000D01*
X141499000Y-92291000D01*
X141519000Y-92291000D01*
X141519000Y-92545000D01*
X141499000Y-92545000D01*
X141499000Y-95053000D01*
X142749000Y-95053000D01*
X143260623Y-94977593D01*
X143747704Y-94803822D01*
X144187011Y-94541065D01*
X144187011Y-95001855D01*
X142962865Y-96226002D01*
X142919551Y-96261549D01*
X142777716Y-96434375D01*
X142694232Y-96590565D01*
X142672324Y-96631552D01*
X142607423Y-96845500D01*
X142585509Y-97067998D01*
X142591000Y-97123750D01*
X142591001Y-101091867D01*
X140149869Y-103533000D01*
X139757000Y-103533000D01*
X139757000Y-103288558D01*
X139718873Y-102901450D01*
X139568201Y-102404750D01*
X139323523Y-101946989D01*
X138994241Y-101545759D01*
X138593010Y-101216477D01*
X138135249Y-100971799D01*
X137638549Y-100821127D01*
X137122000Y-100770251D01*
X136605450Y-100821127D01*
X136108750Y-100971799D01*
X135650989Y-101216477D01*
X135249759Y-101545759D01*
X134920477Y-101946990D01*
X134675799Y-102404751D01*
X134525127Y-102901451D01*
X134487000Y-103288559D01*
X134487000Y-106047442D01*
X134525127Y-106434550D01*
X134675799Y-106931250D01*
X134920478Y-107389011D01*
X135249760Y-107790241D01*
X135650990Y-108119523D01*
X136108751Y-108364201D01*
X136605451Y-108514873D01*
X137122000Y-108565749D01*
X137638550Y-108514873D01*
X138135250Y-108364201D01*
X138593011Y-108119523D01*
X138994241Y-107790241D01*
X139323523Y-107389011D01*
X139568201Y-106931250D01*
X139718873Y-106434550D01*
X139757000Y-106047442D01*
X139757000Y-105803000D01*
X140564249Y-105803000D01*
X140620000Y-105808491D01*
X140675751Y-105803000D01*
X140675752Y-105803000D01*
X140842499Y-105786577D01*
X141056447Y-105721676D01*
X141253623Y-105616284D01*
X141426449Y-105474449D01*
X141461996Y-105431135D01*
X144489141Y-102403991D01*
X144532449Y-102368449D01*
X144674284Y-102195623D01*
X144779676Y-101998447D01*
X144844577Y-101784499D01*
X144861000Y-101617752D01*
X144861000Y-101617743D01*
X144866490Y-101562001D01*
X144861000Y-101506259D01*
X144861000Y-98589748D01*
X144934893Y-98768141D01*
X145223262Y-99199715D01*
X145590285Y-99566738D01*
X146021859Y-99855107D01*
X146501399Y-100053739D01*
X147010475Y-100155000D01*
X147529525Y-100155000D01*
X148038601Y-100053739D01*
X148518141Y-99855107D01*
X148949715Y-99566738D01*
X149316738Y-99199715D01*
X149605107Y-98768141D01*
X149803739Y-98288601D01*
X149840194Y-98105326D01*
X152916013Y-101181146D01*
X152951551Y-101224449D01*
X152994854Y-101259987D01*
X152994856Y-101259989D01*
X153124377Y-101366284D01*
X153321553Y-101471676D01*
X153535501Y-101536577D01*
X153758000Y-101558491D01*
X153813752Y-101553000D01*
X154345928Y-101553000D01*
X154345928Y-102368000D01*
X154358188Y-102492482D01*
X154394498Y-102612180D01*
X154453463Y-102722494D01*
X154532815Y-102819185D01*
X154629506Y-102898537D01*
X154739820Y-102957502D01*
X154859518Y-102993812D01*
X154984000Y-103006072D01*
X155429428Y-103006072D01*
X155429428Y-105479928D01*
X154984000Y-105479928D01*
X154859518Y-105492188D01*
X154739820Y-105528498D01*
X154629506Y-105587463D01*
X154574019Y-105633000D01*
X147973752Y-105633000D01*
X147918000Y-105627509D01*
X147862248Y-105633000D01*
X147695501Y-105649423D01*
X147481553Y-105714324D01*
X147284377Y-105819716D01*
X147111551Y-105961551D01*
X147076009Y-106004859D01*
X142747869Y-110333000D01*
X134290132Y-110333000D01*
X126007000Y-102049869D01*
X126007000Y-96795000D01*
X134487000Y-96795000D01*
X134487000Y-98045000D01*
X134562407Y-98556623D01*
X134736178Y-99043704D01*
X135001635Y-99487525D01*
X135348576Y-99871030D01*
X135763669Y-100179481D01*
X136230962Y-100401025D01*
X136584838Y-100497667D01*
X136995000Y-100390991D01*
X136995000Y-96795000D01*
X137249000Y-96795000D01*
X137249000Y-100390991D01*
X137659162Y-100497667D01*
X138013038Y-100401025D01*
X138480331Y-100179481D01*
X138895424Y-99871030D01*
X139242365Y-99487525D01*
X139507822Y-99043704D01*
X139681593Y-98556623D01*
X139757000Y-98045000D01*
X139757000Y-96795000D01*
X137249000Y-96795000D01*
X136995000Y-96795000D01*
X134487000Y-96795000D01*
X126007000Y-96795000D01*
X126007000Y-95053000D01*
X126251442Y-95053000D01*
X126638550Y-95014873D01*
X127135250Y-94864201D01*
X127593011Y-94619523D01*
X127994241Y-94290241D01*
X128323523Y-93889011D01*
X128568201Y-93431250D01*
X128712620Y-92955162D01*
X129042333Y-92955162D01*
X129138975Y-93309038D01*
X129360519Y-93776331D01*
X129668970Y-94191424D01*
X130052475Y-94538365D01*
X130496296Y-94803822D01*
X130983377Y-94977593D01*
X131495000Y-95053000D01*
X132745000Y-95053000D01*
X132745000Y-92545000D01*
X132999000Y-92545000D01*
X132999000Y-95053000D01*
X134249000Y-95053000D01*
X134528142Y-95011858D01*
X134487000Y-95291000D01*
X134487000Y-96541000D01*
X136995000Y-96541000D01*
X136995000Y-92945009D01*
X137249000Y-92945009D01*
X137249000Y-96541000D01*
X139757000Y-96541000D01*
X139757000Y-95291000D01*
X139715858Y-95011858D01*
X139995000Y-95053000D01*
X141245000Y-95053000D01*
X141245000Y-92545000D01*
X137649009Y-92545000D01*
X137566447Y-92862447D01*
X137249000Y-92945009D01*
X136995000Y-92945009D01*
X136677553Y-92862447D01*
X136594991Y-92545000D01*
X132999000Y-92545000D01*
X132745000Y-92545000D01*
X129149009Y-92545000D01*
X129042333Y-92955162D01*
X128712620Y-92955162D01*
X128718873Y-92934550D01*
X128769749Y-92418000D01*
X128718873Y-91901450D01*
X128712621Y-91880838D01*
X129042333Y-91880838D01*
X129149009Y-92291000D01*
X132745000Y-92291000D01*
X132745000Y-89783000D01*
X132999000Y-89783000D01*
X132999000Y-92291000D01*
X136594991Y-92291000D01*
X136677553Y-91973553D01*
X136995000Y-91890991D01*
X136995000Y-88295000D01*
X137249000Y-88295000D01*
X137249000Y-91890991D01*
X137566447Y-91973553D01*
X137649009Y-92291000D01*
X141245000Y-92291000D01*
X141245000Y-89783000D01*
X139995000Y-89783000D01*
X139715858Y-89824142D01*
X139757000Y-89545000D01*
X139757000Y-88295000D01*
X137249000Y-88295000D01*
X136995000Y-88295000D01*
X134487000Y-88295000D01*
X134487000Y-89545000D01*
X134528142Y-89824142D01*
X134249000Y-89783000D01*
X132999000Y-89783000D01*
X132745000Y-89783000D01*
X131495000Y-89783000D01*
X130983377Y-89858407D01*
X130496296Y-90032178D01*
X130052475Y-90297635D01*
X129668970Y-90644576D01*
X129360519Y-91059669D01*
X129138975Y-91526962D01*
X129042333Y-91880838D01*
X128712621Y-91880838D01*
X128568201Y-91404750D01*
X128323523Y-90946989D01*
X127994241Y-90545759D01*
X127593011Y-90216477D01*
X127135250Y-89971799D01*
X126638550Y-89821127D01*
X126251442Y-89783000D01*
X123492558Y-89783000D01*
X123105450Y-89821127D01*
X122608750Y-89971799D01*
X122150989Y-90216477D01*
X121749759Y-90545759D01*
X121420477Y-90946989D01*
X121175799Y-91404750D01*
X121025127Y-91901450D01*
X120974251Y-92418000D01*
X121025127Y-92934550D01*
X121175799Y-93431250D01*
X121420477Y-93889011D01*
X121749759Y-94290241D01*
X122150989Y-94619523D01*
X122608750Y-94864201D01*
X123105450Y-95014873D01*
X123492558Y-95053000D01*
X123737001Y-95053000D01*
X123737000Y-102464248D01*
X123731509Y-102520000D01*
X123737000Y-102575751D01*
X123753423Y-102742498D01*
X123818324Y-102956446D01*
X123923716Y-103153623D01*
X124065551Y-103326449D01*
X124108865Y-103361996D01*
X132978009Y-112231141D01*
X133013551Y-112274449D01*
X133186377Y-112416284D01*
X133334394Y-112495400D01*
X133383553Y-112521676D01*
X133597501Y-112586577D01*
X133820000Y-112608491D01*
X133875751Y-112603000D01*
X137249000Y-112603000D01*
X137249000Y-120497241D01*
X137219188Y-120595518D01*
X137206928Y-120720000D01*
X137206928Y-128588000D01*
X135332963Y-128588000D01*
X135330000Y-125005750D01*
X135171250Y-124847000D01*
X128822000Y-124847000D01*
X128822000Y-124867000D01*
X128568000Y-124867000D01*
X128568000Y-124847000D01*
X122218750Y-124847000D01*
X122060000Y-125005750D01*
X122057037Y-128588000D01*
X112382000Y-128588000D01*
X112382000Y-120720000D01*
X122056928Y-120720000D01*
X122060000Y-124434250D01*
X122218750Y-124593000D01*
X128568000Y-124593000D01*
X128568000Y-120243750D01*
X128822000Y-120243750D01*
X128822000Y-124593000D01*
X135171250Y-124593000D01*
X135330000Y-124434250D01*
X135333072Y-120720000D01*
X135320812Y-120595518D01*
X135284502Y-120475820D01*
X135225537Y-120365506D01*
X135146185Y-120268815D01*
X135049494Y-120189463D01*
X134939180Y-120130498D01*
X134819482Y-120094188D01*
X134695000Y-120081928D01*
X128980750Y-120085000D01*
X128822000Y-120243750D01*
X128568000Y-120243750D01*
X128409250Y-120085000D01*
X122695000Y-120081928D01*
X122570518Y-120094188D01*
X122450820Y-120130498D01*
X122340506Y-120189463D01*
X122243815Y-120268815D01*
X122164463Y-120365506D01*
X122105498Y-120475820D01*
X122069188Y-120595518D01*
X122056928Y-120720000D01*
X112382000Y-120720000D01*
X112382000Y-111311984D01*
X121635000Y-111311984D01*
X121635000Y-112028016D01*
X121774691Y-112730290D01*
X122048705Y-113391818D01*
X122446511Y-113987177D01*
X122952823Y-114493489D01*
X123548182Y-114891295D01*
X124209710Y-115165309D01*
X124911984Y-115305000D01*
X125628016Y-115305000D01*
X126330290Y-115165309D01*
X126991818Y-114891295D01*
X127587177Y-114493489D01*
X128093489Y-113987177D01*
X128491295Y-113391818D01*
X128765309Y-112730290D01*
X128905000Y-112028016D01*
X128905000Y-111311984D01*
X128765309Y-110609710D01*
X128491295Y-109948182D01*
X128093489Y-109352823D01*
X127587177Y-108846511D01*
X126991818Y-108448705D01*
X126330290Y-108174691D01*
X125628016Y-108035000D01*
X124911984Y-108035000D01*
X124209710Y-108174691D01*
X123548182Y-108448705D01*
X122952823Y-108846511D01*
X122446511Y-109352823D01*
X122048705Y-109948182D01*
X121774691Y-110609710D01*
X121635000Y-111311984D01*
X112382000Y-111311984D01*
X112382000Y-83011984D01*
X121635000Y-83011984D01*
X121635000Y-83728016D01*
X121774691Y-84430290D01*
X122048705Y-85091818D01*
X122446511Y-85687177D01*
X122952823Y-86193489D01*
X123548182Y-86591295D01*
X124209710Y-86865309D01*
X124911984Y-87005000D01*
X125628016Y-87005000D01*
X126330290Y-86865309D01*
X126509687Y-86791000D01*
X134487000Y-86791000D01*
X134487000Y-88041000D01*
X136995000Y-88041000D01*
X136995000Y-84445009D01*
X137249000Y-84445009D01*
X137249000Y-88041000D01*
X139757000Y-88041000D01*
X139757000Y-86791000D01*
X139681593Y-86279377D01*
X139507822Y-85792296D01*
X139242365Y-85348475D01*
X138895424Y-84964970D01*
X138480331Y-84656519D01*
X138013038Y-84434975D01*
X137659162Y-84338333D01*
X137249000Y-84445009D01*
X136995000Y-84445009D01*
X136584838Y-84338333D01*
X136230962Y-84434975D01*
X135763669Y-84656519D01*
X135348576Y-84964970D01*
X135001635Y-85348475D01*
X134736178Y-85792296D01*
X134562407Y-86279377D01*
X134487000Y-86791000D01*
X126509687Y-86791000D01*
X126991818Y-86591295D01*
X127587177Y-86193489D01*
X128093489Y-85687177D01*
X128491295Y-85091818D01*
X128765309Y-84430290D01*
X128905000Y-83728016D01*
X128905000Y-83011984D01*
X128765309Y-82309710D01*
X128491295Y-81648182D01*
X128093489Y-81052823D01*
X127587177Y-80546511D01*
X126991818Y-80148705D01*
X126330290Y-79874691D01*
X125628016Y-79735000D01*
X124911984Y-79735000D01*
X124209710Y-79874691D01*
X123548182Y-80148705D01*
X122952823Y-80546511D01*
X122446511Y-81052823D01*
X122048705Y-81648182D01*
X121774691Y-82309710D01*
X121635000Y-83011984D01*
X112382000Y-83011984D01*
X112382000Y-67678000D01*
X176086001Y-67678000D01*
X176086001Y-82278869D01*
G37*
%TD.AperFunction*%
D22*
X172325128Y-91280602D02*
X172342192Y-91453856D01*
X172392728Y-91620452D01*
X172474795Y-91773987D01*
X172585238Y-91908562D01*
X172719813Y-92019005D01*
X172873348Y-92101072D01*
X173039944Y-92151608D01*
X173213198Y-92168672D01*
X174513202Y-92168672D01*
X174595000Y-92160616D01*
X174595000Y-92693369D01*
X174148950Y-92695600D01*
X173990200Y-92854350D01*
X173990200Y-93866100D01*
X174010200Y-93866100D01*
X174010200Y-94120100D01*
X173990200Y-94120100D01*
X173990200Y-95131850D01*
X174148950Y-95290600D01*
X174595000Y-95292831D01*
X174595001Y-108771874D01*
X167190533Y-108671814D01*
X167193008Y-108663655D01*
X167210072Y-108490401D01*
X167210072Y-107690399D01*
X167193008Y-107517145D01*
X167142472Y-107350549D01*
X167060405Y-107197013D01*
X166949962Y-107062438D01*
X166815387Y-106951995D01*
X166661851Y-106869928D01*
X166495255Y-106819392D01*
X166322001Y-106802328D01*
X165071999Y-106802328D01*
X164898745Y-106819392D01*
X164732149Y-106869928D01*
X164578613Y-106951995D01*
X164444038Y-107062438D01*
X164333595Y-107197013D01*
X164251528Y-107350549D01*
X164200992Y-107517145D01*
X164183928Y-107690399D01*
X164183928Y-108490401D01*
X164197812Y-108631372D01*
X159522072Y-108568186D01*
X159522072Y-106118000D01*
X159509812Y-105993518D01*
X159488742Y-105924060D01*
X159788802Y-105624000D01*
X164219297Y-105624000D01*
X164251528Y-105730251D01*
X164333595Y-105883787D01*
X164444038Y-106018362D01*
X164578613Y-106128805D01*
X164732149Y-106210872D01*
X164898745Y-106261408D01*
X165071999Y-106278472D01*
X166322001Y-106278472D01*
X166495255Y-106261408D01*
X166661851Y-106210872D01*
X166815387Y-106128805D01*
X166949962Y-106018362D01*
X167060405Y-105883787D01*
X167142472Y-105730251D01*
X167193008Y-105563655D01*
X167210072Y-105390401D01*
X167210072Y-104590399D01*
X167193008Y-104417145D01*
X167142472Y-104250549D01*
X167060405Y-104097013D01*
X166949962Y-103962438D01*
X166815387Y-103851995D01*
X166661851Y-103769928D01*
X166495255Y-103719392D01*
X166457000Y-103715624D01*
X166457000Y-103426201D01*
X167757408Y-102125795D01*
X167786401Y-102102001D01*
X167810195Y-102073008D01*
X167810199Y-102073004D01*
X167871385Y-101998448D01*
X167881374Y-101986276D01*
X167951946Y-101854247D01*
X167995403Y-101710986D01*
X168006400Y-101599333D01*
X168006400Y-101599324D01*
X168010076Y-101562001D01*
X168006400Y-101524678D01*
X168006400Y-101062411D01*
X168081349Y-101102472D01*
X168247945Y-101153008D01*
X168421199Y-101170072D01*
X169221201Y-101170072D01*
X169394455Y-101153008D01*
X169561051Y-101102472D01*
X169714587Y-101020405D01*
X169849162Y-100909962D01*
X169959605Y-100775387D01*
X170041672Y-100621851D01*
X170092208Y-100455255D01*
X170109272Y-100282001D01*
X170109272Y-99031999D01*
X170092208Y-98858745D01*
X170041672Y-98692149D01*
X169959605Y-98538613D01*
X169849162Y-98404038D01*
X169845200Y-98400786D01*
X169845200Y-96240048D01*
X169876455Y-96249529D01*
X170030200Y-96264672D01*
X170330200Y-96264672D01*
X170483945Y-96249529D01*
X170631782Y-96204684D01*
X170766136Y-96132870D01*
X170795706Y-96157137D01*
X170906020Y-96216102D01*
X171025718Y-96252412D01*
X171150200Y-96264672D01*
X171164450Y-96261600D01*
X171323200Y-96102850D01*
X171323200Y-94778600D01*
X171303200Y-94778600D01*
X171303200Y-94524600D01*
X171323200Y-94524600D01*
X171323200Y-93200350D01*
X171577200Y-93200350D01*
X171577200Y-94524600D01*
X171597200Y-94524600D01*
X171597200Y-94778600D01*
X171577200Y-94778600D01*
X171577200Y-96102850D01*
X171735950Y-96261600D01*
X171750200Y-96264672D01*
X171874682Y-96252412D01*
X171994380Y-96216102D01*
X172104694Y-96157137D01*
X172201385Y-96077785D01*
X172280737Y-95981094D01*
X172339702Y-95870780D01*
X172376012Y-95751082D01*
X172388272Y-95626600D01*
X172385200Y-94937350D01*
X172226452Y-94778602D01*
X172337242Y-94778602D01*
X172337388Y-94780082D01*
X172373698Y-94899780D01*
X172432663Y-95010094D01*
X172512015Y-95106785D01*
X172608706Y-95186137D01*
X172719020Y-95245102D01*
X172838718Y-95281412D01*
X172963200Y-95293672D01*
X173577450Y-95290600D01*
X173736200Y-95131850D01*
X173736200Y-94120100D01*
X173716200Y-94120100D01*
X173716200Y-93866100D01*
X173736200Y-93866100D01*
X173736200Y-92854350D01*
X173577450Y-92695600D01*
X172963200Y-92692528D01*
X172838718Y-92704788D01*
X172719020Y-92741098D01*
X172608706Y-92800063D01*
X172512015Y-92879415D01*
X172432663Y-92976106D01*
X172373698Y-93086420D01*
X172337388Y-93206118D01*
X172325128Y-93330600D01*
X172325745Y-93406309D01*
X172280737Y-93322106D01*
X172201385Y-93225415D01*
X172104694Y-93146063D01*
X171994380Y-93087098D01*
X171874682Y-93050788D01*
X171750200Y-93038528D01*
X171735950Y-93041600D01*
X171577200Y-93200350D01*
X171323200Y-93200350D01*
X171164450Y-93041600D01*
X171150200Y-93038528D01*
X171025718Y-93050788D01*
X170940200Y-93076730D01*
X170940200Y-92340922D01*
X170943876Y-92303599D01*
X170940200Y-92266276D01*
X170940200Y-92266267D01*
X170929203Y-92154614D01*
X170885746Y-92011353D01*
X170815174Y-91879324D01*
X170720201Y-91763599D01*
X170691204Y-91739802D01*
X170266074Y-91314672D01*
X170330200Y-91314672D01*
X170483945Y-91299529D01*
X170631782Y-91254684D01*
X170768029Y-91181858D01*
X170815200Y-91143146D01*
X170862371Y-91181858D01*
X170998618Y-91254684D01*
X171146455Y-91299529D01*
X171300200Y-91314672D01*
X171600200Y-91314672D01*
X171753945Y-91299529D01*
X171901782Y-91254684D01*
X172038029Y-91181858D01*
X172157451Y-91083851D01*
X172255458Y-90964429D01*
X172325128Y-90834086D01*
X172325128Y-91280602D01*
%TA.AperFunction,Conductor*%
D23*
G36*
X172325128Y-91280602D02*
G01*
X172342192Y-91453856D01*
X172392728Y-91620452D01*
X172474795Y-91773987D01*
X172585238Y-91908562D01*
X172719813Y-92019005D01*
X172873348Y-92101072D01*
X173039944Y-92151608D01*
X173213198Y-92168672D01*
X174513202Y-92168672D01*
X174595000Y-92160616D01*
X174595000Y-92693369D01*
X174148950Y-92695600D01*
X173990200Y-92854350D01*
X173990200Y-93866100D01*
X174010200Y-93866100D01*
X174010200Y-94120100D01*
X173990200Y-94120100D01*
X173990200Y-95131850D01*
X174148950Y-95290600D01*
X174595000Y-95292831D01*
X174595001Y-108771874D01*
X167190533Y-108671814D01*
X167193008Y-108663655D01*
X167210072Y-108490401D01*
X167210072Y-107690399D01*
X167193008Y-107517145D01*
X167142472Y-107350549D01*
X167060405Y-107197013D01*
X166949962Y-107062438D01*
X166815387Y-106951995D01*
X166661851Y-106869928D01*
X166495255Y-106819392D01*
X166322001Y-106802328D01*
X165071999Y-106802328D01*
X164898745Y-106819392D01*
X164732149Y-106869928D01*
X164578613Y-106951995D01*
X164444038Y-107062438D01*
X164333595Y-107197013D01*
X164251528Y-107350549D01*
X164200992Y-107517145D01*
X164183928Y-107690399D01*
X164183928Y-108490401D01*
X164197812Y-108631372D01*
X159522072Y-108568186D01*
X159522072Y-106118000D01*
X159509812Y-105993518D01*
X159488742Y-105924060D01*
X159788802Y-105624000D01*
X164219297Y-105624000D01*
X164251528Y-105730251D01*
X164333595Y-105883787D01*
X164444038Y-106018362D01*
X164578613Y-106128805D01*
X164732149Y-106210872D01*
X164898745Y-106261408D01*
X165071999Y-106278472D01*
X166322001Y-106278472D01*
X166495255Y-106261408D01*
X166661851Y-106210872D01*
X166815387Y-106128805D01*
X166949962Y-106018362D01*
X167060405Y-105883787D01*
X167142472Y-105730251D01*
X167193008Y-105563655D01*
X167210072Y-105390401D01*
X167210072Y-104590399D01*
X167193008Y-104417145D01*
X167142472Y-104250549D01*
X167060405Y-104097013D01*
X166949962Y-103962438D01*
X166815387Y-103851995D01*
X166661851Y-103769928D01*
X166495255Y-103719392D01*
X166457000Y-103715624D01*
X166457000Y-103426201D01*
X167757408Y-102125795D01*
X167786401Y-102102001D01*
X167810195Y-102073008D01*
X167810199Y-102073004D01*
X167871385Y-101998448D01*
X167881374Y-101986276D01*
X167951946Y-101854247D01*
X167995403Y-101710986D01*
X168006400Y-101599333D01*
X168006400Y-101599324D01*
X168010076Y-101562001D01*
X168006400Y-101524678D01*
X168006400Y-101062411D01*
X168081349Y-101102472D01*
X168247945Y-101153008D01*
X168421199Y-101170072D01*
X169221201Y-101170072D01*
X169394455Y-101153008D01*
X169561051Y-101102472D01*
X169714587Y-101020405D01*
X169849162Y-100909962D01*
X169959605Y-100775387D01*
X170041672Y-100621851D01*
X170092208Y-100455255D01*
X170109272Y-100282001D01*
X170109272Y-99031999D01*
X170092208Y-98858745D01*
X170041672Y-98692149D01*
X169959605Y-98538613D01*
X169849162Y-98404038D01*
X169845200Y-98400786D01*
X169845200Y-96240048D01*
X169876455Y-96249529D01*
X170030200Y-96264672D01*
X170330200Y-96264672D01*
X170483945Y-96249529D01*
X170631782Y-96204684D01*
X170766136Y-96132870D01*
X170795706Y-96157137D01*
X170906020Y-96216102D01*
X171025718Y-96252412D01*
X171150200Y-96264672D01*
X171164450Y-96261600D01*
X171323200Y-96102850D01*
X171323200Y-94778600D01*
X171303200Y-94778600D01*
X171303200Y-94524600D01*
X171323200Y-94524600D01*
X171323200Y-93200350D01*
X171577200Y-93200350D01*
X171577200Y-94524600D01*
X171597200Y-94524600D01*
X171597200Y-94778600D01*
X171577200Y-94778600D01*
X171577200Y-96102850D01*
X171735950Y-96261600D01*
X171750200Y-96264672D01*
X171874682Y-96252412D01*
X171994380Y-96216102D01*
X172104694Y-96157137D01*
X172201385Y-96077785D01*
X172280737Y-95981094D01*
X172339702Y-95870780D01*
X172376012Y-95751082D01*
X172388272Y-95626600D01*
X172385200Y-94937350D01*
X172226452Y-94778602D01*
X172337242Y-94778602D01*
X172337388Y-94780082D01*
X172373698Y-94899780D01*
X172432663Y-95010094D01*
X172512015Y-95106785D01*
X172608706Y-95186137D01*
X172719020Y-95245102D01*
X172838718Y-95281412D01*
X172963200Y-95293672D01*
X173577450Y-95290600D01*
X173736200Y-95131850D01*
X173736200Y-94120100D01*
X173716200Y-94120100D01*
X173716200Y-93866100D01*
X173736200Y-93866100D01*
X173736200Y-92854350D01*
X173577450Y-92695600D01*
X172963200Y-92692528D01*
X172838718Y-92704788D01*
X172719020Y-92741098D01*
X172608706Y-92800063D01*
X172512015Y-92879415D01*
X172432663Y-92976106D01*
X172373698Y-93086420D01*
X172337388Y-93206118D01*
X172325128Y-93330600D01*
X172325745Y-93406309D01*
X172280737Y-93322106D01*
X172201385Y-93225415D01*
X172104694Y-93146063D01*
X171994380Y-93087098D01*
X171874682Y-93050788D01*
X171750200Y-93038528D01*
X171735950Y-93041600D01*
X171577200Y-93200350D01*
X171323200Y-93200350D01*
X171164450Y-93041600D01*
X171150200Y-93038528D01*
X171025718Y-93050788D01*
X170940200Y-93076730D01*
X170940200Y-92340922D01*
X170943876Y-92303599D01*
X170940200Y-92266276D01*
X170940200Y-92266267D01*
X170929203Y-92154614D01*
X170885746Y-92011353D01*
X170815174Y-91879324D01*
X170720201Y-91763599D01*
X170691204Y-91739802D01*
X170266074Y-91314672D01*
X170330200Y-91314672D01*
X170483945Y-91299529D01*
X170631782Y-91254684D01*
X170768029Y-91181858D01*
X170815200Y-91143146D01*
X170862371Y-91181858D01*
X170998618Y-91254684D01*
X171146455Y-91299529D01*
X171300200Y-91314672D01*
X171600200Y-91314672D01*
X171753945Y-91299529D01*
X171901782Y-91254684D01*
X172038029Y-91181858D01*
X172157451Y-91083851D01*
X172255458Y-90964429D01*
X172325128Y-90834086D01*
X172325128Y-91280602D01*
G37*
%TD.AperFunction*%
D22*
X173640396Y-83043528D02*
X172981199Y-83043528D01*
X172807945Y-83060592D01*
X172641349Y-83111128D01*
X172487813Y-83193195D01*
X172353238Y-83303638D01*
X172242795Y-83438213D01*
X172160728Y-83591749D01*
X172110192Y-83758345D01*
X172093128Y-83931599D01*
X172093128Y-83983830D01*
X172053199Y-84016599D01*
X172029401Y-84045598D01*
X171569272Y-84505727D01*
X171569272Y-83931599D01*
X171552208Y-83758345D01*
X171501672Y-83591749D01*
X171419605Y-83438213D01*
X171309162Y-83303638D01*
X171174587Y-83193195D01*
X171021051Y-83111128D01*
X170854455Y-83060592D01*
X170681201Y-83043528D01*
X169881199Y-83043528D01*
X169707945Y-83060592D01*
X169541349Y-83111128D01*
X169387813Y-83193195D01*
X169253238Y-83303638D01*
X169142795Y-83438213D01*
X169060728Y-83591749D01*
X169010192Y-83758345D01*
X168993128Y-83931599D01*
X168993128Y-84031308D01*
X168981400Y-84045598D01*
X168910200Y-84116798D01*
X168839003Y-84045602D01*
X168815201Y-84016599D01*
X168699476Y-83921626D01*
X168594210Y-83865360D01*
X168581208Y-83733344D01*
X168530672Y-83566748D01*
X168448605Y-83413213D01*
X168338162Y-83278638D01*
X168203587Y-83168195D01*
X168050052Y-83086128D01*
X167883456Y-83035592D01*
X167710202Y-83018528D01*
X166885198Y-83018528D01*
X166711944Y-83035592D01*
X166545348Y-83086128D01*
X166391813Y-83168195D01*
X166257238Y-83278638D01*
X166146795Y-83413213D01*
X166064728Y-83566748D01*
X166014192Y-83733344D01*
X165997128Y-83906598D01*
X165997128Y-85206602D01*
X166014192Y-85379856D01*
X166064728Y-85546452D01*
X166146795Y-85699987D01*
X166250704Y-85826600D01*
X166146795Y-85953213D01*
X166064728Y-86106748D01*
X166014192Y-86273344D01*
X165997128Y-86446598D01*
X165997128Y-87746602D01*
X166014192Y-87919856D01*
X166064728Y-88086452D01*
X166146795Y-88239987D01*
X166257238Y-88374562D01*
X166391813Y-88485005D01*
X166545348Y-88567072D01*
X166705201Y-88615562D01*
X166705200Y-88845406D01*
X166702128Y-88876600D01*
X166702128Y-90526600D01*
X166717271Y-90680345D01*
X166762116Y-90828182D01*
X166834942Y-90964429D01*
X166932949Y-91083851D01*
X167052371Y-91181858D01*
X167188618Y-91254684D01*
X167336455Y-91299529D01*
X167490200Y-91314672D01*
X167790200Y-91314672D01*
X167943945Y-91299529D01*
X168091782Y-91254684D01*
X168170332Y-91212698D01*
X168204654Y-91325846D01*
X168275226Y-91457876D01*
X168336423Y-91532444D01*
X168370200Y-91573601D01*
X168399198Y-91597399D01*
X169420200Y-92618402D01*
X169420200Y-93129741D01*
X169361782Y-93098516D01*
X169213945Y-93053671D01*
X169060200Y-93038528D01*
X168760200Y-93038528D01*
X168606455Y-93053671D01*
X168458618Y-93098516D01*
X168322371Y-93171342D01*
X168275200Y-93210054D01*
X168228029Y-93171342D01*
X168091782Y-93098516D01*
X167943945Y-93053671D01*
X167790200Y-93038528D01*
X167490200Y-93038528D01*
X167336455Y-93053671D01*
X167188618Y-93098516D01*
X167052371Y-93171342D01*
X166932949Y-93269349D01*
X166834942Y-93388771D01*
X166762116Y-93525018D01*
X166717271Y-93672855D01*
X166712962Y-93716600D01*
X166158890Y-93716600D01*
X163895190Y-91452901D01*
X163895190Y-88623360D01*
X164045700Y-88472850D01*
X164045700Y-87223600D01*
X164299700Y-87223600D01*
X164299700Y-88472850D01*
X164458450Y-88631600D01*
X164835200Y-88634672D01*
X164959682Y-88622412D01*
X165079380Y-88586102D01*
X165189694Y-88527137D01*
X165286385Y-88447785D01*
X165365737Y-88351094D01*
X165424702Y-88240780D01*
X165461012Y-88121082D01*
X165473272Y-87996600D01*
X165470200Y-87382350D01*
X165311450Y-87223600D01*
X164299700Y-87223600D01*
X164045700Y-87223600D01*
X164025700Y-87223600D01*
X164025700Y-86969600D01*
X164045700Y-86969600D01*
X164045700Y-84683600D01*
X164299700Y-84683600D01*
X164299700Y-86969600D01*
X165311450Y-86969600D01*
X165470200Y-86810850D01*
X165473272Y-86196600D01*
X165461012Y-86072118D01*
X165424702Y-85952420D01*
X165365737Y-85842106D01*
X165353012Y-85826600D01*
X165365737Y-85811094D01*
X165424702Y-85700780D01*
X165461012Y-85581082D01*
X165473272Y-85456600D01*
X165470200Y-84842350D01*
X165311450Y-84683600D01*
X164299700Y-84683600D01*
X164045700Y-84683600D01*
X164025700Y-84683600D01*
X164025700Y-84429600D01*
X164045700Y-84429600D01*
X164045700Y-84409600D01*
X164299700Y-84409600D01*
X164299700Y-84429600D01*
X165311450Y-84429600D01*
X165470200Y-84270850D01*
X165473272Y-83656600D01*
X165461012Y-83532118D01*
X165424702Y-83412420D01*
X165365737Y-83302106D01*
X165286385Y-83205415D01*
X165189694Y-83126063D01*
X165079380Y-83067098D01*
X164959682Y-83030788D01*
X164835200Y-83018528D01*
X164458450Y-83021600D01*
X164299702Y-83180348D01*
X164299702Y-83057713D01*
X164319186Y-83033972D01*
X164406007Y-82871540D01*
X164448861Y-82730270D01*
X164459472Y-82695292D01*
X164477524Y-82512000D01*
X164473000Y-82466065D01*
X164473000Y-79329000D01*
X169925869Y-79329000D01*
X173640396Y-83043528D01*
%TA.AperFunction,Conductor*%
D23*
G36*
X173640396Y-83043528D02*
G01*
X172981199Y-83043528D01*
X172807945Y-83060592D01*
X172641349Y-83111128D01*
X172487813Y-83193195D01*
X172353238Y-83303638D01*
X172242795Y-83438213D01*
X172160728Y-83591749D01*
X172110192Y-83758345D01*
X172093128Y-83931599D01*
X172093128Y-83983830D01*
X172053199Y-84016599D01*
X172029401Y-84045598D01*
X171569272Y-84505727D01*
X171569272Y-83931599D01*
X171552208Y-83758345D01*
X171501672Y-83591749D01*
X171419605Y-83438213D01*
X171309162Y-83303638D01*
X171174587Y-83193195D01*
X171021051Y-83111128D01*
X170854455Y-83060592D01*
X170681201Y-83043528D01*
X169881199Y-83043528D01*
X169707945Y-83060592D01*
X169541349Y-83111128D01*
X169387813Y-83193195D01*
X169253238Y-83303638D01*
X169142795Y-83438213D01*
X169060728Y-83591749D01*
X169010192Y-83758345D01*
X168993128Y-83931599D01*
X168993128Y-84031308D01*
X168981400Y-84045598D01*
X168910200Y-84116798D01*
X168839003Y-84045602D01*
X168815201Y-84016599D01*
X168699476Y-83921626D01*
X168594210Y-83865360D01*
X168581208Y-83733344D01*
X168530672Y-83566748D01*
X168448605Y-83413213D01*
X168338162Y-83278638D01*
X168203587Y-83168195D01*
X168050052Y-83086128D01*
X167883456Y-83035592D01*
X167710202Y-83018528D01*
X166885198Y-83018528D01*
X166711944Y-83035592D01*
X166545348Y-83086128D01*
X166391813Y-83168195D01*
X166257238Y-83278638D01*
X166146795Y-83413213D01*
X166064728Y-83566748D01*
X166014192Y-83733344D01*
X165997128Y-83906598D01*
X165997128Y-85206602D01*
X166014192Y-85379856D01*
X166064728Y-85546452D01*
X166146795Y-85699987D01*
X166250704Y-85826600D01*
X166146795Y-85953213D01*
X166064728Y-86106748D01*
X166014192Y-86273344D01*
X165997128Y-86446598D01*
X165997128Y-87746602D01*
X166014192Y-87919856D01*
X166064728Y-88086452D01*
X166146795Y-88239987D01*
X166257238Y-88374562D01*
X166391813Y-88485005D01*
X166545348Y-88567072D01*
X166705201Y-88615562D01*
X166705200Y-88845406D01*
X166702128Y-88876600D01*
X166702128Y-90526600D01*
X166717271Y-90680345D01*
X166762116Y-90828182D01*
X166834942Y-90964429D01*
X166932949Y-91083851D01*
X167052371Y-91181858D01*
X167188618Y-91254684D01*
X167336455Y-91299529D01*
X167490200Y-91314672D01*
X167790200Y-91314672D01*
X167943945Y-91299529D01*
X168091782Y-91254684D01*
X168170332Y-91212698D01*
X168204654Y-91325846D01*
X168275226Y-91457876D01*
X168336423Y-91532444D01*
X168370200Y-91573601D01*
X168399198Y-91597399D01*
X169420200Y-92618402D01*
X169420200Y-93129741D01*
X169361782Y-93098516D01*
X169213945Y-93053671D01*
X169060200Y-93038528D01*
X168760200Y-93038528D01*
X168606455Y-93053671D01*
X168458618Y-93098516D01*
X168322371Y-93171342D01*
X168275200Y-93210054D01*
X168228029Y-93171342D01*
X168091782Y-93098516D01*
X167943945Y-93053671D01*
X167790200Y-93038528D01*
X167490200Y-93038528D01*
X167336455Y-93053671D01*
X167188618Y-93098516D01*
X167052371Y-93171342D01*
X166932949Y-93269349D01*
X166834942Y-93388771D01*
X166762116Y-93525018D01*
X166717271Y-93672855D01*
X166712962Y-93716600D01*
X166158890Y-93716600D01*
X163895190Y-91452901D01*
X163895190Y-88623360D01*
X164045700Y-88472850D01*
X164045700Y-87223600D01*
X164299700Y-87223600D01*
X164299700Y-88472850D01*
X164458450Y-88631600D01*
X164835200Y-88634672D01*
X164959682Y-88622412D01*
X165079380Y-88586102D01*
X165189694Y-88527137D01*
X165286385Y-88447785D01*
X165365737Y-88351094D01*
X165424702Y-88240780D01*
X165461012Y-88121082D01*
X165473272Y-87996600D01*
X165470200Y-87382350D01*
X165311450Y-87223600D01*
X164299700Y-87223600D01*
X164045700Y-87223600D01*
X164025700Y-87223600D01*
X164025700Y-86969600D01*
X164045700Y-86969600D01*
X164045700Y-84683600D01*
X164299700Y-84683600D01*
X164299700Y-86969600D01*
X165311450Y-86969600D01*
X165470200Y-86810850D01*
X165473272Y-86196600D01*
X165461012Y-86072118D01*
X165424702Y-85952420D01*
X165365737Y-85842106D01*
X165353012Y-85826600D01*
X165365737Y-85811094D01*
X165424702Y-85700780D01*
X165461012Y-85581082D01*
X165473272Y-85456600D01*
X165470200Y-84842350D01*
X165311450Y-84683600D01*
X164299700Y-84683600D01*
X164045700Y-84683600D01*
X164025700Y-84683600D01*
X164025700Y-84429600D01*
X164045700Y-84429600D01*
X164045700Y-84409600D01*
X164299700Y-84409600D01*
X164299700Y-84429600D01*
X165311450Y-84429600D01*
X165470200Y-84270850D01*
X165473272Y-83656600D01*
X165461012Y-83532118D01*
X165424702Y-83412420D01*
X165365737Y-83302106D01*
X165286385Y-83205415D01*
X165189694Y-83126063D01*
X165079380Y-83067098D01*
X164959682Y-83030788D01*
X164835200Y-83018528D01*
X164458450Y-83021600D01*
X164299702Y-83180348D01*
X164299702Y-83057713D01*
X164319186Y-83033972D01*
X164406007Y-82871540D01*
X164448861Y-82730270D01*
X164459472Y-82695292D01*
X164477524Y-82512000D01*
X164473000Y-82466065D01*
X164473000Y-79329000D01*
X169925869Y-79329000D01*
X173640396Y-83043528D01*
G37*
%TD.AperFunction*%
%TD*%
D22*
%TO.N,VCC*%
X156736418Y-82669084D02*
X156884255Y-82713929D01*
X157038000Y-82729072D01*
X157338000Y-82729072D01*
X157491745Y-82713929D01*
X157639582Y-82669084D01*
X157695865Y-82639000D01*
X157698000Y-82639000D01*
X157698001Y-86500851D01*
X157629506Y-86537463D01*
X157532815Y-86616815D01*
X157453463Y-86713506D01*
X157394498Y-86823820D01*
X157358188Y-86943518D01*
X157345928Y-87068000D01*
X157345928Y-89668000D01*
X157358188Y-89792482D01*
X157394498Y-89912180D01*
X157453463Y-90022494D01*
X157532815Y-90119185D01*
X157629506Y-90198537D01*
X157739820Y-90257502D01*
X157823000Y-90282734D01*
X157823000Y-91734512D01*
X157799026Y-91763724D01*
X157728454Y-91895754D01*
X157707207Y-91965799D01*
X157684998Y-92039014D01*
X157674001Y-92150667D01*
X157670324Y-92188000D01*
X157674001Y-92225332D01*
X157674001Y-92863680D01*
X157629506Y-92887463D01*
X157532815Y-92966815D01*
X157453463Y-93063506D01*
X157394498Y-93173820D01*
X157358188Y-93293518D01*
X157345928Y-93418000D01*
X157345928Y-96018000D01*
X157358188Y-96142482D01*
X157394498Y-96262180D01*
X157453463Y-96372494D01*
X157532815Y-96469185D01*
X157629506Y-96548537D01*
X157739820Y-96607502D01*
X157823000Y-96632734D01*
X157823000Y-96819773D01*
X157785196Y-96890498D01*
X157752454Y-96951754D01*
X157708997Y-97095015D01*
X157698000Y-97206668D01*
X157698000Y-97206678D01*
X157694324Y-97244000D01*
X157698000Y-97281323D01*
X157698001Y-99200851D01*
X157629506Y-99237463D01*
X157532815Y-99316815D01*
X157453463Y-99413506D01*
X157394498Y-99523820D01*
X157358188Y-99643518D01*
X157345928Y-99768000D01*
X157345928Y-102368000D01*
X157358188Y-102492482D01*
X157394498Y-102612180D01*
X157453463Y-102722494D01*
X157532815Y-102819185D01*
X157629506Y-102898537D01*
X157739820Y-102957502D01*
X157823000Y-102982734D01*
X157823000Y-105450512D01*
X157799026Y-105479724D01*
X157779368Y-105516501D01*
X157739820Y-105528498D01*
X157629506Y-105587463D01*
X157532815Y-105666815D01*
X157453463Y-105763506D01*
X157394498Y-105873820D01*
X157358188Y-105993518D01*
X157345928Y-106118000D01*
X157345928Y-108718000D01*
X157358188Y-108842482D01*
X157394498Y-108962180D01*
X157453463Y-109072494D01*
X157532815Y-109169185D01*
X157629506Y-109248537D01*
X157739820Y-109307502D01*
X157859518Y-109343812D01*
X157984000Y-109356072D01*
X158884000Y-109356072D01*
X159008482Y-109343812D01*
X159073170Y-109324189D01*
X159520001Y-109330227D01*
X159520000Y-110134512D01*
X159511613Y-110138995D01*
X159377038Y-110249438D01*
X159266595Y-110384013D01*
X159184528Y-110537548D01*
X159133992Y-110704144D01*
X159116928Y-110877398D01*
X159116928Y-111702402D01*
X159133992Y-111875656D01*
X159184528Y-112042252D01*
X159266595Y-112195787D01*
X159377038Y-112330362D01*
X159511613Y-112440805D01*
X159665148Y-112522872D01*
X159831744Y-112573408D01*
X160004998Y-112590472D01*
X160515341Y-112590472D01*
X161680009Y-113755140D01*
X161715551Y-113798449D01*
X161888377Y-113940284D01*
X162085553Y-114045676D01*
X162299501Y-114110577D01*
X162466248Y-114127000D01*
X162466257Y-114127000D01*
X162521999Y-114132490D01*
X162577741Y-114127000D01*
X163339752Y-114127000D01*
X163506499Y-114110577D01*
X163720447Y-114045676D01*
X163917623Y-113940284D01*
X164085945Y-113802146D01*
X164508107Y-114224308D01*
X164488000Y-114222328D01*
X164188000Y-114222328D01*
X164034255Y-114237471D01*
X163886418Y-114282316D01*
X163750171Y-114355142D01*
X163630749Y-114453149D01*
X163532742Y-114572571D01*
X163459916Y-114708818D01*
X163415071Y-114856655D01*
X163399928Y-115010400D01*
X163399928Y-116660400D01*
X163415071Y-116814145D01*
X163459916Y-116961982D01*
X163532742Y-117098229D01*
X163578000Y-117153377D01*
X163578001Y-117224402D01*
X163497149Y-117248928D01*
X163343613Y-117330995D01*
X163209038Y-117441438D01*
X163098595Y-117576013D01*
X163016528Y-117729549D01*
X162965992Y-117896145D01*
X162948928Y-118069399D01*
X162948928Y-118121630D01*
X162941083Y-118128068D01*
X162908999Y-118154399D01*
X162885201Y-118183397D01*
X161922002Y-119146596D01*
X161892999Y-119170399D01*
X161857217Y-119214000D01*
X161798026Y-119286124D01*
X161727455Y-119418153D01*
X161727454Y-119418154D01*
X161683997Y-119561415D01*
X161673000Y-119673068D01*
X161673000Y-119673078D01*
X161669324Y-119710400D01*
X161671707Y-119734595D01*
X161537001Y-119721328D01*
X160736999Y-119721328D01*
X160563745Y-119738392D01*
X160397149Y-119788928D01*
X160243613Y-119870995D01*
X160109038Y-119981438D01*
X159998595Y-120116013D01*
X159916528Y-120269549D01*
X159865992Y-120436145D01*
X159848928Y-120609399D01*
X159848928Y-121859401D01*
X159865992Y-122032655D01*
X159916528Y-122199251D01*
X159998595Y-122352787D01*
X160109038Y-122487362D01*
X160243613Y-122597805D01*
X160397149Y-122679872D01*
X160563745Y-122730408D01*
X160736999Y-122747472D01*
X161537001Y-122747472D01*
X161710255Y-122730408D01*
X161876851Y-122679872D01*
X162030387Y-122597805D01*
X162164962Y-122487362D01*
X162275405Y-122352787D01*
X162357472Y-122199251D01*
X162408008Y-122032655D01*
X162425072Y-121859401D01*
X162425072Y-121807170D01*
X162465001Y-121774401D01*
X162488803Y-121745398D01*
X162944002Y-121290200D01*
X162948928Y-121286157D01*
X162948928Y-121859401D01*
X162965992Y-122032655D01*
X163016528Y-122199251D01*
X163098595Y-122352787D01*
X163209038Y-122487362D01*
X163343613Y-122597805D01*
X163497149Y-122679872D01*
X163663745Y-122730408D01*
X163836999Y-122747472D01*
X164637001Y-122747472D01*
X164810255Y-122730408D01*
X164976851Y-122679872D01*
X165130387Y-122597805D01*
X165264962Y-122487362D01*
X165375405Y-122352787D01*
X165457472Y-122199251D01*
X165508008Y-122032655D01*
X165525072Y-121859401D01*
X165525072Y-121759692D01*
X165536803Y-121745398D01*
X165608000Y-121674202D01*
X165665928Y-121732130D01*
X165665928Y-121884402D01*
X165682992Y-122057656D01*
X165733528Y-122224252D01*
X165815595Y-122377787D01*
X165926038Y-122512362D01*
X166060613Y-122622805D01*
X166214148Y-122704872D01*
X166380744Y-122755408D01*
X166553998Y-122772472D01*
X167379002Y-122772472D01*
X167552256Y-122755408D01*
X167718852Y-122704872D01*
X167872387Y-122622805D01*
X168006962Y-122512362D01*
X168117405Y-122377787D01*
X168199472Y-122224252D01*
X168250008Y-122057656D01*
X168267072Y-121884402D01*
X168267072Y-120584398D01*
X168250008Y-120411144D01*
X168199472Y-120244548D01*
X168117405Y-120091013D01*
X168013496Y-119964400D01*
X168117405Y-119837787D01*
X168199472Y-119684252D01*
X168250008Y-119517656D01*
X168267072Y-119344402D01*
X168267072Y-118044398D01*
X168250008Y-117871144D01*
X168199472Y-117704548D01*
X168117405Y-117551013D01*
X168006962Y-117416438D01*
X167872387Y-117305995D01*
X167718852Y-117223928D01*
X167638000Y-117199402D01*
X167638000Y-117153376D01*
X167683258Y-117098229D01*
X167756084Y-116961982D01*
X167800929Y-116814145D01*
X167816072Y-116660400D01*
X167816072Y-115010400D01*
X167800929Y-114856655D01*
X167756084Y-114708818D01*
X167683258Y-114572571D01*
X167585251Y-114453149D01*
X167465829Y-114355142D01*
X167329582Y-114282316D01*
X167181745Y-114237471D01*
X167028000Y-114222328D01*
X166728000Y-114222328D01*
X166574255Y-114237471D01*
X166426418Y-114282316D01*
X166368000Y-114313541D01*
X166368000Y-114286722D01*
X166371676Y-114249399D01*
X166368000Y-114212076D01*
X166368000Y-114212067D01*
X166357835Y-114108858D01*
X166363501Y-114110577D01*
X166530248Y-114127000D01*
X168147869Y-114127000D01*
X168956501Y-114935633D01*
X168956500Y-117531632D01*
X168940595Y-117551013D01*
X168858528Y-117704548D01*
X168807992Y-117871144D01*
X168790928Y-118044398D01*
X168790928Y-119344402D01*
X168807992Y-119517656D01*
X168858528Y-119684252D01*
X168940595Y-119837787D01*
X168956501Y-119857168D01*
X168956500Y-120071632D01*
X168940595Y-120091013D01*
X168858528Y-120244548D01*
X168807992Y-120411144D01*
X168790928Y-120584398D01*
X168790928Y-121884402D01*
X168807992Y-122057656D01*
X168858528Y-122224252D01*
X168940595Y-122377787D01*
X169051038Y-122512362D01*
X169185613Y-122622805D01*
X169339148Y-122704872D01*
X169505744Y-122755408D01*
X169678998Y-122772472D01*
X170504002Y-122772472D01*
X170677256Y-122755408D01*
X170843852Y-122704872D01*
X170997387Y-122622805D01*
X171131962Y-122512362D01*
X171242405Y-122377787D01*
X171324472Y-122224252D01*
X171375008Y-122057656D01*
X171392072Y-121884402D01*
X171392072Y-120584398D01*
X171375008Y-120411144D01*
X171324472Y-120244548D01*
X171242405Y-120091013D01*
X171226500Y-120071633D01*
X171226500Y-119857167D01*
X171242405Y-119837787D01*
X171324472Y-119684252D01*
X171375008Y-119517656D01*
X171392072Y-119344402D01*
X171392072Y-118044398D01*
X171375008Y-117871144D01*
X171324472Y-117704548D01*
X171242405Y-117551013D01*
X171226500Y-117531633D01*
X171226500Y-114521252D01*
X171231991Y-114465500D01*
X171210077Y-114243001D01*
X171145176Y-114029053D01*
X171039784Y-113831877D01*
X170933489Y-113702356D01*
X170933487Y-113702354D01*
X170897949Y-113659051D01*
X170854646Y-113623513D01*
X169459995Y-112228864D01*
X169424449Y-112185551D01*
X169251623Y-112043716D01*
X169054447Y-111938324D01*
X168840499Y-111873423D01*
X168673752Y-111857000D01*
X168673751Y-111857000D01*
X168618000Y-111851509D01*
X168562249Y-111857000D01*
X166531633Y-111857000D01*
X166546072Y-111710400D01*
X166546072Y-110060400D01*
X166530929Y-109906655D01*
X166486084Y-109758818D01*
X166413258Y-109622571D01*
X166368000Y-109567424D01*
X166368000Y-109422768D01*
X176086000Y-109554092D01*
X176086000Y-128588000D01*
X150483072Y-128588000D01*
X150483072Y-123704509D01*
X153285000Y-123704509D01*
X153285000Y-124123491D01*
X153366739Y-124534423D01*
X153527077Y-124921512D01*
X153759851Y-125269884D01*
X154056116Y-125566149D01*
X154404488Y-125798923D01*
X154791577Y-125959261D01*
X155202509Y-126041000D01*
X155621491Y-126041000D01*
X156032423Y-125959261D01*
X156419512Y-125798923D01*
X156767884Y-125566149D01*
X157064149Y-125269884D01*
X157296923Y-124921512D01*
X157457261Y-124534423D01*
X157539000Y-124123491D01*
X157539000Y-123704509D01*
X157457261Y-123293577D01*
X157296923Y-122906488D01*
X157064149Y-122558116D01*
X156767884Y-122261851D01*
X156419512Y-122029077D01*
X156032423Y-121868739D01*
X155621491Y-121787000D01*
X155202509Y-121787000D01*
X154791577Y-121868739D01*
X154404488Y-122029077D01*
X154056116Y-122261851D01*
X153759851Y-122558116D01*
X153527077Y-122906488D01*
X153366739Y-123293577D01*
X153285000Y-123704509D01*
X150483072Y-123704509D01*
X150483072Y-120720000D01*
X150470812Y-120595518D01*
X150434502Y-120475820D01*
X150375537Y-120365506D01*
X150296185Y-120268815D01*
X150199494Y-120189463D01*
X150123794Y-120149000D01*
X154070349Y-120149000D01*
X154142013Y-120256252D01*
X154369748Y-120483987D01*
X154637537Y-120662918D01*
X154935088Y-120786168D01*
X155250967Y-120849000D01*
X155573033Y-120849000D01*
X155888912Y-120786168D01*
X156186463Y-120662918D01*
X156454252Y-120483987D01*
X156681987Y-120256252D01*
X156860918Y-119988463D01*
X156984168Y-119690912D01*
X157047000Y-119375033D01*
X157047000Y-119052967D01*
X156984168Y-118737088D01*
X156860918Y-118439537D01*
X156681987Y-118171748D01*
X156454252Y-117944013D01*
X156186463Y-117765082D01*
X155888912Y-117641832D01*
X155573033Y-117579000D01*
X155250967Y-117579000D01*
X154935088Y-117641832D01*
X154637537Y-117765082D01*
X154369748Y-117944013D01*
X154142013Y-118171748D01*
X154070349Y-118279000D01*
X144763531Y-118279000D01*
X144717599Y-118274476D01*
X144534307Y-118292529D01*
X144505875Y-118301154D01*
X144358060Y-118345993D01*
X144195628Y-118432814D01*
X144053256Y-118549656D01*
X144023974Y-118585336D01*
X143198941Y-119410370D01*
X143163256Y-119439656D01*
X143046414Y-119582029D01*
X142959593Y-119744461D01*
X142921210Y-119870995D01*
X142906129Y-119920709D01*
X142890250Y-120081928D01*
X138011000Y-120081928D01*
X138011000Y-112611000D01*
X143726000Y-112611000D01*
X143750776Y-112608560D01*
X143774601Y-112601333D01*
X143796557Y-112589597D01*
X143815803Y-112573803D01*
X148486606Y-107903000D01*
X154013000Y-107903000D01*
X154013000Y-109182000D01*
X154015440Y-109206776D01*
X154022667Y-109230601D01*
X154034403Y-109252557D01*
X154050197Y-109271803D01*
X154069443Y-109287597D01*
X154091399Y-109299333D01*
X154115224Y-109306560D01*
X154140000Y-109309000D01*
X154744758Y-109309000D01*
X154859518Y-109343812D01*
X154984000Y-109356072D01*
X155884000Y-109356072D01*
X156008482Y-109343812D01*
X156123242Y-109309000D01*
X156172000Y-109309000D01*
X156196776Y-109306560D01*
X156220601Y-109299333D01*
X156242557Y-109287597D01*
X156261803Y-109271803D01*
X156277597Y-109252557D01*
X156289333Y-109230601D01*
X156296560Y-109206776D01*
X156297158Y-109200393D01*
X156335185Y-109169185D01*
X156414537Y-109072494D01*
X156473502Y-108962180D01*
X156509812Y-108842482D01*
X156522072Y-108718000D01*
X156522072Y-107091060D01*
X156552577Y-106990499D01*
X156574491Y-106768000D01*
X156552577Y-106545501D01*
X156522072Y-106444940D01*
X156522072Y-106118000D01*
X156509812Y-105993518D01*
X156473502Y-105873820D01*
X156414537Y-105763506D01*
X156335185Y-105666815D01*
X156264979Y-105609198D01*
X156239158Y-102897992D01*
X156335185Y-102819185D01*
X156414537Y-102722494D01*
X156473502Y-102612180D01*
X156509812Y-102492482D01*
X156522072Y-102368000D01*
X156522072Y-100741060D01*
X156552577Y-100640499D01*
X156574491Y-100418000D01*
X156552577Y-100195501D01*
X156522072Y-100094940D01*
X156522072Y-99768000D01*
X156509812Y-99643518D01*
X156473502Y-99523820D01*
X156414537Y-99413506D01*
X156335185Y-99316815D01*
X156238494Y-99237463D01*
X156204121Y-99219090D01*
X156178990Y-96580343D01*
X156238494Y-96548537D01*
X156335185Y-96469185D01*
X156414537Y-96372494D01*
X156473502Y-96262180D01*
X156509812Y-96142482D01*
X156522072Y-96018000D01*
X156522072Y-94391060D01*
X156552577Y-94290499D01*
X156574491Y-94068000D01*
X156552577Y-93845501D01*
X156522072Y-93744940D01*
X156522072Y-93418000D01*
X156509812Y-93293518D01*
X156473502Y-93173820D01*
X156414537Y-93063506D01*
X156335185Y-92966815D01*
X156238494Y-92887463D01*
X156143335Y-92836599D01*
X156118799Y-90260348D01*
X156128180Y-90257502D01*
X156238494Y-90198537D01*
X156335185Y-90119185D01*
X156414537Y-90022494D01*
X156473502Y-89912180D01*
X156509812Y-89792482D01*
X156522072Y-89668000D01*
X156522072Y-88089943D01*
X156528577Y-88068499D01*
X156550491Y-87846000D01*
X156528577Y-87623501D01*
X156522072Y-87602057D01*
X156522072Y-87068000D01*
X156509812Y-86943518D01*
X156473502Y-86823820D01*
X156414537Y-86713506D01*
X156335185Y-86616815D01*
X156238494Y-86537463D01*
X156128180Y-86478498D01*
X156082650Y-86464687D01*
X156047073Y-82729072D01*
X156068000Y-82729072D01*
X156221745Y-82713929D01*
X156369582Y-82669084D01*
X156425865Y-82639000D01*
X156680135Y-82639000D01*
X156736418Y-82669084D01*
%TA.AperFunction,Conductor*%
D23*
G36*
X156736418Y-82669084D02*
G01*
X156884255Y-82713929D01*
X157038000Y-82729072D01*
X157338000Y-82729072D01*
X157491745Y-82713929D01*
X157639582Y-82669084D01*
X157695865Y-82639000D01*
X157698000Y-82639000D01*
X157698001Y-86500851D01*
X157629506Y-86537463D01*
X157532815Y-86616815D01*
X157453463Y-86713506D01*
X157394498Y-86823820D01*
X157358188Y-86943518D01*
X157345928Y-87068000D01*
X157345928Y-89668000D01*
X157358188Y-89792482D01*
X157394498Y-89912180D01*
X157453463Y-90022494D01*
X157532815Y-90119185D01*
X157629506Y-90198537D01*
X157739820Y-90257502D01*
X157823000Y-90282734D01*
X157823000Y-91734512D01*
X157799026Y-91763724D01*
X157728454Y-91895754D01*
X157707207Y-91965799D01*
X157684998Y-92039014D01*
X157674001Y-92150667D01*
X157670324Y-92188000D01*
X157674001Y-92225332D01*
X157674001Y-92863680D01*
X157629506Y-92887463D01*
X157532815Y-92966815D01*
X157453463Y-93063506D01*
X157394498Y-93173820D01*
X157358188Y-93293518D01*
X157345928Y-93418000D01*
X157345928Y-96018000D01*
X157358188Y-96142482D01*
X157394498Y-96262180D01*
X157453463Y-96372494D01*
X157532815Y-96469185D01*
X157629506Y-96548537D01*
X157739820Y-96607502D01*
X157823000Y-96632734D01*
X157823000Y-96819773D01*
X157785196Y-96890498D01*
X157752454Y-96951754D01*
X157708997Y-97095015D01*
X157698000Y-97206668D01*
X157698000Y-97206678D01*
X157694324Y-97244000D01*
X157698000Y-97281323D01*
X157698001Y-99200851D01*
X157629506Y-99237463D01*
X157532815Y-99316815D01*
X157453463Y-99413506D01*
X157394498Y-99523820D01*
X157358188Y-99643518D01*
X157345928Y-99768000D01*
X157345928Y-102368000D01*
X157358188Y-102492482D01*
X157394498Y-102612180D01*
X157453463Y-102722494D01*
X157532815Y-102819185D01*
X157629506Y-102898537D01*
X157739820Y-102957502D01*
X157823000Y-102982734D01*
X157823000Y-105450512D01*
X157799026Y-105479724D01*
X157779368Y-105516501D01*
X157739820Y-105528498D01*
X157629506Y-105587463D01*
X157532815Y-105666815D01*
X157453463Y-105763506D01*
X157394498Y-105873820D01*
X157358188Y-105993518D01*
X157345928Y-106118000D01*
X157345928Y-108718000D01*
X157358188Y-108842482D01*
X157394498Y-108962180D01*
X157453463Y-109072494D01*
X157532815Y-109169185D01*
X157629506Y-109248537D01*
X157739820Y-109307502D01*
X157859518Y-109343812D01*
X157984000Y-109356072D01*
X158884000Y-109356072D01*
X159008482Y-109343812D01*
X159073170Y-109324189D01*
X159520001Y-109330227D01*
X159520000Y-110134512D01*
X159511613Y-110138995D01*
X159377038Y-110249438D01*
X159266595Y-110384013D01*
X159184528Y-110537548D01*
X159133992Y-110704144D01*
X159116928Y-110877398D01*
X159116928Y-111702402D01*
X159133992Y-111875656D01*
X159184528Y-112042252D01*
X159266595Y-112195787D01*
X159377038Y-112330362D01*
X159511613Y-112440805D01*
X159665148Y-112522872D01*
X159831744Y-112573408D01*
X160004998Y-112590472D01*
X160515341Y-112590472D01*
X161680009Y-113755140D01*
X161715551Y-113798449D01*
X161888377Y-113940284D01*
X162085553Y-114045676D01*
X162299501Y-114110577D01*
X162466248Y-114127000D01*
X162466257Y-114127000D01*
X162521999Y-114132490D01*
X162577741Y-114127000D01*
X163339752Y-114127000D01*
X163506499Y-114110577D01*
X163720447Y-114045676D01*
X163917623Y-113940284D01*
X164085945Y-113802146D01*
X164508107Y-114224308D01*
X164488000Y-114222328D01*
X164188000Y-114222328D01*
X164034255Y-114237471D01*
X163886418Y-114282316D01*
X163750171Y-114355142D01*
X163630749Y-114453149D01*
X163532742Y-114572571D01*
X163459916Y-114708818D01*
X163415071Y-114856655D01*
X163399928Y-115010400D01*
X163399928Y-116660400D01*
X163415071Y-116814145D01*
X163459916Y-116961982D01*
X163532742Y-117098229D01*
X163578000Y-117153377D01*
X163578001Y-117224402D01*
X163497149Y-117248928D01*
X163343613Y-117330995D01*
X163209038Y-117441438D01*
X163098595Y-117576013D01*
X163016528Y-117729549D01*
X162965992Y-117896145D01*
X162948928Y-118069399D01*
X162948928Y-118121630D01*
X162941083Y-118128068D01*
X162908999Y-118154399D01*
X162885201Y-118183397D01*
X161922002Y-119146596D01*
X161892999Y-119170399D01*
X161857217Y-119214000D01*
X161798026Y-119286124D01*
X161727455Y-119418153D01*
X161727454Y-119418154D01*
X161683997Y-119561415D01*
X161673000Y-119673068D01*
X161673000Y-119673078D01*
X161669324Y-119710400D01*
X161671707Y-119734595D01*
X161537001Y-119721328D01*
X160736999Y-119721328D01*
X160563745Y-119738392D01*
X160397149Y-119788928D01*
X160243613Y-119870995D01*
X160109038Y-119981438D01*
X159998595Y-120116013D01*
X159916528Y-120269549D01*
X159865992Y-120436145D01*
X159848928Y-120609399D01*
X159848928Y-121859401D01*
X159865992Y-122032655D01*
X159916528Y-122199251D01*
X159998595Y-122352787D01*
X160109038Y-122487362D01*
X160243613Y-122597805D01*
X160397149Y-122679872D01*
X160563745Y-122730408D01*
X160736999Y-122747472D01*
X161537001Y-122747472D01*
X161710255Y-122730408D01*
X161876851Y-122679872D01*
X162030387Y-122597805D01*
X162164962Y-122487362D01*
X162275405Y-122352787D01*
X162357472Y-122199251D01*
X162408008Y-122032655D01*
X162425072Y-121859401D01*
X162425072Y-121807170D01*
X162465001Y-121774401D01*
X162488803Y-121745398D01*
X162944002Y-121290200D01*
X162948928Y-121286157D01*
X162948928Y-121859401D01*
X162965992Y-122032655D01*
X163016528Y-122199251D01*
X163098595Y-122352787D01*
X163209038Y-122487362D01*
X163343613Y-122597805D01*
X163497149Y-122679872D01*
X163663745Y-122730408D01*
X163836999Y-122747472D01*
X164637001Y-122747472D01*
X164810255Y-122730408D01*
X164976851Y-122679872D01*
X165130387Y-122597805D01*
X165264962Y-122487362D01*
X165375405Y-122352787D01*
X165457472Y-122199251D01*
X165508008Y-122032655D01*
X165525072Y-121859401D01*
X165525072Y-121759692D01*
X165536803Y-121745398D01*
X165608000Y-121674202D01*
X165665928Y-121732130D01*
X165665928Y-121884402D01*
X165682992Y-122057656D01*
X165733528Y-122224252D01*
X165815595Y-122377787D01*
X165926038Y-122512362D01*
X166060613Y-122622805D01*
X166214148Y-122704872D01*
X166380744Y-122755408D01*
X166553998Y-122772472D01*
X167379002Y-122772472D01*
X167552256Y-122755408D01*
X167718852Y-122704872D01*
X167872387Y-122622805D01*
X168006962Y-122512362D01*
X168117405Y-122377787D01*
X168199472Y-122224252D01*
X168250008Y-122057656D01*
X168267072Y-121884402D01*
X168267072Y-120584398D01*
X168250008Y-120411144D01*
X168199472Y-120244548D01*
X168117405Y-120091013D01*
X168013496Y-119964400D01*
X168117405Y-119837787D01*
X168199472Y-119684252D01*
X168250008Y-119517656D01*
X168267072Y-119344402D01*
X168267072Y-118044398D01*
X168250008Y-117871144D01*
X168199472Y-117704548D01*
X168117405Y-117551013D01*
X168006962Y-117416438D01*
X167872387Y-117305995D01*
X167718852Y-117223928D01*
X167638000Y-117199402D01*
X167638000Y-117153376D01*
X167683258Y-117098229D01*
X167756084Y-116961982D01*
X167800929Y-116814145D01*
X167816072Y-116660400D01*
X167816072Y-115010400D01*
X167800929Y-114856655D01*
X167756084Y-114708818D01*
X167683258Y-114572571D01*
X167585251Y-114453149D01*
X167465829Y-114355142D01*
X167329582Y-114282316D01*
X167181745Y-114237471D01*
X167028000Y-114222328D01*
X166728000Y-114222328D01*
X166574255Y-114237471D01*
X166426418Y-114282316D01*
X166368000Y-114313541D01*
X166368000Y-114286722D01*
X166371676Y-114249399D01*
X166368000Y-114212076D01*
X166368000Y-114212067D01*
X166357835Y-114108858D01*
X166363501Y-114110577D01*
X166530248Y-114127000D01*
X168147869Y-114127000D01*
X168956501Y-114935633D01*
X168956500Y-117531632D01*
X168940595Y-117551013D01*
X168858528Y-117704548D01*
X168807992Y-117871144D01*
X168790928Y-118044398D01*
X168790928Y-119344402D01*
X168807992Y-119517656D01*
X168858528Y-119684252D01*
X168940595Y-119837787D01*
X168956501Y-119857168D01*
X168956500Y-120071632D01*
X168940595Y-120091013D01*
X168858528Y-120244548D01*
X168807992Y-120411144D01*
X168790928Y-120584398D01*
X168790928Y-121884402D01*
X168807992Y-122057656D01*
X168858528Y-122224252D01*
X168940595Y-122377787D01*
X169051038Y-122512362D01*
X169185613Y-122622805D01*
X169339148Y-122704872D01*
X169505744Y-122755408D01*
X169678998Y-122772472D01*
X170504002Y-122772472D01*
X170677256Y-122755408D01*
X170843852Y-122704872D01*
X170997387Y-122622805D01*
X171131962Y-122512362D01*
X171242405Y-122377787D01*
X171324472Y-122224252D01*
X171375008Y-122057656D01*
X171392072Y-121884402D01*
X171392072Y-120584398D01*
X171375008Y-120411144D01*
X171324472Y-120244548D01*
X171242405Y-120091013D01*
X171226500Y-120071633D01*
X171226500Y-119857167D01*
X171242405Y-119837787D01*
X171324472Y-119684252D01*
X171375008Y-119517656D01*
X171392072Y-119344402D01*
X171392072Y-118044398D01*
X171375008Y-117871144D01*
X171324472Y-117704548D01*
X171242405Y-117551013D01*
X171226500Y-117531633D01*
X171226500Y-114521252D01*
X171231991Y-114465500D01*
X171210077Y-114243001D01*
X171145176Y-114029053D01*
X171039784Y-113831877D01*
X170933489Y-113702356D01*
X170933487Y-113702354D01*
X170897949Y-113659051D01*
X170854646Y-113623513D01*
X169459995Y-112228864D01*
X169424449Y-112185551D01*
X169251623Y-112043716D01*
X169054447Y-111938324D01*
X168840499Y-111873423D01*
X168673752Y-111857000D01*
X168673751Y-111857000D01*
X168618000Y-111851509D01*
X168562249Y-111857000D01*
X166531633Y-111857000D01*
X166546072Y-111710400D01*
X166546072Y-110060400D01*
X166530929Y-109906655D01*
X166486084Y-109758818D01*
X166413258Y-109622571D01*
X166368000Y-109567424D01*
X166368000Y-109422768D01*
X176086000Y-109554092D01*
X176086000Y-128588000D01*
X150483072Y-128588000D01*
X150483072Y-123704509D01*
X153285000Y-123704509D01*
X153285000Y-124123491D01*
X153366739Y-124534423D01*
X153527077Y-124921512D01*
X153759851Y-125269884D01*
X154056116Y-125566149D01*
X154404488Y-125798923D01*
X154791577Y-125959261D01*
X155202509Y-126041000D01*
X155621491Y-126041000D01*
X156032423Y-125959261D01*
X156419512Y-125798923D01*
X156767884Y-125566149D01*
X157064149Y-125269884D01*
X157296923Y-124921512D01*
X157457261Y-124534423D01*
X157539000Y-124123491D01*
X157539000Y-123704509D01*
X157457261Y-123293577D01*
X157296923Y-122906488D01*
X157064149Y-122558116D01*
X156767884Y-122261851D01*
X156419512Y-122029077D01*
X156032423Y-121868739D01*
X155621491Y-121787000D01*
X155202509Y-121787000D01*
X154791577Y-121868739D01*
X154404488Y-122029077D01*
X154056116Y-122261851D01*
X153759851Y-122558116D01*
X153527077Y-122906488D01*
X153366739Y-123293577D01*
X153285000Y-123704509D01*
X150483072Y-123704509D01*
X150483072Y-120720000D01*
X150470812Y-120595518D01*
X150434502Y-120475820D01*
X150375537Y-120365506D01*
X150296185Y-120268815D01*
X150199494Y-120189463D01*
X150123794Y-120149000D01*
X154070349Y-120149000D01*
X154142013Y-120256252D01*
X154369748Y-120483987D01*
X154637537Y-120662918D01*
X154935088Y-120786168D01*
X155250967Y-120849000D01*
X155573033Y-120849000D01*
X155888912Y-120786168D01*
X156186463Y-120662918D01*
X156454252Y-120483987D01*
X156681987Y-120256252D01*
X156860918Y-119988463D01*
X156984168Y-119690912D01*
X157047000Y-119375033D01*
X157047000Y-119052967D01*
X156984168Y-118737088D01*
X156860918Y-118439537D01*
X156681987Y-118171748D01*
X156454252Y-117944013D01*
X156186463Y-117765082D01*
X155888912Y-117641832D01*
X155573033Y-117579000D01*
X155250967Y-117579000D01*
X154935088Y-117641832D01*
X154637537Y-117765082D01*
X154369748Y-117944013D01*
X154142013Y-118171748D01*
X154070349Y-118279000D01*
X144763531Y-118279000D01*
X144717599Y-118274476D01*
X144534307Y-118292529D01*
X144505875Y-118301154D01*
X144358060Y-118345993D01*
X144195628Y-118432814D01*
X144053256Y-118549656D01*
X144023974Y-118585336D01*
X143198941Y-119410370D01*
X143163256Y-119439656D01*
X143046414Y-119582029D01*
X142959593Y-119744461D01*
X142921210Y-119870995D01*
X142906129Y-119920709D01*
X142890250Y-120081928D01*
X138011000Y-120081928D01*
X138011000Y-112611000D01*
X143726000Y-112611000D01*
X143750776Y-112608560D01*
X143774601Y-112601333D01*
X143796557Y-112589597D01*
X143815803Y-112573803D01*
X148486606Y-107903000D01*
X154013000Y-107903000D01*
X154013000Y-109182000D01*
X154015440Y-109206776D01*
X154022667Y-109230601D01*
X154034403Y-109252557D01*
X154050197Y-109271803D01*
X154069443Y-109287597D01*
X154091399Y-109299333D01*
X154115224Y-109306560D01*
X154140000Y-109309000D01*
X154744758Y-109309000D01*
X154859518Y-109343812D01*
X154984000Y-109356072D01*
X155884000Y-109356072D01*
X156008482Y-109343812D01*
X156123242Y-109309000D01*
X156172000Y-109309000D01*
X156196776Y-109306560D01*
X156220601Y-109299333D01*
X156242557Y-109287597D01*
X156261803Y-109271803D01*
X156277597Y-109252557D01*
X156289333Y-109230601D01*
X156296560Y-109206776D01*
X156297158Y-109200393D01*
X156335185Y-109169185D01*
X156414537Y-109072494D01*
X156473502Y-108962180D01*
X156509812Y-108842482D01*
X156522072Y-108718000D01*
X156522072Y-107091060D01*
X156552577Y-106990499D01*
X156574491Y-106768000D01*
X156552577Y-106545501D01*
X156522072Y-106444940D01*
X156522072Y-106118000D01*
X156509812Y-105993518D01*
X156473502Y-105873820D01*
X156414537Y-105763506D01*
X156335185Y-105666815D01*
X156264979Y-105609198D01*
X156239158Y-102897992D01*
X156335185Y-102819185D01*
X156414537Y-102722494D01*
X156473502Y-102612180D01*
X156509812Y-102492482D01*
X156522072Y-102368000D01*
X156522072Y-100741060D01*
X156552577Y-100640499D01*
X156574491Y-100418000D01*
X156552577Y-100195501D01*
X156522072Y-100094940D01*
X156522072Y-99768000D01*
X156509812Y-99643518D01*
X156473502Y-99523820D01*
X156414537Y-99413506D01*
X156335185Y-99316815D01*
X156238494Y-99237463D01*
X156204121Y-99219090D01*
X156178990Y-96580343D01*
X156238494Y-96548537D01*
X156335185Y-96469185D01*
X156414537Y-96372494D01*
X156473502Y-96262180D01*
X156509812Y-96142482D01*
X156522072Y-96018000D01*
X156522072Y-94391060D01*
X156552577Y-94290499D01*
X156574491Y-94068000D01*
X156552577Y-93845501D01*
X156522072Y-93744940D01*
X156522072Y-93418000D01*
X156509812Y-93293518D01*
X156473502Y-93173820D01*
X156414537Y-93063506D01*
X156335185Y-92966815D01*
X156238494Y-92887463D01*
X156143335Y-92836599D01*
X156118799Y-90260348D01*
X156128180Y-90257502D01*
X156238494Y-90198537D01*
X156335185Y-90119185D01*
X156414537Y-90022494D01*
X156473502Y-89912180D01*
X156509812Y-89792482D01*
X156522072Y-89668000D01*
X156522072Y-88089943D01*
X156528577Y-88068499D01*
X156550491Y-87846000D01*
X156528577Y-87623501D01*
X156522072Y-87602057D01*
X156522072Y-87068000D01*
X156509812Y-86943518D01*
X156473502Y-86823820D01*
X156414537Y-86713506D01*
X156335185Y-86616815D01*
X156238494Y-86537463D01*
X156128180Y-86478498D01*
X156082650Y-86464687D01*
X156047073Y-82729072D01*
X156068000Y-82729072D01*
X156221745Y-82713929D01*
X156369582Y-82669084D01*
X156425865Y-82639000D01*
X156680135Y-82639000D01*
X156736418Y-82669084D01*
G37*
%TD.AperFunction*%
%TD*%
M02*
