%TF.GenerationSoftware,KiCad,Pcbnew,(5.1.6)-1*%
%TF.CreationDate,2021-10-27T11:50:57+02:00*%
%TF.ProjectId,_autosave-BaumOben,5f617574-6f73-4617-9665-2d4261756d4f,rev?*%
%TF.SameCoordinates,Original*%
%TF.FileFunction,Paste,Bot*%
%TF.FilePolarity,Positive*%
%FSLAX46Y46*%
G04 Gerber Fmt 4.6, Leading zero omitted, Abs format (unit mm)*
G04 Created by KiCad (PCBNEW (5.1.6)-1) date 2021-10-27 11:50:57*
%MOMM*%
%LPD*%
G01*
G04 APERTURE LIST*
G04 APERTURE END LIST*
%TO.C,C2*%
G36*
G01*
X107455000Y-143931800D02*
X107455000Y-142681800D01*
G75*
G02*
X107705000Y-142431800I250000J0D01*
G01*
X108630000Y-142431800D01*
G75*
G02*
X108880000Y-142681800I0J-250000D01*
G01*
X108880000Y-143931800D01*
G75*
G02*
X108630000Y-144181800I-250000J0D01*
G01*
X107705000Y-144181800D01*
G75*
G02*
X107455000Y-143931800I0J250000D01*
G01*
G37*
G36*
G01*
X104480000Y-143931800D02*
X104480000Y-142681800D01*
G75*
G02*
X104730000Y-142431800I250000J0D01*
G01*
X105655000Y-142431800D01*
G75*
G02*
X105905000Y-142681800I0J-250000D01*
G01*
X105905000Y-143931800D01*
G75*
G02*
X105655000Y-144181800I-250000J0D01*
G01*
X104730000Y-144181800D01*
G75*
G02*
X104480000Y-143931800I0J250000D01*
G01*
G37*
%TD*%
%TO.C,R9*%
G36*
G01*
X108971500Y-99065501D02*
X108971500Y-98165499D01*
G75*
G02*
X109221499Y-97915500I249999J0D01*
G01*
X109871501Y-97915500D01*
G75*
G02*
X110121500Y-98165499I0J-249999D01*
G01*
X110121500Y-99065501D01*
G75*
G02*
X109871501Y-99315500I-249999J0D01*
G01*
X109221499Y-99315500D01*
G75*
G02*
X108971500Y-99065501I0J249999D01*
G01*
G37*
G36*
G01*
X106921500Y-99065501D02*
X106921500Y-98165499D01*
G75*
G02*
X107171499Y-97915500I249999J0D01*
G01*
X107821501Y-97915500D01*
G75*
G02*
X108071500Y-98165499I0J-249999D01*
G01*
X108071500Y-99065501D01*
G75*
G02*
X107821501Y-99315500I-249999J0D01*
G01*
X107171499Y-99315500D01*
G75*
G02*
X106921500Y-99065501I0J249999D01*
G01*
G37*
%TD*%
%TO.C,R6*%
G36*
G01*
X97403499Y-80460000D02*
X98303501Y-80460000D01*
G75*
G02*
X98553500Y-80709999I0J-249999D01*
G01*
X98553500Y-81360001D01*
G75*
G02*
X98303501Y-81610000I-249999J0D01*
G01*
X97403499Y-81610000D01*
G75*
G02*
X97153500Y-81360001I0J249999D01*
G01*
X97153500Y-80709999D01*
G75*
G02*
X97403499Y-80460000I249999J0D01*
G01*
G37*
G36*
G01*
X97403499Y-78410000D02*
X98303501Y-78410000D01*
G75*
G02*
X98553500Y-78659999I0J-249999D01*
G01*
X98553500Y-79310001D01*
G75*
G02*
X98303501Y-79560000I-249999J0D01*
G01*
X97403499Y-79560000D01*
G75*
G02*
X97153500Y-79310001I0J249999D01*
G01*
X97153500Y-78659999D01*
G75*
G02*
X97403499Y-78410000I249999J0D01*
G01*
G37*
%TD*%
%TO.C,R5*%
G36*
G01*
X104578999Y-134371500D02*
X105479001Y-134371500D01*
G75*
G02*
X105729000Y-134621499I0J-249999D01*
G01*
X105729000Y-135271501D01*
G75*
G02*
X105479001Y-135521500I-249999J0D01*
G01*
X104578999Y-135521500D01*
G75*
G02*
X104329000Y-135271501I0J249999D01*
G01*
X104329000Y-134621499D01*
G75*
G02*
X104578999Y-134371500I249999J0D01*
G01*
G37*
G36*
G01*
X104578999Y-132321500D02*
X105479001Y-132321500D01*
G75*
G02*
X105729000Y-132571499I0J-249999D01*
G01*
X105729000Y-133221501D01*
G75*
G02*
X105479001Y-133471500I-249999J0D01*
G01*
X104578999Y-133471500D01*
G75*
G02*
X104329000Y-133221501I0J249999D01*
G01*
X104329000Y-132571499D01*
G75*
G02*
X104578999Y-132321500I249999J0D01*
G01*
G37*
%TD*%
%TO.C,R4*%
G36*
G01*
X93922000Y-117734501D02*
X93922000Y-116834499D01*
G75*
G02*
X94171999Y-116584500I249999J0D01*
G01*
X94822001Y-116584500D01*
G75*
G02*
X95072000Y-116834499I0J-249999D01*
G01*
X95072000Y-117734501D01*
G75*
G02*
X94822001Y-117984500I-249999J0D01*
G01*
X94171999Y-117984500D01*
G75*
G02*
X93922000Y-117734501I0J249999D01*
G01*
G37*
G36*
G01*
X91872000Y-117734501D02*
X91872000Y-116834499D01*
G75*
G02*
X92121999Y-116584500I249999J0D01*
G01*
X92772001Y-116584500D01*
G75*
G02*
X93022000Y-116834499I0J-249999D01*
G01*
X93022000Y-117734501D01*
G75*
G02*
X92772001Y-117984500I-249999J0D01*
G01*
X92121999Y-117984500D01*
G75*
G02*
X91872000Y-117734501I0J249999D01*
G01*
G37*
%TD*%
%TO.C,R2*%
G36*
G01*
X96133499Y-103456000D02*
X97033501Y-103456000D01*
G75*
G02*
X97283500Y-103705999I0J-249999D01*
G01*
X97283500Y-104356001D01*
G75*
G02*
X97033501Y-104606000I-249999J0D01*
G01*
X96133499Y-104606000D01*
G75*
G02*
X95883500Y-104356001I0J249999D01*
G01*
X95883500Y-103705999D01*
G75*
G02*
X96133499Y-103456000I249999J0D01*
G01*
G37*
G36*
G01*
X96133499Y-101406000D02*
X97033501Y-101406000D01*
G75*
G02*
X97283500Y-101655999I0J-249999D01*
G01*
X97283500Y-102306001D01*
G75*
G02*
X97033501Y-102556000I-249999J0D01*
G01*
X96133499Y-102556000D01*
G75*
G02*
X95883500Y-102306001I0J249999D01*
G01*
X95883500Y-101655999D01*
G75*
G02*
X96133499Y-101406000I249999J0D01*
G01*
G37*
%TD*%
%TO.C,DY7*%
G36*
G01*
X95763500Y-69855501D02*
X95763500Y-68955499D01*
G75*
G02*
X96013499Y-68705500I249999J0D01*
G01*
X96663501Y-68705500D01*
G75*
G02*
X96913500Y-68955499I0J-249999D01*
G01*
X96913500Y-69855501D01*
G75*
G02*
X96663501Y-70105500I-249999J0D01*
G01*
X96013499Y-70105500D01*
G75*
G02*
X95763500Y-69855501I0J249999D01*
G01*
G37*
G36*
G01*
X93713500Y-69855501D02*
X93713500Y-68955499D01*
G75*
G02*
X93963499Y-68705500I249999J0D01*
G01*
X94613501Y-68705500D01*
G75*
G02*
X94863500Y-68955499I0J-249999D01*
G01*
X94863500Y-69855501D01*
G75*
G02*
X94613501Y-70105500I-249999J0D01*
G01*
X93963499Y-70105500D01*
G75*
G02*
X93713500Y-69855501I0J249999D01*
G01*
G37*
%TD*%
%TO.C,DY5*%
G36*
G01*
X117278999Y-125037000D02*
X118179001Y-125037000D01*
G75*
G02*
X118429000Y-125286999I0J-249999D01*
G01*
X118429000Y-125937001D01*
G75*
G02*
X118179001Y-126187000I-249999J0D01*
G01*
X117278999Y-126187000D01*
G75*
G02*
X117029000Y-125937001I0J249999D01*
G01*
X117029000Y-125286999D01*
G75*
G02*
X117278999Y-125037000I249999J0D01*
G01*
G37*
G36*
G01*
X117278999Y-122987000D02*
X118179001Y-122987000D01*
G75*
G02*
X118429000Y-123236999I0J-249999D01*
G01*
X118429000Y-123887001D01*
G75*
G02*
X118179001Y-124137000I-249999J0D01*
G01*
X117278999Y-124137000D01*
G75*
G02*
X117029000Y-123887001I0J249999D01*
G01*
X117029000Y-123236999D01*
G75*
G02*
X117278999Y-122987000I249999J0D01*
G01*
G37*
%TD*%
%TO.C,DY3*%
G36*
G01*
X92196500Y-84322499D02*
X92196500Y-85222501D01*
G75*
G02*
X91946501Y-85472500I-249999J0D01*
G01*
X91296499Y-85472500D01*
G75*
G02*
X91046500Y-85222501I0J249999D01*
G01*
X91046500Y-84322499D01*
G75*
G02*
X91296499Y-84072500I249999J0D01*
G01*
X91946501Y-84072500D01*
G75*
G02*
X92196500Y-84322499I0J-249999D01*
G01*
G37*
G36*
G01*
X94246500Y-84322499D02*
X94246500Y-85222501D01*
G75*
G02*
X93996501Y-85472500I-249999J0D01*
G01*
X93346499Y-85472500D01*
G75*
G02*
X93096500Y-85222501I0J249999D01*
G01*
X93096500Y-84322499D01*
G75*
G02*
X93346499Y-84072500I249999J0D01*
G01*
X93996501Y-84072500D01*
G75*
G02*
X94246500Y-84322499I0J-249999D01*
G01*
G37*
%TD*%
%TO.C,DY2*%
G36*
G01*
X83825500Y-96779501D02*
X83825500Y-95879499D01*
G75*
G02*
X84075499Y-95629500I249999J0D01*
G01*
X84725501Y-95629500D01*
G75*
G02*
X84975500Y-95879499I0J-249999D01*
G01*
X84975500Y-96779501D01*
G75*
G02*
X84725501Y-97029500I-249999J0D01*
G01*
X84075499Y-97029500D01*
G75*
G02*
X83825500Y-96779501I0J249999D01*
G01*
G37*
G36*
G01*
X81775500Y-96779501D02*
X81775500Y-95879499D01*
G75*
G02*
X82025499Y-95629500I249999J0D01*
G01*
X82675501Y-95629500D01*
G75*
G02*
X82925500Y-95879499I0J-249999D01*
G01*
X82925500Y-96779501D01*
G75*
G02*
X82675501Y-97029500I-249999J0D01*
G01*
X82025499Y-97029500D01*
G75*
G02*
X81775500Y-96779501I0J249999D01*
G01*
G37*
%TD*%
%TO.C,DR8*%
G36*
G01*
X92069500Y-112643499D02*
X92069500Y-113543501D01*
G75*
G02*
X91819501Y-113793500I-249999J0D01*
G01*
X91169499Y-113793500D01*
G75*
G02*
X90919500Y-113543501I0J249999D01*
G01*
X90919500Y-112643499D01*
G75*
G02*
X91169499Y-112393500I249999J0D01*
G01*
X91819501Y-112393500D01*
G75*
G02*
X92069500Y-112643499I0J-249999D01*
G01*
G37*
G36*
G01*
X94119500Y-112643499D02*
X94119500Y-113543501D01*
G75*
G02*
X93869501Y-113793500I-249999J0D01*
G01*
X93219499Y-113793500D01*
G75*
G02*
X92969500Y-113543501I0J249999D01*
G01*
X92969500Y-112643499D01*
G75*
G02*
X93219499Y-112393500I249999J0D01*
G01*
X93869501Y-112393500D01*
G75*
G02*
X94119500Y-112643499I0J-249999D01*
G01*
G37*
%TD*%
%TO.C,DR6*%
G36*
G01*
X110865500Y-106737999D02*
X110865500Y-107638001D01*
G75*
G02*
X110615501Y-107888000I-249999J0D01*
G01*
X109965499Y-107888000D01*
G75*
G02*
X109715500Y-107638001I0J249999D01*
G01*
X109715500Y-106737999D01*
G75*
G02*
X109965499Y-106488000I249999J0D01*
G01*
X110615501Y-106488000D01*
G75*
G02*
X110865500Y-106737999I0J-249999D01*
G01*
G37*
G36*
G01*
X112915500Y-106737999D02*
X112915500Y-107638001D01*
G75*
G02*
X112665501Y-107888000I-249999J0D01*
G01*
X112015499Y-107888000D01*
G75*
G02*
X111765500Y-107638001I0J249999D01*
G01*
X111765500Y-106737999D01*
G75*
G02*
X112015499Y-106488000I249999J0D01*
G01*
X112665501Y-106488000D01*
G75*
G02*
X112915500Y-106737999I0J-249999D01*
G01*
G37*
%TD*%
%TO.C,DR4*%
G36*
G01*
X108082500Y-67823501D02*
X108082500Y-66923499D01*
G75*
G02*
X108332499Y-66673500I249999J0D01*
G01*
X108982501Y-66673500D01*
G75*
G02*
X109232500Y-66923499I0J-249999D01*
G01*
X109232500Y-67823501D01*
G75*
G02*
X108982501Y-68073500I-249999J0D01*
G01*
X108332499Y-68073500D01*
G75*
G02*
X108082500Y-67823501I0J249999D01*
G01*
G37*
G36*
G01*
X106032500Y-67823501D02*
X106032500Y-66923499D01*
G75*
G02*
X106282499Y-66673500I249999J0D01*
G01*
X106932501Y-66673500D01*
G75*
G02*
X107182500Y-66923499I0J-249999D01*
G01*
X107182500Y-67823501D01*
G75*
G02*
X106932501Y-68073500I-249999J0D01*
G01*
X106282499Y-68073500D01*
G75*
G02*
X106032500Y-67823501I0J249999D01*
G01*
G37*
%TD*%
%TO.C,DR2*%
G36*
G01*
X81338000Y-115881999D02*
X81338000Y-116782001D01*
G75*
G02*
X81088001Y-117032000I-249999J0D01*
G01*
X80437999Y-117032000D01*
G75*
G02*
X80188000Y-116782001I0J249999D01*
G01*
X80188000Y-115881999D01*
G75*
G02*
X80437999Y-115632000I249999J0D01*
G01*
X81088001Y-115632000D01*
G75*
G02*
X81338000Y-115881999I0J-249999D01*
G01*
G37*
G36*
G01*
X83388000Y-115881999D02*
X83388000Y-116782001D01*
G75*
G02*
X83138001Y-117032000I-249999J0D01*
G01*
X82487999Y-117032000D01*
G75*
G02*
X82238000Y-116782001I0J249999D01*
G01*
X82238000Y-115881999D01*
G75*
G02*
X82487999Y-115632000I249999J0D01*
G01*
X83138001Y-115632000D01*
G75*
G02*
X83388000Y-115881999I0J-249999D01*
G01*
G37*
%TD*%
%TO.C,DG8*%
G36*
G01*
X97033501Y-74670500D02*
X96133499Y-74670500D01*
G75*
G02*
X95883500Y-74420501I0J249999D01*
G01*
X95883500Y-73770499D01*
G75*
G02*
X96133499Y-73520500I249999J0D01*
G01*
X97033501Y-73520500D01*
G75*
G02*
X97283500Y-73770499I0J-249999D01*
G01*
X97283500Y-74420501D01*
G75*
G02*
X97033501Y-74670500I-249999J0D01*
G01*
G37*
G36*
G01*
X97033501Y-76720500D02*
X96133499Y-76720500D01*
G75*
G02*
X95883500Y-76470501I0J249999D01*
G01*
X95883500Y-75820499D01*
G75*
G02*
X96133499Y-75570500I249999J0D01*
G01*
X97033501Y-75570500D01*
G75*
G02*
X97283500Y-75820499I0J-249999D01*
G01*
X97283500Y-76470501D01*
G75*
G02*
X97033501Y-76720500I-249999J0D01*
G01*
G37*
%TD*%
%TO.C,DG6*%
G36*
G01*
X111194000Y-86238501D02*
X111194000Y-85338499D01*
G75*
G02*
X111443999Y-85088500I249999J0D01*
G01*
X112094001Y-85088500D01*
G75*
G02*
X112344000Y-85338499I0J-249999D01*
G01*
X112344000Y-86238501D01*
G75*
G02*
X112094001Y-86488500I-249999J0D01*
G01*
X111443999Y-86488500D01*
G75*
G02*
X111194000Y-86238501I0J249999D01*
G01*
G37*
G36*
G01*
X109144000Y-86238501D02*
X109144000Y-85338499D01*
G75*
G02*
X109393999Y-85088500I249999J0D01*
G01*
X110044001Y-85088500D01*
G75*
G02*
X110294000Y-85338499I0J-249999D01*
G01*
X110294000Y-86238501D01*
G75*
G02*
X110044001Y-86488500I-249999J0D01*
G01*
X109393999Y-86488500D01*
G75*
G02*
X109144000Y-86238501I0J249999D01*
G01*
G37*
%TD*%
%TO.C,DG4*%
G36*
G01*
X105785500Y-129661499D02*
X105785500Y-130561501D01*
G75*
G02*
X105535501Y-130811500I-249999J0D01*
G01*
X104885499Y-130811500D01*
G75*
G02*
X104635500Y-130561501I0J249999D01*
G01*
X104635500Y-129661499D01*
G75*
G02*
X104885499Y-129411500I249999J0D01*
G01*
X105535501Y-129411500D01*
G75*
G02*
X105785500Y-129661499I0J-249999D01*
G01*
G37*
G36*
G01*
X107835500Y-129661499D02*
X107835500Y-130561501D01*
G75*
G02*
X107585501Y-130811500I-249999J0D01*
G01*
X106935499Y-130811500D01*
G75*
G02*
X106685500Y-130561501I0J249999D01*
G01*
X106685500Y-129661499D01*
G75*
G02*
X106935499Y-129411500I249999J0D01*
G01*
X107585501Y-129411500D01*
G75*
G02*
X107835500Y-129661499I0J-249999D01*
G01*
G37*
%TD*%
%TO.C,DG2*%
G36*
G01*
X118050000Y-93275999D02*
X118050000Y-94176001D01*
G75*
G02*
X117800001Y-94426000I-249999J0D01*
G01*
X117149999Y-94426000D01*
G75*
G02*
X116900000Y-94176001I0J249999D01*
G01*
X116900000Y-93275999D01*
G75*
G02*
X117149999Y-93026000I249999J0D01*
G01*
X117800001Y-93026000D01*
G75*
G02*
X118050000Y-93275999I0J-249999D01*
G01*
G37*
G36*
G01*
X120100000Y-93275999D02*
X120100000Y-94176001D01*
G75*
G02*
X119850001Y-94426000I-249999J0D01*
G01*
X119199999Y-94426000D01*
G75*
G02*
X118950000Y-94176001I0J249999D01*
G01*
X118950000Y-93275999D01*
G75*
G02*
X119199999Y-93026000I249999J0D01*
G01*
X119850001Y-93026000D01*
G75*
G02*
X120100000Y-93275999I0J-249999D01*
G01*
G37*
%TD*%
%TO.C,DB6*%
G36*
G01*
X107538000Y-95805000D02*
X107538000Y-95330000D01*
G75*
G02*
X107775500Y-95092500I237500J0D01*
G01*
X108350500Y-95092500D01*
G75*
G02*
X108588000Y-95330000I0J-237500D01*
G01*
X108588000Y-95805000D01*
G75*
G02*
X108350500Y-96042500I-237500J0D01*
G01*
X107775500Y-96042500D01*
G75*
G02*
X107538000Y-95805000I0J237500D01*
G01*
G37*
G36*
G01*
X105788000Y-95805000D02*
X105788000Y-95330000D01*
G75*
G02*
X106025500Y-95092500I237500J0D01*
G01*
X106600500Y-95092500D01*
G75*
G02*
X106838000Y-95330000I0J-237500D01*
G01*
X106838000Y-95805000D01*
G75*
G02*
X106600500Y-96042500I-237500J0D01*
G01*
X106025500Y-96042500D01*
G75*
G02*
X105788000Y-95805000I0J237500D01*
G01*
G37*
%TD*%
%TO.C,DB5*%
G36*
G01*
X129698000Y-124159000D02*
X129698000Y-124634000D01*
G75*
G02*
X129460500Y-124871500I-237500J0D01*
G01*
X128885500Y-124871500D01*
G75*
G02*
X128648000Y-124634000I0J237500D01*
G01*
X128648000Y-124159000D01*
G75*
G02*
X128885500Y-123921500I237500J0D01*
G01*
X129460500Y-123921500D01*
G75*
G02*
X129698000Y-124159000I0J-237500D01*
G01*
G37*
G36*
G01*
X131448000Y-124159000D02*
X131448000Y-124634000D01*
G75*
G02*
X131210500Y-124871500I-237500J0D01*
G01*
X130635500Y-124871500D01*
G75*
G02*
X130398000Y-124634000I0J237500D01*
G01*
X130398000Y-124159000D01*
G75*
G02*
X130635500Y-123921500I237500J0D01*
G01*
X131210500Y-123921500D01*
G75*
G02*
X131448000Y-124159000I0J-237500D01*
G01*
G37*
%TD*%
%TO.C,DB3*%
G36*
G01*
X105076000Y-79787000D02*
X104601000Y-79787000D01*
G75*
G02*
X104363500Y-79549500I0J237500D01*
G01*
X104363500Y-78974500D01*
G75*
G02*
X104601000Y-78737000I237500J0D01*
G01*
X105076000Y-78737000D01*
G75*
G02*
X105313500Y-78974500I0J-237500D01*
G01*
X105313500Y-79549500D01*
G75*
G02*
X105076000Y-79787000I-237500J0D01*
G01*
G37*
G36*
G01*
X105076000Y-81537000D02*
X104601000Y-81537000D01*
G75*
G02*
X104363500Y-81299500I0J237500D01*
G01*
X104363500Y-80724500D01*
G75*
G02*
X104601000Y-80487000I237500J0D01*
G01*
X105076000Y-80487000D01*
G75*
G02*
X105313500Y-80724500I0J-237500D01*
G01*
X105313500Y-81299500D01*
G75*
G02*
X105076000Y-81537000I-237500J0D01*
G01*
G37*
%TD*%
%TO.C,DB1*%
G36*
G01*
X90075500Y-128761500D02*
X90075500Y-128286500D01*
G75*
G02*
X90313000Y-128049000I237500J0D01*
G01*
X90888000Y-128049000D01*
G75*
G02*
X91125500Y-128286500I0J-237500D01*
G01*
X91125500Y-128761500D01*
G75*
G02*
X90888000Y-128999000I-237500J0D01*
G01*
X90313000Y-128999000D01*
G75*
G02*
X90075500Y-128761500I0J237500D01*
G01*
G37*
G36*
G01*
X88325500Y-128761500D02*
X88325500Y-128286500D01*
G75*
G02*
X88563000Y-128049000I237500J0D01*
G01*
X89138000Y-128049000D01*
G75*
G02*
X89375500Y-128286500I0J-237500D01*
G01*
X89375500Y-128761500D01*
G75*
G02*
X89138000Y-128999000I-237500J0D01*
G01*
X88563000Y-128999000D01*
G75*
G02*
X88325500Y-128761500I0J237500D01*
G01*
G37*
%TD*%
M02*
