M48
; DRILL file {KiCad (5.1.8)-1} date 11/03/21 02:03:23
; FORMAT={-:-/ absolute / inch / decimal}
; #@! TF.CreationDate,2021-11-03T02:03:23+01:00
; #@! TF.GenerationSoftware,Kicad,Pcbnew,(5.1.8)-1
FMAT,2
INCH
T1C0.0157
%
G90
G05
T1
X3.06Y-4.71
X3.26Y-5.105
X3.4125Y-4.1775
X3.481Y-5.808
X3.6025Y-4.3625
X3.635Y-3.9875
X3.655Y-2.9175
X3.6763Y-4.8388
X3.685Y-3.67
X3.7175Y-2.865
X3.7325Y-4.16
X3.7375Y-4.25
X3.794Y-5.812
X3.855Y-3.845
X3.9725Y-3.1525
X4.0Y-2.97
X4.0175Y-2.8
X4.0775Y-2.6525
X4.0925Y-2.885
X4.095Y-4.1575
X4.1175Y-3.4775
X4.13Y-5.816
X4.1425Y-4.6925
X4.1475Y-3.945
X4.1875Y-3.225
X4.1925Y-3.4125
X4.24Y-3.63
X4.2475Y-2.5925
X4.2625Y-4.1275
X4.3225Y-4.39
X4.445Y-5.808
X4.5025Y-5.0125
X4.51Y-4.45
X4.6425Y-3.5925
X4.66Y-3.775
X4.73Y-4.62
T0
M30
