%TF.GenerationSoftware,KiCad,Pcbnew,(5.1.10)-1*%
%TF.CreationDate,2021-10-19T12:04:05+02:00*%
%TF.ProjectId,_autosave-BaumOben,5f617574-6f73-4617-9665-2d4261756d4f,rev?*%
%TF.SameCoordinates,Original*%
%TF.FileFunction,Legend,Bot*%
%TF.FilePolarity,Positive*%
%FSLAX46Y46*%
G04 Gerber Fmt 4.6, Leading zero omitted, Abs format (unit mm)*
G04 Created by KiCad (PCBNEW (5.1.10)-1) date 2021-10-19 12:04:05*
%MOMM*%
%LPD*%
G01*
G04 APERTURE LIST*
%ADD10C,0.120000*%
%ADD11C,0.150000*%
G04 APERTURE END LIST*
D10*
%TO.C,R6*%
X97143500Y-79748748D02*
X97143500Y-80271252D01*
X98563500Y-79748748D02*
X98563500Y-80271252D01*
%TO.C,R5*%
X105290252Y-133211500D02*
X104767748Y-133211500D01*
X105290252Y-134631500D02*
X104767748Y-134631500D01*
%TO.C,R4*%
X93210748Y-117994500D02*
X93733252Y-117994500D01*
X93210748Y-116574500D02*
X93733252Y-116574500D01*
%TO.C,R2*%
X95873500Y-102744748D02*
X95873500Y-103267252D01*
X97293500Y-102744748D02*
X97293500Y-103267252D01*
%TO.C,DY7*%
X96313500Y-70365500D02*
X93453500Y-70365500D01*
X93453500Y-70365500D02*
X93453500Y-68445500D01*
X93453500Y-68445500D02*
X96313500Y-68445500D01*
%TO.C,DY5*%
X116769000Y-125587000D02*
X116769000Y-122727000D01*
X116769000Y-122727000D02*
X118689000Y-122727000D01*
X118689000Y-122727000D02*
X118689000Y-125587000D01*
%TO.C,DY3*%
X91646500Y-83812500D02*
X94506500Y-83812500D01*
X94506500Y-83812500D02*
X94506500Y-85732500D01*
X94506500Y-85732500D02*
X91646500Y-85732500D01*
%TO.C,DY2*%
X84375500Y-97289500D02*
X81515500Y-97289500D01*
X81515500Y-97289500D02*
X81515500Y-95369500D01*
X81515500Y-95369500D02*
X84375500Y-95369500D01*
%TO.C,DR8*%
X91519500Y-112133500D02*
X94379500Y-112133500D01*
X94379500Y-112133500D02*
X94379500Y-114053500D01*
X94379500Y-114053500D02*
X91519500Y-114053500D01*
%TO.C,DR6*%
X110315500Y-106228000D02*
X113175500Y-106228000D01*
X113175500Y-106228000D02*
X113175500Y-108148000D01*
X113175500Y-108148000D02*
X110315500Y-108148000D01*
%TO.C,DR4*%
X108632500Y-68333500D02*
X105772500Y-68333500D01*
X105772500Y-68333500D02*
X105772500Y-66413500D01*
X105772500Y-66413500D02*
X108632500Y-66413500D01*
%TO.C,DR2*%
X80788000Y-115372000D02*
X83648000Y-115372000D01*
X83648000Y-115372000D02*
X83648000Y-117292000D01*
X83648000Y-117292000D02*
X80788000Y-117292000D01*
%TO.C,DG8*%
X97543500Y-74120500D02*
X97543500Y-76980500D01*
X97543500Y-76980500D02*
X95623500Y-76980500D01*
X95623500Y-76980500D02*
X95623500Y-74120500D01*
%TO.C,DG6*%
X111744000Y-86748500D02*
X108884000Y-86748500D01*
X108884000Y-86748500D02*
X108884000Y-84828500D01*
X108884000Y-84828500D02*
X111744000Y-84828500D01*
%TO.C,DG4*%
X105235500Y-129151500D02*
X108095500Y-129151500D01*
X108095500Y-129151500D02*
X108095500Y-131071500D01*
X108095500Y-131071500D02*
X105235500Y-131071500D01*
%TO.C,DG2*%
X117500000Y-92766000D02*
X120360000Y-92766000D01*
X120360000Y-92766000D02*
X120360000Y-94686000D01*
X120360000Y-94686000D02*
X117500000Y-94686000D01*
%TO.C,DB3*%
X105573500Y-79337000D02*
X105573500Y-81797000D01*
X105573500Y-81797000D02*
X104103500Y-81797000D01*
X104103500Y-81797000D02*
X104103500Y-79337000D01*
%TO.C,DB1*%
X90525500Y-129259000D02*
X88065500Y-129259000D01*
X88065500Y-129259000D02*
X88065500Y-127789000D01*
X88065500Y-127789000D02*
X90525500Y-127789000D01*
%TO.C,R6*%
D11*
X96655880Y-79843333D02*
X96179690Y-79510000D01*
X96655880Y-79271904D02*
X95655880Y-79271904D01*
X95655880Y-79652857D01*
X95703500Y-79748095D01*
X95751119Y-79795714D01*
X95846357Y-79843333D01*
X95989214Y-79843333D01*
X96084452Y-79795714D01*
X96132071Y-79748095D01*
X96179690Y-79652857D01*
X96179690Y-79271904D01*
X95655880Y-80700476D02*
X95655880Y-80510000D01*
X95703500Y-80414761D01*
X95751119Y-80367142D01*
X95893976Y-80271904D01*
X96084452Y-80224285D01*
X96465404Y-80224285D01*
X96560642Y-80271904D01*
X96608261Y-80319523D01*
X96655880Y-80414761D01*
X96655880Y-80605238D01*
X96608261Y-80700476D01*
X96560642Y-80748095D01*
X96465404Y-80795714D01*
X96227309Y-80795714D01*
X96132071Y-80748095D01*
X96084452Y-80700476D01*
X96036833Y-80605238D01*
X96036833Y-80414761D01*
X96084452Y-80319523D01*
X96132071Y-80271904D01*
X96227309Y-80224285D01*
%TO.C,R5*%
X105195666Y-132723880D02*
X105529000Y-132247690D01*
X105767095Y-132723880D02*
X105767095Y-131723880D01*
X105386142Y-131723880D01*
X105290904Y-131771500D01*
X105243285Y-131819119D01*
X105195666Y-131914357D01*
X105195666Y-132057214D01*
X105243285Y-132152452D01*
X105290904Y-132200071D01*
X105386142Y-132247690D01*
X105767095Y-132247690D01*
X104290904Y-131723880D02*
X104767095Y-131723880D01*
X104814714Y-132200071D01*
X104767095Y-132152452D01*
X104671857Y-132104833D01*
X104433761Y-132104833D01*
X104338523Y-132152452D01*
X104290904Y-132200071D01*
X104243285Y-132295309D01*
X104243285Y-132533404D01*
X104290904Y-132628642D01*
X104338523Y-132676261D01*
X104433761Y-132723880D01*
X104671857Y-132723880D01*
X104767095Y-132676261D01*
X104814714Y-132628642D01*
%TO.C,R4*%
X93638666Y-119386880D02*
X93972000Y-118910690D01*
X94210095Y-119386880D02*
X94210095Y-118386880D01*
X93829142Y-118386880D01*
X93733904Y-118434500D01*
X93686285Y-118482119D01*
X93638666Y-118577357D01*
X93638666Y-118720214D01*
X93686285Y-118815452D01*
X93733904Y-118863071D01*
X93829142Y-118910690D01*
X94210095Y-118910690D01*
X92781523Y-118720214D02*
X92781523Y-119386880D01*
X93019619Y-118339261D02*
X93257714Y-119053547D01*
X92638666Y-119053547D01*
%TO.C,R2*%
X95385880Y-102839333D02*
X94909690Y-102506000D01*
X95385880Y-102267904D02*
X94385880Y-102267904D01*
X94385880Y-102648857D01*
X94433500Y-102744095D01*
X94481119Y-102791714D01*
X94576357Y-102839333D01*
X94719214Y-102839333D01*
X94814452Y-102791714D01*
X94862071Y-102744095D01*
X94909690Y-102648857D01*
X94909690Y-102267904D01*
X94481119Y-103220285D02*
X94433500Y-103267904D01*
X94385880Y-103363142D01*
X94385880Y-103601238D01*
X94433500Y-103696476D01*
X94481119Y-103744095D01*
X94576357Y-103791714D01*
X94671595Y-103791714D01*
X94814452Y-103744095D01*
X95385880Y-103172666D01*
X95385880Y-103791714D01*
%TO.C,DY7*%
X96480166Y-71507880D02*
X96480166Y-70507880D01*
X96242071Y-70507880D01*
X96099214Y-70555500D01*
X96003976Y-70650738D01*
X95956357Y-70745976D01*
X95908738Y-70936452D01*
X95908738Y-71079309D01*
X95956357Y-71269785D01*
X96003976Y-71365023D01*
X96099214Y-71460261D01*
X96242071Y-71507880D01*
X96480166Y-71507880D01*
X95289690Y-71031690D02*
X95289690Y-71507880D01*
X95623023Y-70507880D02*
X95289690Y-71031690D01*
X94956357Y-70507880D01*
X94718261Y-70507880D02*
X94051595Y-70507880D01*
X94480166Y-71507880D01*
%TO.C,DY5*%
X116531380Y-123420333D02*
X115531380Y-123420333D01*
X115531380Y-123658428D01*
X115579000Y-123801285D01*
X115674238Y-123896523D01*
X115769476Y-123944142D01*
X115959952Y-123991761D01*
X116102809Y-123991761D01*
X116293285Y-123944142D01*
X116388523Y-123896523D01*
X116483761Y-123801285D01*
X116531380Y-123658428D01*
X116531380Y-123420333D01*
X116055190Y-124610809D02*
X116531380Y-124610809D01*
X115531380Y-124277476D02*
X116055190Y-124610809D01*
X115531380Y-124944142D01*
X115531380Y-125753666D02*
X115531380Y-125277476D01*
X116007571Y-125229857D01*
X115959952Y-125277476D01*
X115912333Y-125372714D01*
X115912333Y-125610809D01*
X115959952Y-125706047D01*
X116007571Y-125753666D01*
X116102809Y-125801285D01*
X116340904Y-125801285D01*
X116436142Y-125753666D01*
X116483761Y-125706047D01*
X116531380Y-125610809D01*
X116531380Y-125372714D01*
X116483761Y-125277476D01*
X116436142Y-125229857D01*
%TO.C,DY3*%
X93813166Y-83574880D02*
X93813166Y-82574880D01*
X93575071Y-82574880D01*
X93432214Y-82622500D01*
X93336976Y-82717738D01*
X93289357Y-82812976D01*
X93241738Y-83003452D01*
X93241738Y-83146309D01*
X93289357Y-83336785D01*
X93336976Y-83432023D01*
X93432214Y-83527261D01*
X93575071Y-83574880D01*
X93813166Y-83574880D01*
X92622690Y-83098690D02*
X92622690Y-83574880D01*
X92956023Y-82574880D02*
X92622690Y-83098690D01*
X92289357Y-82574880D01*
X92051261Y-82574880D02*
X91432214Y-82574880D01*
X91765547Y-82955833D01*
X91622690Y-82955833D01*
X91527452Y-83003452D01*
X91479833Y-83051071D01*
X91432214Y-83146309D01*
X91432214Y-83384404D01*
X91479833Y-83479642D01*
X91527452Y-83527261D01*
X91622690Y-83574880D01*
X91908404Y-83574880D01*
X92003642Y-83527261D01*
X92051261Y-83479642D01*
%TO.C,DY2*%
X84542166Y-98431880D02*
X84542166Y-97431880D01*
X84304071Y-97431880D01*
X84161214Y-97479500D01*
X84065976Y-97574738D01*
X84018357Y-97669976D01*
X83970738Y-97860452D01*
X83970738Y-98003309D01*
X84018357Y-98193785D01*
X84065976Y-98289023D01*
X84161214Y-98384261D01*
X84304071Y-98431880D01*
X84542166Y-98431880D01*
X83351690Y-97955690D02*
X83351690Y-98431880D01*
X83685023Y-97431880D02*
X83351690Y-97955690D01*
X83018357Y-97431880D01*
X82732642Y-97527119D02*
X82685023Y-97479500D01*
X82589785Y-97431880D01*
X82351690Y-97431880D01*
X82256452Y-97479500D01*
X82208833Y-97527119D01*
X82161214Y-97622357D01*
X82161214Y-97717595D01*
X82208833Y-97860452D01*
X82780261Y-98431880D01*
X82161214Y-98431880D01*
%TO.C,DR8*%
X93757595Y-111895880D02*
X93757595Y-110895880D01*
X93519500Y-110895880D01*
X93376642Y-110943500D01*
X93281404Y-111038738D01*
X93233785Y-111133976D01*
X93186166Y-111324452D01*
X93186166Y-111467309D01*
X93233785Y-111657785D01*
X93281404Y-111753023D01*
X93376642Y-111848261D01*
X93519500Y-111895880D01*
X93757595Y-111895880D01*
X92186166Y-111895880D02*
X92519500Y-111419690D01*
X92757595Y-111895880D02*
X92757595Y-110895880D01*
X92376642Y-110895880D01*
X92281404Y-110943500D01*
X92233785Y-110991119D01*
X92186166Y-111086357D01*
X92186166Y-111229214D01*
X92233785Y-111324452D01*
X92281404Y-111372071D01*
X92376642Y-111419690D01*
X92757595Y-111419690D01*
X91614738Y-111324452D02*
X91709976Y-111276833D01*
X91757595Y-111229214D01*
X91805214Y-111133976D01*
X91805214Y-111086357D01*
X91757595Y-110991119D01*
X91709976Y-110943500D01*
X91614738Y-110895880D01*
X91424261Y-110895880D01*
X91329023Y-110943500D01*
X91281404Y-110991119D01*
X91233785Y-111086357D01*
X91233785Y-111133976D01*
X91281404Y-111229214D01*
X91329023Y-111276833D01*
X91424261Y-111324452D01*
X91614738Y-111324452D01*
X91709976Y-111372071D01*
X91757595Y-111419690D01*
X91805214Y-111514928D01*
X91805214Y-111705404D01*
X91757595Y-111800642D01*
X91709976Y-111848261D01*
X91614738Y-111895880D01*
X91424261Y-111895880D01*
X91329023Y-111848261D01*
X91281404Y-111800642D01*
X91233785Y-111705404D01*
X91233785Y-111514928D01*
X91281404Y-111419690D01*
X91329023Y-111372071D01*
X91424261Y-111324452D01*
%TO.C,DR6*%
X112553595Y-105990380D02*
X112553595Y-104990380D01*
X112315500Y-104990380D01*
X112172642Y-105038000D01*
X112077404Y-105133238D01*
X112029785Y-105228476D01*
X111982166Y-105418952D01*
X111982166Y-105561809D01*
X112029785Y-105752285D01*
X112077404Y-105847523D01*
X112172642Y-105942761D01*
X112315500Y-105990380D01*
X112553595Y-105990380D01*
X110982166Y-105990380D02*
X111315500Y-105514190D01*
X111553595Y-105990380D02*
X111553595Y-104990380D01*
X111172642Y-104990380D01*
X111077404Y-105038000D01*
X111029785Y-105085619D01*
X110982166Y-105180857D01*
X110982166Y-105323714D01*
X111029785Y-105418952D01*
X111077404Y-105466571D01*
X111172642Y-105514190D01*
X111553595Y-105514190D01*
X110125023Y-104990380D02*
X110315500Y-104990380D01*
X110410738Y-105038000D01*
X110458357Y-105085619D01*
X110553595Y-105228476D01*
X110601214Y-105418952D01*
X110601214Y-105799904D01*
X110553595Y-105895142D01*
X110505976Y-105942761D01*
X110410738Y-105990380D01*
X110220261Y-105990380D01*
X110125023Y-105942761D01*
X110077404Y-105895142D01*
X110029785Y-105799904D01*
X110029785Y-105561809D01*
X110077404Y-105466571D01*
X110125023Y-105418952D01*
X110220261Y-105371333D01*
X110410738Y-105371333D01*
X110505976Y-105418952D01*
X110553595Y-105466571D01*
X110601214Y-105561809D01*
%TO.C,DR4*%
X108870595Y-69475880D02*
X108870595Y-68475880D01*
X108632500Y-68475880D01*
X108489642Y-68523500D01*
X108394404Y-68618738D01*
X108346785Y-68713976D01*
X108299166Y-68904452D01*
X108299166Y-69047309D01*
X108346785Y-69237785D01*
X108394404Y-69333023D01*
X108489642Y-69428261D01*
X108632500Y-69475880D01*
X108870595Y-69475880D01*
X107299166Y-69475880D02*
X107632500Y-68999690D01*
X107870595Y-69475880D02*
X107870595Y-68475880D01*
X107489642Y-68475880D01*
X107394404Y-68523500D01*
X107346785Y-68571119D01*
X107299166Y-68666357D01*
X107299166Y-68809214D01*
X107346785Y-68904452D01*
X107394404Y-68952071D01*
X107489642Y-68999690D01*
X107870595Y-68999690D01*
X106442023Y-68809214D02*
X106442023Y-69475880D01*
X106680119Y-68428261D02*
X106918214Y-69142547D01*
X106299166Y-69142547D01*
%TO.C,DR2*%
X83026095Y-115134380D02*
X83026095Y-114134380D01*
X82788000Y-114134380D01*
X82645142Y-114182000D01*
X82549904Y-114277238D01*
X82502285Y-114372476D01*
X82454666Y-114562952D01*
X82454666Y-114705809D01*
X82502285Y-114896285D01*
X82549904Y-114991523D01*
X82645142Y-115086761D01*
X82788000Y-115134380D01*
X83026095Y-115134380D01*
X81454666Y-115134380D02*
X81788000Y-114658190D01*
X82026095Y-115134380D02*
X82026095Y-114134380D01*
X81645142Y-114134380D01*
X81549904Y-114182000D01*
X81502285Y-114229619D01*
X81454666Y-114324857D01*
X81454666Y-114467714D01*
X81502285Y-114562952D01*
X81549904Y-114610571D01*
X81645142Y-114658190D01*
X82026095Y-114658190D01*
X81073714Y-114229619D02*
X81026095Y-114182000D01*
X80930857Y-114134380D01*
X80692761Y-114134380D01*
X80597523Y-114182000D01*
X80549904Y-114229619D01*
X80502285Y-114324857D01*
X80502285Y-114420095D01*
X80549904Y-114562952D01*
X81121333Y-115134380D01*
X80502285Y-115134380D01*
%TO.C,DG8*%
X98685880Y-73882404D02*
X97685880Y-73882404D01*
X97685880Y-74120500D01*
X97733500Y-74263357D01*
X97828738Y-74358595D01*
X97923976Y-74406214D01*
X98114452Y-74453833D01*
X98257309Y-74453833D01*
X98447785Y-74406214D01*
X98543023Y-74358595D01*
X98638261Y-74263357D01*
X98685880Y-74120500D01*
X98685880Y-73882404D01*
X97733500Y-75406214D02*
X97685880Y-75310976D01*
X97685880Y-75168119D01*
X97733500Y-75025261D01*
X97828738Y-74930023D01*
X97923976Y-74882404D01*
X98114452Y-74834785D01*
X98257309Y-74834785D01*
X98447785Y-74882404D01*
X98543023Y-74930023D01*
X98638261Y-75025261D01*
X98685880Y-75168119D01*
X98685880Y-75263357D01*
X98638261Y-75406214D01*
X98590642Y-75453833D01*
X98257309Y-75453833D01*
X98257309Y-75263357D01*
X98114452Y-76025261D02*
X98066833Y-75930023D01*
X98019214Y-75882404D01*
X97923976Y-75834785D01*
X97876357Y-75834785D01*
X97781119Y-75882404D01*
X97733500Y-75930023D01*
X97685880Y-76025261D01*
X97685880Y-76215738D01*
X97733500Y-76310976D01*
X97781119Y-76358595D01*
X97876357Y-76406214D01*
X97923976Y-76406214D01*
X98019214Y-76358595D01*
X98066833Y-76310976D01*
X98114452Y-76215738D01*
X98114452Y-76025261D01*
X98162071Y-75930023D01*
X98209690Y-75882404D01*
X98304928Y-75834785D01*
X98495404Y-75834785D01*
X98590642Y-75882404D01*
X98638261Y-75930023D01*
X98685880Y-76025261D01*
X98685880Y-76215738D01*
X98638261Y-76310976D01*
X98590642Y-76358595D01*
X98495404Y-76406214D01*
X98304928Y-76406214D01*
X98209690Y-76358595D01*
X98162071Y-76310976D01*
X98114452Y-76215738D01*
%TO.C,DG6*%
X111982095Y-87890880D02*
X111982095Y-86890880D01*
X111744000Y-86890880D01*
X111601142Y-86938500D01*
X111505904Y-87033738D01*
X111458285Y-87128976D01*
X111410666Y-87319452D01*
X111410666Y-87462309D01*
X111458285Y-87652785D01*
X111505904Y-87748023D01*
X111601142Y-87843261D01*
X111744000Y-87890880D01*
X111982095Y-87890880D01*
X110458285Y-86938500D02*
X110553523Y-86890880D01*
X110696380Y-86890880D01*
X110839238Y-86938500D01*
X110934476Y-87033738D01*
X110982095Y-87128976D01*
X111029714Y-87319452D01*
X111029714Y-87462309D01*
X110982095Y-87652785D01*
X110934476Y-87748023D01*
X110839238Y-87843261D01*
X110696380Y-87890880D01*
X110601142Y-87890880D01*
X110458285Y-87843261D01*
X110410666Y-87795642D01*
X110410666Y-87462309D01*
X110601142Y-87462309D01*
X109553523Y-86890880D02*
X109744000Y-86890880D01*
X109839238Y-86938500D01*
X109886857Y-86986119D01*
X109982095Y-87128976D01*
X110029714Y-87319452D01*
X110029714Y-87700404D01*
X109982095Y-87795642D01*
X109934476Y-87843261D01*
X109839238Y-87890880D01*
X109648761Y-87890880D01*
X109553523Y-87843261D01*
X109505904Y-87795642D01*
X109458285Y-87700404D01*
X109458285Y-87462309D01*
X109505904Y-87367071D01*
X109553523Y-87319452D01*
X109648761Y-87271833D01*
X109839238Y-87271833D01*
X109934476Y-87319452D01*
X109982095Y-87367071D01*
X110029714Y-87462309D01*
%TO.C,DG4*%
X107473595Y-128913880D02*
X107473595Y-127913880D01*
X107235500Y-127913880D01*
X107092642Y-127961500D01*
X106997404Y-128056738D01*
X106949785Y-128151976D01*
X106902166Y-128342452D01*
X106902166Y-128485309D01*
X106949785Y-128675785D01*
X106997404Y-128771023D01*
X107092642Y-128866261D01*
X107235500Y-128913880D01*
X107473595Y-128913880D01*
X105949785Y-127961500D02*
X106045023Y-127913880D01*
X106187880Y-127913880D01*
X106330738Y-127961500D01*
X106425976Y-128056738D01*
X106473595Y-128151976D01*
X106521214Y-128342452D01*
X106521214Y-128485309D01*
X106473595Y-128675785D01*
X106425976Y-128771023D01*
X106330738Y-128866261D01*
X106187880Y-128913880D01*
X106092642Y-128913880D01*
X105949785Y-128866261D01*
X105902166Y-128818642D01*
X105902166Y-128485309D01*
X106092642Y-128485309D01*
X105045023Y-128247214D02*
X105045023Y-128913880D01*
X105283119Y-127866261D02*
X105521214Y-128580547D01*
X104902166Y-128580547D01*
%TO.C,DG2*%
X119738095Y-92528380D02*
X119738095Y-91528380D01*
X119500000Y-91528380D01*
X119357142Y-91576000D01*
X119261904Y-91671238D01*
X119214285Y-91766476D01*
X119166666Y-91956952D01*
X119166666Y-92099809D01*
X119214285Y-92290285D01*
X119261904Y-92385523D01*
X119357142Y-92480761D01*
X119500000Y-92528380D01*
X119738095Y-92528380D01*
X118214285Y-91576000D02*
X118309523Y-91528380D01*
X118452380Y-91528380D01*
X118595238Y-91576000D01*
X118690476Y-91671238D01*
X118738095Y-91766476D01*
X118785714Y-91956952D01*
X118785714Y-92099809D01*
X118738095Y-92290285D01*
X118690476Y-92385523D01*
X118595238Y-92480761D01*
X118452380Y-92528380D01*
X118357142Y-92528380D01*
X118214285Y-92480761D01*
X118166666Y-92433142D01*
X118166666Y-92099809D01*
X118357142Y-92099809D01*
X117785714Y-91623619D02*
X117738095Y-91576000D01*
X117642857Y-91528380D01*
X117404761Y-91528380D01*
X117309523Y-91576000D01*
X117261904Y-91623619D01*
X117214285Y-91718857D01*
X117214285Y-91814095D01*
X117261904Y-91956952D01*
X117833333Y-92528380D01*
X117214285Y-92528380D01*
%TO.C,DB3*%
X106720880Y-78898904D02*
X105720880Y-78898904D01*
X105720880Y-79137000D01*
X105768500Y-79279857D01*
X105863738Y-79375095D01*
X105958976Y-79422714D01*
X106149452Y-79470333D01*
X106292309Y-79470333D01*
X106482785Y-79422714D01*
X106578023Y-79375095D01*
X106673261Y-79279857D01*
X106720880Y-79137000D01*
X106720880Y-78898904D01*
X106197071Y-80232238D02*
X106244690Y-80375095D01*
X106292309Y-80422714D01*
X106387547Y-80470333D01*
X106530404Y-80470333D01*
X106625642Y-80422714D01*
X106673261Y-80375095D01*
X106720880Y-80279857D01*
X106720880Y-79898904D01*
X105720880Y-79898904D01*
X105720880Y-80232238D01*
X105768500Y-80327476D01*
X105816119Y-80375095D01*
X105911357Y-80422714D01*
X106006595Y-80422714D01*
X106101833Y-80375095D01*
X106149452Y-80327476D01*
X106197071Y-80232238D01*
X106197071Y-79898904D01*
X105720880Y-80803666D02*
X105720880Y-81422714D01*
X106101833Y-81089380D01*
X106101833Y-81232238D01*
X106149452Y-81327476D01*
X106197071Y-81375095D01*
X106292309Y-81422714D01*
X106530404Y-81422714D01*
X106625642Y-81375095D01*
X106673261Y-81327476D01*
X106720880Y-81232238D01*
X106720880Y-80946523D01*
X106673261Y-80851285D01*
X106625642Y-80803666D01*
%TO.C,DB1*%
X90963595Y-130406380D02*
X90963595Y-129406380D01*
X90725500Y-129406380D01*
X90582642Y-129454000D01*
X90487404Y-129549238D01*
X90439785Y-129644476D01*
X90392166Y-129834952D01*
X90392166Y-129977809D01*
X90439785Y-130168285D01*
X90487404Y-130263523D01*
X90582642Y-130358761D01*
X90725500Y-130406380D01*
X90963595Y-130406380D01*
X89630261Y-129882571D02*
X89487404Y-129930190D01*
X89439785Y-129977809D01*
X89392166Y-130073047D01*
X89392166Y-130215904D01*
X89439785Y-130311142D01*
X89487404Y-130358761D01*
X89582642Y-130406380D01*
X89963595Y-130406380D01*
X89963595Y-129406380D01*
X89630261Y-129406380D01*
X89535023Y-129454000D01*
X89487404Y-129501619D01*
X89439785Y-129596857D01*
X89439785Y-129692095D01*
X89487404Y-129787333D01*
X89535023Y-129834952D01*
X89630261Y-129882571D01*
X89963595Y-129882571D01*
X88439785Y-130406380D02*
X89011214Y-130406380D01*
X88725500Y-130406380D02*
X88725500Y-129406380D01*
X88820738Y-129549238D01*
X88915976Y-129644476D01*
X89011214Y-129692095D01*
%TD*%
M02*
