%TF.GenerationSoftware,KiCad,Pcbnew,(5.1.8)-1*%
%TF.CreationDate,2021-11-03T02:03:20+01:00*%
%TF.ProjectId,_autosave-BaumOben,5f617574-6f73-4617-9665-2d4261756d4f,rev?*%
%TF.SameCoordinates,Original*%
%TF.FileFunction,Soldermask,Top*%
%TF.FilePolarity,Negative*%
%FSLAX46Y46*%
G04 Gerber Fmt 4.6, Leading zero omitted, Abs format (unit mm)*
G04 Created by KiCad (PCBNEW (5.1.8)-1) date 2021-11-03 02:03:20*
%MOMM*%
%LPD*%
G01*
G04 APERTURE LIST*
%ADD10C,0.100000*%
G04 APERTURE END LIST*
D10*
G36*
X114808000Y-150495000D02*
G01*
X86296500Y-150495000D01*
X86106000Y-146050000D01*
X114871500Y-145986500D01*
X114808000Y-150495000D01*
G37*
X114808000Y-150495000D02*
X86296500Y-150495000D01*
X86106000Y-146050000D01*
X114871500Y-145986500D01*
X114808000Y-150495000D01*
%TO.C,C1*%
G36*
G01*
X92049100Y-144573857D02*
X92049100Y-143258943D01*
G75*
G02*
X92316643Y-142991400I267543J0D01*
G01*
X93306557Y-142991400D01*
G75*
G02*
X93574100Y-143258943I0J-267543D01*
G01*
X93574100Y-144573857D01*
G75*
G02*
X93306557Y-144841400I-267543J0D01*
G01*
X92316643Y-144841400D01*
G75*
G02*
X92049100Y-144573857I0J267543D01*
G01*
G37*
G36*
G01*
X89074100Y-144573857D02*
X89074100Y-143258943D01*
G75*
G02*
X89341643Y-142991400I267543J0D01*
G01*
X90331557Y-142991400D01*
G75*
G02*
X90599100Y-143258943I0J-267543D01*
G01*
X90599100Y-144573857D01*
G75*
G02*
X90331557Y-144841400I-267543J0D01*
G01*
X89341643Y-144841400D01*
G75*
G02*
X89074100Y-144573857I0J267543D01*
G01*
G37*
%TD*%
%TO.C,R10*%
G36*
G01*
X90951000Y-131224762D02*
X90951000Y-130268238D01*
G75*
G02*
X91222738Y-129996500I271738J0D01*
G01*
X91929262Y-129996500D01*
G75*
G02*
X92201000Y-130268238I0J-271738D01*
G01*
X92201000Y-131224762D01*
G75*
G02*
X91929262Y-131496500I-271738J0D01*
G01*
X91222738Y-131496500D01*
G75*
G02*
X90951000Y-131224762I0J271738D01*
G01*
G37*
G36*
G01*
X88901000Y-131224762D02*
X88901000Y-130268238D01*
G75*
G02*
X89172738Y-129996500I271738J0D01*
G01*
X89879262Y-129996500D01*
G75*
G02*
X90151000Y-130268238I0J-271738D01*
G01*
X90151000Y-131224762D01*
G75*
G02*
X89879262Y-131496500I-271738J0D01*
G01*
X89172738Y-131496500D01*
G75*
G02*
X88901000Y-131224762I0J271738D01*
G01*
G37*
%TD*%
%TO.C,R8*%
G36*
G01*
X109952262Y-125457000D02*
X108995738Y-125457000D01*
G75*
G02*
X108724000Y-125185262I0J271738D01*
G01*
X108724000Y-124478738D01*
G75*
G02*
X108995738Y-124207000I271738J0D01*
G01*
X109952262Y-124207000D01*
G75*
G02*
X110224000Y-124478738I0J-271738D01*
G01*
X110224000Y-125185262D01*
G75*
G02*
X109952262Y-125457000I-271738J0D01*
G01*
G37*
G36*
G01*
X109952262Y-127507000D02*
X108995738Y-127507000D01*
G75*
G02*
X108724000Y-127235262I0J271738D01*
G01*
X108724000Y-126528738D01*
G75*
G02*
X108995738Y-126257000I271738J0D01*
G01*
X109952262Y-126257000D01*
G75*
G02*
X110224000Y-126528738I0J-271738D01*
G01*
X110224000Y-127235262D01*
G75*
G02*
X109952262Y-127507000I-271738J0D01*
G01*
G37*
%TD*%
%TO.C,R7*%
G36*
G01*
X95967500Y-112619262D02*
X95967500Y-111662738D01*
G75*
G02*
X96239238Y-111391000I271738J0D01*
G01*
X96945762Y-111391000D01*
G75*
G02*
X97217500Y-111662738I0J-271738D01*
G01*
X97217500Y-112619262D01*
G75*
G02*
X96945762Y-112891000I-271738J0D01*
G01*
X96239238Y-112891000D01*
G75*
G02*
X95967500Y-112619262I0J271738D01*
G01*
G37*
G36*
G01*
X93917500Y-112619262D02*
X93917500Y-111662738D01*
G75*
G02*
X94189238Y-111391000I271738J0D01*
G01*
X94895762Y-111391000D01*
G75*
G02*
X95167500Y-111662738I0J-271738D01*
G01*
X95167500Y-112619262D01*
G75*
G02*
X94895762Y-112891000I-271738J0D01*
G01*
X94189238Y-112891000D01*
G75*
G02*
X93917500Y-112619262I0J271738D01*
G01*
G37*
%TD*%
%TO.C,R3*%
G36*
G01*
X105312738Y-74695000D02*
X106269262Y-74695000D01*
G75*
G02*
X106541000Y-74966738I0J-271738D01*
G01*
X106541000Y-75673262D01*
G75*
G02*
X106269262Y-75945000I-271738J0D01*
G01*
X105312738Y-75945000D01*
G75*
G02*
X105041000Y-75673262I0J271738D01*
G01*
X105041000Y-74966738D01*
G75*
G02*
X105312738Y-74695000I271738J0D01*
G01*
G37*
G36*
G01*
X105312738Y-72645000D02*
X106269262Y-72645000D01*
G75*
G02*
X106541000Y-72916738I0J-271738D01*
G01*
X106541000Y-73623262D01*
G75*
G02*
X106269262Y-73895000I-271738J0D01*
G01*
X105312738Y-73895000D01*
G75*
G02*
X105041000Y-73623262I0J271738D01*
G01*
X105041000Y-72916738D01*
G75*
G02*
X105312738Y-72645000I271738J0D01*
G01*
G37*
%TD*%
%TO.C,R1*%
G36*
G01*
X110837238Y-95722500D02*
X111793762Y-95722500D01*
G75*
G02*
X112065500Y-95994238I0J-271738D01*
G01*
X112065500Y-96700762D01*
G75*
G02*
X111793762Y-96972500I-271738J0D01*
G01*
X110837238Y-96972500D01*
G75*
G02*
X110565500Y-96700762I0J271738D01*
G01*
X110565500Y-95994238D01*
G75*
G02*
X110837238Y-95722500I271738J0D01*
G01*
G37*
G36*
G01*
X110837238Y-93672500D02*
X111793762Y-93672500D01*
G75*
G02*
X112065500Y-93944238I0J-271738D01*
G01*
X112065500Y-94650762D01*
G75*
G02*
X111793762Y-94922500I-271738J0D01*
G01*
X110837238Y-94922500D01*
G75*
G02*
X110565500Y-94650762I0J271738D01*
G01*
X110565500Y-93944238D01*
G75*
G02*
X110837238Y-93672500I271738J0D01*
G01*
G37*
%TD*%
%TO.C,DY8*%
G36*
G01*
X93745000Y-99347762D02*
X93745000Y-98391238D01*
G75*
G02*
X94016738Y-98119500I271738J0D01*
G01*
X94723262Y-98119500D01*
G75*
G02*
X94995000Y-98391238I0J-271738D01*
G01*
X94995000Y-99347762D01*
G75*
G02*
X94723262Y-99619500I-271738J0D01*
G01*
X94016738Y-99619500D01*
G75*
G02*
X93745000Y-99347762I0J271738D01*
G01*
G37*
G36*
G01*
X91695000Y-99347762D02*
X91695000Y-98391238D01*
G75*
G02*
X91966738Y-98119500I271738J0D01*
G01*
X92673262Y-98119500D01*
G75*
G02*
X92945000Y-98391238I0J-271738D01*
G01*
X92945000Y-99347762D01*
G75*
G02*
X92673262Y-99619500I-271738J0D01*
G01*
X91966738Y-99619500D01*
G75*
G02*
X91695000Y-99347762I0J271738D01*
G01*
G37*
%TD*%
%TO.C,DY6*%
G36*
G01*
X109747000Y-71598262D02*
X109747000Y-70641738D01*
G75*
G02*
X110018738Y-70370000I271738J0D01*
G01*
X110725262Y-70370000D01*
G75*
G02*
X110997000Y-70641738I0J-271738D01*
G01*
X110997000Y-71598262D01*
G75*
G02*
X110725262Y-71870000I-271738J0D01*
G01*
X110018738Y-71870000D01*
G75*
G02*
X109747000Y-71598262I0J271738D01*
G01*
G37*
G36*
G01*
X107697000Y-71598262D02*
X107697000Y-70641738D01*
G75*
G02*
X107968738Y-70370000I271738J0D01*
G01*
X108675262Y-70370000D01*
G75*
G02*
X108947000Y-70641738I0J-271738D01*
G01*
X108947000Y-71598262D01*
G75*
G02*
X108675262Y-71870000I-271738J0D01*
G01*
X107968738Y-71870000D01*
G75*
G02*
X107697000Y-71598262I0J271738D01*
G01*
G37*
%TD*%
%TO.C,DY4*%
G36*
G01*
X111233000Y-89310738D02*
X111233000Y-90267262D01*
G75*
G02*
X110961262Y-90539000I-271738J0D01*
G01*
X110254738Y-90539000D01*
G75*
G02*
X109983000Y-90267262I0J271738D01*
G01*
X109983000Y-89310738D01*
G75*
G02*
X110254738Y-89039000I271738J0D01*
G01*
X110961262Y-89039000D01*
G75*
G02*
X111233000Y-89310738I0J-271738D01*
G01*
G37*
G36*
G01*
X113283000Y-89310738D02*
X113283000Y-90267262D01*
G75*
G02*
X113011262Y-90539000I-271738J0D01*
G01*
X112304738Y-90539000D01*
G75*
G02*
X112033000Y-90267262I0J271738D01*
G01*
X112033000Y-89310738D01*
G75*
G02*
X112304738Y-89039000I271738J0D01*
G01*
X113011262Y-89039000D01*
G75*
G02*
X113283000Y-89310738I0J-271738D01*
G01*
G37*
%TD*%
%TO.C,DY1*%
G36*
G01*
X88030000Y-120937762D02*
X88030000Y-119981238D01*
G75*
G02*
X88301738Y-119709500I271738J0D01*
G01*
X89008262Y-119709500D01*
G75*
G02*
X89280000Y-119981238I0J-271738D01*
G01*
X89280000Y-120937762D01*
G75*
G02*
X89008262Y-121209500I-271738J0D01*
G01*
X88301738Y-121209500D01*
G75*
G02*
X88030000Y-120937762I0J271738D01*
G01*
G37*
G36*
G01*
X85980000Y-120937762D02*
X85980000Y-119981238D01*
G75*
G02*
X86251738Y-119709500I271738J0D01*
G01*
X86958262Y-119709500D01*
G75*
G02*
X87230000Y-119981238I0J-271738D01*
G01*
X87230000Y-120937762D01*
G75*
G02*
X86958262Y-121209500I-271738J0D01*
G01*
X86251738Y-121209500D01*
G75*
G02*
X85980000Y-120937762I0J271738D01*
G01*
G37*
%TD*%
%TO.C,DR7*%
G36*
G01*
X87141000Y-90902262D02*
X87141000Y-89945738D01*
G75*
G02*
X87412738Y-89674000I271738J0D01*
G01*
X88119262Y-89674000D01*
G75*
G02*
X88391000Y-89945738I0J-271738D01*
G01*
X88391000Y-90902262D01*
G75*
G02*
X88119262Y-91174000I-271738J0D01*
G01*
X87412738Y-91174000D01*
G75*
G02*
X87141000Y-90902262I0J271738D01*
G01*
G37*
G36*
G01*
X85091000Y-90902262D02*
X85091000Y-89945738D01*
G75*
G02*
X85362738Y-89674000I271738J0D01*
G01*
X86069262Y-89674000D01*
G75*
G02*
X86341000Y-89945738I0J-271738D01*
G01*
X86341000Y-90902262D01*
G75*
G02*
X86069262Y-91174000I-271738J0D01*
G01*
X85362738Y-91174000D01*
G75*
G02*
X85091000Y-90902262I0J271738D01*
G01*
G37*
%TD*%
%TO.C,DR5*%
G36*
G01*
X117430500Y-115540262D02*
X117430500Y-114583738D01*
G75*
G02*
X117702238Y-114312000I271738J0D01*
G01*
X118408762Y-114312000D01*
G75*
G02*
X118680500Y-114583738I0J-271738D01*
G01*
X118680500Y-115540262D01*
G75*
G02*
X118408762Y-115812000I-271738J0D01*
G01*
X117702238Y-115812000D01*
G75*
G02*
X117430500Y-115540262I0J271738D01*
G01*
G37*
G36*
G01*
X115380500Y-115540262D02*
X115380500Y-114583738D01*
G75*
G02*
X115652238Y-114312000I271738J0D01*
G01*
X116358762Y-114312000D01*
G75*
G02*
X116630500Y-114583738I0J-271738D01*
G01*
X116630500Y-115540262D01*
G75*
G02*
X116358762Y-115812000I-271738J0D01*
G01*
X115652238Y-115812000D01*
G75*
G02*
X115380500Y-115540262I0J271738D01*
G01*
G37*
%TD*%
%TO.C,DR3*%
G36*
G01*
X104184500Y-64228238D02*
X104184500Y-65184762D01*
G75*
G02*
X103912762Y-65456500I-271738J0D01*
G01*
X103206238Y-65456500D01*
G75*
G02*
X102934500Y-65184762I0J271738D01*
G01*
X102934500Y-64228238D01*
G75*
G02*
X103206238Y-63956500I271738J0D01*
G01*
X103912762Y-63956500D01*
G75*
G02*
X104184500Y-64228238I0J-271738D01*
G01*
G37*
G36*
G01*
X106234500Y-64228238D02*
X106234500Y-65184762D01*
G75*
G02*
X105962762Y-65456500I-271738J0D01*
G01*
X105256238Y-65456500D01*
G75*
G02*
X104984500Y-65184762I0J271738D01*
G01*
X104984500Y-64228238D01*
G75*
G02*
X105256238Y-63956500I271738J0D01*
G01*
X105962762Y-63956500D01*
G75*
G02*
X106234500Y-64228238I0J-271738D01*
G01*
G37*
%TD*%
%TO.C,DR1*%
G36*
G01*
X77171500Y-125827262D02*
X77171500Y-124870738D01*
G75*
G02*
X77443238Y-124599000I271738J0D01*
G01*
X78149762Y-124599000D01*
G75*
G02*
X78421500Y-124870738I0J-271738D01*
G01*
X78421500Y-125827262D01*
G75*
G02*
X78149762Y-126099000I-271738J0D01*
G01*
X77443238Y-126099000D01*
G75*
G02*
X77171500Y-125827262I0J271738D01*
G01*
G37*
G36*
G01*
X75121500Y-125827262D02*
X75121500Y-124870738D01*
G75*
G02*
X75393238Y-124599000I271738J0D01*
G01*
X76099762Y-124599000D01*
G75*
G02*
X76371500Y-124870738I0J-271738D01*
G01*
X76371500Y-125827262D01*
G75*
G02*
X76099762Y-126099000I-271738J0D01*
G01*
X75393238Y-126099000D01*
G75*
G02*
X75121500Y-125827262I0J271738D01*
G01*
G37*
%TD*%
%TO.C,DG7*%
G36*
G01*
X89906000Y-72483238D02*
X89906000Y-73439762D01*
G75*
G02*
X89634262Y-73711500I-271738J0D01*
G01*
X88927738Y-73711500D01*
G75*
G02*
X88656000Y-73439762I0J271738D01*
G01*
X88656000Y-72483238D01*
G75*
G02*
X88927738Y-72211500I271738J0D01*
G01*
X89634262Y-72211500D01*
G75*
G02*
X89906000Y-72483238I0J-271738D01*
G01*
G37*
G36*
G01*
X91956000Y-72483238D02*
X91956000Y-73439762D01*
G75*
G02*
X91684262Y-73711500I-271738J0D01*
G01*
X90977738Y-73711500D01*
G75*
G02*
X90706000Y-73439762I0J271738D01*
G01*
X90706000Y-72483238D01*
G75*
G02*
X90977738Y-72211500I271738J0D01*
G01*
X91684262Y-72211500D01*
G75*
G02*
X91956000Y-72483238I0J-271738D01*
G01*
G37*
%TD*%
%TO.C,DG5*%
G36*
G01*
X125368000Y-125001762D02*
X125368000Y-124045238D01*
G75*
G02*
X125639738Y-123773500I271738J0D01*
G01*
X126346262Y-123773500D01*
G75*
G02*
X126618000Y-124045238I0J-271738D01*
G01*
X126618000Y-125001762D01*
G75*
G02*
X126346262Y-125273500I-271738J0D01*
G01*
X125639738Y-125273500D01*
G75*
G02*
X125368000Y-125001762I0J271738D01*
G01*
G37*
G36*
G01*
X123318000Y-125001762D02*
X123318000Y-124045238D01*
G75*
G02*
X123589738Y-123773500I271738J0D01*
G01*
X124296262Y-123773500D01*
G75*
G02*
X124568000Y-124045238I0J-271738D01*
G01*
X124568000Y-125001762D01*
G75*
G02*
X124296262Y-125273500I-271738J0D01*
G01*
X123589738Y-125273500D01*
G75*
G02*
X123318000Y-125001762I0J271738D01*
G01*
G37*
%TD*%
%TO.C,DG3*%
G36*
G01*
X107524500Y-118270762D02*
X107524500Y-117314238D01*
G75*
G02*
X107796238Y-117042500I271738J0D01*
G01*
X108502762Y-117042500D01*
G75*
G02*
X108774500Y-117314238I0J-271738D01*
G01*
X108774500Y-118270762D01*
G75*
G02*
X108502762Y-118542500I-271738J0D01*
G01*
X107796238Y-118542500D01*
G75*
G02*
X107524500Y-118270762I0J271738D01*
G01*
G37*
G36*
G01*
X105474500Y-118270762D02*
X105474500Y-117314238D01*
G75*
G02*
X105746238Y-117042500I271738J0D01*
G01*
X106452762Y-117042500D01*
G75*
G02*
X106724500Y-117314238I0J-271738D01*
G01*
X106724500Y-118270762D01*
G75*
G02*
X106452762Y-118542500I-271738J0D01*
G01*
X105746238Y-118542500D01*
G75*
G02*
X105474500Y-118270762I0J271738D01*
G01*
G37*
%TD*%
%TO.C,DG1*%
G36*
G01*
X95015000Y-80551762D02*
X95015000Y-79595238D01*
G75*
G02*
X95286738Y-79323500I271738J0D01*
G01*
X95993262Y-79323500D01*
G75*
G02*
X96265000Y-79595238I0J-271738D01*
G01*
X96265000Y-80551762D01*
G75*
G02*
X95993262Y-80823500I-271738J0D01*
G01*
X95286738Y-80823500D01*
G75*
G02*
X95015000Y-80551762I0J271738D01*
G01*
G37*
G36*
G01*
X92965000Y-80551762D02*
X92965000Y-79595238D01*
G75*
G02*
X93236738Y-79323500I271738J0D01*
G01*
X93943262Y-79323500D01*
G75*
G02*
X94215000Y-79595238I0J-271738D01*
G01*
X94215000Y-80551762D01*
G75*
G02*
X93943262Y-80823500I-271738J0D01*
G01*
X93236738Y-80823500D01*
G75*
G02*
X92965000Y-80551762I0J271738D01*
G01*
G37*
%TD*%
%TO.C,DB8*%
G36*
G01*
X90660500Y-127516500D02*
X90660500Y-126991500D01*
G75*
G02*
X90923000Y-126729000I262500J0D01*
G01*
X91548000Y-126729000D01*
G75*
G02*
X91810500Y-126991500I0J-262500D01*
G01*
X91810500Y-127516500D01*
G75*
G02*
X91548000Y-127779000I-262500J0D01*
G01*
X90923000Y-127779000D01*
G75*
G02*
X90660500Y-127516500I0J262500D01*
G01*
G37*
G36*
G01*
X88910500Y-127516500D02*
X88910500Y-126991500D01*
G75*
G02*
X89173000Y-126729000I262500J0D01*
G01*
X89798000Y-126729000D01*
G75*
G02*
X90060500Y-126991500I0J-262500D01*
G01*
X90060500Y-127516500D01*
G75*
G02*
X89798000Y-127779000I-262500J0D01*
G01*
X89173000Y-127779000D01*
G75*
G02*
X88910500Y-127516500I0J262500D01*
G01*
G37*
%TD*%
%TO.C,DB7*%
G36*
G01*
X109329500Y-81098000D02*
X109329500Y-80573000D01*
G75*
G02*
X109592000Y-80310500I262500J0D01*
G01*
X110217000Y-80310500D01*
G75*
G02*
X110479500Y-80573000I0J-262500D01*
G01*
X110479500Y-81098000D01*
G75*
G02*
X110217000Y-81360500I-262500J0D01*
G01*
X109592000Y-81360500D01*
G75*
G02*
X109329500Y-81098000I0J262500D01*
G01*
G37*
G36*
G01*
X107579500Y-81098000D02*
X107579500Y-80573000D01*
G75*
G02*
X107842000Y-80310500I262500J0D01*
G01*
X108467000Y-80310500D01*
G75*
G02*
X108729500Y-80573000I0J-262500D01*
G01*
X108729500Y-81098000D01*
G75*
G02*
X108467000Y-81360500I-262500J0D01*
G01*
X107842000Y-81360500D01*
G75*
G02*
X107579500Y-81098000I0J262500D01*
G01*
G37*
%TD*%
%TO.C,DB4*%
G36*
G01*
X105101000Y-125557000D02*
X104576000Y-125557000D01*
G75*
G02*
X104313500Y-125294500I0J262500D01*
G01*
X104313500Y-124669500D01*
G75*
G02*
X104576000Y-124407000I262500J0D01*
G01*
X105101000Y-124407000D01*
G75*
G02*
X105363500Y-124669500I0J-262500D01*
G01*
X105363500Y-125294500D01*
G75*
G02*
X105101000Y-125557000I-262500J0D01*
G01*
G37*
G36*
G01*
X105101000Y-127307000D02*
X104576000Y-127307000D01*
G75*
G02*
X104313500Y-127044500I0J262500D01*
G01*
X104313500Y-126419500D01*
G75*
G02*
X104576000Y-126157000I262500J0D01*
G01*
X105101000Y-126157000D01*
G75*
G02*
X105363500Y-126419500I0J-262500D01*
G01*
X105363500Y-127044500D01*
G75*
G02*
X105101000Y-127307000I-262500J0D01*
G01*
G37*
%TD*%
%TO.C,DB2*%
G36*
G01*
X95740500Y-109800000D02*
X95740500Y-109275000D01*
G75*
G02*
X96003000Y-109012500I262500J0D01*
G01*
X96628000Y-109012500D01*
G75*
G02*
X96890500Y-109275000I0J-262500D01*
G01*
X96890500Y-109800000D01*
G75*
G02*
X96628000Y-110062500I-262500J0D01*
G01*
X96003000Y-110062500D01*
G75*
G02*
X95740500Y-109800000I0J262500D01*
G01*
G37*
G36*
G01*
X93990500Y-109800000D02*
X93990500Y-109275000D01*
G75*
G02*
X94253000Y-109012500I262500J0D01*
G01*
X94878000Y-109012500D01*
G75*
G02*
X95140500Y-109275000I0J-262500D01*
G01*
X95140500Y-109800000D01*
G75*
G02*
X94878000Y-110062500I-262500J0D01*
G01*
X94253000Y-110062500D01*
G75*
G02*
X93990500Y-109800000I0J262500D01*
G01*
G37*
%TD*%
M02*
