%TF.GenerationSoftware,KiCad,Pcbnew,(5.1.6)-1*%
%TF.CreationDate,2021-10-27T13:00:29+02:00*%
%TF.ProjectId,_autosave-BaumOben,5f617574-6f73-4617-9665-2d4261756d4f,rev?*%
%TF.SameCoordinates,Original*%
%TF.FileFunction,Soldermask,Bot*%
%TF.FilePolarity,Negative*%
%FSLAX46Y46*%
G04 Gerber Fmt 4.6, Leading zero omitted, Abs format (unit mm)*
G04 Created by KiCad (PCBNEW (5.1.6)-1) date 2021-10-27 13:00:29*
%MOMM*%
%LPD*%
G01*
G04 APERTURE LIST*
%ADD10C,0.100000*%
G04 APERTURE END LIST*
D10*
G36*
X114998500Y-150558500D02*
G01*
X86233000Y-150622000D01*
X86296500Y-145986500D01*
X114935000Y-145923000D01*
X114998500Y-150558500D01*
G37*
X114998500Y-150558500D02*
X86233000Y-150622000D01*
X86296500Y-145986500D01*
X114935000Y-145923000D01*
X114998500Y-150558500D01*
%TO.C,C2*%
G36*
G01*
X107405000Y-143964256D02*
X107405000Y-142649344D01*
G75*
G02*
X107672544Y-142381800I267544J0D01*
G01*
X108662456Y-142381800D01*
G75*
G02*
X108930000Y-142649344I0J-267544D01*
G01*
X108930000Y-143964256D01*
G75*
G02*
X108662456Y-144231800I-267544J0D01*
G01*
X107672544Y-144231800D01*
G75*
G02*
X107405000Y-143964256I0J267544D01*
G01*
G37*
G36*
G01*
X104430000Y-143964256D02*
X104430000Y-142649344D01*
G75*
G02*
X104697544Y-142381800I267544J0D01*
G01*
X105687456Y-142381800D01*
G75*
G02*
X105955000Y-142649344I0J-267544D01*
G01*
X105955000Y-143964256D01*
G75*
G02*
X105687456Y-144231800I-267544J0D01*
G01*
X104697544Y-144231800D01*
G75*
G02*
X104430000Y-143964256I0J267544D01*
G01*
G37*
%TD*%
%TO.C,R9*%
G36*
G01*
X108921500Y-99093762D02*
X108921500Y-98137238D01*
G75*
G02*
X109193238Y-97865500I271738J0D01*
G01*
X109899762Y-97865500D01*
G75*
G02*
X110171500Y-98137238I0J-271738D01*
G01*
X110171500Y-99093762D01*
G75*
G02*
X109899762Y-99365500I-271738J0D01*
G01*
X109193238Y-99365500D01*
G75*
G02*
X108921500Y-99093762I0J271738D01*
G01*
G37*
G36*
G01*
X106871500Y-99093762D02*
X106871500Y-98137238D01*
G75*
G02*
X107143238Y-97865500I271738J0D01*
G01*
X107849762Y-97865500D01*
G75*
G02*
X108121500Y-98137238I0J-271738D01*
G01*
X108121500Y-99093762D01*
G75*
G02*
X107849762Y-99365500I-271738J0D01*
G01*
X107143238Y-99365500D01*
G75*
G02*
X106871500Y-99093762I0J271738D01*
G01*
G37*
%TD*%
%TO.C,R6*%
G36*
G01*
X97375238Y-80410000D02*
X98331762Y-80410000D01*
G75*
G02*
X98603500Y-80681738I0J-271738D01*
G01*
X98603500Y-81388262D01*
G75*
G02*
X98331762Y-81660000I-271738J0D01*
G01*
X97375238Y-81660000D01*
G75*
G02*
X97103500Y-81388262I0J271738D01*
G01*
X97103500Y-80681738D01*
G75*
G02*
X97375238Y-80410000I271738J0D01*
G01*
G37*
G36*
G01*
X97375238Y-78360000D02*
X98331762Y-78360000D01*
G75*
G02*
X98603500Y-78631738I0J-271738D01*
G01*
X98603500Y-79338262D01*
G75*
G02*
X98331762Y-79610000I-271738J0D01*
G01*
X97375238Y-79610000D01*
G75*
G02*
X97103500Y-79338262I0J271738D01*
G01*
X97103500Y-78631738D01*
G75*
G02*
X97375238Y-78360000I271738J0D01*
G01*
G37*
%TD*%
%TO.C,R5*%
G36*
G01*
X104550738Y-134321500D02*
X105507262Y-134321500D01*
G75*
G02*
X105779000Y-134593238I0J-271738D01*
G01*
X105779000Y-135299762D01*
G75*
G02*
X105507262Y-135571500I-271738J0D01*
G01*
X104550738Y-135571500D01*
G75*
G02*
X104279000Y-135299762I0J271738D01*
G01*
X104279000Y-134593238D01*
G75*
G02*
X104550738Y-134321500I271738J0D01*
G01*
G37*
G36*
G01*
X104550738Y-132271500D02*
X105507262Y-132271500D01*
G75*
G02*
X105779000Y-132543238I0J-271738D01*
G01*
X105779000Y-133249762D01*
G75*
G02*
X105507262Y-133521500I-271738J0D01*
G01*
X104550738Y-133521500D01*
G75*
G02*
X104279000Y-133249762I0J271738D01*
G01*
X104279000Y-132543238D01*
G75*
G02*
X104550738Y-132271500I271738J0D01*
G01*
G37*
%TD*%
%TO.C,R4*%
G36*
G01*
X93872000Y-117762762D02*
X93872000Y-116806238D01*
G75*
G02*
X94143738Y-116534500I271738J0D01*
G01*
X94850262Y-116534500D01*
G75*
G02*
X95122000Y-116806238I0J-271738D01*
G01*
X95122000Y-117762762D01*
G75*
G02*
X94850262Y-118034500I-271738J0D01*
G01*
X94143738Y-118034500D01*
G75*
G02*
X93872000Y-117762762I0J271738D01*
G01*
G37*
G36*
G01*
X91822000Y-117762762D02*
X91822000Y-116806238D01*
G75*
G02*
X92093738Y-116534500I271738J0D01*
G01*
X92800262Y-116534500D01*
G75*
G02*
X93072000Y-116806238I0J-271738D01*
G01*
X93072000Y-117762762D01*
G75*
G02*
X92800262Y-118034500I-271738J0D01*
G01*
X92093738Y-118034500D01*
G75*
G02*
X91822000Y-117762762I0J271738D01*
G01*
G37*
%TD*%
%TO.C,R2*%
G36*
G01*
X96105238Y-103406000D02*
X97061762Y-103406000D01*
G75*
G02*
X97333500Y-103677738I0J-271738D01*
G01*
X97333500Y-104384262D01*
G75*
G02*
X97061762Y-104656000I-271738J0D01*
G01*
X96105238Y-104656000D01*
G75*
G02*
X95833500Y-104384262I0J271738D01*
G01*
X95833500Y-103677738D01*
G75*
G02*
X96105238Y-103406000I271738J0D01*
G01*
G37*
G36*
G01*
X96105238Y-101356000D02*
X97061762Y-101356000D01*
G75*
G02*
X97333500Y-101627738I0J-271738D01*
G01*
X97333500Y-102334262D01*
G75*
G02*
X97061762Y-102606000I-271738J0D01*
G01*
X96105238Y-102606000D01*
G75*
G02*
X95833500Y-102334262I0J271738D01*
G01*
X95833500Y-101627738D01*
G75*
G02*
X96105238Y-101356000I271738J0D01*
G01*
G37*
%TD*%
%TO.C,DY7*%
G36*
G01*
X95713500Y-69883762D02*
X95713500Y-68927238D01*
G75*
G02*
X95985238Y-68655500I271738J0D01*
G01*
X96691762Y-68655500D01*
G75*
G02*
X96963500Y-68927238I0J-271738D01*
G01*
X96963500Y-69883762D01*
G75*
G02*
X96691762Y-70155500I-271738J0D01*
G01*
X95985238Y-70155500D01*
G75*
G02*
X95713500Y-69883762I0J271738D01*
G01*
G37*
G36*
G01*
X93663500Y-69883762D02*
X93663500Y-68927238D01*
G75*
G02*
X93935238Y-68655500I271738J0D01*
G01*
X94641762Y-68655500D01*
G75*
G02*
X94913500Y-68927238I0J-271738D01*
G01*
X94913500Y-69883762D01*
G75*
G02*
X94641762Y-70155500I-271738J0D01*
G01*
X93935238Y-70155500D01*
G75*
G02*
X93663500Y-69883762I0J271738D01*
G01*
G37*
%TD*%
%TO.C,DY5*%
G36*
G01*
X117250738Y-124987000D02*
X118207262Y-124987000D01*
G75*
G02*
X118479000Y-125258738I0J-271738D01*
G01*
X118479000Y-125965262D01*
G75*
G02*
X118207262Y-126237000I-271738J0D01*
G01*
X117250738Y-126237000D01*
G75*
G02*
X116979000Y-125965262I0J271738D01*
G01*
X116979000Y-125258738D01*
G75*
G02*
X117250738Y-124987000I271738J0D01*
G01*
G37*
G36*
G01*
X117250738Y-122937000D02*
X118207262Y-122937000D01*
G75*
G02*
X118479000Y-123208738I0J-271738D01*
G01*
X118479000Y-123915262D01*
G75*
G02*
X118207262Y-124187000I-271738J0D01*
G01*
X117250738Y-124187000D01*
G75*
G02*
X116979000Y-123915262I0J271738D01*
G01*
X116979000Y-123208738D01*
G75*
G02*
X117250738Y-122937000I271738J0D01*
G01*
G37*
%TD*%
%TO.C,DY3*%
G36*
G01*
X92246500Y-84294238D02*
X92246500Y-85250762D01*
G75*
G02*
X91974762Y-85522500I-271738J0D01*
G01*
X91268238Y-85522500D01*
G75*
G02*
X90996500Y-85250762I0J271738D01*
G01*
X90996500Y-84294238D01*
G75*
G02*
X91268238Y-84022500I271738J0D01*
G01*
X91974762Y-84022500D01*
G75*
G02*
X92246500Y-84294238I0J-271738D01*
G01*
G37*
G36*
G01*
X94296500Y-84294238D02*
X94296500Y-85250762D01*
G75*
G02*
X94024762Y-85522500I-271738J0D01*
G01*
X93318238Y-85522500D01*
G75*
G02*
X93046500Y-85250762I0J271738D01*
G01*
X93046500Y-84294238D01*
G75*
G02*
X93318238Y-84022500I271738J0D01*
G01*
X94024762Y-84022500D01*
G75*
G02*
X94296500Y-84294238I0J-271738D01*
G01*
G37*
%TD*%
%TO.C,DY2*%
G36*
G01*
X83775500Y-96807762D02*
X83775500Y-95851238D01*
G75*
G02*
X84047238Y-95579500I271738J0D01*
G01*
X84753762Y-95579500D01*
G75*
G02*
X85025500Y-95851238I0J-271738D01*
G01*
X85025500Y-96807762D01*
G75*
G02*
X84753762Y-97079500I-271738J0D01*
G01*
X84047238Y-97079500D01*
G75*
G02*
X83775500Y-96807762I0J271738D01*
G01*
G37*
G36*
G01*
X81725500Y-96807762D02*
X81725500Y-95851238D01*
G75*
G02*
X81997238Y-95579500I271738J0D01*
G01*
X82703762Y-95579500D01*
G75*
G02*
X82975500Y-95851238I0J-271738D01*
G01*
X82975500Y-96807762D01*
G75*
G02*
X82703762Y-97079500I-271738J0D01*
G01*
X81997238Y-97079500D01*
G75*
G02*
X81725500Y-96807762I0J271738D01*
G01*
G37*
%TD*%
%TO.C,DR8*%
G36*
G01*
X92119500Y-112615238D02*
X92119500Y-113571762D01*
G75*
G02*
X91847762Y-113843500I-271738J0D01*
G01*
X91141238Y-113843500D01*
G75*
G02*
X90869500Y-113571762I0J271738D01*
G01*
X90869500Y-112615238D01*
G75*
G02*
X91141238Y-112343500I271738J0D01*
G01*
X91847762Y-112343500D01*
G75*
G02*
X92119500Y-112615238I0J-271738D01*
G01*
G37*
G36*
G01*
X94169500Y-112615238D02*
X94169500Y-113571762D01*
G75*
G02*
X93897762Y-113843500I-271738J0D01*
G01*
X93191238Y-113843500D01*
G75*
G02*
X92919500Y-113571762I0J271738D01*
G01*
X92919500Y-112615238D01*
G75*
G02*
X93191238Y-112343500I271738J0D01*
G01*
X93897762Y-112343500D01*
G75*
G02*
X94169500Y-112615238I0J-271738D01*
G01*
G37*
%TD*%
%TO.C,DR6*%
G36*
G01*
X110915500Y-106709738D02*
X110915500Y-107666262D01*
G75*
G02*
X110643762Y-107938000I-271738J0D01*
G01*
X109937238Y-107938000D01*
G75*
G02*
X109665500Y-107666262I0J271738D01*
G01*
X109665500Y-106709738D01*
G75*
G02*
X109937238Y-106438000I271738J0D01*
G01*
X110643762Y-106438000D01*
G75*
G02*
X110915500Y-106709738I0J-271738D01*
G01*
G37*
G36*
G01*
X112965500Y-106709738D02*
X112965500Y-107666262D01*
G75*
G02*
X112693762Y-107938000I-271738J0D01*
G01*
X111987238Y-107938000D01*
G75*
G02*
X111715500Y-107666262I0J271738D01*
G01*
X111715500Y-106709738D01*
G75*
G02*
X111987238Y-106438000I271738J0D01*
G01*
X112693762Y-106438000D01*
G75*
G02*
X112965500Y-106709738I0J-271738D01*
G01*
G37*
%TD*%
%TO.C,DR4*%
G36*
G01*
X108032500Y-67851762D02*
X108032500Y-66895238D01*
G75*
G02*
X108304238Y-66623500I271738J0D01*
G01*
X109010762Y-66623500D01*
G75*
G02*
X109282500Y-66895238I0J-271738D01*
G01*
X109282500Y-67851762D01*
G75*
G02*
X109010762Y-68123500I-271738J0D01*
G01*
X108304238Y-68123500D01*
G75*
G02*
X108032500Y-67851762I0J271738D01*
G01*
G37*
G36*
G01*
X105982500Y-67851762D02*
X105982500Y-66895238D01*
G75*
G02*
X106254238Y-66623500I271738J0D01*
G01*
X106960762Y-66623500D01*
G75*
G02*
X107232500Y-66895238I0J-271738D01*
G01*
X107232500Y-67851762D01*
G75*
G02*
X106960762Y-68123500I-271738J0D01*
G01*
X106254238Y-68123500D01*
G75*
G02*
X105982500Y-67851762I0J271738D01*
G01*
G37*
%TD*%
%TO.C,DR2*%
G36*
G01*
X81388000Y-115853738D02*
X81388000Y-116810262D01*
G75*
G02*
X81116262Y-117082000I-271738J0D01*
G01*
X80409738Y-117082000D01*
G75*
G02*
X80138000Y-116810262I0J271738D01*
G01*
X80138000Y-115853738D01*
G75*
G02*
X80409738Y-115582000I271738J0D01*
G01*
X81116262Y-115582000D01*
G75*
G02*
X81388000Y-115853738I0J-271738D01*
G01*
G37*
G36*
G01*
X83438000Y-115853738D02*
X83438000Y-116810262D01*
G75*
G02*
X83166262Y-117082000I-271738J0D01*
G01*
X82459738Y-117082000D01*
G75*
G02*
X82188000Y-116810262I0J271738D01*
G01*
X82188000Y-115853738D01*
G75*
G02*
X82459738Y-115582000I271738J0D01*
G01*
X83166262Y-115582000D01*
G75*
G02*
X83438000Y-115853738I0J-271738D01*
G01*
G37*
%TD*%
%TO.C,DG8*%
G36*
G01*
X97061762Y-74720500D02*
X96105238Y-74720500D01*
G75*
G02*
X95833500Y-74448762I0J271738D01*
G01*
X95833500Y-73742238D01*
G75*
G02*
X96105238Y-73470500I271738J0D01*
G01*
X97061762Y-73470500D01*
G75*
G02*
X97333500Y-73742238I0J-271738D01*
G01*
X97333500Y-74448762D01*
G75*
G02*
X97061762Y-74720500I-271738J0D01*
G01*
G37*
G36*
G01*
X97061762Y-76770500D02*
X96105238Y-76770500D01*
G75*
G02*
X95833500Y-76498762I0J271738D01*
G01*
X95833500Y-75792238D01*
G75*
G02*
X96105238Y-75520500I271738J0D01*
G01*
X97061762Y-75520500D01*
G75*
G02*
X97333500Y-75792238I0J-271738D01*
G01*
X97333500Y-76498762D01*
G75*
G02*
X97061762Y-76770500I-271738J0D01*
G01*
G37*
%TD*%
%TO.C,DG6*%
G36*
G01*
X111144000Y-86266762D02*
X111144000Y-85310238D01*
G75*
G02*
X111415738Y-85038500I271738J0D01*
G01*
X112122262Y-85038500D01*
G75*
G02*
X112394000Y-85310238I0J-271738D01*
G01*
X112394000Y-86266762D01*
G75*
G02*
X112122262Y-86538500I-271738J0D01*
G01*
X111415738Y-86538500D01*
G75*
G02*
X111144000Y-86266762I0J271738D01*
G01*
G37*
G36*
G01*
X109094000Y-86266762D02*
X109094000Y-85310238D01*
G75*
G02*
X109365738Y-85038500I271738J0D01*
G01*
X110072262Y-85038500D01*
G75*
G02*
X110344000Y-85310238I0J-271738D01*
G01*
X110344000Y-86266762D01*
G75*
G02*
X110072262Y-86538500I-271738J0D01*
G01*
X109365738Y-86538500D01*
G75*
G02*
X109094000Y-86266762I0J271738D01*
G01*
G37*
%TD*%
%TO.C,DG4*%
G36*
G01*
X105835500Y-129633238D02*
X105835500Y-130589762D01*
G75*
G02*
X105563762Y-130861500I-271738J0D01*
G01*
X104857238Y-130861500D01*
G75*
G02*
X104585500Y-130589762I0J271738D01*
G01*
X104585500Y-129633238D01*
G75*
G02*
X104857238Y-129361500I271738J0D01*
G01*
X105563762Y-129361500D01*
G75*
G02*
X105835500Y-129633238I0J-271738D01*
G01*
G37*
G36*
G01*
X107885500Y-129633238D02*
X107885500Y-130589762D01*
G75*
G02*
X107613762Y-130861500I-271738J0D01*
G01*
X106907238Y-130861500D01*
G75*
G02*
X106635500Y-130589762I0J271738D01*
G01*
X106635500Y-129633238D01*
G75*
G02*
X106907238Y-129361500I271738J0D01*
G01*
X107613762Y-129361500D01*
G75*
G02*
X107885500Y-129633238I0J-271738D01*
G01*
G37*
%TD*%
%TO.C,DG2*%
G36*
G01*
X118100000Y-93247738D02*
X118100000Y-94204262D01*
G75*
G02*
X117828262Y-94476000I-271738J0D01*
G01*
X117121738Y-94476000D01*
G75*
G02*
X116850000Y-94204262I0J271738D01*
G01*
X116850000Y-93247738D01*
G75*
G02*
X117121738Y-92976000I271738J0D01*
G01*
X117828262Y-92976000D01*
G75*
G02*
X118100000Y-93247738I0J-271738D01*
G01*
G37*
G36*
G01*
X120150000Y-93247738D02*
X120150000Y-94204262D01*
G75*
G02*
X119878262Y-94476000I-271738J0D01*
G01*
X119171738Y-94476000D01*
G75*
G02*
X118900000Y-94204262I0J271738D01*
G01*
X118900000Y-93247738D01*
G75*
G02*
X119171738Y-92976000I271738J0D01*
G01*
X119878262Y-92976000D01*
G75*
G02*
X120150000Y-93247738I0J-271738D01*
G01*
G37*
%TD*%
%TO.C,DB6*%
G36*
G01*
X107488000Y-95830000D02*
X107488000Y-95305000D01*
G75*
G02*
X107750500Y-95042500I262500J0D01*
G01*
X108375500Y-95042500D01*
G75*
G02*
X108638000Y-95305000I0J-262500D01*
G01*
X108638000Y-95830000D01*
G75*
G02*
X108375500Y-96092500I-262500J0D01*
G01*
X107750500Y-96092500D01*
G75*
G02*
X107488000Y-95830000I0J262500D01*
G01*
G37*
G36*
G01*
X105738000Y-95830000D02*
X105738000Y-95305000D01*
G75*
G02*
X106000500Y-95042500I262500J0D01*
G01*
X106625500Y-95042500D01*
G75*
G02*
X106888000Y-95305000I0J-262500D01*
G01*
X106888000Y-95830000D01*
G75*
G02*
X106625500Y-96092500I-262500J0D01*
G01*
X106000500Y-96092500D01*
G75*
G02*
X105738000Y-95830000I0J262500D01*
G01*
G37*
%TD*%
%TO.C,DB5*%
G36*
G01*
X129748000Y-124134000D02*
X129748000Y-124659000D01*
G75*
G02*
X129485500Y-124921500I-262500J0D01*
G01*
X128860500Y-124921500D01*
G75*
G02*
X128598000Y-124659000I0J262500D01*
G01*
X128598000Y-124134000D01*
G75*
G02*
X128860500Y-123871500I262500J0D01*
G01*
X129485500Y-123871500D01*
G75*
G02*
X129748000Y-124134000I0J-262500D01*
G01*
G37*
G36*
G01*
X131498000Y-124134000D02*
X131498000Y-124659000D01*
G75*
G02*
X131235500Y-124921500I-262500J0D01*
G01*
X130610500Y-124921500D01*
G75*
G02*
X130348000Y-124659000I0J262500D01*
G01*
X130348000Y-124134000D01*
G75*
G02*
X130610500Y-123871500I262500J0D01*
G01*
X131235500Y-123871500D01*
G75*
G02*
X131498000Y-124134000I0J-262500D01*
G01*
G37*
%TD*%
%TO.C,DB3*%
G36*
G01*
X105101000Y-79837000D02*
X104576000Y-79837000D01*
G75*
G02*
X104313500Y-79574500I0J262500D01*
G01*
X104313500Y-78949500D01*
G75*
G02*
X104576000Y-78687000I262500J0D01*
G01*
X105101000Y-78687000D01*
G75*
G02*
X105363500Y-78949500I0J-262500D01*
G01*
X105363500Y-79574500D01*
G75*
G02*
X105101000Y-79837000I-262500J0D01*
G01*
G37*
G36*
G01*
X105101000Y-81587000D02*
X104576000Y-81587000D01*
G75*
G02*
X104313500Y-81324500I0J262500D01*
G01*
X104313500Y-80699500D01*
G75*
G02*
X104576000Y-80437000I262500J0D01*
G01*
X105101000Y-80437000D01*
G75*
G02*
X105363500Y-80699500I0J-262500D01*
G01*
X105363500Y-81324500D01*
G75*
G02*
X105101000Y-81587000I-262500J0D01*
G01*
G37*
%TD*%
%TO.C,DB1*%
G36*
G01*
X90025500Y-128786500D02*
X90025500Y-128261500D01*
G75*
G02*
X90288000Y-127999000I262500J0D01*
G01*
X90913000Y-127999000D01*
G75*
G02*
X91175500Y-128261500I0J-262500D01*
G01*
X91175500Y-128786500D01*
G75*
G02*
X90913000Y-129049000I-262500J0D01*
G01*
X90288000Y-129049000D01*
G75*
G02*
X90025500Y-128786500I0J262500D01*
G01*
G37*
G36*
G01*
X88275500Y-128786500D02*
X88275500Y-128261500D01*
G75*
G02*
X88538000Y-127999000I262500J0D01*
G01*
X89163000Y-127999000D01*
G75*
G02*
X89425500Y-128261500I0J-262500D01*
G01*
X89425500Y-128786500D01*
G75*
G02*
X89163000Y-129049000I-262500J0D01*
G01*
X88538000Y-129049000D01*
G75*
G02*
X88275500Y-128786500I0J262500D01*
G01*
G37*
%TD*%
M02*
