%TF.GenerationSoftware,KiCad,Pcbnew,(5.1.6)-1*%
%TF.CreationDate,2021-10-19T11:47:46+02:00*%
%TF.ProjectId,_autosave-BaumOben,5f617574-6f73-4617-9665-2d4261756d4f,rev?*%
%TF.SameCoordinates,Original*%
%TF.FileFunction,Profile,NP*%
%FSLAX46Y46*%
G04 Gerber Fmt 4.6, Leading zero omitted, Abs format (unit mm)*
G04 Created by KiCad (PCBNEW (5.1.6)-1) date 2021-10-19 11:47:46*
%MOMM*%
%LPD*%
G01*
G04 APERTURE LIST*
%TA.AperFunction,Profile*%
%ADD10C,0.050000*%
%TD*%
G04 APERTURE END LIST*
D10*
X99949000Y-50609500D02*
X100139501Y-50863499D01*
X99857478Y-50801325D02*
X99949000Y-50609500D01*
X137569290Y-124774417D02*
X137550390Y-124742792D01*
X130117363Y-99543399D02*
X130117040Y-99542932D01*
X130117363Y-99543399D02*
X130117040Y-99542932D01*
X86224748Y-101961790D02*
X86223886Y-101956959D01*
X81407000Y-75755500D02*
X81407001Y-75755499D01*
X81407001Y-75755499D02*
X81407000Y-75755500D01*
X91110269Y-75953228D02*
X91112509Y-75960315D01*
X98425000Y-146685000D02*
X99695000Y-146685000D01*
X98425000Y-149987000D02*
X98425000Y-146685000D01*
X94869000Y-149987000D02*
X98425000Y-149987000D01*
X94869000Y-146685000D02*
X94869000Y-149987000D01*
X90424000Y-146685000D02*
X94869000Y-146685000D01*
X90424000Y-149987000D02*
X90424000Y-146685000D01*
X86868000Y-149987000D02*
X90424000Y-149987000D01*
X86868000Y-146685000D02*
X86868000Y-149987000D01*
X108648499Y-134619999D02*
X114427000Y-146685000D01*
X92392930Y-134679435D02*
X86868000Y-146685000D01*
X101663500Y-99314000D02*
X99695000Y-99314000D01*
X101727000Y-146685000D02*
X101663500Y-99314000D01*
X99695000Y-146685000D02*
X99695000Y-99314000D01*
X102933500Y-146685000D02*
X101727000Y-146685000D01*
X137569290Y-124774417D02*
G75*
G02*
X108648499Y-134619999I-37493290J62734917D01*
G01*
X92392930Y-134679435D02*
G75*
G02*
X64198502Y-125666498I7683070J72639935D01*
G01*
X106426000Y-146685000D02*
X110934500Y-146685000D01*
X102933500Y-149987000D02*
X102933500Y-146685000D01*
X106426000Y-149987000D02*
X102933500Y-149987000D01*
X106426000Y-146685000D02*
X106426000Y-149987000D01*
X110934500Y-149987000D02*
X110934500Y-146685000D01*
X114427000Y-149987000D02*
X110934500Y-149987000D01*
X114427000Y-146685000D02*
X114427000Y-149987000D01*
X99857477Y-50801325D02*
G75*
G02*
X81407000Y-75755498I-65694477J29274825D01*
G01*
X91110269Y-75953228D02*
G75*
G02*
X81407001Y-75755499I-4559769J14421728D01*
G01*
X91112508Y-75960315D02*
G75*
G02*
X71310500Y-99694998I-65014008J34113815D01*
G01*
X86224748Y-101961790D02*
G75*
G02*
X71310501Y-99694999I-4119248J23094790D01*
G01*
X86223886Y-101956959D02*
G75*
G02*
X64198500Y-125666498I-77270386J49696459D01*
G01*
X137550390Y-124742792D02*
G75*
G02*
X114808002Y-102044498I47488610J70323292D01*
G01*
X130117363Y-99543399D02*
G75*
G02*
X114808001Y-102044499I-10292863J14897899D01*
G01*
X130117041Y-99542932D02*
G75*
G02*
X109283502Y-76263498I83052459J95288432D01*
G01*
X119230756Y-75714291D02*
G75*
G02*
X109283501Y-76263499I-6010256J18500791D01*
G01*
X119230666Y-75714018D02*
G75*
G02*
X100139501Y-50863499I84159834J84413518D01*
G01*
M02*
