%TF.GenerationSoftware,KiCad,Pcbnew,(5.1.6)-1*%
%TF.CreationDate,2021-10-19T11:47:46+02:00*%
%TF.ProjectId,_autosave-BaumOben,5f617574-6f73-4617-9665-2d4261756d4f,rev?*%
%TF.SameCoordinates,Original*%
%TF.FileFunction,Copper,L2,Bot*%
%TF.FilePolarity,Positive*%
%FSLAX46Y46*%
G04 Gerber Fmt 4.6, Leading zero omitted, Abs format (unit mm)*
G04 Created by KiCad (PCBNEW (5.1.6)-1) date 2021-10-19 11:47:46*
%MOMM*%
%LPD*%
G01*
G04 APERTURE LIST*
%TA.AperFunction,ViaPad*%
%ADD10C,0.800000*%
%TD*%
%TA.AperFunction,Conductor*%
%ADD11C,0.250000*%
%TD*%
%TA.AperFunction,Conductor*%
%ADD12C,0.254000*%
%TD*%
G04 APERTURE END LIST*
%TO.P,R6,2*%
%TO.N,GND*%
%TA.AperFunction,SMDPad,CuDef*%
G36*
G01*
X97403499Y-80460000D02*
X98303501Y-80460000D01*
G75*
G02*
X98553500Y-80709999I0J-249999D01*
G01*
X98553500Y-81360001D01*
G75*
G02*
X98303501Y-81610000I-249999J0D01*
G01*
X97403499Y-81610000D01*
G75*
G02*
X97153500Y-81360001I0J249999D01*
G01*
X97153500Y-80709999D01*
G75*
G02*
X97403499Y-80460000I249999J0D01*
G01*
G37*
%TD.AperFunction*%
%TO.P,R6,1*%
%TO.N,Net-(DG8-Pad1)*%
%TA.AperFunction,SMDPad,CuDef*%
G36*
G01*
X97403499Y-78410000D02*
X98303501Y-78410000D01*
G75*
G02*
X98553500Y-78659999I0J-249999D01*
G01*
X98553500Y-79310001D01*
G75*
G02*
X98303501Y-79560000I-249999J0D01*
G01*
X97403499Y-79560000D01*
G75*
G02*
X97153500Y-79310001I0J249999D01*
G01*
X97153500Y-78659999D01*
G75*
G02*
X97403499Y-78410000I249999J0D01*
G01*
G37*
%TD.AperFunction*%
%TD*%
%TO.P,R5,2*%
%TO.N,GND*%
%TA.AperFunction,SMDPad,CuDef*%
G36*
G01*
X104579000Y-133471499D02*
X104579000Y-134371501D01*
G75*
G02*
X104329001Y-134621500I-249999J0D01*
G01*
X103678999Y-134621500D01*
G75*
G02*
X103429000Y-134371501I0J249999D01*
G01*
X103429000Y-133471499D01*
G75*
G02*
X103678999Y-133221500I249999J0D01*
G01*
X104329001Y-133221500D01*
G75*
G02*
X104579000Y-133471499I0J-249999D01*
G01*
G37*
%TD.AperFunction*%
%TO.P,R5,1*%
%TO.N,Net-(DG4-Pad1)*%
%TA.AperFunction,SMDPad,CuDef*%
G36*
G01*
X106629000Y-133471499D02*
X106629000Y-134371501D01*
G75*
G02*
X106379001Y-134621500I-249999J0D01*
G01*
X105728999Y-134621500D01*
G75*
G02*
X105479000Y-134371501I0J249999D01*
G01*
X105479000Y-133471499D01*
G75*
G02*
X105728999Y-133221500I249999J0D01*
G01*
X106379001Y-133221500D01*
G75*
G02*
X106629000Y-133471499I0J-249999D01*
G01*
G37*
%TD.AperFunction*%
%TD*%
%TO.P,R4,2*%
%TO.N,GND*%
%TA.AperFunction,SMDPad,CuDef*%
G36*
G01*
X93922000Y-117734501D02*
X93922000Y-116834499D01*
G75*
G02*
X94171999Y-116584500I249999J0D01*
G01*
X94822001Y-116584500D01*
G75*
G02*
X95072000Y-116834499I0J-249999D01*
G01*
X95072000Y-117734501D01*
G75*
G02*
X94822001Y-117984500I-249999J0D01*
G01*
X94171999Y-117984500D01*
G75*
G02*
X93922000Y-117734501I0J249999D01*
G01*
G37*
%TD.AperFunction*%
%TO.P,R4,1*%
%TO.N,Net-(DR8-Pad1)*%
%TA.AperFunction,SMDPad,CuDef*%
G36*
G01*
X91872000Y-117734501D02*
X91872000Y-116834499D01*
G75*
G02*
X92121999Y-116584500I249999J0D01*
G01*
X92772001Y-116584500D01*
G75*
G02*
X93022000Y-116834499I0J-249999D01*
G01*
X93022000Y-117734501D01*
G75*
G02*
X92772001Y-117984500I-249999J0D01*
G01*
X92121999Y-117984500D01*
G75*
G02*
X91872000Y-117734501I0J249999D01*
G01*
G37*
%TD.AperFunction*%
%TD*%
%TO.P,R2,2*%
%TO.N,GND*%
%TA.AperFunction,SMDPad,CuDef*%
G36*
G01*
X96133499Y-103456000D02*
X97033501Y-103456000D01*
G75*
G02*
X97283500Y-103705999I0J-249999D01*
G01*
X97283500Y-104356001D01*
G75*
G02*
X97033501Y-104606000I-249999J0D01*
G01*
X96133499Y-104606000D01*
G75*
G02*
X95883500Y-104356001I0J249999D01*
G01*
X95883500Y-103705999D01*
G75*
G02*
X96133499Y-103456000I249999J0D01*
G01*
G37*
%TD.AperFunction*%
%TO.P,R2,1*%
%TO.N,Net-(DY8-Pad1)*%
%TA.AperFunction,SMDPad,CuDef*%
G36*
G01*
X96133499Y-101406000D02*
X97033501Y-101406000D01*
G75*
G02*
X97283500Y-101655999I0J-249999D01*
G01*
X97283500Y-102306001D01*
G75*
G02*
X97033501Y-102556000I-249999J0D01*
G01*
X96133499Y-102556000D01*
G75*
G02*
X95883500Y-102306001I0J249999D01*
G01*
X95883500Y-101655999D01*
G75*
G02*
X96133499Y-101406000I249999J0D01*
G01*
G37*
%TD.AperFunction*%
%TD*%
%TO.P,DY7,2*%
%TO.N,Net-(DY6-Pad1)*%
%TA.AperFunction,SMDPad,CuDef*%
G36*
G01*
X95763500Y-69855501D02*
X95763500Y-68955499D01*
G75*
G02*
X96013499Y-68705500I249999J0D01*
G01*
X96663501Y-68705500D01*
G75*
G02*
X96913500Y-68955499I0J-249999D01*
G01*
X96913500Y-69855501D01*
G75*
G02*
X96663501Y-70105500I-249999J0D01*
G01*
X96013499Y-70105500D01*
G75*
G02*
X95763500Y-69855501I0J249999D01*
G01*
G37*
%TD.AperFunction*%
%TO.P,DY7,1*%
%TO.N,Net-(DY7-Pad1)*%
%TA.AperFunction,SMDPad,CuDef*%
G36*
G01*
X93713500Y-69855501D02*
X93713500Y-68955499D01*
G75*
G02*
X93963499Y-68705500I249999J0D01*
G01*
X94613501Y-68705500D01*
G75*
G02*
X94863500Y-68955499I0J-249999D01*
G01*
X94863500Y-69855501D01*
G75*
G02*
X94613501Y-70105500I-249999J0D01*
G01*
X93963499Y-70105500D01*
G75*
G02*
X93713500Y-69855501I0J249999D01*
G01*
G37*
%TD.AperFunction*%
%TD*%
%TO.P,DY5,2*%
%TO.N,Takt_invertiert_9V*%
%TA.AperFunction,SMDPad,CuDef*%
G36*
G01*
X117278999Y-125037000D02*
X118179001Y-125037000D01*
G75*
G02*
X118429000Y-125286999I0J-249999D01*
G01*
X118429000Y-125937001D01*
G75*
G02*
X118179001Y-126187000I-249999J0D01*
G01*
X117278999Y-126187000D01*
G75*
G02*
X117029000Y-125937001I0J249999D01*
G01*
X117029000Y-125286999D01*
G75*
G02*
X117278999Y-125037000I249999J0D01*
G01*
G37*
%TD.AperFunction*%
%TO.P,DY5,1*%
%TO.N,Net-(DY5-Pad1)*%
%TA.AperFunction,SMDPad,CuDef*%
G36*
G01*
X117278999Y-122987000D02*
X118179001Y-122987000D01*
G75*
G02*
X118429000Y-123236999I0J-249999D01*
G01*
X118429000Y-123887001D01*
G75*
G02*
X118179001Y-124137000I-249999J0D01*
G01*
X117278999Y-124137000D01*
G75*
G02*
X117029000Y-123887001I0J249999D01*
G01*
X117029000Y-123236999D01*
G75*
G02*
X117278999Y-122987000I249999J0D01*
G01*
G37*
%TD.AperFunction*%
%TD*%
%TO.P,DY3,2*%
%TO.N,Net-(DY2-Pad1)*%
%TA.AperFunction,SMDPad,CuDef*%
G36*
G01*
X92196500Y-84322499D02*
X92196500Y-85222501D01*
G75*
G02*
X91946501Y-85472500I-249999J0D01*
G01*
X91296499Y-85472500D01*
G75*
G02*
X91046500Y-85222501I0J249999D01*
G01*
X91046500Y-84322499D01*
G75*
G02*
X91296499Y-84072500I249999J0D01*
G01*
X91946501Y-84072500D01*
G75*
G02*
X92196500Y-84322499I0J-249999D01*
G01*
G37*
%TD.AperFunction*%
%TO.P,DY3,1*%
%TO.N,Net-(DY3-Pad1)*%
%TA.AperFunction,SMDPad,CuDef*%
G36*
G01*
X94246500Y-84322499D02*
X94246500Y-85222501D01*
G75*
G02*
X93996501Y-85472500I-249999J0D01*
G01*
X93346499Y-85472500D01*
G75*
G02*
X93096500Y-85222501I0J249999D01*
G01*
X93096500Y-84322499D01*
G75*
G02*
X93346499Y-84072500I249999J0D01*
G01*
X93996501Y-84072500D01*
G75*
G02*
X94246500Y-84322499I0J-249999D01*
G01*
G37*
%TD.AperFunction*%
%TD*%
%TO.P,DY2,2*%
%TO.N,Net-(DY1-Pad1)*%
%TA.AperFunction,SMDPad,CuDef*%
G36*
G01*
X83825500Y-96779501D02*
X83825500Y-95879499D01*
G75*
G02*
X84075499Y-95629500I249999J0D01*
G01*
X84725501Y-95629500D01*
G75*
G02*
X84975500Y-95879499I0J-249999D01*
G01*
X84975500Y-96779501D01*
G75*
G02*
X84725501Y-97029500I-249999J0D01*
G01*
X84075499Y-97029500D01*
G75*
G02*
X83825500Y-96779501I0J249999D01*
G01*
G37*
%TD.AperFunction*%
%TO.P,DY2,1*%
%TO.N,Net-(DY2-Pad1)*%
%TA.AperFunction,SMDPad,CuDef*%
G36*
G01*
X81775500Y-96779501D02*
X81775500Y-95879499D01*
G75*
G02*
X82025499Y-95629500I249999J0D01*
G01*
X82675501Y-95629500D01*
G75*
G02*
X82925500Y-95879499I0J-249999D01*
G01*
X82925500Y-96779501D01*
G75*
G02*
X82675501Y-97029500I-249999J0D01*
G01*
X82025499Y-97029500D01*
G75*
G02*
X81775500Y-96779501I0J249999D01*
G01*
G37*
%TD.AperFunction*%
%TD*%
%TO.P,DR8,2*%
%TO.N,Net-(DR7-Pad1)*%
%TA.AperFunction,SMDPad,CuDef*%
G36*
G01*
X92069500Y-112643499D02*
X92069500Y-113543501D01*
G75*
G02*
X91819501Y-113793500I-249999J0D01*
G01*
X91169499Y-113793500D01*
G75*
G02*
X90919500Y-113543501I0J249999D01*
G01*
X90919500Y-112643499D01*
G75*
G02*
X91169499Y-112393500I249999J0D01*
G01*
X91819501Y-112393500D01*
G75*
G02*
X92069500Y-112643499I0J-249999D01*
G01*
G37*
%TD.AperFunction*%
%TO.P,DR8,1*%
%TO.N,Net-(DR8-Pad1)*%
%TA.AperFunction,SMDPad,CuDef*%
G36*
G01*
X94119500Y-112643499D02*
X94119500Y-113543501D01*
G75*
G02*
X93869501Y-113793500I-249999J0D01*
G01*
X93219499Y-113793500D01*
G75*
G02*
X92969500Y-113543501I0J249999D01*
G01*
X92969500Y-112643499D01*
G75*
G02*
X93219499Y-112393500I249999J0D01*
G01*
X93869501Y-112393500D01*
G75*
G02*
X94119500Y-112643499I0J-249999D01*
G01*
G37*
%TD.AperFunction*%
%TD*%
%TO.P,DR6,2*%
%TO.N,Net-(DR5-Pad1)*%
%TA.AperFunction,SMDPad,CuDef*%
G36*
G01*
X110865500Y-106737999D02*
X110865500Y-107638001D01*
G75*
G02*
X110615501Y-107888000I-249999J0D01*
G01*
X109965499Y-107888000D01*
G75*
G02*
X109715500Y-107638001I0J249999D01*
G01*
X109715500Y-106737999D01*
G75*
G02*
X109965499Y-106488000I249999J0D01*
G01*
X110615501Y-106488000D01*
G75*
G02*
X110865500Y-106737999I0J-249999D01*
G01*
G37*
%TD.AperFunction*%
%TO.P,DR6,1*%
%TO.N,Net-(DR6-Pad1)*%
%TA.AperFunction,SMDPad,CuDef*%
G36*
G01*
X112915500Y-106737999D02*
X112915500Y-107638001D01*
G75*
G02*
X112665501Y-107888000I-249999J0D01*
G01*
X112015499Y-107888000D01*
G75*
G02*
X111765500Y-107638001I0J249999D01*
G01*
X111765500Y-106737999D01*
G75*
G02*
X112015499Y-106488000I249999J0D01*
G01*
X112665501Y-106488000D01*
G75*
G02*
X112915500Y-106737999I0J-249999D01*
G01*
G37*
%TD.AperFunction*%
%TD*%
%TO.P,DR4,2*%
%TO.N,Net-(DR3-Pad1)*%
%TA.AperFunction,SMDPad,CuDef*%
G36*
G01*
X108082500Y-67823501D02*
X108082500Y-66923499D01*
G75*
G02*
X108332499Y-66673500I249999J0D01*
G01*
X108982501Y-66673500D01*
G75*
G02*
X109232500Y-66923499I0J-249999D01*
G01*
X109232500Y-67823501D01*
G75*
G02*
X108982501Y-68073500I-249999J0D01*
G01*
X108332499Y-68073500D01*
G75*
G02*
X108082500Y-67823501I0J249999D01*
G01*
G37*
%TD.AperFunction*%
%TO.P,DR4,1*%
%TO.N,Net-(DR4-Pad1)*%
%TA.AperFunction,SMDPad,CuDef*%
G36*
G01*
X106032500Y-67823501D02*
X106032500Y-66923499D01*
G75*
G02*
X106282499Y-66673500I249999J0D01*
G01*
X106932501Y-66673500D01*
G75*
G02*
X107182500Y-66923499I0J-249999D01*
G01*
X107182500Y-67823501D01*
G75*
G02*
X106932501Y-68073500I-249999J0D01*
G01*
X106282499Y-68073500D01*
G75*
G02*
X106032500Y-67823501I0J249999D01*
G01*
G37*
%TD.AperFunction*%
%TD*%
%TO.P,DR2,2*%
%TO.N,Net-(DR1-Pad1)*%
%TA.AperFunction,SMDPad,CuDef*%
G36*
G01*
X81338000Y-115881999D02*
X81338000Y-116782001D01*
G75*
G02*
X81088001Y-117032000I-249999J0D01*
G01*
X80437999Y-117032000D01*
G75*
G02*
X80188000Y-116782001I0J249999D01*
G01*
X80188000Y-115881999D01*
G75*
G02*
X80437999Y-115632000I249999J0D01*
G01*
X81088001Y-115632000D01*
G75*
G02*
X81338000Y-115881999I0J-249999D01*
G01*
G37*
%TD.AperFunction*%
%TO.P,DR2,1*%
%TO.N,Net-(DR2-Pad1)*%
%TA.AperFunction,SMDPad,CuDef*%
G36*
G01*
X83388000Y-115881999D02*
X83388000Y-116782001D01*
G75*
G02*
X83138001Y-117032000I-249999J0D01*
G01*
X82487999Y-117032000D01*
G75*
G02*
X82238000Y-116782001I0J249999D01*
G01*
X82238000Y-115881999D01*
G75*
G02*
X82487999Y-115632000I249999J0D01*
G01*
X83138001Y-115632000D01*
G75*
G02*
X83388000Y-115881999I0J-249999D01*
G01*
G37*
%TD.AperFunction*%
%TD*%
%TO.P,DG8,2*%
%TO.N,Net-(DG7-Pad1)*%
%TA.AperFunction,SMDPad,CuDef*%
G36*
G01*
X97033501Y-74670500D02*
X96133499Y-74670500D01*
G75*
G02*
X95883500Y-74420501I0J249999D01*
G01*
X95883500Y-73770499D01*
G75*
G02*
X96133499Y-73520500I249999J0D01*
G01*
X97033501Y-73520500D01*
G75*
G02*
X97283500Y-73770499I0J-249999D01*
G01*
X97283500Y-74420501D01*
G75*
G02*
X97033501Y-74670500I-249999J0D01*
G01*
G37*
%TD.AperFunction*%
%TO.P,DG8,1*%
%TO.N,Net-(DG8-Pad1)*%
%TA.AperFunction,SMDPad,CuDef*%
G36*
G01*
X97033501Y-76720500D02*
X96133499Y-76720500D01*
G75*
G02*
X95883500Y-76470501I0J249999D01*
G01*
X95883500Y-75820499D01*
G75*
G02*
X96133499Y-75570500I249999J0D01*
G01*
X97033501Y-75570500D01*
G75*
G02*
X97283500Y-75820499I0J-249999D01*
G01*
X97283500Y-76470501D01*
G75*
G02*
X97033501Y-76720500I-249999J0D01*
G01*
G37*
%TD.AperFunction*%
%TD*%
%TO.P,DG6,2*%
%TO.N,Net-(DG5-Pad1)*%
%TA.AperFunction,SMDPad,CuDef*%
G36*
G01*
X111194000Y-86238501D02*
X111194000Y-85338499D01*
G75*
G02*
X111443999Y-85088500I249999J0D01*
G01*
X112094001Y-85088500D01*
G75*
G02*
X112344000Y-85338499I0J-249999D01*
G01*
X112344000Y-86238501D01*
G75*
G02*
X112094001Y-86488500I-249999J0D01*
G01*
X111443999Y-86488500D01*
G75*
G02*
X111194000Y-86238501I0J249999D01*
G01*
G37*
%TD.AperFunction*%
%TO.P,DG6,1*%
%TO.N,Net-(DG6-Pad1)*%
%TA.AperFunction,SMDPad,CuDef*%
G36*
G01*
X109144000Y-86238501D02*
X109144000Y-85338499D01*
G75*
G02*
X109393999Y-85088500I249999J0D01*
G01*
X110044001Y-85088500D01*
G75*
G02*
X110294000Y-85338499I0J-249999D01*
G01*
X110294000Y-86238501D01*
G75*
G02*
X110044001Y-86488500I-249999J0D01*
G01*
X109393999Y-86488500D01*
G75*
G02*
X109144000Y-86238501I0J249999D01*
G01*
G37*
%TD.AperFunction*%
%TD*%
%TO.P,DG4,2*%
%TO.N,Net-(DG3-Pad1)*%
%TA.AperFunction,SMDPad,CuDef*%
G36*
G01*
X105785500Y-129661499D02*
X105785500Y-130561501D01*
G75*
G02*
X105535501Y-130811500I-249999J0D01*
G01*
X104885499Y-130811500D01*
G75*
G02*
X104635500Y-130561501I0J249999D01*
G01*
X104635500Y-129661499D01*
G75*
G02*
X104885499Y-129411500I249999J0D01*
G01*
X105535501Y-129411500D01*
G75*
G02*
X105785500Y-129661499I0J-249999D01*
G01*
G37*
%TD.AperFunction*%
%TO.P,DG4,1*%
%TO.N,Net-(DG4-Pad1)*%
%TA.AperFunction,SMDPad,CuDef*%
G36*
G01*
X107835500Y-129661499D02*
X107835500Y-130561501D01*
G75*
G02*
X107585501Y-130811500I-249999J0D01*
G01*
X106935499Y-130811500D01*
G75*
G02*
X106685500Y-130561501I0J249999D01*
G01*
X106685500Y-129661499D01*
G75*
G02*
X106935499Y-129411500I249999J0D01*
G01*
X107585501Y-129411500D01*
G75*
G02*
X107835500Y-129661499I0J-249999D01*
G01*
G37*
%TD.AperFunction*%
%TD*%
%TO.P,DG2,2*%
%TO.N,Net-(DG1-Pad1)*%
%TA.AperFunction,SMDPad,CuDef*%
G36*
G01*
X118050000Y-93275999D02*
X118050000Y-94176001D01*
G75*
G02*
X117800001Y-94426000I-249999J0D01*
G01*
X117149999Y-94426000D01*
G75*
G02*
X116900000Y-94176001I0J249999D01*
G01*
X116900000Y-93275999D01*
G75*
G02*
X117149999Y-93026000I249999J0D01*
G01*
X117800001Y-93026000D01*
G75*
G02*
X118050000Y-93275999I0J-249999D01*
G01*
G37*
%TD.AperFunction*%
%TO.P,DG2,1*%
%TO.N,Net-(DG2-Pad1)*%
%TA.AperFunction,SMDPad,CuDef*%
G36*
G01*
X120100000Y-93275999D02*
X120100000Y-94176001D01*
G75*
G02*
X119850001Y-94426000I-249999J0D01*
G01*
X119199999Y-94426000D01*
G75*
G02*
X118950000Y-94176001I0J249999D01*
G01*
X118950000Y-93275999D01*
G75*
G02*
X119199999Y-93026000I249999J0D01*
G01*
X119850001Y-93026000D01*
G75*
G02*
X120100000Y-93275999I0J-249999D01*
G01*
G37*
%TD.AperFunction*%
%TD*%
%TO.P,DB3,2*%
%TO.N,Takt_9V*%
%TA.AperFunction,SMDPad,CuDef*%
G36*
G01*
X105076000Y-79787000D02*
X104601000Y-79787000D01*
G75*
G02*
X104363500Y-79549500I0J237500D01*
G01*
X104363500Y-78974500D01*
G75*
G02*
X104601000Y-78737000I237500J0D01*
G01*
X105076000Y-78737000D01*
G75*
G02*
X105313500Y-78974500I0J-237500D01*
G01*
X105313500Y-79549500D01*
G75*
G02*
X105076000Y-79787000I-237500J0D01*
G01*
G37*
%TD.AperFunction*%
%TO.P,DB3,1*%
%TO.N,Net-(DB3-Pad1)*%
%TA.AperFunction,SMDPad,CuDef*%
G36*
G01*
X105076000Y-81537000D02*
X104601000Y-81537000D01*
G75*
G02*
X104363500Y-81299500I0J237500D01*
G01*
X104363500Y-80724500D01*
G75*
G02*
X104601000Y-80487000I237500J0D01*
G01*
X105076000Y-80487000D01*
G75*
G02*
X105313500Y-80724500I0J-237500D01*
G01*
X105313500Y-81299500D01*
G75*
G02*
X105076000Y-81537000I-237500J0D01*
G01*
G37*
%TD.AperFunction*%
%TD*%
%TO.P,DB1,2*%
%TO.N,Takt_9V*%
%TA.AperFunction,SMDPad,CuDef*%
G36*
G01*
X90075500Y-128761500D02*
X90075500Y-128286500D01*
G75*
G02*
X90313000Y-128049000I237500J0D01*
G01*
X90888000Y-128049000D01*
G75*
G02*
X91125500Y-128286500I0J-237500D01*
G01*
X91125500Y-128761500D01*
G75*
G02*
X90888000Y-128999000I-237500J0D01*
G01*
X90313000Y-128999000D01*
G75*
G02*
X90075500Y-128761500I0J237500D01*
G01*
G37*
%TD.AperFunction*%
%TO.P,DB1,1*%
%TO.N,Net-(DB1-Pad1)*%
%TA.AperFunction,SMDPad,CuDef*%
G36*
G01*
X88325500Y-128761500D02*
X88325500Y-128286500D01*
G75*
G02*
X88563000Y-128049000I237500J0D01*
G01*
X89138000Y-128049000D01*
G75*
G02*
X89375500Y-128286500I0J-237500D01*
G01*
X89375500Y-128761500D01*
G75*
G02*
X89138000Y-128999000I-237500J0D01*
G01*
X88563000Y-128999000D01*
G75*
G02*
X88325500Y-128761500I0J237500D01*
G01*
G37*
%TD.AperFunction*%
%TD*%
D10*
%TO.N,Takt_9V*%
X97917000Y-97663000D03*
X93376750Y-122904250D03*
%TO.N,Takt_invertiert_9V*%
X120142000Y-117348000D03*
X114363500Y-127317500D03*
%TO.N,Net-(DG1-Pad1)*%
X93599000Y-93218000D03*
%TO.N,Net-(DG2-Pad1)*%
X118364000Y-95885000D03*
%TO.N,Net-(DG3-Pad1)*%
X105219500Y-119189500D03*
%TO.N,Net-(DG5-Pad1)*%
X112839500Y-87185500D03*
%TO.N,Net-(DG6-Pad1)*%
X104584500Y-88328500D03*
%TO.N,Net-(DG7-Pad1)*%
X92837000Y-74104500D03*
%TO.N,Net-(DR1-Pad1)*%
X77724000Y-119634000D03*
%TO.N,Net-(DR2-Pad1)*%
X103568500Y-67373500D03*
%TO.N,Net-(DR3-Pad1)*%
X107886500Y-65849500D03*
%TO.N,Net-(DR4-Pad1)*%
X103949500Y-73279000D03*
%TO.N,Net-(DR5-Pad1)*%
X114554000Y-113030000D03*
%TO.N,Net-(DR6-Pad1)*%
X109537500Y-104838500D03*
%TO.N,Net-(DR7-Pad1)*%
X91503500Y-110807500D03*
%TO.N,Net-(DY1-Pad1)*%
X86677500Y-106108500D03*
%TO.N,Net-(DY3-Pad1)*%
X106489500Y-86677500D03*
%TO.N,Net-(DY5-Pad1)*%
X105346500Y-100203000D03*
%TO.N,Net-(DY6-Pad1)*%
X102044500Y-71120000D03*
%TO.N,Net-(DY7-Pad1)*%
X94424500Y-72771000D03*
%TO.N,Net-(DY8-Pad1)*%
X92329000Y-101282500D03*
%TD*%
D11*
%TO.N,Takt_9V*%
X97917000Y-118364000D02*
X93376750Y-122904250D01*
X97917000Y-97663000D02*
X97917000Y-118364000D01*
%TO.N,Takt_invertiert_9V*%
X117729000Y-125612000D02*
X117029000Y-125612000D01*
X116069000Y-125612000D02*
X117729000Y-125612000D01*
X108013500Y-133667500D02*
X116069000Y-125612000D01*
X112268000Y-147320000D02*
X108013500Y-143065500D01*
X108013500Y-143065500D02*
X108013500Y-133667500D01*
X117729000Y-125612000D02*
X118482000Y-125612000D01*
X118482000Y-125612000D02*
X120142000Y-123952000D01*
X120142000Y-123952000D02*
X120142000Y-117348000D01*
%TO.N,Net-(DG1-Pad1)*%
X117475000Y-93726000D02*
X104330500Y-93726000D01*
X94107000Y-93726000D02*
X94996000Y-93726000D01*
X93599000Y-93218000D02*
X94107000Y-93726000D01*
X104330500Y-93726000D02*
X94996000Y-93726000D01*
%TO.N,Net-(DG2-Pad1)*%
X119525000Y-94724000D02*
X119525000Y-93726000D01*
X118364000Y-95885000D02*
X119525000Y-94724000D01*
%TO.N,Net-(DG3-Pad1)*%
X105210500Y-130111500D02*
X105210500Y-119198500D01*
X105210500Y-119198500D02*
X105219500Y-119189500D01*
%TO.N,Net-(DG4-Pad1)*%
X106054000Y-131318000D02*
X107260500Y-130111500D01*
X106054000Y-133921500D02*
X106054000Y-131318000D01*
%TO.N,Net-(DG5-Pad1)*%
X112839500Y-86859000D02*
X111769000Y-85788500D01*
X112839500Y-87185500D02*
X112839500Y-86859000D01*
%TO.N,Net-(DG6-Pad1)*%
X104584500Y-88328500D02*
X104965500Y-88709500D01*
X104965500Y-88709500D02*
X108140500Y-88709500D01*
X109719000Y-87131000D02*
X109719000Y-85788500D01*
X108140500Y-88709500D02*
X109719000Y-87131000D01*
%TO.N,Net-(DG7-Pad1)*%
X96583500Y-74095500D02*
X92846000Y-74095500D01*
X92846000Y-74095500D02*
X92837000Y-74104500D01*
%TO.N,Net-(DG8-Pad1)*%
X96583500Y-77715000D02*
X97853500Y-78985000D01*
X96583500Y-76145500D02*
X96583500Y-77715000D01*
%TO.N,Net-(DR1-Pad1)*%
X80763000Y-116595000D02*
X80763000Y-116332000D01*
X77724000Y-119634000D02*
X80763000Y-116595000D01*
%TO.N,Net-(DR2-Pad1)*%
X91603999Y-107541001D02*
X91603999Y-92927001D01*
X82813000Y-116332000D02*
X91603999Y-107541001D01*
X91603999Y-92927001D02*
X96964500Y-87566500D01*
X96964500Y-87566500D02*
X106680000Y-87566500D01*
X107214501Y-71019501D02*
X103568500Y-67373500D01*
X106680000Y-87566500D02*
X107214501Y-87031999D01*
X107214501Y-87031999D02*
X107214501Y-71019501D01*
%TO.N,Net-(DR3-Pad1)*%
X107886500Y-66602500D02*
X108657500Y-67373500D01*
X107886500Y-65849500D02*
X107886500Y-66602500D01*
%TO.N,Net-(DR4-Pad1)*%
X105882499Y-66648499D02*
X103220499Y-66648499D01*
X102843499Y-72172999D02*
X103949500Y-73279000D01*
X106607500Y-67373500D02*
X105882499Y-66648499D01*
X103220499Y-66648499D02*
X102843499Y-67025499D01*
X102843499Y-67025499D02*
X102843499Y-72172999D01*
%TO.N,Net-(DR5-Pad1)*%
X110290500Y-107188000D02*
X110290500Y-108766500D01*
X110290500Y-108766500D02*
X114554000Y-113030000D01*
%TO.N,Net-(DR6-Pad1)*%
X109537500Y-104838500D02*
X111188500Y-104838500D01*
X112340500Y-105990500D02*
X112340500Y-107188000D01*
X111188500Y-104838500D02*
X112340500Y-105990500D01*
%TO.N,Net-(DR7-Pad1)*%
X91494500Y-113093500D02*
X91494500Y-110816500D01*
X91494500Y-110816500D02*
X91503500Y-110807500D01*
%TO.N,Net-(DR8-Pad1)*%
X92447000Y-114191000D02*
X93544500Y-113093500D01*
X92447000Y-117284500D02*
X92447000Y-114191000D01*
%TO.N,Net-(DY1-Pad1)*%
X86677500Y-106108500D02*
X87884000Y-104902000D01*
X87884000Y-99813000D02*
X84400500Y-96329500D01*
X87884000Y-104902000D02*
X87884000Y-99813000D01*
%TO.N,Net-(DY2-Pad1)*%
X82350500Y-94043500D02*
X91621500Y-84772500D01*
X82350500Y-96329500D02*
X82350500Y-94043500D01*
%TO.N,Net-(DY3-Pad1)*%
X93671500Y-84772500D02*
X104584500Y-84772500D01*
X104584500Y-84772500D02*
X106489500Y-86677500D01*
%TO.N,Net-(DY5-Pad1)*%
X105346500Y-111179500D02*
X117729000Y-123562000D01*
X105346500Y-100203000D02*
X105346500Y-111179500D01*
%TO.N,Net-(DY6-Pad1)*%
X96338500Y-69405500D02*
X100330000Y-69405500D01*
X100330000Y-69405500D02*
X102044500Y-71120000D01*
%TO.N,Net-(DY7-Pad1)*%
X94424500Y-69541500D02*
X94288500Y-69405500D01*
X94424500Y-72771000D02*
X94424500Y-69541500D01*
%TO.N,Net-(DY8-Pad1)*%
X96583500Y-101981000D02*
X93027500Y-101981000D01*
X93027500Y-101981000D02*
X92329000Y-101282500D01*
%TD*%
D12*
%TO.N,Takt_invertiert_9V*%
G36*
X113767001Y-149327000D02*
G01*
X111594500Y-149327000D01*
X111594500Y-146875500D01*
X113767000Y-146875500D01*
X113767001Y-149327000D01*
G37*
X113767001Y-149327000D02*
X111594500Y-149327000D01*
X111594500Y-146875500D01*
X113767000Y-146875500D01*
X113767001Y-149327000D01*
%TD*%
M02*
