%TF.GenerationSoftware,KiCad,Pcbnew,(5.1.6)-1*%
%TF.CreationDate,2021-10-19T11:47:46+02:00*%
%TF.ProjectId,_autosave-BaumOben,5f617574-6f73-4617-9665-2d4261756d4f,rev?*%
%TF.SameCoordinates,Original*%
%TF.FileFunction,Copper,L1,Top*%
%TF.FilePolarity,Positive*%
%FSLAX46Y46*%
G04 Gerber Fmt 4.6, Leading zero omitted, Abs format (unit mm)*
G04 Created by KiCad (PCBNEW (5.1.6)-1) date 2021-10-19 11:47:46*
%MOMM*%
%LPD*%
G01*
G04 APERTURE LIST*
%TA.AperFunction,ViaPad*%
%ADD10C,0.800000*%
%TD*%
%TA.AperFunction,Conductor*%
%ADD11C,0.250000*%
%TD*%
%TA.AperFunction,Conductor*%
%ADD12C,0.254000*%
%TD*%
G04 APERTURE END LIST*
%TO.P,R10,2*%
%TO.N,GND*%
%TA.AperFunction,SMDPad,CuDef*%
G36*
G01*
X180463500Y-113226001D02*
X180463500Y-112325999D01*
G75*
G02*
X180713499Y-112076000I249999J0D01*
G01*
X181363501Y-112076000D01*
G75*
G02*
X181613500Y-112325999I0J-249999D01*
G01*
X181613500Y-113226001D01*
G75*
G02*
X181363501Y-113476000I-249999J0D01*
G01*
X180713499Y-113476000D01*
G75*
G02*
X180463500Y-113226001I0J249999D01*
G01*
G37*
%TD.AperFunction*%
%TO.P,R10,1*%
%TO.N,Net-(DB8-Pad1)*%
%TA.AperFunction,SMDPad,CuDef*%
G36*
G01*
X178413500Y-113226001D02*
X178413500Y-112325999D01*
G75*
G02*
X178663499Y-112076000I249999J0D01*
G01*
X179313501Y-112076000D01*
G75*
G02*
X179563500Y-112325999I0J-249999D01*
G01*
X179563500Y-113226001D01*
G75*
G02*
X179313501Y-113476000I-249999J0D01*
G01*
X178663499Y-113476000D01*
G75*
G02*
X178413500Y-113226001I0J249999D01*
G01*
G37*
%TD.AperFunction*%
%TD*%
%TO.P,R9,2*%
%TO.N,GND*%
%TA.AperFunction,SMDPad,CuDef*%
G36*
G01*
X180028000Y-106622001D02*
X180028000Y-105721999D01*
G75*
G02*
X180277999Y-105472000I249999J0D01*
G01*
X180928001Y-105472000D01*
G75*
G02*
X181178000Y-105721999I0J-249999D01*
G01*
X181178000Y-106622001D01*
G75*
G02*
X180928001Y-106872000I-249999J0D01*
G01*
X180277999Y-106872000D01*
G75*
G02*
X180028000Y-106622001I0J249999D01*
G01*
G37*
%TD.AperFunction*%
%TO.P,R9,1*%
%TO.N,Net-(DB6-Pad1)*%
%TA.AperFunction,SMDPad,CuDef*%
G36*
G01*
X177978000Y-106622001D02*
X177978000Y-105721999D01*
G75*
G02*
X178227999Y-105472000I249999J0D01*
G01*
X178878001Y-105472000D01*
G75*
G02*
X179128000Y-105721999I0J-249999D01*
G01*
X179128000Y-106622001D01*
G75*
G02*
X178878001Y-106872000I-249999J0D01*
G01*
X178227999Y-106872000D01*
G75*
G02*
X177978000Y-106622001I0J249999D01*
G01*
G37*
%TD.AperFunction*%
%TD*%
%TO.P,R8,2*%
%TO.N,GND*%
%TA.AperFunction,SMDPad,CuDef*%
G36*
G01*
X109924001Y-125407000D02*
X109023999Y-125407000D01*
G75*
G02*
X108774000Y-125157001I0J249999D01*
G01*
X108774000Y-124506999D01*
G75*
G02*
X109023999Y-124257000I249999J0D01*
G01*
X109924001Y-124257000D01*
G75*
G02*
X110174000Y-124506999I0J-249999D01*
G01*
X110174000Y-125157001D01*
G75*
G02*
X109924001Y-125407000I-249999J0D01*
G01*
G37*
%TD.AperFunction*%
%TO.P,R8,1*%
%TO.N,Net-(DB4-Pad1)*%
%TA.AperFunction,SMDPad,CuDef*%
G36*
G01*
X109924001Y-127457000D02*
X109023999Y-127457000D01*
G75*
G02*
X108774000Y-127207001I0J249999D01*
G01*
X108774000Y-126556999D01*
G75*
G02*
X109023999Y-126307000I249999J0D01*
G01*
X109924001Y-126307000D01*
G75*
G02*
X110174000Y-126556999I0J-249999D01*
G01*
X110174000Y-127207001D01*
G75*
G02*
X109924001Y-127457000I-249999J0D01*
G01*
G37*
%TD.AperFunction*%
%TD*%
%TO.P,R7,2*%
%TO.N,GND*%
%TA.AperFunction,SMDPad,CuDef*%
G36*
G01*
X96017500Y-112591001D02*
X96017500Y-111690999D01*
G75*
G02*
X96267499Y-111441000I249999J0D01*
G01*
X96917501Y-111441000D01*
G75*
G02*
X97167500Y-111690999I0J-249999D01*
G01*
X97167500Y-112591001D01*
G75*
G02*
X96917501Y-112841000I-249999J0D01*
G01*
X96267499Y-112841000D01*
G75*
G02*
X96017500Y-112591001I0J249999D01*
G01*
G37*
%TD.AperFunction*%
%TO.P,R7,1*%
%TO.N,Net-(DB2-Pad1)*%
%TA.AperFunction,SMDPad,CuDef*%
G36*
G01*
X93967500Y-112591001D02*
X93967500Y-111690999D01*
G75*
G02*
X94217499Y-111441000I249999J0D01*
G01*
X94867501Y-111441000D01*
G75*
G02*
X95117500Y-111690999I0J-249999D01*
G01*
X95117500Y-112591001D01*
G75*
G02*
X94867501Y-112841000I-249999J0D01*
G01*
X94217499Y-112841000D01*
G75*
G02*
X93967500Y-112591001I0J249999D01*
G01*
G37*
%TD.AperFunction*%
%TD*%
%TO.P,R3,2*%
%TO.N,GND*%
%TA.AperFunction,SMDPad,CuDef*%
G36*
G01*
X105340999Y-74745000D02*
X106241001Y-74745000D01*
G75*
G02*
X106491000Y-74994999I0J-249999D01*
G01*
X106491000Y-75645001D01*
G75*
G02*
X106241001Y-75895000I-249999J0D01*
G01*
X105340999Y-75895000D01*
G75*
G02*
X105091000Y-75645001I0J249999D01*
G01*
X105091000Y-74994999D01*
G75*
G02*
X105340999Y-74745000I249999J0D01*
G01*
G37*
%TD.AperFunction*%
%TO.P,R3,1*%
%TO.N,Net-(DR4-Pad1)*%
%TA.AperFunction,SMDPad,CuDef*%
G36*
G01*
X105340999Y-72695000D02*
X106241001Y-72695000D01*
G75*
G02*
X106491000Y-72944999I0J-249999D01*
G01*
X106491000Y-73595001D01*
G75*
G02*
X106241001Y-73845000I-249999J0D01*
G01*
X105340999Y-73845000D01*
G75*
G02*
X105091000Y-73595001I0J249999D01*
G01*
X105091000Y-72944999D01*
G75*
G02*
X105340999Y-72695000I249999J0D01*
G01*
G37*
%TD.AperFunction*%
%TD*%
%TO.P,R1,2*%
%TO.N,GND*%
%TA.AperFunction,SMDPad,CuDef*%
G36*
G01*
X110865499Y-95772500D02*
X111765501Y-95772500D01*
G75*
G02*
X112015500Y-96022499I0J-249999D01*
G01*
X112015500Y-96672501D01*
G75*
G02*
X111765501Y-96922500I-249999J0D01*
G01*
X110865499Y-96922500D01*
G75*
G02*
X110615500Y-96672501I0J249999D01*
G01*
X110615500Y-96022499D01*
G75*
G02*
X110865499Y-95772500I249999J0D01*
G01*
G37*
%TD.AperFunction*%
%TO.P,R1,1*%
%TO.N,Net-(DY4-Pad1)*%
%TA.AperFunction,SMDPad,CuDef*%
G36*
G01*
X110865499Y-93722500D02*
X111765501Y-93722500D01*
G75*
G02*
X112015500Y-93972499I0J-249999D01*
G01*
X112015500Y-94622501D01*
G75*
G02*
X111765501Y-94872500I-249999J0D01*
G01*
X110865499Y-94872500D01*
G75*
G02*
X110615500Y-94622501I0J249999D01*
G01*
X110615500Y-93972499D01*
G75*
G02*
X110865499Y-93722500I249999J0D01*
G01*
G37*
%TD.AperFunction*%
%TD*%
%TO.P,DY8,2*%
%TO.N,Net-(DY7-Pad1)*%
%TA.AperFunction,SMDPad,CuDef*%
G36*
G01*
X93795000Y-99319501D02*
X93795000Y-98419499D01*
G75*
G02*
X94044999Y-98169500I249999J0D01*
G01*
X94695001Y-98169500D01*
G75*
G02*
X94945000Y-98419499I0J-249999D01*
G01*
X94945000Y-99319501D01*
G75*
G02*
X94695001Y-99569500I-249999J0D01*
G01*
X94044999Y-99569500D01*
G75*
G02*
X93795000Y-99319501I0J249999D01*
G01*
G37*
%TD.AperFunction*%
%TO.P,DY8,1*%
%TO.N,Net-(DY8-Pad1)*%
%TA.AperFunction,SMDPad,CuDef*%
G36*
G01*
X91745000Y-99319501D02*
X91745000Y-98419499D01*
G75*
G02*
X91994999Y-98169500I249999J0D01*
G01*
X92645001Y-98169500D01*
G75*
G02*
X92895000Y-98419499I0J-249999D01*
G01*
X92895000Y-99319501D01*
G75*
G02*
X92645001Y-99569500I-249999J0D01*
G01*
X91994999Y-99569500D01*
G75*
G02*
X91745000Y-99319501I0J249999D01*
G01*
G37*
%TD.AperFunction*%
%TD*%
%TO.P,DY6,2*%
%TO.N,Net-(DY5-Pad1)*%
%TA.AperFunction,SMDPad,CuDef*%
G36*
G01*
X109797000Y-71570001D02*
X109797000Y-70669999D01*
G75*
G02*
X110046999Y-70420000I249999J0D01*
G01*
X110697001Y-70420000D01*
G75*
G02*
X110947000Y-70669999I0J-249999D01*
G01*
X110947000Y-71570001D01*
G75*
G02*
X110697001Y-71820000I-249999J0D01*
G01*
X110046999Y-71820000D01*
G75*
G02*
X109797000Y-71570001I0J249999D01*
G01*
G37*
%TD.AperFunction*%
%TO.P,DY6,1*%
%TO.N,Net-(DY6-Pad1)*%
%TA.AperFunction,SMDPad,CuDef*%
G36*
G01*
X107747000Y-71570001D02*
X107747000Y-70669999D01*
G75*
G02*
X107996999Y-70420000I249999J0D01*
G01*
X108647001Y-70420000D01*
G75*
G02*
X108897000Y-70669999I0J-249999D01*
G01*
X108897000Y-71570001D01*
G75*
G02*
X108647001Y-71820000I-249999J0D01*
G01*
X107996999Y-71820000D01*
G75*
G02*
X107747000Y-71570001I0J249999D01*
G01*
G37*
%TD.AperFunction*%
%TD*%
%TO.P,DY4,2*%
%TO.N,Net-(DY3-Pad1)*%
%TA.AperFunction,SMDPad,CuDef*%
G36*
G01*
X111183000Y-89338999D02*
X111183000Y-90239001D01*
G75*
G02*
X110933001Y-90489000I-249999J0D01*
G01*
X110282999Y-90489000D01*
G75*
G02*
X110033000Y-90239001I0J249999D01*
G01*
X110033000Y-89338999D01*
G75*
G02*
X110282999Y-89089000I249999J0D01*
G01*
X110933001Y-89089000D01*
G75*
G02*
X111183000Y-89338999I0J-249999D01*
G01*
G37*
%TD.AperFunction*%
%TO.P,DY4,1*%
%TO.N,Net-(DY4-Pad1)*%
%TA.AperFunction,SMDPad,CuDef*%
G36*
G01*
X113233000Y-89338999D02*
X113233000Y-90239001D01*
G75*
G02*
X112983001Y-90489000I-249999J0D01*
G01*
X112332999Y-90489000D01*
G75*
G02*
X112083000Y-90239001I0J249999D01*
G01*
X112083000Y-89338999D01*
G75*
G02*
X112332999Y-89089000I249999J0D01*
G01*
X112983001Y-89089000D01*
G75*
G02*
X113233000Y-89338999I0J-249999D01*
G01*
G37*
%TD.AperFunction*%
%TD*%
%TO.P,DY1,2*%
%TO.N,Takt_9V*%
%TA.AperFunction,SMDPad,CuDef*%
G36*
G01*
X88080000Y-120909501D02*
X88080000Y-120009499D01*
G75*
G02*
X88329999Y-119759500I249999J0D01*
G01*
X88980001Y-119759500D01*
G75*
G02*
X89230000Y-120009499I0J-249999D01*
G01*
X89230000Y-120909501D01*
G75*
G02*
X88980001Y-121159500I-249999J0D01*
G01*
X88329999Y-121159500D01*
G75*
G02*
X88080000Y-120909501I0J249999D01*
G01*
G37*
%TD.AperFunction*%
%TO.P,DY1,1*%
%TO.N,Net-(DY1-Pad1)*%
%TA.AperFunction,SMDPad,CuDef*%
G36*
G01*
X86030000Y-120909501D02*
X86030000Y-120009499D01*
G75*
G02*
X86279999Y-119759500I249999J0D01*
G01*
X86930001Y-119759500D01*
G75*
G02*
X87180000Y-120009499I0J-249999D01*
G01*
X87180000Y-120909501D01*
G75*
G02*
X86930001Y-121159500I-249999J0D01*
G01*
X86279999Y-121159500D01*
G75*
G02*
X86030000Y-120909501I0J249999D01*
G01*
G37*
%TD.AperFunction*%
%TD*%
%TO.P,DR7,2*%
%TO.N,Net-(DR6-Pad1)*%
%TA.AperFunction,SMDPad,CuDef*%
G36*
G01*
X87191000Y-90874001D02*
X87191000Y-89973999D01*
G75*
G02*
X87440999Y-89724000I249999J0D01*
G01*
X88091001Y-89724000D01*
G75*
G02*
X88341000Y-89973999I0J-249999D01*
G01*
X88341000Y-90874001D01*
G75*
G02*
X88091001Y-91124000I-249999J0D01*
G01*
X87440999Y-91124000D01*
G75*
G02*
X87191000Y-90874001I0J249999D01*
G01*
G37*
%TD.AperFunction*%
%TO.P,DR7,1*%
%TO.N,Net-(DR7-Pad1)*%
%TA.AperFunction,SMDPad,CuDef*%
G36*
G01*
X85141000Y-90874001D02*
X85141000Y-89973999D01*
G75*
G02*
X85390999Y-89724000I249999J0D01*
G01*
X86041001Y-89724000D01*
G75*
G02*
X86291000Y-89973999I0J-249999D01*
G01*
X86291000Y-90874001D01*
G75*
G02*
X86041001Y-91124000I-249999J0D01*
G01*
X85390999Y-91124000D01*
G75*
G02*
X85141000Y-90874001I0J249999D01*
G01*
G37*
%TD.AperFunction*%
%TD*%
%TO.P,DR5,2*%
%TO.N,Takt_invertiert_9V*%
%TA.AperFunction,SMDPad,CuDef*%
G36*
G01*
X117480500Y-115512001D02*
X117480500Y-114611999D01*
G75*
G02*
X117730499Y-114362000I249999J0D01*
G01*
X118380501Y-114362000D01*
G75*
G02*
X118630500Y-114611999I0J-249999D01*
G01*
X118630500Y-115512001D01*
G75*
G02*
X118380501Y-115762000I-249999J0D01*
G01*
X117730499Y-115762000D01*
G75*
G02*
X117480500Y-115512001I0J249999D01*
G01*
G37*
%TD.AperFunction*%
%TO.P,DR5,1*%
%TO.N,Net-(DR5-Pad1)*%
%TA.AperFunction,SMDPad,CuDef*%
G36*
G01*
X115430500Y-115512001D02*
X115430500Y-114611999D01*
G75*
G02*
X115680499Y-114362000I249999J0D01*
G01*
X116330501Y-114362000D01*
G75*
G02*
X116580500Y-114611999I0J-249999D01*
G01*
X116580500Y-115512001D01*
G75*
G02*
X116330501Y-115762000I-249999J0D01*
G01*
X115680499Y-115762000D01*
G75*
G02*
X115430500Y-115512001I0J249999D01*
G01*
G37*
%TD.AperFunction*%
%TD*%
%TO.P,DR3,2*%
%TO.N,Net-(DR2-Pad1)*%
%TA.AperFunction,SMDPad,CuDef*%
G36*
G01*
X104134500Y-64256499D02*
X104134500Y-65156501D01*
G75*
G02*
X103884501Y-65406500I-249999J0D01*
G01*
X103234499Y-65406500D01*
G75*
G02*
X102984500Y-65156501I0J249999D01*
G01*
X102984500Y-64256499D01*
G75*
G02*
X103234499Y-64006500I249999J0D01*
G01*
X103884501Y-64006500D01*
G75*
G02*
X104134500Y-64256499I0J-249999D01*
G01*
G37*
%TD.AperFunction*%
%TO.P,DR3,1*%
%TO.N,Net-(DR3-Pad1)*%
%TA.AperFunction,SMDPad,CuDef*%
G36*
G01*
X106184500Y-64256499D02*
X106184500Y-65156501D01*
G75*
G02*
X105934501Y-65406500I-249999J0D01*
G01*
X105284499Y-65406500D01*
G75*
G02*
X105034500Y-65156501I0J249999D01*
G01*
X105034500Y-64256499D01*
G75*
G02*
X105284499Y-64006500I249999J0D01*
G01*
X105934501Y-64006500D01*
G75*
G02*
X106184500Y-64256499I0J-249999D01*
G01*
G37*
%TD.AperFunction*%
%TD*%
%TO.P,DR1,2*%
%TO.N,Takt_9V*%
%TA.AperFunction,SMDPad,CuDef*%
G36*
G01*
X77221500Y-125799001D02*
X77221500Y-124898999D01*
G75*
G02*
X77471499Y-124649000I249999J0D01*
G01*
X78121501Y-124649000D01*
G75*
G02*
X78371500Y-124898999I0J-249999D01*
G01*
X78371500Y-125799001D01*
G75*
G02*
X78121501Y-126049000I-249999J0D01*
G01*
X77471499Y-126049000D01*
G75*
G02*
X77221500Y-125799001I0J249999D01*
G01*
G37*
%TD.AperFunction*%
%TO.P,DR1,1*%
%TO.N,Net-(DR1-Pad1)*%
%TA.AperFunction,SMDPad,CuDef*%
G36*
G01*
X75171500Y-125799001D02*
X75171500Y-124898999D01*
G75*
G02*
X75421499Y-124649000I249999J0D01*
G01*
X76071501Y-124649000D01*
G75*
G02*
X76321500Y-124898999I0J-249999D01*
G01*
X76321500Y-125799001D01*
G75*
G02*
X76071501Y-126049000I-249999J0D01*
G01*
X75421499Y-126049000D01*
G75*
G02*
X75171500Y-125799001I0J249999D01*
G01*
G37*
%TD.AperFunction*%
%TD*%
%TO.P,DG7,2*%
%TO.N,Net-(DG6-Pad1)*%
%TA.AperFunction,SMDPad,CuDef*%
G36*
G01*
X89856000Y-72511499D02*
X89856000Y-73411501D01*
G75*
G02*
X89606001Y-73661500I-249999J0D01*
G01*
X88955999Y-73661500D01*
G75*
G02*
X88706000Y-73411501I0J249999D01*
G01*
X88706000Y-72511499D01*
G75*
G02*
X88955999Y-72261500I249999J0D01*
G01*
X89606001Y-72261500D01*
G75*
G02*
X89856000Y-72511499I0J-249999D01*
G01*
G37*
%TD.AperFunction*%
%TO.P,DG7,1*%
%TO.N,Net-(DG7-Pad1)*%
%TA.AperFunction,SMDPad,CuDef*%
G36*
G01*
X91906000Y-72511499D02*
X91906000Y-73411501D01*
G75*
G02*
X91656001Y-73661500I-249999J0D01*
G01*
X91005999Y-73661500D01*
G75*
G02*
X90756000Y-73411501I0J249999D01*
G01*
X90756000Y-72511499D01*
G75*
G02*
X91005999Y-72261500I249999J0D01*
G01*
X91656001Y-72261500D01*
G75*
G02*
X91906000Y-72511499I0J-249999D01*
G01*
G37*
%TD.AperFunction*%
%TD*%
%TO.P,DG5,2*%
%TO.N,Takt_invertiert_9V*%
%TA.AperFunction,SMDPad,CuDef*%
G36*
G01*
X125418000Y-124973501D02*
X125418000Y-124073499D01*
G75*
G02*
X125667999Y-123823500I249999J0D01*
G01*
X126318001Y-123823500D01*
G75*
G02*
X126568000Y-124073499I0J-249999D01*
G01*
X126568000Y-124973501D01*
G75*
G02*
X126318001Y-125223500I-249999J0D01*
G01*
X125667999Y-125223500D01*
G75*
G02*
X125418000Y-124973501I0J249999D01*
G01*
G37*
%TD.AperFunction*%
%TO.P,DG5,1*%
%TO.N,Net-(DG5-Pad1)*%
%TA.AperFunction,SMDPad,CuDef*%
G36*
G01*
X123368000Y-124973501D02*
X123368000Y-124073499D01*
G75*
G02*
X123617999Y-123823500I249999J0D01*
G01*
X124268001Y-123823500D01*
G75*
G02*
X124518000Y-124073499I0J-249999D01*
G01*
X124518000Y-124973501D01*
G75*
G02*
X124268001Y-125223500I-249999J0D01*
G01*
X123617999Y-125223500D01*
G75*
G02*
X123368000Y-124973501I0J249999D01*
G01*
G37*
%TD.AperFunction*%
%TD*%
%TO.P,DG3,2*%
%TO.N,Net-(DG2-Pad1)*%
%TA.AperFunction,SMDPad,CuDef*%
G36*
G01*
X107574500Y-118242501D02*
X107574500Y-117342499D01*
G75*
G02*
X107824499Y-117092500I249999J0D01*
G01*
X108474501Y-117092500D01*
G75*
G02*
X108724500Y-117342499I0J-249999D01*
G01*
X108724500Y-118242501D01*
G75*
G02*
X108474501Y-118492500I-249999J0D01*
G01*
X107824499Y-118492500D01*
G75*
G02*
X107574500Y-118242501I0J249999D01*
G01*
G37*
%TD.AperFunction*%
%TO.P,DG3,1*%
%TO.N,Net-(DG3-Pad1)*%
%TA.AperFunction,SMDPad,CuDef*%
G36*
G01*
X105524500Y-118242501D02*
X105524500Y-117342499D01*
G75*
G02*
X105774499Y-117092500I249999J0D01*
G01*
X106424501Y-117092500D01*
G75*
G02*
X106674500Y-117342499I0J-249999D01*
G01*
X106674500Y-118242501D01*
G75*
G02*
X106424501Y-118492500I-249999J0D01*
G01*
X105774499Y-118492500D01*
G75*
G02*
X105524500Y-118242501I0J249999D01*
G01*
G37*
%TD.AperFunction*%
%TD*%
%TO.P,DG1,2*%
%TO.N,Takt_9V*%
%TA.AperFunction,SMDPad,CuDef*%
G36*
G01*
X95065000Y-80523501D02*
X95065000Y-79623499D01*
G75*
G02*
X95314999Y-79373500I249999J0D01*
G01*
X95965001Y-79373500D01*
G75*
G02*
X96215000Y-79623499I0J-249999D01*
G01*
X96215000Y-80523501D01*
G75*
G02*
X95965001Y-80773500I-249999J0D01*
G01*
X95314999Y-80773500D01*
G75*
G02*
X95065000Y-80523501I0J249999D01*
G01*
G37*
%TD.AperFunction*%
%TO.P,DG1,1*%
%TO.N,Net-(DG1-Pad1)*%
%TA.AperFunction,SMDPad,CuDef*%
G36*
G01*
X93015000Y-80523501D02*
X93015000Y-79623499D01*
G75*
G02*
X93264999Y-79373500I249999J0D01*
G01*
X93915001Y-79373500D01*
G75*
G02*
X94165000Y-79623499I0J-249999D01*
G01*
X94165000Y-80523501D01*
G75*
G02*
X93915001Y-80773500I-249999J0D01*
G01*
X93264999Y-80773500D01*
G75*
G02*
X93015000Y-80523501I0J249999D01*
G01*
G37*
%TD.AperFunction*%
%TD*%
%TO.P,DB8,2*%
%TO.N,Net-(DB7-Pad1)*%
%TA.AperFunction,SMDPad,CuDef*%
G36*
G01*
X186214500Y-112950000D02*
X186214500Y-112475000D01*
G75*
G02*
X186452000Y-112237500I237500J0D01*
G01*
X187027000Y-112237500D01*
G75*
G02*
X187264500Y-112475000I0J-237500D01*
G01*
X187264500Y-112950000D01*
G75*
G02*
X187027000Y-113187500I-237500J0D01*
G01*
X186452000Y-113187500D01*
G75*
G02*
X186214500Y-112950000I0J237500D01*
G01*
G37*
%TD.AperFunction*%
%TO.P,DB8,1*%
%TO.N,Net-(DB8-Pad1)*%
%TA.AperFunction,SMDPad,CuDef*%
G36*
G01*
X184464500Y-112950000D02*
X184464500Y-112475000D01*
G75*
G02*
X184702000Y-112237500I237500J0D01*
G01*
X185277000Y-112237500D01*
G75*
G02*
X185514500Y-112475000I0J-237500D01*
G01*
X185514500Y-112950000D01*
G75*
G02*
X185277000Y-113187500I-237500J0D01*
G01*
X184702000Y-113187500D01*
G75*
G02*
X184464500Y-112950000I0J237500D01*
G01*
G37*
%TD.AperFunction*%
%TD*%
%TO.P,DB7,2*%
%TO.N,Takt_invertiert_9V*%
%TA.AperFunction,SMDPad,CuDef*%
G36*
G01*
X192183500Y-113140500D02*
X192183500Y-112665500D01*
G75*
G02*
X192421000Y-112428000I237500J0D01*
G01*
X192996000Y-112428000D01*
G75*
G02*
X193233500Y-112665500I0J-237500D01*
G01*
X193233500Y-113140500D01*
G75*
G02*
X192996000Y-113378000I-237500J0D01*
G01*
X192421000Y-113378000D01*
G75*
G02*
X192183500Y-113140500I0J237500D01*
G01*
G37*
%TD.AperFunction*%
%TO.P,DB7,1*%
%TO.N,Net-(DB7-Pad1)*%
%TA.AperFunction,SMDPad,CuDef*%
G36*
G01*
X190433500Y-113140500D02*
X190433500Y-112665500D01*
G75*
G02*
X190671000Y-112428000I237500J0D01*
G01*
X191246000Y-112428000D01*
G75*
G02*
X191483500Y-112665500I0J-237500D01*
G01*
X191483500Y-113140500D01*
G75*
G02*
X191246000Y-113378000I-237500J0D01*
G01*
X190671000Y-113378000D01*
G75*
G02*
X190433500Y-113140500I0J237500D01*
G01*
G37*
%TD.AperFunction*%
%TD*%
%TO.P,DB6,2*%
%TO.N,Net-(DB5-Pad1)*%
%TA.AperFunction,SMDPad,CuDef*%
G36*
G01*
X185452500Y-106346000D02*
X185452500Y-105871000D01*
G75*
G02*
X185690000Y-105633500I237500J0D01*
G01*
X186265000Y-105633500D01*
G75*
G02*
X186502500Y-105871000I0J-237500D01*
G01*
X186502500Y-106346000D01*
G75*
G02*
X186265000Y-106583500I-237500J0D01*
G01*
X185690000Y-106583500D01*
G75*
G02*
X185452500Y-106346000I0J237500D01*
G01*
G37*
%TD.AperFunction*%
%TO.P,DB6,1*%
%TO.N,Net-(DB6-Pad1)*%
%TA.AperFunction,SMDPad,CuDef*%
G36*
G01*
X183702500Y-106346000D02*
X183702500Y-105871000D01*
G75*
G02*
X183940000Y-105633500I237500J0D01*
G01*
X184515000Y-105633500D01*
G75*
G02*
X184752500Y-105871000I0J-237500D01*
G01*
X184752500Y-106346000D01*
G75*
G02*
X184515000Y-106583500I-237500J0D01*
G01*
X183940000Y-106583500D01*
G75*
G02*
X183702500Y-106346000I0J237500D01*
G01*
G37*
%TD.AperFunction*%
%TD*%
%TO.P,DB5,2*%
%TO.N,Takt_invertiert_9V*%
%TA.AperFunction,SMDPad,CuDef*%
G36*
G01*
X191753000Y-106473000D02*
X191753000Y-105998000D01*
G75*
G02*
X191990500Y-105760500I237500J0D01*
G01*
X192565500Y-105760500D01*
G75*
G02*
X192803000Y-105998000I0J-237500D01*
G01*
X192803000Y-106473000D01*
G75*
G02*
X192565500Y-106710500I-237500J0D01*
G01*
X191990500Y-106710500D01*
G75*
G02*
X191753000Y-106473000I0J237500D01*
G01*
G37*
%TD.AperFunction*%
%TO.P,DB5,1*%
%TO.N,Net-(DB5-Pad1)*%
%TA.AperFunction,SMDPad,CuDef*%
G36*
G01*
X190003000Y-106473000D02*
X190003000Y-105998000D01*
G75*
G02*
X190240500Y-105760500I237500J0D01*
G01*
X190815500Y-105760500D01*
G75*
G02*
X191053000Y-105998000I0J-237500D01*
G01*
X191053000Y-106473000D01*
G75*
G02*
X190815500Y-106710500I-237500J0D01*
G01*
X190240500Y-106710500D01*
G75*
G02*
X190003000Y-106473000I0J237500D01*
G01*
G37*
%TD.AperFunction*%
%TD*%
%TO.P,DB4,2*%
%TO.N,Net-(DB3-Pad1)*%
%TA.AperFunction,SMDPad,CuDef*%
G36*
G01*
X105076000Y-125507000D02*
X104601000Y-125507000D01*
G75*
G02*
X104363500Y-125269500I0J237500D01*
G01*
X104363500Y-124694500D01*
G75*
G02*
X104601000Y-124457000I237500J0D01*
G01*
X105076000Y-124457000D01*
G75*
G02*
X105313500Y-124694500I0J-237500D01*
G01*
X105313500Y-125269500D01*
G75*
G02*
X105076000Y-125507000I-237500J0D01*
G01*
G37*
%TD.AperFunction*%
%TO.P,DB4,1*%
%TO.N,Net-(DB4-Pad1)*%
%TA.AperFunction,SMDPad,CuDef*%
G36*
G01*
X105076000Y-127257000D02*
X104601000Y-127257000D01*
G75*
G02*
X104363500Y-127019500I0J237500D01*
G01*
X104363500Y-126444500D01*
G75*
G02*
X104601000Y-126207000I237500J0D01*
G01*
X105076000Y-126207000D01*
G75*
G02*
X105313500Y-126444500I0J-237500D01*
G01*
X105313500Y-127019500D01*
G75*
G02*
X105076000Y-127257000I-237500J0D01*
G01*
G37*
%TD.AperFunction*%
%TD*%
%TO.P,DB2,2*%
%TO.N,Net-(DB1-Pad1)*%
%TA.AperFunction,SMDPad,CuDef*%
G36*
G01*
X95790500Y-109775000D02*
X95790500Y-109300000D01*
G75*
G02*
X96028000Y-109062500I237500J0D01*
G01*
X96603000Y-109062500D01*
G75*
G02*
X96840500Y-109300000I0J-237500D01*
G01*
X96840500Y-109775000D01*
G75*
G02*
X96603000Y-110012500I-237500J0D01*
G01*
X96028000Y-110012500D01*
G75*
G02*
X95790500Y-109775000I0J237500D01*
G01*
G37*
%TD.AperFunction*%
%TO.P,DB2,1*%
%TO.N,Net-(DB2-Pad1)*%
%TA.AperFunction,SMDPad,CuDef*%
G36*
G01*
X94040500Y-109775000D02*
X94040500Y-109300000D01*
G75*
G02*
X94278000Y-109062500I237500J0D01*
G01*
X94853000Y-109062500D01*
G75*
G02*
X95090500Y-109300000I0J-237500D01*
G01*
X95090500Y-109775000D01*
G75*
G02*
X94853000Y-110012500I-237500J0D01*
G01*
X94278000Y-110012500D01*
G75*
G02*
X94040500Y-109775000I0J237500D01*
G01*
G37*
%TD.AperFunction*%
%TD*%
D10*
%TO.N,Takt_9V*%
X97917000Y-97663000D03*
X93376750Y-122904250D03*
%TO.N,Takt_invertiert_9V*%
X120142000Y-117348000D03*
X114363500Y-127317500D03*
%TO.N,Net-(DG1-Pad1)*%
X93599000Y-93218000D03*
%TO.N,Net-(DG2-Pad1)*%
X118364000Y-95885000D03*
%TO.N,Net-(DG3-Pad1)*%
X105219500Y-119189500D03*
%TO.N,Net-(DG5-Pad1)*%
X112839500Y-87185500D03*
%TO.N,Net-(DG6-Pad1)*%
X104584500Y-88328500D03*
%TO.N,Net-(DG7-Pad1)*%
X92837000Y-74104500D03*
%TO.N,Net-(DR1-Pad1)*%
X77724000Y-119634000D03*
%TO.N,Net-(DR2-Pad1)*%
X103568500Y-67373500D03*
%TO.N,Net-(DR3-Pad1)*%
X107886500Y-65849500D03*
%TO.N,Net-(DR4-Pad1)*%
X103949500Y-73279000D03*
%TO.N,Net-(DR5-Pad1)*%
X114554000Y-113030000D03*
%TO.N,Net-(DR6-Pad1)*%
X109537500Y-104838500D03*
%TO.N,Net-(DR7-Pad1)*%
X91503500Y-110807500D03*
%TO.N,Net-(DY1-Pad1)*%
X86677500Y-106108500D03*
%TO.N,Net-(DY3-Pad1)*%
X106489500Y-86677500D03*
%TO.N,Net-(DY5-Pad1)*%
X105346500Y-100203000D03*
%TO.N,Net-(DY6-Pad1)*%
X102044500Y-71120000D03*
%TO.N,Net-(DY7-Pad1)*%
X94424500Y-72771000D03*
%TO.N,Net-(DY8-Pad1)*%
X92329000Y-101282500D03*
%TD*%
D11*
%TO.N,Takt_9V*%
X88655000Y-120459500D02*
X90932000Y-120459500D01*
X93472000Y-122999500D02*
X93472000Y-138239500D01*
X93472000Y-138239500D02*
X93472000Y-138874500D01*
X93472000Y-138874500D02*
X89789000Y-142557500D01*
X89789000Y-142557500D02*
X89789000Y-147320000D01*
X83765500Y-125349000D02*
X88655000Y-120459500D01*
X77796500Y-125349000D02*
X83765500Y-125349000D01*
X95640000Y-80073500D02*
X95640000Y-95386000D01*
X95640000Y-95386000D02*
X97917000Y-97663000D01*
X90932000Y-120459500D02*
X93376750Y-122904250D01*
X93376750Y-122904250D02*
X93472000Y-122999500D01*
%TO.N,Net-(DB4-Pad1)*%
X109324000Y-126732000D02*
X109474000Y-126882000D01*
X104838500Y-126732000D02*
X109324000Y-126732000D01*
%TO.N,Takt_invertiert_9V*%
X118055500Y-115261500D02*
X118055500Y-115062000D01*
X120142000Y-117348000D02*
X118055500Y-115261500D01*
X125993000Y-124523500D02*
X123199000Y-127317500D01*
X123199000Y-127317500D02*
X114363500Y-127317500D01*
%TO.N,Net-(DG1-Pad1)*%
X93590000Y-92465000D02*
X93590000Y-80073500D01*
X93590000Y-92465000D02*
X93590000Y-93209000D01*
X93590000Y-93209000D02*
X93599000Y-93218000D01*
%TO.N,Net-(DG2-Pad1)*%
X108149500Y-117792500D02*
X108149500Y-114926000D01*
X112712500Y-101536500D02*
X118364000Y-95885000D01*
X108149500Y-114926000D02*
X110871000Y-112204500D01*
X110871000Y-103378000D02*
X112712500Y-101536500D01*
X110871000Y-112204500D02*
X110871000Y-103378000D01*
%TO.N,Net-(DG3-Pad1)*%
X105219500Y-118672500D02*
X106099500Y-117792500D01*
X105219500Y-119189500D02*
X105219500Y-118672500D01*
%TO.N,Net-(DG5-Pad1)*%
X123943000Y-124523500D02*
X121186025Y-121766525D01*
X121186025Y-121766525D02*
X121186025Y-116106025D01*
X112458500Y-102863502D02*
X119380000Y-95942002D01*
X121186025Y-116106025D02*
X112458500Y-107378500D01*
X112458500Y-107378500D02*
X112458500Y-102863502D01*
X119380000Y-95942002D02*
X119380000Y-93726000D01*
X119380000Y-93726000D02*
X112839500Y-87185500D01*
%TO.N,Net-(DG6-Pad1)*%
X93699499Y-77379999D02*
X93699499Y-72422999D01*
X104584500Y-81857998D02*
X104584500Y-88328500D01*
X93699499Y-72422999D02*
X94076499Y-72045999D01*
X94076499Y-72045999D02*
X94772501Y-72045999D01*
X89281000Y-72961500D02*
X93699499Y-77379999D01*
X94772501Y-72045999D02*
X104584500Y-81857998D01*
%TO.N,Net-(DG7-Pad1)*%
X92474000Y-74104500D02*
X91331000Y-72961500D01*
X92837000Y-74104500D02*
X92474000Y-74104500D01*
%TO.N,Net-(DR1-Pad1)*%
X75746500Y-125349000D02*
X75746500Y-121611500D01*
X75746500Y-121611500D02*
X77724000Y-119634000D01*
%TO.N,Net-(DR2-Pad1)*%
X103568500Y-64715500D02*
X103559500Y-64706500D01*
X103568500Y-67373500D02*
X103568500Y-64715500D01*
%TO.N,Net-(DR3-Pad1)*%
X105609500Y-64706500D02*
X106743500Y-64706500D01*
X106743500Y-64706500D02*
X107886500Y-65849500D01*
%TO.N,Net-(DR4-Pad1)*%
X105782000Y-73279000D02*
X105791000Y-73270000D01*
X103949500Y-73279000D02*
X105782000Y-73279000D01*
%TO.N,Net-(DR5-Pad1)*%
X116005500Y-114481500D02*
X116005500Y-115062000D01*
X114554000Y-113030000D02*
X116005500Y-114481500D01*
%TO.N,Net-(DR6-Pad1)*%
X88905510Y-91563510D02*
X88905510Y-99637010D01*
X87766000Y-90424000D02*
X88905510Y-91563510D01*
X91276001Y-102007501D02*
X94207499Y-102007501D01*
X88905510Y-99637010D02*
X91276001Y-102007501D01*
X94207499Y-102007501D02*
X97726500Y-98488500D01*
X97726500Y-98488500D02*
X101917500Y-98488500D01*
X101917500Y-98488500D02*
X108267500Y-104838500D01*
X108267500Y-104838500D02*
X109537500Y-104838500D01*
%TO.N,Net-(DR7-Pad1)*%
X91503500Y-106743620D02*
X88455500Y-103695620D01*
X91503500Y-110807500D02*
X91503500Y-106743620D01*
X88455500Y-93163500D02*
X85716000Y-90424000D01*
X88455500Y-103695620D02*
X88455500Y-93163500D01*
%TO.N,Net-(DY1-Pad1)*%
X86605000Y-120459500D02*
X86605000Y-106181000D01*
X86605000Y-106181000D02*
X86677500Y-106108500D01*
%TO.N,Net-(DY3-Pad1)*%
X109601000Y-89789000D02*
X110608000Y-89789000D01*
X106489500Y-86677500D02*
X109601000Y-89789000D01*
%TO.N,Net-(DY4-Pad1)*%
X112658000Y-92955000D02*
X111315500Y-94297500D01*
X112658000Y-89789000D02*
X112658000Y-92955000D01*
%TO.N,Net-(DY5-Pad1)*%
X110372000Y-71120000D02*
X110372000Y-73016000D01*
X110372000Y-73016000D02*
X108913478Y-74474522D01*
X108913478Y-74474522D02*
X105346500Y-78041500D01*
X105346500Y-78041500D02*
X105346500Y-100203000D01*
%TO.N,Net-(DY6-Pad1)*%
X102044500Y-71120000D02*
X108322000Y-71120000D01*
%TO.N,Net-(DY7-Pad1)*%
X94370000Y-98869500D02*
X94370000Y-72825500D01*
X94370000Y-72825500D02*
X94424500Y-72771000D01*
%TO.N,Net-(DY8-Pad1)*%
X92329000Y-98878500D02*
X92320000Y-98869500D01*
X92329000Y-101282500D02*
X92329000Y-98878500D01*
%TO.N,GND*%
X111315500Y-96347500D02*
X111297500Y-96347500D01*
%TD*%
D12*
%TO.N,Takt_9V*%
G36*
X89764000Y-149327000D02*
G01*
X87528000Y-149327000D01*
X87528000Y-146829575D01*
X87536088Y-146812000D01*
X89764001Y-146812000D01*
X89764000Y-149327000D01*
G37*
X89764000Y-149327000D02*
X87528000Y-149327000D01*
X87528000Y-146829575D01*
X87536088Y-146812000D01*
X89764001Y-146812000D01*
X89764000Y-149327000D01*
%TD*%
M02*
