%TF.GenerationSoftware,KiCad,Pcbnew,(5.1.6)-1*%
%TF.CreationDate,2021-10-27T12:16:38+02:00*%
%TF.ProjectId,BaumUnten,4261756d-556e-4746-956e-2e6b69636164,rev?*%
%TF.SameCoordinates,Original*%
%TF.FileFunction,Profile,NP*%
%FSLAX46Y46*%
G04 Gerber Fmt 4.6, Leading zero omitted, Abs format (unit mm)*
G04 Created by KiCad (PCBNEW (5.1.6)-1) date 2021-10-27 12:16:38*
%MOMM*%
%LPD*%
G01*
G04 APERTURE LIST*
%TA.AperFunction,Profile*%
%ADD10C,0.050000*%
%TD*%
G04 APERTURE END LIST*
D10*
X95200000Y-146685000D02*
X95200000Y-148894800D01*
X81635600Y-75793600D02*
X81657853Y-75755498D01*
X99663911Y-51765200D02*
X99650770Y-51807260D01*
X119809346Y-75145889D02*
X120038229Y-75432199D01*
X99695000Y-146685000D02*
X101727000Y-146685000D01*
X130113767Y-99545883D02*
X130073121Y-99504820D01*
X130113767Y-99545883D02*
G75*
G02*
X114808001Y-102044499I-10289267J14900383D01*
G01*
X86158582Y-102058350D02*
X86224748Y-101961790D01*
X137569290Y-124774417D02*
X137550390Y-124742792D01*
X91098156Y-75914913D02*
X91112509Y-75960315D01*
X97700000Y-146685000D02*
X99695000Y-146685000D01*
X97700000Y-148894800D02*
X97700000Y-146685000D01*
X95200000Y-148894800D02*
X97700000Y-148894800D01*
X89700000Y-146685000D02*
X95200000Y-146685000D01*
X89700000Y-148894800D02*
X89700000Y-146685000D01*
X87200000Y-148894800D02*
X89700000Y-148894800D01*
X87200000Y-146685000D02*
X87200000Y-148894800D01*
X108648499Y-134619999D02*
X114200000Y-146685000D01*
X92392930Y-134679435D02*
X87200000Y-146685000D01*
X101600000Y-100266500D02*
X99669600Y-100266500D01*
X101600000Y-100266500D02*
X101607011Y-51765200D01*
X99669600Y-100266500D02*
X99663911Y-51765200D01*
X103700000Y-146685000D02*
X101727000Y-146685000D01*
X137569290Y-124774417D02*
G75*
G02*
X108648499Y-134619999I-37493290J62734917D01*
G01*
X92392930Y-134679435D02*
G75*
G02*
X64198502Y-125666498I7683070J72639935D01*
G01*
X106200000Y-146685000D02*
X111600000Y-146685000D01*
X103700000Y-148894800D02*
X103700000Y-146685000D01*
X106200000Y-148894800D02*
X103700000Y-148894800D01*
X106200000Y-146685000D02*
X106200000Y-148894800D01*
X111600000Y-148894800D02*
X111600000Y-146685000D01*
X114200000Y-148894800D02*
X111600000Y-148894800D01*
X114200000Y-146685000D02*
X114200000Y-148894800D01*
X99650770Y-51807260D02*
G75*
G02*
X81657853Y-75755498I-65236917J30280760D01*
G01*
X91098156Y-75914913D02*
G75*
G02*
X81635600Y-75793600I-4547656J14383413D01*
G01*
X91112508Y-75960315D02*
G75*
G02*
X71310500Y-99694998I-65014008J34113815D01*
G01*
X86224748Y-101961790D02*
G75*
G02*
X71310501Y-99694999I-4119248J23094790D01*
G01*
X86158583Y-102058350D02*
G75*
G02*
X64198500Y-125666498I-77205083J49797850D01*
G01*
X137550390Y-124742792D02*
G75*
G02*
X114808002Y-102044498I47488610J70323292D01*
G01*
X130073121Y-99504820D02*
G75*
G02*
X109283410Y-76263603I83096287J95250215D01*
G01*
X120038229Y-75432199D02*
G75*
G02*
X109283501Y-76263499I-6817729J18218699D01*
G01*
X119809346Y-75145889D02*
G75*
G02*
X101607011Y-51765200I83581154J83845389D01*
G01*
M02*
