M48
; DRILL file {KiCad (5.1.8)-1} date 11/03/21 02:04:36
; FORMAT={-:-/ absolute / inch / decimal}
; #@! TF.CreationDate,2021-11-03T02:04:36+01:00
; #@! TF.GenerationSoftware,Kicad,Pcbnew,(5.1.8)-1
FMAT,2
INCH
T1C0.0157
%
G90
G05
T1
X3.1575Y-4.865
X3.16Y-4.652
X3.48Y-5.808
X3.5575Y-4.505
X3.58Y-3.34
X3.645Y-3.2325
X3.6625Y-4.225
X3.6875Y-5.2025
X3.6925Y-4.9875
X3.7075Y-5.5575
X3.7425Y-4.015
X3.745Y-3.1325
X3.774Y-5.346
X3.8Y-5.816
X3.81Y-3.9575
X3.81Y-4.2975
X3.8475Y-4.39
X3.965Y-4.3575
X3.965Y-4.71
X3.998Y-5.088
X4.0675Y-2.6325
X4.134Y-5.814
X4.17Y-4.958
X4.1825Y-4.1175
X4.235Y-4.025
X4.2425Y-5.21
X4.444Y-5.814
X4.48Y-4.3475
X4.4925Y-4.765
X4.5475Y-3.515
X4.7575Y-4.7075
X4.7925Y-4.8275
X4.8375Y-3.81
T0
M30
