%TF.GenerationSoftware,KiCad,Pcbnew,(5.1.6)-1*%
%TF.CreationDate,2021-10-27T12:57:45+02:00*%
%TF.ProjectId,BaumUnten,4261756d-556e-4746-956e-2e6b69636164,rev?*%
%TF.SameCoordinates,Original*%
%TF.FileFunction,Paste,Top*%
%TF.FilePolarity,Positive*%
%FSLAX46Y46*%
G04 Gerber Fmt 4.6, Leading zero omitted, Abs format (unit mm)*
G04 Created by KiCad (PCBNEW (5.1.6)-1) date 2021-10-27 12:57:45*
%MOMM*%
%LPD*%
G01*
G04 APERTURE LIST*
G04 APERTURE END LIST*
%TO.C,C1*%
G36*
G01*
X95785300Y-144236600D02*
X95785300Y-142986600D01*
G75*
G02*
X96035300Y-142736600I250000J0D01*
G01*
X96960300Y-142736600D01*
G75*
G02*
X97210300Y-142986600I0J-250000D01*
G01*
X97210300Y-144236600D01*
G75*
G02*
X96960300Y-144486600I-250000J0D01*
G01*
X96035300Y-144486600D01*
G75*
G02*
X95785300Y-144236600I0J250000D01*
G01*
G37*
G36*
G01*
X92810300Y-144236600D02*
X92810300Y-142986600D01*
G75*
G02*
X93060300Y-142736600I250000J0D01*
G01*
X93985300Y-142736600D01*
G75*
G02*
X94235300Y-142986600I0J-250000D01*
G01*
X94235300Y-144236600D01*
G75*
G02*
X93985300Y-144486600I-250000J0D01*
G01*
X93060300Y-144486600D01*
G75*
G02*
X92810300Y-144236600I0J250000D01*
G01*
G37*
%TD*%
%TO.C,R10*%
G36*
G01*
X82111000Y-100399001D02*
X82111000Y-99498999D01*
G75*
G02*
X82360999Y-99249000I249999J0D01*
G01*
X83011001Y-99249000D01*
G75*
G02*
X83261000Y-99498999I0J-249999D01*
G01*
X83261000Y-100399001D01*
G75*
G02*
X83011001Y-100649000I-249999J0D01*
G01*
X82360999Y-100649000D01*
G75*
G02*
X82111000Y-100399001I0J249999D01*
G01*
G37*
G36*
G01*
X80061000Y-100399001D02*
X80061000Y-99498999D01*
G75*
G02*
X80310999Y-99249000I249999J0D01*
G01*
X80961001Y-99249000D01*
G75*
G02*
X81211000Y-99498999I0J-249999D01*
G01*
X81211000Y-100399001D01*
G75*
G02*
X80961001Y-100649000I-249999J0D01*
G01*
X80310999Y-100649000D01*
G75*
G02*
X80061000Y-100399001I0J249999D01*
G01*
G37*
%TD*%
%TO.C,R8*%
G36*
G01*
X124708499Y-119712000D02*
X125608501Y-119712000D01*
G75*
G02*
X125858500Y-119961999I0J-249999D01*
G01*
X125858500Y-120612001D01*
G75*
G02*
X125608501Y-120862000I-249999J0D01*
G01*
X124708499Y-120862000D01*
G75*
G02*
X124458500Y-120612001I0J249999D01*
G01*
X124458500Y-119961999D01*
G75*
G02*
X124708499Y-119712000I249999J0D01*
G01*
G37*
G36*
G01*
X124708499Y-117662000D02*
X125608501Y-117662000D01*
G75*
G02*
X125858500Y-117911999I0J-249999D01*
G01*
X125858500Y-118562001D01*
G75*
G02*
X125608501Y-118812000I-249999J0D01*
G01*
X124708499Y-118812000D01*
G75*
G02*
X124458500Y-118562001I0J249999D01*
G01*
X124458500Y-117911999D01*
G75*
G02*
X124708499Y-117662000I249999J0D01*
G01*
G37*
%TD*%
%TO.C,R4*%
G36*
G01*
X92513999Y-91382000D02*
X93414001Y-91382000D01*
G75*
G02*
X93664000Y-91631999I0J-249999D01*
G01*
X93664000Y-92282001D01*
G75*
G02*
X93414001Y-92532000I-249999J0D01*
G01*
X92513999Y-92532000D01*
G75*
G02*
X92264000Y-92282001I0J249999D01*
G01*
X92264000Y-91631999D01*
G75*
G02*
X92513999Y-91382000I249999J0D01*
G01*
G37*
G36*
G01*
X92513999Y-89332000D02*
X93414001Y-89332000D01*
G75*
G02*
X93664000Y-89581999I0J-249999D01*
G01*
X93664000Y-90232001D01*
G75*
G02*
X93414001Y-90482000I-249999J0D01*
G01*
X92513999Y-90482000D01*
G75*
G02*
X92264000Y-90232001I0J249999D01*
G01*
X92264000Y-89581999D01*
G75*
G02*
X92513999Y-89332000I249999J0D01*
G01*
G37*
%TD*%
%TO.C,R3*%
G36*
G01*
X118041000Y-99117999D02*
X118041000Y-100018001D01*
G75*
G02*
X117791001Y-100268000I-249999J0D01*
G01*
X117140999Y-100268000D01*
G75*
G02*
X116891000Y-100018001I0J249999D01*
G01*
X116891000Y-99117999D01*
G75*
G02*
X117140999Y-98868000I249999J0D01*
G01*
X117791001Y-98868000D01*
G75*
G02*
X118041000Y-99117999I0J-249999D01*
G01*
G37*
G36*
G01*
X120091000Y-99117999D02*
X120091000Y-100018001D01*
G75*
G02*
X119841001Y-100268000I-249999J0D01*
G01*
X119190999Y-100268000D01*
G75*
G02*
X118941000Y-100018001I0J249999D01*
G01*
X118941000Y-99117999D01*
G75*
G02*
X119190999Y-98868000I249999J0D01*
G01*
X119841001Y-98868000D01*
G75*
G02*
X120091000Y-99117999I0J-249999D01*
G01*
G37*
%TD*%
%TO.C,R2*%
G36*
G01*
X92513999Y-76895000D02*
X93414001Y-76895000D01*
G75*
G02*
X93664000Y-77144999I0J-249999D01*
G01*
X93664000Y-77795001D01*
G75*
G02*
X93414001Y-78045000I-249999J0D01*
G01*
X92513999Y-78045000D01*
G75*
G02*
X92264000Y-77795001I0J249999D01*
G01*
X92264000Y-77144999D01*
G75*
G02*
X92513999Y-76895000I249999J0D01*
G01*
G37*
G36*
G01*
X92513999Y-74845000D02*
X93414001Y-74845000D01*
G75*
G02*
X93664000Y-75094999I0J-249999D01*
G01*
X93664000Y-75745001D01*
G75*
G02*
X93414001Y-75995000I-249999J0D01*
G01*
X92513999Y-75995000D01*
G75*
G02*
X92264000Y-75745001I0J249999D01*
G01*
X92264000Y-75094999D01*
G75*
G02*
X92513999Y-74845000I249999J0D01*
G01*
G37*
%TD*%
%TO.C,R1*%
G36*
G01*
X109277999Y-118496500D02*
X110178001Y-118496500D01*
G75*
G02*
X110428000Y-118746499I0J-249999D01*
G01*
X110428000Y-119396501D01*
G75*
G02*
X110178001Y-119646500I-249999J0D01*
G01*
X109277999Y-119646500D01*
G75*
G02*
X109028000Y-119396501I0J249999D01*
G01*
X109028000Y-118746499D01*
G75*
G02*
X109277999Y-118496500I249999J0D01*
G01*
G37*
G36*
G01*
X109277999Y-116446500D02*
X110178001Y-116446500D01*
G75*
G02*
X110428000Y-116696499I0J-249999D01*
G01*
X110428000Y-117346501D01*
G75*
G02*
X110178001Y-117596500I-249999J0D01*
G01*
X109277999Y-117596500D01*
G75*
G02*
X109028000Y-117346501I0J249999D01*
G01*
X109028000Y-116696499D01*
G75*
G02*
X109277999Y-116446500I249999J0D01*
G01*
G37*
%TD*%
%TO.C,DY8*%
G36*
G01*
X89604000Y-74237001D02*
X89604000Y-73336999D01*
G75*
G02*
X89853999Y-73087000I249999J0D01*
G01*
X90504001Y-73087000D01*
G75*
G02*
X90754000Y-73336999I0J-249999D01*
G01*
X90754000Y-74237001D01*
G75*
G02*
X90504001Y-74487000I-249999J0D01*
G01*
X89853999Y-74487000D01*
G75*
G02*
X89604000Y-74237001I0J249999D01*
G01*
G37*
G36*
G01*
X87554000Y-74237001D02*
X87554000Y-73336999D01*
G75*
G02*
X87803999Y-73087000I249999J0D01*
G01*
X88454001Y-73087000D01*
G75*
G02*
X88704000Y-73336999I0J-249999D01*
G01*
X88704000Y-74237001D01*
G75*
G02*
X88454001Y-74487000I-249999J0D01*
G01*
X87803999Y-74487000D01*
G75*
G02*
X87554000Y-74237001I0J249999D01*
G01*
G37*
%TD*%
%TO.C,DY7*%
G36*
G01*
X103880500Y-68129999D02*
X103880500Y-69030001D01*
G75*
G02*
X103630501Y-69280000I-249999J0D01*
G01*
X102980499Y-69280000D01*
G75*
G02*
X102730500Y-69030001I0J249999D01*
G01*
X102730500Y-68129999D01*
G75*
G02*
X102980499Y-67880000I249999J0D01*
G01*
X103630501Y-67880000D01*
G75*
G02*
X103880500Y-68129999I0J-249999D01*
G01*
G37*
G36*
G01*
X105930500Y-68129999D02*
X105930500Y-69030001D01*
G75*
G02*
X105680501Y-69280000I-249999J0D01*
G01*
X105030499Y-69280000D01*
G75*
G02*
X104780500Y-69030001I0J249999D01*
G01*
X104780500Y-68129999D01*
G75*
G02*
X105030499Y-67880000I249999J0D01*
G01*
X105680501Y-67880000D01*
G75*
G02*
X105930500Y-68129999I0J-249999D01*
G01*
G37*
%TD*%
%TO.C,DY4*%
G36*
G01*
X106166500Y-115373999D02*
X106166500Y-116274001D01*
G75*
G02*
X105916501Y-116524000I-249999J0D01*
G01*
X105266499Y-116524000D01*
G75*
G02*
X105016500Y-116274001I0J249999D01*
G01*
X105016500Y-115373999D01*
G75*
G02*
X105266499Y-115124000I249999J0D01*
G01*
X105916501Y-115124000D01*
G75*
G02*
X106166500Y-115373999I0J-249999D01*
G01*
G37*
G36*
G01*
X108216500Y-115373999D02*
X108216500Y-116274001D01*
G75*
G02*
X107966501Y-116524000I-249999J0D01*
G01*
X107316499Y-116524000D01*
G75*
G02*
X107066500Y-116274001I0J249999D01*
G01*
X107066500Y-115373999D01*
G75*
G02*
X107316499Y-115124000I249999J0D01*
G01*
X107966501Y-115124000D01*
G75*
G02*
X108216500Y-115373999I0J-249999D01*
G01*
G37*
%TD*%
%TO.C,DY3*%
G36*
G01*
X108463501Y-80322000D02*
X107563499Y-80322000D01*
G75*
G02*
X107313500Y-80072001I0J249999D01*
G01*
X107313500Y-79421999D01*
G75*
G02*
X107563499Y-79172000I249999J0D01*
G01*
X108463501Y-79172000D01*
G75*
G02*
X108713500Y-79421999I0J-249999D01*
G01*
X108713500Y-80072001D01*
G75*
G02*
X108463501Y-80322000I-249999J0D01*
G01*
G37*
G36*
G01*
X108463501Y-82372000D02*
X107563499Y-82372000D01*
G75*
G02*
X107313500Y-82122001I0J249999D01*
G01*
X107313500Y-81471999D01*
G75*
G02*
X107563499Y-81222000I249999J0D01*
G01*
X108463501Y-81222000D01*
G75*
G02*
X108713500Y-81471999I0J-249999D01*
G01*
X108713500Y-82122001D01*
G75*
G02*
X108463501Y-82372000I-249999J0D01*
G01*
G37*
%TD*%
%TO.C,DR8*%
G36*
G01*
X91561500Y-86354499D02*
X91561500Y-87254501D01*
G75*
G02*
X91311501Y-87504500I-249999J0D01*
G01*
X90661499Y-87504500D01*
G75*
G02*
X90411500Y-87254501I0J249999D01*
G01*
X90411500Y-86354499D01*
G75*
G02*
X90661499Y-86104500I249999J0D01*
G01*
X91311501Y-86104500D01*
G75*
G02*
X91561500Y-86354499I0J-249999D01*
G01*
G37*
G36*
G01*
X93611500Y-86354499D02*
X93611500Y-87254501D01*
G75*
G02*
X93361501Y-87504500I-249999J0D01*
G01*
X92711499Y-87504500D01*
G75*
G02*
X92461500Y-87254501I0J249999D01*
G01*
X92461500Y-86354499D01*
G75*
G02*
X92711499Y-86104500I249999J0D01*
G01*
X93361501Y-86104500D01*
G75*
G02*
X93611500Y-86354499I0J-249999D01*
G01*
G37*
%TD*%
%TO.C,DR5*%
G36*
G01*
X115575500Y-125926001D02*
X115575500Y-125025999D01*
G75*
G02*
X115825499Y-124776000I249999J0D01*
G01*
X116475501Y-124776000D01*
G75*
G02*
X116725500Y-125025999I0J-249999D01*
G01*
X116725500Y-125926001D01*
G75*
G02*
X116475501Y-126176000I-249999J0D01*
G01*
X115825499Y-126176000D01*
G75*
G02*
X115575500Y-125926001I0J249999D01*
G01*
G37*
G36*
G01*
X113525500Y-125926001D02*
X113525500Y-125025999D01*
G75*
G02*
X113775499Y-124776000I249999J0D01*
G01*
X114425501Y-124776000D01*
G75*
G02*
X114675500Y-125025999I0J-249999D01*
G01*
X114675500Y-125926001D01*
G75*
G02*
X114425501Y-126176000I-249999J0D01*
G01*
X113775499Y-126176000D01*
G75*
G02*
X113525500Y-125926001I0J249999D01*
G01*
G37*
%TD*%
%TO.C,DR4*%
G36*
G01*
X123830500Y-98748001D02*
X123830500Y-97847999D01*
G75*
G02*
X124080499Y-97598000I249999J0D01*
G01*
X124730501Y-97598000D01*
G75*
G02*
X124980500Y-97847999I0J-249999D01*
G01*
X124980500Y-98748001D01*
G75*
G02*
X124730501Y-98998000I-249999J0D01*
G01*
X124080499Y-98998000D01*
G75*
G02*
X123830500Y-98748001I0J249999D01*
G01*
G37*
G36*
G01*
X121780500Y-98748001D02*
X121780500Y-97847999D01*
G75*
G02*
X122030499Y-97598000I249999J0D01*
G01*
X122680501Y-97598000D01*
G75*
G02*
X122930500Y-97847999I0J-249999D01*
G01*
X122930500Y-98748001D01*
G75*
G02*
X122680501Y-98998000I-249999J0D01*
G01*
X122030499Y-98998000D01*
G75*
G02*
X121780500Y-98748001I0J249999D01*
G01*
G37*
%TD*%
%TO.C,DR1*%
G36*
G01*
X87561000Y-113976999D02*
X87561000Y-114877001D01*
G75*
G02*
X87311001Y-115127000I-249999J0D01*
G01*
X86660999Y-115127000D01*
G75*
G02*
X86411000Y-114877001I0J249999D01*
G01*
X86411000Y-113976999D01*
G75*
G02*
X86660999Y-113727000I249999J0D01*
G01*
X87311001Y-113727000D01*
G75*
G02*
X87561000Y-113976999I0J-249999D01*
G01*
G37*
G36*
G01*
X89611000Y-113976999D02*
X89611000Y-114877001D01*
G75*
G02*
X89361001Y-115127000I-249999J0D01*
G01*
X88710999Y-115127000D01*
G75*
G02*
X88461000Y-114877001I0J249999D01*
G01*
X88461000Y-113976999D01*
G75*
G02*
X88710999Y-113727000I249999J0D01*
G01*
X89361001Y-113727000D01*
G75*
G02*
X89611000Y-113976999I0J-249999D01*
G01*
G37*
%TD*%
%TO.C,DG6*%
G36*
G01*
X112452999Y-88715000D02*
X113353001Y-88715000D01*
G75*
G02*
X113603000Y-88964999I0J-249999D01*
G01*
X113603000Y-89615001D01*
G75*
G02*
X113353001Y-89865000I-249999J0D01*
G01*
X112452999Y-89865000D01*
G75*
G02*
X112203000Y-89615001I0J249999D01*
G01*
X112203000Y-88964999D01*
G75*
G02*
X112452999Y-88715000I249999J0D01*
G01*
G37*
G36*
G01*
X112452999Y-86665000D02*
X113353001Y-86665000D01*
G75*
G02*
X113603000Y-86914999I0J-249999D01*
G01*
X113603000Y-87565001D01*
G75*
G02*
X113353001Y-87815000I-249999J0D01*
G01*
X112452999Y-87815000D01*
G75*
G02*
X112203000Y-87565001I0J249999D01*
G01*
X112203000Y-86914999D01*
G75*
G02*
X112452999Y-86665000I249999J0D01*
G01*
G37*
%TD*%
%TO.C,DG5*%
G36*
G01*
X113162500Y-112400501D02*
X113162500Y-111500499D01*
G75*
G02*
X113412499Y-111250500I249999J0D01*
G01*
X114062501Y-111250500D01*
G75*
G02*
X114312500Y-111500499I0J-249999D01*
G01*
X114312500Y-112400501D01*
G75*
G02*
X114062501Y-112650500I-249999J0D01*
G01*
X113412499Y-112650500D01*
G75*
G02*
X113162500Y-112400501I0J249999D01*
G01*
G37*
G36*
G01*
X111112500Y-112400501D02*
X111112500Y-111500499D01*
G75*
G02*
X111362499Y-111250500I249999J0D01*
G01*
X112012501Y-111250500D01*
G75*
G02*
X112262500Y-111500499I0J-249999D01*
G01*
X112262500Y-112400501D01*
G75*
G02*
X112012501Y-112650500I-249999J0D01*
G01*
X111362499Y-112650500D01*
G75*
G02*
X111112500Y-112400501I0J249999D01*
G01*
G37*
%TD*%
%TO.C,DG2*%
G36*
G01*
X90799500Y-103435999D02*
X90799500Y-104336001D01*
G75*
G02*
X90549501Y-104586000I-249999J0D01*
G01*
X89899499Y-104586000D01*
G75*
G02*
X89649500Y-104336001I0J249999D01*
G01*
X89649500Y-103435999D01*
G75*
G02*
X89899499Y-103186000I249999J0D01*
G01*
X90549501Y-103186000D01*
G75*
G02*
X90799500Y-103435999I0J-249999D01*
G01*
G37*
G36*
G01*
X92849500Y-103435999D02*
X92849500Y-104336001D01*
G75*
G02*
X92599501Y-104586000I-249999J0D01*
G01*
X91949499Y-104586000D01*
G75*
G02*
X91699500Y-104336001I0J249999D01*
G01*
X91699500Y-103435999D01*
G75*
G02*
X91949499Y-103186000I249999J0D01*
G01*
X92599501Y-103186000D01*
G75*
G02*
X92849500Y-103435999I0J-249999D01*
G01*
G37*
%TD*%
%TO.C,DG1*%
G36*
G01*
X78373500Y-126688001D02*
X78373500Y-125787999D01*
G75*
G02*
X78623499Y-125538000I249999J0D01*
G01*
X79273501Y-125538000D01*
G75*
G02*
X79523500Y-125787999I0J-249999D01*
G01*
X79523500Y-126688001D01*
G75*
G02*
X79273501Y-126938000I-249999J0D01*
G01*
X78623499Y-126938000D01*
G75*
G02*
X78373500Y-126688001I0J249999D01*
G01*
G37*
G36*
G01*
X76323500Y-126688001D02*
X76323500Y-125787999D01*
G75*
G02*
X76573499Y-125538000I249999J0D01*
G01*
X77223501Y-125538000D01*
G75*
G02*
X77473500Y-125787999I0J-249999D01*
G01*
X77473500Y-126688001D01*
G75*
G02*
X77223501Y-126938000I-249999J0D01*
G01*
X76573499Y-126938000D01*
G75*
G02*
X76323500Y-126688001I0J249999D01*
G01*
G37*
%TD*%
%TO.C,DB8*%
G36*
G01*
X80931500Y-97900500D02*
X80931500Y-97425500D01*
G75*
G02*
X81169000Y-97188000I237500J0D01*
G01*
X81744000Y-97188000D01*
G75*
G02*
X81981500Y-97425500I0J-237500D01*
G01*
X81981500Y-97900500D01*
G75*
G02*
X81744000Y-98138000I-237500J0D01*
G01*
X81169000Y-98138000D01*
G75*
G02*
X80931500Y-97900500I0J237500D01*
G01*
G37*
G36*
G01*
X79181500Y-97900500D02*
X79181500Y-97425500D01*
G75*
G02*
X79419000Y-97188000I237500J0D01*
G01*
X79994000Y-97188000D01*
G75*
G02*
X80231500Y-97425500I0J-237500D01*
G01*
X80231500Y-97900500D01*
G75*
G02*
X79994000Y-98138000I-237500J0D01*
G01*
X79419000Y-98138000D01*
G75*
G02*
X79181500Y-97900500I0J237500D01*
G01*
G37*
%TD*%
%TO.C,DB7*%
G36*
G01*
X107347500Y-130095000D02*
X107347500Y-129620000D01*
G75*
G02*
X107585000Y-129382500I237500J0D01*
G01*
X108160000Y-129382500D01*
G75*
G02*
X108397500Y-129620000I0J-237500D01*
G01*
X108397500Y-130095000D01*
G75*
G02*
X108160000Y-130332500I-237500J0D01*
G01*
X107585000Y-130332500D01*
G75*
G02*
X107347500Y-130095000I0J237500D01*
G01*
G37*
G36*
G01*
X105597500Y-130095000D02*
X105597500Y-129620000D01*
G75*
G02*
X105835000Y-129382500I237500J0D01*
G01*
X106410000Y-129382500D01*
G75*
G02*
X106647500Y-129620000I0J-237500D01*
G01*
X106647500Y-130095000D01*
G75*
G02*
X106410000Y-130332500I-237500J0D01*
G01*
X105835000Y-130332500D01*
G75*
G02*
X105597500Y-130095000I0J237500D01*
G01*
G37*
%TD*%
%TO.C,DB4*%
G36*
G01*
X121379500Y-116920000D02*
X121379500Y-117395000D01*
G75*
G02*
X121142000Y-117632500I-237500J0D01*
G01*
X120567000Y-117632500D01*
G75*
G02*
X120329500Y-117395000I0J237500D01*
G01*
X120329500Y-116920000D01*
G75*
G02*
X120567000Y-116682500I237500J0D01*
G01*
X121142000Y-116682500D01*
G75*
G02*
X121379500Y-116920000I0J-237500D01*
G01*
G37*
G36*
G01*
X123129500Y-116920000D02*
X123129500Y-117395000D01*
G75*
G02*
X122892000Y-117632500I-237500J0D01*
G01*
X122317000Y-117632500D01*
G75*
G02*
X122079500Y-117395000I0J237500D01*
G01*
X122079500Y-116920000D01*
G75*
G02*
X122317000Y-116682500I237500J0D01*
G01*
X122892000Y-116682500D01*
G75*
G02*
X123129500Y-116920000I0J-237500D01*
G01*
G37*
%TD*%
%TO.C,DB3*%
G36*
G01*
X86583000Y-130730000D02*
X86583000Y-130255000D01*
G75*
G02*
X86820500Y-130017500I237500J0D01*
G01*
X87395500Y-130017500D01*
G75*
G02*
X87633000Y-130255000I0J-237500D01*
G01*
X87633000Y-130730000D01*
G75*
G02*
X87395500Y-130967500I-237500J0D01*
G01*
X86820500Y-130967500D01*
G75*
G02*
X86583000Y-130730000I0J237500D01*
G01*
G37*
G36*
G01*
X84833000Y-130730000D02*
X84833000Y-130255000D01*
G75*
G02*
X85070500Y-130017500I237500J0D01*
G01*
X85645500Y-130017500D01*
G75*
G02*
X85883000Y-130255000I0J-237500D01*
G01*
X85883000Y-130730000D01*
G75*
G02*
X85645500Y-130967500I-237500J0D01*
G01*
X85070500Y-130967500D01*
G75*
G02*
X84833000Y-130730000I0J237500D01*
G01*
G37*
%TD*%
M02*
